<?xml version="1.0" encoding="UTF-8" standalone="no"?>
<!DOCTYPE svg PUBLIC "-//W3C//DTD SVG 1.1//EN"
 "http://www.w3.org/Graphics/SVG/1.1/DTD/svg11.dtd">
<!-- Generated by graphviz version 2.43.0 (0)
 -->
<!-- Title: Population::update Pages: 1 -->
<svg width="474pt" height="344pt"
 viewBox="0.00 0.00 474.00 344.00" xmlns="http://www.w3.org/2000/svg" xmlns:xlink="http://www.w3.org/1999/xlink">
<g id="graph0" class="graph" transform="scale(1 1) rotate(0) translate(4 340)">
<title>Population::update</title>
<!-- Node1 -->
<g id="node1" class="node">
<title>Node1</title>
<g id="a_node1"><a xlink:title=" ">
<polygon fill="#bfbfbf" stroke="black" points="0,-164.5 0,-183.5 108,-183.5 108,-164.5 0,-164.5"/>
<text text-anchor="middle" x="54" y="-171.5" font-family="Helvetica,sans-Serif" font-size="10.00">Population::update</text>
</a>
</g>
</g>
<!-- Node2 -->
<g id="node2" class="node">
<title>Node2</title>
<g id="a_node2"><a xlink:href="classPopulation.html#af15e7ba23b161c710d4013204b542cb6" target="_top" xlink:title=" ">
<polygon fill="none" stroke="black" points="168,-316.5 168,-335.5 281,-335.5 281,-316.5 168,-316.5"/>
<text text-anchor="middle" x="224.5" y="-323.5" font-family="Helvetica,sans-Serif" font-size="10.00">Population::calcSSB</text>
</a>
</g>
</g>
<!-- Node1&#45;&gt;Node2 -->
<g id="edge1" class="edge">
<title>Node1&#45;&gt;Node2</title>
<path fill="none" stroke="midnightblue" d="M58.62,-183.86C68.3,-208.75 97.25,-274.47 144,-307 148.33,-310.01 153.08,-312.55 158.03,-314.69"/>
<polygon fill="midnightblue" stroke="midnightblue" points="157.17,-318.1 167.76,-318.33 159.62,-311.55 157.17,-318.1"/>
</g>
<!-- Node3 -->
<g id="node3" class="node">
<title>Node3</title>
<g id="a_node3"><a xlink:href="classPopulation.html#ae942ef70cc9f4dfc40b5d843baf40b1e" target="_top" xlink:title=" ">
<polygon fill="none" stroke="black" points="168,-278.5 168,-297.5 281,-297.5 281,-278.5 168,-278.5"/>
<text text-anchor="middle" x="224.5" y="-285.5" font-family="Helvetica,sans-Serif" font-size="10.00">Population::calcTSB</text>
</a>
</g>
</g>
<!-- Node1&#45;&gt;Node3 -->
<g id="edge2" class="edge">
<title>Node1&#45;&gt;Node3</title>
<path fill="none" stroke="midnightblue" d="M61.06,-183.54C73.88,-202.88 105.7,-246.75 144,-269 148.41,-271.56 153.15,-273.78 158.04,-275.7"/>
<polygon fill="midnightblue" stroke="midnightblue" points="156.99,-279.04 167.58,-279.03 159.3,-272.43 156.99,-279.04"/>
</g>
<!-- Node4 -->
<g id="node4" class="node">
<title>Node4</title>
<g id="a_node4"><a xlink:href="classPopulation.html#ad1840de2f00982c35d48b91a1d27ae13" target="_top" xlink:title=" ">
<polygon fill="none" stroke="black" points="174,-240.5 174,-259.5 275,-259.5 275,-240.5 174,-240.5"/>
<text text-anchor="middle" x="224.5" y="-247.5" font-family="Helvetica,sans-Serif" font-size="10.00">Population::effort</text>
</a>
</g>
</g>
<!-- Node1&#45;&gt;Node4 -->
<g id="edge3" class="edge">
<title>Node1&#45;&gt;Node4</title>
<path fill="none" stroke="midnightblue" d="M68.94,-183.55C86.01,-194.9 116.11,-213.85 144,-226 153.92,-230.32 164.85,-234.17 175.35,-237.45"/>
<polygon fill="midnightblue" stroke="midnightblue" points="174.65,-240.9 185.24,-240.43 176.67,-234.2 174.65,-240.9"/>
</g>
<!-- Node5 -->
<g id="node5" class="node">
<title>Node5</title>
<g id="a_node5"><a xlink:href="classPopulation.html#ac8ed845bbda25c937a2fd76b3788e987" target="_top" xlink:title=" ">
<polygon fill="none" stroke="black" points="341,-183.5 341,-202.5 466,-202.5 466,-183.5 341,-183.5"/>
<text text-anchor="middle" x="403.5" y="-190.5" font-family="Helvetica,sans-Serif" font-size="10.00">Population::selectivity</text>
</a>
</g>
</g>
<!-- Node1&#45;&gt;Node5 -->
<g id="edge13" class="edge">
<title>Node1&#45;&gt;Node5</title>
<path fill="none" stroke="midnightblue" d="M91.1,-183.51C107.17,-187.27 126.4,-191.14 144,-193 206.87,-199.64 278.81,-198.97 330.81,-197.03"/>
<polygon fill="midnightblue" stroke="midnightblue" points="331.09,-200.52 340.94,-196.62 330.81,-193.52 331.09,-200.52"/>
</g>
<!-- Node6 -->
<g id="node6" class="node">
<title>Node6</title>
<g id="a_node6"><a xlink:href="classPopulation.html#a42c4b04852bdda937e50f82952106af1" target="_top" xlink:title=" ">
<polygon fill="none" stroke="black" points="147,-164.5 147,-183.5 302,-183.5 302,-164.5 147,-164.5"/>
<text text-anchor="middle" x="224.5" y="-171.5" font-family="Helvetica,sans-Serif" font-size="10.00">Population::fishableBiomass</text>
</a>
</g>
</g>
<!-- Node1&#45;&gt;Node6 -->
<g id="edge5" class="edge">
<title>Node1&#45;&gt;Node6</title>
<path fill="none" stroke="midnightblue" d="M108.31,-174C117.4,-174 127.05,-174 136.74,-174"/>
<polygon fill="midnightblue" stroke="midnightblue" points="136.83,-177.5 146.83,-174 136.83,-170.5 136.83,-177.5"/>
</g>
<!-- Node7 -->
<g id="node7" class="node">
<title>Node7</title>
<g id="a_node7"><a xlink:href="classPopulation.html#a1118025c1079ababec03f80a14837c5c" target="_top" xlink:title=" ">
<polygon fill="none" stroke="black" points="144,-115 144,-145 305,-145 305,-115 144,-115"/>
<text text-anchor="start" x="152" y="-133" font-family="Helvetica,sans-Serif" font-size="10.00">Population::fishableSpawning</text>
<text text-anchor="middle" x="224.5" y="-122" font-family="Helvetica,sans-Serif" font-size="10.00">Biomass</text>
</a>
</g>
</g>
<!-- Node1&#45;&gt;Node7 -->
<g id="edge7" class="edge">
<title>Node1&#45;&gt;Node7</title>
<path fill="none" stroke="midnightblue" d="M91.56,-164.45C110.36,-159.54 133.89,-153.4 155.85,-147.67"/>
<polygon fill="midnightblue" stroke="midnightblue" points="157.02,-150.98 165.81,-145.07 155.25,-144.21 157.02,-150.98"/>
</g>
<!-- Node8 -->
<g id="node8" class="node">
<title>Node8</title>
<g id="a_node8"><a xlink:href="classFish.html#adf85bf269f1651352506e371ffd2cecc" target="_top" xlink:title="Initializes the fish, i.e., initializes parameters and sets the initial state (age = 1,...">
<polygon fill="none" stroke="black" points="196,-76.5 196,-95.5 253,-95.5 253,-76.5 196,-76.5"/>
<text text-anchor="middle" x="224.5" y="-83.5" font-family="Helvetica,sans-Serif" font-size="10.00">Fish::init</text>
</a>
</g>
</g>
<!-- Node1&#45;&gt;Node8 -->
<g id="edge9" class="edge">
<title>Node1&#45;&gt;Node8</title>
<path fill="none" stroke="midnightblue" d="M64.76,-164.34C80.24,-149.57 111.95,-121.46 144,-106 156.97,-99.74 172.11,-95.31 185.68,-92.23"/>
<polygon fill="midnightblue" stroke="midnightblue" points="186.62,-95.61 195.69,-90.14 185.18,-88.76 186.62,-95.61"/>
</g>
<!-- Node11 -->
<g id="node11" class="node">
<title>Node11</title>
<g id="a_node11"><a xlink:href="classPopulation.html#ac62fc3480d60b055cd1886649809c6a6" target="_top" xlink:title=" ">
<polygon fill="none" stroke="black" points="175.5,-38.5 175.5,-57.5 273.5,-57.5 273.5,-38.5 175.5,-38.5"/>
<text text-anchor="middle" x="224.5" y="-45.5" font-family="Helvetica,sans-Serif" font-size="10.00">Population::nfish</text>
</a>
</g>
</g>
<!-- Node1&#45;&gt;Node11 -->
<g id="edge12" class="edge">
<title>Node1&#45;&gt;Node11</title>
<path fill="none" stroke="midnightblue" d="M60.2,-164.22C72.03,-142.95 103.15,-92.37 144,-67 150.61,-62.89 158.04,-59.67 165.63,-57.15"/>
<polygon fill="midnightblue" stroke="midnightblue" points="166.67,-60.49 175.28,-54.31 164.7,-53.78 166.67,-60.49"/>
</g>
<!-- Node12 -->
<g id="node12" class="node">
<title>Node12</title>
<g id="a_node12"><a xlink:href="classFish.html#aaa3e67187a587efc7a99485b4a6ee248" target="_top" xlink:title=" ">
<polygon fill="none" stroke="black" points="181,-0.5 181,-19.5 268,-19.5 268,-0.5 181,-0.5"/>
<text text-anchor="middle" x="224.5" y="-7.5" font-family="Helvetica,sans-Serif" font-size="10.00">Fish::set_traits</text>
</a>
</g>
</g>
<!-- Node1&#45;&gt;Node12 -->
<g id="edge14" class="edge">
<title>Node1&#45;&gt;Node12</title>
<path fill="none" stroke="midnightblue" d="M57.97,-164.42C66.6,-138.25 94.26,-65.07 144,-29 151.93,-23.25 161.36,-19.22 170.91,-16.4"/>
<polygon fill="midnightblue" stroke="midnightblue" points="172.02,-19.73 180.85,-13.88 170.29,-12.94 172.02,-19.73"/>
</g>
<!-- Node4&#45;&gt;Node5 -->
<g id="edge4" class="edge">
<title>Node4&#45;&gt;Node5</title>
<path fill="none" stroke="midnightblue" d="M258.07,-240.43C272.48,-236.13 289.62,-230.92 305,-226 324.96,-219.61 347.1,-212.15 365.22,-205.94"/>
<polygon fill="midnightblue" stroke="midnightblue" points="366.52,-209.19 374.84,-202.63 364.25,-202.57 366.52,-209.19"/>
</g>
<!-- Node6&#45;&gt;Node5 -->
<g id="edge6" class="edge">
<title>Node6&#45;&gt;Node5</title>
<path fill="none" stroke="midnightblue" d="M302.11,-182.22C311.64,-183.25 321.37,-184.29 330.83,-185.31"/>
<polygon fill="midnightblue" stroke="midnightblue" points="330.65,-188.81 340.96,-186.39 331.39,-181.85 330.65,-188.81"/>
</g>
<!-- Node7&#45;&gt;Node5 -->
<g id="edge8" class="edge">
<title>Node7&#45;&gt;Node5</title>
<path fill="none" stroke="midnightblue" d="M275.29,-145.09C285.17,-148.25 295.45,-151.64 305,-155 326.75,-162.65 350.89,-172.05 369.71,-179.59"/>
<polygon fill="midnightblue" stroke="midnightblue" points="368.44,-182.85 379.02,-183.34 371.06,-176.36 368.44,-182.85"/>
</g>
<!-- Node9 -->
<g id="node9" class="node">
<title>Node9</title>
<g id="a_node9"><a xlink:href="namespacefish.html#a0ab1c4842d702a0a40bd04f26793ce12" target="_top" xlink:title="Compute the nonlinear growth increment , as follows.">
<polygon fill="none" stroke="black" points="361,-95.5 361,-114.5 446,-114.5 446,-95.5 361,-95.5"/>
<text text-anchor="middle" x="403.5" y="-102.5" font-family="Helvetica,sans-Serif" font-size="10.00">fish::dl_power</text>
</a>
</g>
</g>
<!-- Node8&#45;&gt;Node9 -->
<g id="edge10" class="edge">
<title>Node8&#45;&gt;Node9</title>
<path fill="none" stroke="midnightblue" d="M253.16,-88.97C279.21,-91.77 318.91,-96.03 350.83,-99.45"/>
<polygon fill="midnightblue" stroke="midnightblue" points="350.57,-102.95 360.89,-100.53 351.32,-95.99 350.57,-102.95"/>
</g>
<!-- Node10 -->
<g id="node10" class="node">
<title>Node10</title>
<g id="a_node10"><a xlink:href="namespacefish.html#a1d06e0358aca1be4446ed148b7ce3d84" target="_top" xlink:title="Compute the new length after growth assuming no allocation to reproduction.">
<polygon fill="none" stroke="black" points="345.5,-57.5 345.5,-76.5 461.5,-76.5 461.5,-57.5 345.5,-57.5"/>
<text text-anchor="middle" x="403.5" y="-64.5" font-family="Helvetica,sans-Serif" font-size="10.00">fish::length_juvenile</text>
</a>
</g>
</g>
<!-- Node8&#45;&gt;Node10 -->
<g id="edge11" class="edge">
<title>Node8&#45;&gt;Node10</title>
<path fill="none" stroke="midnightblue" d="M253.16,-83.03C275.16,-80.67 306.89,-77.26 335.45,-74.2"/>
<polygon fill="midnightblue" stroke="midnightblue" points="335.83,-77.68 345.4,-73.13 335.08,-70.72 335.83,-77.68"/>
</g>
</g>
</svg>
