<?xml version="1.0" encoding="UTF-8" standalone="no"?>
<!DOCTYPE svg PUBLIC "-//W3C//DTD SVG 1.1//EN"
 "http://www.w3.org/Graphics/SVG/1.1/DTD/svg11.dtd">
<!-- Generated by graphviz version 2.43.0 (0)
 -->
<!-- Title: io::Initializer::parse Pages: 1 -->
<svg width="814pt" height="116pt"
 viewBox="0.00 0.00 814.00 115.50" xmlns="http://www.w3.org/2000/svg" xmlns:xlink="http://www.w3.org/1999/xlink">
<g id="graph0" class="graph" transform="scale(1 1) rotate(0) translate(4 111.5)">
<title>io::Initializer::parse</title>
<!-- Node1 -->
<g id="node1" class="node">
<title>Node1</title>
<g id="a_node1"><a xlink:title=" ">
<polygon fill="#bfbfbf" stroke="black" points="696,-50 696,-69 806,-69 806,-50 696,-50"/>
<text text-anchor="middle" x="751" y="-57" font-family="Helvetica,sans-Serif" font-size="10.00">io::Initializer::parse</text>
</a>
</g>
</g>
<!-- Node2 -->
<g id="node2" class="node">
<title>Node2</title>
<g id="a_node2"><a xlink:href="classFishParams.html#a6a7122ea93777817165dfb09c1d840ac" target="_top" xlink:title=" ">
<polygon fill="none" stroke="black" points="508.5,-88 508.5,-107 643.5,-107 643.5,-88 508.5,-88"/>
<text text-anchor="middle" x="576" y="-95" font-family="Helvetica,sans-Serif" font-size="10.00">FishParams::initFromFile</text>
</a>
</g>
</g>
<!-- Node1&#45;&gt;Node2 -->
<g id="edge1" class="edge">
<title>Node1&#45;&gt;Node2</title>
<path fill="none" stroke="midnightblue" d="M696.49,-71.25C672.03,-76.63 643.43,-82.91 620.34,-87.98"/>
<polygon fill="midnightblue" stroke="midnightblue" points="697.33,-74.65 706.34,-69.09 695.83,-67.82 697.33,-74.65"/>
</g>
<!-- Node4 -->
<g id="node4" class="node">
<title>Node4</title>
<g id="a_node4"><a xlink:href="classPopulationParams.html#a32de4f0d5a47821e5986225f7551e082" target="_top" xlink:title=" ">
<polygon fill="none" stroke="black" points="492,-50 492,-69 660,-69 660,-50 492,-50"/>
<text text-anchor="middle" x="576" y="-57" font-family="Helvetica,sans-Serif" font-size="10.00">PopulationParams::initFromFile</text>
</a>
</g>
</g>
<!-- Node1&#45;&gt;Node4 -->
<g id="edge3" class="edge">
<title>Node1&#45;&gt;Node4</title>
<path fill="none" stroke="midnightblue" d="M685.47,-59.5C677.23,-59.5 668.7,-59.5 660.22,-59.5"/>
<polygon fill="midnightblue" stroke="midnightblue" points="685.74,-63 695.74,-59.5 685.74,-56 685.74,-63"/>
</g>
<!-- Node9 -->
<g id="node9" class="node">
<title>Node9</title>
<g id="a_node9"><a xlink:href="classio_1_1Initializer.html#ae0f4fbd39e7e1641612b39fb775d2400" target="_top" xlink:title=" ">
<polygon fill="none" stroke="black" points="521,-12 521,-31 631,-31 631,-12 521,-12"/>
<text text-anchor="middle" x="576" y="-19" font-family="Helvetica,sans-Serif" font-size="10.00">io::Initializer::parse</text>
</a>
</g>
</g>
<!-- Node1&#45;&gt;Node9 -->
<g id="edge9" class="edge">
<title>Node1&#45;&gt;Node9</title>
<path fill="none" stroke="midnightblue" d="M696.49,-47.75C672.03,-42.37 643.43,-36.09 620.34,-31.02"/>
<polygon fill="midnightblue" stroke="midnightblue" points="695.83,-51.18 706.34,-49.91 697.33,-44.35 695.83,-51.18"/>
</g>
<!-- Node3 -->
<g id="node3" class="node">
<title>Node3</title>
<g id="a_node3"><a xlink:href="fish__glue_8cpp.html#a7b6a9b6d94c71377c935b2cfbffdfabc" target="_top" xlink:title=" ">
<polygon fill="none" stroke="black" points="344.5,-88 344.5,-107 434.5,-107 434.5,-88 344.5,-88"/>
<text text-anchor="middle" x="389.5" y="-95" font-family="Helvetica,sans-Serif" font-size="10.00">RCPP_MODULE</text>
</a>
</g>
</g>
<!-- Node2&#45;&gt;Node3 -->
<g id="edge2" class="edge">
<title>Node2&#45;&gt;Node3</title>
<path fill="none" stroke="midnightblue" d="M498.19,-97.5C476.48,-97.5 453.61,-97.5 434.55,-97.5"/>
<polygon fill="midnightblue" stroke="midnightblue" points="498.39,-101 508.39,-97.5 498.39,-94 498.39,-101"/>
</g>
<!-- Node5 -->
<g id="node5" class="node">
<title>Node5</title>
<g id="a_node5"><a xlink:href="fish__glue_8cpp.html#ab96ae82277aa9004dc603b77512c7265" target="_top" xlink:title=" ">
<polygon fill="none" stroke="black" points="161.5,-50 161.5,-69 251.5,-69 251.5,-50 161.5,-50"/>
<text text-anchor="middle" x="206.5" y="-57" font-family="Helvetica,sans-Serif" font-size="10.00">RCPP_MODULE</text>
</a>
</g>
</g>
<!-- Node4&#45;&gt;Node5 -->
<g id="edge4" class="edge">
<title>Node4&#45;&gt;Node5</title>
<path fill="none" stroke="midnightblue" d="M481.38,-59.5C407.61,-59.5 308.07,-59.5 251.56,-59.5"/>
<polygon fill="midnightblue" stroke="midnightblue" points="481.61,-63 491.61,-59.5 481.61,-56 481.61,-63"/>
</g>
<!-- Node6 -->
<g id="node6" class="node">
<title>Node6</title>
<g id="a_node6"><a xlink:href="classPopulation.html#aeb1d470183d21899c25151c6fe15a4dc" target="_top" xlink:title=" ">
<polygon fill="none" stroke="black" points="323,-12 323,-31 456,-31 456,-12 323,-12"/>
<text text-anchor="middle" x="389.5" y="-19" font-family="Helvetica,sans-Serif" font-size="10.00">Population::readParams</text>
</a>
</g>
</g>
<!-- Node4&#45;&gt;Node6 -->
<g id="edge5" class="edge">
<title>Node4&#45;&gt;Node6</title>
<path fill="none" stroke="midnightblue" d="M518.63,-47.89C492.39,-42.49 461.56,-36.14 436.72,-31.02"/>
<polygon fill="midnightblue" stroke="midnightblue" points="517.94,-51.32 528.44,-49.91 519.35,-44.47 517.94,-51.32"/>
</g>
<!-- Node6&#45;&gt;Node5 -->
<g id="edge8" class="edge">
<title>Node6&#45;&gt;Node5</title>
<path fill="none" stroke="midnightblue" d="M332.71,-33.21C306.63,-38.69 276.02,-45.11 251.6,-50.24"/>
<polygon fill="midnightblue" stroke="midnightblue" points="333.76,-36.57 342.83,-31.09 332.32,-29.72 333.76,-36.57"/>
</g>
<!-- Node7 -->
<g id="node7" class="node">
<title>Node7</title>
<g id="a_node7"><a xlink:href="classSimulator.html#ad02f472064f23f03ae474cb4904d2c56" target="_top" xlink:title=" ">
<polygon fill="none" stroke="black" points="126,-0.5 126,-30.5 287,-30.5 287,-0.5 126,-0.5"/>
<text text-anchor="start" x="134" y="-18.5" font-family="Helvetica,sans-Serif" font-size="10.00">Simulator::equilibriateNatural</text>
<text text-anchor="middle" x="206.5" y="-7.5" font-family="Helvetica,sans-Serif" font-size="10.00">Population</text>
</a>
</g>
</g>
<!-- Node6&#45;&gt;Node7 -->
<g id="edge6" class="edge">
<title>Node6&#45;&gt;Node7</title>
<path fill="none" stroke="midnightblue" d="M312.68,-18.99C304.22,-18.71 295.57,-18.42 287.06,-18.14"/>
<polygon fill="midnightblue" stroke="midnightblue" points="312.79,-22.49 322.9,-19.33 313.02,-15.5 312.79,-22.49"/>
</g>
<!-- Node8 -->
<g id="node8" class="node">
<title>Node8</title>
<g id="a_node8"><a xlink:href="fish__glue_8cpp.html#addebb0997b0e49067d8784c9954b7b96" target="_top" xlink:title=" ">
<polygon fill="none" stroke="black" points="0,-6 0,-25 90,-25 90,-6 0,-6"/>
<text text-anchor="middle" x="45" y="-13" font-family="Helvetica,sans-Serif" font-size="10.00">RCPP_MODULE</text>
</a>
</g>
</g>
<!-- Node7&#45;&gt;Node8 -->
<g id="edge7" class="edge">
<title>Node7&#45;&gt;Node8</title>
<path fill="none" stroke="midnightblue" d="M115.68,-15.5C106.8,-15.5 98.1,-15.5 90.01,-15.5"/>
<polygon fill="midnightblue" stroke="midnightblue" points="115.75,-19 125.75,-15.5 115.75,-12 115.75,-19"/>
</g>
</g>
</svg>
