<?xml version="1.0" encoding="UTF-8" standalone="no"?>
<!DOCTYPE svg PUBLIC "-//W3C//DTD SVG 1.1//EN"
 "http://www.w3.org/Graphics/SVG/1.1/DTD/svg11.dtd">
<!-- Generated by graphviz version 2.43.0 (0)
 -->
<!-- Title: Simulator::stakeholder_satisfaction_2d Pages: 1 -->
<svg width="566pt" height="219pt"
 viewBox="0.00 0.00 566.00 218.52" xmlns="http://www.w3.org/2000/svg" xmlns:xlink="http://www.w3.org/1999/xlink">
<g id="graph0" class="graph" transform="scale(1 1) rotate(0) translate(4 214.52)">
<title>Simulator::stakeholder_satisfaction_2d</title>
<!-- Node1 -->
<g id="node1" class="node">
<title>Node1</title>
<g id="a_node1"><a xlink:title=" ">
<polygon fill="#bfbfbf" stroke="black" points="0,-109 0,-139 127,-139 127,-109 0,-109"/>
<text text-anchor="start" x="8" y="-127" font-family="Helvetica,sans-Serif" font-size="10.00">Simulator::stakeholder</text>
<text text-anchor="middle" x="63.5" y="-116" font-family="Helvetica,sans-Serif" font-size="10.00">_satisfaction_2d</text>
</a>
</g>
</g>
<!-- Node2 -->
<g id="node2" class="node">
<title>Node2</title>
<g id="a_node2"><a xlink:href="classTensor.html#a447f65c9ada7c9357091fba66ad73d10" target="_top" xlink:title=" ">
<polygon fill="none" stroke="black" points="322.5,-171.5 322.5,-190.5 433.5,-190.5 433.5,-171.5 322.5,-171.5"/>
<text text-anchor="middle" x="378" y="-178.5" font-family="Helvetica,sans-Serif" font-size="10.00">Tensor::accumulate</text>
</a>
</g>
</g>
<!-- Node1&#45;&gt;Node2 -->
<g id="edge1" class="edge">
<title>Node1&#45;&gt;Node2</title>
<path fill="none" stroke="midnightblue" d="M78,-139.31C95.46,-157.82 127.84,-188.01 163,-200 222.28,-220.21 295.87,-205.73 339.49,-193.38"/>
<polygon fill="midnightblue" stroke="midnightblue" points="340.51,-196.73 349.11,-190.55 338.53,-190.01 340.51,-196.73"/>
</g>
<!-- Node3 -->
<g id="node3" class="node">
<title>Node3</title>
<g id="a_node3"><a xlink:href="classTensor.html#a6c8465a488ce260e6e05f1a3ceb8ab26" target="_top" xlink:title=" ">
<polygon fill="none" stroke="black" points="173,-171.5 173,-190.5 269,-190.5 269,-171.5 173,-171.5"/>
<text text-anchor="middle" x="221" y="-178.5" font-family="Helvetica,sans-Serif" font-size="10.00">Tensor::avg_dim</text>
</a>
</g>
</g>
<!-- Node1&#45;&gt;Node3 -->
<g id="edge2" class="edge">
<title>Node1&#45;&gt;Node3</title>
<path fill="none" stroke="midnightblue" d="M102.23,-139.03C120.51,-146.19 142.82,-154.75 163,-162 168.72,-164.06 174.79,-166.16 180.76,-168.19"/>
<polygon fill="midnightblue" stroke="midnightblue" points="180.03,-171.63 190.62,-171.5 182.25,-165 180.03,-171.63"/>
</g>
<!-- Node4 -->
<g id="node4" class="node">
<title>Node4</title>
<g id="a_node4"><a xlink:href="classTensor.html#abf7346c2dbd5e6b195cfe9b66e5049e8" target="_top" xlink:title=" ">
<polygon fill="none" stroke="black" points="171,-133.5 171,-152.5 271,-152.5 271,-133.5 171,-133.5"/>
<text text-anchor="middle" x="221" y="-140.5" font-family="Helvetica,sans-Serif" font-size="10.00">Tensor::max_dim</text>
</a>
</g>
</g>
<!-- Node1&#45;&gt;Node4 -->
<g id="edge3" class="edge">
<title>Node1&#45;&gt;Node4</title>
<path fill="none" stroke="midnightblue" d="M127.3,-131.67C138.29,-133.02 149.69,-134.41 160.58,-135.74"/>
<polygon fill="midnightblue" stroke="midnightblue" points="160.48,-139.25 170.84,-136.99 161.33,-132.31 160.48,-139.25"/>
</g>
<!-- Node5 -->
<g id="node5" class="node">
<title>Node5</title>
<g id="a_node5"><a xlink:href="classTensor.html#ae4622cf6280102eb5103cfe4c88c1ad8" target="_top" xlink:title=" ">
<polygon fill="none" stroke="black" points="163,-95.5 163,-114.5 279,-114.5 279,-95.5 163,-95.5"/>
<text text-anchor="middle" x="221" y="-102.5" font-family="Helvetica,sans-Serif" font-size="10.00">Tensor::repeat_inner</text>
</a>
</g>
</g>
<!-- Node1&#45;&gt;Node5 -->
<g id="edge5" class="edge">
<title>Node1&#45;&gt;Node5</title>
<path fill="none" stroke="midnightblue" d="M127.3,-116.33C135.78,-115.29 144.51,-114.22 153.06,-113.18"/>
<polygon fill="midnightblue" stroke="midnightblue" points="153.49,-116.65 162.99,-111.97 152.64,-109.7 153.49,-116.65"/>
</g>
<!-- Node6 -->
<g id="node6" class="node">
<title>Node6</title>
<g id="a_node6"><a xlink:href="classTensor.html#aedee003837348391c5f8d0bc788bf20f" target="_top" xlink:title=" ">
<polygon fill="none" stroke="black" points="163,-57.5 163,-76.5 279,-76.5 279,-57.5 163,-57.5"/>
<text text-anchor="middle" x="221" y="-64.5" font-family="Helvetica,sans-Serif" font-size="10.00">Tensor::repeat_outer</text>
</a>
</g>
</g>
<!-- Node1&#45;&gt;Node6 -->
<g id="edge6" class="edge">
<title>Node1&#45;&gt;Node6</title>
<path fill="none" stroke="midnightblue" d="M102.23,-108.97C120.51,-101.81 142.82,-93.25 163,-86 168.72,-83.94 174.79,-81.84 180.76,-79.81"/>
<polygon fill="midnightblue" stroke="midnightblue" points="182.25,-83 190.62,-76.5 180.03,-76.37 182.25,-83"/>
</g>
<!-- Node7 -->
<g id="node7" class="node">
<title>Node7</title>
<g id="a_node7"><a xlink:href="classTensor.html#a3986d7a50faef0249a8d2da5b1f67a89" target="_top" xlink:title=" ">
<polygon fill="none" stroke="black" points="170,-19.5 170,-38.5 272,-38.5 272,-19.5 170,-19.5"/>
<text text-anchor="middle" x="221" y="-26.5" font-family="Helvetica,sans-Serif" font-size="10.00">Tensor::transform</text>
</a>
</g>
</g>
<!-- Node1&#45;&gt;Node7 -->
<g id="edge7" class="edge">
<title>Node1&#45;&gt;Node7</title>
<path fill="none" stroke="midnightblue" d="M80.39,-108.98C98.95,-92.13 131.16,-64.96 163,-48 166.99,-45.87 171.27,-43.92 175.61,-42.15"/>
<polygon fill="midnightblue" stroke="midnightblue" points="177.04,-45.35 185.17,-38.55 174.57,-38.8 177.04,-45.35"/>
</g>
<!-- Node4&#45;&gt;Node2 -->
<g id="edge4" class="edge">
<title>Node4&#45;&gt;Node2</title>
<path fill="none" stroke="midnightblue" d="M261.11,-152.59C281.47,-157.58 306.57,-163.73 328.19,-169.03"/>
<polygon fill="midnightblue" stroke="midnightblue" points="327.62,-172.5 338.17,-171.48 329.29,-165.7 327.62,-172.5"/>
</g>
<!-- Node8 -->
<g id="node8" class="node">
<title>Node8</title>
<g id="a_node8"><a xlink:href="classTensor.html#a862952dc137707abdccd06cf9cd5855b" target="_top" xlink:title=" ">
<polygon fill="none" stroke="black" points="337.5,-38.5 337.5,-57.5 418.5,-57.5 418.5,-38.5 337.5,-38.5"/>
<text text-anchor="middle" x="378" y="-45.5" font-family="Helvetica,sans-Serif" font-size="10.00">Tensor::plane</text>
</a>
</g>
</g>
<!-- Node7&#45;&gt;Node8 -->
<g id="edge8" class="edge">
<title>Node7&#45;&gt;Node8</title>
<path fill="none" stroke="midnightblue" d="M272.32,-35.17C289.91,-37.32 309.64,-39.74 327.18,-41.89"/>
<polygon fill="midnightblue" stroke="midnightblue" points="326.88,-45.38 337.23,-43.12 327.73,-38.43 326.88,-45.38"/>
</g>
<!-- Node10 -->
<g id="node10" class="node">
<title>Node10</title>
<g id="a_node10"><a xlink:href="classTensor.html#a1a9aea97717d687b7d501842efb546d4" target="_top" xlink:title=" ">
<polygon fill="none" stroke="black" points="315,-0.5 315,-19.5 441,-19.5 441,-0.5 315,-0.5"/>
<text text-anchor="middle" x="378" y="-7.5" font-family="Helvetica,sans-Serif" font-size="10.00">Tensor::transform_dim</text>
</a>
</g>
</g>
<!-- Node7&#45;&gt;Node10 -->
<g id="edge10" class="edge">
<title>Node7&#45;&gt;Node10</title>
<path fill="none" stroke="midnightblue" d="M272.32,-22.83C282.68,-21.56 293.77,-20.2 304.73,-18.86"/>
<polygon fill="midnightblue" stroke="midnightblue" points="305.23,-22.32 314.73,-17.63 304.38,-15.38 305.23,-22.32"/>
</g>
<!-- Node9 -->
<g id="node9" class="node">
<title>Node9</title>
<g id="a_node9"><a xlink:href="classTensor.html#a90a6b28226bcd1be7090fd2f8782d0b1" target="_top" xlink:title=" ">
<polygon fill="none" stroke="black" points="477,-38.5 477,-57.5 558,-57.5 558,-38.5 477,-38.5"/>
<text text-anchor="middle" x="517.5" y="-45.5" font-family="Helvetica,sans-Serif" font-size="10.00">Tensor::index</text>
</a>
</g>
</g>
<!-- Node8&#45;&gt;Node9 -->
<g id="edge9" class="edge">
<title>Node8&#45;&gt;Node9</title>
<path fill="none" stroke="midnightblue" d="M418.77,-48C433.74,-48 450.94,-48 466.71,-48"/>
<polygon fill="midnightblue" stroke="midnightblue" points="466.82,-51.5 476.82,-48 466.82,-44.5 466.82,-51.5"/>
</g>
</g>
</svg>
