<?xml version="1.0" encoding="UTF-8" standalone="no"?>
<!DOCTYPE svg PUBLIC "-//W3C//DTD SVG 1.1//EN"
 "http://www.w3.org/Graphics/SVG/1.1/DTD/svg11.dtd">
<!-- Generated by graphviz version 2.43.0 (0)
 -->
<!-- Title: Fish::grow Pages: 1 -->
<svg width="362pt" height="132pt"
 viewBox="0.00 0.00 362.00 132.00" xmlns="http://www.w3.org/2000/svg" xmlns:xlink="http://www.w3.org/1999/xlink">
<g id="graph0" class="graph" transform="scale(1 1) rotate(0) translate(4 128)">
<title>Fish::grow</title>
<!-- Node1 -->
<g id="node1" class="node">
<title>Node1</title>
<g id="a_node1"><a xlink:title="Implement growth, i.e., set new length and effective GSI after 1 year of growth.">
<polygon fill="#bfbfbf" stroke="black" points="0,-47.5 0,-66.5 65,-66.5 65,-47.5 0,-47.5"/>
<text text-anchor="middle" x="32.5" y="-54.5" font-family="Helvetica,sans-Serif" font-size="10.00">Fish::grow</text>
</a>
</g>
</g>
<!-- Node2 -->
<g id="node2" class="node">
<title>Node2</title>
<g id="a_node2"><a xlink:href="namespacefish.html#a0ab1c4842d702a0a40bd04f26793ce12" target="_top" xlink:title="Compute the nonlinear growth increment , as follows.">
<polygon fill="none" stroke="black" points="109,-104.5 109,-123.5 194,-123.5 194,-104.5 109,-104.5"/>
<text text-anchor="middle" x="151.5" y="-111.5" font-family="Helvetica,sans-Serif" font-size="10.00">fish::dl_power</text>
</a>
</g>
</g>
<!-- Node1&#45;&gt;Node2 -->
<g id="edge1" class="edge">
<title>Node1&#45;&gt;Node2</title>
<path fill="none" stroke="midnightblue" d="M52.99,-66.55C66.46,-73.15 84.82,-82.12 101,-90 107.58,-93.2 114.65,-96.64 121.33,-99.88"/>
<polygon fill="midnightblue" stroke="midnightblue" points="120.22,-103.23 130.74,-104.44 123.27,-96.93 120.22,-103.23"/>
</g>
<!-- Node3 -->
<g id="node3" class="node">
<title>Node3</title>
<g id="a_node3"><a xlink:href="namespacefish.html#a7f532daff6b69774cc75d40ed18aad31" target="_top" xlink:title="Calculate effective GSI, given the initial and final body lengths.">
<polygon fill="none" stroke="black" points="268.5,-47.5 268.5,-66.5 323.5,-66.5 323.5,-47.5 268.5,-47.5"/>
<text text-anchor="middle" x="296" y="-54.5" font-family="Helvetica,sans-Serif" font-size="10.00">fish::gsi</text>
</a>
</g>
</g>
<!-- Node1&#45;&gt;Node3 -->
<g id="edge2" class="edge">
<title>Node1&#45;&gt;Node3</title>
<path fill="none" stroke="midnightblue" d="M65.04,-57C113.72,-57 206.89,-57 258.44,-57"/>
<polygon fill="midnightblue" stroke="midnightblue" points="258.47,-60.5 268.47,-57 258.47,-53.5 258.47,-60.5"/>
</g>
<!-- Node4 -->
<g id="node4" class="node">
<title>Node4</title>
<g id="a_node4"><a xlink:href="namespacefish.html#adc414165e9acd76993cbaaf5140c5f22" target="_top" xlink:title="Compute the new length after growth for adults, assuming allocation to reproduction.">
<polygon fill="none" stroke="black" points="101,-28.5 101,-47.5 202,-47.5 202,-28.5 101,-28.5"/>
<text text-anchor="middle" x="151.5" y="-35.5" font-family="Helvetica,sans-Serif" font-size="10.00">fish::length_adult</text>
</a>
</g>
</g>
<!-- Node1&#45;&gt;Node4 -->
<g id="edge3" class="edge">
<title>Node1&#45;&gt;Node4</title>
<path fill="none" stroke="midnightblue" d="M65.16,-51.86C73.13,-50.56 81.94,-49.13 90.79,-47.7"/>
<polygon fill="midnightblue" stroke="midnightblue" points="91.45,-51.14 100.76,-46.08 90.32,-44.23 91.45,-51.14"/>
</g>
<!-- Node5 -->
<g id="node5" class="node">
<title>Node5</title>
<g id="a_node5"><a xlink:href="namespacefish.html#a1d06e0358aca1be4446ed148b7ce3d84" target="_top" xlink:title="Compute the new length after growth assuming no allocation to reproduction.">
<polygon fill="none" stroke="black" points="238,-0.5 238,-19.5 354,-19.5 354,-0.5 238,-0.5"/>
<text text-anchor="middle" x="296" y="-7.5" font-family="Helvetica,sans-Serif" font-size="10.00">fish::length_juvenile</text>
</a>
</g>
</g>
<!-- Node1&#45;&gt;Node5 -->
<g id="edge6" class="edge">
<title>Node1&#45;&gt;Node5</title>
<path fill="none" stroke="midnightblue" d="M46.13,-47.48C59.12,-38.3 80.32,-24.94 101,-19 141.88,-7.26 189.57,-4.91 227.44,-5.54"/>
<polygon fill="midnightblue" stroke="midnightblue" points="227.77,-9.05 237.85,-5.79 227.94,-2.05 227.77,-9.05"/>
</g>
<!-- Node4&#45;&gt;Node3 -->
<g id="edge4" class="edge">
<title>Node4&#45;&gt;Node3</title>
<path fill="none" stroke="midnightblue" d="M202.34,-44.65C220.68,-47.09 241.12,-49.82 258.12,-52.08"/>
<polygon fill="midnightblue" stroke="midnightblue" points="257.83,-55.58 268.21,-53.43 258.76,-48.64 257.83,-55.58"/>
</g>
<!-- Node4&#45;&gt;Node5 -->
<g id="edge5" class="edge">
<title>Node4&#45;&gt;Node5</title>
<path fill="none" stroke="midnightblue" d="M201.14,-28.44C212.49,-26.21 224.69,-23.81 236.42,-21.51"/>
<polygon fill="midnightblue" stroke="midnightblue" points="237.44,-24.88 246.58,-19.51 236.09,-18.01 237.44,-24.88"/>
</g>
</g>
</svg>
