<?xml version="1.0" encoding="UTF-8" standalone="no"?>
<!DOCTYPE svg PUBLIC "-//W3C//DTD SVG 1.1//EN"
 "http://www.w3.org/Graphics/SVG/1.1/DTD/svg11.dtd">
<!-- Generated by graphviz version 2.43.0 (0)
 -->
<!-- Title: FishParams Pages: 1 -->
<svg width="637pt" height="286pt"
 viewBox="0.00 0.00 637.00 286.32" xmlns="http://www.w3.org/2000/svg" xmlns:xlink="http://www.w3.org/1999/xlink">
<g id="graph0" class="graph" transform="scale(1 1) rotate(0) translate(4 282.32)">
<title>FishParams</title>
<!-- Node1 -->
<g id="Node000001" class="node">
<title>Node1</title>
<g id="a_Node000001"><a xlink:title=" ">
<polygon fill="#999999" stroke="#666666" points="629,-141.82 557,-141.82 557,-122.82 629,-122.82 629,-141.82"/>
<text text-anchor="middle" x="593" y="-129.82" font-family="Helvetica,sans-Serif" font-size="10.00">FishParams</text>
</a>
</g>
</g>
<!-- Node2 -->
<g id="Node000002" class="node">
<title>Node2</title>
<g id="a_Node000002"><a xlink:title=" ">
<polygon fill="white" stroke="#666666" points="392.5,-216.32 270.5,-216.32 270.5,-186.32 392.5,-186.32 392.5,-216.32"/>
<text text-anchor="start" x="278.5" y="-204.32" font-family="Helvetica,sans-Serif" font-size="10.00">std::map&lt; std::string,</text>
<text text-anchor="middle" x="331.5" y="-193.32" font-family="Helvetica,sans-Serif" font-size="10.00"> GrowthModel &gt;</text>
</a>
</g>
</g>
<!-- Node2&#45;&gt;Node1 -->
<g id="edge1_Node000001_Node000002" class="edge">
<title>Node2&#45;&gt;Node1</title>
<g id="a_edge1_Node000001_Node000002"><a xlink:title=" ">
<path fill="none" stroke="#9a32cd" stroke-dasharray="5,2" d="M402.64,-193.23C443.29,-187.19 494.98,-177.19 539,-161.32 552.62,-156.41 566.95,-148.36 577.28,-141.99"/>
<polygon fill="#9a32cd" stroke="#9a32cd" points="401.95,-189.79 392.55,-194.68 402.95,-196.72 401.95,-189.79"/>
</a>
</g>
<text text-anchor="middle" x="476" y="-193.32" font-family="Helvetica,sans-Serif" font-size="10.00" fill="grey"> growth_names_map</text>
</g>
<!-- Node3 -->
<g id="Node000003" class="node">
<title>Node3</title>
<g id="a_Node000003"><a xlink:title=" ">
<polygon fill="white" stroke="#666666" points="206,-162.82 141,-162.82 141,-143.82 206,-143.82 206,-162.82"/>
<text text-anchor="middle" x="173.5" y="-150.82" font-family="Helvetica,sans-Serif" font-size="10.00">std::string</text>
</a>
</g>
</g>
<!-- Node3&#45;&gt;Node1 -->
<g id="edge11_Node000001_Node000003" class="edge">
<title>Node3&#45;&gt;Node1</title>
<g id="a_edge11_Node000001_Node000003"><a xlink:title=" ">
<path fill="none" stroke="#9a32cd" stroke-dasharray="5,2" d="M189.76,-170.37C206.8,-188.02 236.21,-214.5 268,-225.32 321.43,-243.51 338.69,-229.21 395,-225.32 459.46,-220.86 483.59,-238.56 539,-205.32 564.25,-190.17 581,-157.9 588.11,-141.83"/>
<polygon fill="#9a32cd" stroke="#9a32cd" points="192.22,-167.88 182.83,-162.97 187.11,-172.66 192.22,-167.88"/>
</a>
</g>
<text text-anchor="middle" x="331.5" y="-270.32" font-family="Helvetica,sans-Serif" font-size="10.00" fill="grey"> growth_model_name</text>
<text text-anchor="middle" x="331.5" y="-259.32" font-family="Helvetica,sans-Serif" font-size="10.00" fill="grey">maturation_model_name</text>
<text text-anchor="middle" x="331.5" y="-248.32" font-family="Helvetica,sans-Serif" font-size="10.00" fill="grey">mortality_model_name</text>
<text text-anchor="middle" x="331.5" y="-237.32" font-family="Helvetica,sans-Serif" font-size="10.00" fill="grey">recruitment_model_name</text>
</g>
<!-- Node3&#45;&gt;Node2 -->
<g id="edge2_Node000002_Node000003" class="edge">
<title>Node3&#45;&gt;Node2</title>
<g id="a_edge2_Node000002_Node000003"><a xlink:title=" ">
<path fill="none" stroke="#9a32cd" stroke-dasharray="5,2" d="M215.27,-165.86C235.56,-172.1 260.24,-179.7 281.55,-186.25"/>
<polygon fill="#9a32cd" stroke="#9a32cd" points="216.28,-162.51 205.69,-162.91 214.22,-169.2 216.28,-162.51"/>
</a>
</g>
<text text-anchor="middle" x="237" y="-178.32" font-family="Helvetica,sans-Serif" font-size="10.00" fill="grey"> keys</text>
</g>
<!-- Node5 -->
<g id="Node000005" class="node">
<title>Node5</title>
<g id="a_Node000005"><a xlink:title=" ">
<polygon fill="white" stroke="#666666" points="392.5,-168.32 270.5,-168.32 270.5,-138.32 392.5,-138.32 392.5,-168.32"/>
<text text-anchor="start" x="278.5" y="-156.32" font-family="Helvetica,sans-Serif" font-size="10.00">std::map&lt; std::string,</text>
<text text-anchor="middle" x="331.5" y="-145.32" font-family="Helvetica,sans-Serif" font-size="10.00"> MaturationModel &gt;</text>
</a>
</g>
</g>
<!-- Node3&#45;&gt;Node5 -->
<g id="edge5_Node000005_Node000003" class="edge">
<title>Node3&#45;&gt;Node5</title>
<g id="a_edge5_Node000005_Node000003"><a xlink:title=" ">
<path fill="none" stroke="#9a32cd" stroke-dasharray="5,2" d="M216.49,-153.32C233.01,-153.32 252.3,-153.32 270.26,-153.32"/>
<polygon fill="#9a32cd" stroke="#9a32cd" points="216.07,-149.82 206.07,-153.32 216.07,-156.82 216.07,-149.82"/>
</a>
</g>
<text text-anchor="middle" x="237" y="-156.32" font-family="Helvetica,sans-Serif" font-size="10.00" fill="grey"> keys</text>
</g>
<!-- Node6 -->
<g id="Node000006" class="node">
<title>Node6</title>
<g id="a_Node000006"><a xlink:title=" ">
<polygon fill="white" stroke="#666666" points="392.5,-120.32 270.5,-120.32 270.5,-90.32 392.5,-90.32 392.5,-120.32"/>
<text text-anchor="start" x="278.5" y="-108.32" font-family="Helvetica,sans-Serif" font-size="10.00">std::map&lt; std::string,</text>
<text text-anchor="middle" x="331.5" y="-97.32" font-family="Helvetica,sans-Serif" font-size="10.00"> MortalityModel &gt;</text>
</a>
</g>
</g>
<!-- Node3&#45;&gt;Node6 -->
<g id="edge7_Node000006_Node000003" class="edge">
<title>Node3&#45;&gt;Node6</title>
<g id="a_edge7_Node000006_Node000003"><a xlink:title=" ">
<path fill="none" stroke="#9a32cd" stroke-dasharray="5,2" d="M215.27,-140.77C235.56,-134.53 260.24,-126.94 281.55,-120.38"/>
<polygon fill="#9a32cd" stroke="#9a32cd" points="214.22,-137.43 205.69,-143.72 216.28,-144.12 214.22,-137.43"/>
</a>
</g>
<text text-anchor="middle" x="237" y="-140.32" font-family="Helvetica,sans-Serif" font-size="10.00" fill="grey"> keys</text>
</g>
<!-- Node7 -->
<g id="Node000007" class="node">
<title>Node7</title>
<g id="a_Node000007"><a xlink:title=" ">
<polygon fill="white" stroke="#666666" points="392.5,-72.32 270.5,-72.32 270.5,-42.32 392.5,-42.32 392.5,-72.32"/>
<text text-anchor="start" x="278.5" y="-60.32" font-family="Helvetica,sans-Serif" font-size="10.00">std::map&lt; std::string,</text>
<text text-anchor="middle" x="331.5" y="-49.32" font-family="Helvetica,sans-Serif" font-size="10.00"> RecruitmentModel &gt;</text>
</a>
</g>
</g>
<!-- Node3&#45;&gt;Node7 -->
<g id="edge9_Node000007_Node000003" class="edge">
<title>Node3&#45;&gt;Node7</title>
<g id="a_edge9_Node000007_Node000003"><a xlink:title=" ">
<path fill="none" stroke="#9a32cd" stroke-dasharray="5,2" d="M192.66,-136.74C210.73,-120.91 239.75,-97.17 268,-81.32 273.78,-78.07 280.08,-75.09 286.39,-72.4"/>
<polygon fill="#9a32cd" stroke="#9a32cd" points="189.87,-134.55 184.73,-143.81 194.52,-139.77 189.87,-134.55"/>
</a>
</g>
<text text-anchor="middle" x="237" y="-112.32" font-family="Helvetica,sans-Serif" font-size="10.00" fill="grey"> keys</text>
</g>
<!-- Node4 -->
<g id="Node000004" class="node">
<title>Node4</title>
<g id="a_Node000004"><a xlink:title=" ">
<polygon fill="white" stroke="#666666" points="104,-168.32 0,-168.32 0,-138.32 104,-138.32 104,-168.32"/>
<text text-anchor="start" x="8" y="-156.32" font-family="Helvetica,sans-Serif" font-size="10.00">std::basic_string&lt;</text>
<text text-anchor="middle" x="52" y="-145.32" font-family="Helvetica,sans-Serif" font-size="10.00"> Char &gt;</text>
</a>
</g>
</g>
<!-- Node4&#45;&gt;Node3 -->
<g id="edge3_Node000003_Node000004" class="edge">
<title>Node4&#45;&gt;Node3</title>
<g id="a_edge3_Node000003_Node000004"><a xlink:title=" ">
<path fill="none" stroke="#63b8ff" d="M114.1,-153.32C123.41,-153.32 132.68,-153.32 141,-153.32"/>
<polygon fill="#63b8ff" stroke="#63b8ff" points="114.03,-149.82 104.03,-153.32 114.03,-156.82 114.03,-149.82"/>
</a>
</g>
</g>
<!-- Node5&#45;&gt;Node1 -->
<g id="edge4_Node000001_Node000005" class="edge">
<title>Node5&#45;&gt;Node1</title>
<g id="a_edge4_Node000001_Node000005"><a xlink:title=" ">
<path fill="none" stroke="#9a32cd" stroke-dasharray="5,2" d="M402.77,-147.63C452.65,-143.59 517.49,-138.35 556.87,-135.16"/>
<polygon fill="#9a32cd" stroke="#9a32cd" points="402.37,-144.15 392.69,-148.45 402.94,-151.13 402.37,-144.15"/>
</a>
</g>
<text text-anchor="middle" x="476" y="-149.32" font-family="Helvetica,sans-Serif" font-size="10.00" fill="grey"> maturation_names_map</text>
</g>
<!-- Node6&#45;&gt;Node1 -->
<g id="edge6_Node000001_Node000006" class="edge">
<title>Node6&#45;&gt;Node1</title>
<g id="a_edge6_Node000001_Node000006"><a xlink:title=" ">
<path fill="none" stroke="#9a32cd" stroke-dasharray="5,2" d="M403,-108.55C443.02,-110.94 493.97,-114.93 539,-121.32 544.77,-122.14 550.85,-123.2 556.76,-124.35"/>
<polygon fill="#9a32cd" stroke="#9a32cd" points="403,-105.04 392.81,-107.96 402.59,-112.03 403,-105.04"/>
</a>
</g>
<text text-anchor="middle" x="476" y="-124.32" font-family="Helvetica,sans-Serif" font-size="10.00" fill="grey"> mortality_names_map</text>
</g>
<!-- Node7&#45;&gt;Node1 -->
<g id="edge8_Node000001_Node000007" class="edge">
<title>Node7&#45;&gt;Node1</title>
<g id="a_edge8_Node000001_Node000007"><a xlink:title=" ">
<path fill="none" stroke="#9a32cd" stroke-dasharray="5,2" d="M402.96,-62.15C443.94,-66.84 495.85,-76.09 539,-94.32 555.27,-101.19 571.39,-113.8 581.5,-122.6"/>
<polygon fill="#9a32cd" stroke="#9a32cd" points="403.11,-58.64 392.79,-61.05 402.36,-65.6 403.11,-58.64"/>
</a>
</g>
<text text-anchor="middle" x="476" y="-97.32" font-family="Helvetica,sans-Serif" font-size="10.00" fill="grey"> recruitment_names_map</text>
</g>
<!-- Node8 -->
<g id="Node000008" class="node">
<title>Node8</title>
<g id="a_Node000008"><a xlink:title=" ">
<polygon fill="white" stroke="#666666" points="393.5,-23.82 269.5,-23.82 269.5,-4.82 393.5,-4.82 393.5,-23.82"/>
<text text-anchor="middle" x="331.5" y="-11.82" font-family="Helvetica,sans-Serif" font-size="10.00">std::vector&lt; double &gt;</text>
</a>
</g>
</g>
<!-- Node8&#45;&gt;Node1 -->
<g id="edge10_Node000001_Node000008" class="edge">
<title>Node8&#45;&gt;Node1</title>
<g id="a_edge10_Node000001_Node000008"><a xlink:title=" ">
<path fill="none" stroke="#9a32cd" stroke-dasharray="5,2" d="M387.66,-3.36C432.17,2.36 494.49,3.01 539,-26.32 573.36,-48.96 586.38,-100.92 590.43,-122.57"/>
<polygon fill="#9a32cd" stroke="#9a32cd" points="387.01,0.08 377.6,-4.78 387.99,-6.85 387.01,0.08"/>
</a>
</g>
<text text-anchor="middle" x="476" y="-51.32" font-family="Helvetica,sans-Serif" font-size="10.00" fill="grey"> ma</text>
<text text-anchor="middle" x="476" y="-40.32" font-family="Helvetica,sans-Serif" font-size="10.00" fill="grey">mai</text>
<text text-anchor="middle" x="476" y="-29.32" font-family="Helvetica,sans-Serif" font-size="10.00" fill="grey">mam</text>
</g>
</g>
</svg>
