<?xml version="1.0" encoding="UTF-8" standalone="no"?>
<!DOCTYPE svg PUBLIC "-//W3C//DTD SVG 1.1//EN"
 "http://www.w3.org/Graphics/SVG/1.1/DTD/svg11.dtd">
<!-- Generated by graphviz version 2.43.0 (0)
 -->
<!-- Title: Fish::init Pages: 1 -->
<svg width="744pt" height="239pt"
 viewBox="0.00 0.00 744.00 239.40" xmlns="http://www.w3.org/2000/svg" xmlns:xlink="http://www.w3.org/1999/xlink">
<g id="graph0" class="graph" transform="scale(1 1) rotate(0) translate(4 235.4)">
<title>Fish::init</title>
<!-- Node1 -->
<g id="node1" class="node">
<title>Node1</title>
<g id="a_node1"><a xlink:title="Initializes the fish, i.e., initializes parameters and sets the initial state (age = 1,...">
<polygon fill="#bfbfbf" stroke="black" points="679,-88.5 679,-107.5 736,-107.5 736,-88.5 679,-88.5"/>
<text text-anchor="middle" x="707.5" y="-95.5" font-family="Helvetica,sans-Serif" font-size="10.00">Fish::init</text>
</a>
</g>
</g>
<!-- Node2 -->
<g id="node2" class="node">
<title>Node2</title>
<g id="a_node2"><a xlink:href="classPopulation.html#a012ef586a78b4e7c2082634b316072d0" target="_top" xlink:title=" ">
<polygon fill="none" stroke="black" points="544,-88.5 544,-107.5 634,-107.5 634,-88.5 544,-88.5"/>
<text text-anchor="middle" x="589" y="-95.5" font-family="Helvetica,sans-Serif" font-size="10.00">Population::init</text>
</a>
</g>
</g>
<!-- Node1&#45;&gt;Node2 -->
<g id="edge1" class="edge">
<title>Node1&#45;&gt;Node2</title>
<path fill="none" stroke="midnightblue" d="M668.75,-98C657.74,-98 645.62,-98 634.26,-98"/>
<polygon fill="midnightblue" stroke="midnightblue" points="668.89,-101.5 678.89,-98 668.89,-94.5 668.89,-101.5"/>
</g>
<!-- Node12 -->
<g id="node12" class="node">
<title>Node12</title>
<g id="a_node12"><a xlink:href="fish__glue_8cpp.html#a7b6a9b6d94c71377c935b2cfbffdfabc" target="_top" xlink:title=" ">
<polygon fill="none" stroke="black" points="544,-50.5 544,-69.5 634,-69.5 634,-50.5 544,-50.5"/>
<text text-anchor="middle" x="589" y="-57.5" font-family="Helvetica,sans-Serif" font-size="10.00">RCPP_MODULE</text>
</a>
</g>
</g>
<!-- Node1&#45;&gt;Node12 -->
<g id="edge15" class="edge">
<title>Node1&#45;&gt;Node12</title>
<path fill="none" stroke="midnightblue" d="M669.24,-85.85C653.13,-80.59 634.56,-74.54 619.45,-69.61"/>
<polygon fill="midnightblue" stroke="midnightblue" points="668.3,-89.22 678.89,-88.99 670.47,-82.57 668.3,-89.22"/>
</g>
<!-- Node13 -->
<g id="node13" class="node">
<title>Node13</title>
<g id="a_node13"><a xlink:href="classPopulation.html#a81c19d1c80cfb1d54d3872ecdefd0872" target="_top" xlink:title=" ">
<polygon fill="none" stroke="black" points="535,-126.5 535,-145.5 643,-145.5 643,-126.5 535,-126.5"/>
<text text-anchor="middle" x="589" y="-133.5" font-family="Helvetica,sans-Serif" font-size="10.00">Population::update</text>
</a>
</g>
</g>
<!-- Node1&#45;&gt;Node13 -->
<g id="edge16" class="edge">
<title>Node1&#45;&gt;Node13</title>
<path fill="none" stroke="midnightblue" d="M669.24,-110.15C653.13,-115.41 634.56,-121.46 619.45,-126.39"/>
<polygon fill="midnightblue" stroke="midnightblue" points="670.47,-113.43 678.89,-107.01 668.3,-106.78 670.47,-113.43"/>
</g>
<!-- Node3 -->
<g id="node3" class="node">
<title>Node3</title>
<g id="a_node3"><a xlink:href="classPopulation.html#aa7eba257f23cbc12aa3673ce012fb2cb" target="_top" xlink:title=" ">
<polygon fill="none" stroke="black" points="323,-126.5 323,-145.5 499,-145.5 499,-126.5 323,-126.5"/>
<text text-anchor="middle" x="411" y="-133.5" font-family="Helvetica,sans-Serif" font-size="10.00">Population::noFishingEquilibriate</text>
</a>
</g>
</g>
<!-- Node2&#45;&gt;Node3 -->
<g id="edge2" class="edge">
<title>Node2&#45;&gt;Node3</title>
<path fill="none" stroke="midnightblue" d="M533.57,-109.75C508.68,-115.13 479.58,-121.41 456.09,-126.48"/>
<polygon fill="midnightblue" stroke="midnightblue" points="534.55,-113.12 543.59,-107.59 533.07,-106.28 534.55,-113.12"/>
</g>
<!-- Node6 -->
<g id="node6" class="node">
<title>Node6</title>
<g id="a_node6"><a xlink:href="fish__glue_8cpp.html#ab96ae82277aa9004dc603b77512c7265" target="_top" xlink:title=" ">
<polygon fill="none" stroke="black" points="161.5,-88.5 161.5,-107.5 251.5,-107.5 251.5,-88.5 161.5,-88.5"/>
<text text-anchor="middle" x="206.5" y="-95.5" font-family="Helvetica,sans-Serif" font-size="10.00">RCPP_MODULE</text>
</a>
</g>
</g>
<!-- Node2&#45;&gt;Node6 -->
<g id="edge6" class="edge">
<title>Node2&#45;&gt;Node6</title>
<path fill="none" stroke="midnightblue" d="M533.69,-98C457.86,-98 321.71,-98 251.71,-98"/>
<polygon fill="midnightblue" stroke="midnightblue" points="533.98,-101.5 543.98,-98 533.98,-94.5 533.98,-101.5"/>
</g>
<!-- Node7 -->
<g id="node7" class="node">
<title>Node7</title>
<g id="a_node7"><a xlink:href="classSimulator.html#a7540919b97662be7deacba9194c0ed60" target="_top" xlink:title=" ">
<polygon fill="none" stroke="black" points="354.5,-165 354.5,-195 467.5,-195 467.5,-165 354.5,-165"/>
<text text-anchor="start" x="362.5" y="-183" font-family="Helvetica,sans-Serif" font-size="10.00">Simulator::simulate</text>
<text text-anchor="middle" x="411" y="-172" font-family="Helvetica,sans-Serif" font-size="10.00">_multi</text>
</a>
</g>
</g>
<!-- Node2&#45;&gt;Node7 -->
<g id="edge7" class="edge">
<title>Node2&#45;&gt;Node7</title>
<path fill="none" stroke="midnightblue" d="M544.4,-111.7C541.13,-113.31 537.95,-115.07 535,-117 515.52,-129.72 518.88,-142.92 499,-155 489.47,-160.8 478.53,-165.3 467.7,-168.78"/>
<polygon fill="midnightblue" stroke="midnightblue" points="546.04,-114.81 553.79,-107.59 543.23,-108.4 546.04,-114.81"/>
</g>
<!-- Node9 -->
<g id="node9" class="node">
<title>Node9</title>
<g id="a_node9"><a xlink:href="classSimulator.html#ab21d1c6b0af00931f9a8fa5e0b6d417f" target="_top" xlink:title=" ">
<polygon fill="none" stroke="black" points="354.5,-39 354.5,-69 467.5,-69 467.5,-39 354.5,-39"/>
<text text-anchor="start" x="362.5" y="-57" font-family="Helvetica,sans-Serif" font-size="10.00">Simulator::simulate</text>
<text text-anchor="middle" x="411" y="-46" font-family="Helvetica,sans-Serif" font-size="10.00">_multi_2d</text>
</a>
</g>
</g>
<!-- Node2&#45;&gt;Node9 -->
<g id="edge10" class="edge">
<title>Node2&#45;&gt;Node9</title>
<path fill="none" stroke="midnightblue" d="M539.9,-85.98C517.62,-80.4 490.99,-73.75 467.83,-67.96"/>
<polygon fill="midnightblue" stroke="midnightblue" points="539.26,-89.42 549.81,-88.45 540.96,-82.63 539.26,-89.42"/>
</g>
<!-- Node11 -->
<g id="node11" class="node">
<title>Node11</title>
<g id="a_node11"><a xlink:href="classSimulator.html#aa6e6cfd73fd8d3200e7f515b473e88f2" target="_top" xlink:title=" ">
<polygon fill="none" stroke="black" points="350,-0.5 350,-19.5 472,-19.5 472,-0.5 350,-0.5"/>
<text text-anchor="middle" x="411" y="-7.5" font-family="Helvetica,sans-Serif" font-size="10.00">Simulator::simulate_r</text>
</a>
</g>
</g>
<!-- Node2&#45;&gt;Node11 -->
<g id="edge13" class="edge">
<title>Node2&#45;&gt;Node11</title>
<path fill="none" stroke="midnightblue" d="M542.88,-84.06C540.11,-82.53 537.46,-80.85 535,-79 513.13,-62.53 521.89,-44.03 499,-29 490.99,-23.74 481.75,-19.91 472.36,-17.13"/>
<polygon fill="midnightblue" stroke="midnightblue" points="541.46,-87.26 551.99,-88.44 544.49,-80.95 541.46,-87.26"/>
</g>
<!-- Node4 -->
<g id="node4" class="node">
<title>Node4</title>
<g id="a_node4"><a xlink:href="classSimulator.html#ad02f472064f23f03ae474cb4904d2c56" target="_top" xlink:title=" ">
<polygon fill="none" stroke="black" points="126,-127 126,-157 287,-157 287,-127 126,-127"/>
<text text-anchor="start" x="134" y="-145" font-family="Helvetica,sans-Serif" font-size="10.00">Simulator::equilibriateNatural</text>
<text text-anchor="middle" x="206.5" y="-134" font-family="Helvetica,sans-Serif" font-size="10.00">Population</text>
</a>
</g>
</g>
<!-- Node3&#45;&gt;Node4 -->
<g id="edge3" class="edge">
<title>Node3&#45;&gt;Node4</title>
<path fill="none" stroke="midnightblue" d="M312.86,-138.88C304.24,-139.13 295.58,-139.39 287.12,-139.64"/>
<polygon fill="midnightblue" stroke="midnightblue" points="313.05,-142.37 322.95,-138.58 312.85,-135.38 313.05,-142.37"/>
</g>
<!-- Node3&#45;&gt;Node6 -->
<g id="edge5" class="edge">
<title>Node3&#45;&gt;Node6</title>
<path fill="none" stroke="midnightblue" d="M349.23,-124.6C317.9,-118.72 280.38,-111.68 251.82,-106.32"/>
<polygon fill="midnightblue" stroke="midnightblue" points="348.69,-128.06 359.16,-126.46 349.98,-121.18 348.69,-128.06"/>
</g>
<!-- Node5 -->
<g id="node5" class="node">
<title>Node5</title>
<g id="a_node5"><a xlink:href="fish__glue_8cpp.html#addebb0997b0e49067d8784c9954b7b96" target="_top" xlink:title=" ">
<polygon fill="none" stroke="black" points="0,-88.5 0,-107.5 90,-107.5 90,-88.5 0,-88.5"/>
<text text-anchor="middle" x="45" y="-95.5" font-family="Helvetica,sans-Serif" font-size="10.00">RCPP_MODULE</text>
</a>
</g>
</g>
<!-- Node4&#45;&gt;Node5 -->
<g id="edge4" class="edge">
<title>Node4&#45;&gt;Node5</title>
<path fill="none" stroke="midnightblue" d="M141.35,-124.3C120.64,-118.59 98.47,-112.47 80.72,-107.58"/>
<polygon fill="midnightblue" stroke="midnightblue" points="140.48,-127.7 151.06,-126.98 142.35,-120.95 140.48,-127.7"/>
</g>
<!-- Node8 -->
<g id="node8" class="node">
<title>Node8</title>
<g id="a_node8"><a xlink:href="classSimulator.html#a1a5454ee4736819d709398b225d7876d" target="_top" xlink:title=" ">
<polygon fill="none" stroke="black" points="150,-176 150,-206 263,-206 263,-176 150,-176"/>
<text text-anchor="start" x="158" y="-194" font-family="Helvetica,sans-Serif" font-size="10.00">Simulator::simulate</text>
<text text-anchor="middle" x="206.5" y="-183" font-family="Helvetica,sans-Serif" font-size="10.00">_multi_r</text>
</a>
</g>
</g>
<!-- Node7&#45;&gt;Node8 -->
<g id="edge8" class="edge">
<title>Node7&#45;&gt;Node8</title>
<path fill="none" stroke="midnightblue" d="M344.21,-183.57C318.09,-184.99 288.37,-186.61 263.33,-187.97"/>
<polygon fill="midnightblue" stroke="midnightblue" points="344.6,-187.06 354.4,-183.02 344.22,-180.07 344.6,-187.06"/>
</g>
<!-- Node8&#45;&gt;Node5 -->
<g id="edge9" class="edge">
<title>Node8&#45;&gt;Node5</title>
<path fill="none" stroke="midnightblue" d="M140.33,-173.82C135.38,-171.76 130.54,-169.5 126,-167 96.74,-150.92 68.65,-122.83 54.86,-107.93"/>
<polygon fill="midnightblue" stroke="midnightblue" points="139.38,-177.2 149.97,-177.51 141.88,-170.67 139.38,-177.2"/>
</g>
<!-- Node10 -->
<g id="node10" class="node">
<title>Node10</title>
<g id="a_node10"><a xlink:href="classSimulator.html#af1b0a9562ecf0ad8f98d61576efba28b" target="_top" xlink:title=" ">
<polygon fill="none" stroke="black" points="150,-39 150,-69 263,-69 263,-39 150,-39"/>
<text text-anchor="start" x="158" y="-57" font-family="Helvetica,sans-Serif" font-size="10.00">Simulator::simulate</text>
<text text-anchor="middle" x="206.5" y="-46" font-family="Helvetica,sans-Serif" font-size="10.00">_multi_2d_r</text>
</a>
</g>
</g>
<!-- Node9&#45;&gt;Node10 -->
<g id="edge11" class="edge">
<title>Node9&#45;&gt;Node10</title>
<path fill="none" stroke="midnightblue" d="M344.21,-54C318.09,-54 288.37,-54 263.33,-54"/>
<polygon fill="midnightblue" stroke="midnightblue" points="344.4,-57.5 354.4,-54 344.4,-50.5 344.4,-57.5"/>
</g>
<!-- Node10&#45;&gt;Node5 -->
<g id="edge12" class="edge">
<title>Node10&#45;&gt;Node5</title>
<path fill="none" stroke="midnightblue" d="M141.35,-71.7C120.64,-77.41 98.47,-83.53 80.72,-88.42"/>
<polygon fill="midnightblue" stroke="midnightblue" points="142.35,-75.05 151.06,-69.02 140.48,-68.3 142.35,-75.05"/>
</g>
<!-- Node11&#45;&gt;Node5 -->
<g id="edge14" class="edge">
<title>Node11&#45;&gt;Node5</title>
<path fill="none" stroke="midnightblue" d="M339.88,-2.63C280.64,0.82 194.72,-0.81 126,-29 94.44,-41.95 66.51,-72.5 53.59,-88.25"/>
<polygon fill="midnightblue" stroke="midnightblue" points="339.68,-6.12 349.89,-3.27 340.13,0.86 339.68,-6.12"/>
</g>
<!-- Node13&#45;&gt;Node3 -->
<g id="edge17" class="edge">
<title>Node13&#45;&gt;Node3</title>
<path fill="none" stroke="midnightblue" d="M524.5,-136C516.29,-136 507.76,-136 499.25,-136"/>
<polygon fill="midnightblue" stroke="midnightblue" points="524.72,-139.5 534.72,-136 524.72,-132.5 524.72,-139.5"/>
</g>
<!-- Node13&#45;&gt;Node6 -->
<g id="edge18" class="edge">
<title>Node13&#45;&gt;Node6</title>
<path fill="none" stroke="midnightblue" d="M572.54,-153.34C556.2,-170.24 528.73,-194.83 499,-205 424.99,-230.33 388.03,-248.47 323,-205 288.21,-181.75 318.67,-145.35 287,-118 277.2,-109.53 264.32,-104.56 251.79,-101.66"/>
<polygon fill="midnightblue" stroke="midnightblue" points="575.36,-155.45 579.63,-145.76 570.24,-150.67 575.36,-155.45"/>
</g>
<!-- Node13&#45;&gt;Node7 -->
<g id="edge19" class="edge">
<title>Node13&#45;&gt;Node7</title>
<path fill="none" stroke="midnightblue" d="M539.9,-148.02C517.62,-153.6 490.99,-160.25 467.83,-166.04"/>
<polygon fill="midnightblue" stroke="midnightblue" points="540.96,-151.37 549.81,-145.55 539.26,-144.58 540.96,-151.37"/>
</g>
<!-- Node13&#45;&gt;Node9 -->
<g id="edge20" class="edge">
<title>Node13&#45;&gt;Node9</title>
<path fill="none" stroke="midnightblue" d="M549.67,-122.93C544.7,-121.03 539.7,-119.04 535,-117 501.1,-102.31 463.47,-82.5 438.87,-69.04"/>
<polygon fill="midnightblue" stroke="midnightblue" points="548.54,-126.24 559.13,-126.41 550.96,-119.67 548.54,-126.24"/>
</g>
<!-- Node13&#45;&gt;Node11 -->
<g id="edge21" class="edge">
<title>Node13&#45;&gt;Node11</title>
<path fill="none" stroke="midnightblue" d="M540.28,-121.32C538.41,-120 536.64,-118.56 535,-117 504.47,-87.79 531.35,-56.18 499,-29 491.31,-22.54 481.91,-18.13 472.17,-15.15"/>
<polygon fill="midnightblue" stroke="midnightblue" points="538.6,-124.4 549.01,-126.39 542.12,-118.34 538.6,-124.4"/>
</g>
</g>
</svg>
