<?xml version="1.0" encoding="UTF-8" standalone="no"?>
<!DOCTYPE svg PUBLIC "-//W3C//DTD SVG 1.1//EN"
 "http://www.w3.org/Graphics/SVG/1.1/DTD/svg11.dtd">
<!-- Generated by graphviz version 2.43.0 (0)
 -->
<!-- Title: FishParams::initFromFile Pages: 1 -->
<svg width="559pt" height="110pt"
 viewBox="0.00 0.00 559.00 109.50" xmlns="http://www.w3.org/2000/svg" xmlns:xlink="http://www.w3.org/1999/xlink">
<g id="graph0" class="graph" transform="scale(1 1) rotate(0) translate(4 105.5)">
<title>FishParams::initFromFile</title>
<!-- Node1 -->
<g id="node1" class="node">
<title>Node1</title>
<g id="a_node1"><a xlink:title=" ">
<polygon fill="#bfbfbf" stroke="black" points="0,-38.5 0,-57.5 135,-57.5 135,-38.5 0,-38.5"/>
<text text-anchor="middle" x="67.5" y="-45.5" font-family="Helvetica,sans-Serif" font-size="10.00">FishParams::initFromFile</text>
</a>
</g>
</g>
<!-- Node2 -->
<g id="node2" class="node">
<title>Node2</title>
<g id="a_node2"><a xlink:href="classio_1_1Initializer.html#a098a8511a950a4449925c8315af36bdb" target="_top" xlink:title=" ">
<polygon fill="none" stroke="black" points="176.5,-76.5 176.5,-95.5 275.5,-95.5 275.5,-76.5 176.5,-76.5"/>
<text text-anchor="middle" x="226" y="-83.5" font-family="Helvetica,sans-Serif" font-size="10.00">io::Initializer::get</text>
</a>
</g>
</g>
<!-- Node1&#45;&gt;Node2 -->
<g id="edge1" class="edge">
<title>Node1&#45;&gt;Node2</title>
<path fill="none" stroke="midnightblue" d="M107.99,-57.59C128.64,-62.6 154.11,-68.79 176.01,-74.11"/>
<polygon fill="midnightblue" stroke="midnightblue" points="175.25,-77.52 185.79,-76.48 176.9,-70.72 175.25,-77.52"/>
</g>
<!-- Node5 -->
<g id="node5" class="node">
<title>Node5</title>
<g id="a_node5"><a xlink:href="namespacefish.html#a7f532daff6b69774cc75d40ed18aad31" target="_top" xlink:title="Calculate effective GSI, given the initial and final body lengths.">
<polygon fill="none" stroke="black" points="198.5,-38.5 198.5,-57.5 253.5,-57.5 253.5,-38.5 198.5,-38.5"/>
<text text-anchor="middle" x="226" y="-45.5" font-family="Helvetica,sans-Serif" font-size="10.00">fish::gsi</text>
</a>
</g>
</g>
<!-- Node1&#45;&gt;Node5 -->
<g id="edge4" class="edge">
<title>Node1&#45;&gt;Node5</title>
<path fill="none" stroke="midnightblue" d="M135.32,-48C153.41,-48 172.34,-48 188.11,-48"/>
<polygon fill="midnightblue" stroke="midnightblue" points="188.48,-51.5 198.48,-48 188.48,-44.5 188.48,-51.5"/>
</g>
<!-- Node6 -->
<g id="node6" class="node">
<title>Node6</title>
<g id="a_node6"><a xlink:href="classio_1_1Initializer.html#a6c174190ba99677aac35c5c7e92b69b8" target="_top" xlink:title=" ">
<polygon fill="none" stroke="black" points="171,-0.5 171,-19.5 281,-19.5 281,-0.5 171,-0.5"/>
<text text-anchor="middle" x="226" y="-7.5" font-family="Helvetica,sans-Serif" font-size="10.00">io::Initializer::parse</text>
</a>
</g>
</g>
<!-- Node1&#45;&gt;Node6 -->
<g id="edge5" class="edge">
<title>Node1&#45;&gt;Node6</title>
<path fill="none" stroke="midnightblue" d="M107.99,-38.41C128.64,-33.4 154.11,-27.21 176.01,-21.89"/>
<polygon fill="midnightblue" stroke="midnightblue" points="176.9,-25.28 185.79,-19.52 175.25,-18.48 176.9,-25.28"/>
</g>
<!-- Node3 -->
<g id="node3" class="node">
<title>Node3</title>
<g id="a_node3"><a xlink:href="classio_1_1Initializer.html#a06fe79d6d19f76180836e03e3ad6b7fb" target="_top" xlink:title=" ">
<polygon fill="none" stroke="black" points="317,-71 317,-101 416,-101 416,-71 317,-71"/>
<text text-anchor="start" x="325" y="-89" font-family="Helvetica,sans-Serif" font-size="10.00">io::Initializer::get</text>
<text text-anchor="middle" x="366.5" y="-78" font-family="Helvetica,sans-Serif" font-size="10.00">_value</text>
</a>
</g>
</g>
<!-- Node2&#45;&gt;Node3 -->
<g id="edge2" class="edge">
<title>Node2&#45;&gt;Node3</title>
<path fill="none" stroke="midnightblue" d="M275.83,-86C285.76,-86 296.3,-86 306.54,-86"/>
<polygon fill="midnightblue" stroke="midnightblue" points="306.64,-89.5 316.64,-86 306.64,-82.5 306.64,-89.5"/>
</g>
<!-- Node4 -->
<g id="node4" class="node">
<title>Node4</title>
<g id="a_node4"><a xlink:href="classio_1_1Initializer.html#a310526fc5b0c2c257bee66d6f48fa4ae" target="_top" xlink:title=" ">
<polygon fill="none" stroke="black" points="452,-71 452,-101 551,-101 551,-71 452,-71"/>
<text text-anchor="start" x="460" y="-89" font-family="Helvetica,sans-Serif" font-size="10.00">io::Initializer::get</text>
<text text-anchor="middle" x="501.5" y="-78" font-family="Helvetica,sans-Serif" font-size="10.00">_section</text>
</a>
</g>
</g>
<!-- Node3&#45;&gt;Node4 -->
<g id="edge3" class="edge">
<title>Node3&#45;&gt;Node4</title>
<path fill="none" stroke="midnightblue" d="M416.27,-86C424.49,-86 433.1,-86 441.55,-86"/>
<polygon fill="midnightblue" stroke="midnightblue" points="441.74,-89.5 451.74,-86 441.74,-82.5 441.74,-89.5"/>
</g>
</g>
</svg>
