<?xml version="1.0" encoding="UTF-8" standalone="no"?>
<!DOCTYPE svg PUBLIC "-//W3C//DTD SVG 1.1//EN"
 "http://www.w3.org/Graphics/SVG/1.1/DTD/svg11.dtd">
<!-- Generated by graphviz version 2.43.0 (0)
 -->
<!-- Title: Population::set_superFishSize Pages: 1 -->
<svg width="641pt" height="112pt"
 viewBox="0.00 0.00 641.00 112.00" xmlns="http://www.w3.org/2000/svg" xmlns:xlink="http://www.w3.org/1999/xlink">
<g id="graph0" class="graph" transform="scale(1 1) rotate(0) translate(4 108)">
<title>Population::set_superFishSize</title>
<!-- Node1 -->
<g id="node1" class="node">
<title>Node1</title>
<g id="a_node1"><a xlink:title=" ">
<polygon fill="#bfbfbf" stroke="black" points="472,-50 472,-69 633,-69 633,-50 472,-50"/>
<text text-anchor="middle" x="552.5" y="-57" font-family="Helvetica,sans-Serif" font-size="10.00">Population::set_superFishSize</text>
</a>
</g>
</g>
<!-- Node2 -->
<g id="node2" class="node">
<title>Node2</title>
<g id="a_node2"><a xlink:href="classSimulator.html#ad02f472064f23f03ae474cb4904d2c56" target="_top" xlink:title=" ">
<polygon fill="none" stroke="black" points="126,-73.5 126,-103.5 287,-103.5 287,-73.5 126,-73.5"/>
<text text-anchor="start" x="134" y="-91.5" font-family="Helvetica,sans-Serif" font-size="10.00">Simulator::equilibriateNatural</text>
<text text-anchor="middle" x="206.5" y="-80.5" font-family="Helvetica,sans-Serif" font-size="10.00">Population</text>
</a>
</g>
</g>
<!-- Node1&#45;&gt;Node2 -->
<g id="edge1" class="edge">
<title>Node1&#45;&gt;Node2</title>
<path fill="none" stroke="midnightblue" d="M491.41,-70.78C473.63,-73.74 454.08,-76.62 436,-78.5 386.73,-83.61 331.22,-86.12 287.25,-87.34"/>
<polygon fill="midnightblue" stroke="midnightblue" points="492.38,-74.17 501.65,-69.04 491.2,-67.26 492.38,-74.17"/>
</g>
<!-- Node4 -->
<g id="node4" class="node">
<title>Node4</title>
<g id="a_node4"><a xlink:href="fish__glue_8cpp.html#ab96ae82277aa9004dc603b77512c7265" target="_top" xlink:title=" ">
<polygon fill="none" stroke="black" points="334.5,-50 334.5,-69 424.5,-69 424.5,-50 334.5,-50"/>
<text text-anchor="middle" x="379.5" y="-57" font-family="Helvetica,sans-Serif" font-size="10.00">RCPP_MODULE</text>
</a>
</g>
</g>
<!-- Node1&#45;&gt;Node4 -->
<g id="edge3" class="edge">
<title>Node1&#45;&gt;Node4</title>
<path fill="none" stroke="midnightblue" d="M461.49,-59.5C448.7,-59.5 436.05,-59.5 424.68,-59.5"/>
<polygon fill="midnightblue" stroke="midnightblue" points="461.76,-63 471.76,-59.5 461.76,-56 461.76,-63"/>
</g>
<!-- Node5 -->
<g id="node5" class="node">
<title>Node5</title>
<g id="a_node5"><a xlink:href="classSimulator.html#a7540919b97662be7deacba9194c0ed60" target="_top" xlink:title=" ">
<polygon fill="none" stroke="black" points="323,-0.5 323,-30.5 436,-30.5 436,-0.5 323,-0.5"/>
<text text-anchor="start" x="331" y="-18.5" font-family="Helvetica,sans-Serif" font-size="10.00">Simulator::simulate</text>
<text text-anchor="middle" x="379.5" y="-7.5" font-family="Helvetica,sans-Serif" font-size="10.00">_multi</text>
</a>
</g>
</g>
<!-- Node1&#45;&gt;Node5 -->
<g id="edge4" class="edge">
<title>Node1&#45;&gt;Node5</title>
<path fill="none" stroke="midnightblue" d="M504.65,-47.44C483.44,-41.99 458.21,-35.5 436.06,-29.8"/>
<polygon fill="midnightblue" stroke="midnightblue" points="503.84,-50.85 514.4,-49.95 505.58,-44.07 503.84,-50.85"/>
</g>
<!-- Node3 -->
<g id="node3" class="node">
<title>Node3</title>
<g id="a_node3"><a xlink:href="fish__glue_8cpp.html#addebb0997b0e49067d8784c9954b7b96" target="_top" xlink:title=" ">
<polygon fill="none" stroke="black" points="0,-46 0,-65 90,-65 90,-46 0,-46"/>
<text text-anchor="middle" x="45" y="-53" font-family="Helvetica,sans-Serif" font-size="10.00">RCPP_MODULE</text>
</a>
</g>
</g>
<!-- Node2&#45;&gt;Node3 -->
<g id="edge2" class="edge">
<title>Node2&#45;&gt;Node3</title>
<path fill="none" stroke="midnightblue" d="M122.9,-71.41C111.68,-69.09 100.54,-66.78 90.36,-64.68"/>
<polygon fill="midnightblue" stroke="midnightblue" points="122.25,-74.85 132.75,-73.45 123.67,-67.99 122.25,-74.85"/>
</g>
<!-- Node6 -->
<g id="node6" class="node">
<title>Node6</title>
<g id="a_node6"><a xlink:href="classSimulator.html#a1a5454ee4736819d709398b225d7876d" target="_top" xlink:title=" ">
<polygon fill="none" stroke="black" points="150,-16.5 150,-46.5 263,-46.5 263,-16.5 150,-16.5"/>
<text text-anchor="start" x="158" y="-34.5" font-family="Helvetica,sans-Serif" font-size="10.00">Simulator::simulate</text>
<text text-anchor="middle" x="206.5" y="-23.5" font-family="Helvetica,sans-Serif" font-size="10.00">_multi_r</text>
</a>
</g>
</g>
<!-- Node5&#45;&gt;Node6 -->
<g id="edge5" class="edge">
<title>Node5&#45;&gt;Node6</title>
<path fill="none" stroke="midnightblue" d="M312.89,-21.64C296.44,-23.18 278.94,-24.82 263.03,-26.3"/>
<polygon fill="midnightblue" stroke="midnightblue" points="313.35,-25.11 322.98,-20.69 312.7,-18.14 313.35,-25.11"/>
</g>
<!-- Node6&#45;&gt;Node3 -->
<g id="edge6" class="edge">
<title>Node6&#45;&gt;Node3</title>
<path fill="none" stroke="midnightblue" d="M139.5,-41.43C122.89,-43.93 105.45,-46.55 90.2,-48.85"/>
<polygon fill="midnightblue" stroke="midnightblue" points="140.35,-44.84 149.71,-39.89 139.31,-37.92 140.35,-44.84"/>
</g>
</g>
</svg>
