<?xml version="1.0" encoding="UTF-8" standalone="no"?>
<!DOCTYPE svg PUBLIC "-//W3C//DTD SVG 1.1//EN"
 "http://www.w3.org/Graphics/SVG/1.1/DTD/svg11.dtd">
<!-- Generated by graphviz version 2.43.0 (0)
 -->
<!-- Title: Simulator::simulate_r Pages: 1 -->
<svg width="682pt" height="363pt"
 viewBox="0.00 0.00 682.00 363.00" xmlns="http://www.w3.org/2000/svg" xmlns:xlink="http://www.w3.org/1999/xlink">
<g id="graph0" class="graph" transform="scale(1 1) rotate(0) translate(4 359)">
<title>Simulator::simulate_r</title>
<!-- Node1 -->
<g id="node1" class="node">
<title>Node1</title>
<g id="a_node1"><a xlink:title=" ">
<polygon fill="#bfbfbf" stroke="black" points="0,-133.5 0,-152.5 122,-152.5 122,-133.5 0,-133.5"/>
<text text-anchor="middle" x="61" y="-140.5" font-family="Helvetica,sans-Serif" font-size="10.00">Simulator::simulate_r</text>
</a>
</g>
</g>
<!-- Node2 -->
<g id="node2" class="node">
<title>Node2</title>
<g id="a_node2"><a xlink:href="classPopulation.html#a42c4b04852bdda937e50f82952106af1" target="_top" xlink:title=" ">
<polygon fill="none" stroke="black" points="355,-335.5 355,-354.5 510,-354.5 510,-335.5 355,-335.5"/>
<text text-anchor="middle" x="432.5" y="-342.5" font-family="Helvetica,sans-Serif" font-size="10.00">Population::fishableBiomass</text>
</a>
</g>
</g>
<!-- Node1&#45;&gt;Node2 -->
<g id="edge1" class="edge">
<title>Node1&#45;&gt;Node2</title>
<path fill="none" stroke="midnightblue" d="M77.03,-152.62C119.33,-179.5 243.4,-256.93 352,-311 366.74,-318.34 383.44,-325.63 397.72,-331.57"/>
<polygon fill="midnightblue" stroke="midnightblue" points="396.59,-334.88 407.17,-335.45 399.25,-328.41 396.59,-334.88"/>
</g>
<!-- Node4 -->
<g id="node4" class="node">
<title>Node4</title>
<g id="a_node4"><a xlink:href="classPopulation.html#a012ef586a78b4e7c2082634b316072d0" target="_top" xlink:title=" ">
<polygon fill="none" stroke="black" points="192,-133.5 192,-152.5 282,-152.5 282,-133.5 192,-133.5"/>
<text text-anchor="middle" x="237" y="-140.5" font-family="Helvetica,sans-Serif" font-size="10.00">Population::init</text>
</a>
</g>
</g>
<!-- Node1&#45;&gt;Node4 -->
<g id="edge3" class="edge">
<title>Node1&#45;&gt;Node4</title>
<path fill="none" stroke="midnightblue" d="M122.37,-143C141.67,-143 162.9,-143 181.73,-143"/>
<polygon fill="midnightblue" stroke="midnightblue" points="181.92,-146.5 191.92,-143 181.92,-139.5 181.92,-146.5"/>
</g>
<!-- Node8 -->
<g id="node8" class="node">
<title>Node8</title>
<g id="a_node8"><a xlink:href="classPopulation.html#a20696fa511c914e7c8837acb2a254b33" target="_top" xlink:title=" ">
<polygon fill="none" stroke="black" points="160.5,-95.5 160.5,-114.5 313.5,-114.5 313.5,-95.5 160.5,-95.5"/>
<text text-anchor="middle" x="237" y="-102.5" font-family="Helvetica,sans-Serif" font-size="10.00">Population::set_harvestProp</text>
</a>
</g>
</g>
<!-- Node1&#45;&gt;Node8 -->
<g id="edge7" class="edge">
<title>Node1&#45;&gt;Node8</title>
<path fill="none" stroke="midnightblue" d="M105.91,-133.41C129.18,-128.33 157.95,-122.04 182.52,-116.68"/>
<polygon fill="midnightblue" stroke="midnightblue" points="183.39,-120.07 192.41,-114.52 181.89,-113.23 183.39,-120.07"/>
</g>
<!-- Node9 -->
<g id="node9" class="node">
<title>Node9</title>
<g id="a_node9"><a xlink:href="classPopulation.html#a343a346cae1413da400c042868c15859" target="_top" xlink:title=" ">
<polygon fill="none" stroke="black" points="158,-57.5 158,-76.5 316,-76.5 316,-57.5 158,-57.5"/>
<text text-anchor="middle" x="237" y="-64.5" font-family="Helvetica,sans-Serif" font-size="10.00">Population::set_minSizeLimit</text>
</a>
</g>
</g>
<!-- Node1&#45;&gt;Node9 -->
<g id="edge8" class="edge">
<title>Node1&#45;&gt;Node9</title>
<path fill="none" stroke="midnightblue" d="M75.32,-133.34C93.26,-120.74 126.59,-98.81 158,-86 164.16,-83.49 170.73,-81.25 177.34,-79.28"/>
<polygon fill="midnightblue" stroke="midnightblue" points="178.34,-82.63 187.03,-76.57 176.45,-75.89 178.34,-82.63"/>
</g>
<!-- Node10 -->
<g id="node10" class="node">
<title>Node10</title>
<g id="a_node10"><a xlink:href="classPopulation.html#a81c19d1c80cfb1d54d3872ecdefd0872" target="_top" xlink:title=" ">
<polygon fill="none" stroke="black" points="183,-171.5 183,-190.5 291,-190.5 291,-171.5 183,-171.5"/>
<text text-anchor="middle" x="237" y="-178.5" font-family="Helvetica,sans-Serif" font-size="10.00">Population::update</text>
</a>
</g>
</g>
<!-- Node1&#45;&gt;Node10 -->
<g id="edge9" class="edge">
<title>Node1&#45;&gt;Node10</title>
<path fill="none" stroke="midnightblue" d="M105.91,-152.59C129.18,-157.67 157.95,-163.96 182.52,-169.32"/>
<polygon fill="midnightblue" stroke="midnightblue" points="181.89,-172.77 192.41,-171.48 183.39,-165.93 181.89,-172.77"/>
</g>
<!-- Node3 -->
<g id="node3" class="node">
<title>Node3</title>
<g id="a_node3"><a xlink:href="classPopulation.html#ac8ed845bbda25c937a2fd76b3788e987" target="_top" xlink:title=" ">
<polygon fill="none" stroke="black" points="549,-278.5 549,-297.5 674,-297.5 674,-278.5 549,-278.5"/>
<text text-anchor="middle" x="611.5" y="-285.5" font-family="Helvetica,sans-Serif" font-size="10.00">Population::selectivity</text>
</a>
</g>
</g>
<!-- Node2&#45;&gt;Node3 -->
<g id="edge2" class="edge">
<title>Node2&#45;&gt;Node3</title>
<path fill="none" stroke="midnightblue" d="M466.07,-335.43C480.48,-331.13 497.62,-325.92 513,-321 532.96,-314.61 555.1,-307.15 573.22,-300.94"/>
<polygon fill="midnightblue" stroke="midnightblue" points="574.52,-304.19 582.84,-297.63 572.25,-297.57 574.52,-304.19"/>
</g>
<!-- Node5 -->
<g id="node5" class="node">
<title>Node5</title>
<g id="a_node5"><a xlink:href="classFish.html#adf85bf269f1651352506e371ffd2cecc" target="_top" xlink:title="Initializes the fish, i.e., initializes parameters and sets the initial state (age = 1,...">
<polygon fill="none" stroke="black" points="404,-19.5 404,-38.5 461,-38.5 461,-19.5 404,-19.5"/>
<text text-anchor="middle" x="432.5" y="-26.5" font-family="Helvetica,sans-Serif" font-size="10.00">Fish::init</text>
</a>
</g>
</g>
<!-- Node4&#45;&gt;Node5 -->
<g id="edge4" class="edge">
<title>Node4&#45;&gt;Node5</title>
<path fill="none" stroke="midnightblue" d="M282.4,-139.2C294.3,-136.41 306.49,-131.75 316,-124 344.98,-100.39 322.97,-71.55 352,-48 363.71,-38.5 379.38,-33.62 393.72,-31.15"/>
<polygon fill="midnightblue" stroke="midnightblue" points="394.43,-34.59 403.85,-29.75 393.47,-27.65 394.43,-34.59"/>
</g>
<!-- Node6 -->
<g id="node6" class="node">
<title>Node6</title>
<g id="a_node6"><a xlink:href="namespacefish.html#a0ab1c4842d702a0a40bd04f26793ce12" target="_top" xlink:title="Compute the nonlinear growth increment , as follows.">
<polygon fill="none" stroke="black" points="569,-38.5 569,-57.5 654,-57.5 654,-38.5 569,-38.5"/>
<text text-anchor="middle" x="611.5" y="-45.5" font-family="Helvetica,sans-Serif" font-size="10.00">fish::dl_power</text>
</a>
</g>
</g>
<!-- Node5&#45;&gt;Node6 -->
<g id="edge5" class="edge">
<title>Node5&#45;&gt;Node6</title>
<path fill="none" stroke="midnightblue" d="M461.16,-31.97C487.21,-34.77 526.91,-39.03 558.83,-42.45"/>
<polygon fill="midnightblue" stroke="midnightblue" points="558.57,-45.95 568.89,-43.53 559.32,-38.99 558.57,-45.95"/>
</g>
<!-- Node7 -->
<g id="node7" class="node">
<title>Node7</title>
<g id="a_node7"><a xlink:href="namespacefish.html#a1d06e0358aca1be4446ed148b7ce3d84" target="_top" xlink:title="Compute the new length after growth assuming no allocation to reproduction.">
<polygon fill="none" stroke="black" points="553.5,-0.5 553.5,-19.5 669.5,-19.5 669.5,-0.5 553.5,-0.5"/>
<text text-anchor="middle" x="611.5" y="-7.5" font-family="Helvetica,sans-Serif" font-size="10.00">fish::length_juvenile</text>
</a>
</g>
</g>
<!-- Node5&#45;&gt;Node7 -->
<g id="edge6" class="edge">
<title>Node5&#45;&gt;Node7</title>
<path fill="none" stroke="midnightblue" d="M461.16,-26.03C483.16,-23.67 514.89,-20.26 543.45,-17.2"/>
<polygon fill="midnightblue" stroke="midnightblue" points="543.83,-20.68 553.4,-16.13 543.08,-13.72 543.83,-20.68"/>
</g>
<!-- Node10&#45;&gt;Node2 -->
<g id="edge14" class="edge">
<title>Node10&#45;&gt;Node2</title>
<path fill="none" stroke="midnightblue" d="M247.58,-190.8C262.77,-206.52 293,-238.6 316,-268 333.54,-290.43 329.05,-304.14 352,-321 357.91,-325.34 364.61,-328.91 371.56,-331.83"/>
<polygon fill="midnightblue" stroke="midnightblue" points="370.53,-335.19 381.12,-335.44 373,-328.64 370.53,-335.19"/>
</g>
<!-- Node10&#45;&gt;Node3 -->
<g id="edge19" class="edge">
<title>Node10&#45;&gt;Node3</title>
<path fill="none" stroke="midnightblue" d="M244.27,-190.58C259.51,-212.87 301.02,-267.82 352,-288 418.64,-314.38 502.74,-307.84 556.58,-299.2"/>
<polygon fill="midnightblue" stroke="midnightblue" points="557.32,-302.62 566.6,-297.51 556.16,-295.72 557.32,-302.62"/>
</g>
<!-- Node10&#45;&gt;Node5 -->
<g id="edge17" class="edge">
<title>Node10&#45;&gt;Node5</title>
<path fill="none" stroke="midnightblue" d="M291.21,-175.78C300.33,-172.85 309.08,-168.47 316,-162 354.81,-125.71 313.11,-84.21 352,-48 363.12,-37.65 378.83,-32.63 393.36,-30.3"/>
<polygon fill="midnightblue" stroke="midnightblue" points="394.15,-33.73 403.64,-29.04 393.29,-26.78 394.15,-33.73"/>
</g>
<!-- Node11 -->
<g id="node11" class="node">
<title>Node11</title>
<g id="a_node11"><a xlink:href="classPopulation.html#af15e7ba23b161c710d4013204b542cb6" target="_top" xlink:title=" ">
<polygon fill="none" stroke="black" points="376,-171.5 376,-190.5 489,-190.5 489,-171.5 376,-171.5"/>
<text text-anchor="middle" x="432.5" y="-178.5" font-family="Helvetica,sans-Serif" font-size="10.00">Population::calcSSB</text>
</a>
</g>
</g>
<!-- Node10&#45;&gt;Node11 -->
<g id="edge10" class="edge">
<title>Node10&#45;&gt;Node11</title>
<path fill="none" stroke="midnightblue" d="M291.13,-181C314.14,-181 341.3,-181 365.58,-181"/>
<polygon fill="midnightblue" stroke="midnightblue" points="365.79,-184.5 375.79,-181 365.79,-177.5 365.79,-184.5"/>
</g>
<!-- Node12 -->
<g id="node12" class="node">
<title>Node12</title>
<g id="a_node12"><a xlink:href="classPopulation.html#ae942ef70cc9f4dfc40b5d843baf40b1e" target="_top" xlink:title=" ">
<polygon fill="none" stroke="black" points="376,-133.5 376,-152.5 489,-152.5 489,-133.5 376,-133.5"/>
<text text-anchor="middle" x="432.5" y="-140.5" font-family="Helvetica,sans-Serif" font-size="10.00">Population::calcTSB</text>
</a>
</g>
</g>
<!-- Node10&#45;&gt;Node12 -->
<g id="edge11" class="edge">
<title>Node10&#45;&gt;Node12</title>
<path fill="none" stroke="midnightblue" d="M286.83,-171.41C313.05,-166.26 345.56,-159.88 373.12,-154.47"/>
<polygon fill="midnightblue" stroke="midnightblue" points="373.88,-157.88 383.02,-152.52 372.54,-151.01 373.88,-157.88"/>
</g>
<!-- Node13 -->
<g id="node13" class="node">
<title>Node13</title>
<g id="a_node13"><a xlink:href="classPopulation.html#ad1840de2f00982c35d48b91a1d27ae13" target="_top" xlink:title=" ">
<polygon fill="none" stroke="black" points="382,-259.5 382,-278.5 483,-278.5 483,-259.5 382,-259.5"/>
<text text-anchor="middle" x="432.5" y="-266.5" font-family="Helvetica,sans-Serif" font-size="10.00">Population::effort</text>
</a>
</g>
</g>
<!-- Node10&#45;&gt;Node13 -->
<g id="edge12" class="edge">
<title>Node10&#45;&gt;Node13</title>
<path fill="none" stroke="midnightblue" d="M250.97,-190.71C271.41,-205.57 312.83,-233.93 352,-250 358.35,-252.61 365.14,-254.91 371.98,-256.92"/>
<polygon fill="midnightblue" stroke="midnightblue" points="371.41,-260.4 381.98,-259.68 373.27,-253.65 371.41,-260.4"/>
</g>
<!-- Node14 -->
<g id="node14" class="node">
<title>Node14</title>
<g id="a_node14"><a xlink:href="classPopulation.html#a1118025c1079ababec03f80a14837c5c" target="_top" xlink:title=" ">
<polygon fill="none" stroke="black" points="352,-210 352,-240 513,-240 513,-210 352,-210"/>
<text text-anchor="start" x="360" y="-228" font-family="Helvetica,sans-Serif" font-size="10.00">Population::fishableSpawning</text>
<text text-anchor="middle" x="432.5" y="-217" font-family="Helvetica,sans-Serif" font-size="10.00">Biomass</text>
</a>
</g>
</g>
<!-- Node10&#45;&gt;Node14 -->
<g id="edge15" class="edge">
<title>Node10&#45;&gt;Node14</title>
<path fill="none" stroke="midnightblue" d="M279.99,-190.55C301.97,-195.55 329.57,-201.82 355.17,-207.64"/>
<polygon fill="midnightblue" stroke="midnightblue" points="354.72,-211.13 365.25,-209.93 356.27,-204.3 354.72,-211.13"/>
</g>
<!-- Node15 -->
<g id="node15" class="node">
<title>Node15</title>
<g id="a_node15"><a xlink:href="classPopulation.html#ac62fc3480d60b055cd1886649809c6a6" target="_top" xlink:title=" ">
<polygon fill="none" stroke="black" points="383.5,-95.5 383.5,-114.5 481.5,-114.5 481.5,-95.5 383.5,-95.5"/>
<text text-anchor="middle" x="432.5" y="-102.5" font-family="Helvetica,sans-Serif" font-size="10.00">Population::nfish</text>
</a>
</g>
</g>
<!-- Node10&#45;&gt;Node15 -->
<g id="edge18" class="edge">
<title>Node10&#45;&gt;Node15</title>
<path fill="none" stroke="midnightblue" d="M291.2,-172.4C299.82,-169.79 308.4,-166.41 316,-162 336.12,-150.33 331.85,-135.63 352,-124 358.58,-120.2 365.89,-117.16 373.32,-114.73"/>
<polygon fill="midnightblue" stroke="midnightblue" points="374.51,-118.03 383.13,-111.87 372.55,-111.31 374.51,-118.03"/>
</g>
<!-- Node16 -->
<g id="node16" class="node">
<title>Node16</title>
<g id="a_node16"><a xlink:href="classFish.html#aaa3e67187a587efc7a99485b4a6ee248" target="_top" xlink:title=" ">
<polygon fill="none" stroke="black" points="389,-57.5 389,-76.5 476,-76.5 476,-57.5 389,-57.5"/>
<text text-anchor="middle" x="432.5" y="-64.5" font-family="Helvetica,sans-Serif" font-size="10.00">Fish::set_traits</text>
</a>
</g>
</g>
<!-- Node10&#45;&gt;Node16 -->
<g id="edge20" class="edge">
<title>Node10&#45;&gt;Node16</title>
<path fill="none" stroke="midnightblue" d="M291.33,-174.74C300.23,-171.89 308.87,-167.81 316,-162 344.98,-138.39 322.97,-109.55 352,-86 359.77,-79.7 369.29,-75.43 379.01,-72.54"/>
<polygon fill="midnightblue" stroke="midnightblue" points="379.88,-75.93 388.73,-70.1 378.18,-69.14 379.88,-75.93"/>
</g>
<!-- Node13&#45;&gt;Node3 -->
<g id="edge13" class="edge">
<title>Node13&#45;&gt;Node3</title>
<path fill="none" stroke="midnightblue" d="M483.28,-274.34C500.44,-276.19 520.03,-278.29 538.61,-280.28"/>
<polygon fill="midnightblue" stroke="midnightblue" points="538.49,-283.79 548.81,-281.38 539.24,-276.83 538.49,-283.79"/>
</g>
<!-- Node14&#45;&gt;Node3 -->
<g id="edge16" class="edge">
<title>Node14&#45;&gt;Node3</title>
<path fill="none" stroke="midnightblue" d="M483.29,-240.09C493.17,-243.25 503.45,-246.64 513,-250 534.75,-257.65 558.89,-267.05 577.71,-274.59"/>
<polygon fill="midnightblue" stroke="midnightblue" points="576.44,-277.85 587.02,-278.34 579.06,-271.36 576.44,-277.85"/>
</g>
</g>
</svg>
