<?xml version="1.0" encoding="UTF-8" standalone="no"?>
<!DOCTYPE svg PUBLIC "-//W3C//DTD SVG 1.1//EN"
 "http://www.w3.org/Graphics/SVG/1.1/DTD/svg11.dtd">
<!-- Generated by graphviz version 2.43.0 (0)
 -->
<!-- Title: Population::noFishingEquilibriate Pages: 1 -->
<svg width="731pt" height="363pt"
 viewBox="0.00 0.00 731.00 363.00" xmlns="http://www.w3.org/2000/svg" xmlns:xlink="http://www.w3.org/1999/xlink">
<g id="graph0" class="graph" transform="scale(1 1) rotate(0) translate(4 359)">
<title>Population::noFishingEquilibriate</title>
<!-- Node1 -->
<g id="node1" class="node">
<title>Node1</title>
<g id="a_node1"><a xlink:title=" ">
<polygon fill="#bfbfbf" stroke="black" points="0,-249.5 0,-268.5 176,-268.5 176,-249.5 0,-249.5"/>
<text text-anchor="middle" x="88" y="-256.5" font-family="Helvetica,sans-Serif" font-size="10.00">Population::noFishingEquilibriate</text>
</a>
</g>
</g>
<!-- Node2 -->
<g id="node2" class="node">
<title>Node2</title>
<g id="a_node2"><a xlink:href="classPopulation.html#a012ef586a78b4e7c2082634b316072d0" target="_top" xlink:title=" ">
<polygon fill="none" stroke="black" points="243.5,-301.5 243.5,-320.5 333.5,-320.5 333.5,-301.5 243.5,-301.5"/>
<text text-anchor="middle" x="288.5" y="-308.5" font-family="Helvetica,sans-Serif" font-size="10.00">Population::init</text>
</a>
</g>
</g>
<!-- Node1&#45;&gt;Node2 -->
<g id="edge1" class="edge">
<title>Node1&#45;&gt;Node2</title>
<path fill="none" stroke="midnightblue" d="M125.41,-268.54C157.9,-277.05 205.67,-289.56 240.94,-298.8"/>
<polygon fill="midnightblue" stroke="midnightblue" points="240.43,-302.29 250.99,-301.43 242.2,-295.51 240.43,-302.29"/>
</g>
<!-- Node6 -->
<g id="node6" class="node">
<title>Node6</title>
<g id="a_node6"><a xlink:href="classPopulation.html#a20696fa511c914e7c8837acb2a254b33" target="_top" xlink:title=" ">
<polygon fill="none" stroke="black" points="212,-249.5 212,-268.5 365,-268.5 365,-249.5 212,-249.5"/>
<text text-anchor="middle" x="288.5" y="-256.5" font-family="Helvetica,sans-Serif" font-size="10.00">Population::set_harvestProp</text>
</a>
</g>
</g>
<!-- Node1&#45;&gt;Node6 -->
<g id="edge5" class="edge">
<title>Node1&#45;&gt;Node6</title>
<path fill="none" stroke="midnightblue" d="M176.06,-259C184.51,-259 193.07,-259 201.5,-259"/>
<polygon fill="midnightblue" stroke="midnightblue" points="201.71,-262.5 211.71,-259 201.71,-255.5 201.71,-262.5"/>
</g>
<!-- Node7 -->
<g id="node7" class="node">
<title>Node7</title>
<g id="a_node7"><a xlink:href="classPopulation.html#a81c19d1c80cfb1d54d3872ecdefd0872" target="_top" xlink:title=" ">
<polygon fill="none" stroke="black" points="234.5,-183.5 234.5,-202.5 342.5,-202.5 342.5,-183.5 234.5,-183.5"/>
<text text-anchor="middle" x="288.5" y="-190.5" font-family="Helvetica,sans-Serif" font-size="10.00">Population::update</text>
</a>
</g>
</g>
<!-- Node1&#45;&gt;Node7 -->
<g id="edge6" class="edge">
<title>Node1&#45;&gt;Node7</title>
<path fill="none" stroke="midnightblue" d="M117.86,-249.4C152.51,-237.88 210.73,-218.53 249.13,-205.76"/>
<polygon fill="midnightblue" stroke="midnightblue" points="250.54,-208.98 258.92,-202.5 248.33,-202.34 250.54,-208.98"/>
</g>
<!-- Node3 -->
<g id="node3" class="node">
<title>Node3</title>
<g id="a_node3"><a xlink:href="classFish.html#adf85bf269f1651352506e371ffd2cecc" target="_top" xlink:title="Initializes the fish, i.e., initializes parameters and sets the initial state (age = 1,...">
<polygon fill="none" stroke="black" points="453,-316.5 453,-335.5 510,-335.5 510,-316.5 453,-316.5"/>
<text text-anchor="middle" x="481.5" y="-323.5" font-family="Helvetica,sans-Serif" font-size="10.00">Fish::init</text>
</a>
</g>
</g>
<!-- Node2&#45;&gt;Node3 -->
<g id="edge2" class="edge">
<title>Node2&#45;&gt;Node3</title>
<path fill="none" stroke="midnightblue" d="M333.8,-314.48C366.87,-317.08 411.57,-320.59 442.9,-323.05"/>
<polygon fill="midnightblue" stroke="midnightblue" points="442.74,-326.55 452.98,-323.84 443.29,-319.57 442.74,-326.55"/>
</g>
<!-- Node4 -->
<g id="node4" class="node">
<title>Node4</title>
<g id="a_node4"><a xlink:href="namespacefish.html#a0ab1c4842d702a0a40bd04f26793ce12" target="_top" xlink:title="Compute the nonlinear growth increment , as follows.">
<polygon fill="none" stroke="black" points="618,-335.5 618,-354.5 703,-354.5 703,-335.5 618,-335.5"/>
<text text-anchor="middle" x="660.5" y="-342.5" font-family="Helvetica,sans-Serif" font-size="10.00">fish::dl_power</text>
</a>
</g>
</g>
<!-- Node3&#45;&gt;Node4 -->
<g id="edge3" class="edge">
<title>Node3&#45;&gt;Node4</title>
<path fill="none" stroke="midnightblue" d="M510.16,-328.97C536.21,-331.77 575.91,-336.03 607.83,-339.45"/>
<polygon fill="midnightblue" stroke="midnightblue" points="607.57,-342.95 617.89,-340.53 608.32,-335.99 607.57,-342.95"/>
</g>
<!-- Node5 -->
<g id="node5" class="node">
<title>Node5</title>
<g id="a_node5"><a xlink:href="namespacefish.html#a1d06e0358aca1be4446ed148b7ce3d84" target="_top" xlink:title="Compute the new length after growth assuming no allocation to reproduction.">
<polygon fill="none" stroke="black" points="602.5,-297.5 602.5,-316.5 718.5,-316.5 718.5,-297.5 602.5,-297.5"/>
<text text-anchor="middle" x="660.5" y="-304.5" font-family="Helvetica,sans-Serif" font-size="10.00">fish::length_juvenile</text>
</a>
</g>
</g>
<!-- Node3&#45;&gt;Node5 -->
<g id="edge4" class="edge">
<title>Node3&#45;&gt;Node5</title>
<path fill="none" stroke="midnightblue" d="M510.16,-323.03C532.16,-320.67 563.89,-317.26 592.45,-314.2"/>
<polygon fill="midnightblue" stroke="midnightblue" points="592.83,-317.68 602.4,-313.13 592.08,-310.72 592.83,-317.68"/>
</g>
<!-- Node7&#45;&gt;Node3 -->
<g id="edge15" class="edge">
<title>Node7&#45;&gt;Node3</title>
<path fill="none" stroke="midnightblue" d="M311.13,-202.64C327.49,-210.76 349.68,-223.67 365,-240 388.13,-264.65 374.22,-286.38 401,-307 412.85,-316.13 428.42,-320.96 442.64,-323.49"/>
<polygon fill="midnightblue" stroke="midnightblue" points="442.28,-326.97 452.68,-324.95 443.29,-320.04 442.28,-326.97"/>
</g>
<!-- Node8 -->
<g id="node8" class="node">
<title>Node8</title>
<g id="a_node8"><a xlink:href="classPopulation.html#af15e7ba23b161c710d4013204b542cb6" target="_top" xlink:title=" ">
<polygon fill="none" stroke="black" points="425,-278.5 425,-297.5 538,-297.5 538,-278.5 425,-278.5"/>
<text text-anchor="middle" x="481.5" y="-285.5" font-family="Helvetica,sans-Serif" font-size="10.00">Population::calcSSB</text>
</a>
</g>
</g>
<!-- Node7&#45;&gt;Node8 -->
<g id="edge7" class="edge">
<title>Node7&#45;&gt;Node8</title>
<path fill="none" stroke="midnightblue" d="M306.07,-202.53C321.62,-211.65 345.36,-226.05 365,-240 381.75,-251.9 382.56,-259.95 401,-269 405.94,-271.42 411.2,-273.55 416.58,-275.41"/>
<polygon fill="midnightblue" stroke="midnightblue" points="415.75,-278.82 426.34,-278.48 417.85,-272.14 415.75,-278.82"/>
</g>
<!-- Node9 -->
<g id="node9" class="node">
<title>Node9</title>
<g id="a_node9"><a xlink:href="classPopulation.html#ae942ef70cc9f4dfc40b5d843baf40b1e" target="_top" xlink:title=" ">
<polygon fill="none" stroke="black" points="425,-240.5 425,-259.5 538,-259.5 538,-240.5 425,-240.5"/>
<text text-anchor="middle" x="481.5" y="-247.5" font-family="Helvetica,sans-Serif" font-size="10.00">Population::calcTSB</text>
</a>
</g>
</g>
<!-- Node7&#45;&gt;Node9 -->
<g id="edge8" class="edge">
<title>Node7&#45;&gt;Node9</title>
<path fill="none" stroke="midnightblue" d="M315.41,-202.6C337.87,-210.74 371.33,-222.42 401,-231 409.52,-233.46 418.61,-235.86 427.5,-238.07"/>
<polygon fill="midnightblue" stroke="midnightblue" points="426.85,-241.51 437.4,-240.48 428.51,-234.71 426.85,-241.51"/>
</g>
<!-- Node10 -->
<g id="node10" class="node">
<title>Node10</title>
<g id="a_node10"><a xlink:href="classPopulation.html#ad1840de2f00982c35d48b91a1d27ae13" target="_top" xlink:title=" ">
<polygon fill="none" stroke="black" points="431,-202.5 431,-221.5 532,-221.5 532,-202.5 431,-202.5"/>
<text text-anchor="middle" x="481.5" y="-209.5" font-family="Helvetica,sans-Serif" font-size="10.00">Population::effort</text>
</a>
</g>
</g>
<!-- Node7&#45;&gt;Node10 -->
<g id="edge9" class="edge">
<title>Node7&#45;&gt;Node10</title>
<path fill="none" stroke="midnightblue" d="M342.7,-198.29C366.96,-200.71 395.77,-203.57 420.77,-206.06"/>
<polygon fill="midnightblue" stroke="midnightblue" points="420.56,-209.55 430.86,-207.06 421.25,-202.59 420.56,-209.55"/>
</g>
<!-- Node11 -->
<g id="node11" class="node">
<title>Node11</title>
<g id="a_node11"><a xlink:href="classPopulation.html#ac8ed845bbda25c937a2fd76b3788e987" target="_top" xlink:title=" ">
<polygon fill="none" stroke="black" points="598,-145.5 598,-164.5 723,-164.5 723,-145.5 598,-145.5"/>
<text text-anchor="middle" x="660.5" y="-152.5" font-family="Helvetica,sans-Serif" font-size="10.00">Population::selectivity</text>
</a>
</g>
</g>
<!-- Node7&#45;&gt;Node11 -->
<g id="edge17" class="edge">
<title>Node7&#45;&gt;Node11</title>
<path fill="none" stroke="midnightblue" d="M342.51,-187.56C406.89,-180.94 515.75,-169.76 587.63,-162.38"/>
<polygon fill="midnightblue" stroke="midnightblue" points="588.36,-165.82 597.95,-161.32 587.65,-158.86 588.36,-165.82"/>
</g>
<!-- Node12 -->
<g id="node12" class="node">
<title>Node12</title>
<g id="a_node12"><a xlink:href="classPopulation.html#a42c4b04852bdda937e50f82952106af1" target="_top" xlink:title=" ">
<polygon fill="none" stroke="black" points="404,-126.5 404,-145.5 559,-145.5 559,-126.5 404,-126.5"/>
<text text-anchor="middle" x="481.5" y="-133.5" font-family="Helvetica,sans-Serif" font-size="10.00">Population::fishableBiomass</text>
</a>
</g>
</g>
<!-- Node7&#45;&gt;Node12 -->
<g id="edge11" class="edge">
<title>Node7&#45;&gt;Node12</title>
<path fill="none" stroke="midnightblue" d="M321.47,-183.46C353.56,-173.88 403.16,-159.08 438.43,-148.55"/>
<polygon fill="midnightblue" stroke="midnightblue" points="439.85,-151.79 448.43,-145.57 437.84,-145.08 439.85,-151.79"/>
</g>
<!-- Node13 -->
<g id="node13" class="node">
<title>Node13</title>
<g id="a_node13"><a xlink:href="classPopulation.html#a1118025c1079ababec03f80a14837c5c" target="_top" xlink:title=" ">
<polygon fill="none" stroke="black" points="401,-77 401,-107 562,-107 562,-77 401,-77"/>
<text text-anchor="start" x="409" y="-95" font-family="Helvetica,sans-Serif" font-size="10.00">Population::fishableSpawning</text>
<text text-anchor="middle" x="481.5" y="-84" font-family="Helvetica,sans-Serif" font-size="10.00">Biomass</text>
</a>
</g>
</g>
<!-- Node7&#45;&gt;Node13 -->
<g id="edge13" class="edge">
<title>Node7&#45;&gt;Node13</title>
<path fill="none" stroke="midnightblue" d="M301.16,-183.32C320.7,-167.52 361.79,-136.01 401,-117 405.68,-114.73 410.61,-112.61 415.64,-110.63"/>
<polygon fill="midnightblue" stroke="midnightblue" points="417.21,-113.78 425.37,-107.01 414.77,-107.22 417.21,-113.78"/>
</g>
<!-- Node14 -->
<g id="node14" class="node">
<title>Node14</title>
<g id="a_node14"><a xlink:href="classPopulation.html#ac62fc3480d60b055cd1886649809c6a6" target="_top" xlink:title=" ">
<polygon fill="none" stroke="black" points="432.5,-38.5 432.5,-57.5 530.5,-57.5 530.5,-38.5 432.5,-38.5"/>
<text text-anchor="middle" x="481.5" y="-45.5" font-family="Helvetica,sans-Serif" font-size="10.00">Population::nfish</text>
</a>
</g>
</g>
<!-- Node7&#45;&gt;Node14 -->
<g id="edge16" class="edge">
<title>Node7&#45;&gt;Node14</title>
<path fill="none" stroke="midnightblue" d="M295.15,-183.43C309.58,-159.86 350.25,-98.73 401,-68 407.68,-63.96 415.14,-60.73 422.75,-58.15"/>
<polygon fill="midnightblue" stroke="midnightblue" points="423.86,-61.47 432.42,-55.22 421.83,-54.77 423.86,-61.47"/>
</g>
<!-- Node15 -->
<g id="node15" class="node">
<title>Node15</title>
<g id="a_node15"><a xlink:href="classFish.html#aaa3e67187a587efc7a99485b4a6ee248" target="_top" xlink:title=" ">
<polygon fill="none" stroke="black" points="438,-0.5 438,-19.5 525,-19.5 525,-0.5 438,-0.5"/>
<text text-anchor="middle" x="481.5" y="-7.5" font-family="Helvetica,sans-Serif" font-size="10.00">Fish::set_traits</text>
</a>
</g>
</g>
<!-- Node7&#45;&gt;Node15 -->
<g id="edge18" class="edge">
<title>Node7&#45;&gt;Node15</title>
<path fill="none" stroke="midnightblue" d="M293.08,-183.4C304.24,-154.92 341.21,-70.27 401,-29 408.97,-23.5 418.35,-19.58 427.81,-16.79"/>
<polygon fill="midnightblue" stroke="midnightblue" points="428.83,-20.14 437.65,-14.27 427.1,-13.36 428.83,-20.14"/>
</g>
<!-- Node10&#45;&gt;Node11 -->
<g id="edge10" class="edge">
<title>Node10&#45;&gt;Node11</title>
<path fill="none" stroke="midnightblue" d="M515.07,-202.43C529.48,-198.13 546.62,-192.92 562,-188 581.96,-181.61 604.1,-174.15 622.22,-167.94"/>
<polygon fill="midnightblue" stroke="midnightblue" points="623.52,-171.19 631.84,-164.63 621.25,-164.57 623.52,-171.19"/>
</g>
<!-- Node12&#45;&gt;Node11 -->
<g id="edge12" class="edge">
<title>Node12&#45;&gt;Node11</title>
<path fill="none" stroke="midnightblue" d="M559.11,-144.22C568.64,-145.25 578.37,-146.29 587.83,-147.31"/>
<polygon fill="midnightblue" stroke="midnightblue" points="587.65,-150.81 597.96,-148.39 588.39,-143.85 587.65,-150.81"/>
</g>
<!-- Node13&#45;&gt;Node11 -->
<g id="edge14" class="edge">
<title>Node13&#45;&gt;Node11</title>
<path fill="none" stroke="midnightblue" d="M532.29,-107.09C542.17,-110.25 552.45,-113.64 562,-117 583.75,-124.65 607.89,-134.05 626.71,-141.59"/>
<polygon fill="midnightblue" stroke="midnightblue" points="625.44,-144.85 636.02,-145.34 628.06,-138.36 625.44,-144.85"/>
</g>
</g>
</svg>
