<?xml version="1.0" encoding="UTF-8" standalone="no"?>
<!DOCTYPE svg PUBLIC "-//W3C//DTD SVG 1.1//EN"
 "http://www.w3.org/Graphics/SVG/1.1/DTD/svg11.dtd">
<!-- Generated by graphviz version 2.43.0 (0)
 -->
<!-- Title: FishParams Pages: 1 -->
<svg width="637pt" height="291pt"
 viewBox="0.00 0.00 637.00 290.85" xmlns="http://www.w3.org/2000/svg" xmlns:xlink="http://www.w3.org/1999/xlink">
<g id="graph0" class="graph" transform="scale(1 1) rotate(0) translate(4 286.85)">
<title>FishParams</title>
<!-- Node1 -->
<g id="node1" class="node">
<title>Node1</title>
<g id="a_node1"><a xlink:title=" ">
<polygon fill="#bfbfbf" stroke="black" points="557,-125.35 557,-144.35 629,-144.35 629,-125.35 557,-125.35"/>
<text text-anchor="middle" x="593" y="-132.35" font-family="Helvetica,sans-Serif" font-size="10.00">FishParams</text>
</a>
</g>
</g>
<!-- Node2 -->
<g id="node2" class="node">
<title>Node2</title>
<g id="a_node2"><a xlink:title=" ">
<polygon fill="none" stroke="#bfbfbf" points="270.5,-189.85 270.5,-219.85 392.5,-219.85 392.5,-189.85 270.5,-189.85"/>
<text text-anchor="start" x="278.5" y="-207.85" font-family="Helvetica,sans-Serif" font-size="10.00">std::map&lt; std::string,</text>
<text text-anchor="middle" x="331.5" y="-196.85" font-family="Helvetica,sans-Serif" font-size="10.00"> RecruitmentModel &gt;</text>
</a>
</g>
</g>
<!-- Node2&#45;&gt;Node1 -->
<g id="edge1" class="edge">
<title>Node2&#45;&gt;Node1</title>
<path fill="none" stroke="#9a32cd" stroke-dasharray="5,2" d="M402.63,-196.34C443.29,-190.09 494.98,-179.83 539,-163.85 552.61,-158.91 566.94,-150.86 577.27,-144.5"/>
<polygon fill="#9a32cd" stroke="#9a32cd" points="401.92,-192.91 392.55,-197.85 402.96,-199.83 401.92,-192.91"/>
<text text-anchor="middle" x="476" y="-196.85" font-family="Helvetica,sans-Serif" font-size="10.00"> recruitment_names_map</text>
</g>
<!-- Node3 -->
<g id="node3" class="node">
<title>Node3</title>
<g id="a_node3"><a xlink:title=" ">
<polygon fill="none" stroke="#bfbfbf" points="141,-146.35 141,-165.35 206,-165.35 206,-146.35 141,-146.35"/>
<text text-anchor="middle" x="173.5" y="-153.35" font-family="Helvetica,sans-Serif" font-size="10.00">std::string</text>
</a>
</g>
</g>
<!-- Node3&#45;&gt;Node1 -->
<g id="edge4" class="edge">
<title>Node3&#45;&gt;Node1</title>
<path fill="none" stroke="#9a32cd" stroke-dasharray="5,2" d="M189.39,-173.07C206.31,-191.21 235.78,-218.64 268,-229.85 321.31,-248.39 338.7,-233.93 395,-229.85 459.51,-225.17 483.76,-242.49 539,-208.85 564.37,-193.39 581.06,-160.73 588.14,-144.47"/>
<polygon fill="#9a32cd" stroke="#9a32cd" points="191.83,-170.56 182.53,-165.49 186.64,-175.26 191.83,-170.56"/>
<text text-anchor="middle" x="331.5" y="-274.85" font-family="Helvetica,sans-Serif" font-size="10.00"> growth_model_name</text>
<text text-anchor="middle" x="331.5" y="-263.85" font-family="Helvetica,sans-Serif" font-size="10.00">maturation_model_name</text>
<text text-anchor="middle" x="331.5" y="-252.85" font-family="Helvetica,sans-Serif" font-size="10.00">mortality_model_name</text>
<text text-anchor="middle" x="331.5" y="-241.85" font-family="Helvetica,sans-Serif" font-size="10.00">recruitment_model_name</text>
</g>
<!-- Node3&#45;&gt;Node2 -->
<g id="edge2" class="edge">
<title>Node3&#45;&gt;Node2</title>
<path fill="none" stroke="#9a32cd" stroke-dasharray="5,2" d="M214.71,-168.48C235.45,-174.99 260.88,-182.98 282.63,-189.81"/>
<polygon fill="#9a32cd" stroke="#9a32cd" points="215.54,-165.07 204.95,-165.41 213.44,-171.75 215.54,-165.07"/>
<text text-anchor="middle" x="237" y="-181.85" font-family="Helvetica,sans-Serif" font-size="10.00"> keys</text>
</g>
<!-- Node5 -->
<g id="node5" class="node">
<title>Node5</title>
<g id="a_node5"><a xlink:title=" ">
<polygon fill="none" stroke="#bfbfbf" points="270.5,-140.85 270.5,-170.85 392.5,-170.85 392.5,-140.85 270.5,-140.85"/>
<text text-anchor="start" x="278.5" y="-158.85" font-family="Helvetica,sans-Serif" font-size="10.00">std::map&lt; std::string,</text>
<text text-anchor="middle" x="331.5" y="-147.85" font-family="Helvetica,sans-Serif" font-size="10.00"> GrowthModel &gt;</text>
</a>
</g>
</g>
<!-- Node3&#45;&gt;Node5 -->
<g id="edge6" class="edge">
<title>Node3&#45;&gt;Node5</title>
<path fill="none" stroke="#9a32cd" stroke-dasharray="5,2" d="M216.49,-155.85C233.01,-155.85 252.3,-155.85 270.26,-155.85"/>
<polygon fill="#9a32cd" stroke="#9a32cd" points="216.07,-152.35 206.07,-155.85 216.07,-159.35 216.07,-152.35"/>
<text text-anchor="middle" x="237" y="-158.85" font-family="Helvetica,sans-Serif" font-size="10.00"> keys</text>
</g>
<!-- Node6 -->
<g id="node6" class="node">
<title>Node6</title>
<g id="a_node6"><a xlink:title=" ">
<polygon fill="none" stroke="#bfbfbf" points="270.5,-91.85 270.5,-121.85 392.5,-121.85 392.5,-91.85 270.5,-91.85"/>
<text text-anchor="start" x="278.5" y="-109.85" font-family="Helvetica,sans-Serif" font-size="10.00">std::map&lt; std::string,</text>
<text text-anchor="middle" x="331.5" y="-98.85" font-family="Helvetica,sans-Serif" font-size="10.00"> MaturationModel &gt;</text>
</a>
</g>
</g>
<!-- Node3&#45;&gt;Node6 -->
<g id="edge8" class="edge">
<title>Node3&#45;&gt;Node6</title>
<path fill="none" stroke="#9a32cd" stroke-dasharray="5,2" d="M214.71,-143.22C235.45,-136.7 260.88,-128.71 282.63,-121.88"/>
<polygon fill="#9a32cd" stroke="#9a32cd" points="213.44,-139.95 204.95,-146.28 215.54,-146.62 213.44,-139.95"/>
<text text-anchor="middle" x="237" y="-142.85" font-family="Helvetica,sans-Serif" font-size="10.00"> keys</text>
</g>
<!-- Node7 -->
<g id="node7" class="node">
<title>Node7</title>
<g id="a_node7"><a xlink:title=" ">
<polygon fill="none" stroke="#bfbfbf" points="270.5,-42.85 270.5,-72.85 392.5,-72.85 392.5,-42.85 270.5,-42.85"/>
<text text-anchor="start" x="278.5" y="-60.85" font-family="Helvetica,sans-Serif" font-size="10.00">std::map&lt; std::string,</text>
<text text-anchor="middle" x="331.5" y="-49.85" font-family="Helvetica,sans-Serif" font-size="10.00"> MortalityModel &gt;</text>
</a>
</g>
</g>
<!-- Node3&#45;&gt;Node7 -->
<g id="edge10" class="edge">
<title>Node3&#45;&gt;Node7</title>
<path fill="none" stroke="#9a32cd" stroke-dasharray="5,2" d="M192.16,-139.51C210.18,-123.49 239.47,-99.15 268,-82.85 274.29,-79.25 281.2,-75.93 288.06,-72.96"/>
<polygon fill="#9a32cd" stroke="#9a32cd" points="189.8,-136.93 184.72,-146.23 194.49,-142.13 189.8,-136.93"/>
<text text-anchor="middle" x="237" y="-114.85" font-family="Helvetica,sans-Serif" font-size="10.00"> keys</text>
</g>
<!-- Node4 -->
<g id="node4" class="node">
<title>Node4</title>
<g id="a_node4"><a xlink:title=" ">
<polygon fill="none" stroke="#bfbfbf" points="0,-140.85 0,-170.85 104,-170.85 104,-140.85 0,-140.85"/>
<text text-anchor="start" x="8" y="-158.85" font-family="Helvetica,sans-Serif" font-size="10.00">std::basic_string&lt;</text>
<text text-anchor="middle" x="52" y="-147.85" font-family="Helvetica,sans-Serif" font-size="10.00"> Char &gt;</text>
</a>
</g>
</g>
<!-- Node4&#45;&gt;Node3 -->
<g id="edge3" class="edge">
<title>Node4&#45;&gt;Node3</title>
<path fill="none" stroke="midnightblue" d="M114.1,-155.85C123.41,-155.85 132.68,-155.85 141,-155.85"/>
<polygon fill="midnightblue" stroke="midnightblue" points="114.03,-152.35 104.03,-155.85 114.03,-159.35 114.03,-152.35"/>
</g>
<!-- Node5&#45;&gt;Node1 -->
<g id="edge5" class="edge">
<title>Node5&#45;&gt;Node1</title>
<path fill="none" stroke="#9a32cd" stroke-dasharray="5,2" d="M402.77,-150.16C452.65,-146.12 517.49,-140.88 556.87,-137.69"/>
<polygon fill="#9a32cd" stroke="#9a32cd" points="402.37,-146.68 392.69,-150.98 402.94,-153.66 402.37,-146.68"/>
<text text-anchor="middle" x="476" y="-151.85" font-family="Helvetica,sans-Serif" font-size="10.00"> growth_names_map</text>
</g>
<!-- Node6&#45;&gt;Node1 -->
<g id="edge7" class="edge">
<title>Node6&#45;&gt;Node1</title>
<path fill="none" stroke="#9a32cd" stroke-dasharray="5,2" d="M403,-110.5C443.02,-113.12 493.97,-117.34 539,-123.85 544.77,-124.68 550.85,-125.75 556.76,-126.9"/>
<polygon fill="#9a32cd" stroke="#9a32cd" points="403.01,-107 392.81,-109.86 402.57,-113.98 403.01,-107"/>
<text text-anchor="middle" x="476" y="-126.85" font-family="Helvetica,sans-Serif" font-size="10.00"> maturation_names_map</text>
</g>
<!-- Node7&#45;&gt;Node1 -->
<g id="edge9" class="edge">
<title>Node7&#45;&gt;Node1</title>
<path fill="none" stroke="#9a32cd" stroke-dasharray="5,2" d="M403.05,-62.89C444.06,-67.74 495.97,-77.24 539,-95.85 555.57,-103.01 571.87,-116.19 581.93,-125.23"/>
<polygon fill="#9a32cd" stroke="#9a32cd" points="403.2,-59.38 392.88,-61.75 402.43,-66.34 403.2,-59.38"/>
<text text-anchor="middle" x="476" y="-98.85" font-family="Helvetica,sans-Serif" font-size="10.00"> mortality_names_map</text>
</g>
<!-- Node8 -->
<g id="node8" class="node">
<title>Node8</title>
<g id="a_node8"><a xlink:title=" ">
<polygon fill="none" stroke="#bfbfbf" points="269.5,-4.35 269.5,-23.35 393.5,-23.35 393.5,-4.35 269.5,-4.35"/>
<text text-anchor="middle" x="331.5" y="-11.35" font-family="Helvetica,sans-Serif" font-size="10.00">std::vector&lt; double &gt;</text>
</a>
</g>
</g>
<!-- Node8&#45;&gt;Node1 -->
<g id="edge11" class="edge">
<title>Node8&#45;&gt;Node1</title>
<path fill="none" stroke="#9a32cd" stroke-dasharray="5,2" d="M389,-2.97C433.48,2.41 495.07,2.49 539,-26.85 573.91,-50.16 586.67,-103.44 590.55,-125.26"/>
<polygon fill="#9a32cd" stroke="#9a32cd" points="388.39,0.48 378.94,-4.31 389.31,-6.46 388.39,0.48"/>
<text text-anchor="middle" x="476" y="-51.85" font-family="Helvetica,sans-Serif" font-size="10.00"> ma</text>
<text text-anchor="middle" x="476" y="-40.85" font-family="Helvetica,sans-Serif" font-size="10.00">mai</text>
<text text-anchor="middle" x="476" y="-29.85" font-family="Helvetica,sans-Serif" font-size="10.00">mam</text>
</g>
</g>
</svg>
