<?xml version="1.0" encoding="UTF-8" standalone="no"?>
<!DOCTYPE svg PUBLIC "-//W3C//DTD SVG 1.1//EN"
 "http://www.w3.org/Graphics/SVG/1.1/DTD/svg11.dtd">
<!-- Generated by graphviz version 2.43.0 (0)
 -->
<!-- Title: PopulationParams::initFromFile Pages: 1 -->
<svg width="668pt" height="78pt"
 viewBox="0.00 0.00 668.00 77.50" xmlns="http://www.w3.org/2000/svg" xmlns:xlink="http://www.w3.org/1999/xlink">
<g id="graph0" class="graph" transform="scale(1 1) rotate(0) translate(4 73.5)">
<title>PopulationParams::initFromFile</title>
<!-- Node1 -->
<g id="node1" class="node">
<title>Node1</title>
<g id="a_node1"><a xlink:title=" ">
<polygon fill="#bfbfbf" stroke="black" points="492,-31 492,-50 660,-50 660,-31 492,-31"/>
<text text-anchor="middle" x="576" y="-38" font-family="Helvetica,sans-Serif" font-size="10.00">PopulationParams::initFromFile</text>
</a>
</g>
</g>
<!-- Node2 -->
<g id="node2" class="node">
<title>Node2</title>
<g id="a_node2"><a xlink:href="fish__glue_8cpp.html#ab96ae82277aa9004dc603b77512c7265" target="_top" xlink:title=" ">
<polygon fill="none" stroke="black" points="161.5,-50 161.5,-69 251.5,-69 251.5,-50 161.5,-50"/>
<text text-anchor="middle" x="206.5" y="-57" font-family="Helvetica,sans-Serif" font-size="10.00">RCPP_MODULE</text>
</a>
</g>
</g>
<!-- Node1&#45;&gt;Node2 -->
<g id="edge1" class="edge">
<title>Node1&#45;&gt;Node2</title>
<path fill="none" stroke="midnightblue" d="M481.38,-45.34C407.61,-49.15 308.07,-54.3 251.56,-57.22"/>
<polygon fill="midnightblue" stroke="midnightblue" points="481.8,-48.82 491.61,-44.81 481.44,-41.83 481.8,-48.82"/>
</g>
<!-- Node3 -->
<g id="node3" class="node">
<title>Node3</title>
<g id="a_node3"><a xlink:href="classPopulation.html#aeb1d470183d21899c25151c6fe15a4dc" target="_top" xlink:title=" ">
<polygon fill="none" stroke="black" points="323,-12 323,-31 456,-31 456,-12 323,-12"/>
<text text-anchor="middle" x="389.5" y="-19" font-family="Helvetica,sans-Serif" font-size="10.00">Population::readParams</text>
</a>
</g>
</g>
<!-- Node1&#45;&gt;Node3 -->
<g id="edge2" class="edge">
<title>Node1&#45;&gt;Node3</title>
<path fill="none" stroke="midnightblue" d="M481.81,-30.9C473.18,-30.01 464.56,-29.13 456.25,-28.27"/>
<polygon fill="midnightblue" stroke="midnightblue" points="481.62,-34.4 491.93,-31.94 482.34,-27.44 481.62,-34.4"/>
</g>
<!-- Node3&#45;&gt;Node2 -->
<g id="edge5" class="edge">
<title>Node3&#45;&gt;Node2</title>
<path fill="none" stroke="midnightblue" d="M332.71,-33.21C306.63,-38.69 276.02,-45.11 251.6,-50.24"/>
<polygon fill="midnightblue" stroke="midnightblue" points="333.76,-36.57 342.83,-31.09 332.32,-29.72 333.76,-36.57"/>
</g>
<!-- Node4 -->
<g id="node4" class="node">
<title>Node4</title>
<g id="a_node4"><a xlink:href="classSimulator.html#ad02f472064f23f03ae474cb4904d2c56" target="_top" xlink:title=" ">
<polygon fill="none" stroke="black" points="126,-0.5 126,-30.5 287,-30.5 287,-0.5 126,-0.5"/>
<text text-anchor="start" x="134" y="-18.5" font-family="Helvetica,sans-Serif" font-size="10.00">Simulator::equilibriateNatural</text>
<text text-anchor="middle" x="206.5" y="-7.5" font-family="Helvetica,sans-Serif" font-size="10.00">Population</text>
</a>
</g>
</g>
<!-- Node3&#45;&gt;Node4 -->
<g id="edge3" class="edge">
<title>Node3&#45;&gt;Node4</title>
<path fill="none" stroke="midnightblue" d="M312.68,-18.99C304.22,-18.71 295.57,-18.42 287.06,-18.14"/>
<polygon fill="midnightblue" stroke="midnightblue" points="312.79,-22.49 322.9,-19.33 313.02,-15.5 312.79,-22.49"/>
</g>
<!-- Node5 -->
<g id="node5" class="node">
<title>Node5</title>
<g id="a_node5"><a xlink:href="fish__glue_8cpp.html#addebb0997b0e49067d8784c9954b7b96" target="_top" xlink:title=" ">
<polygon fill="none" stroke="black" points="0,-6 0,-25 90,-25 90,-6 0,-6"/>
<text text-anchor="middle" x="45" y="-13" font-family="Helvetica,sans-Serif" font-size="10.00">RCPP_MODULE</text>
</a>
</g>
</g>
<!-- Node4&#45;&gt;Node5 -->
<g id="edge4" class="edge">
<title>Node4&#45;&gt;Node5</title>
<path fill="none" stroke="midnightblue" d="M115.68,-15.5C106.8,-15.5 98.1,-15.5 90.01,-15.5"/>
<polygon fill="midnightblue" stroke="midnightblue" points="115.75,-19 125.75,-15.5 115.75,-12 115.75,-19"/>
</g>
</g>
</svg>
