<?xml version="1.0" encoding="UTF-8" standalone="no"?>
<!DOCTYPE svg PUBLIC "-//W3C//DTD SVG 1.1//EN"
 "http://www.w3.org/Graphics/SVG/1.1/DTD/svg11.dtd">
<!-- Generated by graphviz version 2.43.0 (0)
 -->
<!-- Title: Simulator::equilibriateNaturalPopulation Pages: 1 -->
<svg width="943pt" height="401pt"
 viewBox="0.00 0.00 943.00 401.00" xmlns="http://www.w3.org/2000/svg" xmlns:xlink="http://www.w3.org/1999/xlink">
<g id="graph0" class="graph" transform="scale(1 1) rotate(0) translate(4 397)">
<title>Simulator::equilibriateNaturalPopulation</title>
<!-- Node1 -->
<g id="node1" class="node">
<title>Node1</title>
<g id="a_node1"><a xlink:title=" ">
<polygon fill="#bfbfbf" stroke="black" points="0,-99 0,-129 161,-129 161,-99 0,-99"/>
<text text-anchor="start" x="8" y="-117" font-family="Helvetica,sans-Serif" font-size="10.00">Simulator::equilibriateNatural</text>
<text text-anchor="middle" x="80.5" y="-106" font-family="Helvetica,sans-Serif" font-size="10.00">Population</text>
</a>
</g>
</g>
<!-- Node2 -->
<g id="node2" class="node">
<title>Node2</title>
<g id="a_node2"><a xlink:href="classPopulation.html#aa7eba257f23cbc12aa3673ce012fb2cb" target="_top" xlink:title=" ">
<polygon fill="none" stroke="black" points="197,-221.5 197,-240.5 373,-240.5 373,-221.5 197,-221.5"/>
<text text-anchor="middle" x="285" y="-228.5" font-family="Helvetica,sans-Serif" font-size="10.00">Population::noFishingEquilibriate</text>
</a>
</g>
</g>
<!-- Node1&#45;&gt;Node2 -->
<g id="edge1" class="edge">
<title>Node1&#45;&gt;Node2</title>
<path fill="none" stroke="midnightblue" d="M107.56,-129.06C146.55,-151.59 219.64,-193.82 258.38,-216.2"/>
<polygon fill="midnightblue" stroke="midnightblue" points="257.04,-219.46 267.45,-221.44 260.54,-213.4 257.04,-219.46"/>
</g>
<!-- Node17 -->
<g id="node17" class="node">
<title>Node17</title>
<g id="a_node17"><a xlink:href="classPopulation.html#aeb1d470183d21899c25151c6fe15a4dc" target="_top" xlink:title=" ">
<polygon fill="none" stroke="black" points="218.5,-123.5 218.5,-142.5 351.5,-142.5 351.5,-123.5 218.5,-123.5"/>
<text text-anchor="middle" x="285" y="-130.5" font-family="Helvetica,sans-Serif" font-size="10.00">Population::readParams</text>
</a>
</g>
</g>
<!-- Node1&#45;&gt;Node17 -->
<g id="edge20" class="edge">
<title>Node1&#45;&gt;Node17</title>
<path fill="none" stroke="midnightblue" d="M161.24,-121.48C176.77,-122.94 193,-124.46 208.39,-125.91"/>
<polygon fill="midnightblue" stroke="midnightblue" points="208.08,-129.39 218.36,-126.84 208.73,-122.42 208.08,-129.39"/>
</g>
<!-- Node20 -->
<g id="node20" class="node">
<title>Node20</title>
<g id="a_node20"><a xlink:href="classPopulation.html#ae8a6455aa45e65bf8bd41312f9caa328" target="_top" xlink:title=" ">
<polygon fill="none" stroke="black" points="204.5,-85.5 204.5,-104.5 365.5,-104.5 365.5,-85.5 204.5,-85.5"/>
<text text-anchor="middle" x="285" y="-92.5" font-family="Helvetica,sans-Serif" font-size="10.00">Population::set_superFishSize</text>
</a>
</g>
</g>
<!-- Node1&#45;&gt;Node20 -->
<g id="edge23" class="edge">
<title>Node1&#45;&gt;Node20</title>
<path fill="none" stroke="midnightblue" d="M161.24,-106.52C172.09,-105.5 183.28,-104.45 194.29,-103.42"/>
<polygon fill="midnightblue" stroke="midnightblue" points="194.7,-106.89 204.33,-102.48 194.05,-99.92 194.7,-106.89"/>
</g>
<!-- Node21 -->
<g id="node21" class="node">
<title>Node21</title>
<g id="a_node21"><a xlink:href="classPopulation.html#aadec56893118cacf7774f7f9e2aac18f" target="_top" xlink:title=" ">
<polygon fill="none" stroke="black" points="203.5,-47.5 203.5,-66.5 366.5,-66.5 366.5,-47.5 203.5,-47.5"/>
<text text-anchor="middle" x="285" y="-54.5" font-family="Helvetica,sans-Serif" font-size="10.00">Population::set_traitVariances</text>
</a>
</g>
</g>
<!-- Node1&#45;&gt;Node21 -->
<g id="edge24" class="edge">
<title>Node1&#45;&gt;Node21</title>
<path fill="none" stroke="midnightblue" d="M123.7,-98.96C145.43,-91.51 172.46,-82.7 197,-76 206.3,-73.46 216.23,-71.03 225.93,-68.81"/>
<polygon fill="midnightblue" stroke="midnightblue" points="226.93,-72.18 235.92,-66.57 225.4,-65.34 226.93,-72.18"/>
</g>
<!-- Node3 -->
<g id="node3" class="node">
<title>Node3</title>
<g id="a_node3"><a xlink:href="classPopulation.html#a012ef586a78b4e7c2082634b316072d0" target="_top" xlink:title=" ">
<polygon fill="none" stroke="black" points="448,-316.5 448,-335.5 538,-335.5 538,-316.5 448,-316.5"/>
<text text-anchor="middle" x="493" y="-323.5" font-family="Helvetica,sans-Serif" font-size="10.00">Population::init</text>
</a>
</g>
</g>
<!-- Node2&#45;&gt;Node3 -->
<g id="edge2" class="edge">
<title>Node2&#45;&gt;Node3</title>
<path fill="none" stroke="midnightblue" d="M306.89,-240.63C343.61,-257.57 419.86,-292.73 462.14,-312.23"/>
<polygon fill="midnightblue" stroke="midnightblue" points="460.82,-315.47 471.36,-316.48 463.75,-309.12 460.82,-315.47"/>
</g>
<!-- Node7 -->
<g id="node7" class="node">
<title>Node7</title>
<g id="a_node7"><a xlink:href="classPopulation.html#a20696fa511c914e7c8837acb2a254b33" target="_top" xlink:title=" ">
<polygon fill="none" stroke="black" points="416.5,-240.5 416.5,-259.5 569.5,-259.5 569.5,-240.5 416.5,-240.5"/>
<text text-anchor="middle" x="493" y="-247.5" font-family="Helvetica,sans-Serif" font-size="10.00">Population::set_harvestProp</text>
</a>
</g>
</g>
<!-- Node2&#45;&gt;Node7 -->
<g id="edge6" class="edge">
<title>Node2&#45;&gt;Node7</title>
<path fill="none" stroke="midnightblue" d="M373.06,-239.03C384.08,-240.05 395.34,-241.08 406.33,-242.1"/>
<polygon fill="midnightblue" stroke="midnightblue" points="406.06,-245.59 416.33,-243.02 406.7,-238.62 406.06,-245.59"/>
</g>
<!-- Node8 -->
<g id="node8" class="node">
<title>Node8</title>
<g id="a_node8"><a xlink:href="classPopulation.html#a81c19d1c80cfb1d54d3872ecdefd0872" target="_top" xlink:title=" ">
<polygon fill="none" stroke="black" points="439,-202.5 439,-221.5 547,-221.5 547,-202.5 439,-202.5"/>
<text text-anchor="middle" x="493" y="-209.5" font-family="Helvetica,sans-Serif" font-size="10.00">Population::update</text>
</a>
</g>
</g>
<!-- Node2&#45;&gt;Node8 -->
<g id="edge7" class="edge">
<title>Node2&#45;&gt;Node8</title>
<path fill="none" stroke="midnightblue" d="M373.06,-222.97C391.79,-221.24 411.24,-219.45 428.84,-217.82"/>
<polygon fill="midnightblue" stroke="midnightblue" points="429.34,-221.29 438.98,-216.89 428.7,-214.32 429.34,-221.29"/>
</g>
<!-- Node4 -->
<g id="node4" class="node">
<title>Node4</title>
<g id="a_node4"><a xlink:href="classFish.html#adf85bf269f1651352506e371ffd2cecc" target="_top" xlink:title="Initializes the fish, i.e., initializes parameters and sets the initial state (age = 1,...">
<polygon fill="none" stroke="black" points="665,-354.5 665,-373.5 722,-373.5 722,-354.5 665,-354.5"/>
<text text-anchor="middle" x="693.5" y="-361.5" font-family="Helvetica,sans-Serif" font-size="10.00">Fish::init</text>
</a>
</g>
</g>
<!-- Node3&#45;&gt;Node4 -->
<g id="edge3" class="edge">
<title>Node3&#45;&gt;Node4</title>
<path fill="none" stroke="midnightblue" d="M538.05,-334.43C572.99,-341.12 621.31,-350.37 654.55,-356.74"/>
<polygon fill="midnightblue" stroke="midnightblue" points="654.3,-360.25 664.78,-358.69 655.62,-353.38 654.3,-360.25"/>
</g>
<!-- Node5 -->
<g id="node5" class="node">
<title>Node5</title>
<g id="a_node5"><a xlink:href="namespacefish.html#a0ab1c4842d702a0a40bd04f26793ce12" target="_top" xlink:title="Compute the nonlinear growth increment , as follows.">
<polygon fill="none" stroke="black" points="830,-373.5 830,-392.5 915,-392.5 915,-373.5 830,-373.5"/>
<text text-anchor="middle" x="872.5" y="-380.5" font-family="Helvetica,sans-Serif" font-size="10.00">fish::dl_power</text>
</a>
</g>
</g>
<!-- Node4&#45;&gt;Node5 -->
<g id="edge4" class="edge">
<title>Node4&#45;&gt;Node5</title>
<path fill="none" stroke="midnightblue" d="M722.16,-366.97C748.21,-369.77 787.91,-374.03 819.83,-377.45"/>
<polygon fill="midnightblue" stroke="midnightblue" points="819.57,-380.95 829.89,-378.53 820.32,-373.99 819.57,-380.95"/>
</g>
<!-- Node6 -->
<g id="node6" class="node">
<title>Node6</title>
<g id="a_node6"><a xlink:href="namespacefish.html#a1d06e0358aca1be4446ed148b7ce3d84" target="_top" xlink:title="Compute the new length after growth assuming no allocation to reproduction.">
<polygon fill="none" stroke="black" points="814.5,-335.5 814.5,-354.5 930.5,-354.5 930.5,-335.5 814.5,-335.5"/>
<text text-anchor="middle" x="872.5" y="-342.5" font-family="Helvetica,sans-Serif" font-size="10.00">fish::length_juvenile</text>
</a>
</g>
</g>
<!-- Node4&#45;&gt;Node6 -->
<g id="edge5" class="edge">
<title>Node4&#45;&gt;Node6</title>
<path fill="none" stroke="midnightblue" d="M722.16,-361.03C744.16,-358.67 775.89,-355.26 804.45,-352.2"/>
<polygon fill="midnightblue" stroke="midnightblue" points="804.83,-355.68 814.4,-351.13 804.08,-348.72 804.83,-355.68"/>
</g>
<!-- Node8&#45;&gt;Node4 -->
<g id="edge16" class="edge">
<title>Node8&#45;&gt;Node4</title>
<path fill="none" stroke="midnightblue" d="M547.15,-215.67C558.07,-218.61 568.74,-223.38 577,-231 616.06,-267.02 574.11,-308.79 613,-345 624.12,-355.35 639.83,-360.37 654.36,-362.7"/>
<polygon fill="midnightblue" stroke="midnightblue" points="654.29,-366.22 664.64,-363.96 655.15,-359.27 654.29,-366.22"/>
</g>
<!-- Node9 -->
<g id="node9" class="node">
<title>Node9</title>
<g id="a_node9"><a xlink:href="classPopulation.html#af15e7ba23b161c710d4013204b542cb6" target="_top" xlink:title=" ">
<polygon fill="none" stroke="black" points="637,-316.5 637,-335.5 750,-335.5 750,-316.5 637,-316.5"/>
<text text-anchor="middle" x="693.5" y="-323.5" font-family="Helvetica,sans-Serif" font-size="10.00">Population::calcSSB</text>
</a>
</g>
</g>
<!-- Node8&#45;&gt;Node9 -->
<g id="edge8" class="edge">
<title>Node8&#45;&gt;Node9</title>
<path fill="none" stroke="midnightblue" d="M547.27,-216.77C557.94,-219.67 568.47,-224.15 577,-231 606.14,-254.41 583.97,-283.45 613,-307 617.34,-310.52 622.22,-313.41 627.39,-315.77"/>
<polygon fill="midnightblue" stroke="midnightblue" points="626.33,-319.11 636.91,-319.49 628.87,-312.59 626.33,-319.11"/>
</g>
<!-- Node10 -->
<g id="node10" class="node">
<title>Node10</title>
<g id="a_node10"><a xlink:href="classPopulation.html#ae942ef70cc9f4dfc40b5d843baf40b1e" target="_top" xlink:title=" ">
<polygon fill="none" stroke="black" points="637,-278.5 637,-297.5 750,-297.5 750,-278.5 637,-278.5"/>
<text text-anchor="middle" x="693.5" y="-285.5" font-family="Helvetica,sans-Serif" font-size="10.00">Population::calcTSB</text>
</a>
</g>
</g>
<!-- Node8&#45;&gt;Node10 -->
<g id="edge9" class="edge">
<title>Node8&#45;&gt;Node10</title>
<path fill="none" stroke="midnightblue" d="M547.11,-219.27C557.44,-222.02 567.89,-225.8 577,-231 597.2,-242.53 592.85,-257.37 613,-269 617.42,-271.55 622.16,-273.76 627.06,-275.67"/>
<polygon fill="midnightblue" stroke="midnightblue" points="626.01,-279.01 636.6,-279 628.31,-272.4 626.01,-279.01"/>
</g>
<!-- Node11 -->
<g id="node11" class="node">
<title>Node11</title>
<g id="a_node11"><a xlink:href="classPopulation.html#ad1840de2f00982c35d48b91a1d27ae13" target="_top" xlink:title=" ">
<polygon fill="none" stroke="black" points="643,-240.5 643,-259.5 744,-259.5 744,-240.5 643,-240.5"/>
<text text-anchor="middle" x="693.5" y="-247.5" font-family="Helvetica,sans-Serif" font-size="10.00">Population::effort</text>
</a>
</g>
</g>
<!-- Node8&#45;&gt;Node11 -->
<g id="edge10" class="edge">
<title>Node8&#45;&gt;Node11</title>
<path fill="none" stroke="midnightblue" d="M543.83,-221.54C570.95,-226.73 604.68,-233.19 633.16,-238.64"/>
<polygon fill="midnightblue" stroke="midnightblue" points="632.51,-242.08 642.99,-240.52 633.83,-235.2 632.51,-242.08"/>
</g>
<!-- Node12 -->
<g id="node12" class="node">
<title>Node12</title>
<g id="a_node12"><a xlink:href="classPopulation.html#ac8ed845bbda25c937a2fd76b3788e987" target="_top" xlink:title=" ">
<polygon fill="none" stroke="black" points="810,-183.5 810,-202.5 935,-202.5 935,-183.5 810,-183.5"/>
<text text-anchor="middle" x="872.5" y="-190.5" font-family="Helvetica,sans-Serif" font-size="10.00">Population::selectivity</text>
</a>
</g>
</g>
<!-- Node8&#45;&gt;Node12 -->
<g id="edge18" class="edge">
<title>Node8&#45;&gt;Node12</title>
<path fill="none" stroke="midnightblue" d="M547.29,-209.32C613.28,-206 725.98,-200.32 799.59,-196.62"/>
<polygon fill="midnightblue" stroke="midnightblue" points="799.9,-200.11 809.71,-196.11 799.55,-193.12 799.9,-200.11"/>
</g>
<!-- Node13 -->
<g id="node13" class="node">
<title>Node13</title>
<g id="a_node13"><a xlink:href="classPopulation.html#a42c4b04852bdda937e50f82952106af1" target="_top" xlink:title=" ">
<polygon fill="none" stroke="black" points="616,-164.5 616,-183.5 771,-183.5 771,-164.5 616,-164.5"/>
<text text-anchor="middle" x="693.5" y="-171.5" font-family="Helvetica,sans-Serif" font-size="10.00">Population::fishableBiomass</text>
</a>
</g>
</g>
<!-- Node8&#45;&gt;Node13 -->
<g id="edge12" class="edge">
<title>Node8&#45;&gt;Node13</title>
<path fill="none" stroke="midnightblue" d="M543.83,-202.46C570.73,-197.31 604.14,-190.92 632.46,-185.49"/>
<polygon fill="midnightblue" stroke="midnightblue" points="633.48,-188.86 642.65,-183.54 632.17,-181.99 633.48,-188.86"/>
</g>
<!-- Node14 -->
<g id="node14" class="node">
<title>Node14</title>
<g id="a_node14"><a xlink:href="classPopulation.html#a1118025c1079ababec03f80a14837c5c" target="_top" xlink:title=" ">
<polygon fill="none" stroke="black" points="613,-115 613,-145 774,-145 774,-115 613,-115"/>
<text text-anchor="start" x="621" y="-133" font-family="Helvetica,sans-Serif" font-size="10.00">Population::fishableSpawning</text>
<text text-anchor="middle" x="693.5" y="-122" font-family="Helvetica,sans-Serif" font-size="10.00">Biomass</text>
</a>
</g>
</g>
<!-- Node8&#45;&gt;Node14 -->
<g id="edge14" class="edge">
<title>Node8&#45;&gt;Node14</title>
<path fill="none" stroke="midnightblue" d="M511.79,-202.5C534.75,-190.46 576.13,-169.54 613,-155 618.83,-152.7 624.96,-150.46 631.13,-148.33"/>
<polygon fill="midnightblue" stroke="midnightblue" points="632.44,-151.58 640.81,-145.08 630.21,-144.95 632.44,-151.58"/>
</g>
<!-- Node15 -->
<g id="node15" class="node">
<title>Node15</title>
<g id="a_node15"><a xlink:href="classPopulation.html#ac62fc3480d60b055cd1886649809c6a6" target="_top" xlink:title=" ">
<polygon fill="none" stroke="black" points="644.5,-76.5 644.5,-95.5 742.5,-95.5 742.5,-76.5 644.5,-76.5"/>
<text text-anchor="middle" x="693.5" y="-83.5" font-family="Helvetica,sans-Serif" font-size="10.00">Population::nfish</text>
</a>
</g>
</g>
<!-- Node8&#45;&gt;Node15 -->
<g id="edge17" class="edge">
<title>Node8&#45;&gt;Node15</title>
<path fill="none" stroke="midnightblue" d="M501.79,-202.27C519.29,-181.1 564.05,-130.7 613,-105 619.73,-101.47 627.12,-98.58 634.6,-96.23"/>
<polygon fill="midnightblue" stroke="midnightblue" points="635.78,-99.53 644.44,-93.43 633.86,-92.8 635.78,-99.53"/>
</g>
<!-- Node16 -->
<g id="node16" class="node">
<title>Node16</title>
<g id="a_node16"><a xlink:href="classFish.html#aaa3e67187a587efc7a99485b4a6ee248" target="_top" xlink:title=" ">
<polygon fill="none" stroke="black" points="650,-38.5 650,-57.5 737,-57.5 737,-38.5 650,-38.5"/>
<text text-anchor="middle" x="693.5" y="-45.5" font-family="Helvetica,sans-Serif" font-size="10.00">Fish::set_traits</text>
</a>
</g>
</g>
<!-- Node8&#45;&gt;Node16 -->
<g id="edge19" class="edge">
<title>Node8&#45;&gt;Node16</title>
<path fill="none" stroke="midnightblue" d="M502.02,-202.26C516.84,-184.24 549.51,-144.52 577,-111 593.02,-91.46 591.59,-80.42 613,-67 621.12,-61.91 630.49,-58.18 639.88,-55.46"/>
<polygon fill="midnightblue" stroke="midnightblue" points="640.81,-58.83 649.63,-52.96 639.08,-52.05 640.81,-58.83"/>
</g>
<!-- Node11&#45;&gt;Node12 -->
<g id="edge11" class="edge">
<title>Node11&#45;&gt;Node12</title>
<path fill="none" stroke="midnightblue" d="M727.07,-240.43C741.48,-236.13 758.62,-230.92 774,-226 793.96,-219.61 816.1,-212.15 834.22,-205.94"/>
<polygon fill="midnightblue" stroke="midnightblue" points="835.52,-209.19 843.84,-202.63 833.25,-202.57 835.52,-209.19"/>
</g>
<!-- Node13&#45;&gt;Node12 -->
<g id="edge13" class="edge">
<title>Node13&#45;&gt;Node12</title>
<path fill="none" stroke="midnightblue" d="M771.11,-182.22C780.64,-183.25 790.37,-184.29 799.83,-185.31"/>
<polygon fill="midnightblue" stroke="midnightblue" points="799.65,-188.81 809.96,-186.39 800.39,-181.85 799.65,-188.81"/>
</g>
<!-- Node14&#45;&gt;Node12 -->
<g id="edge15" class="edge">
<title>Node14&#45;&gt;Node12</title>
<path fill="none" stroke="midnightblue" d="M744.29,-145.09C754.17,-148.25 764.45,-151.64 774,-155 795.75,-162.65 819.89,-172.05 838.71,-179.59"/>
<polygon fill="midnightblue" stroke="midnightblue" points="837.44,-182.85 848.02,-183.34 840.06,-176.36 837.44,-182.85"/>
</g>
<!-- Node18 -->
<g id="node18" class="node">
<title>Node18</title>
<g id="a_node18"><a xlink:href="classPopulationParams.html#a32de4f0d5a47821e5986225f7551e082" target="_top" xlink:title=" ">
<polygon fill="none" stroke="black" points="409,-82.5 409,-101.5 577,-101.5 577,-82.5 409,-82.5"/>
<text text-anchor="middle" x="493" y="-89.5" font-family="Helvetica,sans-Serif" font-size="10.00">PopulationParams::initFromFile</text>
</a>
</g>
</g>
<!-- Node17&#45;&gt;Node18 -->
<g id="edge21" class="edge">
<title>Node17&#45;&gt;Node18</title>
<path fill="none" stroke="midnightblue" d="M333.78,-123.49C363.7,-117.54 402.45,-109.82 434.11,-103.52"/>
<polygon fill="midnightblue" stroke="midnightblue" points="435,-106.91 444.12,-101.53 433.63,-100.05 435,-106.91"/>
</g>
<!-- Node19 -->
<g id="node19" class="node">
<title>Node19</title>
<g id="a_node19"><a xlink:href="classio_1_1Initializer.html#a6c174190ba99677aac35c5c7e92b69b8" target="_top" xlink:title=" ">
<polygon fill="none" stroke="black" points="638.5,-0.5 638.5,-19.5 748.5,-19.5 748.5,-0.5 638.5,-0.5"/>
<text text-anchor="middle" x="693.5" y="-7.5" font-family="Helvetica,sans-Serif" font-size="10.00">io::Initializer::parse</text>
</a>
</g>
</g>
<!-- Node18&#45;&gt;Node19 -->
<g id="edge22" class="edge">
<title>Node18&#45;&gt;Node19</title>
<path fill="none" stroke="midnightblue" d="M509.2,-82.34C531.27,-68.69 573.85,-43.77 613,-29 619.75,-26.45 626.96,-24.17 634.18,-22.14"/>
<polygon fill="midnightblue" stroke="midnightblue" points="635.22,-25.48 643.99,-19.53 633.42,-18.72 635.22,-25.48"/>
</g>
</g>
</svg>
