<?xml version="1.0" encoding="UTF-8" standalone="no"?>
<!DOCTYPE svg PUBLIC "-//W3C//DTD SVG 1.1//EN"
 "http://www.w3.org/Graphics/SVG/1.1/DTD/svg11.dtd">
<!-- Generated by graphviz version 2.43.0 (0)
 -->
<!-- Title: Stock Pages: 1 -->
<svg width="1163pt" height="431pt"
 viewBox="0.00 0.00 1163.00 430.50" xmlns="http://www.w3.org/2000/svg" xmlns:xlink="http://www.w3.org/1999/xlink">
<g id="graph0" class="graph" transform="scale(1 1) rotate(0) translate(4 426.5)">
<title>Stock</title>
<!-- Node1 -->
<g id="Node000001" class="node">
<title>Node1</title>
<g id="a_Node000001"><a xlink:title=" ">
<polygon fill="#999999" stroke="#666666" points="1155,-256 1111,-256 1111,-237 1155,-237 1155,-256"/>
<text text-anchor="middle" x="1133" y="-244" font-family="Helvetica,sans-Serif" font-size="10.00">Stock</text>
</a>
</g>
</g>
<!-- Node2 -->
<g id="Node000002" class="node">
<title>Node2</title>
<g id="a_Node000002"><a xlink:title=" ">
<polygon fill="white" stroke="#666666" points="416.5,-371 292.5,-371 292.5,-352 416.5,-352 416.5,-371"/>
<text text-anchor="middle" x="354.5" y="-359" font-family="Helvetica,sans-Serif" font-size="10.00">std::vector&lt; double &gt;</text>
</a>
</g>
</g>
<!-- Node2&#45;&gt;Node1 -->
<g id="edge1_Node000001_Node000002" class="edge">
<title>Node2&#45;&gt;Node1</title>
<g id="a_edge1_Node000001_Node000002"><a xlink:title=" ">
<path fill="none" stroke="#9a32cd" stroke-dasharray="5,2" d="M396.55,-373.78C449.76,-388.58 545.69,-411.5 629.5,-411.5 629.5,-411.5 629.5,-411.5 989,-411.5 1071.64,-411.5 1117.23,-291.85 1128.95,-256.33"/>
<polygon fill="#9a32cd" stroke="#9a32cd" points="397.38,-370.37 386.8,-371.02 395.48,-377.11 397.38,-370.37"/>
</a>
</g>
<text text-anchor="middle" x="813.5" y="-414.5" font-family="Helvetica,sans-Serif" font-size="10.00" fill="grey"> nrecruits_vec</text>
</g>
<!-- Node4 -->
<g id="Node000004" class="node">
<title>Node4</title>
<g id="a_Node000004"><a xlink:href="classFish.html" target="_top" xlink:title=" ">
<polygon fill="white" stroke="#666666" points="831.5,-223 795.5,-223 795.5,-204 831.5,-204 831.5,-223"/>
<text text-anchor="middle" x="813.5" y="-211" font-family="Helvetica,sans-Serif" font-size="10.00">Fish</text>
</a>
</g>
</g>
<!-- Node2&#45;&gt;Node4 -->
<g id="edge18_Node000004_Node000002" class="edge">
<title>Node2&#45;&gt;Node4</title>
<g id="a_edge18_Node000004_Node000002"><a xlink:title=" ">
<path fill="none" stroke="#9a32cd" stroke-dasharray="5,2" d="M426.69,-365C470.59,-365.21 527.57,-361.92 576,-347.5 669.62,-319.62 766.47,-249.21 800.11,-223.28"/>
<polygon fill="#9a32cd" stroke="#9a32cd" points="426.72,-361.5 416.68,-364.89 426.64,-368.5 426.72,-361.5"/>
</a>
</g>
<text text-anchor="middle" x="630.5" y="-354.5" font-family="Helvetica,sans-Serif" font-size="10.00" fill="grey"> trait_scalars</text>
<text text-anchor="middle" x="630.5" y="-343.5" font-family="Helvetica,sans-Serif" font-size="10.00" fill="grey">trait_variances</text>
</g>
<!-- Node5 -->
<g id="Node000005" class="node">
<title>Node5</title>
<g id="a_Node000005"><a xlink:href="classFishParams.html" target="_top" xlink:title=" ">
<polygon fill="white" stroke="#666666" points="666.5,-223 594.5,-223 594.5,-204 666.5,-204 666.5,-223"/>
<text text-anchor="middle" x="630.5" y="-211" font-family="Helvetica,sans-Serif" font-size="10.00">FishParams</text>
</a>
</g>
</g>
<!-- Node2&#45;&gt;Node5 -->
<g id="edge14_Node000005_Node000002" class="edge">
<title>Node2&#45;&gt;Node5</title>
<g id="a_edge14_Node000005_Node000002"><a xlink:title=" ">
<path fill="none" stroke="#9a32cd" stroke-dasharray="5,2" d="M392.25,-347.91C401.05,-343.89 410.17,-339.06 418,-333.5 427.49,-326.77 425.72,-319.95 436,-314.5 491.71,-284.96 522.78,-325.33 576,-291.5 602.33,-274.76 619.05,-239.9 625.92,-223.04"/>
<polygon fill="#9a32cd" stroke="#9a32cd" points="390.68,-344.77 382.89,-351.95 393.46,-351.2 390.68,-344.77"/>
</a>
</g>
<text text-anchor="middle" x="506" y="-339.5" font-family="Helvetica,sans-Serif" font-size="10.00" fill="grey"> ma</text>
<text text-anchor="middle" x="506" y="-328.5" font-family="Helvetica,sans-Serif" font-size="10.00" fill="grey">mai</text>
<text text-anchor="middle" x="506" y="-317.5" font-family="Helvetica,sans-Serif" font-size="10.00" fill="grey">mam</text>
</g>
<!-- Node3 -->
<g id="Node000003" class="node">
<title>Node3</title>
<g id="a_Node000003"><a xlink:href="classStockParams.html" target="_top" xlink:title=" ">
<polygon fill="white" stroke="#666666" points="1028,-186 948,-186 948,-167 1028,-167 1028,-186"/>
<text text-anchor="middle" x="988" y="-174" font-family="Helvetica,sans-Serif" font-size="10.00">StockParams</text>
</a>
</g>
</g>
<!-- Node3&#45;&gt;Node1 -->
<g id="edge2_Node000001_Node000003" class="edge">
<title>Node3&#45;&gt;Node1</title>
<g id="a_edge2_Node000001_Node000003"><a xlink:title=" ">
<path fill="none" stroke="#9a32cd" stroke-dasharray="5,2" d="M1037.93,-188.45C1055.95,-194 1076.08,-201.59 1093,-211.5 1104.62,-218.3 1115.84,-228.94 1123.24,-236.7"/>
<polygon fill="#9a32cd" stroke="#9a32cd" points="1038.75,-185.04 1028.17,-185.58 1036.77,-191.76 1038.75,-185.04"/>
</a>
</g>
<text text-anchor="middle" x="1077" y="-214.5" font-family="Helvetica,sans-Serif" font-size="10.00" fill="grey"> par</text>
</g>
<!-- Node4&#45;&gt;Node1 -->
<g id="edge3_Node000001_Node000004" class="edge">
<title>Node4&#45;&gt;Node1</title>
<g id="a_edge3_Node000001_Node000004"><a xlink:title=" ">
<path fill="none" stroke="#9a32cd" stroke-dasharray="5,2" d="M841.62,-222.48C849.42,-224.77 857.98,-227 866,-228.5 951.51,-244.52 974.12,-241.11 1061,-245.5 1077.74,-246.35 1096.74,-246.58 1110.86,-246.6"/>
<polygon fill="#9a32cd" stroke="#9a32cd" points="842.52,-219.1 831.93,-219.5 840.46,-225.79 842.52,-219.1"/>
</a>
</g>
<text text-anchor="middle" x="988" y="-247.5" font-family="Helvetica,sans-Serif" font-size="10.00" fill="grey"> proto_fish</text>
</g>
<!-- Node15 -->
<g id="Node000015" class="node">
<title>Node15</title>
<g id="a_Node000015"><a xlink:title=" ">
<polygon fill="white" stroke="#666666" points="1043,-223 933,-223 933,-204 1043,-204 1043,-223"/>
<text text-anchor="middle" x="988" y="-211" font-family="Helvetica,sans-Serif" font-size="10.00">std::vector&lt; Fish &gt;</text>
</a>
</g>
</g>
<!-- Node4&#45;&gt;Node15 -->
<g id="edge22_Node000015_Node000004" class="edge">
<title>Node4&#45;&gt;Node15</title>
<g id="a_edge22_Node000015_Node000004"><a xlink:title=" ">
<path fill="none" stroke="#9a32cd" stroke-dasharray="5,2" d="M841.94,-213.5C866.26,-213.5 902.48,-213.5 932.65,-213.5"/>
<polygon fill="#9a32cd" stroke="#9a32cd" points="841.67,-210 831.67,-213.5 841.67,-217 841.67,-210"/>
</a>
</g>
<text text-anchor="middle" x="890.5" y="-216.5" font-family="Helvetica,sans-Serif" font-size="10.00" fill="grey"> elements</text>
</g>
<!-- Node5&#45;&gt;Node4 -->
<g id="edge4_Node000004_Node000005" class="edge">
<title>Node5&#45;&gt;Node4</title>
<g id="a_edge4_Node000004_Node000005"><a xlink:title=" ">
<path fill="none" stroke="#9a32cd" stroke-dasharray="5,2" d="M677.25,-213.5C715.67,-213.5 768.46,-213.5 795.31,-213.5"/>
<polygon fill="#9a32cd" stroke="#9a32cd" points="676.83,-210 666.83,-213.5 676.83,-217 676.83,-210"/>
</a>
</g>
<text text-anchor="middle" x="723" y="-216.5" font-family="Helvetica,sans-Serif" font-size="10.00" fill="grey"> par</text>
</g>
<!-- Node6 -->
<g id="Node000006" class="node">
<title>Node6</title>
<g id="a_Node000006"><a xlink:title=" ">
<polygon fill="white" stroke="#666666" points="415.5,-249.5 293.5,-249.5 293.5,-219.5 415.5,-219.5 415.5,-249.5"/>
<text text-anchor="start" x="301.5" y="-237.5" font-family="Helvetica,sans-Serif" font-size="10.00">std::map&lt; std::string,</text>
<text text-anchor="middle" x="354.5" y="-226.5" font-family="Helvetica,sans-Serif" font-size="10.00"> GrowthModel &gt;</text>
</a>
</g>
</g>
<!-- Node6&#45;&gt;Node5 -->
<g id="edge5_Node000005_Node000006" class="edge">
<title>Node6&#45;&gt;Node5</title>
<g id="a_edge5_Node000005_Node000006"><a xlink:title=" ">
<path fill="none" stroke="#9a32cd" stroke-dasharray="5,2" d="M425.81,-229.11C479.71,-224.98 551.83,-219.45 594.21,-216.2"/>
<polygon fill="#9a32cd" stroke="#9a32cd" points="425.33,-225.64 415.63,-229.89 425.87,-232.62 425.33,-225.64"/>
</a>
</g>
<text text-anchor="middle" x="506" y="-230.5" font-family="Helvetica,sans-Serif" font-size="10.00" fill="grey"> growth_names_map</text>
</g>
<!-- Node7 -->
<g id="Node000007" class="node">
<title>Node7</title>
<g id="a_Node000007"><a xlink:title=" ">
<polygon fill="white" stroke="#666666" points="206,-175 141,-175 141,-156 206,-156 206,-175"/>
<text text-anchor="middle" x="173.5" y="-163" font-family="Helvetica,sans-Serif" font-size="10.00">std::string</text>
</a>
</g>
</g>
<!-- Node7&#45;&gt;Node5 -->
<g id="edge15_Node000005_Node000007" class="edge">
<title>Node7&#45;&gt;Node5</title>
<g id="a_edge15_Node000005_Node000007"><a xlink:title=" ">
<path fill="none" stroke="#9a32cd" stroke-dasharray="5,2" d="M186.23,-183.99C195.29,-197.15 208.83,-214.55 224,-226.5 249.92,-246.92 258.82,-251.21 291,-258.5 414.73,-286.53 454.76,-279.85 576,-242.5 590.34,-238.08 605.23,-229.64 615.65,-223"/>
<polygon fill="#9a32cd" stroke="#9a32cd" points="188.9,-181.69 180.46,-175.3 183.07,-185.56 188.9,-181.69"/>
</a>
</g>
<text text-anchor="middle" x="354.5" y="-311.5" font-family="Helvetica,sans-Serif" font-size="10.00" fill="grey"> growth_model_name</text>
<text text-anchor="middle" x="354.5" y="-300.5" font-family="Helvetica,sans-Serif" font-size="10.00" fill="grey">maturation_model_name</text>
<text text-anchor="middle" x="354.5" y="-289.5" font-family="Helvetica,sans-Serif" font-size="10.00" fill="grey">mortality_model_name</text>
<text text-anchor="middle" x="354.5" y="-278.5" font-family="Helvetica,sans-Serif" font-size="10.00" fill="grey">recruitment_model_name</text>
</g>
<!-- Node7&#45;&gt;Node6 -->
<g id="edge6_Node000006_Node000007" class="edge">
<title>Node7&#45;&gt;Node6</title>
<g id="a_edge6_Node000006_Node000007"><a xlink:title=" ">
<path fill="none" stroke="#9a32cd" stroke-dasharray="5,2" d="M199.12,-180.1C206.93,-184.41 215.69,-188.92 224,-192.5 248.21,-202.92 275.89,-212.23 299.44,-219.42"/>
<polygon fill="#9a32cd" stroke="#9a32cd" points="200.6,-176.92 190.18,-175.03 197.15,-183 200.6,-176.92"/>
</a>
</g>
<text text-anchor="middle" x="248.5" y="-214.5" font-family="Helvetica,sans-Serif" font-size="10.00" fill="grey"> keys</text>
</g>
<!-- Node9 -->
<g id="Node000009" class="node">
<title>Node9</title>
<g id="a_Node000009"><a xlink:title=" ">
<polygon fill="white" stroke="#666666" points="415.5,-201.5 293.5,-201.5 293.5,-171.5 415.5,-171.5 415.5,-201.5"/>
<text text-anchor="start" x="301.5" y="-189.5" font-family="Helvetica,sans-Serif" font-size="10.00">std::map&lt; std::string,</text>
<text text-anchor="middle" x="354.5" y="-178.5" font-family="Helvetica,sans-Serif" font-size="10.00"> MaturationModel &gt;</text>
</a>
</g>
</g>
<!-- Node7&#45;&gt;Node9 -->
<g id="edge9_Node000009_Node000007" class="edge">
<title>Node7&#45;&gt;Node9</title>
<g id="a_edge9_Node000009_Node000007"><a xlink:title=" ">
<path fill="none" stroke="#9a32cd" stroke-dasharray="5,2" d="M216.17,-170.39C239.1,-173.08 267.95,-176.46 293.29,-179.44"/>
<polygon fill="#9a32cd" stroke="#9a32cd" points="216.43,-166.9 206.09,-169.21 215.61,-173.85 216.43,-166.9"/>
</a>
</g>
<text text-anchor="middle" x="248.5" y="-180.5" font-family="Helvetica,sans-Serif" font-size="10.00" fill="grey"> keys</text>
</g>
<!-- Node10 -->
<g id="Node000010" class="node">
<title>Node10</title>
<g id="a_Node000010"><a xlink:title=" ">
<polygon fill="white" stroke="#666666" points="415.5,-153.5 293.5,-153.5 293.5,-123.5 415.5,-123.5 415.5,-153.5"/>
<text text-anchor="start" x="301.5" y="-141.5" font-family="Helvetica,sans-Serif" font-size="10.00">std::map&lt; std::string,</text>
<text text-anchor="middle" x="354.5" y="-130.5" font-family="Helvetica,sans-Serif" font-size="10.00"> MortalityModel &gt;</text>
</a>
</g>
</g>
<!-- Node7&#45;&gt;Node10 -->
<g id="edge11_Node000010_Node000007" class="edge">
<title>Node7&#45;&gt;Node10</title>
<g id="a_edge11_Node000010_Node000007"><a xlink:title=" ">
<path fill="none" stroke="#9a32cd" stroke-dasharray="5,2" d="M216.27,-158.71C218.88,-158.29 221.48,-157.89 224,-157.5 246.57,-154.02 271.38,-150.34 293.19,-147.16"/>
<polygon fill="#9a32cd" stroke="#9a32cd" points="215.5,-155.28 206.18,-160.31 216.6,-162.2 215.5,-155.28"/>
</a>
</g>
<text text-anchor="middle" x="248.5" y="-160.5" font-family="Helvetica,sans-Serif" font-size="10.00" fill="grey"> keys</text>
</g>
<!-- Node11 -->
<g id="Node000011" class="node">
<title>Node11</title>
<g id="a_Node000011"><a xlink:title=" ">
<polygon fill="white" stroke="#666666" points="415.5,-105.5 293.5,-105.5 293.5,-75.5 415.5,-75.5 415.5,-105.5"/>
<text text-anchor="start" x="301.5" y="-93.5" font-family="Helvetica,sans-Serif" font-size="10.00">std::map&lt; std::string,</text>
<text text-anchor="middle" x="354.5" y="-82.5" font-family="Helvetica,sans-Serif" font-size="10.00"> RecruitmentModel &gt;</text>
</a>
</g>
</g>
<!-- Node7&#45;&gt;Node11 -->
<g id="edge13_Node000011_Node000007" class="edge">
<title>Node7&#45;&gt;Node11</title>
<g id="a_edge13_Node000011_Node000007"><a xlink:title=" ">
<path fill="none" stroke="#9a32cd" stroke-dasharray="5,2" d="M197.84,-150.61C205.94,-145.77 215.21,-140.59 224,-136.5 249.85,-124.47 279.78,-113.65 304.36,-105.53"/>
<polygon fill="#9a32cd" stroke="#9a32cd" points="195.97,-147.65 189.27,-155.86 199.62,-153.62 195.97,-147.65"/>
</a>
</g>
<text text-anchor="middle" x="248.5" y="-139.5" font-family="Helvetica,sans-Serif" font-size="10.00" fill="grey"> keys</text>
</g>
<!-- Node14 -->
<g id="Node000014" class="node">
<title>Node14</title>
<g id="a_Node000014"><a xlink:title=" ">
<polygon fill="white" stroke="#666666" points="576,-93 436,-93 436,-74 576,-74 576,-93"/>
<text text-anchor="middle" x="506" y="-81" font-family="Helvetica,sans-Serif" font-size="10.00">std::vector&lt; std::string &gt;</text>
</a>
</g>
</g>
<!-- Node7&#45;&gt;Node14 -->
<g id="edge20_Node000014_Node000007" class="edge">
<title>Node7&#45;&gt;Node14</title>
<g id="a_edge20_Node000014_Node000007"><a xlink:title=" ">
<path fill="none" stroke="#9a32cd" stroke-dasharray="5,2" d="M185.61,-147.1C194.65,-133.27 208.42,-114.54 224,-101.5 249.76,-79.94 258.37,-74.51 291,-66.5 345.82,-53.04 361.82,-61.06 418,-66.5 433.47,-68 450.28,-70.96 464.96,-74"/>
<polygon fill="#9a32cd" stroke="#9a32cd" points="182.52,-145.44 180.15,-155.77 188.44,-149.18 182.52,-145.44"/>
</a>
</g>
<text text-anchor="middle" x="248.5" y="-104.5" font-family="Helvetica,sans-Serif" font-size="10.00" fill="grey"> elements</text>
</g>
<!-- Node8 -->
<g id="Node000008" class="node">
<title>Node8</title>
<g id="a_Node000008"><a xlink:title=" ">
<polygon fill="white" stroke="#666666" points="104,-180.5 0,-180.5 0,-150.5 104,-150.5 104,-180.5"/>
<text text-anchor="start" x="8" y="-168.5" font-family="Helvetica,sans-Serif" font-size="10.00">std::basic_string&lt;</text>
<text text-anchor="middle" x="52" y="-157.5" font-family="Helvetica,sans-Serif" font-size="10.00"> Char &gt;</text>
</a>
</g>
</g>
<!-- Node8&#45;&gt;Node7 -->
<g id="edge7_Node000007_Node000008" class="edge">
<title>Node8&#45;&gt;Node7</title>
<g id="a_edge7_Node000007_Node000008"><a xlink:title=" ">
<path fill="none" stroke="#63b8ff" d="M114.1,-165.5C123.41,-165.5 132.68,-165.5 141,-165.5"/>
<polygon fill="#63b8ff" stroke="#63b8ff" points="114.03,-162 104.03,-165.5 114.03,-169 114.03,-162"/>
</a>
</g>
</g>
<!-- Node9&#45;&gt;Node5 -->
<g id="edge8_Node000005_Node000009" class="edge">
<title>Node9&#45;&gt;Node5</title>
<g id="a_edge8_Node000005_Node000009"><a xlink:title=" ">
<path fill="none" stroke="#9a32cd" stroke-dasharray="5,2" d="M425.79,-189.26C469.22,-191.55 526.02,-195.58 576,-202.5 581.92,-203.32 588.16,-204.4 594.22,-205.57"/>
<polygon fill="#9a32cd" stroke="#9a32cd" points="425.78,-185.76 415.62,-188.74 425.43,-192.75 425.78,-185.76"/>
</a>
</g>
<text text-anchor="middle" x="506" y="-205.5" font-family="Helvetica,sans-Serif" font-size="10.00" fill="grey"> maturation_names_map</text>
</g>
<!-- Node10&#45;&gt;Node5 -->
<g id="edge10_Node000005_Node000010" class="edge">
<title>Node10&#45;&gt;Node5</title>
<g id="a_edge10_Node000005_Node000010"><a xlink:title=" ">
<path fill="none" stroke="#9a32cd" stroke-dasharray="5,2" d="M425.66,-142.2C470.12,-146.48 528.08,-155.69 576,-175.5 592.43,-182.29 608.7,-194.91 618.91,-203.74"/>
<polygon fill="#9a32cd" stroke="#9a32cd" points="425.8,-138.7 415.52,-141.29 425.17,-145.67 425.8,-138.7"/>
</a>
</g>
<text text-anchor="middle" x="506" y="-178.5" font-family="Helvetica,sans-Serif" font-size="10.00" fill="grey"> mortality_names_map</text>
</g>
<!-- Node11&#45;&gt;Node5 -->
<g id="edge12_Node000005_Node000011" class="edge">
<title>Node11&#45;&gt;Node5</title>
<g id="a_edge12_Node000005_Node000011"><a xlink:title=" ">
<path fill="none" stroke="#9a32cd" stroke-dasharray="5,2" d="M425.78,-99.7C485.5,-108 563.51,-120.14 576,-128.5 579.64,-130.94 610.55,-181.95 623.66,-203.75"/>
<polygon fill="#9a32cd" stroke="#9a32cd" points="426,-96.2 415.61,-98.3 425.04,-103.13 426,-96.2"/>
</a>
</g>
<text text-anchor="middle" x="506" y="-131.5" font-family="Helvetica,sans-Serif" font-size="10.00" fill="grey"> recruitment_names_map</text>
</g>
<!-- Node12 -->
<g id="Node000012" class="node">
<title>Node12</title>
<g id="a_Node000012"><a xlink:href="classSpline.html" target="_top" xlink:title=" ">
<polygon fill="white" stroke="#666666" points="654,-33 607,-33 607,-14 654,-14 654,-33"/>
<text text-anchor="middle" x="630.5" y="-21" font-family="Helvetica,sans-Serif" font-size="10.00">Spline</text>
</a>
</g>
</g>
<!-- Node12&#45;&gt;Node4 -->
<g id="edge16_Node000004_Node000012" class="edge">
<title>Node12&#45;&gt;Node4</title>
<g id="a_edge16_Node000004_Node000012"><a xlink:title=" ">
<path fill="none" stroke="#9a32cd" stroke-dasharray="5,2" d="M659.82,-38.09C688.25,-53.86 731.9,-81.25 761,-114.5 785.75,-142.78 802.57,-185.05 809.26,-203.87"/>
<polygon fill="#9a32cd" stroke="#9a32cd" points="661.27,-34.89 650.81,-33.2 657.93,-41.05 661.27,-34.89"/>
</a>
</g>
<text text-anchor="middle" x="723" y="-117.5" font-family="Helvetica,sans-Serif" font-size="10.00" fill="grey"> mort_fn_spline</text>
</g>
<!-- Node13 -->
<g id="Node000013" class="node">
<title>Node13</title>
<g id="a_Node000013"><a xlink:title=" ">
<polygon fill="white" stroke="#666666" points="412.5,-19 296.5,-19 296.5,0 412.5,0 412.5,-19"/>
<text text-anchor="middle" x="354.5" y="-7" font-family="Helvetica,sans-Serif" font-size="10.00">std::vector&lt; Float &gt;</text>
</a>
</g>
</g>
<!-- Node13&#45;&gt;Node12 -->
<g id="edge17_Node000012_Node000013" class="edge">
<title>Node13&#45;&gt;Node12</title>
<g id="a_edge17_Node000012_Node000013"><a xlink:title=" ">
<path fill="none" stroke="#9a32cd" stroke-dasharray="5,2" d="M423.11,-5.05C466.89,-3.26 525.03,-2.94 576,-9.5 586.28,-10.82 597.41,-13.52 606.84,-16.2"/>
<polygon fill="#9a32cd" stroke="#9a32cd" points="422.7,-1.56 412.86,-5.5 423.01,-8.56 422.7,-1.56"/>
</a>
</g>
<text text-anchor="middle" x="506" y="-56.5" font-family="Helvetica,sans-Serif" font-size="10.00" fill="grey"> m_a</text>
<text text-anchor="middle" x="506" y="-45.5" font-family="Helvetica,sans-Serif" font-size="10.00" fill="grey">m_b</text>
<text text-anchor="middle" x="506" y="-34.5" font-family="Helvetica,sans-Serif" font-size="10.00" fill="grey">m_c</text>
<text text-anchor="middle" x="506" y="-23.5" font-family="Helvetica,sans-Serif" font-size="10.00" fill="grey">m_x</text>
<text text-anchor="middle" x="506" y="-12.5" font-family="Helvetica,sans-Serif" font-size="10.00" fill="grey">m_y</text>
</g>
<!-- Node14&#45;&gt;Node4 -->
<g id="edge19_Node000004_Node000014" class="edge">
<title>Node14&#45;&gt;Node4</title>
<g id="a_edge19_Node000004_Node000014"><a xlink:title=" ">
<path fill="none" stroke="#9a32cd" stroke-dasharray="5,2" d="M567.19,-95.68C570.19,-96.57 573.14,-97.51 576,-98.5 662.5,-128.45 758.58,-182.03 796.17,-203.85"/>
<polygon fill="#9a32cd" stroke="#9a32cd" points="568.08,-92.3 557.51,-93.02 566.22,-99.05 568.08,-92.3"/>
</a>
</g>
<text text-anchor="middle" x="630.5" y="-139.5" font-family="Helvetica,sans-Serif" font-size="10.00" fill="grey"> trait_names</text>
</g>
<!-- Node15&#45;&gt;Node1 -->
<g id="edge21_Node000001_Node000015" class="edge">
<title>Node15&#45;&gt;Node1</title>
<g id="a_edge21_Node000001_Node000015"><a xlink:title=" ">
<path fill="none" stroke="#9a32cd" stroke-dasharray="5,2" d="M1051.24,-225.02C1065.05,-227.87 1079.57,-231.09 1093,-234.5 1098.77,-235.97 1104.95,-237.76 1110.65,-239.51"/>
<polygon fill="#9a32cd" stroke="#9a32cd" points="1051.83,-221.57 1041.34,-223.01 1050.44,-228.43 1051.83,-221.57"/>
</a>
</g>
<text text-anchor="middle" x="1077" y="-237.5" font-family="Helvetica,sans-Serif" font-size="10.00" fill="grey"> fishes</text>
</g>
</g>
</svg>
