<?xml version="1.0" encoding="UTF-8" standalone="no"?>
<!DOCTYPE svg PUBLIC "-//W3C//DTD SVG 1.1//EN"
 "http://www.w3.org/Graphics/SVG/1.1/DTD/svg11.dtd">
<!-- Generated by graphviz version 2.43.0 (0)
 -->
<!-- Title: Simulator::max_avg_utils_2d Pages: 1 -->
<svg width="540pt" height="85pt"
 viewBox="0.00 0.00 540.00 85.00" xmlns="http://www.w3.org/2000/svg" xmlns:xlink="http://www.w3.org/1999/xlink">
<g id="graph0" class="graph" transform="scale(1 1) rotate(0) translate(4 81)">
<title>Simulator::max_avg_utils_2d</title>
<!-- Node1 -->
<g id="node1" class="node">
<title>Node1</title>
<g id="a_node1"><a xlink:title=" ">
<polygon fill="#bfbfbf" stroke="black" points="0,-33 0,-63 115,-63 115,-33 0,-33"/>
<text text-anchor="start" x="8" y="-51" font-family="Helvetica,sans-Serif" font-size="10.00">Simulator::max_avg</text>
<text text-anchor="middle" x="57.5" y="-40" font-family="Helvetica,sans-Serif" font-size="10.00">_utils_2d</text>
</a>
</g>
</g>
<!-- Node2 -->
<g id="node2" class="node">
<title>Node2</title>
<g id="a_node2"><a xlink:href="classTensor.html#a6c8465a488ce260e6e05f1a3ceb8ab26" target="_top" xlink:title=" ">
<polygon fill="none" stroke="black" points="154,-57.5 154,-76.5 250,-76.5 250,-57.5 154,-57.5"/>
<text text-anchor="middle" x="202" y="-64.5" font-family="Helvetica,sans-Serif" font-size="10.00">Tensor::avg_dim</text>
</a>
</g>
</g>
<!-- Node1&#45;&gt;Node2 -->
<g id="edge1" class="edge">
<title>Node1&#45;&gt;Node2</title>
<path fill="none" stroke="midnightblue" d="M115.23,-55.56C124.58,-56.81 134.27,-58.1 143.64,-59.35"/>
<polygon fill="midnightblue" stroke="midnightblue" points="143.26,-62.83 153.63,-60.68 144.18,-55.89 143.26,-62.83"/>
</g>
<!-- Node3 -->
<g id="node3" class="node">
<title>Node3</title>
<g id="a_node3"><a xlink:href="classTensor.html#a3986d7a50faef0249a8d2da5b1f67a89" target="_top" xlink:title=" ">
<polygon fill="none" stroke="black" points="151,-19.5 151,-38.5 253,-38.5 253,-19.5 151,-19.5"/>
<text text-anchor="middle" x="202" y="-26.5" font-family="Helvetica,sans-Serif" font-size="10.00">Tensor::transform</text>
</a>
</g>
</g>
<!-- Node1&#45;&gt;Node3 -->
<g id="edge2" class="edge">
<title>Node1&#45;&gt;Node3</title>
<path fill="none" stroke="midnightblue" d="M115.23,-40.44C123.62,-39.32 132.28,-38.16 140.74,-37.03"/>
<polygon fill="midnightblue" stroke="midnightblue" points="141.47,-40.47 150.92,-35.68 140.54,-33.53 141.47,-40.47"/>
</g>
<!-- Node4 -->
<g id="node4" class="node">
<title>Node4</title>
<g id="a_node4"><a xlink:href="classTensor.html#a862952dc137707abdccd06cf9cd5855b" target="_top" xlink:title=" ">
<polygon fill="none" stroke="black" points="311.5,-38.5 311.5,-57.5 392.5,-57.5 392.5,-38.5 311.5,-38.5"/>
<text text-anchor="middle" x="352" y="-45.5" font-family="Helvetica,sans-Serif" font-size="10.00">Tensor::plane</text>
</a>
</g>
</g>
<!-- Node3&#45;&gt;Node4 -->
<g id="edge3" class="edge">
<title>Node3&#45;&gt;Node4</title>
<path fill="none" stroke="midnightblue" d="M253.11,-35.43C268.65,-37.43 285.78,-39.63 301.3,-41.62"/>
<polygon fill="midnightblue" stroke="midnightblue" points="300.86,-45.09 311.23,-42.89 301.76,-38.15 300.86,-45.09"/>
</g>
<!-- Node6 -->
<g id="node6" class="node">
<title>Node6</title>
<g id="a_node6"><a xlink:href="classTensor.html#a1a9aea97717d687b7d501842efb546d4" target="_top" xlink:title=" ">
<polygon fill="none" stroke="black" points="289,-0.5 289,-19.5 415,-19.5 415,-0.5 289,-0.5"/>
<text text-anchor="middle" x="352" y="-7.5" font-family="Helvetica,sans-Serif" font-size="10.00">Tensor::transform_dim</text>
</a>
</g>
</g>
<!-- Node3&#45;&gt;Node6 -->
<g id="edge5" class="edge">
<title>Node3&#45;&gt;Node6</title>
<path fill="none" stroke="midnightblue" d="M253.11,-22.57C261.36,-21.51 270.07,-20.39 278.74,-19.28"/>
<polygon fill="midnightblue" stroke="midnightblue" points="279.4,-22.72 288.87,-17.98 278.51,-15.78 279.4,-22.72"/>
</g>
<!-- Node5 -->
<g id="node5" class="node">
<title>Node5</title>
<g id="a_node5"><a xlink:href="classTensor.html#a90a6b28226bcd1be7090fd2f8782d0b1" target="_top" xlink:title=" ">
<polygon fill="none" stroke="black" points="451,-38.5 451,-57.5 532,-57.5 532,-38.5 451,-38.5"/>
<text text-anchor="middle" x="491.5" y="-45.5" font-family="Helvetica,sans-Serif" font-size="10.00">Tensor::index</text>
</a>
</g>
</g>
<!-- Node4&#45;&gt;Node5 -->
<g id="edge4" class="edge">
<title>Node4&#45;&gt;Node5</title>
<path fill="none" stroke="midnightblue" d="M392.77,-48C407.74,-48 424.94,-48 440.71,-48"/>
<polygon fill="midnightblue" stroke="midnightblue" points="440.82,-51.5 450.82,-48 440.82,-44.5 440.82,-51.5"/>
</g>
</g>
</svg>
