<?xml version="1.0" encoding="UTF-8" standalone="no"?>
<!DOCTYPE svg PUBLIC "-//W3C//DTD SVG 1.1//EN"
 "http://www.w3.org/Graphics/SVG/1.1/DTD/svg11.dtd">
<!-- Generated by graphviz version 2.43.0 (0)
 -->
<!-- Title: Population Pages: 1 -->
<svg width="1295pt" height="439pt"
 viewBox="0.00 0.00 1295.00 439.00" xmlns="http://www.w3.org/2000/svg" xmlns:xlink="http://www.w3.org/1999/xlink">
<g id="graph0" class="graph" transform="scale(1 1) rotate(0) translate(4 435)">
<title>Population</title>
<!-- Node1 -->
<g id="node1" class="node">
<title>Node1</title>
<g id="a_node1"><a xlink:title=" ">
<polygon fill="#bfbfbf" stroke="black" points="1219,-188.5 1219,-207.5 1287,-207.5 1287,-188.5 1219,-188.5"/>
<text text-anchor="middle" x="1253" y="-195.5" font-family="Helvetica,sans-Serif" font-size="10.00">Population</text>
</a>
</g>
</g>
<!-- Node2 -->
<g id="node2" class="node">
<title>Node2</title>
<g id="a_node2"><a xlink:href="classSeaEnvironment.html" target="_top" xlink:title=" ">
<polygon fill="none" stroke="black" points="795,-310.5 795,-329.5 892,-329.5 892,-310.5 795,-310.5"/>
<text text-anchor="middle" x="843.5" y="-317.5" font-family="Helvetica,sans-Serif" font-size="10.00">SeaEnvironment</text>
</a>
</g>
</g>
<!-- Node2&#45;&gt;Node1 -->
<g id="edge1" class="edge">
<title>Node2&#45;&gt;Node1</title>
<path fill="none" stroke="#9a32cd" stroke-dasharray="5,2" d="M902.2,-325.14C964.59,-328.91 1066.33,-329.86 1150,-306 1174.66,-298.97 1182.2,-296.44 1201,-279 1223.9,-257.75 1240.67,-224.03 1247.96,-207.61"/>
<polygon fill="#9a32cd" stroke="#9a32cd" points="902.37,-321.64 892.16,-324.48 901.91,-328.62 902.37,-321.64"/>
<text text-anchor="middle" x="1064.5" y="-330" font-family="Helvetica,sans-Serif" font-size="10.00"> env</text>
</g>
<!-- Node4 -->
<g id="node4" class="node">
<title>Node4</title>
<g id="a_node4"><a xlink:title=" ">
<polygon fill="none" stroke="#bfbfbf" points="979,-277.5 979,-296.5 1150,-296.5 1150,-277.5 979,-277.5"/>
<text text-anchor="middle" x="1064.5" y="-284.5" font-family="Helvetica,sans-Serif" font-size="10.00">std::vector&lt; SeaEnvironment &gt;</text>
</a>
</g>
</g>
<!-- Node2&#45;&gt;Node4 -->
<g id="edge4" class="edge">
<title>Node2&#45;&gt;Node4</title>
<path fill="none" stroke="#9a32cd" stroke-dasharray="5,2" d="M901.95,-309.32C904.67,-308.87 907.36,-308.42 910,-308 935.63,-303.9 963.75,-299.91 988.84,-296.52"/>
<polygon fill="#9a32cd" stroke="#9a32cd" points="901.3,-305.88 892.04,-311.03 902.49,-312.78 901.3,-305.88"/>
<text text-anchor="middle" x="935.5" y="-311" font-family="Helvetica,sans-Serif" font-size="10.00"> elements</text>
</g>
<!-- Node3 -->
<g id="node3" class="node">
<title>Node3</title>
<g id="a_node3"><a xlink:href="classPopulationParams.html" target="_top" xlink:title=" ">
<polygon fill="none" stroke="black" points="1012,-239.5 1012,-258.5 1117,-258.5 1117,-239.5 1012,-239.5"/>
<text text-anchor="middle" x="1064.5" y="-246.5" font-family="Helvetica,sans-Serif" font-size="10.00">PopulationParams</text>
</a>
</g>
</g>
<!-- Node3&#45;&gt;Node1 -->
<g id="edge2" class="edge">
<title>Node3&#45;&gt;Node1</title>
<path fill="none" stroke="#9a32cd" stroke-dasharray="5,2" d="M1127.46,-242.17C1150.91,-238.52 1177.58,-233.05 1201,-225 1213.7,-220.64 1227.07,-213.44 1236.94,-207.58"/>
<polygon fill="#9a32cd" stroke="#9a32cd" points="1126.66,-238.75 1117.28,-243.68 1127.69,-245.68 1126.66,-238.75"/>
<text text-anchor="middle" x="1184.5" y="-237" font-family="Helvetica,sans-Serif" font-size="10.00"> par</text>
</g>
<!-- Node4&#45;&gt;Node1 -->
<g id="edge3" class="edge">
<title>Node4&#45;&gt;Node1</title>
<path fill="none" stroke="#9a32cd" stroke-dasharray="5,2" d="M1138.15,-275.06C1159.52,-269.38 1182.19,-261.08 1201,-249 1218.91,-237.49 1235.52,-218.78 1244.66,-207.5"/>
<polygon fill="#9a32cd" stroke="#9a32cd" points="1137.3,-271.66 1128.44,-277.49 1138.99,-278.46 1137.3,-271.66"/>
<text text-anchor="middle" x="1184.5" y="-267" font-family="Helvetica,sans-Serif" font-size="10.00"> v_env</text>
</g>
<!-- Node5 -->
<g id="node5" class="node">
<title>Node5</title>
<g id="a_node5"><a xlink:href="classFish.html" target="_top" xlink:title=" ">
<polygon fill="none" stroke="black" points="826,-141.5 826,-160.5 861,-160.5 861,-141.5 826,-141.5"/>
<text text-anchor="middle" x="843.5" y="-148.5" font-family="Helvetica,sans-Serif" font-size="10.00">Fish</text>
</a>
</g>
</g>
<!-- Node5&#45;&gt;Node1 -->
<g id="edge5" class="edge">
<title>Node5&#45;&gt;Node1</title>
<path fill="none" stroke="#9a32cd" stroke-dasharray="5,2" d="M871.13,-145.55C924.86,-135.59 1049.66,-117.67 1150,-143 1184.92,-151.81 1220.87,-175.19 1239.34,-188.46"/>
<polygon fill="#9a32cd" stroke="#9a32cd" points="870.23,-142.16 861.07,-147.48 871.55,-149.03 870.23,-142.16"/>
<text text-anchor="middle" x="1064.5" y="-146" font-family="Helvetica,sans-Serif" font-size="10.00"> proto_fish</text>
</g>
<!-- Node15 -->
<g id="node15" class="node">
<title>Node15</title>
<g id="a_node15"><a xlink:title=" ">
<polygon fill="none" stroke="#bfbfbf" points="1009.5,-163.5 1009.5,-182.5 1119.5,-182.5 1119.5,-163.5 1009.5,-163.5"/>
<text text-anchor="middle" x="1064.5" y="-170.5" font-family="Helvetica,sans-Serif" font-size="10.00">std::vector&lt; Fish &gt;</text>
</a>
</g>
</g>
<!-- Node5&#45;&gt;Node15 -->
<g id="edge22" class="edge">
<title>Node5&#45;&gt;Node15</title>
<path fill="none" stroke="#9a32cd" stroke-dasharray="5,2" d="M871.48,-153.71C905.71,-157.15 965.55,-163.16 1009.36,-167.56"/>
<polygon fill="#9a32cd" stroke="#9a32cd" points="871.62,-150.21 861.32,-152.69 870.92,-157.17 871.62,-150.21"/>
<text text-anchor="middle" x="935.5" y="-165" font-family="Helvetica,sans-Serif" font-size="10.00"> elements</text>
</g>
<!-- Node6 -->
<g id="node6" class="node">
<title>Node6</title>
<g id="a_node6"><a xlink:href="classFishParams.html" target="_top" xlink:title=" ">
<polygon fill="none" stroke="black" points="591,-168.5 591,-187.5 663,-187.5 663,-168.5 591,-168.5"/>
<text text-anchor="middle" x="627" y="-175.5" font-family="Helvetica,sans-Serif" font-size="10.00">FishParams</text>
</a>
</g>
</g>
<!-- Node6&#45;&gt;Node5 -->
<g id="edge6" class="edge">
<title>Node6&#45;&gt;Node5</title>
<path fill="none" stroke="#9a32cd" stroke-dasharray="5,2" d="M662.88,-165.12C678.58,-159.96 697.48,-154.63 715,-152 754.4,-146.08 801.43,-147.99 825.88,-149.65"/>
<polygon fill="#9a32cd" stroke="#9a32cd" points="661.42,-161.92 653.08,-168.45 663.67,-168.55 661.42,-161.92"/>
<text text-anchor="middle" x="746" y="-155" font-family="Helvetica,sans-Serif" font-size="10.00"> par</text>
</g>
<!-- Node7 -->
<g id="node7" class="node">
<title>Node7</title>
<g id="a_node7"><a xlink:title=" ">
<polygon fill="none" stroke="#bfbfbf" points="270.5,-215 270.5,-245 392.5,-245 392.5,-215 270.5,-215"/>
<text text-anchor="start" x="278.5" y="-233" font-family="Helvetica,sans-Serif" font-size="10.00">std::map&lt; std::string,</text>
<text text-anchor="middle" x="331.5" y="-222" font-family="Helvetica,sans-Serif" font-size="10.00"> RecruitmentModel &gt;</text>
</a>
</g>
</g>
<!-- Node7&#45;&gt;Node6 -->
<g id="edge7" class="edge">
<title>Node7&#45;&gt;Node6</title>
<path fill="none" stroke="#9a32cd" stroke-dasharray="5,2" d="M402.68,-219.79C442.71,-213.72 493.78,-205.54 539,-197 556.17,-193.76 575.13,-189.67 590.96,-186.13"/>
<polygon fill="#9a32cd" stroke="#9a32cd" points="402.11,-216.34 392.75,-221.29 403.16,-223.26 402.11,-216.34"/>
<text text-anchor="middle" x="476" y="-220" font-family="Helvetica,sans-Serif" font-size="10.00"> recruitment_names_map</text>
</g>
<!-- Node8 -->
<g id="node8" class="node">
<title>Node8</title>
<g id="a_node8"><a xlink:title=" ">
<polygon fill="none" stroke="#bfbfbf" points="141,-259.5 141,-278.5 206,-278.5 206,-259.5 141,-259.5"/>
<text text-anchor="middle" x="173.5" y="-266.5" font-family="Helvetica,sans-Serif" font-size="10.00">std::string</text>
</a>
</g>
</g>
<!-- Node8&#45;&gt;Node6 -->
<g id="edge10" class="edge">
<title>Node8&#45;&gt;Node6</title>
<path fill="none" stroke="#9a32cd" stroke-dasharray="5,2" d="M216.38,-277.23C289.44,-289.1 441.68,-302.53 539,-232 553.16,-221.74 543.42,-208.03 557,-197 566.55,-189.24 579.03,-184.65 590.75,-181.92"/>
<polygon fill="#9a32cd" stroke="#9a32cd" points="216.63,-273.72 206.19,-275.5 215.46,-280.62 216.63,-273.72"/>
<text text-anchor="middle" x="331.5" y="-322" font-family="Helvetica,sans-Serif" font-size="10.00"> growth_model_name</text>
<text text-anchor="middle" x="331.5" y="-311" font-family="Helvetica,sans-Serif" font-size="10.00">maturation_model_name</text>
<text text-anchor="middle" x="331.5" y="-300" font-family="Helvetica,sans-Serif" font-size="10.00">mortality_model_name</text>
<text text-anchor="middle" x="331.5" y="-289" font-family="Helvetica,sans-Serif" font-size="10.00">recruitment_model_name</text>
</g>
<!-- Node8&#45;&gt;Node7 -->
<g id="edge8" class="edge">
<title>Node8&#45;&gt;Node7</title>
<path fill="none" stroke="#9a32cd" stroke-dasharray="5,2" d="M216.02,-258.62C232.64,-254.46 252.13,-249.59 270.26,-245.06"/>
<polygon fill="#9a32cd" stroke="#9a32cd" points="214.92,-255.29 206.07,-261.11 216.62,-262.08 214.92,-255.29"/>
<text text-anchor="middle" x="237" y="-259" font-family="Helvetica,sans-Serif" font-size="10.00"> keys</text>
</g>
<!-- Node10 -->
<g id="node10" class="node">
<title>Node10</title>
<g id="a_node10"><a xlink:title=" ">
<polygon fill="none" stroke="#bfbfbf" points="270.5,-166 270.5,-196 392.5,-196 392.5,-166 270.5,-166"/>
<text text-anchor="start" x="278.5" y="-184" font-family="Helvetica,sans-Serif" font-size="10.00">std::map&lt; std::string,</text>
<text text-anchor="middle" x="331.5" y="-173" font-family="Helvetica,sans-Serif" font-size="10.00"> GrowthModel &gt;</text>
</a>
</g>
</g>
<!-- Node8&#45;&gt;Node10 -->
<g id="edge12" class="edge">
<title>Node8&#45;&gt;Node10</title>
<path fill="none" stroke="#9a32cd" stroke-dasharray="5,2" d="M196.64,-253.66C205.17,-247.79 215.01,-241.05 224,-235 243.43,-221.92 247.24,-216.85 268,-206 274.73,-202.48 282.07,-199.14 289.28,-196.11"/>
<polygon fill="#9a32cd" stroke="#9a32cd" points="194.56,-250.84 188.32,-259.4 198.54,-256.6 194.56,-250.84"/>
<text text-anchor="middle" x="237" y="-238" font-family="Helvetica,sans-Serif" font-size="10.00"> keys</text>
</g>
<!-- Node11 -->
<g id="node11" class="node">
<title>Node11</title>
<g id="a_node11"><a xlink:title=" ">
<polygon fill="none" stroke="#bfbfbf" points="270.5,-117 270.5,-147 392.5,-147 392.5,-117 270.5,-117"/>
<text text-anchor="start" x="278.5" y="-135" font-family="Helvetica,sans-Serif" font-size="10.00">std::map&lt; std::string,</text>
<text text-anchor="middle" x="331.5" y="-124" font-family="Helvetica,sans-Serif" font-size="10.00"> MaturationModel &gt;</text>
</a>
</g>
</g>
<!-- Node8&#45;&gt;Node11 -->
<g id="edge14" class="edge">
<title>Node8&#45;&gt;Node11</title>
<path fill="none" stroke="#9a32cd" stroke-dasharray="5,2" d="M185.14,-250.45C200.35,-225.56 230.66,-181.62 268,-157 273.66,-153.27 279.96,-149.94 286.33,-147.04"/>
<polygon fill="#9a32cd" stroke="#9a32cd" points="182,-248.89 179.89,-259.27 188.01,-252.46 182,-248.89"/>
<text text-anchor="middle" x="237" y="-196" font-family="Helvetica,sans-Serif" font-size="10.00"> keys</text>
</g>
<!-- Node12 -->
<g id="node12" class="node">
<title>Node12</title>
<g id="a_node12"><a xlink:title=" ">
<polygon fill="none" stroke="#bfbfbf" points="270.5,-345 270.5,-375 392.5,-375 392.5,-345 270.5,-345"/>
<text text-anchor="start" x="278.5" y="-363" font-family="Helvetica,sans-Serif" font-size="10.00">std::map&lt; std::string,</text>
<text text-anchor="middle" x="331.5" y="-352" font-family="Helvetica,sans-Serif" font-size="10.00"> MortalityModel &gt;</text>
</a>
</g>
</g>
<!-- Node8&#45;&gt;Node12 -->
<g id="edge16" class="edge">
<title>Node8&#45;&gt;Node12</title>
<path fill="none" stroke="#9a32cd" stroke-dasharray="5,2" d="M196.46,-284.5C215.09,-297.36 242.75,-315.78 268,-330 277.23,-335.2 287.5,-340.37 297,-344.91"/>
<polygon fill="#9a32cd" stroke="#9a32cd" points="198.3,-281.51 188.09,-278.67 194.3,-287.26 198.3,-281.51"/>
<text text-anchor="middle" x="237" y="-322" font-family="Helvetica,sans-Serif" font-size="10.00"> keys</text>
</g>
<!-- Node14 -->
<g id="node14" class="node">
<title>Node14</title>
<g id="a_node14"><a xlink:title=" ">
<polygon fill="none" stroke="#bfbfbf" points="557,-206.5 557,-225.5 697,-225.5 697,-206.5 557,-206.5"/>
<text text-anchor="middle" x="627" y="-213.5" font-family="Helvetica,sans-Serif" font-size="10.00">std::vector&lt; std::string &gt;</text>
</a>
</g>
</g>
<!-- Node8&#45;&gt;Node14 -->
<g id="edge19" class="edge">
<title>Node8&#45;&gt;Node14</title>
<path fill="none" stroke="#9a32cd" stroke-dasharray="5,2" d="M182.94,-288.07C196.35,-315.65 225.46,-365.52 268,-385 377.7,-435.24 438.22,-435.34 539,-369 592.6,-333.72 616.8,-253.36 623.77,-225.63"/>
<polygon fill="#9a32cd" stroke="#9a32cd" points="185.97,-286.28 178.57,-278.69 179.62,-289.24 185.97,-286.28"/>
<text text-anchor="middle" x="331.5" y="-423" font-family="Helvetica,sans-Serif" font-size="10.00"> elements</text>
</g>
<!-- Node9 -->
<g id="node9" class="node">
<title>Node9</title>
<g id="a_node9"><a xlink:title=" ">
<polygon fill="none" stroke="#bfbfbf" points="0,-254 0,-284 104,-284 104,-254 0,-254"/>
<text text-anchor="start" x="8" y="-272" font-family="Helvetica,sans-Serif" font-size="10.00">std::basic_string&lt;</text>
<text text-anchor="middle" x="52" y="-261" font-family="Helvetica,sans-Serif" font-size="10.00"> Char &gt;</text>
</a>
</g>
</g>
<!-- Node9&#45;&gt;Node8 -->
<g id="edge9" class="edge">
<title>Node9&#45;&gt;Node8</title>
<path fill="none" stroke="midnightblue" d="M114.1,-269C123.41,-269 132.68,-269 141,-269"/>
<polygon fill="midnightblue" stroke="midnightblue" points="114.03,-265.5 104.03,-269 114.03,-272.5 114.03,-265.5"/>
</g>
<!-- Node10&#45;&gt;Node6 -->
<g id="edge11" class="edge">
<title>Node10&#45;&gt;Node6</title>
<path fill="none" stroke="#9a32cd" stroke-dasharray="5,2" d="M402.96,-181.93C406.36,-181.95 409.72,-181.98 413,-182 469,-182.35 483.01,-183.29 539,-182 556.08,-181.61 575.03,-180.78 590.88,-179.98"/>
<polygon fill="#9a32cd" stroke="#9a32cd" points="402.75,-178.42 392.72,-181.83 402.69,-185.42 402.75,-178.42"/>
<text text-anchor="middle" x="476" y="-185" font-family="Helvetica,sans-Serif" font-size="10.00"> growth_names_map</text>
</g>
<!-- Node11&#45;&gt;Node6 -->
<g id="edge13" class="edge">
<title>Node11&#45;&gt;Node6</title>
<path fill="none" stroke="#9a32cd" stroke-dasharray="5,2" d="M402.6,-146.18C406.11,-146.81 409.6,-147.42 413,-148 475.41,-158.59 548.55,-168.31 590.85,-173.67"/>
<polygon fill="#9a32cd" stroke="#9a32cd" points="403.12,-142.71 392.65,-144.34 401.85,-149.6 403.12,-142.71"/>
<text text-anchor="middle" x="476" y="-169" font-family="Helvetica,sans-Serif" font-size="10.00"> maturation_names_map</text>
</g>
<!-- Node12&#45;&gt;Node6 -->
<g id="edge15" class="edge">
<title>Node12&#45;&gt;Node6</title>
<path fill="none" stroke="#9a32cd" stroke-dasharray="5,2" d="M402.64,-356.34C448.05,-350.14 504.87,-334.52 539,-296 568.66,-262.53 526.81,-230 557,-197 565.64,-187.56 578.5,-182.64 590.78,-180.13"/>
<polygon fill="#9a32cd" stroke="#9a32cd" points="402.05,-352.88 392.55,-357.59 402.91,-359.83 402.05,-352.88"/>
<text text-anchor="middle" x="476" y="-357" font-family="Helvetica,sans-Serif" font-size="10.00"> mortality_names_map</text>
</g>
<!-- Node13 -->
<g id="node13" class="node">
<title>Node13</title>
<g id="a_node13"><a xlink:title=" ">
<polygon fill="none" stroke="#bfbfbf" points="269.5,-71.5 269.5,-90.5 393.5,-90.5 393.5,-71.5 269.5,-71.5"/>
<text text-anchor="middle" x="331.5" y="-78.5" font-family="Helvetica,sans-Serif" font-size="10.00">std::vector&lt; double &gt;</text>
</a>
</g>
</g>
<!-- Node13&#45;&gt;Node1 -->
<g id="edge25" class="edge">
<title>Node13&#45;&gt;Node1</title>
<path fill="none" stroke="#9a32cd" stroke-dasharray="5,2" d="M395.01,-69.87C454.27,-60.29 545.9,-48 626,-48 626,-48 626,-48 1065.5,-48 1155.25,-48 1226.32,-154.79 1246.34,-188.16"/>
<polygon fill="#9a32cd" stroke="#9a32cd" points="394.36,-66.43 385.05,-71.5 395.49,-73.33 394.36,-66.43"/>
<text text-anchor="middle" x="843.5" y="-106" font-family="Helvetica,sans-Serif" font-size="10.00"> carrying_capacity</text>
<text text-anchor="middle" x="843.5" y="-95" font-family="Helvetica,sans-Serif" font-size="10.00">nrecruits_vec</text>
<text text-anchor="middle" x="843.5" y="-84" font-family="Helvetica,sans-Serif" font-size="10.00">vage</text>
<text text-anchor="middle" x="843.5" y="-73" font-family="Helvetica,sans-Serif" font-size="10.00">vfreq</text>
<text text-anchor="middle" x="843.5" y="-62" font-family="Helvetica,sans-Serif" font-size="10.00">vlen</text>
<text text-anchor="middle" x="843.5" y="-51" font-family="Helvetica,sans-Serif" font-size="10.00">vmat</text>
</g>
<!-- Node13&#45;&gt;Node5 -->
<g id="edge20" class="edge">
<title>Node13&#45;&gt;Node5</title>
<path fill="none" stroke="#9a32cd" stroke-dasharray="5,2" d="M403.83,-83.82C443.7,-85.9 494.23,-89.37 539,-95 649.31,-108.87 780.19,-137.05 825.83,-147.23"/>
<polygon fill="#9a32cd" stroke="#9a32cd" points="403.83,-80.31 393.67,-83.3 403.48,-87.3 403.83,-80.31"/>
<text text-anchor="middle" x="627" y="-134" font-family="Helvetica,sans-Serif" font-size="10.00"> trait_scalars</text>
<text text-anchor="middle" x="627" y="-123" font-family="Helvetica,sans-Serif" font-size="10.00">trait_variances</text>
</g>
<!-- Node13&#45;&gt;Node6 -->
<g id="edge17" class="edge">
<title>Node13&#45;&gt;Node6</title>
<path fill="none" stroke="#9a32cd" stroke-dasharray="5,2" d="M403.64,-90.91C462.08,-99.11 535.8,-109.64 539,-111 571.31,-124.67 602.12,-153.3 616.89,-168.33"/>
<polygon fill="#9a32cd" stroke="#9a32cd" points="404.05,-87.43 393.66,-89.51 403.08,-94.36 404.05,-87.43"/>
<text text-anchor="middle" x="476" y="-136" font-family="Helvetica,sans-Serif" font-size="10.00"> ma</text>
<text text-anchor="middle" x="476" y="-125" font-family="Helvetica,sans-Serif" font-size="10.00">mai</text>
<text text-anchor="middle" x="476" y="-114" font-family="Helvetica,sans-Serif" font-size="10.00">mam</text>
</g>
<!-- Node14&#45;&gt;Node1 -->
<g id="edge24" class="edge">
<title>Node14&#45;&gt;Node1</title>
<path fill="none" stroke="#9a32cd" stroke-dasharray="5,2" d="M707.23,-213.71C844.94,-209.74 1122.87,-201.72 1218.66,-198.96"/>
<polygon fill="#9a32cd" stroke="#9a32cd" points="707.06,-210.22 697.16,-214 707.26,-217.22 707.06,-210.22"/>
<text text-anchor="middle" x="935.5" y="-210" font-family="Helvetica,sans-Serif" font-size="10.00"> colnames</text>
</g>
<!-- Node14&#45;&gt;Node5 -->
<g id="edge18" class="edge">
<title>Node14&#45;&gt;Node5</title>
<path fill="none" stroke="#9a32cd" stroke-dasharray="5,2" d="M679.78,-203.45C685.67,-201.52 691.52,-199.37 697,-197 705.6,-193.27 706.39,-189.72 715,-186 753.13,-169.51 801.08,-158.84 825.9,-154.01"/>
<polygon fill="#9a32cd" stroke="#9a32cd" points="678.41,-200.21 669.88,-206.49 680.47,-206.9 678.41,-200.21"/>
<text text-anchor="middle" x="746" y="-189" font-family="Helvetica,sans-Serif" font-size="10.00"> trait_names</text>
</g>
<!-- Node15&#45;&gt;Node1 -->
<g id="edge21" class="edge">
<title>Node15&#45;&gt;Node1</title>
<path fill="none" stroke="#9a32cd" stroke-dasharray="5,2" d="M1129.93,-177.39C1152.49,-179.4 1177.95,-182.2 1201,-186 1206.83,-186.96 1212.99,-188.21 1218.94,-189.53"/>
<polygon fill="#9a32cd" stroke="#9a32cd" points="1130.05,-173.88 1119.78,-176.52 1129.45,-180.86 1130.05,-173.88"/>
<text text-anchor="middle" x="1184.5" y="-189" font-family="Helvetica,sans-Serif" font-size="10.00"> fishes</text>
</g>
<!-- Node16 -->
<g id="node16" class="node">
<title>Node16</title>
<g id="a_node16"><a xlink:title=" ">
<polygon fill="none" stroke="#bfbfbf" points="1012.5,-0.5 1012.5,-19.5 1116.5,-19.5 1116.5,-0.5 1012.5,-0.5"/>
<text text-anchor="middle" x="1064.5" y="-7.5" font-family="Helvetica,sans-Serif" font-size="10.00">std::vector&lt; int &gt;</text>
</a>
</g>
</g>
<!-- Node16&#45;&gt;Node1 -->
<g id="edge23" class="edge">
<title>Node16&#45;&gt;Node1</title>
<path fill="none" stroke="#9a32cd" stroke-dasharray="5,2" d="M1127.09,-1.69C1152.54,-1.59 1180.76,-6.25 1201,-23 1252.92,-65.98 1253.75,-158.59 1252.56,-188.48"/>
<polygon fill="#9a32cd" stroke="#9a32cd" points="1126.66,1.8 1116.76,-1.98 1126.86,-5.2 1126.66,1.8"/>
<text text-anchor="middle" x="1184.5" y="-26" font-family="Helvetica,sans-Serif" font-size="10.00"> t_env</text>
</g>
</g>
</svg>
