<?xml version="1.0" encoding="UTF-8" standalone="no"?>
<!DOCTYPE svg PUBLIC "-//W3C//DTD SVG 1.1//EN"
 "http://www.w3.org/Graphics/SVG/1.1/DTD/svg11.dtd">
<!-- Generated by graphviz version 2.43.0 (0)
 -->
<!-- Title: Tensor::transform Pages: 1 -->
<svg width="389pt" height="66pt"
 viewBox="0.00 0.00 389.00 66.00" xmlns="http://www.w3.org/2000/svg" xmlns:xlink="http://www.w3.org/1999/xlink">
<g id="graph0" class="graph" transform="scale(1 1) rotate(0) translate(4 62)">
<title>Tensor::transform</title>
<!-- Node1 -->
<g id="node1" class="node">
<title>Node1</title>
<g id="a_node1"><a xlink:title=" ">
<polygon fill="#bfbfbf" stroke="black" points="0,-19.5 0,-38.5 102,-38.5 102,-19.5 0,-19.5"/>
<text text-anchor="middle" x="51" y="-26.5" font-family="Helvetica,sans-Serif" font-size="10.00">Tensor::transform</text>
</a>
</g>
</g>
<!-- Node2 -->
<g id="node2" class="node">
<title>Node2</title>
<g id="a_node2"><a xlink:href="classTensor.html#a862952dc137707abdccd06cf9cd5855b" target="_top" xlink:title=" ">
<polygon fill="none" stroke="black" points="160.5,-38.5 160.5,-57.5 241.5,-57.5 241.5,-38.5 160.5,-38.5"/>
<text text-anchor="middle" x="201" y="-45.5" font-family="Helvetica,sans-Serif" font-size="10.00">Tensor::plane</text>
</a>
</g>
</g>
<!-- Node1&#45;&gt;Node2 -->
<g id="edge1" class="edge">
<title>Node1&#45;&gt;Node2</title>
<path fill="none" stroke="midnightblue" d="M102.11,-35.43C117.65,-37.43 134.78,-39.63 150.3,-41.62"/>
<polygon fill="midnightblue" stroke="midnightblue" points="149.86,-45.09 160.23,-42.89 150.76,-38.15 149.86,-45.09"/>
</g>
<!-- Node4 -->
<g id="node4" class="node">
<title>Node4</title>
<g id="a_node4"><a xlink:href="classTensor.html#a1a9aea97717d687b7d501842efb546d4" target="_top" xlink:title=" ">
<polygon fill="none" stroke="black" points="138,-0.5 138,-19.5 264,-19.5 264,-0.5 138,-0.5"/>
<text text-anchor="middle" x="201" y="-7.5" font-family="Helvetica,sans-Serif" font-size="10.00">Tensor::transform_dim</text>
</a>
</g>
</g>
<!-- Node1&#45;&gt;Node4 -->
<g id="edge3" class="edge">
<title>Node1&#45;&gt;Node4</title>
<path fill="none" stroke="midnightblue" d="M102.11,-22.57C110.36,-21.51 119.07,-20.39 127.74,-19.28"/>
<polygon fill="midnightblue" stroke="midnightblue" points="128.4,-22.72 137.87,-17.98 127.51,-15.78 128.4,-22.72"/>
</g>
<!-- Node3 -->
<g id="node3" class="node">
<title>Node3</title>
<g id="a_node3"><a xlink:href="classTensor.html#a90a6b28226bcd1be7090fd2f8782d0b1" target="_top" xlink:title=" ">
<polygon fill="none" stroke="black" points="300,-38.5 300,-57.5 381,-57.5 381,-38.5 300,-38.5"/>
<text text-anchor="middle" x="340.5" y="-45.5" font-family="Helvetica,sans-Serif" font-size="10.00">Tensor::index</text>
</a>
</g>
</g>
<!-- Node2&#45;&gt;Node3 -->
<g id="edge2" class="edge">
<title>Node2&#45;&gt;Node3</title>
<path fill="none" stroke="midnightblue" d="M241.77,-48C256.74,-48 273.94,-48 289.71,-48"/>
<polygon fill="midnightblue" stroke="midnightblue" points="289.82,-51.5 299.82,-48 289.82,-44.5 289.82,-51.5"/>
</g>
</g>
</svg>
