<?xml version="1.0" encoding="UTF-8" standalone="no"?>
<!DOCTYPE svg PUBLIC "-//W3C//DTD SVG 1.1//EN"
 "http://www.w3.org/Graphics/SVG/1.1/DTD/svg11.dtd">
<!-- Generated by graphviz version 2.43.0 (0)
 -->
<!-- Title: io::Initializer::get_value Pages: 1 -->
<svg width="539pt" height="78pt"
 viewBox="0.00 0.00 539.00 77.50" xmlns="http://www.w3.org/2000/svg" xmlns:xlink="http://www.w3.org/1999/xlink">
<g id="graph0" class="graph" transform="scale(1 1) rotate(0) translate(4 73.5)">
<title>io::Initializer::get_value</title>
<!-- Node1 -->
<g id="node1" class="node">
<title>Node1</title>
<g id="a_node1"><a xlink:title=" ">
<polygon fill="#bfbfbf" stroke="black" points="432,-22.5 432,-52.5 531,-52.5 531,-22.5 432,-22.5"/>
<text text-anchor="start" x="440" y="-40.5" font-family="Helvetica,sans-Serif" font-size="10.00">io::Initializer::get</text>
<text text-anchor="middle" x="481.5" y="-29.5" font-family="Helvetica,sans-Serif" font-size="10.00">_value</text>
</a>
</g>
</g>
<!-- Node2 -->
<g id="node2" class="node">
<title>Node2</title>
<g id="a_node2"><a xlink:href="classio_1_1Initializer.html#a098a8511a950a4449925c8315af36bdb" target="_top" xlink:title=" ">
<polygon fill="none" stroke="black" points="297,-50 297,-69 396,-69 396,-50 297,-50"/>
<text text-anchor="middle" x="346.5" y="-57" font-family="Helvetica,sans-Serif" font-size="10.00">io::Initializer::get</text>
</a>
</g>
</g>
<!-- Node1&#45;&gt;Node2 -->
<g id="edge1" class="edge">
<title>Node1&#45;&gt;Node2</title>
<path fill="none" stroke="midnightblue" d="M421.82,-47.21C413.29,-48.62 404.58,-50.06 396.26,-51.43"/>
<polygon fill="midnightblue" stroke="midnightblue" points="422.44,-50.65 431.73,-45.57 421.29,-43.75 422.44,-50.65"/>
</g>
<!-- Node5 -->
<g id="node5" class="node">
<title>Node5</title>
<g id="a_node5"><a xlink:href="classio_1_1Initializer.html#a92f49c1ad4e16a85f3f0f12201cb9707" target="_top" xlink:title=" ">
<polygon fill="none" stroke="black" points="297,-0.5 297,-30.5 396,-30.5 396,-0.5 297,-0.5"/>
<text text-anchor="start" x="305" y="-18.5" font-family="Helvetica,sans-Serif" font-size="10.00">io::Initializer::get</text>
<text text-anchor="middle" x="346.5" y="-7.5" font-family="Helvetica,sans-Serif" font-size="10.00">_vector</text>
</a>
</g>
</g>
<!-- Node1&#45;&gt;Node5 -->
<g id="edge4" class="edge">
<title>Node1&#45;&gt;Node5</title>
<path fill="none" stroke="midnightblue" d="M421.82,-27.79C413.29,-26.38 404.58,-24.94 396.26,-23.57"/>
<polygon fill="midnightblue" stroke="midnightblue" points="421.29,-31.25 431.73,-29.43 422.44,-24.35 421.29,-31.25"/>
</g>
<!-- Node3 -->
<g id="node3" class="node">
<title>Node3</title>
<g id="a_node3"><a xlink:href="classFishParams.html#a6a7122ea93777817165dfb09c1d840ac" target="_top" xlink:title=" ">
<polygon fill="none" stroke="black" points="126,-50 126,-69 261,-69 261,-50 126,-50"/>
<text text-anchor="middle" x="193.5" y="-57" font-family="Helvetica,sans-Serif" font-size="10.00">FishParams::initFromFile</text>
</a>
</g>
</g>
<!-- Node2&#45;&gt;Node3 -->
<g id="edge2" class="edge">
<title>Node2&#45;&gt;Node3</title>
<path fill="none" stroke="midnightblue" d="M286.82,-59.5C278.41,-59.5 269.72,-59.5 261.18,-59.5"/>
<polygon fill="midnightblue" stroke="midnightblue" points="286.89,-63 296.89,-59.5 286.89,-56 286.89,-63"/>
</g>
<!-- Node4 -->
<g id="node4" class="node">
<title>Node4</title>
<g id="a_node4"><a xlink:href="fish__glue_8cpp.html#a7b6a9b6d94c71377c935b2cfbffdfabc" target="_top" xlink:title=" ">
<polygon fill="none" stroke="black" points="0,-50 0,-69 90,-69 90,-50 0,-50"/>
<text text-anchor="middle" x="45" y="-57" font-family="Helvetica,sans-Serif" font-size="10.00">RCPP_MODULE</text>
</a>
</g>
</g>
<!-- Node3&#45;&gt;Node4 -->
<g id="edge3" class="edge">
<title>Node3&#45;&gt;Node4</title>
<path fill="none" stroke="midnightblue" d="M115.47,-59.5C106.77,-59.5 98.14,-59.5 90.08,-59.5"/>
<polygon fill="midnightblue" stroke="midnightblue" points="115.68,-63 125.68,-59.5 115.68,-56 115.68,-63"/>
</g>
</g>
</svg>
