<?xml version="1.0" encoding="UTF-8" standalone="no"?>
<!DOCTYPE svg PUBLIC "-//W3C//DTD SVG 1.1//EN"
 "http://www.w3.org/Graphics/SVG/1.1/DTD/svg11.dtd">
<!-- Generated by graphviz version 2.43.0 (0)
 -->
<!-- Title: Population::calcTSB Pages: 1 -->
<svg width="841pt" height="214pt"
 viewBox="0.00 0.00 841.00 214.00" xmlns="http://www.w3.org/2000/svg" xmlns:xlink="http://www.w3.org/1999/xlink">
<g id="graph0" class="graph" transform="scale(1 1) rotate(0) translate(4 210)">
<title>Population::calcTSB</title>
<!-- Node1 -->
<g id="node1" class="node">
<title>Node1</title>
<g id="a_node1"><a xlink:title=" ">
<polygon fill="#bfbfbf" stroke="black" points="720,-134.5 720,-153.5 833,-153.5 833,-134.5 720,-134.5"/>
<text text-anchor="middle" x="776.5" y="-141.5" font-family="Helvetica,sans-Serif" font-size="10.00">Population::calcTSB</text>
</a>
</g>
</g>
<!-- Node2 -->
<g id="node2" class="node">
<title>Node2</title>
<g id="a_node2"><a xlink:href="classPopulation.html#a345497aa32fe22f73153a59f469c6a19" target="_top" xlink:title=" ">
<polygon fill="none" stroke="black" points="535,-183.5 535,-202.5 684,-202.5 684,-183.5 535,-183.5"/>
<text text-anchor="middle" x="609.5" y="-190.5" font-family="Helvetica,sans-Serif" font-size="10.00">Population::print_summary</text>
</a>
</g>
</g>
<!-- Node1&#45;&gt;Node2 -->
<g id="edge1" class="edge">
<title>Node1&#45;&gt;Node2</title>
<path fill="none" stroke="midnightblue" d="M733.68,-156.42C705.4,-164.82 668.61,-175.74 642.62,-183.46"/>
<polygon fill="midnightblue" stroke="midnightblue" points="734.7,-159.77 743.29,-153.56 732.71,-153.06 734.7,-159.77"/>
</g>
<!-- Node4 -->
<g id="node4" class="node">
<title>Node4</title>
<g id="a_node4"><a xlink:href="classPopulation.html#a81c19d1c80cfb1d54d3872ecdefd0872" target="_top" xlink:title=" ">
<polygon fill="none" stroke="black" points="555.5,-115.5 555.5,-134.5 663.5,-134.5 663.5,-115.5 555.5,-115.5"/>
<text text-anchor="middle" x="609.5" y="-122.5" font-family="Helvetica,sans-Serif" font-size="10.00">Population::update</text>
</a>
</g>
</g>
<!-- Node1&#45;&gt;Node4 -->
<g id="edge3" class="edge">
<title>Node1&#45;&gt;Node4</title>
<path fill="none" stroke="midnightblue" d="M709.7,-136.42C694.36,-134.66 678.22,-132.8 663.52,-131.1"/>
<polygon fill="midnightblue" stroke="midnightblue" points="709.3,-139.9 719.64,-137.57 710.1,-132.95 709.3,-139.9"/>
</g>
<!-- Node3 -->
<g id="node3" class="node">
<title>Node3</title>
<g id="a_node3"><a xlink:href="fish__glue_8cpp.html#ab96ae82277aa9004dc603b77512c7265" target="_top" xlink:title=" ">
<polygon fill="none" stroke="black" points="161.5,-186.5 161.5,-205.5 251.5,-205.5 251.5,-186.5 161.5,-186.5"/>
<text text-anchor="middle" x="206.5" y="-193.5" font-family="Helvetica,sans-Serif" font-size="10.00">RCPP_MODULE</text>
</a>
</g>
</g>
<!-- Node2&#45;&gt;Node3 -->
<g id="edge2" class="edge">
<title>Node2&#45;&gt;Node3</title>
<path fill="none" stroke="midnightblue" d="M524.73,-198.06C516.04,-198.45 507.34,-198.77 499,-199 411.48,-201.4 309.12,-199.18 251.96,-197.5"/>
<polygon fill="midnightblue" stroke="midnightblue" points="525.07,-201.55 534.9,-197.59 524.74,-194.56 525.07,-201.55"/>
</g>
<!-- Node4&#45;&gt;Node3 -->
<g id="edge8" class="edge">
<title>Node4&#45;&gt;Node3</title>
<path fill="none" stroke="midnightblue" d="M578.29,-138.7C556.66,-147.92 526.59,-159.53 499,-166 412.82,-186.22 309.12,-192.81 251.54,-194.96"/>
<polygon fill="midnightblue" stroke="midnightblue" points="579.82,-141.86 587.6,-134.66 577.03,-135.43 579.82,-141.86"/>
</g>
<!-- Node5 -->
<g id="node5" class="node">
<title>Node5</title>
<g id="a_node5"><a xlink:href="classPopulation.html#aa7eba257f23cbc12aa3673ce012fb2cb" target="_top" xlink:title=" ">
<polygon fill="none" stroke="black" points="323,-137.5 323,-156.5 499,-156.5 499,-137.5 323,-137.5"/>
<text text-anchor="middle" x="411" y="-144.5" font-family="Helvetica,sans-Serif" font-size="10.00">Population::noFishingEquilibriate</text>
</a>
</g>
</g>
<!-- Node4&#45;&gt;Node5 -->
<g id="edge4" class="edge">
<title>Node4&#45;&gt;Node5</title>
<path fill="none" stroke="midnightblue" d="M544.97,-132.11C529.7,-133.82 513.13,-135.68 497.05,-137.48"/>
<polygon fill="midnightblue" stroke="midnightblue" points="545.78,-135.54 555.32,-130.95 545,-128.59 545.78,-135.54"/>
</g>
<!-- Node8 -->
<g id="node8" class="node">
<title>Node8</title>
<g id="a_node8"><a xlink:href="classSimulator.html#a7540919b97662be7deacba9194c0ed60" target="_top" xlink:title=" ">
<polygon fill="none" stroke="black" points="354.5,-88 354.5,-118 467.5,-118 467.5,-88 354.5,-88"/>
<text text-anchor="start" x="362.5" y="-106" font-family="Helvetica,sans-Serif" font-size="10.00">Simulator::simulate</text>
<text text-anchor="middle" x="411" y="-95" font-family="Helvetica,sans-Serif" font-size="10.00">_multi</text>
</a>
</g>
</g>
<!-- Node4&#45;&gt;Node8 -->
<g id="edge9" class="edge">
<title>Node4&#45;&gt;Node8</title>
<path fill="none" stroke="midnightblue" d="M545.22,-117.91C520.24,-115.12 491.79,-111.93 467.62,-109.23"/>
<polygon fill="midnightblue" stroke="midnightblue" points="545,-121.41 555.32,-119.05 545.78,-114.46 545,-121.41"/>
</g>
<!-- Node10 -->
<g id="node10" class="node">
<title>Node10</title>
<g id="a_node10"><a xlink:href="classSimulator.html#ab21d1c6b0af00931f9a8fa5e0b6d417f" target="_top" xlink:title=" ">
<polygon fill="none" stroke="black" points="354.5,-39 354.5,-69 467.5,-69 467.5,-39 354.5,-39"/>
<text text-anchor="start" x="362.5" y="-57" font-family="Helvetica,sans-Serif" font-size="10.00">Simulator::simulate</text>
<text text-anchor="middle" x="411" y="-46" font-family="Helvetica,sans-Serif" font-size="10.00">_multi_2d</text>
</a>
</g>
</g>
<!-- Node4&#45;&gt;Node10 -->
<g id="edge12" class="edge">
<title>Node4&#45;&gt;Node10</title>
<path fill="none" stroke="midnightblue" d="M578.42,-111.23C556.63,-101.54 526.32,-88.63 499,-79 488.92,-75.45 478.06,-72.02 467.54,-68.9"/>
<polygon fill="midnightblue" stroke="midnightblue" points="577.24,-114.54 587.79,-115.44 580.1,-108.15 577.24,-114.54"/>
</g>
<!-- Node12 -->
<g id="node12" class="node">
<title>Node12</title>
<g id="a_node12"><a xlink:href="classSimulator.html#aa6e6cfd73fd8d3200e7f515b473e88f2" target="_top" xlink:title=" ">
<polygon fill="none" stroke="black" points="350,-0.5 350,-19.5 472,-19.5 472,-0.5 350,-0.5"/>
<text text-anchor="middle" x="411" y="-7.5" font-family="Helvetica,sans-Serif" font-size="10.00">Simulator::simulate_r</text>
</a>
</g>
</g>
<!-- Node4&#45;&gt;Node12 -->
<g id="edge15" class="edge">
<title>Node4&#45;&gt;Node12</title>
<path fill="none" stroke="midnightblue" d="M593.76,-107.5C574.34,-85.63 538.05,-48.71 499,-29 490.72,-24.82 481.54,-21.56 472.34,-19.01"/>
<polygon fill="midnightblue" stroke="midnightblue" points="591.36,-110.08 600.56,-115.33 596.65,-105.49 591.36,-110.08"/>
</g>
<!-- Node5&#45;&gt;Node3 -->
<g id="edge7" class="edge">
<title>Node5&#45;&gt;Node3</title>
<path fill="none" stroke="midnightblue" d="M361.52,-158.88C338.88,-164.41 311.57,-171.07 287,-177 274.17,-180.1 260.17,-183.45 247.54,-186.47"/>
<polygon fill="midnightblue" stroke="midnightblue" points="362.35,-162.28 371.23,-156.5 360.69,-155.48 362.35,-162.28"/>
</g>
<!-- Node6 -->
<g id="node6" class="node">
<title>Node6</title>
<g id="a_node6"><a xlink:href="classSimulator.html#ad02f472064f23f03ae474cb4904d2c56" target="_top" xlink:title=" ">
<polygon fill="none" stroke="black" points="126,-137 126,-167 287,-167 287,-137 126,-137"/>
<text text-anchor="start" x="134" y="-155" font-family="Helvetica,sans-Serif" font-size="10.00">Simulator::equilibriateNatural</text>
<text text-anchor="middle" x="206.5" y="-144" font-family="Helvetica,sans-Serif" font-size="10.00">Population</text>
</a>
</g>
</g>
<!-- Node5&#45;&gt;Node6 -->
<g id="edge5" class="edge">
<title>Node5&#45;&gt;Node6</title>
<path fill="none" stroke="midnightblue" d="M312.86,-149.4C304.24,-149.61 295.58,-149.83 287.12,-150.03"/>
<polygon fill="midnightblue" stroke="midnightblue" points="313.04,-152.9 322.95,-149.15 312.86,-145.9 313.04,-152.9"/>
</g>
<!-- Node7 -->
<g id="node7" class="node">
<title>Node7</title>
<g id="a_node7"><a xlink:href="fish__glue_8cpp.html#addebb0997b0e49067d8784c9954b7b96" target="_top" xlink:title=" ">
<polygon fill="none" stroke="black" points="0,-68.5 0,-87.5 90,-87.5 90,-68.5 0,-68.5"/>
<text text-anchor="middle" x="45" y="-75.5" font-family="Helvetica,sans-Serif" font-size="10.00">RCPP_MODULE</text>
</a>
</g>
</g>
<!-- Node6&#45;&gt;Node7 -->
<g id="edge6" class="edge">
<title>Node6&#45;&gt;Node7</title>
<path fill="none" stroke="midnightblue" d="M139.34,-133.51C134.77,-131.78 130.29,-129.95 126,-128 100.94,-116.63 74.32,-98.65 58.98,-87.63"/>
<polygon fill="midnightblue" stroke="midnightblue" points="138.19,-136.82 148.79,-136.91 140.56,-130.23 138.19,-136.82"/>
</g>
<!-- Node9 -->
<g id="node9" class="node">
<title>Node9</title>
<g id="a_node9"><a xlink:href="classSimulator.html#a1a5454ee4736819d709398b225d7876d" target="_top" xlink:title=" ">
<polygon fill="none" stroke="black" points="150,-88 150,-118 263,-118 263,-88 150,-88"/>
<text text-anchor="start" x="158" y="-106" font-family="Helvetica,sans-Serif" font-size="10.00">Simulator::simulate</text>
<text text-anchor="middle" x="206.5" y="-95" font-family="Helvetica,sans-Serif" font-size="10.00">_multi_r</text>
</a>
</g>
</g>
<!-- Node8&#45;&gt;Node9 -->
<g id="edge10" class="edge">
<title>Node8&#45;&gt;Node9</title>
<path fill="none" stroke="midnightblue" d="M344.21,-103C318.09,-103 288.37,-103 263.33,-103"/>
<polygon fill="midnightblue" stroke="midnightblue" points="344.4,-106.5 354.4,-103 344.4,-99.5 344.4,-106.5"/>
</g>
<!-- Node9&#45;&gt;Node7 -->
<g id="edge11" class="edge">
<title>Node9&#45;&gt;Node7</title>
<path fill="none" stroke="midnightblue" d="M139.5,-92.66C122.89,-90.05 105.45,-87.32 90.2,-84.93"/>
<polygon fill="midnightblue" stroke="midnightblue" points="139.29,-96.17 149.71,-94.26 140.38,-89.25 139.29,-96.17"/>
</g>
<!-- Node11 -->
<g id="node11" class="node">
<title>Node11</title>
<g id="a_node11"><a xlink:href="classSimulator.html#af1b0a9562ecf0ad8f98d61576efba28b" target="_top" xlink:title=" ">
<polygon fill="none" stroke="black" points="150,-39 150,-69 263,-69 263,-39 150,-39"/>
<text text-anchor="start" x="158" y="-57" font-family="Helvetica,sans-Serif" font-size="10.00">Simulator::simulate</text>
<text text-anchor="middle" x="206.5" y="-46" font-family="Helvetica,sans-Serif" font-size="10.00">_multi_2d_r</text>
</a>
</g>
</g>
<!-- Node10&#45;&gt;Node11 -->
<g id="edge13" class="edge">
<title>Node10&#45;&gt;Node11</title>
<path fill="none" stroke="midnightblue" d="M344.21,-54C318.09,-54 288.37,-54 263.33,-54"/>
<polygon fill="midnightblue" stroke="midnightblue" points="344.4,-57.5 354.4,-54 344.4,-50.5 344.4,-57.5"/>
</g>
<!-- Node11&#45;&gt;Node7 -->
<g id="edge14" class="edge">
<title>Node11&#45;&gt;Node7</title>
<path fill="none" stroke="midnightblue" d="M139.5,-63.93C122.89,-66.43 105.45,-69.05 90.2,-71.35"/>
<polygon fill="midnightblue" stroke="midnightblue" points="140.35,-67.34 149.71,-62.39 139.31,-60.42 140.35,-67.34"/>
</g>
<!-- Node12&#45;&gt;Node7 -->
<g id="edge16" class="edge">
<title>Node12&#45;&gt;Node7</title>
<path fill="none" stroke="midnightblue" d="M339.74,-5.49C281.18,-3.88 196.3,-6.62 126,-29 99.31,-37.5 72.37,-56.7 57.57,-68.38"/>
<polygon fill="midnightblue" stroke="midnightblue" points="339.89,-8.99 349.99,-5.82 340.11,-2 339.89,-8.99"/>
</g>
</g>
</svg>
