<?xml version="1.0" encoding="UTF-8" standalone="no"?>
<!DOCTYPE svg PUBLIC "-//W3C//DTD SVG 1.1//EN"
 "http://www.w3.org/Graphics/SVG/1.1/DTD/svg11.dtd">
<!-- Generated by graphviz version 2.43.0 (0)
 -->
<!-- Title: Simulator::simulate_multi Pages: 1 -->
<svg width="676pt" height="363pt"
 viewBox="0.00 0.00 676.00 363.00" xmlns="http://www.w3.org/2000/svg" xmlns:xlink="http://www.w3.org/1999/xlink">
<g id="graph0" class="graph" transform="scale(1 1) rotate(0) translate(4 359)">
<title>Simulator::simulate_multi</title>
<!-- Node1 -->
<g id="node1" class="node">
<title>Node1</title>
<g id="a_node1"><a xlink:title=" ">
<polygon fill="#bfbfbf" stroke="black" points="0,-168 0,-198 113,-198 113,-168 0,-168"/>
<text text-anchor="start" x="8" y="-186" font-family="Helvetica,sans-Serif" font-size="10.00">Simulator::simulate</text>
<text text-anchor="middle" x="56.5" y="-175" font-family="Helvetica,sans-Serif" font-size="10.00">_multi</text>
</a>
</g>
</g>
<!-- Node2 -->
<g id="node2" class="node">
<title>Node2</title>
<g id="a_node2"><a xlink:href="classPopulation.html#af15e7ba23b161c710d4013204b542cb6" target="_top" xlink:title=" ">
<polygon fill="none" stroke="black" points="370,-335.5 370,-354.5 483,-354.5 483,-335.5 370,-335.5"/>
<text text-anchor="middle" x="426.5" y="-342.5" font-family="Helvetica,sans-Serif" font-size="10.00">Population::calcSSB</text>
</a>
</g>
</g>
<!-- Node1&#45;&gt;Node2 -->
<g id="edge1" class="edge">
<title>Node1&#45;&gt;Node2</title>
<path fill="none" stroke="midnightblue" d="M71.31,-198.14C88.12,-215.74 118.1,-244.59 149,-262 215.83,-299.66 301.59,-321.96 359.75,-333.8"/>
<polygon fill="midnightblue" stroke="midnightblue" points="359.43,-337.3 369.92,-335.82 360.79,-330.44 359.43,-337.3"/>
</g>
<!-- Node3 -->
<g id="node3" class="node">
<title>Node3</title>
<g id="a_node3"><a xlink:href="classPopulation.html#a42c4b04852bdda937e50f82952106af1" target="_top" xlink:title=" ">
<polygon fill="none" stroke="black" points="349,-297.5 349,-316.5 504,-316.5 504,-297.5 349,-297.5"/>
<text text-anchor="middle" x="426.5" y="-304.5" font-family="Helvetica,sans-Serif" font-size="10.00">Population::fishableBiomass</text>
</a>
</g>
</g>
<!-- Node1&#45;&gt;Node3 -->
<g id="edge2" class="edge">
<title>Node1&#45;&gt;Node3</title>
<path fill="none" stroke="midnightblue" d="M92.48,-198.16C109.44,-205.35 130.17,-213.9 149,-221 235.53,-253.64 257.15,-262.33 346,-288 354.52,-290.46 363.62,-292.85 372.5,-295.06"/>
<polygon fill="midnightblue" stroke="midnightblue" points="371.85,-298.51 382.4,-297.47 373.51,-291.71 371.85,-298.51"/>
</g>
<!-- Node5 -->
<g id="node5" class="node">
<title>Node5</title>
<g id="a_node5"><a xlink:href="classPopulation.html#a012ef586a78b4e7c2082634b316072d0" target="_top" xlink:title=" ">
<polygon fill="none" stroke="black" points="184.5,-154.5 184.5,-173.5 274.5,-173.5 274.5,-154.5 184.5,-154.5"/>
<text text-anchor="middle" x="229.5" y="-161.5" font-family="Helvetica,sans-Serif" font-size="10.00">Population::init</text>
</a>
</g>
</g>
<!-- Node1&#45;&gt;Node5 -->
<g id="edge4" class="edge">
<title>Node1&#45;&gt;Node5</title>
<path fill="none" stroke="midnightblue" d="M113.02,-176.83C132.7,-174.64 154.81,-172.19 174.37,-170.01"/>
<polygon fill="midnightblue" stroke="midnightblue" points="174.79,-173.49 184.35,-168.91 174.02,-166.53 174.79,-173.49"/>
</g>
<!-- Node9 -->
<g id="node9" class="node">
<title>Node9</title>
<g id="a_node9"><a xlink:href="classPopulation.html#a20696fa511c914e7c8837acb2a254b33" target="_top" xlink:title=" ">
<polygon fill="none" stroke="black" points="153,-116.5 153,-135.5 306,-135.5 306,-116.5 153,-116.5"/>
<text text-anchor="middle" x="229.5" y="-123.5" font-family="Helvetica,sans-Serif" font-size="10.00">Population::set_harvestProp</text>
</a>
</g>
</g>
<!-- Node1&#45;&gt;Node9 -->
<g id="edge8" class="edge">
<title>Node1&#45;&gt;Node9</title>
<path fill="none" stroke="midnightblue" d="M90.06,-167.99C107.33,-160.42 129.04,-151.48 149,-145 156.77,-142.48 165.07,-140.12 173.26,-138"/>
<polygon fill="midnightblue" stroke="midnightblue" points="174.32,-141.34 183.17,-135.52 172.62,-134.55 174.32,-141.34"/>
</g>
<!-- Node10 -->
<g id="node10" class="node">
<title>Node10</title>
<g id="a_node10"><a xlink:href="classPopulation.html#ae8a6455aa45e65bf8bd41312f9caa328" target="_top" xlink:title=" ">
<polygon fill="none" stroke="black" points="149,-78.5 149,-97.5 310,-97.5 310,-78.5 149,-78.5"/>
<text text-anchor="middle" x="229.5" y="-85.5" font-family="Helvetica,sans-Serif" font-size="10.00">Population::set_superFishSize</text>
</a>
</g>
</g>
<!-- Node1&#45;&gt;Node10 -->
<g id="edge9" class="edge">
<title>Node1&#45;&gt;Node10</title>
<path fill="none" stroke="midnightblue" d="M71.5,-167.73C88.26,-150.4 117.97,-122.52 149,-107 153.84,-104.58 159,-102.46 164.28,-100.6"/>
<polygon fill="midnightblue" stroke="midnightblue" points="165.41,-103.92 173.87,-97.54 163.28,-97.25 165.41,-103.92"/>
</g>
<!-- Node11 -->
<g id="node11" class="node">
<title>Node11</title>
<g id="a_node11"><a xlink:href="classPopulation.html#a81c19d1c80cfb1d54d3872ecdefd0872" target="_top" xlink:title=" ">
<polygon fill="none" stroke="black" points="175.5,-192.5 175.5,-211.5 283.5,-211.5 283.5,-192.5 175.5,-192.5"/>
<text text-anchor="middle" x="229.5" y="-199.5" font-family="Helvetica,sans-Serif" font-size="10.00">Population::update</text>
</a>
</g>
</g>
<!-- Node1&#45;&gt;Node11 -->
<g id="edge10" class="edge">
<title>Node1&#45;&gt;Node11</title>
<path fill="none" stroke="midnightblue" d="M113.02,-189.17C129.57,-191.01 147.85,-193.04 164.88,-194.93"/>
<polygon fill="midnightblue" stroke="midnightblue" points="164.97,-198.46 175.3,-196.09 165.74,-191.51 164.97,-198.46"/>
</g>
<!-- Node4 -->
<g id="node4" class="node">
<title>Node4</title>
<g id="a_node4"><a xlink:href="classPopulation.html#ac8ed845bbda25c937a2fd76b3788e987" target="_top" xlink:title=" ">
<polygon fill="none" stroke="black" points="543,-180.5 543,-199.5 668,-199.5 668,-180.5 543,-180.5"/>
<text text-anchor="middle" x="605.5" y="-187.5" font-family="Helvetica,sans-Serif" font-size="10.00">Population::selectivity</text>
</a>
</g>
</g>
<!-- Node3&#45;&gt;Node4 -->
<g id="edge3" class="edge">
<title>Node3&#45;&gt;Node4</title>
<path fill="none" stroke="midnightblue" d="M484.56,-297.45C492.37,-294.98 500.07,-291.89 507,-288 543.24,-267.67 575.06,-230.01 591.86,-207.76"/>
<polygon fill="midnightblue" stroke="midnightblue" points="594.81,-209.66 597.92,-199.53 589.17,-205.51 594.81,-209.66"/>
</g>
<!-- Node6 -->
<g id="node6" class="node">
<title>Node6</title>
<g id="a_node6"><a xlink:href="classFish.html#adf85bf269f1651352506e371ffd2cecc" target="_top" xlink:title="Initializes the fish, i.e., initializes parameters and sets the initial state (age = 1,...">
<polygon fill="none" stroke="black" points="398,-19.5 398,-38.5 455,-38.5 455,-19.5 398,-19.5"/>
<text text-anchor="middle" x="426.5" y="-26.5" font-family="Helvetica,sans-Serif" font-size="10.00">Fish::init</text>
</a>
</g>
</g>
<!-- Node5&#45;&gt;Node6 -->
<g id="edge5" class="edge">
<title>Node5&#45;&gt;Node6</title>
<path fill="none" stroke="midnightblue" d="M274.87,-161.06C287.4,-158.33 300.26,-153.48 310,-145 343.12,-116.17 313.74,-82.78 346,-53 357.45,-42.43 373.4,-36.51 388.01,-33.19"/>
<polygon fill="midnightblue" stroke="midnightblue" points="388.68,-36.63 397.84,-31.29 387.35,-29.76 388.68,-36.63"/>
</g>
<!-- Node7 -->
<g id="node7" class="node">
<title>Node7</title>
<g id="a_node7"><a xlink:href="namespacefish.html#a0ab1c4842d702a0a40bd04f26793ce12" target="_top" xlink:title="Compute the nonlinear growth increment , as follows.">
<polygon fill="none" stroke="black" points="563,-0.5 563,-19.5 648,-19.5 648,-0.5 563,-0.5"/>
<text text-anchor="middle" x="605.5" y="-7.5" font-family="Helvetica,sans-Serif" font-size="10.00">fish::dl_power</text>
</a>
</g>
</g>
<!-- Node6&#45;&gt;Node7 -->
<g id="edge6" class="edge">
<title>Node6&#45;&gt;Node7</title>
<path fill="none" stroke="midnightblue" d="M455.16,-26.03C481.21,-23.23 520.91,-18.97 552.83,-15.55"/>
<polygon fill="midnightblue" stroke="midnightblue" points="553.32,-19.01 562.89,-14.47 552.57,-12.05 553.32,-19.01"/>
</g>
<!-- Node8 -->
<g id="node8" class="node">
<title>Node8</title>
<g id="a_node8"><a xlink:href="namespacefish.html#a1d06e0358aca1be4446ed148b7ce3d84" target="_top" xlink:title="Compute the new length after growth assuming no allocation to reproduction.">
<polygon fill="none" stroke="black" points="547.5,-38.5 547.5,-57.5 663.5,-57.5 663.5,-38.5 547.5,-38.5"/>
<text text-anchor="middle" x="605.5" y="-45.5" font-family="Helvetica,sans-Serif" font-size="10.00">fish::length_juvenile</text>
</a>
</g>
</g>
<!-- Node6&#45;&gt;Node8 -->
<g id="edge7" class="edge">
<title>Node6&#45;&gt;Node8</title>
<path fill="none" stroke="midnightblue" d="M455.16,-31.97C477.16,-34.33 508.89,-37.74 537.45,-40.8"/>
<polygon fill="midnightblue" stroke="midnightblue" points="537.08,-44.28 547.4,-41.87 537.83,-37.32 537.08,-44.28"/>
</g>
<!-- Node11&#45;&gt;Node2 -->
<g id="edge11" class="edge">
<title>Node11&#45;&gt;Node2</title>
<path fill="none" stroke="midnightblue" d="M236.44,-211.53C251.59,-234.98 294.15,-295.78 346,-326 350.48,-328.61 355.31,-330.87 360.28,-332.81"/>
<polygon fill="midnightblue" stroke="midnightblue" points="359.4,-336.21 369.99,-336.18 361.69,-329.6 359.4,-336.21"/>
</g>
<!-- Node11&#45;&gt;Node3 -->
<g id="edge15" class="edge">
<title>Node11&#45;&gt;Node3</title>
<path fill="none" stroke="midnightblue" d="M243.04,-211.79C270.55,-233.19 334.68,-282.71 346,-288 351.27,-290.46 356.89,-292.63 362.62,-294.52"/>
<polygon fill="midnightblue" stroke="midnightblue" points="361.72,-297.91 372.31,-297.46 363.75,-291.21 361.72,-297.91"/>
</g>
<!-- Node11&#45;&gt;Node4 -->
<g id="edge20" class="edge">
<title>Node11&#45;&gt;Node4</title>
<path fill="none" stroke="midnightblue" d="M283.64,-196.92C293.25,-193.99 302.56,-189.59 310,-183 344.42,-152.51 308.25,-112.26 346,-86 404.74,-45.14 441.34,-57.55 507,-86 547.3,-103.46 578.57,-146.68 593.98,-171.56"/>
<polygon fill="midnightblue" stroke="midnightblue" points="591.12,-173.61 599.25,-180.4 597.13,-170.02 591.12,-173.61"/>
</g>
<!-- Node11&#45;&gt;Node6 -->
<g id="edge18" class="edge">
<title>Node11&#45;&gt;Node6</title>
<path fill="none" stroke="midnightblue" d="M283.69,-197.54C293.41,-194.57 302.75,-190 310,-183 353.14,-141.37 304.1,-95.88 346,-53 356.97,-41.77 372.99,-35.76 387.78,-32.55"/>
<polygon fill="midnightblue" stroke="midnightblue" points="388.53,-35.97 397.74,-30.74 387.28,-29.08 388.53,-35.97"/>
</g>
<!-- Node12 -->
<g id="node12" class="node">
<title>Node12</title>
<g id="a_node12"><a xlink:href="classPopulation.html#ae942ef70cc9f4dfc40b5d843baf40b1e" target="_top" xlink:title=" ">
<polygon fill="none" stroke="black" points="370,-221.5 370,-240.5 483,-240.5 483,-221.5 370,-221.5"/>
<text text-anchor="middle" x="426.5" y="-228.5" font-family="Helvetica,sans-Serif" font-size="10.00">Population::calcTSB</text>
</a>
</g>
</g>
<!-- Node11&#45;&gt;Node12 -->
<g id="edge12" class="edge">
<title>Node11&#45;&gt;Node12</title>
<path fill="none" stroke="midnightblue" d="M283.53,-209.89C307.02,-213.38 334.9,-217.53 359.7,-221.21"/>
<polygon fill="midnightblue" stroke="midnightblue" points="359.35,-224.7 369.76,-222.71 360.38,-217.78 359.35,-224.7"/>
</g>
<!-- Node13 -->
<g id="node13" class="node">
<title>Node13</title>
<g id="a_node13"><a xlink:href="classPopulation.html#ad1840de2f00982c35d48b91a1d27ae13" target="_top" xlink:title=" ">
<polygon fill="none" stroke="black" points="376,-259.5 376,-278.5 477,-278.5 477,-259.5 376,-259.5"/>
<text text-anchor="middle" x="426.5" y="-266.5" font-family="Helvetica,sans-Serif" font-size="10.00">Population::effort</text>
</a>
</g>
</g>
<!-- Node11&#45;&gt;Node13 -->
<g id="edge13" class="edge">
<title>Node11&#45;&gt;Node13</title>
<path fill="none" stroke="midnightblue" d="M250.99,-211.69C273.79,-222.19 311.93,-238.93 346,-250 353.77,-252.53 362.07,-254.88 370.26,-257"/>
<polygon fill="midnightblue" stroke="midnightblue" points="369.61,-260.45 380.17,-259.48 371.32,-253.66 369.61,-260.45"/>
</g>
<!-- Node14 -->
<g id="node14" class="node">
<title>Node14</title>
<g id="a_node14"><a xlink:href="classPopulation.html#a1118025c1079ababec03f80a14837c5c" target="_top" xlink:title=" ">
<polygon fill="none" stroke="black" points="346,-96 346,-126 507,-126 507,-96 346,-96"/>
<text text-anchor="start" x="354" y="-114" font-family="Helvetica,sans-Serif" font-size="10.00">Population::fishableSpawning</text>
<text text-anchor="middle" x="426.5" y="-103" font-family="Helvetica,sans-Serif" font-size="10.00">Biomass</text>
</a>
</g>
</g>
<!-- Node11&#45;&gt;Node14 -->
<g id="edge16" class="edge">
<title>Node11&#45;&gt;Node14</title>
<path fill="none" stroke="midnightblue" d="M283.89,-194.57C293.06,-191.83 302.14,-188.1 310,-183 332.07,-168.67 324.45,-151.09 346,-136 348.73,-134.09 351.6,-132.32 354.58,-130.69"/>
<polygon fill="midnightblue" stroke="midnightblue" points="356.36,-133.72 363.78,-126.16 353.27,-127.44 356.36,-133.72"/>
</g>
<!-- Node15 -->
<g id="node15" class="node">
<title>Node15</title>
<g id="a_node15"><a xlink:href="classPopulation.html#ac62fc3480d60b055cd1886649809c6a6" target="_top" xlink:title=" ">
<polygon fill="none" stroke="black" points="377.5,-183.5 377.5,-202.5 475.5,-202.5 475.5,-183.5 377.5,-183.5"/>
<text text-anchor="middle" x="426.5" y="-190.5" font-family="Helvetica,sans-Serif" font-size="10.00">Population::nfish</text>
</a>
</g>
</g>
<!-- Node11&#45;&gt;Node15 -->
<g id="edge19" class="edge">
<title>Node11&#45;&gt;Node15</title>
<path fill="none" stroke="midnightblue" d="M283.53,-199.55C309.41,-198.36 340.62,-196.92 367.18,-195.69"/>
<polygon fill="midnightblue" stroke="midnightblue" points="367.66,-199.17 377.49,-195.22 367.34,-192.18 367.66,-199.17"/>
</g>
<!-- Node16 -->
<g id="node16" class="node">
<title>Node16</title>
<g id="a_node16"><a xlink:href="classFish.html#aaa3e67187a587efc7a99485b4a6ee248" target="_top" xlink:title=" ">
<polygon fill="none" stroke="black" points="383,-145.5 383,-164.5 470,-164.5 470,-145.5 383,-145.5"/>
<text text-anchor="middle" x="426.5" y="-152.5" font-family="Helvetica,sans-Serif" font-size="10.00">Fish::set_traits</text>
</a>
</g>
</g>
<!-- Node11&#45;&gt;Node16 -->
<g id="edge21" class="edge">
<title>Node11&#45;&gt;Node16</title>
<path fill="none" stroke="midnightblue" d="M270.96,-192.42C283.48,-189.43 297.32,-186.1 310,-183 326.02,-179.08 329.98,-177.92 346,-174 355.41,-171.7 365.46,-169.27 375.13,-166.95"/>
<polygon fill="midnightblue" stroke="midnightblue" points="376.13,-170.32 385.04,-164.58 374.5,-163.51 376.13,-170.32"/>
</g>
<!-- Node13&#45;&gt;Node4 -->
<g id="edge14" class="edge">
<title>Node13&#45;&gt;Node4</title>
<path fill="none" stroke="midnightblue" d="M477.04,-259.73C487.14,-257.13 497.56,-253.91 507,-250 535.21,-238.3 564.68,-219.03 583.74,-205.49"/>
<polygon fill="midnightblue" stroke="midnightblue" points="585.91,-208.24 591.96,-199.54 581.81,-202.57 585.91,-208.24"/>
</g>
<!-- Node14&#45;&gt;Node4 -->
<g id="edge17" class="edge">
<title>Node14&#45;&gt;Node4</title>
<path fill="none" stroke="midnightblue" d="M480.64,-126.08C489.55,-129.07 498.62,-132.41 507,-136 533.13,-147.21 561.39,-163.34 580.72,-175.06"/>
<polygon fill="midnightblue" stroke="midnightblue" points="579.09,-178.16 589.45,-180.41 582.75,-172.2 579.09,-178.16"/>
</g>
</g>
</svg>
