<?xml version="1.0" encoding="UTF-8" standalone="no"?>
<!DOCTYPE svg PUBLIC "-//W3C//DTD SVG 1.1//EN"
 "http://www.w3.org/Graphics/SVG/1.1/DTD/svg11.dtd">
<!-- Generated by graphviz version 2.43.0 (0)
 -->
<!-- Title: Population::fishableBiomass Pages: 1 -->
<svg width="883pt" height="289pt"
 viewBox="0.00 0.00 883.00 288.95" xmlns="http://www.w3.org/2000/svg" xmlns:xlink="http://www.w3.org/1999/xlink">
<g id="graph0" class="graph" transform="scale(1 1) rotate(0) translate(4 284.95)">
<title>Population::fishableBiomass</title>
<!-- Node1 -->
<g id="node1" class="node">
<title>Node1</title>
<g id="a_node1"><a xlink:title=" ">
<polygon fill="#bfbfbf" stroke="black" points="720,-139.5 720,-158.5 875,-158.5 875,-139.5 720,-139.5"/>
<text text-anchor="middle" x="797.5" y="-146.5" font-family="Helvetica,sans-Serif" font-size="10.00">Population::fishableBiomass</text>
</a>
</g>
</g>
<!-- Node2 -->
<g id="node2" class="node">
<title>Node2</title>
<g id="a_node2"><a xlink:href="classPopulation.html#a345497aa32fe22f73153a59f469c6a19" target="_top" xlink:title=" ">
<polygon fill="none" stroke="black" points="535,-201.5 535,-220.5 684,-220.5 684,-201.5 535,-201.5"/>
<text text-anchor="middle" x="609.5" y="-208.5" font-family="Helvetica,sans-Serif" font-size="10.00">Population::print_summary</text>
</a>
</g>
</g>
<!-- Node1&#45;&gt;Node2 -->
<g id="edge1" class="edge">
<title>Node1&#45;&gt;Node2</title>
<path fill="none" stroke="midnightblue" d="M758.34,-161.72C722.97,-173.51 671.15,-190.78 639.19,-201.44"/>
<polygon fill="midnightblue" stroke="midnightblue" points="759.47,-165.03 767.85,-158.55 757.25,-158.39 759.47,-165.03"/>
</g>
<!-- Node3 -->
<g id="node3" class="node">
<title>Node3</title>
<g id="a_node3"><a xlink:href="fish__glue_8cpp.html#ab96ae82277aa9004dc603b77512c7265" target="_top" xlink:title=" ">
<polygon fill="none" stroke="black" points="161.5,-135.5 161.5,-154.5 251.5,-154.5 251.5,-135.5 161.5,-135.5"/>
<text text-anchor="middle" x="206.5" y="-142.5" font-family="Helvetica,sans-Serif" font-size="10.00">RCPP_MODULE</text>
</a>
</g>
</g>
<!-- Node1&#45;&gt;Node3 -->
<g id="edge3" class="edge">
<title>Node1&#45;&gt;Node3</title>
<path fill="none" stroke="midnightblue" d="M780.25,-165.86C759.92,-185.63 722.99,-217.31 684,-230 531.44,-279.66 460.97,-312.9 323,-231 294.27,-213.94 313.42,-185.46 287,-165 276.87,-157.16 264.04,-152.36 251.66,-149.43"/>
<polygon fill="midnightblue" stroke="midnightblue" points="782.83,-168.23 787.44,-158.69 777.89,-163.27 782.83,-168.23"/>
</g>
<!-- Node4 -->
<g id="node4" class="node">
<title>Node4</title>
<g id="a_node4"><a xlink:href="classSimulator.html#a7540919b97662be7deacba9194c0ed60" target="_top" xlink:title=" ">
<polygon fill="none" stroke="black" points="354.5,-165 354.5,-195 467.5,-195 467.5,-165 354.5,-165"/>
<text text-anchor="start" x="362.5" y="-183" font-family="Helvetica,sans-Serif" font-size="10.00">Simulator::simulate</text>
<text text-anchor="middle" x="411" y="-172" font-family="Helvetica,sans-Serif" font-size="10.00">_multi</text>
</a>
</g>
</g>
<!-- Node1&#45;&gt;Node4 -->
<g id="edge4" class="edge">
<title>Node1&#45;&gt;Node4</title>
<path fill="none" stroke="midnightblue" d="M709.36,-156.03C635.2,-162 530.92,-170.41 467.6,-175.52"/>
<polygon fill="midnightblue" stroke="midnightblue" points="709.93,-159.49 719.61,-155.2 709.37,-152.51 709.93,-159.49"/>
</g>
<!-- Node7 -->
<g id="node7" class="node">
<title>Node7</title>
<g id="a_node7"><a xlink:href="classSimulator.html#ab21d1c6b0af00931f9a8fa5e0b6d417f" target="_top" xlink:title=" ">
<polygon fill="none" stroke="black" points="354.5,-39 354.5,-69 467.5,-69 467.5,-39 354.5,-39"/>
<text text-anchor="start" x="362.5" y="-57" font-family="Helvetica,sans-Serif" font-size="10.00">Simulator::simulate</text>
<text text-anchor="middle" x="411" y="-46" font-family="Helvetica,sans-Serif" font-size="10.00">_multi_2d</text>
</a>
</g>
</g>
<!-- Node1&#45;&gt;Node7 -->
<g id="edge7" class="edge">
<title>Node1&#45;&gt;Node7</title>
<path fill="none" stroke="midnightblue" d="M774.1,-133.9C752.14,-119.87 717.21,-99.6 684,-89 611.54,-65.87 523.6,-57.98 467.71,-55.31"/>
<polygon fill="midnightblue" stroke="midnightblue" points="772.39,-136.96 782.68,-139.48 776.21,-131.09 772.39,-136.96"/>
</g>
<!-- Node9 -->
<g id="node9" class="node">
<title>Node9</title>
<g id="a_node9"><a xlink:href="classSimulator.html#aa6e6cfd73fd8d3200e7f515b473e88f2" target="_top" xlink:title=" ">
<polygon fill="none" stroke="black" points="350,-0.5 350,-19.5 472,-19.5 472,-0.5 350,-0.5"/>
<text text-anchor="middle" x="411" y="-7.5" font-family="Helvetica,sans-Serif" font-size="10.00">Simulator::simulate_r</text>
</a>
</g>
</g>
<!-- Node1&#45;&gt;Node9 -->
<g id="edge10" class="edge">
<title>Node1&#45;&gt;Node9</title>
<path fill="none" stroke="midnightblue" d="M781.18,-131.94C761.08,-110.73 723.69,-75.12 684,-57 615.67,-25.8 529.04,-15.19 472.14,-11.65"/>
<polygon fill="midnightblue" stroke="midnightblue" points="778.64,-134.35 788,-139.3 783.77,-129.59 778.64,-134.35"/>
</g>
<!-- Node10 -->
<g id="node10" class="node">
<title>Node10</title>
<g id="a_node10"><a xlink:href="classPopulation.html#a81c19d1c80cfb1d54d3872ecdefd0872" target="_top" xlink:title=" ">
<polygon fill="none" stroke="black" points="555.5,-98.5 555.5,-117.5 663.5,-117.5 663.5,-98.5 555.5,-98.5"/>
<text text-anchor="middle" x="609.5" y="-105.5" font-family="Helvetica,sans-Serif" font-size="10.00">Population::update</text>
</a>
</g>
</g>
<!-- Node1&#45;&gt;Node10 -->
<g id="edge12" class="edge">
<title>Node1&#45;&gt;Node10</title>
<path fill="none" stroke="midnightblue" d="M743.58,-137.34C715.15,-131.07 680.53,-123.44 653.73,-117.53"/>
<polygon fill="midnightblue" stroke="midnightblue" points="742.84,-140.76 753.36,-139.49 744.35,-133.92 742.84,-140.76"/>
</g>
<!-- Node2&#45;&gt;Node3 -->
<g id="edge2" class="edge">
<title>Node2&#45;&gt;Node3</title>
<path fill="none" stroke="midnightblue" d="M554.07,-222.18C494.43,-231.71 397.35,-239.05 323,-205 301.25,-195.04 307.49,-177.34 287,-165 276.39,-158.61 263.82,-154.25 251.83,-151.29"/>
<polygon fill="midnightblue" stroke="midnightblue" points="554.75,-225.62 564.03,-220.52 553.59,-218.72 554.75,-225.62"/>
</g>
<!-- Node5 -->
<g id="node5" class="node">
<title>Node5</title>
<g id="a_node5"><a xlink:href="classSimulator.html#a1a5454ee4736819d709398b225d7876d" target="_top" xlink:title=" ">
<polygon fill="none" stroke="black" points="150,-174 150,-204 263,-204 263,-174 150,-174"/>
<text text-anchor="start" x="158" y="-192" font-family="Helvetica,sans-Serif" font-size="10.00">Simulator::simulate</text>
<text text-anchor="middle" x="206.5" y="-181" font-family="Helvetica,sans-Serif" font-size="10.00">_multi_r</text>
</a>
</g>
</g>
<!-- Node4&#45;&gt;Node5 -->
<g id="edge5" class="edge">
<title>Node4&#45;&gt;Node5</title>
<path fill="none" stroke="midnightblue" d="M344.21,-182.92C318.09,-184.08 288.37,-185.41 263.33,-186.52"/>
<polygon fill="midnightblue" stroke="midnightblue" points="344.56,-186.41 354.4,-182.47 344.25,-179.42 344.56,-186.41"/>
</g>
<!-- Node6 -->
<g id="node6" class="node">
<title>Node6</title>
<g id="a_node6"><a xlink:href="fish__glue_8cpp.html#addebb0997b0e49067d8784c9954b7b96" target="_top" xlink:title=" ">
<polygon fill="none" stroke="black" points="0,-66.5 0,-85.5 90,-85.5 90,-66.5 0,-66.5"/>
<text text-anchor="middle" x="45" y="-73.5" font-family="Helvetica,sans-Serif" font-size="10.00">RCPP_MODULE</text>
</a>
</g>
</g>
<!-- Node5&#45;&gt;Node6 -->
<g id="edge6" class="edge">
<title>Node5&#45;&gt;Node6</title>
<path fill="none" stroke="midnightblue" d="M140.61,-171.84C135.51,-169.53 130.57,-166.92 126,-164 92.6,-142.65 64.3,-103.82 52.24,-85.75"/>
<polygon fill="midnightblue" stroke="midnightblue" points="139.34,-175.1 149.92,-175.7 142.02,-168.64 139.34,-175.1"/>
</g>
<!-- Node8 -->
<g id="node8" class="node">
<title>Node8</title>
<g id="a_node8"><a xlink:href="classSimulator.html#af1b0a9562ecf0ad8f98d61576efba28b" target="_top" xlink:title=" ">
<polygon fill="none" stroke="black" points="150,-37 150,-67 263,-67 263,-37 150,-37"/>
<text text-anchor="start" x="158" y="-55" font-family="Helvetica,sans-Serif" font-size="10.00">Simulator::simulate</text>
<text text-anchor="middle" x="206.5" y="-44" font-family="Helvetica,sans-Serif" font-size="10.00">_multi_2d_r</text>
</a>
</g>
</g>
<!-- Node7&#45;&gt;Node8 -->
<g id="edge8" class="edge">
<title>Node7&#45;&gt;Node8</title>
<path fill="none" stroke="midnightblue" d="M344.21,-53.35C318.09,-53.09 288.37,-52.8 263.33,-52.55"/>
<polygon fill="midnightblue" stroke="midnightblue" points="344.36,-56.85 354.4,-53.45 344.43,-49.85 344.36,-56.85"/>
</g>
<!-- Node8&#45;&gt;Node6 -->
<g id="edge9" class="edge">
<title>Node8&#45;&gt;Node6</title>
<path fill="none" stroke="midnightblue" d="M139.5,-61.93C122.89,-64.43 105.45,-67.05 90.2,-69.35"/>
<polygon fill="midnightblue" stroke="midnightblue" points="140.35,-65.34 149.71,-60.39 139.31,-58.42 140.35,-65.34"/>
</g>
<!-- Node9&#45;&gt;Node6 -->
<g id="edge11" class="edge">
<title>Node9&#45;&gt;Node6</title>
<path fill="none" stroke="midnightblue" d="M339.49,-4.86C280.95,-2.78 196.23,-4.91 126,-27 99.28,-35.4 72.35,-54.63 57.56,-66.35"/>
<polygon fill="midnightblue" stroke="midnightblue" points="339.6,-8.37 349.74,-5.27 339.89,-1.37 339.6,-8.37"/>
</g>
<!-- Node10&#45;&gt;Node3 -->
<g id="edge17" class="edge">
<title>Node10&#45;&gt;Node3</title>
<path fill="none" stroke="midnightblue" d="M545.08,-113.85C463.23,-121.4 322.9,-134.35 251.71,-140.92"/>
<polygon fill="midnightblue" stroke="midnightblue" points="545.61,-117.32 555.25,-112.91 544.97,-110.35 545.61,-117.32"/>
</g>
<!-- Node10&#45;&gt;Node4 -->
<g id="edge18" class="edge">
<title>Node10&#45;&gt;Node4</title>
<path fill="none" stroke="midnightblue" d="M574.84,-121.25C553.24,-129.67 524.55,-140.7 499,-150 485.34,-154.97 470.4,-160.2 456.81,-164.88"/>
<polygon fill="midnightblue" stroke="midnightblue" points="576.19,-124.48 584.23,-117.58 573.65,-117.96 576.19,-124.48"/>
</g>
<!-- Node10&#45;&gt;Node7 -->
<g id="edge19" class="edge">
<title>Node10&#45;&gt;Node7</title>
<path fill="none" stroke="midnightblue" d="M564.02,-95.78C535.18,-87.85 497.4,-77.47 466.72,-69.04"/>
<polygon fill="midnightblue" stroke="midnightblue" points="563.25,-99.2 573.82,-98.47 565.11,-92.45 563.25,-99.2"/>
</g>
<!-- Node10&#45;&gt;Node9 -->
<g id="edge20" class="edge">
<title>Node10&#45;&gt;Node9</title>
<path fill="none" stroke="midnightblue" d="M590.63,-91.49C570.07,-73.41 534.56,-44.88 499,-29 490.39,-25.15 480.94,-22.06 471.55,-19.58"/>
<polygon fill="midnightblue" stroke="midnightblue" points="588.45,-94.24 598.24,-98.31 593.13,-89.03 588.45,-94.24"/>
</g>
<!-- Node11 -->
<g id="node11" class="node">
<title>Node11</title>
<g id="a_node11"><a xlink:href="classPopulation.html#aa7eba257f23cbc12aa3673ce012fb2cb" target="_top" xlink:title=" ">
<polygon fill="none" stroke="black" points="323,-88.5 323,-107.5 499,-107.5 499,-88.5 323,-88.5"/>
<text text-anchor="middle" x="411" y="-95.5" font-family="Helvetica,sans-Serif" font-size="10.00">Population::noFishingEquilibriate</text>
</a>
</g>
</g>
<!-- Node10&#45;&gt;Node11 -->
<g id="edge13" class="edge">
<title>Node10&#45;&gt;Node11</title>
<path fill="none" stroke="midnightblue" d="M544.95,-104.77C530.39,-104.03 514.67,-103.22 499.31,-102.44"/>
<polygon fill="midnightblue" stroke="midnightblue" points="545.16,-108.28 555.32,-105.29 545.52,-101.29 545.16,-108.28"/>
</g>
<!-- Node11&#45;&gt;Node3 -->
<g id="edge16" class="edge">
<title>Node11&#45;&gt;Node3</title>
<path fill="none" stroke="midnightblue" d="M359.24,-109.78C325.12,-117.7 280.71,-128.01 248.76,-135.42"/>
<polygon fill="midnightblue" stroke="midnightblue" points="360.07,-113.18 369.02,-107.51 358.49,-106.36 360.07,-113.18"/>
</g>
<!-- Node12 -->
<g id="node12" class="node">
<title>Node12</title>
<g id="a_node12"><a xlink:href="classSimulator.html#ad02f472064f23f03ae474cb4904d2c56" target="_top" xlink:title=" ">
<polygon fill="none" stroke="black" points="126,-86 126,-116 287,-116 287,-86 126,-86"/>
<text text-anchor="start" x="134" y="-104" font-family="Helvetica,sans-Serif" font-size="10.00">Simulator::equilibriateNatural</text>
<text text-anchor="middle" x="206.5" y="-93" font-family="Helvetica,sans-Serif" font-size="10.00">Population</text>
</a>
</g>
</g>
<!-- Node11&#45;&gt;Node12 -->
<g id="edge14" class="edge">
<title>Node11&#45;&gt;Node12</title>
<path fill="none" stroke="midnightblue" d="M312.86,-99.44C304.24,-99.57 295.58,-99.7 287.12,-99.82"/>
<polygon fill="midnightblue" stroke="midnightblue" points="313,-102.94 322.95,-99.29 312.9,-95.94 313,-102.94"/>
</g>
<!-- Node12&#45;&gt;Node6 -->
<g id="edge15" class="edge">
<title>Node12&#45;&gt;Node6</title>
<path fill="none" stroke="midnightblue" d="M115.68,-86.92C106.8,-85.53 98.1,-84.17 90.01,-82.9"/>
<polygon fill="midnightblue" stroke="midnightblue" points="115.33,-90.41 125.75,-88.5 116.41,-83.49 115.33,-90.41"/>
</g>
</g>
</svg>
