<?xml version="1.0" encoding="UTF-8" standalone="no"?>
<!DOCTYPE svg PUBLIC "-//W3C//DTD SVG 1.1//EN"
 "http://www.w3.org/Graphics/SVG/1.1/DTD/svg11.dtd">
<!-- Generated by graphviz version 2.43.0 (0)
 -->
<!-- Title: Population::calcSSB Pages: 1 -->
<svg width="841pt" height="279pt"
 viewBox="0.00 0.00 841.00 278.50" xmlns="http://www.w3.org/2000/svg" xmlns:xlink="http://www.w3.org/1999/xlink">
<g id="graph0" class="graph" transform="scale(1 1) rotate(0) translate(4 274.5)">
<title>Population::calcSSB</title>
<!-- Node1 -->
<g id="node1" class="node">
<title>Node1</title>
<g id="a_node1"><a xlink:title=" ">
<polygon fill="#bfbfbf" stroke="black" points="720,-99 720,-118 833,-118 833,-99 720,-99"/>
<text text-anchor="middle" x="776.5" y="-106" font-family="Helvetica,sans-Serif" font-size="10.00">Population::calcSSB</text>
</a>
</g>
</g>
<!-- Node2 -->
<g id="node2" class="node">
<title>Node2</title>
<g id="a_node2"><a xlink:href="classPopulation.html#a345497aa32fe22f73153a59f469c6a19" target="_top" xlink:title=" ">
<polygon fill="none" stroke="black" points="535,-251 535,-270 684,-270 684,-251 535,-251"/>
<text text-anchor="middle" x="609.5" y="-258" font-family="Helvetica,sans-Serif" font-size="10.00">Population::print_summary</text>
</a>
</g>
</g>
<!-- Node1&#45;&gt;Node2 -->
<g id="edge1" class="edge">
<title>Node1&#45;&gt;Node2</title>
<path fill="none" stroke="midnightblue" d="M766.96,-127.17C753.32,-154.98 724.02,-207.14 684,-236.5 675.45,-242.77 665.18,-247.46 655.06,-250.94"/>
<polygon fill="midnightblue" stroke="midnightblue" points="770.13,-128.65 771.27,-118.12 763.81,-125.65 770.13,-128.65"/>
</g>
<!-- Node3 -->
<g id="node3" class="node">
<title>Node3</title>
<g id="a_node3"><a xlink:href="fish__glue_8cpp.html#ab96ae82277aa9004dc603b77512c7265" target="_top" xlink:title=" ">
<polygon fill="none" stroke="black" points="161.5,-200 161.5,-219 251.5,-219 251.5,-200 161.5,-200"/>
<text text-anchor="middle" x="206.5" y="-207" font-family="Helvetica,sans-Serif" font-size="10.00">RCPP_MODULE</text>
</a>
</g>
</g>
<!-- Node1&#45;&gt;Node3 -->
<g id="edge3" class="edge">
<title>Node1&#45;&gt;Node3</title>
<path fill="none" stroke="midnightblue" d="M743.25,-121.85C692.37,-142.19 589.9,-180.3 499,-196.5 412.47,-211.92 309.34,-212.41 251.85,-211.12"/>
<polygon fill="midnightblue" stroke="midnightblue" points="744.75,-125.01 752.72,-118.03 742.13,-118.52 744.75,-125.01"/>
</g>
<!-- Node4 -->
<g id="node4" class="node">
<title>Node4</title>
<g id="a_node4"><a xlink:href="classSimulator.html#a7540919b97662be7deacba9194c0ed60" target="_top" xlink:title=" ">
<polygon fill="none" stroke="black" points="354.5,-49.5 354.5,-79.5 467.5,-79.5 467.5,-49.5 354.5,-49.5"/>
<text text-anchor="start" x="362.5" y="-67.5" font-family="Helvetica,sans-Serif" font-size="10.00">Simulator::simulate</text>
<text text-anchor="middle" x="411" y="-56.5" font-family="Helvetica,sans-Serif" font-size="10.00">_multi</text>
</a>
</g>
</g>
<!-- Node1&#45;&gt;Node4 -->
<g id="edge4" class="edge">
<title>Node1&#45;&gt;Node4</title>
<path fill="none" stroke="midnightblue" d="M724.81,-96.91C711.58,-94.18 697.3,-91.49 684,-89.5 609.54,-78.38 522.83,-71.44 467.7,-67.77"/>
<polygon fill="midnightblue" stroke="midnightblue" points="724.18,-100.35 734.68,-98.99 725.62,-93.5 724.18,-100.35"/>
</g>
<!-- Node7 -->
<g id="node7" class="node">
<title>Node7</title>
<g id="a_node7"><a xlink:href="classSimulator.html#ab21d1c6b0af00931f9a8fa5e0b6d417f" target="_top" xlink:title=" ">
<polygon fill="none" stroke="black" points="354.5,-0.5 354.5,-30.5 467.5,-30.5 467.5,-0.5 354.5,-0.5"/>
<text text-anchor="start" x="362.5" y="-18.5" font-family="Helvetica,sans-Serif" font-size="10.00">Simulator::simulate</text>
<text text-anchor="middle" x="411" y="-7.5" font-family="Helvetica,sans-Serif" font-size="10.00">_multi_2d</text>
</a>
</g>
</g>
<!-- Node1&#45;&gt;Node7 -->
<g id="edge7" class="edge">
<title>Node1&#45;&gt;Node7</title>
<path fill="none" stroke="midnightblue" d="M747.07,-94.58C729.29,-86.33 705.72,-76.2 684,-69.5 610.63,-46.85 523.1,-31.46 467.53,-23.08"/>
<polygon fill="midnightblue" stroke="midnightblue" points="745.77,-97.83 756.3,-98.93 748.76,-91.5 745.77,-97.83"/>
</g>
<!-- Node9 -->
<g id="node9" class="node">
<title>Node9</title>
<g id="a_node9"><a xlink:href="classPopulation.html#a81c19d1c80cfb1d54d3872ecdefd0872" target="_top" xlink:title=" ">
<polygon fill="none" stroke="black" points="555.5,-99 555.5,-118 663.5,-118 663.5,-99 555.5,-99"/>
<text text-anchor="middle" x="609.5" y="-106" font-family="Helvetica,sans-Serif" font-size="10.00">Population::update</text>
</a>
</g>
</g>
<!-- Node1&#45;&gt;Node9 -->
<g id="edge10" class="edge">
<title>Node1&#45;&gt;Node9</title>
<path fill="none" stroke="midnightblue" d="M709.26,-108.5C694.05,-108.5 678.08,-108.5 663.52,-108.5"/>
<polygon fill="midnightblue" stroke="midnightblue" points="709.64,-112 719.64,-108.5 709.64,-105 709.64,-112"/>
</g>
<!-- Node2&#45;&gt;Node3 -->
<g id="edge2" class="edge">
<title>Node2&#45;&gt;Node3</title>
<path fill="none" stroke="midnightblue" d="M524.74,-256.68C467.63,-253.29 390.44,-247.16 323,-236.5 295.64,-232.18 265.15,-224.94 242.37,-219.05"/>
<polygon fill="midnightblue" stroke="midnightblue" points="524.61,-260.18 534.8,-257.26 525.02,-253.19 524.61,-260.18"/>
</g>
<!-- Node5 -->
<g id="node5" class="node">
<title>Node5</title>
<g id="a_node5"><a xlink:href="classSimulator.html#a1a5454ee4736819d709398b225d7876d" target="_top" xlink:title=" ">
<polygon fill="none" stroke="black" points="150,-49.5 150,-79.5 263,-79.5 263,-49.5 150,-49.5"/>
<text text-anchor="start" x="158" y="-67.5" font-family="Helvetica,sans-Serif" font-size="10.00">Simulator::simulate</text>
<text text-anchor="middle" x="206.5" y="-56.5" font-family="Helvetica,sans-Serif" font-size="10.00">_multi_r</text>
</a>
</g>
</g>
<!-- Node4&#45;&gt;Node5 -->
<g id="edge5" class="edge">
<title>Node4&#45;&gt;Node5</title>
<path fill="none" stroke="midnightblue" d="M344.21,-64.5C318.09,-64.5 288.37,-64.5 263.33,-64.5"/>
<polygon fill="midnightblue" stroke="midnightblue" points="344.4,-68 354.4,-64.5 344.4,-61 344.4,-68"/>
</g>
<!-- Node6 -->
<g id="node6" class="node">
<title>Node6</title>
<g id="a_node6"><a xlink:href="fish__glue_8cpp.html#addebb0997b0e49067d8784c9954b7b96" target="_top" xlink:title=" ">
<polygon fill="none" stroke="black" points="0,-77 0,-96 90,-96 90,-77 0,-77"/>
<text text-anchor="middle" x="45" y="-84" font-family="Helvetica,sans-Serif" font-size="10.00">RCPP_MODULE</text>
</a>
</g>
</g>
<!-- Node5&#45;&gt;Node6 -->
<g id="edge6" class="edge">
<title>Node5&#45;&gt;Node6</title>
<path fill="none" stroke="midnightblue" d="M139.5,-73.6C122.89,-75.89 105.45,-78.3 90.2,-80.4"/>
<polygon fill="midnightblue" stroke="midnightblue" points="140.29,-77.03 149.71,-72.19 139.33,-70.09 140.29,-77.03"/>
</g>
<!-- Node8 -->
<g id="node8" class="node">
<title>Node8</title>
<g id="a_node8"><a xlink:href="classSimulator.html#af1b0a9562ecf0ad8f98d61576efba28b" target="_top" xlink:title=" ">
<polygon fill="none" stroke="black" points="150,-0.5 150,-30.5 263,-30.5 263,-0.5 150,-0.5"/>
<text text-anchor="start" x="158" y="-18.5" font-family="Helvetica,sans-Serif" font-size="10.00">Simulator::simulate</text>
<text text-anchor="middle" x="206.5" y="-7.5" font-family="Helvetica,sans-Serif" font-size="10.00">_multi_2d_r</text>
</a>
</g>
</g>
<!-- Node7&#45;&gt;Node8 -->
<g id="edge8" class="edge">
<title>Node7&#45;&gt;Node8</title>
<path fill="none" stroke="midnightblue" d="M344.21,-15.5C318.09,-15.5 288.37,-15.5 263.33,-15.5"/>
<polygon fill="midnightblue" stroke="midnightblue" points="344.4,-19 354.4,-15.5 344.4,-12 344.4,-19"/>
</g>
<!-- Node8&#45;&gt;Node6 -->
<g id="edge9" class="edge">
<title>Node8&#45;&gt;Node6</title>
<path fill="none" stroke="midnightblue" d="M140.28,-33.8C135.4,-35.59 130.59,-37.49 126,-39.5 101.65,-50.15 75.45,-66.59 59.91,-76.94"/>
<polygon fill="midnightblue" stroke="midnightblue" points="141.44,-37.1 149.72,-30.49 139.12,-30.49 141.44,-37.1"/>
</g>
<!-- Node9&#45;&gt;Node3 -->
<g id="edge15" class="edge">
<title>Node9&#45;&gt;Node3</title>
<path fill="none" stroke="midnightblue" d="M585.23,-123.52C563.71,-136.68 530.42,-155.27 499,-165.5 414.08,-193.16 309.49,-203.56 251.5,-207.37"/>
<polygon fill="midnightblue" stroke="midnightblue" points="587.32,-126.34 593.96,-118.08 583.62,-120.4 587.32,-126.34"/>
</g>
<!-- Node9&#45;&gt;Node4 -->
<g id="edge16" class="edge">
<title>Node9&#45;&gt;Node4</title>
<path fill="none" stroke="midnightblue" d="M556.1,-96.77C528.79,-90.65 495.39,-83.17 467.63,-76.96"/>
<polygon fill="midnightblue" stroke="midnightblue" points="555.34,-100.18 565.86,-98.95 556.87,-93.35 555.34,-100.18"/>
</g>
<!-- Node9&#45;&gt;Node7 -->
<g id="edge17" class="edge">
<title>Node9&#45;&gt;Node7</title>
<path fill="none" stroke="midnightblue" d="M587.78,-92.83C566.49,-77.38 531.92,-54.03 499,-39.5 489.11,-35.13 478.23,-31.38 467.61,-28.22"/>
<polygon fill="midnightblue" stroke="midnightblue" points="585.92,-95.8 596.04,-98.92 590.07,-90.17 585.92,-95.8"/>
</g>
<!-- Node10 -->
<g id="node10" class="node">
<title>Node10</title>
<g id="a_node10"><a xlink:href="classPopulation.html#aa7eba257f23cbc12aa3673ce012fb2cb" target="_top" xlink:title=" ">
<polygon fill="none" stroke="black" points="323,-137 323,-156 499,-156 499,-137 323,-137"/>
<text text-anchor="middle" x="411" y="-144" font-family="Helvetica,sans-Serif" font-size="10.00">Population::noFishingEquilibriate</text>
</a>
</g>
</g>
<!-- Node9&#45;&gt;Node10 -->
<g id="edge11" class="edge">
<title>Node9&#45;&gt;Node10</title>
<path fill="none" stroke="midnightblue" d="M549.09,-119.99C521.05,-125.41 487.98,-131.81 461.35,-136.96"/>
<polygon fill="midnightblue" stroke="midnightblue" points="550.01,-123.38 559.17,-118.04 548.69,-116.5 550.01,-123.38"/>
</g>
<!-- Node12 -->
<g id="node12" class="node">
<title>Node12</title>
<g id="a_node12"><a xlink:href="classSimulator.html#aa6e6cfd73fd8d3200e7f515b473e88f2" target="_top" xlink:title=" ">
<polygon fill="none" stroke="black" points="350,-99 350,-118 472,-118 472,-99 350,-99"/>
<text text-anchor="middle" x="411" y="-106" font-family="Helvetica,sans-Serif" font-size="10.00">Simulator::simulate_r</text>
</a>
</g>
</g>
<!-- Node9&#45;&gt;Node12 -->
<g id="edge18" class="edge">
<title>Node9&#45;&gt;Node12</title>
<path fill="none" stroke="midnightblue" d="M545.15,-108.5C521.73,-108.5 495.28,-108.5 472.16,-108.5"/>
<polygon fill="midnightblue" stroke="midnightblue" points="545.32,-112 555.32,-108.5 545.32,-105 545.32,-112"/>
</g>
<!-- Node10&#45;&gt;Node3 -->
<g id="edge14" class="edge">
<title>Node10&#45;&gt;Node3</title>
<path fill="none" stroke="midnightblue" d="M363.65,-158.76C350.47,-162.39 336.13,-166.48 323,-170.5 292.44,-179.87 257.75,-191.75 234.43,-199.93"/>
<polygon fill="midnightblue" stroke="midnightblue" points="364.74,-162.1 373.46,-156.09 362.9,-155.34 364.74,-162.1"/>
</g>
<!-- Node11 -->
<g id="node11" class="node">
<title>Node11</title>
<g id="a_node11"><a xlink:href="classSimulator.html#ad02f472064f23f03ae474cb4904d2c56" target="_top" xlink:title=" ">
<polygon fill="none" stroke="black" points="126,-137.5 126,-167.5 287,-167.5 287,-137.5 126,-137.5"/>
<text text-anchor="start" x="134" y="-155.5" font-family="Helvetica,sans-Serif" font-size="10.00">Simulator::equilibriateNatural</text>
<text text-anchor="middle" x="206.5" y="-144.5" font-family="Helvetica,sans-Serif" font-size="10.00">Population</text>
</a>
</g>
</g>
<!-- Node10&#45;&gt;Node11 -->
<g id="edge12" class="edge">
<title>Node10&#45;&gt;Node11</title>
<path fill="none" stroke="midnightblue" d="M312.86,-149.38C304.24,-149.63 295.58,-149.89 287.12,-150.14"/>
<polygon fill="midnightblue" stroke="midnightblue" points="313.05,-152.87 322.95,-149.08 312.85,-145.88 313.05,-152.87"/>
</g>
<!-- Node11&#45;&gt;Node6 -->
<g id="edge13" class="edge">
<title>Node11&#45;&gt;Node6</title>
<path fill="none" stroke="midnightblue" d="M154.64,-133.84C145.08,-130.19 135.2,-126.3 126,-122.5 105.45,-114.01 82.32,-103.49 66.24,-96.02"/>
<polygon fill="midnightblue" stroke="midnightblue" points="153.46,-137.14 164.05,-137.41 155.94,-130.59 153.46,-137.14"/>
</g>
<!-- Node12&#45;&gt;Node6 -->
<g id="edge19" class="edge">
<title>Node12&#45;&gt;Node6</title>
<path fill="none" stroke="midnightblue" d="M339.76,-104.25C265.98,-99.8 152.23,-92.92 90.14,-89.17"/>
<polygon fill="midnightblue" stroke="midnightblue" points="339.7,-107.76 349.89,-104.87 340.12,-100.77 339.7,-107.76"/>
</g>
</g>
</svg>
