<?xml version="1.0" encoding="UTF-8" standalone="no"?>
<!DOCTYPE svg PUBLIC "-//W3C//DTD SVG 1.1//EN"
 "http://www.w3.org/Graphics/SVG/1.1/DTD/svg11.dtd">
<!-- Generated by graphviz version 2.43.0 (0)
 -->
<!-- Title: Simulator::simulate_multi_2d Pages: 1 -->
<svg width="673pt" height="436pt"
 viewBox="0.00 0.00 673.00 436.00" xmlns="http://www.w3.org/2000/svg" xmlns:xlink="http://www.w3.org/1999/xlink">
<g id="graph0" class="graph" transform="scale(1 1) rotate(0) translate(4 432)">
<title>Simulator::simulate_multi_2d</title>
<!-- Node1 -->
<g id="node1" class="node">
<title>Node1</title>
<g id="a_node1"><a xlink:title=" ">
<polygon fill="#bfbfbf" stroke="black" points="0,-109 0,-139 113,-139 113,-109 0,-109"/>
<text text-anchor="start" x="8" y="-127" font-family="Helvetica,sans-Serif" font-size="10.00">Simulator::simulate</text>
<text text-anchor="middle" x="56.5" y="-116" font-family="Helvetica,sans-Serif" font-size="10.00">_multi_2d</text>
</a>
</g>
</g>
<!-- Node2 -->
<g id="node2" class="node">
<title>Node2</title>
<g id="a_node2"><a xlink:href="classPopulation.html#af15e7ba23b161c710d4013204b542cb6" target="_top" xlink:title=" ">
<polygon fill="none" stroke="black" points="367,-408.5 367,-427.5 480,-427.5 480,-408.5 367,-408.5"/>
<text text-anchor="middle" x="423.5" y="-415.5" font-family="Helvetica,sans-Serif" font-size="10.00">Population::calcSSB</text>
</a>
</g>
</g>
<!-- Node1&#45;&gt;Node2 -->
<g id="edge1" class="edge">
<title>Node1&#45;&gt;Node2</title>
<path fill="none" stroke="midnightblue" d="M64.98,-139.1C78.88,-166.13 110.76,-223.62 149,-263 222.36,-338.54 246.98,-355.77 343,-399 348.47,-401.46 354.3,-403.63 360.23,-405.53"/>
<polygon fill="midnightblue" stroke="midnightblue" points="359.66,-409.01 370.24,-408.49 361.64,-402.3 359.66,-409.01"/>
</g>
<!-- Node3 -->
<g id="node3" class="node">
<title>Node3</title>
<g id="a_node3"><a xlink:href="classPopulation.html#a42c4b04852bdda937e50f82952106af1" target="_top" xlink:title=" ">
<polygon fill="none" stroke="black" points="346,-130.5 346,-149.5 501,-149.5 501,-130.5 346,-130.5"/>
<text text-anchor="middle" x="423.5" y="-137.5" font-family="Helvetica,sans-Serif" font-size="10.00">Population::fishableBiomass</text>
</a>
</g>
</g>
<!-- Node1&#45;&gt;Node3 -->
<g id="edge2" class="edge">
<title>Node1&#45;&gt;Node3</title>
<path fill="none" stroke="midnightblue" d="M113.35,-137.49C125.06,-139.78 137.38,-141.81 149,-143 211.24,-149.39 281.86,-148.41 335.75,-145.95"/>
<polygon fill="midnightblue" stroke="midnightblue" points="336.13,-149.44 345.95,-145.46 335.8,-142.45 336.13,-149.44"/>
</g>
<!-- Node5 -->
<g id="node5" class="node">
<title>Node5</title>
<g id="a_node5"><a xlink:href="classPopulation.html#a012ef586a78b4e7c2082634b316072d0" target="_top" xlink:title=" ">
<polygon fill="none" stroke="black" points="183,-114.5 183,-133.5 273,-133.5 273,-114.5 183,-114.5"/>
<text text-anchor="middle" x="228" y="-121.5" font-family="Helvetica,sans-Serif" font-size="10.00">Population::init</text>
</a>
</g>
</g>
<!-- Node1&#45;&gt;Node5 -->
<g id="edge4" class="edge">
<title>Node1&#45;&gt;Node5</title>
<path fill="none" stroke="midnightblue" d="M113,-124C132.23,-124 153.76,-124 172.88,-124"/>
<polygon fill="midnightblue" stroke="midnightblue" points="172.93,-127.5 182.93,-124 172.93,-120.5 172.93,-127.5"/>
</g>
<!-- Node9 -->
<g id="node9" class="node">
<title>Node9</title>
<g id="a_node9"><a xlink:href="classPopulation.html#a20696fa511c914e7c8837acb2a254b33" target="_top" xlink:title=" ">
<polygon fill="none" stroke="black" points="151.5,-76.5 151.5,-95.5 304.5,-95.5 304.5,-76.5 151.5,-76.5"/>
<text text-anchor="middle" x="228" y="-83.5" font-family="Helvetica,sans-Serif" font-size="10.00">Population::set_harvestProp</text>
</a>
</g>
</g>
<!-- Node1&#45;&gt;Node9 -->
<g id="edge8" class="edge">
<title>Node1&#45;&gt;Node9</title>
<path fill="none" stroke="midnightblue" d="M113,-111.56C132.82,-107.12 155.06,-102.13 174.61,-97.75"/>
<polygon fill="midnightblue" stroke="midnightblue" points="175.56,-101.12 184.55,-95.52 174.03,-94.29 175.56,-101.12"/>
</g>
<!-- Node10 -->
<g id="node10" class="node">
<title>Node10</title>
<g id="a_node10"><a xlink:href="classPopulation.html#a343a346cae1413da400c042868c15859" target="_top" xlink:title=" ">
<polygon fill="none" stroke="black" points="149,-38.5 149,-57.5 307,-57.5 307,-38.5 149,-38.5"/>
<text text-anchor="middle" x="228" y="-45.5" font-family="Helvetica,sans-Serif" font-size="10.00">Population::set_minSizeLimit</text>
</a>
</g>
</g>
<!-- Node1&#45;&gt;Node10 -->
<g id="edge9" class="edge">
<title>Node1&#45;&gt;Node10</title>
<path fill="none" stroke="midnightblue" d="M77.55,-108.88C95.44,-96.05 122.78,-78.03 149,-67 154.9,-64.52 161.2,-62.32 167.56,-60.37"/>
<polygon fill="midnightblue" stroke="midnightblue" points="168.89,-63.63 177.55,-57.53 166.97,-56.9 168.89,-63.63"/>
</g>
<!-- Node11 -->
<g id="node11" class="node">
<title>Node11</title>
<g id="a_node11"><a xlink:href="classPopulation.html#a81c19d1c80cfb1d54d3872ecdefd0872" target="_top" xlink:title=" ">
<polygon fill="none" stroke="black" points="174,-234.5 174,-253.5 282,-253.5 282,-234.5 174,-234.5"/>
<text text-anchor="middle" x="228" y="-241.5" font-family="Helvetica,sans-Serif" font-size="10.00">Population::update</text>
</a>
</g>
</g>
<!-- Node1&#45;&gt;Node11 -->
<g id="edge10" class="edge">
<title>Node1&#45;&gt;Node11</title>
<path fill="none" stroke="midnightblue" d="M78.97,-139.2C111.38,-162.14 172.47,-205.39 205.12,-228.51"/>
<polygon fill="midnightblue" stroke="midnightblue" points="203.34,-231.54 213.52,-234.46 207.39,-225.83 203.34,-231.54"/>
</g>
<!-- Node17 -->
<g id="node17" class="node">
<title>Node17</title>
<g id="a_node17"><a xlink:href="classPopulation.html#a59c8a171470f0cca4453940e07c3c1df" target="_top" xlink:title=" ">
<polygon fill="none" stroke="black" points="165,-0.5 165,-19.5 291,-19.5 291,-0.5 165,-0.5"/>
<text text-anchor="middle" x="228" y="-7.5" font-family="Helvetica,sans-Serif" font-size="10.00">Population::updateEnv</text>
</a>
</g>
</g>
<!-- Node1&#45;&gt;Node17 -->
<g id="edge22" class="edge">
<title>Node1&#45;&gt;Node17</title>
<path fill="none" stroke="midnightblue" d="M67.71,-108.93C82.89,-87.73 113.46,-49.42 149,-29 152.91,-26.75 157.08,-24.77 161.38,-23.02"/>
<polygon fill="midnightblue" stroke="midnightblue" points="162.75,-26.25 170.96,-19.55 160.36,-19.67 162.75,-26.25"/>
</g>
<!-- Node4 -->
<g id="node4" class="node">
<title>Node4</title>
<g id="a_node4"><a xlink:href="classPopulation.html#ac8ed845bbda25c937a2fd76b3788e987" target="_top" xlink:title=" ">
<polygon fill="none" stroke="black" points="540,-190.5 540,-209.5 665,-209.5 665,-190.5 540,-190.5"/>
<text text-anchor="middle" x="602.5" y="-197.5" font-family="Helvetica,sans-Serif" font-size="10.00">Population::selectivity</text>
</a>
</g>
</g>
<!-- Node3&#45;&gt;Node4 -->
<g id="edge3" class="edge">
<title>Node3&#45;&gt;Node4</title>
<path fill="none" stroke="midnightblue" d="M457.91,-149.6C472.17,-153.82 488.96,-158.96 504,-164 525.17,-171.1 548.66,-179.75 567.28,-186.79"/>
<polygon fill="midnightblue" stroke="midnightblue" points="566.21,-190.13 576.8,-190.41 568.7,-183.58 566.21,-190.13"/>
</g>
<!-- Node6 -->
<g id="node6" class="node">
<title>Node6</title>
<g id="a_node6"><a xlink:href="classFish.html#adf85bf269f1651352506e371ffd2cecc" target="_top" xlink:title="Initializes the fish, i.e., initializes parameters and sets the initial state (age = 1,...">
<polygon fill="none" stroke="black" points="395,-92.5 395,-111.5 452,-111.5 452,-92.5 395,-92.5"/>
<text text-anchor="middle" x="423.5" y="-99.5" font-family="Helvetica,sans-Serif" font-size="10.00">Fish::init</text>
</a>
</g>
</g>
<!-- Node5&#45;&gt;Node6 -->
<g id="edge5" class="edge">
<title>Node5&#45;&gt;Node6</title>
<path fill="none" stroke="midnightblue" d="M273.39,-118.95C306.98,-115.13 352.6,-109.95 384.51,-106.32"/>
<polygon fill="midnightblue" stroke="midnightblue" points="385.22,-109.76 394.76,-105.15 384.43,-102.81 385.22,-109.76"/>
</g>
<!-- Node7 -->
<g id="node7" class="node">
<title>Node7</title>
<g id="a_node7"><a xlink:href="namespacefish.html#a0ab1c4842d702a0a40bd04f26793ce12" target="_top" xlink:title="Compute the nonlinear growth increment , as follows.">
<polygon fill="none" stroke="black" points="560,-92.5 560,-111.5 645,-111.5 645,-92.5 560,-92.5"/>
<text text-anchor="middle" x="602.5" y="-99.5" font-family="Helvetica,sans-Serif" font-size="10.00">fish::dl_power</text>
</a>
</g>
</g>
<!-- Node6&#45;&gt;Node7 -->
<g id="edge6" class="edge">
<title>Node6&#45;&gt;Node7</title>
<path fill="none" stroke="midnightblue" d="M452.16,-102C478.21,-102 517.91,-102 549.83,-102"/>
<polygon fill="midnightblue" stroke="midnightblue" points="549.89,-105.5 559.89,-102 549.89,-98.5 549.89,-105.5"/>
</g>
<!-- Node8 -->
<g id="node8" class="node">
<title>Node8</title>
<g id="a_node8"><a xlink:href="namespacefish.html#a1d06e0358aca1be4446ed148b7ce3d84" target="_top" xlink:title="Compute the new length after growth assuming no allocation to reproduction.">
<polygon fill="none" stroke="black" points="544.5,-130.5 544.5,-149.5 660.5,-149.5 660.5,-130.5 544.5,-130.5"/>
<text text-anchor="middle" x="602.5" y="-137.5" font-family="Helvetica,sans-Serif" font-size="10.00">fish::length_juvenile</text>
</a>
</g>
</g>
<!-- Node6&#45;&gt;Node8 -->
<g id="edge7" class="edge">
<title>Node6&#45;&gt;Node8</title>
<path fill="none" stroke="midnightblue" d="M452.16,-107.94C477.51,-113.38 515.78,-121.6 547.23,-128.35"/>
<polygon fill="midnightblue" stroke="midnightblue" points="546.67,-131.81 557.18,-130.48 548.14,-124.96 546.67,-131.81"/>
</g>
<!-- Node11&#45;&gt;Node2 -->
<g id="edge11" class="edge">
<title>Node11&#45;&gt;Node2</title>
<path fill="none" stroke="midnightblue" d="M236.45,-253.55C250.49,-271.62 281.74,-312.12 307,-347 323.49,-369.77 319.8,-383.13 343,-399 347.35,-401.98 352.12,-404.49 357.09,-406.61"/>
<polygon fill="midnightblue" stroke="midnightblue" points="356.23,-410.03 366.83,-410.23 358.67,-403.47 356.23,-410.03"/>
</g>
<!-- Node11&#45;&gt;Node3 -->
<g id="edge15" class="edge">
<title>Node11&#45;&gt;Node3</title>
<path fill="none" stroke="midnightblue" d="M240.2,-234.27C259.8,-217.7 302.12,-183.88 343,-164 352.14,-159.56 362.28,-155.74 372.17,-152.54"/>
<polygon fill="midnightblue" stroke="midnightblue" points="373.39,-155.83 381.93,-149.55 371.34,-149.13 373.39,-155.83"/>
</g>
<!-- Node11&#45;&gt;Node4 -->
<g id="edge20" class="edge">
<title>Node11&#45;&gt;Node4</title>
<path fill="none" stroke="midnightblue" d="M246.51,-234.45C268.34,-223.14 307.17,-204.96 343,-198 405.16,-185.93 477.33,-187.77 529.58,-191.86"/>
<polygon fill="midnightblue" stroke="midnightblue" points="529.51,-195.36 539.76,-192.7 530.08,-188.39 529.51,-195.36"/>
</g>
<!-- Node11&#45;&gt;Node6 -->
<g id="edge18" class="edge">
<title>Node11&#45;&gt;Node6</title>
<path fill="none" stroke="midnightblue" d="M235.07,-234.2C250.19,-210.69 291.97,-150.83 343,-121 355.59,-113.64 370.89,-109.13 384.69,-106.36"/>
<polygon fill="midnightblue" stroke="midnightblue" points="385.64,-109.75 394.88,-104.57 384.43,-102.85 385.64,-109.75"/>
</g>
<!-- Node12 -->
<g id="node12" class="node">
<title>Node12</title>
<g id="a_node12"><a xlink:href="classPopulation.html#ae942ef70cc9f4dfc40b5d843baf40b1e" target="_top" xlink:title=" ">
<polygon fill="none" stroke="black" points="367,-332.5 367,-351.5 480,-351.5 480,-332.5 367,-332.5"/>
<text text-anchor="middle" x="423.5" y="-339.5" font-family="Helvetica,sans-Serif" font-size="10.00">Population::calcTSB</text>
</a>
</g>
</g>
<!-- Node11&#45;&gt;Node12 -->
<g id="edge12" class="edge">
<title>Node11&#45;&gt;Node12</title>
<path fill="none" stroke="midnightblue" d="M239.8,-253.59C259.11,-270.22 301.45,-304.43 343,-323 348.48,-325.45 354.31,-327.61 360.24,-329.5"/>
<polygon fill="midnightblue" stroke="midnightblue" points="359.68,-332.98 370.26,-332.45 361.65,-326.27 359.68,-332.98"/>
</g>
<!-- Node13 -->
<g id="node13" class="node">
<title>Node13</title>
<g id="a_node13"><a xlink:href="classPopulation.html#ad1840de2f00982c35d48b91a1d27ae13" target="_top" xlink:title=" ">
<polygon fill="none" stroke="black" points="373,-370.5 373,-389.5 474,-389.5 474,-370.5 373,-370.5"/>
<text text-anchor="middle" x="423.5" y="-377.5" font-family="Helvetica,sans-Serif" font-size="10.00">Population::effort</text>
</a>
</g>
</g>
<!-- Node11&#45;&gt;Node13 -->
<g id="edge13" class="edge">
<title>Node11&#45;&gt;Node13</title>
<path fill="none" stroke="midnightblue" d="M235.43,-253.65C251.01,-276.22 293.18,-332.71 343,-361 349.28,-364.57 356.2,-367.46 363.26,-369.82"/>
<polygon fill="midnightblue" stroke="midnightblue" points="362.35,-373.2 372.93,-372.71 364.35,-366.49 362.35,-373.2"/>
</g>
<!-- Node14 -->
<g id="node14" class="node">
<title>Node14</title>
<g id="a_node14"><a xlink:href="classPopulation.html#a1118025c1079ababec03f80a14837c5c" target="_top" xlink:title=" ">
<polygon fill="none" stroke="black" points="343,-207 343,-237 504,-237 504,-207 343,-207"/>
<text text-anchor="start" x="351" y="-225" font-family="Helvetica,sans-Serif" font-size="10.00">Population::fishableSpawning</text>
<text text-anchor="middle" x="423.5" y="-214" font-family="Helvetica,sans-Serif" font-size="10.00">Biomass</text>
</a>
</g>
</g>
<!-- Node11&#45;&gt;Node14 -->
<g id="edge16" class="edge">
<title>Node11&#45;&gt;Node14</title>
<path fill="none" stroke="midnightblue" d="M282.13,-237.96C297.75,-236.18 315.29,-234.19 332.53,-232.23"/>
<polygon fill="midnightblue" stroke="midnightblue" points="333.1,-235.69 342.64,-231.08 332.31,-228.73 333.1,-235.69"/>
</g>
<!-- Node15 -->
<g id="node15" class="node">
<title>Node15</title>
<g id="a_node15"><a xlink:href="classPopulation.html#ac62fc3480d60b055cd1886649809c6a6" target="_top" xlink:title=" ">
<polygon fill="none" stroke="black" points="374.5,-294.5 374.5,-313.5 472.5,-313.5 472.5,-294.5 374.5,-294.5"/>
<text text-anchor="middle" x="423.5" y="-301.5" font-family="Helvetica,sans-Serif" font-size="10.00">Population::nfish</text>
</a>
</g>
</g>
<!-- Node11&#45;&gt;Node15 -->
<g id="edge19" class="edge">
<title>Node11&#45;&gt;Node15</title>
<path fill="none" stroke="midnightblue" d="M253.2,-253.59C276.1,-262.45 311.56,-275.62 343,-285 351.21,-287.45 359.97,-289.8 368.56,-291.96"/>
<polygon fill="midnightblue" stroke="midnightblue" points="367.98,-295.42 378.53,-294.41 369.65,-288.63 367.98,-295.42"/>
</g>
<!-- Node16 -->
<g id="node16" class="node">
<title>Node16</title>
<g id="a_node16"><a xlink:href="classFish.html#aaa3e67187a587efc7a99485b4a6ee248" target="_top" xlink:title=" ">
<polygon fill="none" stroke="black" points="380,-256.5 380,-275.5 467,-275.5 467,-256.5 380,-256.5"/>
<text text-anchor="middle" x="423.5" y="-263.5" font-family="Helvetica,sans-Serif" font-size="10.00">Fish::set_traits</text>
</a>
</g>
</g>
<!-- Node11&#45;&gt;Node16 -->
<g id="edge21" class="edge">
<title>Node11&#45;&gt;Node16</title>
<path fill="none" stroke="midnightblue" d="M282.13,-250.04C309.41,-253.14 342.55,-256.91 369.77,-260.01"/>
<polygon fill="midnightblue" stroke="midnightblue" points="369.56,-263.5 379.89,-261.16 370.35,-256.55 369.56,-263.5"/>
</g>
<!-- Node13&#45;&gt;Node4 -->
<g id="edge14" class="edge">
<title>Node13&#45;&gt;Node4</title>
<path fill="none" stroke="midnightblue" d="M474.22,-374.46C484.74,-371.62 495.29,-367.36 504,-361 554.02,-324.5 583.41,-253.82 595.3,-219.56"/>
<polygon fill="midnightblue" stroke="midnightblue" points="598.71,-220.4 598.56,-209.81 592.07,-218.19 598.71,-220.4"/>
</g>
<!-- Node14&#45;&gt;Node4 -->
<g id="edge17" class="edge">
<title>Node14&#45;&gt;Node4</title>
<path fill="none" stroke="midnightblue" d="M504.2,-212.09C512.68,-211.04 521.27,-209.97 529.65,-208.93"/>
<polygon fill="midnightblue" stroke="midnightblue" points="530.26,-212.38 539.75,-207.67 529.4,-205.44 530.26,-212.38"/>
</g>
</g>
</svg>
