<?xml version="1.0" encoding="UTF-8" standalone="no"?>
<!DOCTYPE svg PUBLIC "-//W3C//DTD SVG 1.1//EN"
 "http://www.w3.org/Graphics/SVG/1.1/DTD/svg11.dtd">
<!-- Generated by graphviz version 2.43.0 (0)
 -->
<!-- Title: Population::readParams Pages: 1 -->
<svg width="464pt" height="78pt"
 viewBox="0.00 0.00 464.00 77.50" xmlns="http://www.w3.org/2000/svg" xmlns:xlink="http://www.w3.org/1999/xlink">
<g id="graph0" class="graph" transform="scale(1 1) rotate(0) translate(4 73.5)">
<title>Population::readParams</title>
<!-- Node1 -->
<g id="node1" class="node">
<title>Node1</title>
<g id="a_node1"><a xlink:title=" ">
<polygon fill="#bfbfbf" stroke="black" points="323,-22.5 323,-41.5 456,-41.5 456,-22.5 323,-22.5"/>
<text text-anchor="middle" x="389.5" y="-29.5" font-family="Helvetica,sans-Serif" font-size="10.00">Population::readParams</text>
</a>
</g>
</g>
<!-- Node2 -->
<g id="node2" class="node">
<title>Node2</title>
<g id="a_node2"><a xlink:href="classSimulator.html#ad02f472064f23f03ae474cb4904d2c56" target="_top" xlink:title=" ">
<polygon fill="none" stroke="black" points="126,-39 126,-69 287,-69 287,-39 126,-39"/>
<text text-anchor="start" x="134" y="-57" font-family="Helvetica,sans-Serif" font-size="10.00">Simulator::equilibriateNatural</text>
<text text-anchor="middle" x="206.5" y="-46" font-family="Helvetica,sans-Serif" font-size="10.00">Population</text>
</a>
</g>
</g>
<!-- Node1&#45;&gt;Node2 -->
<g id="edge1" class="edge">
<title>Node1&#45;&gt;Node2</title>
<path fill="none" stroke="midnightblue" d="M312.96,-41.18C304.41,-42.22 295.67,-43.28 287.06,-44.33"/>
<polygon fill="midnightblue" stroke="midnightblue" points="313.39,-44.65 322.9,-39.97 312.55,-37.71 313.39,-44.65"/>
</g>
<!-- Node4 -->
<g id="node4" class="node">
<title>Node4</title>
<g id="a_node4"><a xlink:href="fish__glue_8cpp.html#ab96ae82277aa9004dc603b77512c7265" target="_top" xlink:title=" ">
<polygon fill="none" stroke="black" points="161.5,-0.5 161.5,-19.5 251.5,-19.5 251.5,-0.5 161.5,-0.5"/>
<text text-anchor="middle" x="206.5" y="-7.5" font-family="Helvetica,sans-Serif" font-size="10.00">RCPP_MODULE</text>
</a>
</g>
</g>
<!-- Node1&#45;&gt;Node4 -->
<g id="edge3" class="edge">
<title>Node1&#45;&gt;Node4</title>
<path fill="none" stroke="midnightblue" d="M312.79,-22.8C291.97,-20.27 270.08,-17.61 251.68,-15.37"/>
<polygon fill="midnightblue" stroke="midnightblue" points="312.55,-26.29 322.9,-24.03 313.39,-19.35 312.55,-26.29"/>
</g>
<!-- Node3 -->
<g id="node3" class="node">
<title>Node3</title>
<g id="a_node3"><a xlink:href="fish__glue_8cpp.html#addebb0997b0e49067d8784c9954b7b96" target="_top" xlink:title=" ">
<polygon fill="none" stroke="black" points="0,-44.5 0,-63.5 90,-63.5 90,-44.5 0,-44.5"/>
<text text-anchor="middle" x="45" y="-51.5" font-family="Helvetica,sans-Serif" font-size="10.00">RCPP_MODULE</text>
</a>
</g>
</g>
<!-- Node2&#45;&gt;Node3 -->
<g id="edge2" class="edge">
<title>Node2&#45;&gt;Node3</title>
<path fill="none" stroke="midnightblue" d="M115.68,-54C106.8,-54 98.1,-54 90.01,-54"/>
<polygon fill="midnightblue" stroke="midnightblue" points="115.75,-57.5 125.75,-54 115.75,-50.5 115.75,-57.5"/>
</g>
</g>
</svg>
