<?xml version="1.0" encoding="UTF-8" standalone="no"?>
<!DOCTYPE svg PUBLIC "-//W3C//DTD SVG 1.1//EN"
 "http://www.w3.org/Graphics/SVG/1.1/DTD/svg11.dtd">
<!-- Generated by graphviz version 2.43.0 (0)
 -->
<!-- Title: Simulator::simulate_multi_r Pages: 1 -->
<svg width="825pt" height="363pt"
 viewBox="0.00 0.00 825.00 363.00" xmlns="http://www.w3.org/2000/svg" xmlns:xlink="http://www.w3.org/1999/xlink">
<g id="graph0" class="graph" transform="scale(1 1) rotate(0) translate(4 359)">
<title>Simulator::simulate_multi_r</title>
<!-- Node1 -->
<g id="node1" class="node">
<title>Node1</title>
<g id="a_node1"><a xlink:title=" ">
<polygon fill="#bfbfbf" stroke="black" points="0,-146 0,-176 113,-176 113,-146 0,-146"/>
<text text-anchor="start" x="8" y="-164" font-family="Helvetica,sans-Serif" font-size="10.00">Simulator::simulate</text>
<text text-anchor="middle" x="56.5" y="-153" font-family="Helvetica,sans-Serif" font-size="10.00">_multi_r</text>
</a>
</g>
</g>
<!-- Node2 -->
<g id="node2" class="node">
<title>Node2</title>
<g id="a_node2"><a xlink:href="classSimulator.html#a7540919b97662be7deacba9194c0ed60" target="_top" xlink:title=" ">
<polygon fill="none" stroke="black" points="149,-168 149,-198 262,-198 262,-168 149,-168"/>
<text text-anchor="start" x="157" y="-186" font-family="Helvetica,sans-Serif" font-size="10.00">Simulator::simulate</text>
<text text-anchor="middle" x="205.5" y="-175" font-family="Helvetica,sans-Serif" font-size="10.00">_multi</text>
</a>
</g>
</g>
<!-- Node1&#45;&gt;Node2 -->
<g id="edge1" class="edge">
<title>Node1&#45;&gt;Node2</title>
<path fill="none" stroke="midnightblue" d="M113.07,-169.32C121.49,-170.58 130.24,-171.89 138.84,-173.17"/>
<polygon fill="midnightblue" stroke="midnightblue" points="138.44,-176.65 148.85,-174.67 139.48,-169.73 138.44,-176.65"/>
</g>
<!-- Node18 -->
<g id="node18" class="node">
<title>Node18</title>
<g id="a_node18"><a xlink:href="simulator_8cpp.html#a2a2aec343c151304395503fd8b1d6a78" target="_top" xlink:title=" ">
<polygon fill="none" stroke="black" points="166,-129.5 166,-148.5 245,-148.5 245,-129.5 166,-129.5"/>
<text text-anchor="middle" x="205.5" y="-136.5" font-family="Helvetica,sans-Serif" font-size="10.00">tensor2array</text>
</a>
</g>
</g>
<!-- Node1&#45;&gt;Node18 -->
<g id="edge23" class="edge">
<title>Node1&#45;&gt;Node18</title>
<path fill="none" stroke="midnightblue" d="M113.07,-152.68C127.07,-150.59 141.99,-148.36 155.63,-146.31"/>
<polygon fill="midnightblue" stroke="midnightblue" points="156.4,-149.74 165.77,-144.8 155.36,-142.82 156.4,-149.74"/>
</g>
<!-- Node3 -->
<g id="node3" class="node">
<title>Node3</title>
<g id="a_node3"><a xlink:href="classPopulation.html#af15e7ba23b161c710d4013204b542cb6" target="_top" xlink:title=" ">
<polygon fill="none" stroke="black" points="519,-335.5 519,-354.5 632,-354.5 632,-335.5 519,-335.5"/>
<text text-anchor="middle" x="575.5" y="-342.5" font-family="Helvetica,sans-Serif" font-size="10.00">Population::calcSSB</text>
</a>
</g>
</g>
<!-- Node2&#45;&gt;Node3 -->
<g id="edge2" class="edge">
<title>Node2&#45;&gt;Node3</title>
<path fill="none" stroke="midnightblue" d="M220.31,-198.14C237.12,-215.74 267.1,-244.59 298,-262 364.83,-299.66 450.59,-321.96 508.75,-333.8"/>
<polygon fill="midnightblue" stroke="midnightblue" points="508.43,-337.3 518.92,-335.82 509.79,-330.44 508.43,-337.3"/>
</g>
<!-- Node4 -->
<g id="node4" class="node">
<title>Node4</title>
<g id="a_node4"><a xlink:href="classPopulation.html#a42c4b04852bdda937e50f82952106af1" target="_top" xlink:title=" ">
<polygon fill="none" stroke="black" points="498,-297.5 498,-316.5 653,-316.5 653,-297.5 498,-297.5"/>
<text text-anchor="middle" x="575.5" y="-304.5" font-family="Helvetica,sans-Serif" font-size="10.00">Population::fishableBiomass</text>
</a>
</g>
</g>
<!-- Node2&#45;&gt;Node4 -->
<g id="edge3" class="edge">
<title>Node2&#45;&gt;Node4</title>
<path fill="none" stroke="midnightblue" d="M241.48,-198.16C258.44,-205.35 279.17,-213.9 298,-221 384.53,-253.64 406.15,-262.33 495,-288 503.52,-290.46 512.62,-292.85 521.5,-295.06"/>
<polygon fill="midnightblue" stroke="midnightblue" points="520.85,-298.51 531.4,-297.47 522.51,-291.71 520.85,-298.51"/>
</g>
<!-- Node6 -->
<g id="node6" class="node">
<title>Node6</title>
<g id="a_node6"><a xlink:href="classPopulation.html#a012ef586a78b4e7c2082634b316072d0" target="_top" xlink:title=" ">
<polygon fill="none" stroke="black" points="333.5,-154.5 333.5,-173.5 423.5,-173.5 423.5,-154.5 333.5,-154.5"/>
<text text-anchor="middle" x="378.5" y="-161.5" font-family="Helvetica,sans-Serif" font-size="10.00">Population::init</text>
</a>
</g>
</g>
<!-- Node2&#45;&gt;Node6 -->
<g id="edge5" class="edge">
<title>Node2&#45;&gt;Node6</title>
<path fill="none" stroke="midnightblue" d="M262.02,-176.83C281.7,-174.64 303.81,-172.19 323.37,-170.01"/>
<polygon fill="midnightblue" stroke="midnightblue" points="323.79,-173.49 333.35,-168.91 323.02,-166.53 323.79,-173.49"/>
</g>
<!-- Node10 -->
<g id="node10" class="node">
<title>Node10</title>
<g id="a_node10"><a xlink:href="classPopulation.html#a20696fa511c914e7c8837acb2a254b33" target="_top" xlink:title=" ">
<polygon fill="none" stroke="black" points="302,-116.5 302,-135.5 455,-135.5 455,-116.5 302,-116.5"/>
<text text-anchor="middle" x="378.5" y="-123.5" font-family="Helvetica,sans-Serif" font-size="10.00">Population::set_harvestProp</text>
</a>
</g>
</g>
<!-- Node2&#45;&gt;Node10 -->
<g id="edge9" class="edge">
<title>Node2&#45;&gt;Node10</title>
<path fill="none" stroke="midnightblue" d="M239.06,-167.99C256.33,-160.42 278.04,-151.48 298,-145 305.77,-142.48 314.07,-140.12 322.26,-138"/>
<polygon fill="midnightblue" stroke="midnightblue" points="323.32,-141.34 332.17,-135.52 321.62,-134.55 323.32,-141.34"/>
</g>
<!-- Node11 -->
<g id="node11" class="node">
<title>Node11</title>
<g id="a_node11"><a xlink:href="classPopulation.html#ae8a6455aa45e65bf8bd41312f9caa328" target="_top" xlink:title=" ">
<polygon fill="none" stroke="black" points="298,-78.5 298,-97.5 459,-97.5 459,-78.5 298,-78.5"/>
<text text-anchor="middle" x="378.5" y="-85.5" font-family="Helvetica,sans-Serif" font-size="10.00">Population::set_superFishSize</text>
</a>
</g>
</g>
<!-- Node2&#45;&gt;Node11 -->
<g id="edge10" class="edge">
<title>Node2&#45;&gt;Node11</title>
<path fill="none" stroke="midnightblue" d="M246.84,-167.96C252.21,-165.08 257.43,-161.77 262,-158 283.4,-140.35 275.03,-122.56 298,-107 301.06,-104.93 304.32,-103.08 307.7,-101.44"/>
<polygon fill="midnightblue" stroke="midnightblue" points="309.07,-104.66 316.92,-97.53 306.34,-98.21 309.07,-104.66"/>
</g>
<!-- Node12 -->
<g id="node12" class="node">
<title>Node12</title>
<g id="a_node12"><a xlink:href="classPopulation.html#a81c19d1c80cfb1d54d3872ecdefd0872" target="_top" xlink:title=" ">
<polygon fill="none" stroke="black" points="324.5,-192.5 324.5,-211.5 432.5,-211.5 432.5,-192.5 324.5,-192.5"/>
<text text-anchor="middle" x="378.5" y="-199.5" font-family="Helvetica,sans-Serif" font-size="10.00">Population::update</text>
</a>
</g>
</g>
<!-- Node2&#45;&gt;Node12 -->
<g id="edge11" class="edge">
<title>Node2&#45;&gt;Node12</title>
<path fill="none" stroke="midnightblue" d="M262.02,-189.17C278.57,-191.01 296.85,-193.04 313.88,-194.93"/>
<polygon fill="midnightblue" stroke="midnightblue" points="313.97,-198.46 324.3,-196.09 314.74,-191.51 313.97,-198.46"/>
</g>
<!-- Node5 -->
<g id="node5" class="node">
<title>Node5</title>
<g id="a_node5"><a xlink:href="classPopulation.html#ac8ed845bbda25c937a2fd76b3788e987" target="_top" xlink:title=" ">
<polygon fill="none" stroke="black" points="692,-180.5 692,-199.5 817,-199.5 817,-180.5 692,-180.5"/>
<text text-anchor="middle" x="754.5" y="-187.5" font-family="Helvetica,sans-Serif" font-size="10.00">Population::selectivity</text>
</a>
</g>
</g>
<!-- Node4&#45;&gt;Node5 -->
<g id="edge4" class="edge">
<title>Node4&#45;&gt;Node5</title>
<path fill="none" stroke="midnightblue" d="M633.56,-297.45C641.37,-294.98 649.07,-291.89 656,-288 692.24,-267.67 724.06,-230.01 740.86,-207.76"/>
<polygon fill="midnightblue" stroke="midnightblue" points="743.81,-209.66 746.92,-199.53 738.17,-205.51 743.81,-209.66"/>
</g>
<!-- Node7 -->
<g id="node7" class="node">
<title>Node7</title>
<g id="a_node7"><a xlink:href="classFish.html#adf85bf269f1651352506e371ffd2cecc" target="_top" xlink:title="Initializes the fish, i.e., initializes parameters and sets the initial state (age = 1,...">
<polygon fill="none" stroke="black" points="547,-19.5 547,-38.5 604,-38.5 604,-19.5 547,-19.5"/>
<text text-anchor="middle" x="575.5" y="-26.5" font-family="Helvetica,sans-Serif" font-size="10.00">Fish::init</text>
</a>
</g>
</g>
<!-- Node6&#45;&gt;Node7 -->
<g id="edge6" class="edge">
<title>Node6&#45;&gt;Node7</title>
<path fill="none" stroke="midnightblue" d="M423.87,-161.06C436.4,-158.33 449.26,-153.48 459,-145 492.12,-116.17 462.74,-82.78 495,-53 506.45,-42.43 522.4,-36.51 537.01,-33.19"/>
<polygon fill="midnightblue" stroke="midnightblue" points="537.68,-36.63 546.84,-31.29 536.35,-29.76 537.68,-36.63"/>
</g>
<!-- Node8 -->
<g id="node8" class="node">
<title>Node8</title>
<g id="a_node8"><a xlink:href="namespacefish.html#a0ab1c4842d702a0a40bd04f26793ce12" target="_top" xlink:title="Compute the nonlinear growth increment , as follows.">
<polygon fill="none" stroke="black" points="712,-0.5 712,-19.5 797,-19.5 797,-0.5 712,-0.5"/>
<text text-anchor="middle" x="754.5" y="-7.5" font-family="Helvetica,sans-Serif" font-size="10.00">fish::dl_power</text>
</a>
</g>
</g>
<!-- Node7&#45;&gt;Node8 -->
<g id="edge7" class="edge">
<title>Node7&#45;&gt;Node8</title>
<path fill="none" stroke="midnightblue" d="M604.16,-26.03C630.21,-23.23 669.91,-18.97 701.83,-15.55"/>
<polygon fill="midnightblue" stroke="midnightblue" points="702.32,-19.01 711.89,-14.47 701.57,-12.05 702.32,-19.01"/>
</g>
<!-- Node9 -->
<g id="node9" class="node">
<title>Node9</title>
<g id="a_node9"><a xlink:href="namespacefish.html#a1d06e0358aca1be4446ed148b7ce3d84" target="_top" xlink:title="Compute the new length after growth assuming no allocation to reproduction.">
<polygon fill="none" stroke="black" points="696.5,-38.5 696.5,-57.5 812.5,-57.5 812.5,-38.5 696.5,-38.5"/>
<text text-anchor="middle" x="754.5" y="-45.5" font-family="Helvetica,sans-Serif" font-size="10.00">fish::length_juvenile</text>
</a>
</g>
</g>
<!-- Node7&#45;&gt;Node9 -->
<g id="edge8" class="edge">
<title>Node7&#45;&gt;Node9</title>
<path fill="none" stroke="midnightblue" d="M604.16,-31.97C626.16,-34.33 657.89,-37.74 686.45,-40.8"/>
<polygon fill="midnightblue" stroke="midnightblue" points="686.08,-44.28 696.4,-41.87 686.83,-37.32 686.08,-44.28"/>
</g>
<!-- Node12&#45;&gt;Node3 -->
<g id="edge12" class="edge">
<title>Node12&#45;&gt;Node3</title>
<path fill="none" stroke="midnightblue" d="M385.44,-211.53C400.59,-234.98 443.15,-295.78 495,-326 499.48,-328.61 504.31,-330.87 509.28,-332.81"/>
<polygon fill="midnightblue" stroke="midnightblue" points="508.4,-336.21 518.99,-336.18 510.69,-329.6 508.4,-336.21"/>
</g>
<!-- Node12&#45;&gt;Node4 -->
<g id="edge16" class="edge">
<title>Node12&#45;&gt;Node4</title>
<path fill="none" stroke="midnightblue" d="M392.04,-211.79C419.55,-233.19 483.68,-282.71 495,-288 500.27,-290.46 505.89,-292.63 511.62,-294.52"/>
<polygon fill="midnightblue" stroke="midnightblue" points="510.72,-297.91 521.31,-297.46 512.75,-291.21 510.72,-297.91"/>
</g>
<!-- Node12&#45;&gt;Node5 -->
<g id="edge21" class="edge">
<title>Node12&#45;&gt;Node5</title>
<path fill="none" stroke="midnightblue" d="M432.64,-196.92C442.25,-193.99 451.56,-189.59 459,-183 493.42,-152.51 457.25,-112.26 495,-86 553.74,-45.14 590.34,-57.55 656,-86 696.3,-103.46 727.57,-146.68 742.98,-171.56"/>
<polygon fill="midnightblue" stroke="midnightblue" points="740.12,-173.61 748.25,-180.4 746.13,-170.02 740.12,-173.61"/>
</g>
<!-- Node12&#45;&gt;Node7 -->
<g id="edge19" class="edge">
<title>Node12&#45;&gt;Node7</title>
<path fill="none" stroke="midnightblue" d="M432.69,-197.54C442.41,-194.57 451.75,-190 459,-183 502.14,-141.37 453.1,-95.88 495,-53 505.97,-41.77 521.99,-35.76 536.78,-32.55"/>
<polygon fill="midnightblue" stroke="midnightblue" points="537.53,-35.97 546.74,-30.74 536.28,-29.08 537.53,-35.97"/>
</g>
<!-- Node13 -->
<g id="node13" class="node">
<title>Node13</title>
<g id="a_node13"><a xlink:href="classPopulation.html#ae942ef70cc9f4dfc40b5d843baf40b1e" target="_top" xlink:title=" ">
<polygon fill="none" stroke="black" points="519,-221.5 519,-240.5 632,-240.5 632,-221.5 519,-221.5"/>
<text text-anchor="middle" x="575.5" y="-228.5" font-family="Helvetica,sans-Serif" font-size="10.00">Population::calcTSB</text>
</a>
</g>
</g>
<!-- Node12&#45;&gt;Node13 -->
<g id="edge13" class="edge">
<title>Node12&#45;&gt;Node13</title>
<path fill="none" stroke="midnightblue" d="M432.53,-209.89C456.02,-213.38 483.9,-217.53 508.7,-221.21"/>
<polygon fill="midnightblue" stroke="midnightblue" points="508.35,-224.7 518.76,-222.71 509.38,-217.78 508.35,-224.7"/>
</g>
<!-- Node14 -->
<g id="node14" class="node">
<title>Node14</title>
<g id="a_node14"><a xlink:href="classPopulation.html#ad1840de2f00982c35d48b91a1d27ae13" target="_top" xlink:title=" ">
<polygon fill="none" stroke="black" points="525,-259.5 525,-278.5 626,-278.5 626,-259.5 525,-259.5"/>
<text text-anchor="middle" x="575.5" y="-266.5" font-family="Helvetica,sans-Serif" font-size="10.00">Population::effort</text>
</a>
</g>
</g>
<!-- Node12&#45;&gt;Node14 -->
<g id="edge14" class="edge">
<title>Node12&#45;&gt;Node14</title>
<path fill="none" stroke="midnightblue" d="M399.99,-211.69C422.79,-222.19 460.93,-238.93 495,-250 502.77,-252.53 511.07,-254.88 519.26,-257"/>
<polygon fill="midnightblue" stroke="midnightblue" points="518.61,-260.45 529.17,-259.48 520.32,-253.66 518.61,-260.45"/>
</g>
<!-- Node15 -->
<g id="node15" class="node">
<title>Node15</title>
<g id="a_node15"><a xlink:href="classPopulation.html#a1118025c1079ababec03f80a14837c5c" target="_top" xlink:title=" ">
<polygon fill="none" stroke="black" points="495,-96 495,-126 656,-126 656,-96 495,-96"/>
<text text-anchor="start" x="503" y="-114" font-family="Helvetica,sans-Serif" font-size="10.00">Population::fishableSpawning</text>
<text text-anchor="middle" x="575.5" y="-103" font-family="Helvetica,sans-Serif" font-size="10.00">Biomass</text>
</a>
</g>
</g>
<!-- Node12&#45;&gt;Node15 -->
<g id="edge17" class="edge">
<title>Node12&#45;&gt;Node15</title>
<path fill="none" stroke="midnightblue" d="M432.89,-194.57C442.06,-191.83 451.14,-188.1 459,-183 481.07,-168.67 473.45,-151.09 495,-136 497.73,-134.09 500.6,-132.32 503.58,-130.69"/>
<polygon fill="midnightblue" stroke="midnightblue" points="505.36,-133.72 512.78,-126.16 502.27,-127.44 505.36,-133.72"/>
</g>
<!-- Node16 -->
<g id="node16" class="node">
<title>Node16</title>
<g id="a_node16"><a xlink:href="classPopulation.html#ac62fc3480d60b055cd1886649809c6a6" target="_top" xlink:title=" ">
<polygon fill="none" stroke="black" points="526.5,-183.5 526.5,-202.5 624.5,-202.5 624.5,-183.5 526.5,-183.5"/>
<text text-anchor="middle" x="575.5" y="-190.5" font-family="Helvetica,sans-Serif" font-size="10.00">Population::nfish</text>
</a>
</g>
</g>
<!-- Node12&#45;&gt;Node16 -->
<g id="edge20" class="edge">
<title>Node12&#45;&gt;Node16</title>
<path fill="none" stroke="midnightblue" d="M432.53,-199.55C458.41,-198.36 489.62,-196.92 516.18,-195.69"/>
<polygon fill="midnightblue" stroke="midnightblue" points="516.66,-199.17 526.49,-195.22 516.34,-192.18 516.66,-199.17"/>
</g>
<!-- Node17 -->
<g id="node17" class="node">
<title>Node17</title>
<g id="a_node17"><a xlink:href="classFish.html#aaa3e67187a587efc7a99485b4a6ee248" target="_top" xlink:title=" ">
<polygon fill="none" stroke="black" points="532,-145.5 532,-164.5 619,-164.5 619,-145.5 532,-145.5"/>
<text text-anchor="middle" x="575.5" y="-152.5" font-family="Helvetica,sans-Serif" font-size="10.00">Fish::set_traits</text>
</a>
</g>
</g>
<!-- Node12&#45;&gt;Node17 -->
<g id="edge22" class="edge">
<title>Node12&#45;&gt;Node17</title>
<path fill="none" stroke="midnightblue" d="M419.96,-192.42C432.48,-189.43 446.32,-186.1 459,-183 475.02,-179.08 478.98,-177.92 495,-174 504.41,-171.7 514.46,-169.27 524.13,-166.95"/>
<polygon fill="midnightblue" stroke="midnightblue" points="525.13,-170.32 534.04,-164.58 523.5,-163.51 525.13,-170.32"/>
</g>
<!-- Node14&#45;&gt;Node5 -->
<g id="edge15" class="edge">
<title>Node14&#45;&gt;Node5</title>
<path fill="none" stroke="midnightblue" d="M626.04,-259.73C636.14,-257.13 646.56,-253.91 656,-250 684.21,-238.3 713.68,-219.03 732.74,-205.49"/>
<polygon fill="midnightblue" stroke="midnightblue" points="734.91,-208.24 740.96,-199.54 730.81,-202.57 734.91,-208.24"/>
</g>
<!-- Node15&#45;&gt;Node5 -->
<g id="edge18" class="edge">
<title>Node15&#45;&gt;Node5</title>
<path fill="none" stroke="midnightblue" d="M629.64,-126.08C638.55,-129.07 647.62,-132.41 656,-136 682.13,-147.21 710.39,-163.34 729.72,-175.06"/>
<polygon fill="midnightblue" stroke="midnightblue" points="728.09,-178.16 738.45,-180.41 731.75,-172.2 728.09,-178.16"/>
</g>
</g>
</svg>
