<?xml version="1.0" encoding="UTF-8" standalone="no"?>
<!DOCTYPE svg PUBLIC "-//W3C//DTD SVG 1.1//EN"
 "http://www.w3.org/Graphics/SVG/1.1/DTD/svg11.dtd">
<!-- Generated by graphviz version 2.43.0 (0)
 -->
<!-- Title: Population::nfish Pages: 1 -->
<svg width="785pt" height="214pt"
 viewBox="0.00 0.00 785.00 214.00" xmlns="http://www.w3.org/2000/svg" xmlns:xlink="http://www.w3.org/1999/xlink">
<g id="graph0" class="graph" transform="scale(1 1) rotate(0) translate(4 210)">
<title>Population::nfish</title>
<!-- Node1 -->
<g id="node1" class="node">
<title>Node1</title>
<g id="a_node1"><a xlink:title=" ">
<polygon fill="#bfbfbf" stroke="black" points="679,-153.5 679,-172.5 777,-172.5 777,-153.5 679,-153.5"/>
<text text-anchor="middle" x="728" y="-160.5" font-family="Helvetica,sans-Serif" font-size="10.00">Population::nfish</text>
</a>
</g>
</g>
<!-- Node2 -->
<g id="node2" class="node">
<title>Node2</title>
<g id="a_node2"><a xlink:href="fish__glue_8cpp.html#ab96ae82277aa9004dc603b77512c7265" target="_top" xlink:title=" ">
<polygon fill="none" stroke="black" points="161.5,-186.5 161.5,-205.5 251.5,-205.5 251.5,-186.5 161.5,-186.5"/>
<text text-anchor="middle" x="206.5" y="-193.5" font-family="Helvetica,sans-Serif" font-size="10.00">RCPP_MODULE</text>
</a>
</g>
</g>
<!-- Node1&#45;&gt;Node2 -->
<g id="edge1" class="edge">
<title>Node1&#45;&gt;Node2</title>
<path fill="none" stroke="midnightblue" d="M668.62,-172.65C622.67,-179.77 556.94,-188.9 499,-193 411.41,-199.19 308.65,-198.37 251.52,-197.19"/>
<polygon fill="midnightblue" stroke="midnightblue" points="669.35,-176.08 678.69,-171.08 668.27,-169.17 669.35,-176.08"/>
</g>
<!-- Node3 -->
<g id="node3" class="node">
<title>Node3</title>
<g id="a_node3"><a xlink:href="classPopulation.html#a81c19d1c80cfb1d54d3872ecdefd0872" target="_top" xlink:title=" ">
<polygon fill="none" stroke="black" points="535,-115.5 535,-134.5 643,-134.5 643,-115.5 535,-115.5"/>
<text text-anchor="middle" x="589" y="-122.5" font-family="Helvetica,sans-Serif" font-size="10.00">Population::update</text>
</a>
</g>
</g>
<!-- Node1&#45;&gt;Node3 -->
<g id="edge2" class="edge">
<title>Node1&#45;&gt;Node3</title>
<path fill="none" stroke="midnightblue" d="M682.59,-150.68C663.77,-145.46 642.16,-139.47 624.56,-134.59"/>
<polygon fill="midnightblue" stroke="midnightblue" points="681.86,-154.11 692.43,-153.41 683.73,-147.37 681.86,-154.11"/>
</g>
<!-- Node3&#45;&gt;Node2 -->
<g id="edge7" class="edge">
<title>Node3&#45;&gt;Node2</title>
<path fill="none" stroke="midnightblue" d="M562.64,-139.42C545.28,-148.59 521.43,-159.86 499,-166 413.62,-189.37 309.64,-194.83 251.78,-195.93"/>
<polygon fill="midnightblue" stroke="midnightblue" points="564.44,-142.42 571.57,-134.58 561.11,-136.27 564.44,-142.42"/>
</g>
<!-- Node4 -->
<g id="node4" class="node">
<title>Node4</title>
<g id="a_node4"><a xlink:href="classPopulation.html#aa7eba257f23cbc12aa3673ce012fb2cb" target="_top" xlink:title=" ">
<polygon fill="none" stroke="black" points="323,-137.5 323,-156.5 499,-156.5 499,-137.5 323,-137.5"/>
<text text-anchor="middle" x="411" y="-144.5" font-family="Helvetica,sans-Serif" font-size="10.00">Population::noFishingEquilibriate</text>
</a>
</g>
</g>
<!-- Node3&#45;&gt;Node4 -->
<g id="edge3" class="edge">
<title>Node3&#45;&gt;Node4</title>
<path fill="none" stroke="midnightblue" d="M524.53,-132.93C512.73,-134.41 500.29,-135.96 488.15,-137.48"/>
<polygon fill="midnightblue" stroke="midnightblue" points="525.23,-136.37 534.72,-131.66 524.36,-129.43 525.23,-136.37"/>
</g>
<!-- Node7 -->
<g id="node7" class="node">
<title>Node7</title>
<g id="a_node7"><a xlink:href="classSimulator.html#a7540919b97662be7deacba9194c0ed60" target="_top" xlink:title=" ">
<polygon fill="none" stroke="black" points="354.5,-88 354.5,-118 467.5,-118 467.5,-88 354.5,-88"/>
<text text-anchor="start" x="362.5" y="-106" font-family="Helvetica,sans-Serif" font-size="10.00">Simulator::simulate</text>
<text text-anchor="middle" x="411" y="-95" font-family="Helvetica,sans-Serif" font-size="10.00">_multi</text>
</a>
</g>
</g>
<!-- Node3&#45;&gt;Node7 -->
<g id="edge8" class="edge">
<title>Node3&#45;&gt;Node7</title>
<path fill="none" stroke="midnightblue" d="M524.55,-117.07C505.9,-114.74 485.65,-112.21 467.54,-109.94"/>
<polygon fill="midnightblue" stroke="midnightblue" points="524.36,-120.57 534.72,-118.34 525.23,-113.63 524.36,-120.57"/>
</g>
<!-- Node9 -->
<g id="node9" class="node">
<title>Node9</title>
<g id="a_node9"><a xlink:href="classSimulator.html#ab21d1c6b0af00931f9a8fa5e0b6d417f" target="_top" xlink:title=" ">
<polygon fill="none" stroke="black" points="354.5,-39 354.5,-69 467.5,-69 467.5,-39 354.5,-39"/>
<text text-anchor="start" x="362.5" y="-57" font-family="Helvetica,sans-Serif" font-size="10.00">Simulator::simulate</text>
<text text-anchor="middle" x="411" y="-46" font-family="Helvetica,sans-Serif" font-size="10.00">_multi_2d</text>
</a>
</g>
</g>
<!-- Node3&#45;&gt;Node9 -->
<g id="edge11" class="edge">
<title>Node3&#45;&gt;Node9</title>
<path fill="none" stroke="midnightblue" d="M562.74,-110.24C545.26,-100.46 521.23,-87.84 499,-79 489.07,-75.05 478.28,-71.44 467.78,-68.26"/>
<polygon fill="midnightblue" stroke="midnightblue" points="561.3,-113.45 571.73,-115.35 564.76,-107.36 561.3,-113.45"/>
</g>
<!-- Node11 -->
<g id="node11" class="node">
<title>Node11</title>
<g id="a_node11"><a xlink:href="classSimulator.html#aa6e6cfd73fd8d3200e7f515b473e88f2" target="_top" xlink:title=" ">
<polygon fill="none" stroke="black" points="350,-0.5 350,-19.5 472,-19.5 472,-0.5 350,-0.5"/>
<text text-anchor="middle" x="411" y="-7.5" font-family="Helvetica,sans-Serif" font-size="10.00">Simulator::simulate_r</text>
</a>
</g>
</g>
<!-- Node3&#45;&gt;Node11 -->
<g id="edge14" class="edge">
<title>Node3&#45;&gt;Node11</title>
<path fill="none" stroke="midnightblue" d="M576.37,-106.85C561.28,-84.85 532.84,-48.34 499,-29 490.81,-24.32 481.59,-20.79 472.28,-18.13"/>
<polygon fill="midnightblue" stroke="midnightblue" points="573.54,-108.91 582,-115.29 579.37,-105.03 573.54,-108.91"/>
</g>
<!-- Node4&#45;&gt;Node2 -->
<g id="edge6" class="edge">
<title>Node4&#45;&gt;Node2</title>
<path fill="none" stroke="midnightblue" d="M361.52,-158.88C338.88,-164.41 311.57,-171.07 287,-177 274.17,-180.1 260.17,-183.45 247.54,-186.47"/>
<polygon fill="midnightblue" stroke="midnightblue" points="362.35,-162.28 371.23,-156.5 360.69,-155.48 362.35,-162.28"/>
</g>
<!-- Node5 -->
<g id="node5" class="node">
<title>Node5</title>
<g id="a_node5"><a xlink:href="classSimulator.html#ad02f472064f23f03ae474cb4904d2c56" target="_top" xlink:title=" ">
<polygon fill="none" stroke="black" points="126,-137 126,-167 287,-167 287,-137 126,-137"/>
<text text-anchor="start" x="134" y="-155" font-family="Helvetica,sans-Serif" font-size="10.00">Simulator::equilibriateNatural</text>
<text text-anchor="middle" x="206.5" y="-144" font-family="Helvetica,sans-Serif" font-size="10.00">Population</text>
</a>
</g>
</g>
<!-- Node4&#45;&gt;Node5 -->
<g id="edge4" class="edge">
<title>Node4&#45;&gt;Node5</title>
<path fill="none" stroke="midnightblue" d="M312.86,-149.4C304.24,-149.61 295.58,-149.83 287.12,-150.03"/>
<polygon fill="midnightblue" stroke="midnightblue" points="313.04,-152.9 322.95,-149.15 312.86,-145.9 313.04,-152.9"/>
</g>
<!-- Node6 -->
<g id="node6" class="node">
<title>Node6</title>
<g id="a_node6"><a xlink:href="fish__glue_8cpp.html#addebb0997b0e49067d8784c9954b7b96" target="_top" xlink:title=" ">
<polygon fill="none" stroke="black" points="0,-68.5 0,-87.5 90,-87.5 90,-68.5 0,-68.5"/>
<text text-anchor="middle" x="45" y="-75.5" font-family="Helvetica,sans-Serif" font-size="10.00">RCPP_MODULE</text>
</a>
</g>
</g>
<!-- Node5&#45;&gt;Node6 -->
<g id="edge5" class="edge">
<title>Node5&#45;&gt;Node6</title>
<path fill="none" stroke="midnightblue" d="M139.34,-133.51C134.77,-131.78 130.29,-129.95 126,-128 100.94,-116.63 74.32,-98.65 58.98,-87.63"/>
<polygon fill="midnightblue" stroke="midnightblue" points="138.19,-136.82 148.79,-136.91 140.56,-130.23 138.19,-136.82"/>
</g>
<!-- Node8 -->
<g id="node8" class="node">
<title>Node8</title>
<g id="a_node8"><a xlink:href="classSimulator.html#a1a5454ee4736819d709398b225d7876d" target="_top" xlink:title=" ">
<polygon fill="none" stroke="black" points="150,-88 150,-118 263,-118 263,-88 150,-88"/>
<text text-anchor="start" x="158" y="-106" font-family="Helvetica,sans-Serif" font-size="10.00">Simulator::simulate</text>
<text text-anchor="middle" x="206.5" y="-95" font-family="Helvetica,sans-Serif" font-size="10.00">_multi_r</text>
</a>
</g>
</g>
<!-- Node7&#45;&gt;Node8 -->
<g id="edge9" class="edge">
<title>Node7&#45;&gt;Node8</title>
<path fill="none" stroke="midnightblue" d="M344.21,-103C318.09,-103 288.37,-103 263.33,-103"/>
<polygon fill="midnightblue" stroke="midnightblue" points="344.4,-106.5 354.4,-103 344.4,-99.5 344.4,-106.5"/>
</g>
<!-- Node8&#45;&gt;Node6 -->
<g id="edge10" class="edge">
<title>Node8&#45;&gt;Node6</title>
<path fill="none" stroke="midnightblue" d="M139.5,-92.66C122.89,-90.05 105.45,-87.32 90.2,-84.93"/>
<polygon fill="midnightblue" stroke="midnightblue" points="139.29,-96.17 149.71,-94.26 140.38,-89.25 139.29,-96.17"/>
</g>
<!-- Node10 -->
<g id="node10" class="node">
<title>Node10</title>
<g id="a_node10"><a xlink:href="classSimulator.html#af1b0a9562ecf0ad8f98d61576efba28b" target="_top" xlink:title=" ">
<polygon fill="none" stroke="black" points="150,-39 150,-69 263,-69 263,-39 150,-39"/>
<text text-anchor="start" x="158" y="-57" font-family="Helvetica,sans-Serif" font-size="10.00">Simulator::simulate</text>
<text text-anchor="middle" x="206.5" y="-46" font-family="Helvetica,sans-Serif" font-size="10.00">_multi_2d_r</text>
</a>
</g>
</g>
<!-- Node9&#45;&gt;Node10 -->
<g id="edge12" class="edge">
<title>Node9&#45;&gt;Node10</title>
<path fill="none" stroke="midnightblue" d="M344.21,-54C318.09,-54 288.37,-54 263.33,-54"/>
<polygon fill="midnightblue" stroke="midnightblue" points="344.4,-57.5 354.4,-54 344.4,-50.5 344.4,-57.5"/>
</g>
<!-- Node10&#45;&gt;Node6 -->
<g id="edge13" class="edge">
<title>Node10&#45;&gt;Node6</title>
<path fill="none" stroke="midnightblue" d="M139.5,-63.93C122.89,-66.43 105.45,-69.05 90.2,-71.35"/>
<polygon fill="midnightblue" stroke="midnightblue" points="140.35,-67.34 149.71,-62.39 139.31,-60.42 140.35,-67.34"/>
</g>
<!-- Node11&#45;&gt;Node6 -->
<g id="edge15" class="edge">
<title>Node11&#45;&gt;Node6</title>
<path fill="none" stroke="midnightblue" d="M339.74,-5.49C281.18,-3.88 196.3,-6.62 126,-29 99.31,-37.5 72.37,-56.7 57.57,-68.38"/>
<polygon fill="midnightblue" stroke="midnightblue" points="339.89,-8.99 349.99,-5.82 340.11,-2 339.89,-8.99"/>
</g>
</g>
</svg>
