<?xml version="1.0" encoding="UTF-8" standalone="no"?>
<!DOCTYPE svg PUBLIC "-//W3C//DTD SVG 1.1//EN"
 "http://www.w3.org/Graphics/SVG/1.1/DTD/svg11.dtd">
<!-- Generated by graphviz version 2.43.0 (0)
 -->
<!-- Title: Population::update Pages: 1 -->
<svg width="651pt" height="215pt"
 viewBox="0.00 0.00 651.00 214.50" xmlns="http://www.w3.org/2000/svg" xmlns:xlink="http://www.w3.org/1999/xlink">
<g id="graph0" class="graph" transform="scale(1 1) rotate(0) translate(4 210.5)">
<title>Population::update</title>
<!-- Node1 -->
<g id="node1" class="node">
<title>Node1</title>
<g id="a_node1"><a xlink:title=" ">
<polygon fill="#bfbfbf" stroke="black" points="535,-93.5 535,-112.5 643,-112.5 643,-93.5 535,-93.5"/>
<text text-anchor="middle" x="589" y="-100.5" font-family="Helvetica,sans-Serif" font-size="10.00">Population::update</text>
</a>
</g>
</g>
<!-- Node2 -->
<g id="node2" class="node">
<title>Node2</title>
<g id="a_node2"><a xlink:href="classPopulation.html#aa7eba257f23cbc12aa3673ce012fb2cb" target="_top" xlink:title=" ">
<polygon fill="none" stroke="black" points="323,-175.5 323,-194.5 499,-194.5 499,-175.5 323,-175.5"/>
<text text-anchor="middle" x="411" y="-182.5" font-family="Helvetica,sans-Serif" font-size="10.00">Population::noFishingEquilibriate</text>
</a>
</g>
</g>
<!-- Node1&#45;&gt;Node2 -->
<g id="edge1" class="edge">
<title>Node1&#45;&gt;Node2</title>
<path fill="none" stroke="midnightblue" d="M567.79,-118.78C550.4,-131.71 524.2,-149.64 499,-161 485.71,-166.99 470.6,-171.79 456.74,-175.48"/>
<polygon fill="midnightblue" stroke="midnightblue" points="570.17,-121.37 576.03,-112.55 565.94,-115.79 570.17,-121.37"/>
</g>
<!-- Node5 -->
<g id="node5" class="node">
<title>Node5</title>
<g id="a_node5"><a xlink:href="fish__glue_8cpp.html#ab96ae82277aa9004dc603b77512c7265" target="_top" xlink:title=" ">
<polygon fill="none" stroke="black" points="161.5,-137.5 161.5,-156.5 251.5,-156.5 251.5,-137.5 161.5,-137.5"/>
<text text-anchor="middle" x="206.5" y="-144.5" font-family="Helvetica,sans-Serif" font-size="10.00">RCPP_MODULE</text>
</a>
</g>
</g>
<!-- Node1&#45;&gt;Node5 -->
<g id="edge5" class="edge">
<title>Node1&#45;&gt;Node5</title>
<path fill="none" stroke="midnightblue" d="M550.05,-115.54C534.41,-120.22 516,-125.09 499,-128 412.27,-142.84 309.21,-146.29 251.79,-146.98"/>
<polygon fill="midnightblue" stroke="midnightblue" points="551.35,-118.81 559.89,-112.52 549.3,-112.11 551.35,-118.81"/>
</g>
<!-- Node6 -->
<g id="node6" class="node">
<title>Node6</title>
<g id="a_node6"><a xlink:href="classSimulator.html#a7540919b97662be7deacba9194c0ed60" target="_top" xlink:title=" ">
<polygon fill="none" stroke="black" points="354.5,-88 354.5,-118 467.5,-118 467.5,-88 354.5,-88"/>
<text text-anchor="start" x="362.5" y="-106" font-family="Helvetica,sans-Serif" font-size="10.00">Simulator::simulate</text>
<text text-anchor="middle" x="411" y="-95" font-family="Helvetica,sans-Serif" font-size="10.00">_multi</text>
</a>
</g>
</g>
<!-- Node1&#45;&gt;Node6 -->
<g id="edge6" class="edge">
<title>Node1&#45;&gt;Node6</title>
<path fill="none" stroke="midnightblue" d="M524.55,-103C505.9,-103 485.65,-103 467.54,-103"/>
<polygon fill="midnightblue" stroke="midnightblue" points="524.72,-106.5 534.72,-103 524.72,-99.5 524.72,-106.5"/>
</g>
<!-- Node8 -->
<g id="node8" class="node">
<title>Node8</title>
<g id="a_node8"><a xlink:href="classSimulator.html#ab21d1c6b0af00931f9a8fa5e0b6d417f" target="_top" xlink:title=" ">
<polygon fill="none" stroke="black" points="354.5,-39 354.5,-69 467.5,-69 467.5,-39 354.5,-39"/>
<text text-anchor="start" x="362.5" y="-57" font-family="Helvetica,sans-Serif" font-size="10.00">Simulator::simulate</text>
<text text-anchor="middle" x="411" y="-46" font-family="Helvetica,sans-Serif" font-size="10.00">_multi_2d</text>
</a>
</g>
</g>
<!-- Node1&#45;&gt;Node8 -->
<g id="edge9" class="edge">
<title>Node1&#45;&gt;Node8</title>
<path fill="none" stroke="midnightblue" d="M543.9,-90.72C520.28,-84.15 490.99,-75.99 466.01,-69.04"/>
<polygon fill="midnightblue" stroke="midnightblue" points="543.08,-94.13 553.65,-93.44 544.95,-87.38 543.08,-94.13"/>
</g>
<!-- Node10 -->
<g id="node10" class="node">
<title>Node10</title>
<g id="a_node10"><a xlink:href="classSimulator.html#aa6e6cfd73fd8d3200e7f515b473e88f2" target="_top" xlink:title=" ">
<polygon fill="none" stroke="black" points="350,-0.5 350,-19.5 472,-19.5 472,-0.5 350,-0.5"/>
<text text-anchor="middle" x="411" y="-7.5" font-family="Helvetica,sans-Serif" font-size="10.00">Simulator::simulate_r</text>
</a>
</g>
</g>
<!-- Node1&#45;&gt;Node10 -->
<g id="edge12" class="edge">
<title>Node1&#45;&gt;Node10</title>
<path fill="none" stroke="midnightblue" d="M571.9,-85.8C555.24,-69.04 527.67,-44.08 499,-30 490.24,-25.7 480.52,-22.3 470.84,-19.62"/>
<polygon fill="midnightblue" stroke="midnightblue" points="569.69,-88.54 579.16,-93.29 574.71,-83.67 569.69,-88.54"/>
</g>
<!-- Node3 -->
<g id="node3" class="node">
<title>Node3</title>
<g id="a_node3"><a xlink:href="classSimulator.html#ad02f472064f23f03ae474cb4904d2c56" target="_top" xlink:title=" ">
<polygon fill="none" stroke="black" points="126,-176 126,-206 287,-206 287,-176 126,-176"/>
<text text-anchor="start" x="134" y="-194" font-family="Helvetica,sans-Serif" font-size="10.00">Simulator::equilibriateNatural</text>
<text text-anchor="middle" x="206.5" y="-183" font-family="Helvetica,sans-Serif" font-size="10.00">Population</text>
</a>
</g>
</g>
<!-- Node2&#45;&gt;Node3 -->
<g id="edge2" class="edge">
<title>Node2&#45;&gt;Node3</title>
<path fill="none" stroke="midnightblue" d="M312.86,-187.88C304.24,-188.13 295.58,-188.39 287.12,-188.64"/>
<polygon fill="midnightblue" stroke="midnightblue" points="313.05,-191.37 322.95,-187.58 312.85,-184.38 313.05,-191.37"/>
</g>
<!-- Node2&#45;&gt;Node5 -->
<g id="edge4" class="edge">
<title>Node2&#45;&gt;Node5</title>
<path fill="none" stroke="midnightblue" d="M349.23,-173.6C317.9,-167.72 280.38,-160.68 251.82,-155.32"/>
<polygon fill="midnightblue" stroke="midnightblue" points="348.69,-177.06 359.16,-175.46 349.98,-170.18 348.69,-177.06"/>
</g>
<!-- Node4 -->
<g id="node4" class="node">
<title>Node4</title>
<g id="a_node4"><a xlink:href="fish__glue_8cpp.html#addebb0997b0e49067d8784c9954b7b96" target="_top" xlink:title=" ">
<polygon fill="none" stroke="black" points="0,-68.5 0,-87.5 90,-87.5 90,-68.5 0,-68.5"/>
<text text-anchor="middle" x="45" y="-75.5" font-family="Helvetica,sans-Serif" font-size="10.00">RCPP_MODULE</text>
</a>
</g>
</g>
<!-- Node3&#45;&gt;Node4 -->
<g id="edge3" class="edge">
<title>Node3&#45;&gt;Node4</title>
<path fill="none" stroke="midnightblue" d="M135.98,-171.63C132.52,-169.9 129.17,-168.03 126,-166 92.6,-144.65 64.3,-105.82 52.24,-87.75"/>
<polygon fill="midnightblue" stroke="midnightblue" points="134.79,-174.94 145.34,-175.89 137.68,-168.56 134.79,-174.94"/>
</g>
<!-- Node7 -->
<g id="node7" class="node">
<title>Node7</title>
<g id="a_node7"><a xlink:href="classSimulator.html#a1a5454ee4736819d709398b225d7876d" target="_top" xlink:title=" ">
<polygon fill="none" stroke="black" points="150,-88 150,-118 263,-118 263,-88 150,-88"/>
<text text-anchor="start" x="158" y="-106" font-family="Helvetica,sans-Serif" font-size="10.00">Simulator::simulate</text>
<text text-anchor="middle" x="206.5" y="-95" font-family="Helvetica,sans-Serif" font-size="10.00">_multi_r</text>
</a>
</g>
</g>
<!-- Node6&#45;&gt;Node7 -->
<g id="edge7" class="edge">
<title>Node6&#45;&gt;Node7</title>
<path fill="none" stroke="midnightblue" d="M344.21,-103C318.09,-103 288.37,-103 263.33,-103"/>
<polygon fill="midnightblue" stroke="midnightblue" points="344.4,-106.5 354.4,-103 344.4,-99.5 344.4,-106.5"/>
</g>
<!-- Node7&#45;&gt;Node4 -->
<g id="edge8" class="edge">
<title>Node7&#45;&gt;Node4</title>
<path fill="none" stroke="midnightblue" d="M139.5,-92.66C122.89,-90.05 105.45,-87.32 90.2,-84.93"/>
<polygon fill="midnightblue" stroke="midnightblue" points="139.29,-96.17 149.71,-94.26 140.38,-89.25 139.29,-96.17"/>
</g>
<!-- Node9 -->
<g id="node9" class="node">
<title>Node9</title>
<g id="a_node9"><a xlink:href="classSimulator.html#af1b0a9562ecf0ad8f98d61576efba28b" target="_top" xlink:title=" ">
<polygon fill="none" stroke="black" points="150,-39 150,-69 263,-69 263,-39 150,-39"/>
<text text-anchor="start" x="158" y="-57" font-family="Helvetica,sans-Serif" font-size="10.00">Simulator::simulate</text>
<text text-anchor="middle" x="206.5" y="-46" font-family="Helvetica,sans-Serif" font-size="10.00">_multi_2d_r</text>
</a>
</g>
</g>
<!-- Node8&#45;&gt;Node9 -->
<g id="edge10" class="edge">
<title>Node8&#45;&gt;Node9</title>
<path fill="none" stroke="midnightblue" d="M344.21,-54C318.09,-54 288.37,-54 263.33,-54"/>
<polygon fill="midnightblue" stroke="midnightblue" points="344.4,-57.5 354.4,-54 344.4,-50.5 344.4,-57.5"/>
</g>
<!-- Node9&#45;&gt;Node4 -->
<g id="edge11" class="edge">
<title>Node9&#45;&gt;Node4</title>
<path fill="none" stroke="midnightblue" d="M139.5,-63.93C122.89,-66.43 105.45,-69.05 90.2,-71.35"/>
<polygon fill="midnightblue" stroke="midnightblue" points="140.35,-67.34 149.71,-62.39 139.31,-60.42 140.35,-67.34"/>
</g>
<!-- Node10&#45;&gt;Node4 -->
<g id="edge13" class="edge">
<title>Node10&#45;&gt;Node4</title>
<path fill="none" stroke="midnightblue" d="M339.5,-5.96C280.98,-4.71 196.26,-7.85 126,-30 99.58,-38.33 72.76,-56.95 57.87,-68.39"/>
<polygon fill="midnightblue" stroke="midnightblue" points="339.66,-9.46 349.75,-6.23 339.85,-2.47 339.66,-9.46"/>
</g>
</g>
</svg>
