<?xml version="1.0" encoding="UTF-8" standalone="no"?>
<!DOCTYPE svg PUBLIC "-//W3C//DTD SVG 1.1//EN"
 "http://www.w3.org/Graphics/SVG/1.1/DTD/svg11.dtd">
<!-- Generated by graphviz version 2.43.0 (0)
 -->
<!-- Title: Population::set_minSizeLimit Pages: 1 -->
<svg width="599pt" height="116pt"
 viewBox="0.00 0.00 599.00 116.00" xmlns="http://www.w3.org/2000/svg" xmlns:xlink="http://www.w3.org/1999/xlink">
<g id="graph0" class="graph" transform="scale(1 1) rotate(0) translate(4 112)">
<title>Population::set_minSizeLimit</title>
<!-- Node1 -->
<g id="node1" class="node">
<title>Node1</title>
<g id="a_node1"><a xlink:title=" ">
<polygon fill="#bfbfbf" stroke="black" points="433,-44.5 433,-63.5 591,-63.5 591,-44.5 433,-44.5"/>
<text text-anchor="middle" x="512" y="-51.5" font-family="Helvetica,sans-Serif" font-size="10.00">Population::set_minSizeLimit</text>
</a>
</g>
</g>
<!-- Node2 -->
<g id="node2" class="node">
<title>Node2</title>
<g id="a_node2"><a xlink:href="fish__glue_8cpp.html#ab96ae82277aa9004dc603b77512c7265" target="_top" xlink:title=" ">
<polygon fill="none" stroke="black" points="295.5,-88.5 295.5,-107.5 385.5,-107.5 385.5,-88.5 295.5,-88.5"/>
<text text-anchor="middle" x="340.5" y="-95.5" font-family="Helvetica,sans-Serif" font-size="10.00">RCPP_MODULE</text>
</a>
</g>
</g>
<!-- Node1&#45;&gt;Node2 -->
<g id="edge1" class="edge">
<title>Node1&#45;&gt;Node2</title>
<path fill="none" stroke="midnightblue" d="M464.53,-66.06C437.35,-73.12 403.51,-81.9 378.21,-88.47"/>
<polygon fill="midnightblue" stroke="midnightblue" points="465.42,-69.45 474.22,-63.55 463.66,-62.67 465.42,-69.45"/>
</g>
<!-- Node3 -->
<g id="node3" class="node">
<title>Node3</title>
<g id="a_node3"><a xlink:href="classSimulator.html#ab21d1c6b0af00931f9a8fa5e0b6d417f" target="_top" xlink:title=" ">
<polygon fill="none" stroke="black" points="284,-39 284,-69 397,-69 397,-39 284,-39"/>
<text text-anchor="start" x="292" y="-57" font-family="Helvetica,sans-Serif" font-size="10.00">Simulator::simulate</text>
<text text-anchor="middle" x="340.5" y="-46" font-family="Helvetica,sans-Serif" font-size="10.00">_multi_2d</text>
</a>
</g>
</g>
<!-- Node1&#45;&gt;Node3 -->
<g id="edge2" class="edge">
<title>Node1&#45;&gt;Node3</title>
<path fill="none" stroke="midnightblue" d="M422.58,-54C413.96,-54 405.39,-54 397.23,-54"/>
<polygon fill="midnightblue" stroke="midnightblue" points="422.7,-57.5 432.7,-54 422.7,-50.5 422.7,-57.5"/>
</g>
<!-- Node6 -->
<g id="node6" class="node">
<title>Node6</title>
<g id="a_node6"><a xlink:href="classSimulator.html#aa6e6cfd73fd8d3200e7f515b473e88f2" target="_top" xlink:title=" ">
<polygon fill="none" stroke="black" points="126,-0.5 126,-19.5 248,-19.5 248,-0.5 126,-0.5"/>
<text text-anchor="middle" x="187" y="-7.5" font-family="Helvetica,sans-Serif" font-size="10.00">Simulator::simulate_r</text>
</a>
</g>
</g>
<!-- Node1&#45;&gt;Node6 -->
<g id="edge5" class="edge">
<title>Node1&#45;&gt;Node6</title>
<path fill="none" stroke="midnightblue" d="M463.27,-42.14C442.95,-37.45 418.93,-32.39 397,-29 347.13,-21.3 290.05,-16.37 248.15,-13.46"/>
<polygon fill="midnightblue" stroke="midnightblue" points="462.69,-45.6 473.22,-44.47 464.29,-38.78 462.69,-45.6"/>
</g>
<!-- Node4 -->
<g id="node4" class="node">
<title>Node4</title>
<g id="a_node4"><a xlink:href="classSimulator.html#af1b0a9562ecf0ad8f98d61576efba28b" target="_top" xlink:title=" ">
<polygon fill="none" stroke="black" points="130.5,-39 130.5,-69 243.5,-69 243.5,-39 130.5,-39"/>
<text text-anchor="start" x="138.5" y="-57" font-family="Helvetica,sans-Serif" font-size="10.00">Simulator::simulate</text>
<text text-anchor="middle" x="187" y="-46" font-family="Helvetica,sans-Serif" font-size="10.00">_multi_2d_r</text>
</a>
</g>
</g>
<!-- Node3&#45;&gt;Node4 -->
<g id="edge3" class="edge">
<title>Node3&#45;&gt;Node4</title>
<path fill="none" stroke="midnightblue" d="M273.93,-54C263.8,-54 253.43,-54 243.55,-54"/>
<polygon fill="midnightblue" stroke="midnightblue" points="273.95,-57.5 283.95,-54 273.95,-50.5 273.95,-57.5"/>
</g>
<!-- Node5 -->
<g id="node5" class="node">
<title>Node5</title>
<g id="a_node5"><a xlink:href="fish__glue_8cpp.html#addebb0997b0e49067d8784c9954b7b96" target="_top" xlink:title=" ">
<polygon fill="none" stroke="black" points="0,-22.5 0,-41.5 90,-41.5 90,-22.5 0,-22.5"/>
<text text-anchor="middle" x="45" y="-29.5" font-family="Helvetica,sans-Serif" font-size="10.00">RCPP_MODULE</text>
</a>
</g>
</g>
<!-- Node4&#45;&gt;Node5 -->
<g id="edge4" class="edge">
<title>Node4&#45;&gt;Node5</title>
<path fill="none" stroke="midnightblue" d="M120.21,-43.66C110.09,-42.07 99.85,-40.46 90.34,-38.97"/>
<polygon fill="midnightblue" stroke="midnightblue" points="119.84,-47.15 130.27,-45.24 120.93,-40.23 119.84,-47.15"/>
</g>
<!-- Node6&#45;&gt;Node5 -->
<g id="edge6" class="edge">
<title>Node6&#45;&gt;Node5</title>
<path fill="none" stroke="midnightblue" d="M115.91,-21.01C107.11,-22.4 98.31,-23.78 90.07,-25.07"/>
<polygon fill="midnightblue" stroke="midnightblue" points="116.48,-24.47 125.81,-19.46 115.39,-17.55 116.48,-24.47"/>
</g>
</g>
</svg>
