<?xml version="1.0" encoding="UTF-8" standalone="no"?>
<!DOCTYPE svg PUBLIC "-//W3C//DTD SVG 1.1//EN"
 "http://www.w3.org/Graphics/SVG/1.1/DTD/svg11.dtd">
<!-- Generated by graphviz version 2.43.0 (0)
 -->
<!-- Title: Tensor::avg_dim Pages: 1 -->
<svg width="393pt" height="186pt"
 viewBox="0.00 0.00 393.00 186.00" xmlns="http://www.w3.org/2000/svg" xmlns:xlink="http://www.w3.org/1999/xlink">
<g id="graph0" class="graph" transform="scale(1 1) rotate(0) translate(4 182)">
<title>Tensor::avg_dim</title>
<!-- Node1 -->
<g id="node1" class="node">
<title>Node1</title>
<g id="a_node1"><a xlink:title=" ">
<polygon fill="#bfbfbf" stroke="black" points="289,-79 289,-98 385,-98 385,-79 289,-79"/>
<text text-anchor="middle" x="337" y="-86" font-family="Helvetica,sans-Serif" font-size="10.00">Tensor::avg_dim</text>
</a>
</g>
</g>
<!-- Node2 -->
<g id="node2" class="node">
<title>Node2</title>
<g id="a_node2"><a xlink:href="classSimulator.html#addbc3da16a6f9c352eefbdc423419bca" target="_top" xlink:title=" ">
<polygon fill="none" stroke="black" points="132,-147.5 132,-177.5 247,-177.5 247,-147.5 132,-147.5"/>
<text text-anchor="start" x="140" y="-165.5" font-family="Helvetica,sans-Serif" font-size="10.00">Simulator::max_avg</text>
<text text-anchor="middle" x="189.5" y="-154.5" font-family="Helvetica,sans-Serif" font-size="10.00">_utils</text>
</a>
</g>
</g>
<!-- Node1&#45;&gt;Node2 -->
<g id="edge1" class="edge">
<title>Node1&#45;&gt;Node2</title>
<path fill="none" stroke="midnightblue" d="M312.92,-103.91C296.6,-114.42 273.97,-128.25 253,-138.5 246.52,-141.66 239.52,-144.7 232.62,-147.49"/>
<polygon fill="midnightblue" stroke="midnightblue" points="315.28,-106.55 321.74,-98.15 311.45,-100.68 315.28,-106.55"/>
</g>
<!-- Node4 -->
<g id="node4" class="node">
<title>Node4</title>
<g id="a_node4"><a xlink:href="classSimulator.html#a32eeba843e7526dceb75a2c6aebe240e" target="_top" xlink:title=" ">
<polygon fill="none" stroke="black" points="132,-98.5 132,-128.5 247,-128.5 247,-98.5 132,-98.5"/>
<text text-anchor="start" x="140" y="-116.5" font-family="Helvetica,sans-Serif" font-size="10.00">Simulator::max_avg</text>
<text text-anchor="middle" x="189.5" y="-105.5" font-family="Helvetica,sans-Serif" font-size="10.00">_utils_2d</text>
</a>
</g>
</g>
<!-- Node1&#45;&gt;Node4 -->
<g id="edge3" class="edge">
<title>Node1&#45;&gt;Node4</title>
<path fill="none" stroke="midnightblue" d="M278.59,-98.36C268.25,-100.14 257.47,-101.99 247.14,-103.77"/>
<polygon fill="midnightblue" stroke="midnightblue" points="279.5,-101.76 288.76,-96.62 278.31,-94.86 279.5,-101.76"/>
</g>
<!-- Node5 -->
<g id="node5" class="node">
<title>Node5</title>
<g id="a_node5"><a xlink:href="classSimulator.html#a1b66b7260ff50758884d1f7361a1b988" target="_top" xlink:title=" ">
<polygon fill="none" stroke="black" points="126,-49.5 126,-79.5 253,-79.5 253,-49.5 126,-49.5"/>
<text text-anchor="start" x="134" y="-67.5" font-family="Helvetica,sans-Serif" font-size="10.00">Simulator::stakeholder</text>
<text text-anchor="middle" x="189.5" y="-56.5" font-family="Helvetica,sans-Serif" font-size="10.00">_satisfaction</text>
</a>
</g>
</g>
<!-- Node1&#45;&gt;Node5 -->
<g id="edge5" class="edge">
<title>Node1&#45;&gt;Node5</title>
<path fill="none" stroke="midnightblue" d="M278.7,-79.05C270.3,-77.66 261.62,-76.23 253.12,-74.83"/>
<polygon fill="midnightblue" stroke="midnightblue" points="278.32,-82.53 288.76,-80.71 279.46,-75.63 278.32,-82.53"/>
</g>
<!-- Node6 -->
<g id="node6" class="node">
<title>Node6</title>
<g id="a_node6"><a xlink:href="classSimulator.html#aac842e5498b4c9731910ce9a93fa555d" target="_top" xlink:title=" ">
<polygon fill="none" stroke="black" points="126,-0.5 126,-30.5 253,-30.5 253,-0.5 126,-0.5"/>
<text text-anchor="start" x="134" y="-18.5" font-family="Helvetica,sans-Serif" font-size="10.00">Simulator::stakeholder</text>
<text text-anchor="middle" x="189.5" y="-7.5" font-family="Helvetica,sans-Serif" font-size="10.00">_satisfaction_2d</text>
</a>
</g>
</g>
<!-- Node1&#45;&gt;Node6 -->
<g id="edge7" class="edge">
<title>Node1&#45;&gt;Node6</title>
<path fill="none" stroke="midnightblue" d="M312.2,-73.51C295.87,-63.53 273.52,-50.48 253,-40.5 245.85,-37.03 238.09,-33.63 230.55,-30.52"/>
<polygon fill="midnightblue" stroke="midnightblue" points="310.71,-76.7 321.06,-78.98 314.39,-70.75 310.71,-76.7"/>
</g>
<!-- Node3 -->
<g id="node3" class="node">
<title>Node3</title>
<g id="a_node3"><a xlink:href="fish__glue_8cpp.html#addebb0997b0e49067d8784c9954b7b96" target="_top" xlink:title=" ">
<polygon fill="none" stroke="black" points="0,-79 0,-98 90,-98 90,-79 0,-79"/>
<text text-anchor="middle" x="45" y="-86" font-family="Helvetica,sans-Serif" font-size="10.00">RCPP_MODULE</text>
</a>
</g>
</g>
<!-- Node2&#45;&gt;Node3 -->
<g id="edge2" class="edge">
<title>Node2&#45;&gt;Node3</title>
<path fill="none" stroke="midnightblue" d="M136.78,-143.54C133.1,-141.92 129.47,-140.23 126,-138.5 101.52,-126.29 74.94,-108.73 59.41,-98"/>
<polygon fill="midnightblue" stroke="midnightblue" points="135.43,-146.77 146,-147.45 138.16,-140.32 135.43,-146.77"/>
</g>
<!-- Node4&#45;&gt;Node3 -->
<g id="edge4" class="edge">
<title>Node4&#45;&gt;Node3</title>
<path fill="none" stroke="midnightblue" d="M121.63,-101.77C110.98,-99.9 100.2,-98.01 90.24,-96.26"/>
<polygon fill="midnightblue" stroke="midnightblue" points="121.32,-105.27 131.77,-103.55 122.53,-98.37 121.32,-105.27"/>
</g>
<!-- Node5&#45;&gt;Node3 -->
<g id="edge6" class="edge">
<title>Node5&#45;&gt;Node3</title>
<path fill="none" stroke="midnightblue" d="M116.01,-76.71C107.15,-78.2 98.32,-79.69 90.06,-81.08"/>
<polygon fill="midnightblue" stroke="midnightblue" points="116.72,-80.14 126,-75.03 115.55,-73.24 116.72,-80.14"/>
</g>
<!-- Node6&#45;&gt;Node3 -->
<g id="edge8" class="edge">
<title>Node6&#45;&gt;Node3</title>
<path fill="none" stroke="midnightblue" d="M138.62,-34.61C134.31,-36.51 130.06,-38.49 126,-40.5 102.2,-52.3 76.06,-68.68 60.35,-78.93"/>
<polygon fill="midnightblue" stroke="midnightblue" points="140.25,-37.72 148.07,-30.57 137.5,-31.28 140.25,-37.72"/>
</g>
</g>
</svg>
