<?xml version="1.0" encoding="UTF-8" standalone="no"?>
<!DOCTYPE svg PUBLIC "-//W3C//DTD SVG 1.1//EN"
 "http://www.w3.org/Graphics/SVG/1.1/DTD/svg11.dtd">
<!-- Generated by graphviz version 2.43.0 (0)
 -->
<!-- Title: Tensor::transform_dim Pages: 1 -->
<svg width="561pt" height="235pt"
 viewBox="0.00 0.00 561.00 235.00" xmlns="http://www.w3.org/2000/svg" xmlns:xlink="http://www.w3.org/1999/xlink">
<g id="graph0" class="graph" transform="scale(1 1) rotate(0) translate(4 231)">
<title>Tensor::transform_dim</title>
<!-- Node1 -->
<g id="node1" class="node">
<title>Node1</title>
<g id="a_node1"><a xlink:title=" ">
<polygon fill="#bfbfbf" stroke="black" points="427,-104 427,-123 553,-123 553,-104 427,-104"/>
<text text-anchor="middle" x="490" y="-111" font-family="Helvetica,sans-Serif" font-size="10.00">Tensor::transform_dim</text>
</a>
</g>
</g>
<!-- Node2 -->
<g id="node2" class="node">
<title>Node2</title>
<g id="a_node2"><a xlink:href="classTensor.html#a3986d7a50faef0249a8d2da5b1f67a89" target="_top" xlink:title=" ">
<polygon fill="none" stroke="black" points="289,-104 289,-123 391,-123 391,-104 289,-104"/>
<text text-anchor="middle" x="340" y="-111" font-family="Helvetica,sans-Serif" font-size="10.00">Tensor::transform</text>
</a>
</g>
</g>
<!-- Node1&#45;&gt;Node2 -->
<g id="edge1" class="edge">
<title>Node1&#45;&gt;Node2</title>
<path fill="none" stroke="midnightblue" d="M416.6,-113.5C407.99,-113.5 399.35,-113.5 391.14,-113.5"/>
<polygon fill="midnightblue" stroke="midnightblue" points="416.66,-117 426.66,-113.5 416.66,-110 416.66,-117"/>
</g>
<!-- Node3 -->
<g id="node3" class="node">
<title>Node3</title>
<g id="a_node3"><a xlink:href="classSimulator.html#addbc3da16a6f9c352eefbdc423419bca" target="_top" xlink:title=" ">
<polygon fill="none" stroke="black" points="132,-196.5 132,-226.5 247,-226.5 247,-196.5 132,-196.5"/>
<text text-anchor="start" x="140" y="-214.5" font-family="Helvetica,sans-Serif" font-size="10.00">Simulator::max_avg</text>
<text text-anchor="middle" x="189.5" y="-203.5" font-family="Helvetica,sans-Serif" font-size="10.00">_utils</text>
</a>
</g>
</g>
<!-- Node2&#45;&gt;Node3 -->
<g id="edge2" class="edge">
<title>Node2&#45;&gt;Node3</title>
<path fill="none" stroke="midnightblue" d="M322.62,-130.67C306.26,-147.05 279.74,-171.52 253,-187.5 247.51,-190.78 241.5,-193.76 235.44,-196.41"/>
<polygon fill="midnightblue" stroke="midnightblue" points="325.3,-132.95 329.8,-123.36 320.3,-128.04 325.3,-132.95"/>
</g>
<!-- Node5 -->
<g id="node5" class="node">
<title>Node5</title>
<g id="a_node5"><a xlink:href="classSimulator.html#a32eeba843e7526dceb75a2c6aebe240e" target="_top" xlink:title=" ">
<polygon fill="none" stroke="black" points="132,-147.5 132,-177.5 247,-177.5 247,-147.5 132,-147.5"/>
<text text-anchor="start" x="140" y="-165.5" font-family="Helvetica,sans-Serif" font-size="10.00">Simulator::max_avg</text>
<text text-anchor="middle" x="189.5" y="-154.5" font-family="Helvetica,sans-Serif" font-size="10.00">_utils_2d</text>
</a>
</g>
</g>
<!-- Node2&#45;&gt;Node5 -->
<g id="edge4" class="edge">
<title>Node2&#45;&gt;Node5</title>
<path fill="none" stroke="midnightblue" d="M300.45,-126.22C280.76,-132.72 256.68,-140.66 236.07,-147.46"/>
<polygon fill="midnightblue" stroke="midnightblue" points="301.62,-129.52 310.02,-123.06 299.42,-122.87 301.62,-129.52"/>
</g>
<!-- Node6 -->
<g id="node6" class="node">
<title>Node6</title>
<g id="a_node6"><a xlink:href="classSimulator.html#a1b66b7260ff50758884d1f7361a1b988" target="_top" xlink:title=" ">
<polygon fill="none" stroke="black" points="126,-98.5 126,-128.5 253,-128.5 253,-98.5 126,-98.5"/>
<text text-anchor="start" x="134" y="-116.5" font-family="Helvetica,sans-Serif" font-size="10.00">Simulator::stakeholder</text>
<text text-anchor="middle" x="189.5" y="-105.5" font-family="Helvetica,sans-Serif" font-size="10.00">_satisfaction</text>
</a>
</g>
</g>
<!-- Node2&#45;&gt;Node6 -->
<g id="edge6" class="edge">
<title>Node2&#45;&gt;Node6</title>
<path fill="none" stroke="midnightblue" d="M278.62,-113.5C270.21,-113.5 261.55,-113.5 253.1,-113.5"/>
<polygon fill="midnightblue" stroke="midnightblue" points="278.72,-117 288.72,-113.5 278.72,-110 278.72,-117"/>
</g>
<!-- Node7 -->
<g id="node7" class="node">
<title>Node7</title>
<g id="a_node7"><a xlink:href="classSimulator.html#aac842e5498b4c9731910ce9a93fa555d" target="_top" xlink:title=" ">
<polygon fill="none" stroke="black" points="126,-49.5 126,-79.5 253,-79.5 253,-49.5 126,-49.5"/>
<text text-anchor="start" x="134" y="-67.5" font-family="Helvetica,sans-Serif" font-size="10.00">Simulator::stakeholder</text>
<text text-anchor="middle" x="189.5" y="-56.5" font-family="Helvetica,sans-Serif" font-size="10.00">_satisfaction_2d</text>
</a>
</g>
</g>
<!-- Node2&#45;&gt;Node7 -->
<g id="edge8" class="edge">
<title>Node2&#45;&gt;Node7</title>
<path fill="none" stroke="midnightblue" d="M300.45,-100.78C280.76,-94.28 256.68,-86.34 236.07,-79.54"/>
<polygon fill="midnightblue" stroke="midnightblue" points="299.42,-104.13 310.02,-103.94 301.62,-97.48 299.42,-104.13"/>
</g>
<!-- Node8 -->
<g id="node8" class="node">
<title>Node8</title>
<g id="a_node8"><a xlink:href="classSimulator.html#a27a15b20249b51c6a8ed65560b3b1e91" target="_top" xlink:title=" ">
<polygon fill="none" stroke="black" points="126,-0.5 126,-30.5 253,-30.5 253,-0.5 126,-0.5"/>
<text text-anchor="start" x="134" y="-18.5" font-family="Helvetica,sans-Serif" font-size="10.00">Simulator::stakeholder</text>
<text text-anchor="middle" x="189.5" y="-7.5" font-family="Helvetica,sans-Serif" font-size="10.00">_satisfaction_2d_t</text>
</a>
</g>
</g>
<!-- Node2&#45;&gt;Node8 -->
<g id="edge10" class="edge">
<title>Node2&#45;&gt;Node8</title>
<path fill="none" stroke="midnightblue" d="M322.53,-96.65C306.09,-80.57 279.53,-56.48 253,-40.5 246.89,-36.82 240.15,-33.48 233.42,-30.52"/>
<polygon fill="midnightblue" stroke="midnightblue" points="320.19,-99.26 329.74,-103.84 325.13,-94.3 320.19,-99.26"/>
</g>
<!-- Node4 -->
<g id="node4" class="node">
<title>Node4</title>
<g id="a_node4"><a xlink:href="fish__glue_8cpp.html#addebb0997b0e49067d8784c9954b7b96" target="_top" xlink:title=" ">
<polygon fill="none" stroke="black" points="0,-104 0,-123 90,-123 90,-104 0,-104"/>
<text text-anchor="middle" x="45" y="-111" font-family="Helvetica,sans-Serif" font-size="10.00">RCPP_MODULE</text>
</a>
</g>
</g>
<!-- Node3&#45;&gt;Node4 -->
<g id="edge3" class="edge">
<title>Node3&#45;&gt;Node4</title>
<path fill="none" stroke="midnightblue" d="M134.07,-192.08C131.29,-190.63 128.58,-189.11 126,-187.5 96.44,-169.11 68.05,-138.93 54.41,-123.4"/>
<polygon fill="midnightblue" stroke="midnightblue" points="132.6,-195.26 143.12,-196.45 135.63,-188.95 132.6,-195.26"/>
</g>
<!-- Node5&#45;&gt;Node4 -->
<g id="edge5" class="edge">
<title>Node5&#45;&gt;Node4</title>
<path fill="none" stroke="midnightblue" d="M134.9,-144.07C114.12,-136.92 91.21,-129.05 73.85,-123.08"/>
<polygon fill="midnightblue" stroke="midnightblue" points="133.99,-147.46 144.58,-147.4 136.26,-140.84 133.99,-147.46"/>
</g>
<!-- Node6&#45;&gt;Node4 -->
<g id="edge7" class="edge">
<title>Node6&#45;&gt;Node4</title>
<path fill="none" stroke="midnightblue" d="M115.73,-113.5C106.96,-113.5 98.23,-113.5 90.06,-113.5"/>
<polygon fill="midnightblue" stroke="midnightblue" points="116,-117 126,-113.5 116,-110 116,-117"/>
</g>
<!-- Node7&#45;&gt;Node4 -->
<g id="edge9" class="edge">
<title>Node7&#45;&gt;Node4</title>
<path fill="none" stroke="midnightblue" d="M134.9,-82.93C114.12,-90.08 91.21,-97.95 73.85,-103.92"/>
<polygon fill="midnightblue" stroke="midnightblue" points="136.26,-86.16 144.58,-79.6 133.99,-79.54 136.26,-86.16"/>
</g>
<!-- Node8&#45;&gt;Node4 -->
<g id="edge11" class="edge">
<title>Node8&#45;&gt;Node4</title>
<path fill="none" stroke="midnightblue" d="M135.75,-34.97C132.38,-36.71 129.1,-38.55 126,-40.5 96.69,-58.88 68.19,-88.55 54.47,-103.79"/>
<polygon fill="midnightblue" stroke="midnightblue" points="137.31,-38.11 144.81,-30.62 134.28,-31.8 137.31,-38.11"/>
</g>
</g>
</svg>
