<?xml version="1.0" encoding="UTF-8" standalone="no"?>
<!DOCTYPE svg PUBLIC "-//W3C//DTD SVG 1.1//EN"
 "http://www.w3.org/Graphics/SVG/1.1/DTD/svg11.dtd">
<!-- Generated by graphviz version 2.43.0 (0)
 -->
<!-- Title: Population::selectivity Pages: 1 -->
<svg width="1050pt" height="291pt"
 viewBox="0.00 0.00 1050.00 291.27" xmlns="http://www.w3.org/2000/svg" xmlns:xlink="http://www.w3.org/1999/xlink">
<g id="graph0" class="graph" transform="scale(1 1) rotate(0) translate(4 287.27)">
<title>Population::selectivity</title>
<!-- Node1 -->
<g id="node1" class="node">
<title>Node1</title>
<g id="a_node1"><a xlink:title=" ">
<polygon fill="#bfbfbf" stroke="black" points="917,-131.5 917,-150.5 1042,-150.5 1042,-131.5 917,-131.5"/>
<text text-anchor="middle" x="979.5" y="-138.5" font-family="Helvetica,sans-Serif" font-size="10.00">Population::selectivity</text>
</a>
</g>
</g>
<!-- Node2 -->
<g id="node2" class="node">
<title>Node2</title>
<g id="a_node2"><a xlink:href="classPopulation.html#ad1840de2f00982c35d48b91a1d27ae13" target="_top" xlink:title=" ">
<polygon fill="none" stroke="black" points="750,-131.5 750,-150.5 851,-150.5 851,-131.5 750,-131.5"/>
<text text-anchor="middle" x="800.5" y="-138.5" font-family="Helvetica,sans-Serif" font-size="10.00">Population::effort</text>
</a>
</g>
</g>
<!-- Node1&#45;&gt;Node2 -->
<g id="edge1" class="edge">
<title>Node1&#45;&gt;Node2</title>
<path fill="none" stroke="midnightblue" d="M906.4,-141C887.83,-141 868.26,-141 851.12,-141"/>
<polygon fill="midnightblue" stroke="midnightblue" points="906.59,-144.5 916.59,-141 906.59,-137.5 906.59,-144.5"/>
</g>
<!-- Node3 -->
<g id="node3" class="node">
<title>Node3</title>
<g id="a_node3"><a xlink:href="classPopulation.html#a81c19d1c80cfb1d54d3872ecdefd0872" target="_top" xlink:title=" ">
<polygon fill="none" stroke="black" points="555.5,-87.5 555.5,-106.5 663.5,-106.5 663.5,-87.5 555.5,-87.5"/>
<text text-anchor="middle" x="609.5" y="-94.5" font-family="Helvetica,sans-Serif" font-size="10.00">Population::update</text>
</a>
</g>
</g>
<!-- Node1&#45;&gt;Node3 -->
<g id="edge27" class="edge">
<title>Node1&#45;&gt;Node3</title>
<path fill="none" stroke="midnightblue" d="M961.67,-124.33C943.53,-107.64 912.93,-83.03 881,-73 795.99,-46.28 689.07,-72.1 638.92,-87.44"/>
<polygon fill="midnightblue" stroke="midnightblue" points="959.43,-127.03 969.09,-131.36 964.24,-121.95 959.43,-127.03"/>
</g>
<!-- Node7 -->
<g id="node7" class="node">
<title>Node7</title>
<g id="a_node7"><a xlink:href="fish__glue_8cpp.html#ab96ae82277aa9004dc603b77512c7265" target="_top" xlink:title=" ">
<polygon fill="none" stroke="black" points="161.5,-213.5 161.5,-232.5 251.5,-232.5 251.5,-213.5 161.5,-213.5"/>
<text text-anchor="middle" x="206.5" y="-220.5" font-family="Helvetica,sans-Serif" font-size="10.00">RCPP_MODULE</text>
</a>
</g>
</g>
<!-- Node1&#45;&gt;Node7 -->
<g id="edge26" class="edge">
<title>Node1&#45;&gt;Node7</title>
<path fill="none" stroke="midnightblue" d="M956.08,-155.98C936.78,-168.41 907.87,-185.95 881,-198 797,-235.67 774.85,-247.11 684,-262 525.67,-287.95 481.12,-291.23 323,-264 288.4,-258.04 250.42,-242.73 227.79,-232.6"/>
<polygon fill="midnightblue" stroke="midnightblue" points="958.02,-158.9 964.48,-150.5 954.19,-153.03 958.02,-158.9"/>
</g>
<!-- Node13 -->
<g id="node13" class="node">
<title>Node13</title>
<g id="a_node13"><a xlink:href="classPopulation.html#a42c4b04852bdda937e50f82952106af1" target="_top" xlink:title=" ">
<polygon fill="none" stroke="black" points="723,-169.5 723,-188.5 878,-188.5 878,-169.5 723,-169.5"/>
<text text-anchor="middle" x="800.5" y="-176.5" font-family="Helvetica,sans-Serif" font-size="10.00">Population::fishableBiomass</text>
</a>
</g>
</g>
<!-- Node1&#45;&gt;Node13 -->
<g id="edge16" class="edge">
<title>Node1&#45;&gt;Node13</title>
<path fill="none" stroke="midnightblue" d="M923.76,-152.75C898.73,-158.13 869.47,-164.41 845.84,-169.48"/>
<polygon fill="midnightblue" stroke="midnightblue" points="924.79,-156.11 933.84,-150.59 923.32,-149.27 924.79,-156.11"/>
</g>
<!-- Node15 -->
<g id="node15" class="node">
<title>Node15</title>
<g id="a_node15"><a xlink:href="classPopulation.html#a1118025c1079ababec03f80a14837c5c" target="_top" xlink:title=" ">
<polygon fill="none" stroke="black" points="720,-82 720,-112 881,-112 881,-82 720,-82"/>
<text text-anchor="start" x="728" y="-100" font-family="Helvetica,sans-Serif" font-size="10.00">Population::fishableSpawning</text>
<text text-anchor="middle" x="800.5" y="-89" font-family="Helvetica,sans-Serif" font-size="10.00">Biomass</text>
</a>
</g>
</g>
<!-- Node1&#45;&gt;Node15 -->
<g id="edge24" class="edge">
<title>Node1&#45;&gt;Node15</title>
<path fill="none" stroke="midnightblue" d="M930.12,-128.97C909.13,-123.75 884.31,-117.59 862.1,-112.07"/>
<polygon fill="midnightblue" stroke="midnightblue" points="929.54,-132.44 940.09,-131.45 931.23,-125.64 929.54,-132.44"/>
</g>
<!-- Node2&#45;&gt;Node3 -->
<g id="edge2" class="edge">
<title>Node2&#45;&gt;Node3</title>
<path fill="none" stroke="midnightblue" d="M748.49,-129.12C718.04,-122.04 679.89,-113.16 651.43,-106.53"/>
<polygon fill="midnightblue" stroke="midnightblue" points="747.96,-132.59 758.49,-131.45 749.54,-125.78 747.96,-132.59"/>
</g>
<!-- Node4 -->
<g id="node4" class="node">
<title>Node4</title>
<g id="a_node4"><a xlink:href="classPopulation.html#aa7eba257f23cbc12aa3673ce012fb2cb" target="_top" xlink:title=" ">
<polygon fill="none" stroke="black" points="323,-38.5 323,-57.5 499,-57.5 499,-38.5 323,-38.5"/>
<text text-anchor="middle" x="411" y="-45.5" font-family="Helvetica,sans-Serif" font-size="10.00">Population::noFishingEquilibriate</text>
</a>
</g>
</g>
<!-- Node3&#45;&gt;Node4 -->
<g id="edge3" class="edge">
<title>Node3&#45;&gt;Node4</title>
<path fill="none" stroke="midnightblue" d="M560.01,-84.91C526.16,-76.47 481.61,-65.36 450.26,-57.54"/>
<polygon fill="midnightblue" stroke="midnightblue" points="559.6,-88.41 570.15,-87.44 561.29,-81.62 559.6,-88.41"/>
</g>
<!-- Node3&#45;&gt;Node7 -->
<g id="edge7" class="edge">
<title>Node3&#45;&gt;Node7</title>
<path fill="none" stroke="midnightblue" d="M566.27,-84.95C506.16,-70.52 395.21,-54.26 323,-106 285.96,-132.54 320.8,-171.44 287,-202 277.26,-210.81 264.25,-216 251.58,-219.03"/>
<polygon fill="midnightblue" stroke="midnightblue" points="565.63,-88.4 576.18,-87.43 567.32,-81.61 565.63,-88.4"/>
</g>
<!-- Node8 -->
<g id="node8" class="node">
<title>Node8</title>
<g id="a_node8"><a xlink:href="classSimulator.html#a7540919b97662be7deacba9194c0ed60" target="_top" xlink:title=" ">
<polygon fill="none" stroke="black" points="354.5,-164 354.5,-194 467.5,-194 467.5,-164 354.5,-164"/>
<text text-anchor="start" x="362.5" y="-182" font-family="Helvetica,sans-Serif" font-size="10.00">Simulator::simulate</text>
<text text-anchor="middle" x="411" y="-171" font-family="Helvetica,sans-Serif" font-size="10.00">_multi</text>
</a>
</g>
</g>
<!-- Node3&#45;&gt;Node8 -->
<g id="edge8" class="edge">
<title>Node3&#45;&gt;Node8</title>
<path fill="none" stroke="midnightblue" d="M584.2,-111.85C562.49,-124.64 529.48,-142.89 499,-155 489.1,-158.93 478.32,-162.47 467.83,-165.54"/>
<polygon fill="midnightblue" stroke="midnightblue" points="586.26,-114.7 593.06,-106.57 582.68,-108.69 586.26,-114.7"/>
</g>
<!-- Node10 -->
<g id="node10" class="node">
<title>Node10</title>
<g id="a_node10"><a xlink:href="classSimulator.html#ab21d1c6b0af00931f9a8fa5e0b6d417f" target="_top" xlink:title=" ">
<polygon fill="none" stroke="black" points="354.5,-115 354.5,-145 467.5,-145 467.5,-115 354.5,-115"/>
<text text-anchor="start" x="362.5" y="-133" font-family="Helvetica,sans-Serif" font-size="10.00">Simulator::simulate</text>
<text text-anchor="middle" x="411" y="-122" font-family="Helvetica,sans-Serif" font-size="10.00">_multi_2d</text>
</a>
</g>
</g>
<!-- Node3&#45;&gt;Node10 -->
<g id="edge11" class="edge">
<title>Node3&#45;&gt;Node10</title>
<path fill="none" stroke="midnightblue" d="M545.22,-107.63C520.24,-111.82 491.79,-116.6 467.62,-120.66"/>
<polygon fill="midnightblue" stroke="midnightblue" points="546.04,-111.04 555.32,-105.93 544.88,-104.13 546.04,-111.04"/>
</g>
<!-- Node12 -->
<g id="node12" class="node">
<title>Node12</title>
<g id="a_node12"><a xlink:href="classSimulator.html#aa6e6cfd73fd8d3200e7f515b473e88f2" target="_top" xlink:title=" ">
<polygon fill="none" stroke="black" points="350,-0.5 350,-19.5 472,-19.5 472,-0.5 350,-0.5"/>
<text text-anchor="middle" x="411" y="-7.5" font-family="Helvetica,sans-Serif" font-size="10.00">Simulator::simulate_r</text>
</a>
</g>
</g>
<!-- Node3&#45;&gt;Node12 -->
<g id="edge14" class="edge">
<title>Node3&#45;&gt;Node12</title>
<path fill="none" stroke="midnightblue" d="M585.23,-81.96C555.86,-63.07 508.07,-32.68 499,-29 489.54,-25.16 479.18,-22.04 469.01,-19.52"/>
<polygon fill="midnightblue" stroke="midnightblue" points="583.39,-84.94 593.69,-87.41 587.18,-79.05 583.39,-84.94"/>
</g>
<!-- Node5 -->
<g id="node5" class="node">
<title>Node5</title>
<g id="a_node5"><a xlink:href="classSimulator.html#ad02f472064f23f03ae474cb4904d2c56" target="_top" xlink:title=" ">
<polygon fill="none" stroke="black" points="126,-54 126,-84 287,-84 287,-54 126,-54"/>
<text text-anchor="start" x="134" y="-72" font-family="Helvetica,sans-Serif" font-size="10.00">Simulator::equilibriateNatural</text>
<text text-anchor="middle" x="206.5" y="-61" font-family="Helvetica,sans-Serif" font-size="10.00">Population</text>
</a>
</g>
</g>
<!-- Node4&#45;&gt;Node5 -->
<g id="edge4" class="edge">
<title>Node4&#45;&gt;Node5</title>
<path fill="none" stroke="midnightblue" d="M312.86,-58.07C304.24,-58.97 295.58,-59.87 287.12,-60.74"/>
<polygon fill="midnightblue" stroke="midnightblue" points="313.36,-61.54 322.95,-57.03 312.64,-54.58 313.36,-61.54"/>
</g>
<!-- Node4&#45;&gt;Node7 -->
<g id="edge6" class="edge">
<title>Node4&#45;&gt;Node7</title>
<path fill="none" stroke="midnightblue" d="M336.36,-61.96C331.48,-64.74 326.95,-68.05 323,-72 280.59,-114.37 329.64,-159.86 287,-202 277.56,-211.33 264.48,-216.65 251.66,-219.65"/>
<polygon fill="midnightblue" stroke="midnightblue" points="338.02,-65.05 345.47,-57.52 334.95,-58.76 338.02,-65.05"/>
</g>
<!-- Node6 -->
<g id="node6" class="node">
<title>Node6</title>
<g id="a_node6"><a xlink:href="fish__glue_8cpp.html#addebb0997b0e49067d8784c9954b7b96" target="_top" xlink:title=" ">
<polygon fill="none" stroke="black" points="0,-87.5 0,-106.5 90,-106.5 90,-87.5 0,-87.5"/>
<text text-anchor="middle" x="45" y="-94.5" font-family="Helvetica,sans-Serif" font-size="10.00">RCPP_MODULE</text>
</a>
</g>
</g>
<!-- Node5&#45;&gt;Node6 -->
<g id="edge5" class="edge">
<title>Node5&#45;&gt;Node6</title>
<path fill="none" stroke="midnightblue" d="M115.68,-84.77C106.8,-86.33 98.1,-87.85 90.01,-89.27"/>
<polygon fill="midnightblue" stroke="midnightblue" points="116.51,-88.18 125.75,-83 115.3,-81.28 116.51,-88.18"/>
</g>
<!-- Node9 -->
<g id="node9" class="node">
<title>Node9</title>
<g id="a_node9"><a xlink:href="classSimulator.html#a1a5454ee4736819d709398b225d7876d" target="_top" xlink:title=" ">
<polygon fill="none" stroke="black" points="150,-162 150,-192 263,-192 263,-162 150,-162"/>
<text text-anchor="start" x="158" y="-180" font-family="Helvetica,sans-Serif" font-size="10.00">Simulator::simulate</text>
<text text-anchor="middle" x="206.5" y="-169" font-family="Helvetica,sans-Serif" font-size="10.00">_multi_r</text>
</a>
</g>
</g>
<!-- Node8&#45;&gt;Node9 -->
<g id="edge9" class="edge">
<title>Node8&#45;&gt;Node9</title>
<path fill="none" stroke="midnightblue" d="M344.21,-178.35C318.09,-178.09 288.37,-177.8 263.33,-177.55"/>
<polygon fill="midnightblue" stroke="midnightblue" points="344.36,-181.85 354.4,-178.45 344.43,-174.85 344.36,-181.85"/>
</g>
<!-- Node9&#45;&gt;Node6 -->
<g id="edge10" class="edge">
<title>Node9&#45;&gt;Node6</title>
<path fill="none" stroke="midnightblue" d="M145.08,-158.33C138.54,-155.76 132.07,-152.98 126,-150 100.57,-137.52 73.64,-118.24 58.41,-106.7"/>
<polygon fill="midnightblue" stroke="midnightblue" points="144.07,-161.69 154.67,-161.92 146.53,-155.13 144.07,-161.69"/>
</g>
<!-- Node11 -->
<g id="node11" class="node">
<title>Node11</title>
<g id="a_node11"><a xlink:href="classSimulator.html#af1b0a9562ecf0ad8f98d61576efba28b" target="_top" xlink:title=" ">
<polygon fill="none" stroke="black" points="150,-110 150,-140 263,-140 263,-110 150,-110"/>
<text text-anchor="start" x="158" y="-128" font-family="Helvetica,sans-Serif" font-size="10.00">Simulator::simulate</text>
<text text-anchor="middle" x="206.5" y="-117" font-family="Helvetica,sans-Serif" font-size="10.00">_multi_2d_r</text>
</a>
</g>
</g>
<!-- Node10&#45;&gt;Node11 -->
<g id="edge12" class="edge">
<title>Node10&#45;&gt;Node11</title>
<path fill="none" stroke="midnightblue" d="M344.21,-128.38C318.09,-127.73 288.37,-127 263.33,-126.38"/>
<polygon fill="midnightblue" stroke="midnightblue" points="344.31,-131.88 354.4,-128.63 344.49,-124.88 344.31,-131.88"/>
</g>
<!-- Node11&#45;&gt;Node6 -->
<g id="edge13" class="edge">
<title>Node11&#45;&gt;Node6</title>
<path fill="none" stroke="midnightblue" d="M139.5,-113.41C122.89,-110.5 105.45,-107.44 90.2,-104.76"/>
<polygon fill="midnightblue" stroke="midnightblue" points="139.26,-116.93 149.71,-115.21 140.47,-110.03 139.26,-116.93"/>
</g>
<!-- Node12&#45;&gt;Node6 -->
<g id="edge15" class="edge">
<title>Node12&#45;&gt;Node6</title>
<path fill="none" stroke="midnightblue" d="M339.7,-9.93C280.94,-11.9 195.79,-19.56 126,-45 98.92,-54.87 71.69,-75.35 57.03,-87.45"/>
<polygon fill="midnightblue" stroke="midnightblue" points="340.09,-13.42 349.99,-9.63 339.89,-6.42 340.09,-13.42"/>
</g>
<!-- Node13&#45;&gt;Node3 -->
<g id="edge23" class="edge">
<title>Node13&#45;&gt;Node3</title>
<path fill="none" stroke="midnightblue" d="M732.67,-165.97C728.28,-164.22 724.01,-162.24 720,-160 700.25,-148.95 703.07,-136.19 684,-124 672.43,-116.61 658.55,-110.84 645.98,-106.58"/>
<polygon fill="midnightblue" stroke="midnightblue" points="731.85,-169.39 742.45,-169.43 734.19,-162.79 731.85,-169.39"/>
</g>
<!-- Node13&#45;&gt;Node7 -->
<g id="edge19" class="edge">
<title>Node13&#45;&gt;Node7</title>
<path fill="none" stroke="midnightblue" d="M777.76,-194.38C755.44,-209.14 719.11,-230.42 684,-239 528.81,-276.9 336.79,-248.56 251.67,-232.32"/>
<polygon fill="midnightblue" stroke="midnightblue" points="779.82,-197.2 786.14,-188.7 775.9,-191.41 779.82,-197.2"/>
</g>
<!-- Node13&#45;&gt;Node8 -->
<g id="edge20" class="edge">
<title>Node13&#45;&gt;Node8</title>
<path fill="none" stroke="midnightblue" d="M712.59,-179C637.67,-179 531.76,-179 467.72,-179"/>
<polygon fill="midnightblue" stroke="midnightblue" points="712.94,-182.5 722.94,-179 712.94,-175.5 712.94,-182.5"/>
</g>
<!-- Node13&#45;&gt;Node10 -->
<g id="edge21" class="edge">
<title>Node13&#45;&gt;Node10</title>
<path fill="none" stroke="midnightblue" d="M713.96,-168.18C638.9,-158.69 531.96,-145.17 467.54,-137.02"/>
<polygon fill="midnightblue" stroke="midnightblue" points="713.97,-171.71 724.33,-169.49 714.84,-164.77 713.97,-171.71"/>
</g>
<!-- Node13&#45;&gt;Node12 -->
<g id="edge22" class="edge">
<title>Node13&#45;&gt;Node12</title>
<path fill="none" stroke="midnightblue" d="M726.34,-164.6C724.12,-163.2 722,-161.67 720,-160 689.45,-134.49 714.24,-103.88 684,-78 619.39,-22.68 581.68,-48.97 499,-29 485.62,-25.77 471.03,-22.49 457.69,-19.58"/>
<polygon fill="midnightblue" stroke="midnightblue" points="724.84,-167.76 735.31,-169.38 728.13,-161.59 724.84,-167.76"/>
</g>
<!-- Node14 -->
<g id="node14" class="node">
<title>Node14</title>
<g id="a_node14"><a xlink:href="classPopulation.html#a345497aa32fe22f73153a59f469c6a19" target="_top" xlink:title=" ">
<polygon fill="none" stroke="black" points="535,-210.5 535,-229.5 684,-229.5 684,-210.5 535,-210.5"/>
<text text-anchor="middle" x="609.5" y="-217.5" font-family="Helvetica,sans-Serif" font-size="10.00">Population::print_summary</text>
</a>
</g>
</g>
<!-- Node13&#45;&gt;Node14 -->
<g id="edge17" class="edge">
<title>Node13&#45;&gt;Node14</title>
<path fill="none" stroke="midnightblue" d="M745.73,-190.66C716.83,-196.93 681.66,-204.56 654.42,-210.47"/>
<polygon fill="midnightblue" stroke="midnightblue" points="746.63,-194.05 755.66,-188.51 745.15,-187.21 746.63,-194.05"/>
</g>
<!-- Node14&#45;&gt;Node7 -->
<g id="edge18" class="edge">
<title>Node14&#45;&gt;Node7</title>
<path fill="none" stroke="midnightblue" d="M524.77,-220.63C441.61,-221.25 317.33,-222.18 251.73,-222.67"/>
<polygon fill="midnightblue" stroke="midnightblue" points="524.98,-224.13 534.95,-220.55 524.92,-217.13 524.98,-224.13"/>
</g>
<!-- Node15&#45;&gt;Node3 -->
<g id="edge25" class="edge">
<title>Node15&#45;&gt;Node3</title>
<path fill="none" stroke="midnightblue" d="M709.61,-97C693.89,-97 678.01,-97 663.69,-97"/>
<polygon fill="midnightblue" stroke="midnightblue" points="709.89,-100.5 719.89,-97 709.89,-93.5 709.89,-100.5"/>
</g>
</g>
</svg>
