<?xml version="1.0" encoding="UTF-8" standalone="no"?>
<!DOCTYPE svg PUBLIC "-//W3C//DTD SVG 1.1//EN"
 "http://www.w3.org/Graphics/SVG/1.1/DTD/svg11.dtd">
<!-- Generated by graphviz version 2.43.0 (0)
 -->
<!-- Title: Simulator::stakeholder_satisfaction_2d_t Pages: 1 -->
<svg width="566pt" height="182pt"
 viewBox="0.00 0.00 566.00 181.58" xmlns="http://www.w3.org/2000/svg" xmlns:xlink="http://www.w3.org/1999/xlink">
<g id="graph0" class="graph" transform="scale(1 1) rotate(0) translate(4 177.58)">
<title>Simulator::stakeholder_satisfaction_2d_t</title>
<!-- Node1 -->
<g id="node1" class="node">
<title>Node1</title>
<g id="a_node1"><a xlink:title=" ">
<polygon fill="#bfbfbf" stroke="black" points="0,-90 0,-120 127,-120 127,-90 0,-90"/>
<text text-anchor="start" x="8" y="-108" font-family="Helvetica,sans-Serif" font-size="10.00">Simulator::stakeholder</text>
<text text-anchor="middle" x="63.5" y="-97" font-family="Helvetica,sans-Serif" font-size="10.00">_satisfaction_2d_t</text>
</a>
</g>
</g>
<!-- Node2 -->
<g id="node2" class="node">
<title>Node2</title>
<g id="a_node2"><a xlink:href="classTensor.html#a447f65c9ada7c9357091fba66ad73d10" target="_top" xlink:title=" ">
<polygon fill="none" stroke="black" points="322.5,-152.5 322.5,-171.5 433.5,-171.5 433.5,-152.5 322.5,-152.5"/>
<text text-anchor="middle" x="378" y="-159.5" font-family="Helvetica,sans-Serif" font-size="10.00">Tensor::accumulate</text>
</a>
</g>
</g>
<!-- Node1&#45;&gt;Node2 -->
<g id="edge1" class="edge">
<title>Node1&#45;&gt;Node2</title>
<path fill="none" stroke="midnightblue" d="M83.5,-120.11C102.4,-134.09 132.85,-153.91 163,-162 211.83,-175.11 269.22,-174.28 312.27,-170.63"/>
<polygon fill="midnightblue" stroke="midnightblue" points="312.7,-174.1 322.34,-169.7 312.06,-167.13 312.7,-174.1"/>
</g>
<!-- Node3 -->
<g id="node3" class="node">
<title>Node3</title>
<g id="a_node3"><a xlink:href="classTensor.html#abf7346c2dbd5e6b195cfe9b66e5049e8" target="_top" xlink:title=" ">
<polygon fill="none" stroke="black" points="171,-133.5 171,-152.5 271,-152.5 271,-133.5 171,-133.5"/>
<text text-anchor="middle" x="221" y="-140.5" font-family="Helvetica,sans-Serif" font-size="10.00">Tensor::max_dim</text>
</a>
</g>
</g>
<!-- Node1&#45;&gt;Node3 -->
<g id="edge2" class="edge">
<title>Node1&#45;&gt;Node3</title>
<path fill="none" stroke="midnightblue" d="M125.96,-120.02C140.85,-123.66 156.58,-127.5 170.82,-130.98"/>
<polygon fill="midnightblue" stroke="midnightblue" points="170.35,-134.47 180.89,-133.44 172.01,-127.67 170.35,-134.47"/>
</g>
<!-- Node4 -->
<g id="node4" class="node">
<title>Node4</title>
<g id="a_node4"><a xlink:href="classTensor.html#ae4622cf6280102eb5103cfe4c88c1ad8" target="_top" xlink:title=" ">
<polygon fill="none" stroke="black" points="163,-95.5 163,-114.5 279,-114.5 279,-95.5 163,-95.5"/>
<text text-anchor="middle" x="221" y="-102.5" font-family="Helvetica,sans-Serif" font-size="10.00">Tensor::repeat_inner</text>
</a>
</g>
</g>
<!-- Node1&#45;&gt;Node4 -->
<g id="edge4" class="edge">
<title>Node1&#45;&gt;Node4</title>
<path fill="none" stroke="midnightblue" d="M127.3,-105C135.69,-105 144.32,-105 152.78,-105"/>
<polygon fill="midnightblue" stroke="midnightblue" points="152.99,-108.5 162.99,-105 152.99,-101.5 152.99,-108.5"/>
</g>
<!-- Node5 -->
<g id="node5" class="node">
<title>Node5</title>
<g id="a_node5"><a xlink:href="classTensor.html#aedee003837348391c5f8d0bc788bf20f" target="_top" xlink:title=" ">
<polygon fill="none" stroke="black" points="163,-57.5 163,-76.5 279,-76.5 279,-57.5 163,-57.5"/>
<text text-anchor="middle" x="221" y="-64.5" font-family="Helvetica,sans-Serif" font-size="10.00">Tensor::repeat_outer</text>
</a>
</g>
</g>
<!-- Node1&#45;&gt;Node5 -->
<g id="edge5" class="edge">
<title>Node1&#45;&gt;Node5</title>
<path fill="none" stroke="midnightblue" d="M125.96,-89.98C140.85,-86.34 156.58,-82.5 170.82,-79.02"/>
<polygon fill="midnightblue" stroke="midnightblue" points="172.01,-82.33 180.89,-76.56 170.35,-75.53 172.01,-82.33"/>
</g>
<!-- Node6 -->
<g id="node6" class="node">
<title>Node6</title>
<g id="a_node6"><a xlink:href="classTensor.html#a3986d7a50faef0249a8d2da5b1f67a89" target="_top" xlink:title=" ">
<polygon fill="none" stroke="black" points="170,-19.5 170,-38.5 272,-38.5 272,-19.5 170,-19.5"/>
<text text-anchor="middle" x="221" y="-26.5" font-family="Helvetica,sans-Serif" font-size="10.00">Tensor::transform</text>
</a>
</g>
</g>
<!-- Node1&#45;&gt;Node6 -->
<g id="edge6" class="edge">
<title>Node1&#45;&gt;Node6</title>
<path fill="none" stroke="midnightblue" d="M87.67,-89.79C107.19,-77.42 136.16,-60.09 163,-48 167.75,-45.86 172.82,-43.83 177.9,-41.95"/>
<polygon fill="midnightblue" stroke="midnightblue" points="179.34,-45.16 187.61,-38.53 177.01,-38.55 179.34,-45.16"/>
</g>
<!-- Node3&#45;&gt;Node2 -->
<g id="edge3" class="edge">
<title>Node3&#45;&gt;Node2</title>
<path fill="none" stroke="midnightblue" d="M271.04,-149.01C284.17,-150.62 298.57,-152.39 312.41,-154.08"/>
<polygon fill="midnightblue" stroke="midnightblue" points="312,-157.56 322.35,-155.3 312.85,-150.61 312,-157.56"/>
</g>
<!-- Node7 -->
<g id="node7" class="node">
<title>Node7</title>
<g id="a_node7"><a xlink:href="classTensor.html#a862952dc137707abdccd06cf9cd5855b" target="_top" xlink:title=" ">
<polygon fill="none" stroke="black" points="337.5,-38.5 337.5,-57.5 418.5,-57.5 418.5,-38.5 337.5,-38.5"/>
<text text-anchor="middle" x="378" y="-45.5" font-family="Helvetica,sans-Serif" font-size="10.00">Tensor::plane</text>
</a>
</g>
</g>
<!-- Node6&#45;&gt;Node7 -->
<g id="edge7" class="edge">
<title>Node6&#45;&gt;Node7</title>
<path fill="none" stroke="midnightblue" d="M272.32,-35.17C289.91,-37.32 309.64,-39.74 327.18,-41.89"/>
<polygon fill="midnightblue" stroke="midnightblue" points="326.88,-45.38 337.23,-43.12 327.73,-38.43 326.88,-45.38"/>
</g>
<!-- Node9 -->
<g id="node9" class="node">
<title>Node9</title>
<g id="a_node9"><a xlink:href="classTensor.html#a1a9aea97717d687b7d501842efb546d4" target="_top" xlink:title=" ">
<polygon fill="none" stroke="black" points="315,-0.5 315,-19.5 441,-19.5 441,-0.5 315,-0.5"/>
<text text-anchor="middle" x="378" y="-7.5" font-family="Helvetica,sans-Serif" font-size="10.00">Tensor::transform_dim</text>
</a>
</g>
</g>
<!-- Node6&#45;&gt;Node9 -->
<g id="edge9" class="edge">
<title>Node6&#45;&gt;Node9</title>
<path fill="none" stroke="midnightblue" d="M272.32,-22.83C282.68,-21.56 293.77,-20.2 304.73,-18.86"/>
<polygon fill="midnightblue" stroke="midnightblue" points="305.23,-22.32 314.73,-17.63 304.38,-15.38 305.23,-22.32"/>
</g>
<!-- Node8 -->
<g id="node8" class="node">
<title>Node8</title>
<g id="a_node8"><a xlink:href="classTensor.html#a90a6b28226bcd1be7090fd2f8782d0b1" target="_top" xlink:title=" ">
<polygon fill="none" stroke="black" points="477,-38.5 477,-57.5 558,-57.5 558,-38.5 477,-38.5"/>
<text text-anchor="middle" x="517.5" y="-45.5" font-family="Helvetica,sans-Serif" font-size="10.00">Tensor::index</text>
</a>
</g>
</g>
<!-- Node7&#45;&gt;Node8 -->
<g id="edge8" class="edge">
<title>Node7&#45;&gt;Node8</title>
<path fill="none" stroke="midnightblue" d="M418.77,-48C433.74,-48 450.94,-48 466.71,-48"/>
<polygon fill="midnightblue" stroke="midnightblue" points="466.82,-51.5 476.82,-48 466.82,-44.5 466.82,-51.5"/>
</g>
</g>
</svg>
