<?xml version="1.0" encoding="UTF-8" standalone="no"?>
<!DOCTYPE svg PUBLIC "-//W3C//DTD SVG 1.1//EN"
 "http://www.w3.org/Graphics/SVG/1.1/DTD/svg11.dtd">
<!-- Generated by graphviz version 2.43.0 (0)
 -->
<!-- Title: Simulator::simulate_multi_2d_r Pages: 1 -->
<svg width="822pt" height="436pt"
 viewBox="0.00 0.00 822.00 436.00" xmlns="http://www.w3.org/2000/svg" xmlns:xlink="http://www.w3.org/1999/xlink">
<g id="graph0" class="graph" transform="scale(1 1) rotate(0) translate(4 432)">
<title>Simulator::simulate_multi_2d_r</title>
<!-- Node1 -->
<g id="node1" class="node">
<title>Node1</title>
<g id="a_node1"><a xlink:title=" ">
<polygon fill="#bfbfbf" stroke="black" points="0,-87 0,-117 113,-117 113,-87 0,-87"/>
<text text-anchor="start" x="8" y="-105" font-family="Helvetica,sans-Serif" font-size="10.00">Simulator::simulate</text>
<text text-anchor="middle" x="56.5" y="-94" font-family="Helvetica,sans-Serif" font-size="10.00">_multi_2d_r</text>
</a>
</g>
</g>
<!-- Node2 -->
<g id="node2" class="node">
<title>Node2</title>
<g id="a_node2"><a xlink:href="classSimulator.html#ab21d1c6b0af00931f9a8fa5e0b6d417f" target="_top" xlink:title=" ">
<polygon fill="none" stroke="black" points="149,-109 149,-139 262,-139 262,-109 149,-109"/>
<text text-anchor="start" x="157" y="-127" font-family="Helvetica,sans-Serif" font-size="10.00">Simulator::simulate</text>
<text text-anchor="middle" x="205.5" y="-116" font-family="Helvetica,sans-Serif" font-size="10.00">_multi_2d</text>
</a>
</g>
</g>
<!-- Node1&#45;&gt;Node2 -->
<g id="edge1" class="edge">
<title>Node1&#45;&gt;Node2</title>
<path fill="none" stroke="midnightblue" d="M113.07,-110.32C121.49,-111.58 130.24,-112.89 138.84,-114.17"/>
<polygon fill="midnightblue" stroke="midnightblue" points="138.44,-117.65 148.85,-115.67 139.48,-110.73 138.44,-117.65"/>
</g>
<!-- Node19 -->
<g id="node19" class="node">
<title>Node19</title>
<g id="a_node19"><a xlink:href="simulator_8cpp.html#a2a2aec343c151304395503fd8b1d6a78" target="_top" xlink:title=" ">
<polygon fill="none" stroke="black" points="166,-70.5 166,-89.5 245,-89.5 245,-70.5 166,-70.5"/>
<text text-anchor="middle" x="205.5" y="-77.5" font-family="Helvetica,sans-Serif" font-size="10.00">tensor2array</text>
</a>
</g>
</g>
<!-- Node1&#45;&gt;Node19 -->
<g id="edge24" class="edge">
<title>Node1&#45;&gt;Node19</title>
<path fill="none" stroke="midnightblue" d="M113.07,-93.68C127.07,-91.59 141.99,-89.36 155.63,-87.31"/>
<polygon fill="midnightblue" stroke="midnightblue" points="156.4,-90.74 165.77,-85.8 155.36,-83.82 156.4,-90.74"/>
</g>
<!-- Node3 -->
<g id="node3" class="node">
<title>Node3</title>
<g id="a_node3"><a xlink:href="classPopulation.html#af15e7ba23b161c710d4013204b542cb6" target="_top" xlink:title=" ">
<polygon fill="none" stroke="black" points="516,-408.5 516,-427.5 629,-427.5 629,-408.5 516,-408.5"/>
<text text-anchor="middle" x="572.5" y="-415.5" font-family="Helvetica,sans-Serif" font-size="10.00">Population::calcSSB</text>
</a>
</g>
</g>
<!-- Node2&#45;&gt;Node3 -->
<g id="edge2" class="edge">
<title>Node2&#45;&gt;Node3</title>
<path fill="none" stroke="midnightblue" d="M213.98,-139.1C227.88,-166.13 259.76,-223.62 298,-263 371.36,-338.54 395.98,-355.77 492,-399 497.47,-401.46 503.3,-403.63 509.23,-405.53"/>
<polygon fill="midnightblue" stroke="midnightblue" points="508.66,-409.01 519.24,-408.49 510.64,-402.3 508.66,-409.01"/>
</g>
<!-- Node4 -->
<g id="node4" class="node">
<title>Node4</title>
<g id="a_node4"><a xlink:href="classPopulation.html#a42c4b04852bdda937e50f82952106af1" target="_top" xlink:title=" ">
<polygon fill="none" stroke="black" points="495,-130.5 495,-149.5 650,-149.5 650,-130.5 495,-130.5"/>
<text text-anchor="middle" x="572.5" y="-137.5" font-family="Helvetica,sans-Serif" font-size="10.00">Population::fishableBiomass</text>
</a>
</g>
</g>
<!-- Node2&#45;&gt;Node4 -->
<g id="edge3" class="edge">
<title>Node2&#45;&gt;Node4</title>
<path fill="none" stroke="midnightblue" d="M262.35,-137.49C274.06,-139.78 286.38,-141.81 298,-143 360.24,-149.39 430.86,-148.41 484.75,-145.95"/>
<polygon fill="midnightblue" stroke="midnightblue" points="485.13,-149.44 494.95,-145.46 484.8,-142.45 485.13,-149.44"/>
</g>
<!-- Node6 -->
<g id="node6" class="node">
<title>Node6</title>
<g id="a_node6"><a xlink:href="classPopulation.html#a012ef586a78b4e7c2082634b316072d0" target="_top" xlink:title=" ">
<polygon fill="none" stroke="black" points="332,-114.5 332,-133.5 422,-133.5 422,-114.5 332,-114.5"/>
<text text-anchor="middle" x="377" y="-121.5" font-family="Helvetica,sans-Serif" font-size="10.00">Population::init</text>
</a>
</g>
</g>
<!-- Node2&#45;&gt;Node6 -->
<g id="edge5" class="edge">
<title>Node2&#45;&gt;Node6</title>
<path fill="none" stroke="midnightblue" d="M262,-124C281.23,-124 302.76,-124 321.88,-124"/>
<polygon fill="midnightblue" stroke="midnightblue" points="321.93,-127.5 331.93,-124 321.93,-120.5 321.93,-127.5"/>
</g>
<!-- Node10 -->
<g id="node10" class="node">
<title>Node10</title>
<g id="a_node10"><a xlink:href="classPopulation.html#a20696fa511c914e7c8837acb2a254b33" target="_top" xlink:title=" ">
<polygon fill="none" stroke="black" points="300.5,-76.5 300.5,-95.5 453.5,-95.5 453.5,-76.5 300.5,-76.5"/>
<text text-anchor="middle" x="377" y="-83.5" font-family="Helvetica,sans-Serif" font-size="10.00">Population::set_harvestProp</text>
</a>
</g>
</g>
<!-- Node2&#45;&gt;Node10 -->
<g id="edge9" class="edge">
<title>Node2&#45;&gt;Node10</title>
<path fill="none" stroke="midnightblue" d="M262,-111.56C281.82,-107.12 304.06,-102.13 323.61,-97.75"/>
<polygon fill="midnightblue" stroke="midnightblue" points="324.56,-101.12 333.55,-95.52 323.03,-94.29 324.56,-101.12"/>
</g>
<!-- Node11 -->
<g id="node11" class="node">
<title>Node11</title>
<g id="a_node11"><a xlink:href="classPopulation.html#a343a346cae1413da400c042868c15859" target="_top" xlink:title=" ">
<polygon fill="none" stroke="black" points="298,-38.5 298,-57.5 456,-57.5 456,-38.5 298,-38.5"/>
<text text-anchor="middle" x="377" y="-45.5" font-family="Helvetica,sans-Serif" font-size="10.00">Population::set_minSizeLimit</text>
</a>
</g>
</g>
<!-- Node2&#45;&gt;Node11 -->
<g id="edge10" class="edge">
<title>Node2&#45;&gt;Node11</title>
<path fill="none" stroke="midnightblue" d="M244.04,-108.97C250.21,-105.97 256.41,-102.62 262,-99 279.97,-87.36 279.04,-76.94 298,-67 302.51,-64.63 307.33,-62.56 312.27,-60.73"/>
<polygon fill="midnightblue" stroke="midnightblue" points="313.49,-64.01 321.87,-57.53 311.28,-57.37 313.49,-64.01"/>
</g>
<!-- Node12 -->
<g id="node12" class="node">
<title>Node12</title>
<g id="a_node12"><a xlink:href="classPopulation.html#a81c19d1c80cfb1d54d3872ecdefd0872" target="_top" xlink:title=" ">
<polygon fill="none" stroke="black" points="323,-234.5 323,-253.5 431,-253.5 431,-234.5 323,-234.5"/>
<text text-anchor="middle" x="377" y="-241.5" font-family="Helvetica,sans-Serif" font-size="10.00">Population::update</text>
</a>
</g>
</g>
<!-- Node2&#45;&gt;Node12 -->
<g id="edge11" class="edge">
<title>Node2&#45;&gt;Node12</title>
<path fill="none" stroke="midnightblue" d="M227.97,-139.2C260.38,-162.14 321.47,-205.39 354.12,-228.51"/>
<polygon fill="midnightblue" stroke="midnightblue" points="352.34,-231.54 362.52,-234.46 356.39,-225.83 352.34,-231.54"/>
</g>
<!-- Node18 -->
<g id="node18" class="node">
<title>Node18</title>
<g id="a_node18"><a xlink:href="classPopulation.html#a59c8a171470f0cca4453940e07c3c1df" target="_top" xlink:title=" ">
<polygon fill="none" stroke="black" points="314,-0.5 314,-19.5 440,-19.5 440,-0.5 314,-0.5"/>
<text text-anchor="middle" x="377" y="-7.5" font-family="Helvetica,sans-Serif" font-size="10.00">Population::updateEnv</text>
</a>
</g>
</g>
<!-- Node2&#45;&gt;Node18 -->
<g id="edge23" class="edge">
<title>Node2&#45;&gt;Node18</title>
<path fill="none" stroke="midnightblue" d="M248.47,-108.88C253.36,-106.06 258.01,-102.78 262,-99 287.37,-74.91 270.52,-50.65 298,-29 300.31,-27.18 302.77,-25.53 305.33,-24.04"/>
<polygon fill="midnightblue" stroke="midnightblue" points="307.02,-27.11 314.42,-19.53 303.91,-20.84 307.02,-27.11"/>
</g>
<!-- Node5 -->
<g id="node5" class="node">
<title>Node5</title>
<g id="a_node5"><a xlink:href="classPopulation.html#ac8ed845bbda25c937a2fd76b3788e987" target="_top" xlink:title=" ">
<polygon fill="none" stroke="black" points="689,-190.5 689,-209.5 814,-209.5 814,-190.5 689,-190.5"/>
<text text-anchor="middle" x="751.5" y="-197.5" font-family="Helvetica,sans-Serif" font-size="10.00">Population::selectivity</text>
</a>
</g>
</g>
<!-- Node4&#45;&gt;Node5 -->
<g id="edge4" class="edge">
<title>Node4&#45;&gt;Node5</title>
<path fill="none" stroke="midnightblue" d="M606.91,-149.6C621.17,-153.82 637.96,-158.96 653,-164 674.17,-171.1 697.66,-179.75 716.28,-186.79"/>
<polygon fill="midnightblue" stroke="midnightblue" points="715.21,-190.13 725.8,-190.41 717.7,-183.58 715.21,-190.13"/>
</g>
<!-- Node7 -->
<g id="node7" class="node">
<title>Node7</title>
<g id="a_node7"><a xlink:href="classFish.html#adf85bf269f1651352506e371ffd2cecc" target="_top" xlink:title="Initializes the fish, i.e., initializes parameters and sets the initial state (age = 1,...">
<polygon fill="none" stroke="black" points="544,-92.5 544,-111.5 601,-111.5 601,-92.5 544,-92.5"/>
<text text-anchor="middle" x="572.5" y="-99.5" font-family="Helvetica,sans-Serif" font-size="10.00">Fish::init</text>
</a>
</g>
</g>
<!-- Node6&#45;&gt;Node7 -->
<g id="edge6" class="edge">
<title>Node6&#45;&gt;Node7</title>
<path fill="none" stroke="midnightblue" d="M422.39,-118.95C455.98,-115.13 501.6,-109.95 533.51,-106.32"/>
<polygon fill="midnightblue" stroke="midnightblue" points="534.22,-109.76 543.76,-105.15 533.43,-102.81 534.22,-109.76"/>
</g>
<!-- Node8 -->
<g id="node8" class="node">
<title>Node8</title>
<g id="a_node8"><a xlink:href="namespacefish.html#a0ab1c4842d702a0a40bd04f26793ce12" target="_top" xlink:title="Compute the nonlinear growth increment , as follows.">
<polygon fill="none" stroke="black" points="709,-92.5 709,-111.5 794,-111.5 794,-92.5 709,-92.5"/>
<text text-anchor="middle" x="751.5" y="-99.5" font-family="Helvetica,sans-Serif" font-size="10.00">fish::dl_power</text>
</a>
</g>
</g>
<!-- Node7&#45;&gt;Node8 -->
<g id="edge7" class="edge">
<title>Node7&#45;&gt;Node8</title>
<path fill="none" stroke="midnightblue" d="M601.16,-102C627.21,-102 666.91,-102 698.83,-102"/>
<polygon fill="midnightblue" stroke="midnightblue" points="698.89,-105.5 708.89,-102 698.89,-98.5 698.89,-105.5"/>
</g>
<!-- Node9 -->
<g id="node9" class="node">
<title>Node9</title>
<g id="a_node9"><a xlink:href="namespacefish.html#a1d06e0358aca1be4446ed148b7ce3d84" target="_top" xlink:title="Compute the new length after growth assuming no allocation to reproduction.">
<polygon fill="none" stroke="black" points="693.5,-130.5 693.5,-149.5 809.5,-149.5 809.5,-130.5 693.5,-130.5"/>
<text text-anchor="middle" x="751.5" y="-137.5" font-family="Helvetica,sans-Serif" font-size="10.00">fish::length_juvenile</text>
</a>
</g>
</g>
<!-- Node7&#45;&gt;Node9 -->
<g id="edge8" class="edge">
<title>Node7&#45;&gt;Node9</title>
<path fill="none" stroke="midnightblue" d="M601.16,-107.94C626.51,-113.38 664.78,-121.6 696.23,-128.35"/>
<polygon fill="midnightblue" stroke="midnightblue" points="695.67,-131.81 706.18,-130.48 697.14,-124.96 695.67,-131.81"/>
</g>
<!-- Node12&#45;&gt;Node3 -->
<g id="edge12" class="edge">
<title>Node12&#45;&gt;Node3</title>
<path fill="none" stroke="midnightblue" d="M385.45,-253.55C399.49,-271.62 430.74,-312.12 456,-347 472.49,-369.77 468.8,-383.13 492,-399 496.35,-401.98 501.12,-404.49 506.09,-406.61"/>
<polygon fill="midnightblue" stroke="midnightblue" points="505.23,-410.03 515.83,-410.23 507.67,-403.47 505.23,-410.03"/>
</g>
<!-- Node12&#45;&gt;Node4 -->
<g id="edge16" class="edge">
<title>Node12&#45;&gt;Node4</title>
<path fill="none" stroke="midnightblue" d="M389.2,-234.27C408.8,-217.7 451.12,-183.88 492,-164 501.14,-159.56 511.28,-155.74 521.17,-152.54"/>
<polygon fill="midnightblue" stroke="midnightblue" points="522.39,-155.83 530.93,-149.55 520.34,-149.13 522.39,-155.83"/>
</g>
<!-- Node12&#45;&gt;Node5 -->
<g id="edge21" class="edge">
<title>Node12&#45;&gt;Node5</title>
<path fill="none" stroke="midnightblue" d="M395.51,-234.45C417.34,-223.14 456.17,-204.96 492,-198 554.16,-185.93 626.33,-187.77 678.58,-191.86"/>
<polygon fill="midnightblue" stroke="midnightblue" points="678.51,-195.36 688.76,-192.7 679.08,-188.39 678.51,-195.36"/>
</g>
<!-- Node12&#45;&gt;Node7 -->
<g id="edge19" class="edge">
<title>Node12&#45;&gt;Node7</title>
<path fill="none" stroke="midnightblue" d="M384.07,-234.2C399.19,-210.69 440.97,-150.83 492,-121 504.59,-113.64 519.89,-109.13 533.69,-106.36"/>
<polygon fill="midnightblue" stroke="midnightblue" points="534.64,-109.75 543.88,-104.57 533.43,-102.85 534.64,-109.75"/>
</g>
<!-- Node13 -->
<g id="node13" class="node">
<title>Node13</title>
<g id="a_node13"><a xlink:href="classPopulation.html#ae942ef70cc9f4dfc40b5d843baf40b1e" target="_top" xlink:title=" ">
<polygon fill="none" stroke="black" points="516,-332.5 516,-351.5 629,-351.5 629,-332.5 516,-332.5"/>
<text text-anchor="middle" x="572.5" y="-339.5" font-family="Helvetica,sans-Serif" font-size="10.00">Population::calcTSB</text>
</a>
</g>
</g>
<!-- Node12&#45;&gt;Node13 -->
<g id="edge13" class="edge">
<title>Node12&#45;&gt;Node13</title>
<path fill="none" stroke="midnightblue" d="M388.8,-253.59C408.11,-270.22 450.45,-304.43 492,-323 497.48,-325.45 503.31,-327.61 509.24,-329.5"/>
<polygon fill="midnightblue" stroke="midnightblue" points="508.68,-332.98 519.26,-332.45 510.65,-326.27 508.68,-332.98"/>
</g>
<!-- Node14 -->
<g id="node14" class="node">
<title>Node14</title>
<g id="a_node14"><a xlink:href="classPopulation.html#ad1840de2f00982c35d48b91a1d27ae13" target="_top" xlink:title=" ">
<polygon fill="none" stroke="black" points="522,-370.5 522,-389.5 623,-389.5 623,-370.5 522,-370.5"/>
<text text-anchor="middle" x="572.5" y="-377.5" font-family="Helvetica,sans-Serif" font-size="10.00">Population::effort</text>
</a>
</g>
</g>
<!-- Node12&#45;&gt;Node14 -->
<g id="edge14" class="edge">
<title>Node12&#45;&gt;Node14</title>
<path fill="none" stroke="midnightblue" d="M384.43,-253.65C400.01,-276.22 442.18,-332.71 492,-361 498.28,-364.57 505.2,-367.46 512.26,-369.82"/>
<polygon fill="midnightblue" stroke="midnightblue" points="511.35,-373.2 521.93,-372.71 513.35,-366.49 511.35,-373.2"/>
</g>
<!-- Node15 -->
<g id="node15" class="node">
<title>Node15</title>
<g id="a_node15"><a xlink:href="classPopulation.html#a1118025c1079ababec03f80a14837c5c" target="_top" xlink:title=" ">
<polygon fill="none" stroke="black" points="492,-207 492,-237 653,-237 653,-207 492,-207"/>
<text text-anchor="start" x="500" y="-225" font-family="Helvetica,sans-Serif" font-size="10.00">Population::fishableSpawning</text>
<text text-anchor="middle" x="572.5" y="-214" font-family="Helvetica,sans-Serif" font-size="10.00">Biomass</text>
</a>
</g>
</g>
<!-- Node12&#45;&gt;Node15 -->
<g id="edge17" class="edge">
<title>Node12&#45;&gt;Node15</title>
<path fill="none" stroke="midnightblue" d="M431.13,-237.96C446.75,-236.18 464.29,-234.19 481.53,-232.23"/>
<polygon fill="midnightblue" stroke="midnightblue" points="482.1,-235.69 491.64,-231.08 481.31,-228.73 482.1,-235.69"/>
</g>
<!-- Node16 -->
<g id="node16" class="node">
<title>Node16</title>
<g id="a_node16"><a xlink:href="classPopulation.html#ac62fc3480d60b055cd1886649809c6a6" target="_top" xlink:title=" ">
<polygon fill="none" stroke="black" points="523.5,-294.5 523.5,-313.5 621.5,-313.5 621.5,-294.5 523.5,-294.5"/>
<text text-anchor="middle" x="572.5" y="-301.5" font-family="Helvetica,sans-Serif" font-size="10.00">Population::nfish</text>
</a>
</g>
</g>
<!-- Node12&#45;&gt;Node16 -->
<g id="edge20" class="edge">
<title>Node12&#45;&gt;Node16</title>
<path fill="none" stroke="midnightblue" d="M402.2,-253.59C425.1,-262.45 460.56,-275.62 492,-285 500.21,-287.45 508.97,-289.8 517.56,-291.96"/>
<polygon fill="midnightblue" stroke="midnightblue" points="516.98,-295.42 527.53,-294.41 518.65,-288.63 516.98,-295.42"/>
</g>
<!-- Node17 -->
<g id="node17" class="node">
<title>Node17</title>
<g id="a_node17"><a xlink:href="classFish.html#aaa3e67187a587efc7a99485b4a6ee248" target="_top" xlink:title=" ">
<polygon fill="none" stroke="black" points="529,-256.5 529,-275.5 616,-275.5 616,-256.5 529,-256.5"/>
<text text-anchor="middle" x="572.5" y="-263.5" font-family="Helvetica,sans-Serif" font-size="10.00">Fish::set_traits</text>
</a>
</g>
</g>
<!-- Node12&#45;&gt;Node17 -->
<g id="edge22" class="edge">
<title>Node12&#45;&gt;Node17</title>
<path fill="none" stroke="midnightblue" d="M431.13,-250.04C458.41,-253.14 491.55,-256.91 518.77,-260.01"/>
<polygon fill="midnightblue" stroke="midnightblue" points="518.56,-263.5 528.89,-261.16 519.35,-256.55 518.56,-263.5"/>
</g>
<!-- Node14&#45;&gt;Node5 -->
<g id="edge15" class="edge">
<title>Node14&#45;&gt;Node5</title>
<path fill="none" stroke="midnightblue" d="M623.22,-374.46C633.74,-371.62 644.29,-367.36 653,-361 703.02,-324.5 732.41,-253.82 744.3,-219.56"/>
<polygon fill="midnightblue" stroke="midnightblue" points="747.71,-220.4 747.56,-209.81 741.07,-218.19 747.71,-220.4"/>
</g>
<!-- Node15&#45;&gt;Node5 -->
<g id="edge18" class="edge">
<title>Node15&#45;&gt;Node5</title>
<path fill="none" stroke="midnightblue" d="M653.2,-212.09C661.68,-211.04 670.27,-209.97 678.65,-208.93"/>
<polygon fill="midnightblue" stroke="midnightblue" points="679.26,-212.38 688.75,-207.67 678.4,-205.44 679.26,-212.38"/>
</g>
</g>
</svg>
