<?xml version="1.0" encoding="UTF-8" standalone="no"?>
<!DOCTYPE svg PUBLIC "-//W3C//DTD SVG 1.1//EN"
 "http://www.w3.org/Graphics/SVG/1.1/DTD/svg11.dtd">
<!-- Generated by graphviz version 2.43.0 (0)
 -->
<!-- Title: Fish Pages: 1 -->
<svg width="765pt" height="345pt"
 viewBox="0.00 0.00 765.00 344.50" xmlns="http://www.w3.org/2000/svg" xmlns:xlink="http://www.w3.org/1999/xlink">
<g id="graph0" class="graph" transform="scale(1 1) rotate(0) translate(4 340.5)">
<title>Fish</title>
<!-- Node1 -->
<g id="node1" class="node">
<title>Node1</title>
<g id="a_node1"><a xlink:title=" ">
<polygon fill="#bfbfbf" stroke="black" points="722,-32.5 722,-51.5 757,-51.5 757,-32.5 722,-32.5"/>
<text text-anchor="middle" x="739.5" y="-39.5" font-family="Helvetica,sans-Serif" font-size="10.00">Fish</text>
</a>
</g>
</g>
<!-- Node2 -->
<g id="node2" class="node">
<title>Node2</title>
<g id="a_node2"><a xlink:href="classFishParams.html" target="_top" xlink:title=" ">
<polygon fill="none" stroke="black" points="594.5,-155.5 594.5,-174.5 666.5,-174.5 666.5,-155.5 594.5,-155.5"/>
<text text-anchor="middle" x="630.5" y="-162.5" font-family="Helvetica,sans-Serif" font-size="10.00">FishParams</text>
</a>
</g>
</g>
<!-- Node2&#45;&gt;Node1 -->
<g id="edge1" class="edge">
<title>Node2&#45;&gt;Node1</title>
<path fill="none" stroke="#9a32cd" stroke-dasharray="5,2" d="M646.57,-147.68C669.43,-121.4 712.13,-72.31 730.14,-51.61"/>
<polygon fill="#9a32cd" stroke="#9a32cd" points="643.82,-145.51 639.9,-155.35 649.1,-150.1 643.82,-145.51"/>
<text text-anchor="middle" x="694.5" y="-106" font-family="Helvetica,sans-Serif" font-size="10.00"> par</text>
</g>
<!-- Node3 -->
<g id="node3" class="node">
<title>Node3</title>
<g id="a_node3"><a xlink:title=" ">
<polygon fill="none" stroke="#bfbfbf" points="293.5,-176 293.5,-206 415.5,-206 415.5,-176 293.5,-176"/>
<text text-anchor="start" x="301.5" y="-194" font-family="Helvetica,sans-Serif" font-size="10.00">std::map&lt; std::string,</text>
<text text-anchor="middle" x="354.5" y="-183" font-family="Helvetica,sans-Serif" font-size="10.00"> RecruitmentModel &gt;</text>
</a>
</g>
</g>
<!-- Node3&#45;&gt;Node2 -->
<g id="edge2" class="edge">
<title>Node3&#45;&gt;Node2</title>
<path fill="none" stroke="#9a32cd" stroke-dasharray="5,2" d="M425.75,-187.92C469.17,-185.52 525.96,-181.47 576,-175 582,-174.22 588.34,-173.21 594.48,-172.13"/>
<polygon fill="#9a32cd" stroke="#9a32cd" points="425.38,-184.43 415.58,-188.47 425.75,-191.42 425.38,-184.43"/>
<text text-anchor="middle" x="506" y="-190" font-family="Helvetica,sans-Serif" font-size="10.00"> recruitment_names_map</text>
</g>
<!-- Node4 -->
<g id="node4" class="node">
<title>Node4</title>
<g id="a_node4"><a xlink:title=" ">
<polygon fill="none" stroke="#bfbfbf" points="141,-160.5 141,-179.5 206,-179.5 206,-160.5 141,-160.5"/>
<text text-anchor="middle" x="173.5" y="-167.5" font-family="Helvetica,sans-Serif" font-size="10.00">std::string</text>
</a>
</g>
</g>
<!-- Node4&#45;&gt;Node2 -->
<g id="edge5" class="edge">
<title>Node4&#45;&gt;Node2</title>
<path fill="none" stroke="#9a32cd" stroke-dasharray="5,2" d="M199.85,-184.52C207.47,-188.55 215.95,-192.72 224,-196 252.78,-207.72 260.25,-211.51 291,-216 416.49,-234.33 456.73,-245.09 576,-202 592.57,-196.01 608.81,-183.58 618.97,-174.79"/>
<polygon fill="#9a32cd" stroke="#9a32cd" points="201.52,-181.44 191.07,-179.73 198.17,-187.59 201.52,-181.44"/>
<text text-anchor="middle" x="354.5" y="-267" font-family="Helvetica,sans-Serif" font-size="10.00"> growth_model_name</text>
<text text-anchor="middle" x="354.5" y="-256" font-family="Helvetica,sans-Serif" font-size="10.00">maturation_model_name</text>
<text text-anchor="middle" x="354.5" y="-245" font-family="Helvetica,sans-Serif" font-size="10.00">mortality_model_name</text>
<text text-anchor="middle" x="354.5" y="-234" font-family="Helvetica,sans-Serif" font-size="10.00">recruitment_model_name</text>
</g>
<!-- Node4&#45;&gt;Node3 -->
<g id="edge3" class="edge">
<title>Node4&#45;&gt;Node3</title>
<path fill="none" stroke="#9a32cd" stroke-dasharray="5,2" d="M216.17,-174.89C239.1,-177.58 267.95,-180.96 293.29,-183.94"/>
<polygon fill="#9a32cd" stroke="#9a32cd" points="216.43,-171.4 206.09,-173.71 215.61,-178.35 216.43,-171.4"/>
<text text-anchor="middle" x="248.5" y="-184" font-family="Helvetica,sans-Serif" font-size="10.00"> keys</text>
</g>
<!-- Node6 -->
<g id="node6" class="node">
<title>Node6</title>
<g id="a_node6"><a xlink:title=" ">
<polygon fill="none" stroke="#bfbfbf" points="293.5,-127 293.5,-157 415.5,-157 415.5,-127 293.5,-127"/>
<text text-anchor="start" x="301.5" y="-145" font-family="Helvetica,sans-Serif" font-size="10.00">std::map&lt; std::string,</text>
<text text-anchor="middle" x="354.5" y="-134" font-family="Helvetica,sans-Serif" font-size="10.00"> GrowthModel &gt;</text>
</a>
</g>
</g>
<!-- Node4&#45;&gt;Node6 -->
<g id="edge7" class="edge">
<title>Node4&#45;&gt;Node6</title>
<path fill="none" stroke="#9a32cd" stroke-dasharray="5,2" d="M216.26,-162.3C218.88,-161.85 221.47,-161.41 224,-161 246.65,-157.28 271.58,-153.54 293.47,-150.37"/>
<polygon fill="#9a32cd" stroke="#9a32cd" points="215.4,-158.9 206.16,-164.08 216.61,-165.79 215.4,-158.9"/>
<text text-anchor="middle" x="248.5" y="-164" font-family="Helvetica,sans-Serif" font-size="10.00"> keys</text>
</g>
<!-- Node7 -->
<g id="node7" class="node">
<title>Node7</title>
<g id="a_node7"><a xlink:title=" ">
<polygon fill="none" stroke="#bfbfbf" points="293.5,-78 293.5,-108 415.5,-108 415.5,-78 293.5,-78"/>
<text text-anchor="start" x="301.5" y="-96" font-family="Helvetica,sans-Serif" font-size="10.00">std::map&lt; std::string,</text>
<text text-anchor="middle" x="354.5" y="-85" font-family="Helvetica,sans-Serif" font-size="10.00"> MaturationModel &gt;</text>
</a>
</g>
</g>
<!-- Node4&#45;&gt;Node7 -->
<g id="edge9" class="edge">
<title>Node4&#45;&gt;Node7</title>
<path fill="none" stroke="#9a32cd" stroke-dasharray="5,2" d="M195.68,-154.72C204.21,-148.99 214.31,-142.73 224,-138 248.49,-126.04 276.98,-115.78 300.99,-108.09"/>
<polygon fill="#9a32cd" stroke="#9a32cd" points="193.68,-151.84 187.44,-160.41 197.65,-157.6 193.68,-151.84"/>
<text text-anchor="middle" x="248.5" y="-141" font-family="Helvetica,sans-Serif" font-size="10.00"> keys</text>
</g>
<!-- Node8 -->
<g id="node8" class="node">
<title>Node8</title>
<g id="a_node8"><a xlink:title=" ">
<polygon fill="none" stroke="#bfbfbf" points="293.5,-306 293.5,-336 415.5,-336 415.5,-306 293.5,-306"/>
<text text-anchor="start" x="301.5" y="-324" font-family="Helvetica,sans-Serif" font-size="10.00">std::map&lt; std::string,</text>
<text text-anchor="middle" x="354.5" y="-313" font-family="Helvetica,sans-Serif" font-size="10.00"> MortalityModel &gt;</text>
</a>
</g>
</g>
<!-- Node4&#45;&gt;Node8 -->
<g id="edge11" class="edge">
<title>Node4&#45;&gt;Node8</title>
<path fill="none" stroke="#9a32cd" stroke-dasharray="5,2" d="M181.5,-189.02C189.36,-208.2 203.73,-237.67 224,-257 247.51,-279.41 280.37,-295.52 307.11,-305.98"/>
<polygon fill="#9a32cd" stroke="#9a32cd" points="184.7,-187.59 177.81,-179.55 178.18,-190.14 184.7,-187.59"/>
<text text-anchor="middle" x="248.5" y="-293" font-family="Helvetica,sans-Serif" font-size="10.00"> keys</text>
</g>
<!-- Node10 -->
<g id="node10" class="node">
<title>Node10</title>
<g id="a_node10"><a xlink:title=" ">
<polygon fill="none" stroke="#bfbfbf" points="436,-0.5 436,-19.5 576,-19.5 576,-0.5 436,-0.5"/>
<text text-anchor="middle" x="506" y="-7.5" font-family="Helvetica,sans-Serif" font-size="10.00">std::vector&lt; std::string &gt;</text>
</a>
</g>
</g>
<!-- Node4&#45;&gt;Node10 -->
<g id="edge14" class="edge">
<title>Node4&#45;&gt;Node10</title>
<path fill="none" stroke="#9a32cd" stroke-dasharray="5,2" d="M183.58,-151.01C199.96,-119.24 237.75,-56.2 291,-30 335.7,-8.01 391.97,-3.51 435.6,-4.25"/>
<polygon fill="#9a32cd" stroke="#9a32cd" points="180.36,-149.63 179.03,-160.14 186.62,-152.76 180.36,-149.63"/>
<text text-anchor="middle" x="248.5" y="-89" font-family="Helvetica,sans-Serif" font-size="10.00"> elements</text>
</g>
<!-- Node5 -->
<g id="node5" class="node">
<title>Node5</title>
<g id="a_node5"><a xlink:title=" ">
<polygon fill="none" stroke="#bfbfbf" points="0,-155 0,-185 104,-185 104,-155 0,-155"/>
<text text-anchor="start" x="8" y="-173" font-family="Helvetica,sans-Serif" font-size="10.00">std::basic_string&lt;</text>
<text text-anchor="middle" x="52" y="-162" font-family="Helvetica,sans-Serif" font-size="10.00"> Char &gt;</text>
</a>
</g>
</g>
<!-- Node5&#45;&gt;Node4 -->
<g id="edge4" class="edge">
<title>Node5&#45;&gt;Node4</title>
<path fill="none" stroke="midnightblue" d="M114.1,-170C123.41,-170 132.68,-170 141,-170"/>
<polygon fill="midnightblue" stroke="midnightblue" points="114.03,-166.5 104.03,-170 114.03,-173.5 114.03,-166.5"/>
</g>
<!-- Node6&#45;&gt;Node2 -->
<g id="edge6" class="edge">
<title>Node6&#45;&gt;Node2</title>
<path fill="none" stroke="#9a32cd" stroke-dasharray="5,2" d="M425.81,-147.9C479.71,-152.43 551.83,-158.48 594.21,-162.04"/>
<polygon fill="#9a32cd" stroke="#9a32cd" points="425.89,-144.4 415.63,-147.05 425.3,-151.37 425.89,-144.4"/>
<text text-anchor="middle" x="506" y="-163" font-family="Helvetica,sans-Serif" font-size="10.00"> growth_names_map</text>
</g>
<!-- Node7&#45;&gt;Node2 -->
<g id="edge8" class="edge">
<title>Node7&#45;&gt;Node2</title>
<path fill="none" stroke="#9a32cd" stroke-dasharray="5,2" d="M425.62,-107.05C429.13,-107.72 432.6,-108.37 436,-109 498.08,-120.49 516.79,-111.09 576,-133 590.82,-138.48 606.14,-148.12 616.56,-155.39"/>
<polygon fill="#9a32cd" stroke="#9a32cd" points="426.17,-103.59 415.69,-105.14 424.85,-110.47 426.17,-103.59"/>
<text text-anchor="middle" x="506" y="-136" font-family="Helvetica,sans-Serif" font-size="10.00"> maturation_names_map</text>
</g>
<!-- Node8&#45;&gt;Node2 -->
<g id="edge10" class="edge">
<title>Node8&#45;&gt;Node2</title>
<path fill="none" stroke="#9a32cd" stroke-dasharray="5,2" d="M425.82,-314.23C472.48,-306.69 532.84,-290.73 576,-257 604.24,-234.93 620.4,-193.48 626.58,-174.69"/>
<polygon fill="#9a32cd" stroke="#9a32cd" points="425.14,-310.8 415.78,-315.76 426.2,-317.72 425.14,-310.8"/>
<text text-anchor="middle" x="506" y="-314" font-family="Helvetica,sans-Serif" font-size="10.00"> mortality_names_map</text>
</g>
<!-- Node9 -->
<g id="node9" class="node">
<title>Node9</title>
<g id="a_node9"><a xlink:title=" ">
<polygon fill="none" stroke="#bfbfbf" points="292.5,-39.5 292.5,-58.5 416.5,-58.5 416.5,-39.5 292.5,-39.5"/>
<text text-anchor="middle" x="354.5" y="-46.5" font-family="Helvetica,sans-Serif" font-size="10.00">std::vector&lt; double &gt;</text>
</a>
</g>
</g>
<!-- Node9&#45;&gt;Node1 -->
<g id="edge15" class="edge">
<title>Node9&#45;&gt;Node1</title>
<path fill="none" stroke="#9a32cd" stroke-dasharray="5,2" d="M426.64,-47.7C518.22,-46.03 671.56,-43.22 721.92,-42.3"/>
<polygon fill="#9a32cd" stroke="#9a32cd" points="426.55,-44.2 416.61,-47.88 426.67,-51.2 426.55,-44.2"/>
<text text-anchor="middle" x="630.5" y="-59" font-family="Helvetica,sans-Serif" font-size="10.00"> trait_scalars</text>
<text text-anchor="middle" x="630.5" y="-48" font-family="Helvetica,sans-Serif" font-size="10.00">trait_variances</text>
</g>
<!-- Node9&#45;&gt;Node2 -->
<g id="edge12" class="edge">
<title>Node9&#45;&gt;Node2</title>
<path fill="none" stroke="#9a32cd" stroke-dasharray="5,2" d="M426.88,-53.21C486.46,-57.25 563.59,-63.93 576,-72 606.61,-91.9 621.71,-135.84 627.11,-155.35"/>
<polygon fill="#9a32cd" stroke="#9a32cd" points="426.94,-49.71 416.73,-52.53 426.48,-56.69 426.94,-49.71"/>
<text text-anchor="middle" x="506" y="-97" font-family="Helvetica,sans-Serif" font-size="10.00"> ma</text>
<text text-anchor="middle" x="506" y="-86" font-family="Helvetica,sans-Serif" font-size="10.00">mai</text>
<text text-anchor="middle" x="506" y="-75" font-family="Helvetica,sans-Serif" font-size="10.00">mam</text>
</g>
<!-- Node10&#45;&gt;Node1 -->
<g id="edge13" class="edge">
<title>Node10&#45;&gt;Node1</title>
<path fill="none" stroke="#9a32cd" stroke-dasharray="5,2" d="M586.39,-2.6C612.34,-2.01 641.13,-3.32 667,-9 687.43,-13.49 708.98,-24.4 723.01,-32.45"/>
<polygon fill="#9a32cd" stroke="#9a32cd" points="586.1,0.89 576.22,-2.93 586.33,-6.1 586.1,0.89"/>
<text text-anchor="middle" x="630.5" y="-12" font-family="Helvetica,sans-Serif" font-size="10.00"> trait_names</text>
</g>
</g>
</svg>
