<?xml version="1.0" encoding="UTF-8" standalone="no"?>
<!DOCTYPE svg PUBLIC "-//W3C//DTD SVG 1.1//EN"
 "http://www.w3.org/Graphics/SVG/1.1/DTD/svg11.dtd">
<!-- Generated by graphviz version 2.43.0 (0)
 -->
<!-- Title: Tensor::accumulate Pages: 1 -->
<svg width="544pt" height="137pt"
 viewBox="0.00 0.00 544.00 137.00" xmlns="http://www.w3.org/2000/svg" xmlns:xlink="http://www.w3.org/1999/xlink">
<g id="graph0" class="graph" transform="scale(1 1) rotate(0) translate(4 133)">
<title>Tensor::accumulate</title>
<!-- Node1 -->
<g id="node1" class="node">
<title>Node1</title>
<g id="a_node1"><a xlink:title=" ">
<polygon fill="#bfbfbf" stroke="black" points="425,-55 425,-74 536,-74 536,-55 425,-55"/>
<text text-anchor="middle" x="480.5" y="-62" font-family="Helvetica,sans-Serif" font-size="10.00">Tensor::accumulate</text>
</a>
</g>
</g>
<!-- Node2 -->
<g id="node2" class="node">
<title>Node2</title>
<g id="a_node2"><a xlink:href="classTensor.html#abf7346c2dbd5e6b195cfe9b66e5049e8" target="_top" xlink:title=" ">
<polygon fill="none" stroke="black" points="289,-74 289,-93 389,-93 389,-74 289,-74"/>
<text text-anchor="middle" x="339" y="-81" font-family="Helvetica,sans-Serif" font-size="10.00">Tensor::max_dim</text>
</a>
</g>
</g>
<!-- Node1&#45;&gt;Node2 -->
<g id="edge1" class="edge">
<title>Node1&#45;&gt;Node2</title>
<path fill="none" stroke="midnightblue" d="M414.74,-73.32C406.13,-74.49 397.42,-75.68 389.13,-76.81"/>
<polygon fill="midnightblue" stroke="midnightblue" points="415.33,-76.77 424.77,-71.95 414.39,-69.84 415.33,-76.77"/>
</g>
<!-- Node3 -->
<g id="node3" class="node">
<title>Node3</title>
<g id="a_node3"><a xlink:href="classSimulator.html#a1b66b7260ff50758884d1f7361a1b988" target="_top" xlink:title=" ">
<polygon fill="none" stroke="black" points="126,-98.5 126,-128.5 253,-128.5 253,-98.5 126,-98.5"/>
<text text-anchor="start" x="134" y="-116.5" font-family="Helvetica,sans-Serif" font-size="10.00">Simulator::stakeholder</text>
<text text-anchor="middle" x="189.5" y="-105.5" font-family="Helvetica,sans-Serif" font-size="10.00">_satisfaction</text>
</a>
</g>
</g>
<!-- Node1&#45;&gt;Node3 -->
<g id="edge8" class="edge">
<title>Node1&#45;&gt;Node3</title>
<path fill="none" stroke="midnightblue" d="M452.65,-78.64C435.06,-87.18 411.28,-97.37 389,-102.5 344.44,-112.77 292.83,-115.35 253.4,-115.46"/>
<polygon fill="midnightblue" stroke="midnightblue" points="454.35,-81.71 461.74,-74.11 451.23,-75.44 454.35,-81.71"/>
</g>
<!-- Node5 -->
<g id="node5" class="node">
<title>Node5</title>
<g id="a_node5"><a xlink:href="classSimulator.html#aac842e5498b4c9731910ce9a93fa555d" target="_top" xlink:title=" ">
<polygon fill="none" stroke="black" points="126,-49.5 126,-79.5 253,-79.5 253,-49.5 126,-49.5"/>
<text text-anchor="start" x="134" y="-67.5" font-family="Helvetica,sans-Serif" font-size="10.00">Simulator::stakeholder</text>
<text text-anchor="middle" x="189.5" y="-56.5" font-family="Helvetica,sans-Serif" font-size="10.00">_satisfaction_2d</text>
</a>
</g>
</g>
<!-- Node1&#45;&gt;Node5 -->
<g id="edge9" class="edge">
<title>Node1&#45;&gt;Node5</title>
<path fill="none" stroke="midnightblue" d="M414.77,-64.5C366.44,-64.5 300.79,-64.5 253.01,-64.5"/>
<polygon fill="midnightblue" stroke="midnightblue" points="414.8,-68 424.8,-64.5 414.8,-61 414.8,-68"/>
</g>
<!-- Node6 -->
<g id="node6" class="node">
<title>Node6</title>
<g id="a_node6"><a xlink:href="classSimulator.html#a27a15b20249b51c6a8ed65560b3b1e91" target="_top" xlink:title=" ">
<polygon fill="none" stroke="black" points="126,-0.5 126,-30.5 253,-30.5 253,-0.5 126,-0.5"/>
<text text-anchor="start" x="134" y="-18.5" font-family="Helvetica,sans-Serif" font-size="10.00">Simulator::stakeholder</text>
<text text-anchor="middle" x="189.5" y="-7.5" font-family="Helvetica,sans-Serif" font-size="10.00">_satisfaction_2d_t</text>
</a>
</g>
</g>
<!-- Node1&#45;&gt;Node6 -->
<g id="edge10" class="edge">
<title>Node1&#45;&gt;Node6</title>
<path fill="none" stroke="midnightblue" d="M414.77,-53.52C366.44,-45.33 300.79,-34.2 253.01,-26.1"/>
<polygon fill="midnightblue" stroke="midnightblue" points="414.36,-57 424.8,-55.23 415.53,-50.1 414.36,-57"/>
</g>
<!-- Node2&#45;&gt;Node3 -->
<g id="edge2" class="edge">
<title>Node2&#45;&gt;Node3</title>
<path fill="none" stroke="midnightblue" d="M281.11,-95.07C271.91,-96.94 262.34,-98.89 253.01,-100.79"/>
<polygon fill="midnightblue" stroke="midnightblue" points="281.82,-98.5 290.92,-93.07 280.43,-91.64 281.82,-98.5"/>
</g>
<!-- Node2&#45;&gt;Node5 -->
<g id="edge4" class="edge">
<title>Node2&#45;&gt;Node5</title>
<path fill="none" stroke="midnightblue" d="M278.73,-75.87C270.28,-74.78 261.56,-73.65 253.04,-72.56"/>
<polygon fill="midnightblue" stroke="midnightblue" points="278.52,-79.37 288.88,-77.17 279.41,-72.42 278.52,-79.37"/>
</g>
<!-- Node2&#45;&gt;Node6 -->
<g id="edge6" class="edge">
<title>Node2&#45;&gt;Node6</title>
<path fill="none" stroke="midnightblue" d="M311.21,-69.18C294.62,-60.51 272.78,-49.44 253,-40.5 245.55,-37.13 237.49,-33.74 229.73,-30.58"/>
<polygon fill="midnightblue" stroke="midnightblue" points="309.83,-72.42 320.31,-73.98 313.09,-66.22 309.83,-72.42"/>
</g>
<!-- Node4 -->
<g id="node4" class="node">
<title>Node4</title>
<g id="a_node4"><a xlink:href="fish__glue_8cpp.html#addebb0997b0e49067d8784c9954b7b96" target="_top" xlink:title=" ">
<polygon fill="none" stroke="black" points="0,-55 0,-74 90,-74 90,-55 0,-55"/>
<text text-anchor="middle" x="45" y="-62" font-family="Helvetica,sans-Serif" font-size="10.00">RCPP_MODULE</text>
</a>
</g>
</g>
<!-- Node3&#45;&gt;Node4 -->
<g id="edge3" class="edge">
<title>Node3&#45;&gt;Node4</title>
<path fill="none" stroke="midnightblue" d="M134.9,-95.07C114.12,-87.92 91.21,-80.05 73.85,-74.08"/>
<polygon fill="midnightblue" stroke="midnightblue" points="133.99,-98.46 144.58,-98.4 136.26,-91.84 133.99,-98.46"/>
</g>
<!-- Node5&#45;&gt;Node4 -->
<g id="edge5" class="edge">
<title>Node5&#45;&gt;Node4</title>
<path fill="none" stroke="midnightblue" d="M115.73,-64.5C106.96,-64.5 98.23,-64.5 90.06,-64.5"/>
<polygon fill="midnightblue" stroke="midnightblue" points="116,-68 126,-64.5 116,-61 116,-68"/>
</g>
<!-- Node6&#45;&gt;Node4 -->
<g id="edge7" class="edge">
<title>Node6&#45;&gt;Node4</title>
<path fill="none" stroke="midnightblue" d="M134.9,-33.93C114.12,-41.08 91.21,-48.95 73.85,-54.92"/>
<polygon fill="midnightblue" stroke="midnightblue" points="136.26,-37.16 144.58,-30.6 133.99,-30.54 136.26,-37.16"/>
</g>
</g>
</svg>
