<?xml version="1.0" encoding="UTF-8" standalone="no"?>
<!DOCTYPE svg PUBLIC "-//W3C//DTD SVG 1.1//EN"
 "http://www.w3.org/Graphics/SVG/1.1/DTD/svg11.dtd">
<!-- Generated by graphviz version 2.43.0 (0)
 -->
<!-- Title: src/fish.cpp Pages: 1 -->
<svg width="749pt" height="192pt"
 viewBox="0.00 0.00 749.00 192.00" xmlns="http://www.w3.org/2000/svg" xmlns:xlink="http://www.w3.org/1999/xlink">
<g id="graph0" class="graph" transform="scale(1 1) rotate(0) translate(4 188)">
<title>src/fish.cpp</title>
<!-- Node1 -->
<g id="Node000001" class="node">
<title>Node1</title>
<g id="a_Node000001"><a xlink:title=" ">
<polygon fill="#999999" stroke="#666666" points="516,-184 445,-184 445,-165 516,-165 516,-184"/>
<text text-anchor="middle" x="480.5" y="-172" font-family="Helvetica,sans-Serif" font-size="10.00">src/fish.cpp</text>
</a>
</g>
</g>
<!-- Node2 -->
<g id="Node000002" class="node">
<title>Node2</title>
<g id="a_Node000002"><a xlink:href="fish_8h.html" target="_top" xlink:title=" ">
<polygon fill="white" stroke="#666666" points="534,-129 491,-129 491,-110 534,-110 534,-129"/>
<text text-anchor="middle" x="512.5" y="-117" font-family="Helvetica,sans-Serif" font-size="10.00">fish.h</text>
</a>
</g>
</g>
<!-- Node1&#45;&gt;Node2 -->
<g id="edge1_Node000001_Node000002" class="edge">
<title>Node1&#45;&gt;Node2</title>
<g id="a_edge1_Node000001_Node000002"><a xlink:title=" ">
<path fill="none" stroke="#63b8ff" d="M485.78,-164.75C490.21,-157.42 496.66,-146.73 502.12,-137.7"/>
<polygon fill="#63b8ff" stroke="#63b8ff" points="505.14,-139.46 507.31,-129.09 499.15,-135.84 505.14,-139.46"/>
</a>
</g>
</g>
<!-- Node6 -->
<g id="Node000006" class="node">
<title>Node6</title>
<g id="a_Node000006"><a xlink:title=" ">
<polygon fill="#e0e0e0" stroke="#999999" points="741,-19 694,-19 694,0 741,0 741,-19"/>
<text text-anchor="middle" x="717.5" y="-7" font-family="Helvetica,sans-Serif" font-size="10.00">cmath</text>
</a>
</g>
</g>
<!-- Node1&#45;&gt;Node6 -->
<g id="edge18_Node000001_Node000006" class="edge">
<title>Node1&#45;&gt;Node6</title>
<g id="a_edge18_Node000001_Node000006"><a xlink:title=" ">
<path fill="none" stroke="#63b8ff" d="M493.65,-164.84C519.59,-147.71 579.12,-108.2 628.5,-74 652.28,-57.53 679.3,-38.16 697.26,-25.18"/>
<polygon fill="#63b8ff" stroke="#63b8ff" points="699.72,-27.73 705.77,-19.03 695.62,-22.05 699.72,-27.73"/>
</a>
</g>
</g>
<!-- Node8 -->
<g id="Node000008" class="node">
<title>Node8</title>
<g id="a_Node000008"><a xlink:title=" ">
<polygon fill="#e0e0e0" stroke="#999999" points="527.5,-19 467.5,-19 467.5,0 527.5,0 527.5,-19"/>
<text text-anchor="middle" x="497.5" y="-7" font-family="Helvetica,sans-Serif" font-size="10.00">iostream</text>
</a>
</g>
</g>
<!-- Node1&#45;&gt;Node8 -->
<g id="edge17_Node000001_Node000008" class="edge">
<title>Node1&#45;&gt;Node8</title>
<g id="a_edge17_Node000001_Node000008"><a xlink:title=" ">
<path fill="none" stroke="#63b8ff" d="M477.44,-164.96C470.81,-145.17 456.66,-94.84 468.5,-55 471.48,-44.98 477.5,-35.11 483.29,-27.22"/>
<polygon fill="#63b8ff" stroke="#63b8ff" points="486.13,-29.28 489.56,-19.25 480.63,-24.95 486.13,-29.28"/>
</a>
</g>
</g>
<!-- Node14 -->
<g id="Node000014" class="node">
<title>Node14</title>
<g id="a_Node000014"><a xlink:title=" ">
<polygon fill="#e0e0e0" stroke="#999999" points="65,-19 0,-19 0,0 65,0 65,-19"/>
<text text-anchor="middle" x="32.5" y="-7" font-family="Helvetica,sans-Serif" font-size="10.00">stdexcept</text>
</a>
</g>
</g>
<!-- Node1&#45;&gt;Node14 -->
<g id="edge19_Node000001_Node000014" class="edge">
<title>Node1&#45;&gt;Node14</title>
<g id="a_edge19_Node000001_Node000014"><a xlink:title=" ">
<path fill="none" stroke="#63b8ff" d="M457.04,-164.97C382.66,-137.9 151.89,-53.94 65.55,-22.53"/>
<polygon fill="#63b8ff" stroke="#63b8ff" points="66.59,-19.18 55.99,-19.05 64.19,-25.76 66.59,-19.18"/>
</a>
</g>
</g>
<!-- Node3 -->
<g id="Node000003" class="node">
<title>Node3</title>
<g id="a_Node000003"><a xlink:title=" ">
<polygon fill="#e0e0e0" stroke="#999999" points="593,-19 546,-19 546,0 593,0 593,-19"/>
<text text-anchor="middle" x="569.5" y="-7" font-family="Helvetica,sans-Serif" font-size="10.00">vector</text>
</a>
</g>
</g>
<!-- Node2&#45;&gt;Node3 -->
<g id="edge2_Node000002_Node000003" class="edge">
<title>Node2&#45;&gt;Node3</title>
<g id="a_edge2_Node000002_Node000003"><a xlink:title=" ">
<path fill="none" stroke="#63b8ff" d="M534.3,-115.82C558.37,-111.57 596.02,-100.8 613.5,-74 624.61,-56.97 607.13,-37.85 591.03,-25.08"/>
<polygon fill="#63b8ff" stroke="#63b8ff" points="593.01,-22.18 582.9,-19.02 588.83,-27.8 593.01,-22.18"/>
</a>
</g>
</g>
<!-- Node4 -->
<g id="Node000004" class="node">
<title>Node4</title>
<g id="a_Node000004"><a xlink:title=" ">
<polygon fill="#e0e0e0" stroke="#999999" points="604.5,-74 566.5,-74 566.5,-55 604.5,-55 604.5,-74"/>
<text text-anchor="middle" x="585.5" y="-62" font-family="Helvetica,sans-Serif" font-size="10.00">map</text>
</a>
</g>
</g>
<!-- Node2&#45;&gt;Node4 -->
<g id="edge3_Node000002_Node000004" class="edge">
<title>Node2&#45;&gt;Node4</title>
<g id="a_edge3_Node000002_Node000004"><a xlink:title=" ">
<path fill="none" stroke="#63b8ff" d="M524.23,-109.98C535.23,-102 551.92,-89.88 565.1,-80.31"/>
<polygon fill="#63b8ff" stroke="#63b8ff" points="567.52,-82.88 573.56,-74.17 563.41,-77.21 567.52,-82.88"/>
</a>
</g>
</g>
<!-- Node5 -->
<g id="Node000005" class="node">
<title>Node5</title>
<g id="a_Node000005"><a xlink:href="functions_8h.html" target="_top" xlink:title=" ">
<polygon fill="white" stroke="#666666" points="548,-74 477,-74 477,-55 548,-55 548,-74"/>
<text text-anchor="middle" x="512.5" y="-62" font-family="Helvetica,sans-Serif" font-size="10.00">functions.h</text>
</a>
</g>
</g>
<!-- Node2&#45;&gt;Node5 -->
<g id="edge4_Node000002_Node000005" class="edge">
<title>Node2&#45;&gt;Node5</title>
<g id="a_edge4_Node000002_Node000005"><a xlink:title=" ">
<path fill="none" stroke="#63b8ff" d="M512.5,-109.75C512.5,-102.8 512.5,-92.85 512.5,-84.13"/>
<polygon fill="#63b8ff" stroke="#63b8ff" points="516,-84.09 512.5,-74.09 509,-84.09 516,-84.09"/>
</a>
</g>
</g>
<!-- Node9 -->
<g id="Node000009" class="node">
<title>Node9</title>
<g id="a_Node000009"><a xlink:href="initializer__v2_8h.html" target="_top" xlink:title=" ">
<polygon fill="white" stroke="#666666" points="354,-74 265,-74 265,-55 354,-55 354,-74"/>
<text text-anchor="middle" x="309.5" y="-62" font-family="Helvetica,sans-Serif" font-size="10.00">initializer_v2.h</text>
</a>
</g>
</g>
<!-- Node2&#45;&gt;Node9 -->
<g id="edge8_Node000002_Node000009" class="edge">
<title>Node2&#45;&gt;Node9</title>
<g id="a_edge8_Node000002_Node000009"><a xlink:title=" ">
<path fill="none" stroke="#63b8ff" d="M490.78,-112.83C457.73,-104.2 394.2,-87.61 351.82,-76.55"/>
<polygon fill="#63b8ff" stroke="#63b8ff" points="352.63,-73.14 342.07,-74 350.86,-79.92 352.63,-73.14"/>
</a>
</g>
</g>
<!-- Node5&#45;&gt;Node6 -->
<g id="edge5_Node000005_Node000006" class="edge">
<title>Node5&#45;&gt;Node6</title>
<g id="a_edge5_Node000005_Node000006"><a xlink:title=" ">
<path fill="none" stroke="#63b8ff" d="M545.44,-54.98C583.4,-45.17 645.48,-29.12 683.78,-19.22"/>
<polygon fill="#63b8ff" stroke="#63b8ff" points="685.1,-22.49 693.91,-16.6 683.35,-15.71 685.1,-22.49"/>
</a>
</g>
</g>
<!-- Node7 -->
<g id="Node000007" class="node">
<title>Node7</title>
<g id="a_Node000007"><a xlink:title=" ">
<polygon fill="#e0e0e0" stroke="#999999" points="675.5,-19 611.5,-19 611.5,0 675.5,0 675.5,-19"/>
<text text-anchor="middle" x="643.5" y="-7" font-family="Helvetica,sans-Serif" font-size="10.00">algorithm</text>
</a>
</g>
</g>
<!-- Node5&#45;&gt;Node7 -->
<g id="edge6_Node000005_Node000007" class="edge">
<title>Node5&#45;&gt;Node7</title>
<g id="a_edge6_Node000005_Node000007"><a xlink:title=" ">
<path fill="none" stroke="#63b8ff" d="M533.55,-54.98C554.91,-46.34 588.2,-32.87 612.56,-23.02"/>
<polygon fill="#63b8ff" stroke="#63b8ff" points="614.11,-26.17 622.07,-19.17 611.49,-19.68 614.11,-26.17"/>
</a>
</g>
</g>
<!-- Node5&#45;&gt;Node8 -->
<g id="edge7_Node000005_Node000008" class="edge">
<title>Node5&#45;&gt;Node8</title>
<g id="a_edge7_Node000005_Node000008"><a xlink:title=" ">
<path fill="none" stroke="#63b8ff" d="M510.02,-54.75C508.04,-47.72 505.18,-37.62 502.69,-28.84"/>
<polygon fill="#63b8ff" stroke="#63b8ff" points="506.02,-27.76 499.93,-19.09 499.29,-29.66 506.02,-27.76"/>
</a>
</g>
</g>
<!-- Node9&#45;&gt;Node3 -->
<g id="edge13_Node000009_Node000003" class="edge">
<title>Node9&#45;&gt;Node3</title>
<g id="a_edge13_Node000009_Node000003"><a xlink:title=" ">
<path fill="none" stroke="#63b8ff" d="M354.03,-55.57C397.76,-47.6 466.61,-34.58 535.57,-19.1"/>
<polygon fill="#63b8ff" stroke="#63b8ff" points="536.77,-22.42 545.75,-16.8 535.22,-15.59 536.77,-22.42"/>
</a>
</g>
</g>
<!-- Node9&#45;&gt;Node8 -->
<g id="edge9_Node000009_Node000008" class="edge">
<title>Node9&#45;&gt;Node8</title>
<g id="a_edge9_Node000009_Node000008"><a xlink:title=" ">
<path fill="none" stroke="#63b8ff" d="M339.71,-54.98C371.64,-45.98 422.16,-31.74 457.41,-21.8"/>
<polygon fill="#63b8ff" stroke="#63b8ff" points="458.69,-25.08 467.37,-18.99 456.79,-18.34 458.69,-25.08"/>
</a>
</g>
</g>
<!-- Node10 -->
<g id="Node000010" class="node">
<title>Node10</title>
<g id="a_Node000010"><a xlink:title=" ">
<polygon fill="#e0e0e0" stroke="#999999" points="127.5,-19 83.5,-19 83.5,0 127.5,0 127.5,-19"/>
<text text-anchor="middle" x="105.5" y="-7" font-family="Helvetica,sans-Serif" font-size="10.00">regex</text>
</a>
</g>
</g>
<!-- Node9&#45;&gt;Node10 -->
<g id="edge10_Node000009_Node000010" class="edge">
<title>Node9&#45;&gt;Node10</title>
<g id="a_edge10_Node000009_Node000010"><a xlink:title=" ">
<path fill="none" stroke="#63b8ff" d="M275.65,-54.96C242.72,-46.62 191.03,-33.42 137.22,-19.16"/>
<polygon fill="#63b8ff" stroke="#63b8ff" points="138.07,-15.76 127.5,-16.58 136.27,-22.53 138.07,-15.76"/>
</a>
</g>
</g>
<!-- Node11 -->
<g id="Node000011" class="node">
<title>Node11</title>
<g id="a_Node000011"><a xlink:title=" ">
<polygon fill="#e0e0e0" stroke="#999999" points="189.5,-19 145.5,-19 145.5,0 189.5,0 189.5,-19"/>
<text text-anchor="middle" x="167.5" y="-7" font-family="Helvetica,sans-Serif" font-size="10.00">string</text>
</a>
</g>
</g>
<!-- Node9&#45;&gt;Node11 -->
<g id="edge11_Node000009_Node000011" class="edge">
<title>Node9&#45;&gt;Node11</title>
<g id="a_edge11_Node000009_Node000011"><a xlink:title=" ">
<path fill="none" stroke="#63b8ff" d="M286.69,-54.98C263.05,-46.16 225.92,-32.31 199.39,-22.4"/>
<polygon fill="#63b8ff" stroke="#63b8ff" points="200.38,-19.04 189.79,-18.82 197.93,-25.6 200.38,-19.04"/>
</a>
</g>
</g>
<!-- Node12 -->
<g id="Node000012" class="node">
<title>Node12</title>
<g id="a_Node000012"><a xlink:title=" ">
<polygon fill="#e0e0e0" stroke="#999999" points="263,-19 208,-19 208,0 263,0 263,-19"/>
<text text-anchor="middle" x="235.5" y="-7" font-family="Helvetica,sans-Serif" font-size="10.00">fstream</text>
</a>
</g>
</g>
<!-- Node9&#45;&gt;Node12 -->
<g id="edge12_Node000009_Node000012" class="edge">
<title>Node9&#45;&gt;Node12</title>
<g id="a_edge12_Node000009_Node000012"><a xlink:title=" ">
<path fill="none" stroke="#63b8ff" d="M297.61,-54.98C286.35,-46.92 269.21,-34.65 255.79,-25.03"/>
<polygon fill="#63b8ff" stroke="#63b8ff" points="257.77,-22.15 247.61,-19.17 253.7,-27.84 257.77,-22.15"/>
</a>
</g>
</g>
<!-- Node13 -->
<g id="Node000013" class="node">
<title>Node13</title>
<g id="a_Node000013"><a xlink:title=" ">
<polygon fill="#e0e0e0" stroke="#999999" points="337.5,-19 281.5,-19 281.5,0 337.5,0 337.5,-19"/>
<text text-anchor="middle" x="309.5" y="-7" font-family="Helvetica,sans-Serif" font-size="10.00">sstream</text>
</a>
</g>
</g>
<!-- Node9&#45;&gt;Node13 -->
<g id="edge14_Node000009_Node000013" class="edge">
<title>Node9&#45;&gt;Node13</title>
<g id="a_edge14_Node000009_Node000013"><a xlink:title=" ">
<path fill="none" stroke="#63b8ff" d="M309.5,-54.75C309.5,-47.8 309.5,-37.85 309.5,-29.13"/>
<polygon fill="#63b8ff" stroke="#63b8ff" points="313,-29.09 309.5,-19.09 306,-29.09 313,-29.09"/>
</a>
</g>
</g>
<!-- Node9&#45;&gt;Node14 -->
<g id="edge15_Node000009_Node000014" class="edge">
<title>Node9&#45;&gt;Node14</title>
<g id="a_edge15_Node000009_Node000014"><a xlink:title=" ">
<path fill="none" stroke="#63b8ff" d="M264.85,-55.22C219.68,-46.8 147.56,-33.26 75.25,-19.13"/>
<polygon fill="#63b8ff" stroke="#63b8ff" points="75.54,-15.62 65.05,-17.13 74.19,-22.49 75.54,-15.62"/>
</a>
</g>
</g>
<!-- Node15 -->
<g id="Node000015" class="node">
<title>Node15</title>
<g id="a_Node000015"><a xlink:title=" ">
<polygon fill="#e0e0e0" stroke="#999999" points="449,-19 356,-19 356,0 449,0 449,-19"/>
<text text-anchor="middle" x="402.5" y="-7" font-family="Helvetica,sans-Serif" font-size="10.00">unordered_map</text>
</a>
</g>
</g>
<!-- Node9&#45;&gt;Node15 -->
<g id="edge16_Node000009_Node000015" class="edge">
<title>Node9&#45;&gt;Node15</title>
<g id="a_edge16_Node000009_Node000015"><a xlink:title=" ">
<path fill="none" stroke="#63b8ff" d="M324.44,-54.98C339,-46.69 361.37,-33.94 378.43,-24.22"/>
<polygon fill="#63b8ff" stroke="#63b8ff" points="380.33,-27.16 387.29,-19.17 376.86,-21.08 380.33,-27.16"/>
</a>
</g>
</g>
</g>
</svg>
