<?xml version="1.0" encoding="UTF-8" standalone="no"?>
<!DOCTYPE svg PUBLIC "-//W3C//DTD SVG 1.1//EN"
 "http://www.w3.org/Graphics/SVG/1.1/DTD/svg11.dtd">
<!-- Generated by graphviz version 2.43.0 (0)
 -->
<!-- Title: inst/include/fish.h Pages: 1 -->
<svg width="955pt" height="137pt"
 viewBox="0.00 0.00 954.50 137.00" xmlns="http://www.w3.org/2000/svg" xmlns:xlink="http://www.w3.org/1999/xlink">
<g id="graph0" class="graph" transform="scale(1 1) rotate(0) translate(4 133)">
<title>inst/include/fish.h</title>
<!-- Node1 -->
<g id="Node000001" class="node">
<title>Node1</title>
<g id="a_Node000001"><a xlink:title=" ">
<polygon fill="#999999" stroke="#666666" points="425,-129 323,-129 323,-110 425,-110 425,-129"/>
<text text-anchor="middle" x="374" y="-117" font-family="Helvetica,sans-Serif" font-size="10.00">inst/include/fish.h</text>
</a>
</g>
</g>
<!-- Node2 -->
<g id="Node000002" class="node">
<title>Node2</title>
<g id="a_Node000002"><a xlink:title=" ">
<polygon fill="#e0e0e0" stroke="#999999" points="253.5,-19 206.5,-19 206.5,0 253.5,0 253.5,-19"/>
<text text-anchor="middle" x="230" y="-7" font-family="Helvetica,sans-Serif" font-size="10.00">vector</text>
</a>
</g>
</g>
<!-- Node1&#45;&gt;Node2 -->
<g id="edge1_Node000001_Node000002" class="edge">
<title>Node1&#45;&gt;Node2</title>
<g id="a_edge1_Node000001_Node000002"><a xlink:title=" ">
<path fill="none" stroke="#63b8ff" d="M362.22,-109.66C337.52,-91.14 280.1,-48.08 249.7,-25.28"/>
<polygon fill="#63b8ff" stroke="#63b8ff" points="251.64,-22.36 241.54,-19.16 247.44,-27.96 251.64,-22.36"/>
</a>
</g>
</g>
<!-- Node3 -->
<g id="Node000003" class="node">
<title>Node3</title>
<g id="a_Node000003"><a xlink:title=" ">
<polygon fill="#e0e0e0" stroke="#999999" points="666,-74 628,-74 628,-55 666,-55 666,-74"/>
<text text-anchor="middle" x="647" y="-62" font-family="Helvetica,sans-Serif" font-size="10.00">map</text>
</a>
</g>
</g>
<!-- Node1&#45;&gt;Node3 -->
<g id="edge2_Node000001_Node000003" class="edge">
<title>Node1&#45;&gt;Node3</title>
<g id="a_edge2_Node000001_Node000003"><a xlink:title=" ">
<path fill="none" stroke="#63b8ff" d="M425.03,-110.99C472.61,-103.59 545.68,-91.22 617.65,-74.09"/>
<polygon fill="#63b8ff" stroke="#63b8ff" points="618.9,-77.39 627.8,-71.65 617.26,-70.59 618.9,-77.39"/>
</a>
</g>
</g>
<!-- Node4 -->
<g id="Node000004" class="node">
<title>Node4</title>
<g id="a_Node000004"><a xlink:href="functions_8h.html" target="_top" xlink:title=" ">
<polygon fill="white" stroke="#666666" points="409.5,-74 338.5,-74 338.5,-55 409.5,-55 409.5,-74"/>
<text text-anchor="middle" x="374" y="-62" font-family="Helvetica,sans-Serif" font-size="10.00">functions.h</text>
</a>
</g>
</g>
<!-- Node1&#45;&gt;Node4 -->
<g id="edge3_Node000001_Node000004" class="edge">
<title>Node1&#45;&gt;Node4</title>
<g id="a_edge3_Node000001_Node000004"><a xlink:title=" ">
<path fill="none" stroke="#63b8ff" d="M374,-109.75C374,-102.8 374,-92.85 374,-84.13"/>
<polygon fill="#63b8ff" stroke="#63b8ff" points="377.5,-84.09 374,-74.09 370.5,-84.09 377.5,-84.09"/>
</a>
</g>
</g>
<!-- Node8 -->
<g id="Node000008" class="node">
<title>Node8</title>
<g id="a_Node000008"><a xlink:href="initializer__v2_8h.html" target="_top" xlink:title=" ">
<polygon fill="white" stroke="#666666" points="609.5,-74 520.5,-74 520.5,-55 609.5,-55 609.5,-74"/>
<text text-anchor="middle" x="565" y="-62" font-family="Helvetica,sans-Serif" font-size="10.00">initializer_v2.h</text>
</a>
</g>
</g>
<!-- Node1&#45;&gt;Node8 -->
<g id="edge7_Node000001_Node000008" class="edge">
<title>Node1&#45;&gt;Node8</title>
<g id="a_edge7_Node000001_Node000008"><a xlink:title=" ">
<path fill="none" stroke="#63b8ff" d="M404.69,-109.98C437.17,-100.97 488.6,-86.7 524.41,-76.76"/>
<polygon fill="#63b8ff" stroke="#63b8ff" points="525.37,-80.13 534.07,-74.08 523.5,-73.38 525.37,-80.13"/>
</a>
</g>
</g>
<!-- Node15 -->
<g id="Node000015" class="node">
<title>Node15</title>
<g id="a_Node000015"><a xlink:href="cubic__spline_8h.html" target="_top" xlink:title=" ">
<polygon fill="white" stroke="#666666" points="238,-74 152,-74 152,-55 238,-55 238,-74"/>
<text text-anchor="middle" x="195" y="-62" font-family="Helvetica,sans-Serif" font-size="10.00">cubic_spline.h</text>
</a>
</g>
</g>
<!-- Node1&#45;&gt;Node15 -->
<g id="edge16_Node000001_Node000015" class="edge">
<title>Node1&#45;&gt;Node15</title>
<g id="a_edge16_Node000001_Node000015"><a xlink:title=" ">
<path fill="none" stroke="#63b8ff" d="M345.24,-109.98C315.06,-101.05 267.43,-86.94 233.9,-77.02"/>
<polygon fill="#63b8ff" stroke="#63b8ff" points="234.57,-73.57 223.98,-74.08 232.58,-80.28 234.57,-73.57"/>
</a>
</g>
</g>
<!-- Node5 -->
<g id="Node000005" class="node">
<title>Node5</title>
<g id="a_Node000005"><a xlink:title=" ">
<polygon fill="#e0e0e0" stroke="#999999" points="397.5,-19 350.5,-19 350.5,0 397.5,0 397.5,-19"/>
<text text-anchor="middle" x="374" y="-7" font-family="Helvetica,sans-Serif" font-size="10.00">cmath</text>
</a>
</g>
</g>
<!-- Node4&#45;&gt;Node5 -->
<g id="edge4_Node000004_Node000005" class="edge">
<title>Node4&#45;&gt;Node5</title>
<g id="a_edge4_Node000004_Node000005"><a xlink:title=" ">
<path fill="none" stroke="#63b8ff" d="M374,-54.75C374,-47.8 374,-37.85 374,-29.13"/>
<polygon fill="#63b8ff" stroke="#63b8ff" points="377.5,-29.09 374,-19.09 370.5,-29.09 377.5,-29.09"/>
</a>
</g>
</g>
<!-- Node6 -->
<g id="Node000006" class="node">
<title>Node6</title>
<g id="a_Node000006"><a xlink:title=" ">
<polygon fill="#e0e0e0" stroke="#999999" points="480,-19 416,-19 416,0 480,0 480,-19"/>
<text text-anchor="middle" x="448" y="-7" font-family="Helvetica,sans-Serif" font-size="10.00">algorithm</text>
</a>
</g>
</g>
<!-- Node4&#45;&gt;Node6 -->
<g id="edge5_Node000004_Node000006" class="edge">
<title>Node4&#45;&gt;Node6</title>
<g id="a_edge5_Node000004_Node000006"><a xlink:title=" ">
<path fill="none" stroke="#63b8ff" d="M385.89,-54.98C397.15,-46.92 414.29,-34.65 427.71,-25.03"/>
<polygon fill="#63b8ff" stroke="#63b8ff" points="429.8,-27.84 435.89,-19.17 425.73,-22.15 429.8,-27.84"/>
</a>
</g>
</g>
<!-- Node7 -->
<g id="Node000007" class="node">
<title>Node7</title>
<g id="a_Node000007"><a xlink:title=" ">
<polygon fill="#e0e0e0" stroke="#999999" points="332,-19 272,-19 272,0 332,0 332,-19"/>
<text text-anchor="middle" x="302" y="-7" font-family="Helvetica,sans-Serif" font-size="10.00">iostream</text>
</a>
</g>
</g>
<!-- Node4&#45;&gt;Node7 -->
<g id="edge6_Node000004_Node000007" class="edge">
<title>Node4&#45;&gt;Node7</title>
<g id="a_edge6_Node000004_Node000007"><a xlink:title=" ">
<path fill="none" stroke="#63b8ff" d="M362.43,-54.98C351.58,-47 335.12,-34.88 322.12,-25.31"/>
<polygon fill="#63b8ff" stroke="#63b8ff" points="323.91,-22.28 313.78,-19.17 319.76,-27.92 323.91,-22.28"/>
</a>
</g>
</g>
<!-- Node8&#45;&gt;Node2 -->
<g id="edge12_Node000008_Node000002" class="edge">
<title>Node8&#45;&gt;Node2</title>
<g id="a_edge12_Node000008_Node000002"><a xlink:title=" ">
<path fill="none" stroke="#63b8ff" d="M520.48,-58.44C463.31,-51.6 360.87,-38.25 263.71,-18.94"/>
<polygon fill="#63b8ff" stroke="#63b8ff" points="264.22,-15.47 253.72,-16.93 262.84,-22.34 264.22,-15.47"/>
</a>
</g>
</g>
<!-- Node8&#45;&gt;Node7 -->
<g id="edge8_Node000008_Node000007" class="edge">
<title>Node8&#45;&gt;Node7</title>
<g id="a_edge8_Node000008_Node000007"><a xlink:title=" ">
<path fill="none" stroke="#63b8ff" d="M521.38,-54.96C476.41,-46.12 404.25,-31.83 342,-19 341.9,-18.98 341.8,-18.96 341.7,-18.94"/>
<polygon fill="#63b8ff" stroke="#63b8ff" points="342.64,-15.56 332.13,-16.95 341.21,-22.41 342.64,-15.56"/>
</a>
</g>
</g>
<!-- Node9 -->
<g id="Node000009" class="node">
<title>Node9</title>
<g id="a_Node000009"><a xlink:title=" ">
<polygon fill="#e0e0e0" stroke="#999999" points="811,-19 767,-19 767,0 811,0 811,-19"/>
<text text-anchor="middle" x="789" y="-7" font-family="Helvetica,sans-Serif" font-size="10.00">regex</text>
</a>
</g>
</g>
<!-- Node8&#45;&gt;Node9 -->
<g id="edge9_Node000008_Node000009" class="edge">
<title>Node8&#45;&gt;Node9</title>
<g id="a_edge9_Node000008_Node000009"><a xlink:title=" ">
<path fill="none" stroke="#63b8ff" d="M604.3,-54.94C641.31,-46.76 698.55,-33.83 756.92,-19.2"/>
<polygon fill="#63b8ff" stroke="#63b8ff" points="757.84,-22.58 766.68,-16.74 756.13,-15.79 757.84,-22.58"/>
</a>
</g>
</g>
<!-- Node10 -->
<g id="Node000010" class="node">
<title>Node10</title>
<g id="a_Node000010"><a xlink:title=" ">
<polygon fill="#e0e0e0" stroke="#999999" points="873,-19 829,-19 829,0 873,0 873,-19"/>
<text text-anchor="middle" x="851" y="-7" font-family="Helvetica,sans-Serif" font-size="10.00">string</text>
</a>
</g>
</g>
<!-- Node8&#45;&gt;Node10 -->
<g id="edge10_Node000008_Node000010" class="edge">
<title>Node8&#45;&gt;Node10</title>
<g id="a_edge10_Node000008_Node000010"><a xlink:title=" ">
<path fill="none" stroke="#63b8ff" d="M609.68,-56.23C667.72,-46.7 766.89,-30.1 818.71,-19.08"/>
<polygon fill="#63b8ff" stroke="#63b8ff" points="819.69,-22.44 828.71,-16.88 818.19,-15.61 819.69,-22.44"/>
</a>
</g>
</g>
<!-- Node11 -->
<g id="Node000011" class="node">
<title>Node11</title>
<g id="a_Node000011"><a xlink:title=" ">
<polygon fill="#e0e0e0" stroke="#999999" points="946.5,-19 891.5,-19 891.5,0 946.5,0 946.5,-19"/>
<text text-anchor="middle" x="919" y="-7" font-family="Helvetica,sans-Serif" font-size="10.00">fstream</text>
</a>
</g>
</g>
<!-- Node8&#45;&gt;Node11 -->
<g id="edge11_Node000008_Node000011" class="edge">
<title>Node8&#45;&gt;Node11</title>
<g id="a_edge11_Node000008_Node000011"><a xlink:title=" ">
<path fill="none" stroke="#63b8ff" d="M609.78,-56.38C612.9,-55.91 616,-55.44 619,-55 732.53,-38.3 764.23,-40.11 881.11,-19.01"/>
<polygon fill="#63b8ff" stroke="#63b8ff" points="881.97,-22.41 891.18,-17.17 880.71,-15.52 881.97,-22.41"/>
</a>
</g>
</g>
<!-- Node12 -->
<g id="Node000012" class="node">
<title>Node12</title>
<g id="a_Node000012"><a xlink:title=" ">
<polygon fill="#e0e0e0" stroke="#999999" points="554,-19 498,-19 498,0 554,0 554,-19"/>
<text text-anchor="middle" x="526" y="-7" font-family="Helvetica,sans-Serif" font-size="10.00">sstream</text>
</a>
</g>
</g>
<!-- Node8&#45;&gt;Node12 -->
<g id="edge13_Node000008_Node000012" class="edge">
<title>Node8&#45;&gt;Node12</title>
<g id="a_edge13_Node000008_Node000012"><a xlink:title=" ">
<path fill="none" stroke="#63b8ff" d="M558.56,-54.75C553.11,-47.34 545.14,-36.5 538.44,-27.41"/>
<polygon fill="#63b8ff" stroke="#63b8ff" points="541.07,-25.07 532.32,-19.09 535.43,-29.22 541.07,-25.07"/>
</a>
</g>
</g>
<!-- Node13 -->
<g id="Node000013" class="node">
<title>Node13</title>
<g id="a_Node000013"><a xlink:title=" ">
<polygon fill="#e0e0e0" stroke="#999999" points="637.5,-19 572.5,-19 572.5,0 637.5,0 637.5,-19"/>
<text text-anchor="middle" x="605" y="-7" font-family="Helvetica,sans-Serif" font-size="10.00">stdexcept</text>
</a>
</g>
</g>
<!-- Node8&#45;&gt;Node13 -->
<g id="edge14_Node000008_Node000013" class="edge">
<title>Node8&#45;&gt;Node13</title>
<g id="a_edge14_Node000008_Node000013"><a xlink:title=" ">
<path fill="none" stroke="#63b8ff" d="M571.61,-54.75C577.26,-47.26 585.54,-36.28 592.45,-27.13"/>
<polygon fill="#63b8ff" stroke="#63b8ff" points="595.29,-29.18 598.52,-19.09 589.7,-24.96 595.29,-29.18"/>
</a>
</g>
</g>
<!-- Node14 -->
<g id="Node000014" class="node">
<title>Node14</title>
<g id="a_Node000014"><a xlink:title=" ">
<polygon fill="#e0e0e0" stroke="#999999" points="748.5,-19 655.5,-19 655.5,0 748.5,0 748.5,-19"/>
<text text-anchor="middle" x="702" y="-7" font-family="Helvetica,sans-Serif" font-size="10.00">unordered_map</text>
</a>
</g>
</g>
<!-- Node8&#45;&gt;Node14 -->
<g id="edge15_Node000008_Node000014" class="edge">
<title>Node8&#45;&gt;Node14</title>
<g id="a_edge15_Node000008_Node000014"><a xlink:title=" ">
<path fill="none" stroke="#63b8ff" d="M587.01,-54.98C609.45,-46.3 644.48,-32.75 669.99,-22.88"/>
<polygon fill="#63b8ff" stroke="#63b8ff" points="671.52,-26.04 679.59,-19.17 669,-19.51 671.52,-26.04"/>
</a>
</g>
</g>
<!-- Node15&#45;&gt;Node2 -->
<g id="edge17_Node000015_Node000002" class="edge">
<title>Node15&#45;&gt;Node2</title>
<g id="a_edge17_Node000015_Node000002"><a xlink:title=" ">
<path fill="none" stroke="#63b8ff" d="M200.78,-54.75C205.62,-47.42 212.68,-36.73 218.64,-27.7"/>
<polygon fill="#63b8ff" stroke="#63b8ff" points="221.74,-29.36 224.33,-19.09 215.9,-25.5 221.74,-29.36"/>
</a>
</g>
</g>
<!-- Node15&#45;&gt;Node7 -->
<g id="edge19_Node000015_Node000007" class="edge">
<title>Node15&#45;&gt;Node7</title>
<g id="a_edge19_Node000015_Node000007"><a xlink:title=" ">
<path fill="none" stroke="#63b8ff" d="M212.19,-54.98C229.25,-46.54 255.63,-33.47 275.4,-23.68"/>
<polygon fill="#63b8ff" stroke="#63b8ff" points="277.09,-26.75 284.5,-19.17 273.98,-20.47 277.09,-26.75"/>
</a>
</g>
</g>
<!-- Node16 -->
<g id="Node000016" class="node">
<title>Node16</title>
<g id="a_Node000016"><a xlink:title=" ">
<polygon fill="#e0e0e0" stroke="#999999" points="114,-19 62,-19 62,0 114,0 114,-19"/>
<text text-anchor="middle" x="88" y="-7" font-family="Helvetica,sans-Serif" font-size="10.00">cassert</text>
</a>
</g>
</g>
<!-- Node15&#45;&gt;Node16 -->
<g id="edge18_Node000015_Node000016" class="edge">
<title>Node15&#45;&gt;Node16</title>
<g id="a_edge18_Node000015_Node000016"><a xlink:title=" ">
<path fill="none" stroke="#63b8ff" d="M177.81,-54.98C160.75,-46.54 134.37,-33.47 114.6,-23.68"/>
<polygon fill="#63b8ff" stroke="#63b8ff" points="116.02,-20.47 105.5,-19.17 112.91,-26.75 116.02,-20.47"/>
</a>
</g>
</g>
<!-- Node17 -->
<g id="Node000017" class="node">
<title>Node17</title>
<g id="a_Node000017"><a xlink:title=" ">
<polygon fill="#e0e0e0" stroke="#999999" points="188,-19 132,-19 132,0 188,0 188,-19"/>
<text text-anchor="middle" x="160" y="-7" font-family="Helvetica,sans-Serif" font-size="10.00">iomanip</text>
</a>
</g>
</g>
<!-- Node15&#45;&gt;Node17 -->
<g id="edge20_Node000015_Node000017" class="edge">
<title>Node15&#45;&gt;Node17</title>
<g id="a_edge20_Node000015_Node000017"><a xlink:title=" ">
<path fill="none" stroke="#63b8ff" d="M189.22,-54.75C184.38,-47.42 177.32,-36.73 171.36,-27.7"/>
<polygon fill="#63b8ff" stroke="#63b8ff" points="174.1,-25.5 165.67,-19.09 168.26,-29.36 174.1,-25.5"/>
</a>
</g>
</g>
<!-- Node18 -->
<g id="Node000018" class="node">
<title>Node18</title>
<g id="a_Node000018"><a xlink:title=" ">
<polygon fill="#e0e0e0" stroke="#999999" points="44,-19 0,-19 0,0 44,0 44,-19"/>
<text text-anchor="middle" x="22" y="-7" font-family="Helvetica,sans-Serif" font-size="10.00">limits</text>
</a>
</g>
</g>
<!-- Node15&#45;&gt;Node18 -->
<g id="edge21_Node000015_Node000018" class="edge">
<title>Node15&#45;&gt;Node18</title>
<g id="a_edge21_Node000015_Node000018"><a xlink:title=" ">
<path fill="none" stroke="#63b8ff" d="M167.2,-54.98C136.35,-45.53 86.63,-30.3 54.13,-20.34"/>
<polygon fill="#63b8ff" stroke="#63b8ff" points="54.81,-16.89 44.23,-17.31 52.76,-23.59 54.81,-16.89"/>
</a>
</g>
</g>
</g>
</svg>
