<?xml version="1.0" encoding="UTF-8" standalone="no"?>
<!DOCTYPE svg PUBLIC "-//W3C//DTD SVG 1.1//EN"
 "http://www.w3.org/Graphics/SVG/1.1/DTD/svg11.dtd">
<!-- Generated by graphviz version 2.43.0 (0)
 -->
<!-- Title: inst/include/fisheRy.h Pages: 1 -->
<svg width="748pt" height="252pt"
 viewBox="0.00 0.00 748.00 252.00" xmlns="http://www.w3.org/2000/svg" xmlns:xlink="http://www.w3.org/1999/xlink">
<g id="graph0" class="graph" transform="scale(1 1) rotate(0) translate(4 248)">
<title>inst/include/fisheRy.h</title>
<!-- Node1 -->
<g id="node1" class="node">
<title>Node1</title>
<g id="a_node1"><a xlink:title=" ">
<polygon fill="#bfbfbf" stroke="black" points="409.5,-224.5 409.5,-243.5 529.5,-243.5 529.5,-224.5 409.5,-224.5"/>
<text text-anchor="middle" x="469.5" y="-231.5" font-family="Helvetica,sans-Serif" font-size="10.00">inst/include/fisheRy.h</text>
</a>
</g>
</g>
<!-- Node2 -->
<g id="node2" class="node">
<title>Node2</title>
<g id="a_node2"><a xlink:href="fish_8h.html" target="_top" xlink:title=" ">
<polygon fill="none" stroke="black" points="414.5,-112.5 414.5,-131.5 458.5,-131.5 458.5,-112.5 414.5,-112.5"/>
<text text-anchor="middle" x="436.5" y="-119.5" font-family="Helvetica,sans-Serif" font-size="10.00">fish.h</text>
</a>
</g>
</g>
<!-- Node1&#45;&gt;Node2 -->
<g id="edge1" class="edge">
<title>Node1&#45;&gt;Node2</title>
<path fill="none" stroke="midnightblue" d="M466.77,-224.39C463.92,-215.34 459.33,-200.69 455.5,-188 450.78,-172.35 445.58,-154.52 441.82,-141.5"/>
<polygon fill="midnightblue" stroke="midnightblue" points="445.17,-140.49 439.03,-131.85 438.44,-142.42 445.17,-140.49"/>
</g>
<!-- Node16 -->
<g id="node16" class="node">
<title>Node16</title>
<g id="a_node16"><a xlink:href="population_8h.html" target="_top" xlink:title=" ">
<polygon fill="none" stroke="black" points="465,-168.5 465,-187.5 542,-187.5 542,-168.5 465,-168.5"/>
<text text-anchor="middle" x="503.5" y="-175.5" font-family="Helvetica,sans-Serif" font-size="10.00">population.h</text>
</a>
</g>
</g>
<!-- Node1&#45;&gt;Node16 -->
<g id="edge17" class="edge">
<title>Node1&#45;&gt;Node16</title>
<path fill="none" stroke="midnightblue" d="M475.11,-224.08C479.87,-216.53 486.82,-205.49 492.65,-196.23"/>
<polygon fill="midnightblue" stroke="midnightblue" points="495.62,-198.08 497.99,-187.75 489.7,-194.35 495.62,-198.08"/>
</g>
<!-- Node3 -->
<g id="node3" class="node">
<title>Node3</title>
<g id="a_node3"><a xlink:title=" ">
<polygon fill="none" stroke="#bfbfbf" points="693,-0.5 693,-19.5 740,-19.5 740,-0.5 693,-0.5"/>
<text text-anchor="middle" x="716.5" y="-7.5" font-family="Helvetica,sans-Serif" font-size="10.00">vector</text>
</a>
</g>
</g>
<!-- Node2&#45;&gt;Node3 -->
<g id="edge2" class="edge">
<title>Node2&#45;&gt;Node3</title>
<path fill="none" stroke="midnightblue" d="M458.47,-112.37C507.85,-92.97 627.74,-45.87 685.02,-23.37"/>
<polygon fill="midnightblue" stroke="midnightblue" points="686.6,-26.51 694.63,-19.59 684.04,-19.99 686.6,-26.51"/>
</g>
<!-- Node4 -->
<g id="node4" class="node">
<title>Node4</title>
<g id="a_node4"><a xlink:title=" ">
<polygon fill="none" stroke="#bfbfbf" points="85.5,-56.5 85.5,-75.5 123.5,-75.5 123.5,-56.5 85.5,-56.5"/>
<text text-anchor="middle" x="104.5" y="-63.5" font-family="Helvetica,sans-Serif" font-size="10.00">map</text>
</a>
</g>
</g>
<!-- Node2&#45;&gt;Node4 -->
<g id="edge3" class="edge">
<title>Node2&#45;&gt;Node4</title>
<path fill="none" stroke="midnightblue" d="M414.14,-118.96C365,-114.21 243.8,-101.02 133.61,-75.92"/>
<polygon fill="midnightblue" stroke="midnightblue" points="134.2,-72.47 123.66,-73.62 132.61,-79.29 134.2,-72.47"/>
</g>
<!-- Node5 -->
<g id="node5" class="node">
<title>Node5</title>
<g id="a_node5"><a xlink:href="functions_8h.html" target="_top" xlink:title=" ">
<polygon fill="none" stroke="black" points="142,-56.5 142,-75.5 213,-75.5 213,-56.5 142,-56.5"/>
<text text-anchor="middle" x="177.5" y="-63.5" font-family="Helvetica,sans-Serif" font-size="10.00">functions.h</text>
</a>
</g>
</g>
<!-- Node2&#45;&gt;Node5 -->
<g id="edge4" class="edge">
<title>Node2&#45;&gt;Node5</title>
<path fill="none" stroke="midnightblue" d="M414.42,-116.4C372.27,-107.61 279.55,-88.28 223.42,-76.57"/>
<polygon fill="midnightblue" stroke="midnightblue" points="223.89,-73.1 213.39,-74.48 222.46,-79.95 223.89,-73.1"/>
</g>
<!-- Node9 -->
<g id="node9" class="node">
<title>Node9</title>
<g id="a_node9"><a xlink:href="initializer__v2_8h.html" target="_top" xlink:title=" ">
<polygon fill="none" stroke="black" points="392,-56.5 392,-75.5 481,-75.5 481,-56.5 392,-56.5"/>
<text text-anchor="middle" x="436.5" y="-63.5" font-family="Helvetica,sans-Serif" font-size="10.00">initializer_v2.h</text>
</a>
</g>
</g>
<!-- Node2&#45;&gt;Node9 -->
<g id="edge8" class="edge">
<title>Node2&#45;&gt;Node9</title>
<path fill="none" stroke="midnightblue" d="M436.5,-112.08C436.5,-105.01 436.5,-94.86 436.5,-85.99"/>
<polygon fill="midnightblue" stroke="midnightblue" points="440,-85.75 436.5,-75.75 433,-85.75 440,-85.75"/>
</g>
<!-- Node6 -->
<g id="node6" class="node">
<title>Node6</title>
<g id="a_node6"><a xlink:title=" ">
<polygon fill="none" stroke="#bfbfbf" points="0,-0.5 0,-19.5 47,-19.5 47,-0.5 0,-0.5"/>
<text text-anchor="middle" x="23.5" y="-7.5" font-family="Helvetica,sans-Serif" font-size="10.00">cmath</text>
</a>
</g>
</g>
<!-- Node5&#45;&gt;Node6 -->
<g id="edge5" class="edge">
<title>Node5&#45;&gt;Node6</title>
<path fill="none" stroke="midnightblue" d="M153.1,-56.44C127.08,-47.32 85.7,-32.81 56.72,-22.65"/>
<polygon fill="midnightblue" stroke="midnightblue" points="57.62,-19.26 47.03,-19.25 55.31,-25.86 57.62,-19.26"/>
</g>
<!-- Node7 -->
<g id="node7" class="node">
<title>Node7</title>
<g id="a_node7"><a xlink:title=" ">
<polygon fill="none" stroke="#bfbfbf" points="65.5,-0.5 65.5,-19.5 129.5,-19.5 129.5,-0.5 65.5,-0.5"/>
<text text-anchor="middle" x="97.5" y="-7.5" font-family="Helvetica,sans-Serif" font-size="10.00">algorithm</text>
</a>
</g>
</g>
<!-- Node5&#45;&gt;Node7 -->
<g id="edge6" class="edge">
<title>Node5&#45;&gt;Node7</title>
<path fill="none" stroke="midnightblue" d="M164.65,-56.32C152.28,-47.98 133.37,-35.21 118.76,-25.35"/>
<polygon fill="midnightblue" stroke="midnightblue" points="120.57,-22.35 110.32,-19.65 116.65,-28.15 120.57,-22.35"/>
</g>
<!-- Node8 -->
<g id="node8" class="node">
<title>Node8</title>
<g id="a_node8"><a xlink:title=" ">
<polygon fill="none" stroke="#bfbfbf" points="147.5,-0.5 147.5,-19.5 207.5,-19.5 207.5,-0.5 147.5,-0.5"/>
<text text-anchor="middle" x="177.5" y="-7.5" font-family="Helvetica,sans-Serif" font-size="10.00">iostream</text>
</a>
</g>
</g>
<!-- Node5&#45;&gt;Node8 -->
<g id="edge7" class="edge">
<title>Node5&#45;&gt;Node8</title>
<path fill="none" stroke="midnightblue" d="M177.5,-56.08C177.5,-49.01 177.5,-38.86 177.5,-29.99"/>
<polygon fill="midnightblue" stroke="midnightblue" points="181,-29.75 177.5,-19.75 174,-29.75 181,-29.75"/>
</g>
<!-- Node9&#45;&gt;Node3 -->
<g id="edge13" class="edge">
<title>Node9&#45;&gt;Node3</title>
<path fill="none" stroke="midnightblue" d="M481.36,-58.02C528.99,-50.34 606.67,-37.07 682.99,-19.95"/>
<polygon fill="midnightblue" stroke="midnightblue" points="683.79,-23.36 692.77,-17.73 682.24,-16.53 683.79,-23.36"/>
</g>
<!-- Node9&#45;&gt;Node8 -->
<g id="edge9" class="edge">
<title>Node9&#45;&gt;Node8</title>
<path fill="none" stroke="midnightblue" d="M393.02,-56.44C350.67,-48.03 284.23,-34.63 217.55,-20.19"/>
<polygon fill="midnightblue" stroke="midnightblue" points="218.23,-16.76 207.72,-18.05 216.75,-23.6 218.23,-16.76"/>
</g>
<!-- Node10 -->
<g id="node10" class="node">
<title>Node10</title>
<g id="a_node10"><a xlink:title=" ">
<polygon fill="none" stroke="#bfbfbf" points="568.5,-0.5 568.5,-19.5 612.5,-19.5 612.5,-0.5 568.5,-0.5"/>
<text text-anchor="middle" x="590.5" y="-7.5" font-family="Helvetica,sans-Serif" font-size="10.00">regex</text>
</a>
</g>
</g>
<!-- Node9&#45;&gt;Node10 -->
<g id="edge10" class="edge">
<title>Node9&#45;&gt;Node10</title>
<path fill="none" stroke="midnightblue" d="M460.9,-56.44C487.3,-47.19 529.51,-32.39 558.54,-22.21"/>
<polygon fill="midnightblue" stroke="midnightblue" points="559.93,-25.43 568.21,-18.82 557.62,-18.82 559.93,-25.43"/>
</g>
<!-- Node11 -->
<g id="node11" class="node">
<title>Node11</title>
<g id="a_node11"><a xlink:title=" ">
<polygon fill="none" stroke="#bfbfbf" points="630.5,-0.5 630.5,-19.5 674.5,-19.5 674.5,-0.5 630.5,-0.5"/>
<text text-anchor="middle" x="652.5" y="-7.5" font-family="Helvetica,sans-Serif" font-size="10.00">string</text>
</a>
</g>
</g>
<!-- Node9&#45;&gt;Node11 -->
<g id="edge11" class="edge">
<title>Node9&#45;&gt;Node11</title>
<path fill="none" stroke="midnightblue" d="M473.83,-56.43C509.23,-48.19 564.14,-35.11 620.41,-20.21"/>
<polygon fill="midnightblue" stroke="midnightblue" points="621.42,-23.56 630.18,-17.61 619.62,-16.8 621.42,-23.56"/>
</g>
<!-- Node12 -->
<g id="node12" class="node">
<title>Node12</title>
<g id="a_node12"><a xlink:title=" ">
<polygon fill="none" stroke="#bfbfbf" points="226,-0.5 226,-19.5 281,-19.5 281,-0.5 226,-0.5"/>
<text text-anchor="middle" x="253.5" y="-7.5" font-family="Helvetica,sans-Serif" font-size="10.00">fstream</text>
</a>
</g>
</g>
<!-- Node9&#45;&gt;Node12 -->
<g id="edge12" class="edge">
<title>Node9&#45;&gt;Node12</title>
<path fill="none" stroke="midnightblue" d="M407.5,-56.44C375.95,-47.13 325.4,-32.22 290.88,-22.03"/>
<polygon fill="midnightblue" stroke="midnightblue" points="291.75,-18.64 281.16,-19.16 289.76,-25.35 291.75,-18.64"/>
</g>
<!-- Node13 -->
<g id="node13" class="node">
<title>Node13</title>
<g id="a_node13"><a xlink:title=" ">
<polygon fill="none" stroke="#bfbfbf" points="299.5,-0.5 299.5,-19.5 355.5,-19.5 355.5,-0.5 299.5,-0.5"/>
<text text-anchor="middle" x="327.5" y="-7.5" font-family="Helvetica,sans-Serif" font-size="10.00">sstream</text>
</a>
</g>
</g>
<!-- Node9&#45;&gt;Node13 -->
<g id="edge14" class="edge">
<title>Node9&#45;&gt;Node13</title>
<path fill="none" stroke="midnightblue" d="M418.99,-56.32C401.43,-47.62 374.17,-34.12 353.97,-24.11"/>
<polygon fill="midnightblue" stroke="midnightblue" points="355.48,-20.96 344.97,-19.65 352.38,-27.23 355.48,-20.96"/>
</g>
<!-- Node14 -->
<g id="node14" class="node">
<title>Node14</title>
<g id="a_node14"><a xlink:title=" ">
<polygon fill="none" stroke="#bfbfbf" points="374,-0.5 374,-19.5 439,-19.5 439,-0.5 374,-0.5"/>
<text text-anchor="middle" x="406.5" y="-7.5" font-family="Helvetica,sans-Serif" font-size="10.00">stdexcept</text>
</a>
</g>
</g>
<!-- Node9&#45;&gt;Node14 -->
<g id="edge15" class="edge">
<title>Node9&#45;&gt;Node14</title>
<path fill="none" stroke="midnightblue" d="M431.55,-56.08C427.4,-48.61 421.35,-37.72 416.23,-28.52"/>
<polygon fill="midnightblue" stroke="midnightblue" points="419.28,-26.79 411.36,-19.75 413.16,-30.19 419.28,-26.79"/>
</g>
<!-- Node15 -->
<g id="node15" class="node">
<title>Node15</title>
<g id="a_node15"><a xlink:title=" ">
<polygon fill="none" stroke="#bfbfbf" points="457,-0.5 457,-19.5 550,-19.5 550,-0.5 457,-0.5"/>
<text text-anchor="middle" x="503.5" y="-7.5" font-family="Helvetica,sans-Serif" font-size="10.00">unordered_map</text>
</a>
</g>
</g>
<!-- Node9&#45;&gt;Node15 -->
<g id="edge16" class="edge">
<title>Node9&#45;&gt;Node15</title>
<path fill="none" stroke="midnightblue" d="M447.26,-56.32C457.27,-48.26 472.39,-36.08 484.43,-26.37"/>
<polygon fill="midnightblue" stroke="midnightblue" points="486.95,-28.83 492.54,-19.83 482.56,-23.38 486.95,-28.83"/>
</g>
<!-- Node16&#45;&gt;Node2 -->
<g id="edge21" class="edge">
<title>Node16&#45;&gt;Node2</title>
<path fill="none" stroke="midnightblue" d="M492.74,-168.32C482.73,-160.26 467.61,-148.08 455.57,-138.37"/>
<polygon fill="midnightblue" stroke="midnightblue" points="457.44,-135.38 447.46,-131.83 453.05,-140.83 457.44,-135.38"/>
</g>
<!-- Node16&#45;&gt;Node3 -->
<g id="edge18" class="edge">
<title>Node16&#45;&gt;Node3</title>
<path fill="none" stroke="midnightblue" d="M531.68,-168.5C553.63,-161.04 584.17,-148.76 607.5,-132 649.22,-102.03 686.62,-53.65 704.82,-28.09"/>
<polygon fill="midnightblue" stroke="midnightblue" points="707.77,-29.98 710.63,-19.78 702.03,-25.97 707.77,-29.98"/>
</g>
<!-- Node17 -->
<g id="node17" class="node">
<title>Node17</title>
<g id="a_node17"><a xlink:title=" ">
<polygon fill="none" stroke="#bfbfbf" points="476.5,-112.5 476.5,-131.5 530.5,-131.5 530.5,-112.5 476.5,-112.5"/>
<text text-anchor="middle" x="503.5" y="-119.5" font-family="Helvetica,sans-Serif" font-size="10.00">random</text>
</a>
</g>
</g>
<!-- Node16&#45;&gt;Node17 -->
<g id="edge19" class="edge">
<title>Node16&#45;&gt;Node17</title>
<path fill="none" stroke="midnightblue" d="M503.5,-168.08C503.5,-161.01 503.5,-150.86 503.5,-141.99"/>
<polygon fill="midnightblue" stroke="midnightblue" points="507,-141.75 503.5,-131.75 500,-141.75 507,-141.75"/>
</g>
<!-- Node18 -->
<g id="node18" class="node">
<title>Node18</title>
<g id="a_node18"><a xlink:title=" ">
<polygon fill="none" stroke="#bfbfbf" points="548.5,-112.5 548.5,-131.5 598.5,-131.5 598.5,-112.5 548.5,-112.5"/>
<text text-anchor="middle" x="573.5" y="-119.5" font-family="Helvetica,sans-Serif" font-size="10.00">Rcpp.h</text>
</a>
</g>
</g>
<!-- Node16&#45;&gt;Node18 -->
<g id="edge20" class="edge">
<title>Node16&#45;&gt;Node18</title>
<path fill="none" stroke="midnightblue" d="M514.75,-168.32C525.3,-160.18 541.3,-147.84 553.94,-138.09"/>
<polygon fill="midnightblue" stroke="midnightblue" points="556.27,-140.71 562.05,-131.83 551.99,-135.17 556.27,-140.71"/>
</g>
</g>
</svg>
