<?xml version="1.0" encoding="UTF-8" standalone="no"?>
<!DOCTYPE svg PUBLIC "-//W3C//DTD SVG 1.1//EN"
 "http://www.w3.org/Graphics/SVG/1.1/DTD/svg11.dtd">
<!-- Generated by graphviz version 2.43.0 (0)
 -->
<!-- Title: inst/include/fish.h Pages: 1 -->
<svg width="454pt" height="196pt"
 viewBox="0.00 0.00 453.87 196.00" xmlns="http://www.w3.org/2000/svg" xmlns:xlink="http://www.w3.org/1999/xlink">
<g id="graph0" class="graph" transform="scale(1 1) rotate(0) translate(4 192)">
<title>inst/include/fish.h</title>
<!-- Node1 -->
<g id="node1" class="node">
<title>Node1</title>
<g id="a_node1"><a xlink:title=" ">
<polygon fill="#bfbfbf" stroke="black" points="150.5,-168.5 150.5,-187.5 253.5,-187.5 253.5,-168.5 150.5,-168.5"/>
<text text-anchor="middle" x="202" y="-175.5" font-family="Helvetica,sans-Serif" font-size="10.00">inst/include/fish.h</text>
</a>
</g>
</g>
<!-- Node2 -->
<g id="node2" class="node">
<title>Node2</title>
<g id="a_node2"><a xlink:href="fish_8cpp.html" target="_top" xlink:title=" ">
<polygon fill="none" stroke="black" points="54,-112.5 54,-131.5 126,-131.5 126,-112.5 54,-112.5"/>
<text text-anchor="middle" x="90" y="-119.5" font-family="Helvetica,sans-Serif" font-size="10.00">src/fish.cpp</text>
</a>
</g>
</g>
<!-- Node1&#45;&gt;Node2 -->
<g id="edge1" class="edge">
<title>Node1&#45;&gt;Node2</title>
<path fill="none" stroke="midnightblue" d="M174.75,-163.86C153.98,-153.85 125.98,-140.35 107.95,-131.65"/>
<polygon fill="midnightblue" stroke="midnightblue" points="173.48,-167.13 184.01,-168.32 176.52,-160.83 173.48,-167.13"/>
</g>
<!-- Node3 -->
<g id="node3" class="node">
<title>Node3</title>
<g id="a_node3"><a xlink:href="fish__glue_8cpp.html" target="_top" xlink:title=" ">
<polygon fill="none" stroke="black" points="264,-0.5 264,-19.5 362,-19.5 362,-0.5 264,-0.5"/>
<text text-anchor="middle" x="313" y="-7.5" font-family="Helvetica,sans-Serif" font-size="10.00">src/fish_glue.cpp</text>
</a>
</g>
</g>
<!-- Node1&#45;&gt;Node3 -->
<g id="edge2" class="edge">
<title>Node1&#45;&gt;Node3</title>
<path fill="none" stroke="midnightblue" d="M263.79,-170.55C321.3,-160.83 403.58,-136.55 441,-76 461.96,-42.08 406.72,-25.17 362.34,-17.26"/>
<polygon fill="midnightblue" stroke="midnightblue" points="263.05,-167.12 253.72,-172.15 264.14,-174.04 263.05,-167.12"/>
</g>
<!-- Node4 -->
<g id="node4" class="node">
<title>Node4</title>
<g id="a_node4"><a xlink:href="fisheRy_8h.html" target="_top" xlink:title=" ">
<polygon fill="none" stroke="black" points="0,-56.5 0,-75.5 120,-75.5 120,-56.5 0,-56.5"/>
<text text-anchor="middle" x="60" y="-63.5" font-family="Helvetica,sans-Serif" font-size="10.00">inst/include/fisheRy.h</text>
</a>
</g>
</g>
<!-- Node1&#45;&gt;Node4 -->
<g id="edge3" class="edge">
<title>Node1&#45;&gt;Node4</title>
<path fill="none" stroke="midnightblue" d="M187.52,-161C174.53,-147.15 154.55,-127.03 135,-112 116.22,-97.56 92.48,-84.01 76.79,-75.63"/>
<polygon fill="midnightblue" stroke="midnightblue" points="184.95,-163.38 194.3,-168.35 190.09,-158.63 184.95,-163.38"/>
</g>
<!-- Node6 -->
<g id="node6" class="node">
<title>Node6</title>
<g id="a_node6"><a xlink:href="population_8h.html" target="_top" xlink:title=" ">
<polygon fill="none" stroke="black" points="182.5,-112.5 182.5,-131.5 319.5,-131.5 319.5,-112.5 182.5,-112.5"/>
<text text-anchor="middle" x="251" y="-119.5" font-family="Helvetica,sans-Serif" font-size="10.00">inst/include/population.h</text>
</a>
</g>
</g>
<!-- Node1&#45;&gt;Node6 -->
<g id="edge5" class="edge">
<title>Node1&#45;&gt;Node6</title>
<path fill="none" stroke="midnightblue" d="M217.03,-160.43C225.62,-150.97 236.04,-139.48 243.06,-131.75"/>
<polygon fill="midnightblue" stroke="midnightblue" points="214.22,-158.33 210.09,-168.08 219.4,-163.03 214.22,-158.33"/>
</g>
<!-- Node5 -->
<g id="node5" class="node">
<title>Node5</title>
<g id="a_node5"><a xlink:href="RcppExports_8cpp.html" target="_top" xlink:title=" ">
<polygon fill="none" stroke="black" points="2.5,-0.5 2.5,-19.5 117.5,-19.5 117.5,-0.5 2.5,-0.5"/>
<text text-anchor="middle" x="60" y="-7.5" font-family="Helvetica,sans-Serif" font-size="10.00">src/RcppExports.cpp</text>
</a>
</g>
</g>
<!-- Node4&#45;&gt;Node5 -->
<g id="edge4" class="edge">
<title>Node4&#45;&gt;Node5</title>
<path fill="none" stroke="midnightblue" d="M60,-45.8C60,-36.91 60,-26.78 60,-19.75"/>
<polygon fill="midnightblue" stroke="midnightblue" points="56.5,-46.08 60,-56.08 63.5,-46.08 56.5,-46.08"/>
</g>
<!-- Node6&#45;&gt;Node3 -->
<g id="edge6" class="edge">
<title>Node6&#45;&gt;Node3</title>
<path fill="none" stroke="midnightblue" d="M261.98,-104.02C267.27,-95.67 273.63,-85.4 279,-76 290.38,-56.1 302.56,-32.05 308.8,-19.52"/>
<polygon fill="midnightblue" stroke="midnightblue" points="259,-102.18 256.56,-112.49 264.9,-105.95 259,-102.18"/>
</g>
<!-- Node6&#45;&gt;Node4 -->
<g id="edge8" class="edge">
<title>Node6&#45;&gt;Node4</title>
<path fill="none" stroke="midnightblue" d="M211.03,-109.7C174.98,-99.51 122.76,-84.74 90.12,-75.52"/>
<polygon fill="midnightblue" stroke="midnightblue" points="210.16,-113.09 220.74,-112.44 212.06,-106.35 210.16,-113.09"/>
</g>
<!-- Node7 -->
<g id="node7" class="node">
<title>Node7</title>
<g id="a_node7"><a xlink:href="population_8cpp.html" target="_top" xlink:title=" ">
<polygon fill="none" stroke="black" points="326,-56.5 326,-75.5 432,-75.5 432,-56.5 326,-56.5"/>
<text text-anchor="middle" x="379" y="-63.5" font-family="Helvetica,sans-Serif" font-size="10.00">src/population.cpp</text>
</a>
</g>
</g>
<!-- Node6&#45;&gt;Node7 -->
<g id="edge7" class="edge">
<title>Node6&#45;&gt;Node7</title>
<path fill="none" stroke="midnightblue" d="M280.62,-108.5C304.62,-98.38 337.78,-84.39 358.81,-75.52"/>
<polygon fill="midnightblue" stroke="midnightblue" points="279.14,-105.33 271.28,-112.44 281.86,-111.78 279.14,-105.33"/>
</g>
<!-- Node8 -->
<g id="node8" class="node">
<title>Node8</title>
<g id="a_node8"><a xlink:href="simulator_8h.html" target="_top" xlink:title=" ">
<polygon fill="none" stroke="black" points="138.5,-56.5 138.5,-75.5 269.5,-75.5 269.5,-56.5 138.5,-56.5"/>
<text text-anchor="middle" x="204" y="-63.5" font-family="Helvetica,sans-Serif" font-size="10.00">inst/include/simulator.h</text>
</a>
</g>
</g>
<!-- Node6&#45;&gt;Node8 -->
<g id="edge9" class="edge">
<title>Node6&#45;&gt;Node8</title>
<path fill="none" stroke="midnightblue" d="M236.58,-104.43C228.34,-94.97 218.35,-83.48 211.62,-75.75"/>
<polygon fill="midnightblue" stroke="midnightblue" points="234.03,-106.84 243.24,-112.08 239.31,-102.24 234.03,-106.84"/>
</g>
<!-- Node8&#45;&gt;Node3 -->
<g id="edge10" class="edge">
<title>Node8&#45;&gt;Node3</title>
<path fill="none" stroke="midnightblue" d="M230.52,-51.86C250.73,-41.85 277.99,-28.35 295.53,-19.65"/>
<polygon fill="midnightblue" stroke="midnightblue" points="228.92,-48.75 221.51,-56.32 232.03,-55.02 228.92,-48.75"/>
</g>
<!-- Node9 -->
<g id="node9" class="node">
<title>Node9</title>
<g id="a_node9"><a xlink:href="simulator_8cpp.html" target="_top" xlink:title=" ">
<polygon fill="none" stroke="black" points="144.5,-0.5 144.5,-19.5 245.5,-19.5 245.5,-0.5 144.5,-0.5"/>
<text text-anchor="middle" x="195" y="-7.5" font-family="Helvetica,sans-Serif" font-size="10.00">src/simulator.cpp</text>
</a>
</g>
</g>
<!-- Node8&#45;&gt;Node9 -->
<g id="edge11" class="edge">
<title>Node8&#45;&gt;Node9</title>
<path fill="none" stroke="midnightblue" d="M200.85,-46.1C199.36,-37.14 197.64,-26.86 196.46,-19.75"/>
<polygon fill="midnightblue" stroke="midnightblue" points="197.42,-46.79 202.51,-56.08 204.32,-45.64 197.42,-46.79"/>
</g>
</g>
</svg>
