<?xml version="1.0" encoding="UTF-8" standalone="no"?>
<!DOCTYPE svg PUBLIC "-//W3C//DTD SVG 1.1//EN"
 "http://www.w3.org/Graphics/SVG/1.1/DTD/svg11.dtd">
<!-- Generated by graphviz version 2.43.0 (0)
 -->
<!-- Title: RCPP_MODULE Pages: 1 -->
<svg width="872pt" height="781pt"
 viewBox="0.00 0.00 872.00 781.33" xmlns="http://www.w3.org/2000/svg" xmlns:xlink="http://www.w3.org/1999/xlink">
<g id="graph0" class="graph" transform="scale(1 1) rotate(0) translate(4 777.33)">
<title>RCPP_MODULE</title>
<!-- Node1 -->
<g id="node1" class="node">
<title>Node1</title>
<g id="a_node1"><a xlink:title=" ">
<polygon fill="#bfbfbf" stroke="black" points="0,-361.5 0,-380.5 90,-380.5 90,-361.5 0,-361.5"/>
<text text-anchor="middle" x="45" y="-368.5" font-family="Helvetica,sans-Serif" font-size="10.00">RCPP_MODULE</text>
</a>
</g>
</g>
<!-- Node2 -->
<g id="node2" class="node">
<title>Node2</title>
<g id="a_node2"><a xlink:href="classPopulation.html#af15e7ba23b161c710d4013204b542cb6" target="_top" xlink:title=" ">
<polygon fill="none" stroke="black" points="566,-684.5 566,-703.5 679,-703.5 679,-684.5 566,-684.5"/>
<text text-anchor="middle" x="622.5" y="-691.5" font-family="Helvetica,sans-Serif" font-size="10.00">Population::calcSSB</text>
</a>
</g>
</g>
<!-- Node1&#45;&gt;Node2 -->
<g id="edge1" class="edge">
<title>Node1&#45;&gt;Node2</title>
<path fill="none" stroke="midnightblue" d="M47.11,-380.72C52.65,-427.64 79.08,-630.05 126,-668 190.19,-719.91 436.01,-708.67 555.51,-699.73"/>
<polygon fill="midnightblue" stroke="midnightblue" points="555.92,-703.21 565.63,-698.96 555.39,-696.23 555.92,-703.21"/>
</g>
<!-- Node3 -->
<g id="node3" class="node">
<title>Node3</title>
<g id="a_node3"><a xlink:href="classPopulation.html#a42c4b04852bdda937e50f82952106af1" target="_top" xlink:title=" ">
<polygon fill="none" stroke="black" points="545,-570.5 545,-589.5 700,-589.5 700,-570.5 545,-570.5"/>
<text text-anchor="middle" x="622.5" y="-577.5" font-family="Helvetica,sans-Serif" font-size="10.00">Population::fishableBiomass</text>
</a>
</g>
</g>
<!-- Node1&#45;&gt;Node3 -->
<g id="edge2" class="edge">
<title>Node1&#45;&gt;Node3</title>
<path fill="none" stroke="midnightblue" d="M46.99,-380.9C50.68,-411.98 66.66,-507.93 126,-549 190.02,-593.31 410.47,-590.52 534.67,-585.04"/>
<polygon fill="midnightblue" stroke="midnightblue" points="535.08,-588.52 544.91,-584.57 534.76,-581.53 535.08,-588.52"/>
</g>
<!-- Node4 -->
<g id="node4" class="node">
<title>Node4</title>
<g id="a_node4"><a xlink:href="classPopulation.html#ac8ed845bbda25c937a2fd76b3788e987" target="_top" xlink:title=" ">
<polygon fill="none" stroke="black" points="739,-532.5 739,-551.5 864,-551.5 864,-532.5 739,-532.5"/>
<text text-anchor="middle" x="801.5" y="-539.5" font-family="Helvetica,sans-Serif" font-size="10.00">Population::selectivity</text>
</a>
</g>
</g>
<!-- Node1&#45;&gt;Node4 -->
<g id="edge38" class="edge">
<title>Node1&#45;&gt;Node4</title>
<path fill="none" stroke="midnightblue" d="M46.41,-380.94C48.41,-415.14 59.96,-528.65 126,-581 199.1,-638.95 448.93,-630.76 542,-637 613.4,-641.78 636.71,-663.95 703,-637 741.1,-621.51 772.45,-583.18 788.63,-560.22"/>
<polygon fill="midnightblue" stroke="midnightblue" points="791.69,-561.94 794.43,-551.71 785.91,-558 791.69,-561.94"/>
</g>
<!-- Node5 -->
<g id="node5" class="node">
<title>Node5</title>
<g id="a_node5"><a xlink:href="classPopulation.html#a62f07e15a6d75f0e37e6e24e6a2eaec2" target="_top" xlink:title=" ">
<polygon fill="none" stroke="black" points="154,-342.5 154,-361.5 274,-361.5 274,-342.5 154,-342.5"/>
<text text-anchor="middle" x="214" y="-349.5" font-family="Helvetica,sans-Serif" font-size="10.00">Population::get_state</text>
</a>
</g>
</g>
<!-- Node1&#45;&gt;Node5 -->
<g id="edge4" class="edge">
<title>Node1&#45;&gt;Node5</title>
<path fill="none" stroke="midnightblue" d="M90.31,-365.96C106.63,-364.1 125.52,-361.95 143.52,-359.91"/>
<polygon fill="midnightblue" stroke="midnightblue" points="144.15,-363.36 153.69,-358.75 143.36,-356.4 144.15,-363.36"/>
</g>
<!-- Node6 -->
<g id="node6" class="node">
<title>Node6</title>
<g id="a_node6"><a xlink:href="classPopulation.html#a29fa674d9ce3986f71b07f11d2374fde" target="_top" xlink:title=" ">
<polygon fill="none" stroke="black" points="153.5,-304.5 153.5,-323.5 274.5,-323.5 274.5,-304.5 153.5,-304.5"/>
<text text-anchor="middle" x="214" y="-311.5" font-family="Helvetica,sans-Serif" font-size="10.00">Population::get_traits</text>
</a>
</g>
</g>
<!-- Node1&#45;&gt;Node6 -->
<g id="edge5" class="edge">
<title>Node1&#45;&gt;Node6</title>
<path fill="none" stroke="midnightblue" d="M63.31,-361.36C79.19,-352.85 103.59,-340.66 126,-333 133.7,-330.37 141.9,-328.02 150.09,-325.94"/>
<polygon fill="midnightblue" stroke="midnightblue" points="151.12,-329.29 160.02,-323.55 149.48,-322.49 151.12,-329.29"/>
</g>
<!-- Node8 -->
<g id="node8" class="node">
<title>Node8</title>
<g id="a_node8"><a xlink:href="classPopulation.html#a012ef586a78b4e7c2082634b316072d0" target="_top" xlink:title=" ">
<polygon fill="none" stroke="black" points="377,-456.5 377,-475.5 467,-475.5 467,-456.5 377,-456.5"/>
<text text-anchor="middle" x="422" y="-463.5" font-family="Helvetica,sans-Serif" font-size="10.00">Population::init</text>
</a>
</g>
</g>
<!-- Node1&#45;&gt;Node8 -->
<g id="edge7" class="edge">
<title>Node1&#45;&gt;Node8</title>
<path fill="none" stroke="midnightblue" d="M55.84,-380.75C70.02,-394.13 97.6,-417.79 126,-429 205.65,-460.45 305.96,-466.67 366.7,-467.16"/>
<polygon fill="midnightblue" stroke="midnightblue" points="366.82,-470.66 376.83,-467.19 366.84,-463.66 366.82,-470.66"/>
</g>
<!-- Node12 -->
<g id="node12" class="node">
<title>Node12</title>
<g id="a_node12"><a xlink:href="classPopulationParams.html#a32de4f0d5a47821e5986225f7551e082" target="_top" xlink:title=" ">
<polygon fill="none" stroke="black" points="338,-247.5 338,-266.5 506,-266.5 506,-247.5 338,-247.5"/>
<text text-anchor="middle" x="422" y="-254.5" font-family="Helvetica,sans-Serif" font-size="10.00">PopulationParams::initFromFile</text>
</a>
</g>
</g>
<!-- Node1&#45;&gt;Node12 -->
<g id="edge11" class="edge">
<title>Node1&#45;&gt;Node12</title>
<path fill="none" stroke="midnightblue" d="M52.85,-361.3C65.28,-344.56 93.3,-310.55 126,-295 160.74,-278.48 254.97,-268.32 327.67,-262.71"/>
<polygon fill="midnightblue" stroke="midnightblue" points="328.07,-266.19 337.78,-261.95 327.54,-259.21 328.07,-266.19"/>
</g>
<!-- Node14 -->
<g id="node14" class="node">
<title>Node14</title>
<g id="a_node14"><a xlink:href="classPopulation.html#ac62fc3480d60b055cd1886649809c6a6" target="_top" xlink:title=" ">
<polygon fill="none" stroke="black" points="573.5,-330.5 573.5,-349.5 671.5,-349.5 671.5,-330.5 573.5,-330.5"/>
<text text-anchor="middle" x="622.5" y="-337.5" font-family="Helvetica,sans-Serif" font-size="10.00">Population::nfish</text>
</a>
</g>
</g>
<!-- Node1&#45;&gt;Node14 -->
<g id="edge13" class="edge">
<title>Node1&#45;&gt;Node14</title>
<path fill="none" stroke="midnightblue" d="M90.43,-372.3C141.51,-373.49 227.86,-374.59 302,-371 393.48,-366.57 499.19,-355.05 563.15,-347.37"/>
<polygon fill="midnightblue" stroke="midnightblue" points="563.92,-350.8 573.43,-346.13 563.08,-343.85 563.92,-350.8"/>
</g>
<!-- Node15 -->
<g id="node15" class="node">
<title>Node15</title>
<g id="a_node15"><a xlink:href="classPopulation.html#aa7eba257f23cbc12aa3673ce012fb2cb" target="_top" xlink:title=" ">
<polygon fill="none" stroke="black" points="126,-494.5 126,-513.5 302,-513.5 302,-494.5 126,-494.5"/>
<text text-anchor="middle" x="214" y="-501.5" font-family="Helvetica,sans-Serif" font-size="10.00">Population::noFishingEquilibriate</text>
</a>
</g>
</g>
<!-- Node1&#45;&gt;Node15 -->
<g id="edge14" class="edge">
<title>Node1&#45;&gt;Node15</title>
<path fill="none" stroke="midnightblue" d="M50.26,-380.54C60.26,-401.82 87.34,-453.36 126,-480 132.44,-484.44 139.68,-488.06 147.16,-491.01"/>
<polygon fill="midnightblue" stroke="midnightblue" points="146.12,-494.36 156.71,-494.4 148.46,-487.76 146.12,-494.36"/>
</g>
<!-- Node16 -->
<g id="node16" class="node">
<title>Node16</title>
<g id="a_node16"><a xlink:href="classPopulation.html#a20696fa511c914e7c8837acb2a254b33" target="_top" xlink:title=" ">
<polygon fill="none" stroke="black" points="345.5,-418.5 345.5,-437.5 498.5,-437.5 498.5,-418.5 345.5,-418.5"/>
<text text-anchor="middle" x="422" y="-425.5" font-family="Helvetica,sans-Serif" font-size="10.00">Population::set_harvestProp</text>
</a>
</g>
</g>
<!-- Node1&#45;&gt;Node16 -->
<g id="edge39" class="edge">
<title>Node1&#45;&gt;Node16</title>
<path fill="none" stroke="midnightblue" d="M64.52,-380.58C80.39,-388.3 104.09,-398.73 126,-404 195.19,-420.65 275.85,-426.31 335.32,-428"/>
<polygon fill="midnightblue" stroke="midnightblue" points="335.34,-431.5 345.43,-428.25 335.52,-424.5 335.34,-431.5"/>
</g>
<!-- Node17 -->
<g id="node17" class="node">
<title>Node17</title>
<g id="a_node17"><a xlink:href="classPopulation.html#a81c19d1c80cfb1d54d3872ecdefd0872" target="_top" xlink:title=" ">
<polygon fill="none" stroke="black" points="368,-494.5 368,-513.5 476,-513.5 476,-494.5 368,-494.5"/>
<text text-anchor="middle" x="422" y="-501.5" font-family="Helvetica,sans-Serif" font-size="10.00">Population::update</text>
</a>
</g>
</g>
<!-- Node1&#45;&gt;Node17 -->
<g id="edge44" class="edge">
<title>Node1&#45;&gt;Node17</title>
<path fill="none" stroke="midnightblue" d="M47.63,-380.82C52.9,-409.09 72.39,-490.63 126,-523 209.31,-573.3 331.05,-538.66 388.58,-517.32"/>
<polygon fill="midnightblue" stroke="midnightblue" points="390.13,-520.47 398.23,-513.64 387.64,-513.93 390.13,-520.47"/>
</g>
<!-- Node22 -->
<g id="node22" class="node">
<title>Node22</title>
<g id="a_node22"><a xlink:href="classPopulationParams.html#a0c1aba939d8f42c06b873c3b853dcf19" target="_top" xlink:title=" ">
<polygon fill="none" stroke="black" points="147,-190.5 147,-209.5 281,-209.5 281,-190.5 147,-190.5"/>
<text text-anchor="middle" x="214" y="-197.5" font-family="Helvetica,sans-Serif" font-size="10.00">PopulationParams::print</text>
</a>
</g>
</g>
<!-- Node1&#45;&gt;Node22 -->
<g id="edge29" class="edge">
<title>Node1&#45;&gt;Node22</title>
<path fill="none" stroke="midnightblue" d="M48.08,-361.33C54.47,-334.17 76.41,-256.75 126,-219 129.46,-216.37 133.21,-214.08 137.14,-212.1"/>
<polygon fill="midnightblue" stroke="midnightblue" points="138.82,-215.19 146.61,-208.01 136.04,-208.77 138.82,-215.19"/>
</g>
<!-- Node23 -->
<g id="node23" class="node">
<title>Node23</title>
<g id="a_node23"><a xlink:href="classPopulation.html#a345497aa32fe22f73153a59f469c6a19" target="_top" xlink:title=" ">
<polygon fill="none" stroke="black" points="347.5,-646.5 347.5,-665.5 496.5,-665.5 496.5,-646.5 347.5,-646.5"/>
<text text-anchor="middle" x="422" y="-653.5" font-family="Helvetica,sans-Serif" font-size="10.00">Population::print_summary</text>
</a>
</g>
</g>
<!-- Node1&#45;&gt;Node23 -->
<g id="edge30" class="edge">
<title>Node1&#45;&gt;Node23</title>
<path fill="none" stroke="midnightblue" d="M45.5,-380.62C44.06,-419.54 44.38,-566.36 126,-632 195.75,-688.09 307.15,-678.96 371.24,-667.4"/>
<polygon fill="midnightblue" stroke="midnightblue" points="371.93,-670.83 381.1,-665.53 370.62,-663.95 371.93,-670.83"/>
</g>
<!-- Node24 -->
<g id="node24" class="node">
<title>Node24</title>
<g id="a_node24"><a xlink:href="classPopulation.html#af069291adb3fb7b451a36cf0a179398b" target="_top" xlink:title=" ">
<polygon fill="none" stroke="black" points="558,-722.5 558,-741.5 687,-741.5 687,-722.5 558,-722.5"/>
<text text-anchor="middle" x="622.5" y="-729.5" font-family="Helvetica,sans-Serif" font-size="10.00">Population::summarize</text>
</a>
</g>
</g>
<!-- Node1&#45;&gt;Node24 -->
<g id="edge43" class="edge">
<title>Node1&#45;&gt;Node24</title>
<path fill="none" stroke="midnightblue" d="M46.87,-380.71C51.52,-430.49 75.23,-656.49 126,-700 257.05,-812.3 486.17,-768.52 579.82,-744.11"/>
<polygon fill="midnightblue" stroke="midnightblue" points="580.75,-747.48 589.51,-741.52 578.95,-740.72 580.75,-747.48"/>
</g>
<!-- Node25 -->
<g id="node25" class="node">
<title>Node25</title>
<g id="a_node25"><a xlink:href="classPopulation.html#a2cbbf4e1d4fdfe6fc3f67b96a5aa698d" target="_top" xlink:title=" ">
<polygon fill="none" stroke="black" points="126.5,-152.5 126.5,-171.5 301.5,-171.5 301.5,-152.5 126.5,-152.5"/>
<text text-anchor="middle" x="214" y="-159.5" font-family="Helvetica,sans-Serif" font-size="10.00">Population::readEnvironmentFile</text>
</a>
</g>
</g>
<!-- Node1&#45;&gt;Node25 -->
<g id="edge35" class="edge">
<title>Node1&#45;&gt;Node25</title>
<path fill="none" stroke="midnightblue" d="M47,-361.29C50.77,-329.84 67.11,-229.97 126,-181 128.03,-179.31 130.17,-177.77 132.41,-176.35"/>
<polygon fill="midnightblue" stroke="midnightblue" points="134.28,-179.32 141.44,-171.5 130.97,-173.15 134.28,-179.32"/>
</g>
<!-- Node26 -->
<g id="node26" class="node">
<title>Node26</title>
<g id="a_node26"><a xlink:href="classPopulation.html#aeb1d470183d21899c25151c6fe15a4dc" target="_top" xlink:title=" ">
<polygon fill="none" stroke="black" points="147.5,-228.5 147.5,-247.5 280.5,-247.5 280.5,-228.5 147.5,-228.5"/>
<text text-anchor="middle" x="214" y="-235.5" font-family="Helvetica,sans-Serif" font-size="10.00">Population::readParams</text>
</a>
</g>
</g>
<!-- Node1&#45;&gt;Node26 -->
<g id="edge36" class="edge">
<title>Node1&#45;&gt;Node26</title>
<path fill="none" stroke="midnightblue" d="M50.26,-361.46C60.26,-340.18 87.34,-288.64 126,-262 132.44,-257.56 139.68,-253.94 147.16,-250.99"/>
<polygon fill="midnightblue" stroke="midnightblue" points="148.46,-254.24 156.71,-247.6 146.12,-247.64 148.46,-254.24"/>
</g>
<!-- Node27 -->
<g id="node27" class="node">
<title>Node27</title>
<g id="a_node27"><a xlink:href="classPopulation.html#a343a346cae1413da400c042868c15859" target="_top" xlink:title=" ">
<polygon fill="none" stroke="black" points="135,-114.5 135,-133.5 293,-133.5 293,-114.5 135,-114.5"/>
<text text-anchor="middle" x="214" y="-121.5" font-family="Helvetica,sans-Serif" font-size="10.00">Population::set_minSizeLimit</text>
</a>
</g>
</g>
<!-- Node1&#45;&gt;Node27 -->
<g id="edge40" class="edge">
<title>Node1&#45;&gt;Node27</title>
<path fill="none" stroke="midnightblue" d="M46.24,-361.43C47.65,-326.32 57.5,-203.59 126,-143 127.74,-141.46 129.58,-140.04 131.49,-138.72"/>
<polygon fill="midnightblue" stroke="midnightblue" points="133.43,-141.64 140.33,-133.6 129.93,-135.58 133.43,-141.64"/>
</g>
<!-- Node28 -->
<g id="node28" class="node">
<title>Node28</title>
<g id="a_node28"><a xlink:href="classPopulation.html#ae8a6455aa45e65bf8bd41312f9caa328" target="_top" xlink:title=" ">
<polygon fill="none" stroke="black" points="133.5,-76.5 133.5,-95.5 294.5,-95.5 294.5,-76.5 133.5,-76.5"/>
<text text-anchor="middle" x="214" y="-83.5" font-family="Helvetica,sans-Serif" font-size="10.00">Population::set_superFishSize</text>
</a>
</g>
</g>
<!-- Node1&#45;&gt;Node28 -->
<g id="edge41" class="edge">
<title>Node1&#45;&gt;Node28</title>
<path fill="none" stroke="midnightblue" d="M45.69,-361.24C45.01,-322.38 47.97,-177.23 126,-105 127.53,-103.58 129.14,-102.26 130.82,-101.03"/>
<polygon fill="midnightblue" stroke="midnightblue" points="133.01,-103.8 139.73,-95.6 129.37,-97.82 133.01,-103.8"/>
</g>
<!-- Node29 -->
<g id="node29" class="node">
<title>Node29</title>
<g id="a_node29"><a xlink:href="classPopulation.html#aadec56893118cacf7774f7f9e2aac18f" target="_top" xlink:title=" ">
<polygon fill="none" stroke="black" points="132.5,-38.5 132.5,-57.5 295.5,-57.5 295.5,-38.5 132.5,-38.5"/>
<text text-anchor="middle" x="214" y="-45.5" font-family="Helvetica,sans-Serif" font-size="10.00">Population::set_traitVariances</text>
</a>
</g>
</g>
<!-- Node1&#45;&gt;Node29 -->
<g id="edge42" class="edge">
<title>Node1&#45;&gt;Node29</title>
<path fill="none" stroke="midnightblue" d="M47.2,-361.21C53.22,-313.93 81.48,-109.67 126,-67 127.46,-65.6 129.01,-64.29 130.62,-63.06"/>
<polygon fill="midnightblue" stroke="midnightblue" points="132.58,-65.96 139.17,-57.66 128.84,-60.04 132.58,-65.96"/>
</g>
<!-- Node30 -->
<g id="node30" class="node">
<title>Node30</title>
<g id="a_node30"><a xlink:href="classPopulation.html#a59c8a171470f0cca4453940e07c3c1df" target="_top" xlink:title=" ">
<polygon fill="none" stroke="black" points="151,-0.5 151,-19.5 277,-19.5 277,-0.5 151,-0.5"/>
<text text-anchor="middle" x="214" y="-7.5" font-family="Helvetica,sans-Serif" font-size="10.00">Population::updateEnv</text>
</a>
</g>
</g>
<!-- Node1&#45;&gt;Node30 -->
<g id="edge45" class="edge">
<title>Node1&#45;&gt;Node30</title>
<path fill="none" stroke="midnightblue" d="M46.88,-361.37C51.71,-310.95 76.48,-77.79 126,-29 130.37,-24.69 135.48,-21.26 141,-18.54"/>
<polygon fill="midnightblue" stroke="midnightblue" points="142.67,-21.64 150.6,-14.61 140.02,-15.16 142.67,-21.64"/>
</g>
<!-- Node3&#45;&gt;Node4 -->
<g id="edge3" class="edge">
<title>Node3&#45;&gt;Node4</title>
<path fill="none" stroke="midnightblue" d="M668.16,-570.41C691.84,-565.33 721.11,-559.04 746.1,-553.68"/>
<polygon fill="midnightblue" stroke="midnightblue" points="747.11,-557.04 756.16,-551.52 745.64,-550.2 747.11,-557.04"/>
</g>
<!-- Node7 -->
<g id="node7" class="node">
<title>Node7</title>
<g id="a_node7"><a xlink:href="classFish.html#ada02edec02f9bed880911ea21b6d1a60" target="_top" xlink:title=" ">
<polygon fill="none" stroke="black" points="378,-304.5 378,-323.5 466,-323.5 466,-304.5 378,-304.5"/>
<text text-anchor="middle" x="422" y="-311.5" font-family="Helvetica,sans-Serif" font-size="10.00">Fish::get_traits</text>
</a>
</g>
</g>
<!-- Node6&#45;&gt;Node7 -->
<g id="edge6" class="edge">
<title>Node6&#45;&gt;Node7</title>
<path fill="none" stroke="midnightblue" d="M274.58,-314C304,-314 339.21,-314 367.73,-314"/>
<polygon fill="midnightblue" stroke="midnightblue" points="367.91,-317.5 377.91,-314 367.91,-310.5 367.91,-317.5"/>
</g>
<!-- Node9 -->
<g id="node9" class="node">
<title>Node9</title>
<g id="a_node9"><a xlink:href="classFish.html#adf85bf269f1651352506e371ffd2cecc" target="_top" xlink:title="Initializes the fish, i.e., initializes parameters and sets the initial state (age = 1,...">
<polygon fill="none" stroke="black" points="594,-368.5 594,-387.5 651,-387.5 651,-368.5 594,-368.5"/>
<text text-anchor="middle" x="622.5" y="-375.5" font-family="Helvetica,sans-Serif" font-size="10.00">Fish::init</text>
</a>
</g>
</g>
<!-- Node8&#45;&gt;Node9 -->
<g id="edge8" class="edge">
<title>Node8&#45;&gt;Node9</title>
<path fill="none" stroke="midnightblue" d="M467.36,-461.5C480.52,-458.72 494.48,-454.23 506,-447 527.69,-433.38 520.78,-416.35 542,-402 554.49,-393.55 570.05,-388 584.08,-384.39"/>
<polygon fill="midnightblue" stroke="midnightblue" points="585.02,-387.76 593.96,-382.09 583.43,-380.95 585.02,-387.76"/>
</g>
<!-- Node10 -->
<g id="node10" class="node">
<title>Node10</title>
<g id="a_node10"><a xlink:href="namespacefish.html#a0ab1c4842d702a0a40bd04f26793ce12" target="_top" xlink:title="Compute the nonlinear growth increment , as follows.">
<polygon fill="none" stroke="black" points="759,-349.5 759,-368.5 844,-368.5 844,-349.5 759,-349.5"/>
<text text-anchor="middle" x="801.5" y="-356.5" font-family="Helvetica,sans-Serif" font-size="10.00">fish::dl_power</text>
</a>
</g>
</g>
<!-- Node9&#45;&gt;Node10 -->
<g id="edge9" class="edge">
<title>Node9&#45;&gt;Node10</title>
<path fill="none" stroke="midnightblue" d="M651.16,-375.03C677.21,-372.23 716.91,-367.97 748.83,-364.55"/>
<polygon fill="midnightblue" stroke="midnightblue" points="749.32,-368.01 758.89,-363.47 748.57,-361.05 749.32,-368.01"/>
</g>
<!-- Node11 -->
<g id="node11" class="node">
<title>Node11</title>
<g id="a_node11"><a xlink:href="namespacefish.html#a1d06e0358aca1be4446ed148b7ce3d84" target="_top" xlink:title="Compute the new length after growth assuming no allocation to reproduction.">
<polygon fill="none" stroke="black" points="743.5,-387.5 743.5,-406.5 859.5,-406.5 859.5,-387.5 743.5,-387.5"/>
<text text-anchor="middle" x="801.5" y="-394.5" font-family="Helvetica,sans-Serif" font-size="10.00">fish::length_juvenile</text>
</a>
</g>
</g>
<!-- Node9&#45;&gt;Node11 -->
<g id="edge10" class="edge">
<title>Node9&#45;&gt;Node11</title>
<path fill="none" stroke="midnightblue" d="M651.16,-380.97C673.16,-383.33 704.89,-386.74 733.45,-389.8"/>
<polygon fill="midnightblue" stroke="midnightblue" points="733.08,-393.28 743.4,-390.87 733.83,-386.32 733.08,-393.28"/>
</g>
<!-- Node13 -->
<g id="node13" class="node">
<title>Node13</title>
<g id="a_node13"><a xlink:href="classio_1_1Initializer.html#a6c174190ba99677aac35c5c7e92b69b8" target="_top" xlink:title=" ">
<polygon fill="none" stroke="black" points="567.5,-247.5 567.5,-266.5 677.5,-266.5 677.5,-247.5 567.5,-247.5"/>
<text text-anchor="middle" x="622.5" y="-254.5" font-family="Helvetica,sans-Serif" font-size="10.00">io::Initializer::parse</text>
</a>
</g>
</g>
<!-- Node12&#45;&gt;Node13 -->
<g id="edge12" class="edge">
<title>Node12&#45;&gt;Node13</title>
<path fill="none" stroke="midnightblue" d="M506.03,-257C523.03,-257 540.67,-257 556.9,-257"/>
<polygon fill="midnightblue" stroke="midnightblue" points="557.35,-260.5 567.35,-257 557.35,-253.5 557.35,-260.5"/>
</g>
<!-- Node15&#45;&gt;Node8 -->
<g id="edge15" class="edge">
<title>Node15&#45;&gt;Node8</title>
<path fill="none" stroke="midnightblue" d="M266.72,-494.46C297.23,-488.83 335.81,-481.71 366.76,-476.01"/>
<polygon fill="midnightblue" stroke="midnightblue" points="367.74,-479.38 376.94,-474.13 366.47,-472.5 367.74,-479.38"/>
</g>
<!-- Node15&#45;&gt;Node16 -->
<g id="edge16" class="edge">
<title>Node15&#45;&gt;Node16</title>
<path fill="none" stroke="midnightblue" d="M232.44,-494.49C255.86,-482.07 299.03,-460.33 338,-447 345.56,-444.42 353.62,-442.08 361.64,-439.99"/>
<polygon fill="midnightblue" stroke="midnightblue" points="362.51,-443.38 371.37,-437.58 360.82,-436.59 362.51,-443.38"/>
</g>
<!-- Node15&#45;&gt;Node17 -->
<g id="edge17" class="edge">
<title>Node15&#45;&gt;Node17</title>
<path fill="none" stroke="midnightblue" d="M302.06,-504C320.79,-504 340.24,-504 357.84,-504"/>
<polygon fill="midnightblue" stroke="midnightblue" points="357.98,-507.5 367.98,-504 357.98,-500.5 357.98,-507.5"/>
</g>
<!-- Node17&#45;&gt;Node2 -->
<g id="edge18" class="edge">
<title>Node17&#45;&gt;Node2</title>
<path fill="none" stroke="midnightblue" d="M430.43,-513.68C448.26,-536.55 495.42,-595.19 542,-637 559.49,-652.7 581.3,-668.08 597.65,-678.9"/>
<polygon fill="midnightblue" stroke="midnightblue" points="595.82,-681.89 606.11,-684.41 599.64,-676.02 595.82,-681.89"/>
</g>
<!-- Node17&#45;&gt;Node3 -->
<g id="edge22" class="edge">
<title>Node17&#45;&gt;Node3</title>
<path fill="none" stroke="midnightblue" d="M440.24,-513.7C462.96,-526.14 504.43,-547.68 542,-561 549.24,-563.57 556.98,-565.9 564.67,-567.98"/>
<polygon fill="midnightblue" stroke="midnightblue" points="563.8,-571.37 574.36,-570.48 565.55,-564.59 563.8,-571.37"/>
</g>
<!-- Node17&#45;&gt;Node4 -->
<g id="edge27" class="edge">
<title>Node17&#45;&gt;Node4</title>
<path fill="none" stroke="midnightblue" d="M476.25,-497.78C486.69,-494.96 497.13,-490.89 506,-485 528.82,-469.86 517.63,-447.48 542,-435 605.69,-402.38 637.54,-406.09 703,-435 744.18,-453.19 775.46,-498.31 790.54,-523.77"/>
<polygon fill="midnightblue" stroke="midnightblue" points="787.51,-525.52 795.51,-532.46 793.59,-522.04 787.51,-525.52"/>
</g>
<!-- Node17&#45;&gt;Node9 -->
<g id="edge25" class="edge">
<title>Node17&#45;&gt;Node9</title>
<path fill="none" stroke="midnightblue" d="M476.01,-499.56C486.82,-496.65 497.47,-492.09 506,-485 536.93,-459.3 511.97,-428.74 542,-402 553.52,-391.74 569.31,-385.86 583.78,-382.5"/>
<polygon fill="midnightblue" stroke="midnightblue" points="584.87,-385.85 594,-380.47 583.51,-378.99 584.87,-385.85"/>
</g>
<!-- Node17&#45;&gt;Node14 -->
<g id="edge26" class="edge">
<title>Node17&#45;&gt;Node14</title>
<path fill="none" stroke="midnightblue" d="M476.31,-500.49C487.22,-497.54 497.85,-492.73 506,-485 548.26,-444.93 499.93,-399.27 542,-359 548.12,-353.15 555.7,-348.99 563.73,-346.06"/>
<polygon fill="midnightblue" stroke="midnightblue" points="564.76,-349.4 573.31,-343.14 562.72,-342.7 564.76,-349.4"/>
</g>
<!-- Node18 -->
<g id="node18" class="node">
<title>Node18</title>
<g id="a_node18"><a xlink:href="classPopulation.html#ae942ef70cc9f4dfc40b5d843baf40b1e" target="_top" xlink:title=" ">
<polygon fill="none" stroke="black" points="566,-608.5 566,-627.5 679,-627.5 679,-608.5 566,-608.5"/>
<text text-anchor="middle" x="622.5" y="-615.5" font-family="Helvetica,sans-Serif" font-size="10.00">Population::calcTSB</text>
</a>
</g>
</g>
<!-- Node17&#45;&gt;Node18 -->
<g id="edge19" class="edge">
<title>Node17&#45;&gt;Node18</title>
<path fill="none" stroke="midnightblue" d="M432.16,-513.76C450.88,-533.1 495.68,-576.39 542,-599 546.94,-601.41 552.21,-603.53 557.59,-605.39"/>
<polygon fill="midnightblue" stroke="midnightblue" points="556.76,-608.8 567.35,-608.45 558.86,-602.12 556.76,-608.8"/>
</g>
<!-- Node19 -->
<g id="node19" class="node">
<title>Node19</title>
<g id="a_node19"><a xlink:href="classPopulation.html#ad1840de2f00982c35d48b91a1d27ae13" target="_top" xlink:title=" ">
<polygon fill="none" stroke="black" points="572,-532.5 572,-551.5 673,-551.5 673,-532.5 572,-532.5"/>
<text text-anchor="middle" x="622.5" y="-539.5" font-family="Helvetica,sans-Serif" font-size="10.00">Population::effort</text>
</a>
</g>
</g>
<!-- Node17&#45;&gt;Node19 -->
<g id="edge20" class="edge">
<title>Node17&#45;&gt;Node19</title>
<path fill="none" stroke="midnightblue" d="M472.83,-513.54C499.95,-518.73 533.68,-525.19 562.16,-530.64"/>
<polygon fill="midnightblue" stroke="midnightblue" points="561.51,-534.08 571.99,-532.52 562.83,-527.2 561.51,-534.08"/>
</g>
<!-- Node20 -->
<g id="node20" class="node">
<title>Node20</title>
<g id="a_node20"><a xlink:href="classPopulation.html#a1118025c1079ababec03f80a14837c5c" target="_top" xlink:title=" ">
<polygon fill="none" stroke="black" points="542,-483 542,-513 703,-513 703,-483 542,-483"/>
<text text-anchor="start" x="550" y="-501" font-family="Helvetica,sans-Serif" font-size="10.00">Population::fishableSpawning</text>
<text text-anchor="middle" x="622.5" y="-490" font-family="Helvetica,sans-Serif" font-size="10.00">Biomass</text>
</a>
</g>
</g>
<!-- Node17&#45;&gt;Node20 -->
<g id="edge23" class="edge">
<title>Node17&#45;&gt;Node20</title>
<path fill="none" stroke="midnightblue" d="M476.19,-502.39C493.23,-501.88 512.59,-501.29 531.5,-500.72"/>
<polygon fill="midnightblue" stroke="midnightblue" points="531.75,-504.21 541.64,-500.41 531.53,-497.22 531.75,-504.21"/>
</g>
<!-- Node21 -->
<g id="node21" class="node">
<title>Node21</title>
<g id="a_node21"><a xlink:href="classFish.html#aaa3e67187a587efc7a99485b4a6ee248" target="_top" xlink:title=" ">
<polygon fill="none" stroke="black" points="579,-444.5 579,-463.5 666,-463.5 666,-444.5 579,-444.5"/>
<text text-anchor="middle" x="622.5" y="-451.5" font-family="Helvetica,sans-Serif" font-size="10.00">Fish::set_traits</text>
</a>
</g>
</g>
<!-- Node17&#45;&gt;Node21 -->
<g id="edge28" class="edge">
<title>Node17&#45;&gt;Node21</title>
<path fill="none" stroke="midnightblue" d="M467.51,-494.43C480.01,-491.57 493.57,-488.32 506,-485 522.16,-480.69 525.88,-478.49 542,-474 551.67,-471.31 562.04,-468.58 571.99,-466.05"/>
<polygon fill="midnightblue" stroke="midnightblue" points="572.93,-469.42 581.77,-463.58 571.22,-462.63 572.93,-469.42"/>
</g>
<!-- Node19&#45;&gt;Node4 -->
<g id="edge21" class="edge">
<title>Node19&#45;&gt;Node4</title>
<path fill="none" stroke="midnightblue" d="M673.28,-542C690.44,-542 710.03,-542 728.61,-542"/>
<polygon fill="midnightblue" stroke="midnightblue" points="728.81,-545.5 738.81,-542 728.81,-538.5 728.81,-545.5"/>
</g>
<!-- Node20&#45;&gt;Node4 -->
<g id="edge24" class="edge">
<title>Node20&#45;&gt;Node4</title>
<path fill="none" stroke="midnightblue" d="M683.92,-513.02C706.31,-518.59 731.38,-524.82 752.51,-530.07"/>
<polygon fill="midnightblue" stroke="midnightblue" points="751.69,-533.47 762.23,-532.49 753.37,-526.68 751.69,-533.47"/>
</g>
<!-- Node23&#45;&gt;Node2 -->
<g id="edge31" class="edge">
<title>Node23&#45;&gt;Node2</title>
<path fill="none" stroke="midnightblue" d="M472.83,-665.54C499.73,-670.69 533.14,-677.08 561.46,-682.51"/>
<polygon fill="midnightblue" stroke="midnightblue" points="561.17,-686.01 571.65,-684.46 562.48,-679.14 561.17,-686.01"/>
</g>
<!-- Node23&#45;&gt;Node3 -->
<g id="edge33" class="edge">
<title>Node23&#45;&gt;Node3</title>
<path fill="none" stroke="midnightblue" d="M440.24,-646.3C462.96,-633.86 504.43,-612.32 542,-599 549.24,-596.43 556.98,-594.1 564.67,-592.02"/>
<polygon fill="midnightblue" stroke="midnightblue" points="565.55,-595.41 574.36,-589.52 563.8,-588.63 565.55,-595.41"/>
</g>
<!-- Node23&#45;&gt;Node18 -->
<g id="edge32" class="edge">
<title>Node23&#45;&gt;Node18</title>
<path fill="none" stroke="midnightblue" d="M472.83,-646.46C499.73,-641.31 533.14,-634.92 561.46,-629.49"/>
<polygon fill="midnightblue" stroke="midnightblue" points="562.48,-632.86 571.65,-627.54 561.17,-625.99 562.48,-632.86"/>
</g>
<!-- Node23&#45;&gt;Node24 -->
<g id="edge34" class="edge">
<title>Node23&#45;&gt;Node24</title>
<path fill="none" stroke="midnightblue" d="M440.24,-665.7C462.96,-678.14 504.43,-699.68 542,-713 549.24,-715.57 556.98,-717.9 564.67,-719.98"/>
<polygon fill="midnightblue" stroke="midnightblue" points="563.8,-723.37 574.36,-722.48 565.55,-716.59 563.8,-723.37"/>
</g>
<!-- Node26&#45;&gt;Node12 -->
<g id="edge37" class="edge">
<title>Node26&#45;&gt;Node12</title>
<path fill="none" stroke="midnightblue" d="M280.75,-244.06C295.62,-245.44 311.69,-246.92 327.47,-248.37"/>
<polygon fill="midnightblue" stroke="midnightblue" points="327.5,-251.89 337.78,-249.32 328.14,-244.92 327.5,-251.89"/>
</g>
</g>
</svg>
