<?xml version="1.0" encoding="UTF-8" standalone="no"?>
<!DOCTYPE svg PUBLIC "-//W3C//DTD SVG 1.1//EN"
 "http://www.w3.org/Graphics/SVG/1.1/DTD/svg11.dtd">
<!-- Generated by graphviz version 2.43.0 (0)
 -->
<!-- Title: src/fish_glue.cpp Pages: 1 -->
<svg width="980pt" height="357pt"
 viewBox="0.00 0.00 979.50 357.00" xmlns="http://www.w3.org/2000/svg" xmlns:xlink="http://www.w3.org/1999/xlink">
<g id="graph0" class="graph" transform="scale(1 1) rotate(0) translate(4 353)">
<title>src/fish_glue.cpp</title>
<!-- Node1 -->
<g id="Node000001" class="node">
<title>Node1</title>
<g id="a_Node000001"><a xlink:title=" ">
<polygon fill="#999999" stroke="#666666" points="507,-349 409,-349 409,-330 507,-330 507,-349"/>
<text text-anchor="middle" x="458" y="-337" font-family="Helvetica,sans-Serif" font-size="10.00">src/fish_glue.cpp</text>
</a>
</g>
</g>
<!-- Node2 -->
<g id="Node000002" class="node">
<title>Node2</title>
<g id="a_Node000002"><a xlink:title=" ">
<polygon fill="#e0e0e0" stroke="#999999" points="261,-129 211,-129 211,-110 261,-110 261,-129"/>
<text text-anchor="middle" x="236" y="-117" font-family="Helvetica,sans-Serif" font-size="10.00">Rcpp.h</text>
</a>
</g>
</g>
<!-- Node1&#45;&gt;Node2 -->
<g id="edge1_Node000001_Node000002" class="edge">
<title>Node1&#45;&gt;Node2</title>
<g id="a_edge1_Node000001_Node000002"><a xlink:title=" ">
<path fill="none" stroke="#63b8ff" d="M419.71,-329.99C394.98,-323.17 363.05,-311.74 339,-294 289.27,-257.33 281.82,-239.17 254,-184 246.82,-169.76 242.12,-152.22 239.34,-139.19"/>
<polygon fill="#63b8ff" stroke="#63b8ff" points="242.72,-138.24 237.36,-129.1 235.85,-139.58 242.72,-138.24"/>
</a>
</g>
</g>
<!-- Node3 -->
<g id="Node000003" class="node">
<title>Node3</title>
<g id="a_Node000003"><a xlink:href="fish_8h.html" target="_top" xlink:title=" ">
<polygon fill="white" stroke="#666666" points="508.5,-129 465.5,-129 465.5,-110 508.5,-110 508.5,-129"/>
<text text-anchor="middle" x="487" y="-117" font-family="Helvetica,sans-Serif" font-size="10.00">fish.h</text>
</a>
</g>
</g>
<!-- Node1&#45;&gt;Node3 -->
<g id="edge2_Node000001_Node000003" class="edge">
<title>Node1&#45;&gt;Node3</title>
<g id="a_edge2_Node000001_Node000003"><a xlink:title=" ">
<path fill="none" stroke="#63b8ff" d="M482.21,-329.92C499.04,-322.78 520.75,-311 534,-294 549.65,-273.92 546.41,-264.2 550,-239 555.74,-198.71 524.31,-158.23 503.77,-136.58"/>
<polygon fill="#63b8ff" stroke="#63b8ff" points="506.04,-133.9 496.53,-129.24 501.06,-138.82 506.04,-133.9"/>
</a>
</g>
</g>
<!-- Node6 -->
<g id="Node000006" class="node">
<title>Node6</title>
<g id="a_Node000006"><a xlink:href="functions_8h.html" target="_top" xlink:title=" ">
<polygon fill="white" stroke="#666666" points="699.5,-74 628.5,-74 628.5,-55 699.5,-55 699.5,-74"/>
<text text-anchor="middle" x="664" y="-62" font-family="Helvetica,sans-Serif" font-size="10.00">functions.h</text>
</a>
</g>
</g>
<!-- Node1&#45;&gt;Node6 -->
<g id="edge18_Node000001_Node000006" class="edge">
<title>Node1&#45;&gt;Node6</title>
<g id="a_edge18_Node000001_Node000006"><a xlink:title=" ">
<path fill="none" stroke="#63b8ff" d="M507.2,-332.49C564.38,-322.44 651,-296.35 651,-230.5 651,-230.5 651,-230.5 651,-173.5 651,-141.96 656.53,-105.62 660.38,-84.15"/>
<polygon fill="#63b8ff" stroke="#63b8ff" points="663.85,-84.61 662.25,-74.14 656.97,-83.33 663.85,-84.61"/>
</a>
</g>
</g>
<!-- Node17 -->
<g id="Node000017" class="node">
<title>Node17</title>
<g id="a_Node000017"><a xlink:href="population_8h.html" target="_top" xlink:title=" ">
<polygon fill="white" stroke="#666666" points="357.5,-184 280.5,-184 280.5,-165 357.5,-165 357.5,-184"/>
<text text-anchor="middle" x="319" y="-172" font-family="Helvetica,sans-Serif" font-size="10.00">population.h</text>
</a>
</g>
</g>
<!-- Node1&#45;&gt;Node17 -->
<g id="edge19_Node000001_Node000017" class="edge">
<title>Node1&#45;&gt;Node17</title>
<g id="a_edge19_Node000001_Node000017"><a xlink:title=" ">
<path fill="none" stroke="#63b8ff" d="M418.2,-329.97C396.76,-323.46 371.41,-312.38 355,-294 329.66,-265.63 322.15,-219.88 319.93,-194.32"/>
<polygon fill="#63b8ff" stroke="#63b8ff" points="323.41,-193.87 319.24,-184.13 316.42,-194.35 323.41,-193.87"/>
</a>
</g>
</g>
<!-- Node19 -->
<g id="Node000019" class="node">
<title>Node19</title>
<g id="a_Node000019"><a xlink:href="stock_8h.html" target="_top" xlink:title=" ">
<polygon fill="white" stroke="#666666" points="466,-184 414,-184 414,-165 466,-165 466,-184"/>
<text text-anchor="middle" x="440" y="-172" font-family="Helvetica,sans-Serif" font-size="10.00">stock.h</text>
</a>
</g>
</g>
<!-- Node1&#45;&gt;Node19 -->
<g id="edge24_Node000001_Node000019" class="edge">
<title>Node1&#45;&gt;Node19</title>
<g id="a_edge24_Node000001_Node000019"><a xlink:title=" ">
<path fill="none" stroke="#63b8ff" d="M470.92,-329.88C498.58,-310.35 558.96,-261.2 533,-220 520.54,-200.22 496.58,-189.04 476.1,-182.83"/>
<polygon fill="#63b8ff" stroke="#63b8ff" points="476.96,-179.44 466.39,-180.17 475.11,-186.19 476.96,-179.44"/>
</a>
</g>
</g>
<!-- Node20 -->
<g id="Node000020" class="node">
<title>Node20</title>
<g id="a_Node000020"><a xlink:href="fleet_8h.html" target="_top" xlink:title=" ">
<polygon fill="white" stroke="#666666" points="523.5,-239 476.5,-239 476.5,-220 523.5,-220 523.5,-239"/>
<text text-anchor="middle" x="500" y="-227" font-family="Helvetica,sans-Serif" font-size="10.00">fleet.h</text>
</a>
</g>
</g>
<!-- Node1&#45;&gt;Node20 -->
<g id="edge29_Node000001_Node000020" class="edge">
<title>Node1&#45;&gt;Node20</title>
<g id="a_edge29_Node000001_Node000020"><a xlink:title=" ">
<path fill="none" stroke="#63b8ff" d="M461.44,-329.66C468.3,-312.01 483.83,-272.09 492.95,-248.64"/>
<polygon fill="#63b8ff" stroke="#63b8ff" points="496.27,-249.75 496.63,-239.16 489.75,-247.21 496.27,-249.75"/>
</a>
</g>
</g>
<!-- Node21 -->
<g id="Node000021" class="node">
<title>Node21</title>
<g id="a_Node000021"><a xlink:href="fishery__system_8h.html" target="_top" xlink:title=" ">
<polygon fill="white" stroke="#666666" points="464,-294 364,-294 364,-275 464,-275 464,-294"/>
<text text-anchor="middle" x="414" y="-282" font-family="Helvetica,sans-Serif" font-size="10.00">fishery_system.h</text>
</a>
</g>
</g>
<!-- Node1&#45;&gt;Node21 -->
<g id="edge31_Node000001_Node000021" class="edge">
<title>Node1&#45;&gt;Node21</title>
<g id="a_edge31_Node000001_Node000021"><a xlink:title=" ">
<path fill="none" stroke="#63b8ff" d="M450.73,-329.75C444.46,-322.18 435.21,-311.05 427.57,-301.84"/>
<polygon fill="#63b8ff" stroke="#63b8ff" points="430.21,-299.55 421.13,-294.09 424.83,-304.02 430.21,-299.55"/>
</a>
</g>
</g>
<!-- Node22 -->
<g id="Node000022" class="node">
<title>Node22</title>
<g id="a_Node000022"><a xlink:href="simulator_8h.html" target="_top" xlink:title=" ">
<polygon fill="white" stroke="#666666" points="185.5,-239 114.5,-239 114.5,-220 185.5,-220 185.5,-239"/>
<text text-anchor="middle" x="150" y="-227" font-family="Helvetica,sans-Serif" font-size="10.00">simulator.h</text>
</a>
</g>
</g>
<!-- Node1&#45;&gt;Node22 -->
<g id="edge37_Node000001_Node000022" class="edge">
<title>Node1&#45;&gt;Node22</title>
<g id="a_edge37_Node000001_Node000022"><a xlink:title=" ">
<path fill="none" stroke="#63b8ff" d="M408.78,-334.23C344.04,-327.9 234.46,-314.53 200,-294 181.78,-283.15 167.65,-262.98 159.13,-248.28"/>
<polygon fill="#63b8ff" stroke="#63b8ff" points="162.01,-246.25 154.14,-239.15 155.86,-249.6 162.01,-246.25"/>
</a>
</g>
</g>
<!-- Node4 -->
<g id="Node000004" class="node">
<title>Node4</title>
<g id="a_Node000004"><a xlink:title=" ">
<polygon fill="#e0e0e0" stroke="#999999" points="279.5,-19 232.5,-19 232.5,0 279.5,0 279.5,-19"/>
<text text-anchor="middle" x="256" y="-7" font-family="Helvetica,sans-Serif" font-size="10.00">vector</text>
</a>
</g>
</g>
<!-- Node3&#45;&gt;Node4 -->
<g id="edge3_Node000003_Node000004" class="edge">
<title>Node3&#45;&gt;Node4</title>
<g id="a_edge3_Node000003_Node000004"><a xlink:title=" ">
<path fill="none" stroke="#63b8ff" d="M479.24,-109.75C466.67,-96.09 440.44,-69.73 413,-55 407.46,-52.02 333.99,-31.75 289.55,-19.61"/>
<polygon fill="#63b8ff" stroke="#63b8ff" points="290.31,-16.19 279.74,-16.94 288.47,-22.95 290.31,-16.19"/>
</a>
</g>
</g>
<!-- Node5 -->
<g id="Node000005" class="node">
<title>Node5</title>
<g id="a_Node000005"><a xlink:title=" ">
<polygon fill="#e0e0e0" stroke="#999999" points="503,-74 465,-74 465,-55 503,-55 503,-74"/>
<text text-anchor="middle" x="484" y="-62" font-family="Helvetica,sans-Serif" font-size="10.00">map</text>
</a>
</g>
</g>
<!-- Node3&#45;&gt;Node5 -->
<g id="edge4_Node000003_Node000005" class="edge">
<title>Node3&#45;&gt;Node5</title>
<g id="a_edge4_Node000003_Node000005"><a xlink:title=" ">
<path fill="none" stroke="#63b8ff" d="M486.5,-109.75C486.11,-102.8 485.55,-92.85 485.05,-84.13"/>
<polygon fill="#63b8ff" stroke="#63b8ff" points="488.55,-83.88 484.49,-74.09 481.56,-84.27 488.55,-83.88"/>
</a>
</g>
</g>
<!-- Node3&#45;&gt;Node6 -->
<g id="edge5_Node000003_Node000006" class="edge">
<title>Node3&#45;&gt;Node6</title>
<g id="a_edge5_Node000003_Node000006"><a xlink:title=" ">
<path fill="none" stroke="#63b8ff" d="M508.7,-112C537.81,-103.28 589.98,-87.66 625.75,-76.95"/>
<polygon fill="#63b8ff" stroke="#63b8ff" points="626.8,-80.29 635.38,-74.07 624.79,-73.59 626.8,-80.29"/>
</a>
</g>
</g>
<!-- Node10 -->
<g id="Node000010" class="node">
<title>Node10</title>
<g id="a_Node000010"><a xlink:href="initializer__v2_8h.html" target="_top" xlink:title=" ">
<polygon fill="white" stroke="#666666" points="610.5,-74 521.5,-74 521.5,-55 610.5,-55 610.5,-74"/>
<text text-anchor="middle" x="566" y="-62" font-family="Helvetica,sans-Serif" font-size="10.00">initializer_v2.h</text>
</a>
</g>
</g>
<!-- Node3&#45;&gt;Node10 -->
<g id="edge9_Node000003_Node000010" class="edge">
<title>Node3&#45;&gt;Node10</title>
<g id="a_edge9_Node000003_Node000010"><a xlink:title=" ">
<path fill="none" stroke="#63b8ff" d="M499.69,-109.98C511.83,-101.84 530.36,-89.41 544.75,-79.76"/>
<polygon fill="#63b8ff" stroke="#63b8ff" points="546.72,-82.65 553.08,-74.17 542.82,-76.84 546.72,-82.65"/>
</a>
</g>
</g>
<!-- Node7 -->
<g id="Node000007" class="node">
<title>Node7</title>
<g id="a_Node000007"><a xlink:title=" ">
<polygon fill="#e0e0e0" stroke="#999999" points="971.5,-19 924.5,-19 924.5,0 971.5,0 971.5,-19"/>
<text text-anchor="middle" x="948" y="-7" font-family="Helvetica,sans-Serif" font-size="10.00">cmath</text>
</a>
</g>
</g>
<!-- Node6&#45;&gt;Node7 -->
<g id="edge6_Node000006_Node000007" class="edge">
<title>Node6&#45;&gt;Node7</title>
<g id="a_edge6_Node000006_Node000007"><a xlink:title=" ">
<path fill="none" stroke="#63b8ff" d="M699.92,-58.02C746.88,-50.66 831.91,-36.67 914.23,-19.02"/>
<polygon fill="#63b8ff" stroke="#63b8ff" points="915.23,-22.38 924.26,-16.85 913.74,-15.54 915.23,-22.38"/>
</a>
</g>
</g>
<!-- Node8 -->
<g id="Node000008" class="node">
<title>Node8</title>
<g id="a_Node000008"><a xlink:title=" ">
<polygon fill="#e0e0e0" stroke="#999999" points="696,-19 632,-19 632,0 696,0 696,-19"/>
<text text-anchor="middle" x="664" y="-7" font-family="Helvetica,sans-Serif" font-size="10.00">algorithm</text>
</a>
</g>
</g>
<!-- Node6&#45;&gt;Node8 -->
<g id="edge7_Node000006_Node000008" class="edge">
<title>Node6&#45;&gt;Node8</title>
<g id="a_edge7_Node000006_Node000008"><a xlink:title=" ">
<path fill="none" stroke="#63b8ff" d="M664,-54.75C664,-47.8 664,-37.85 664,-29.13"/>
<polygon fill="#63b8ff" stroke="#63b8ff" points="667.5,-29.09 664,-19.09 660.5,-29.09 667.5,-29.09"/>
</a>
</g>
</g>
<!-- Node9 -->
<g id="Node000009" class="node">
<title>Node9</title>
<g id="a_Node000009"><a xlink:title=" ">
<polygon fill="#e0e0e0" stroke="#999999" points="614,-19 554,-19 554,0 614,0 614,-19"/>
<text text-anchor="middle" x="584" y="-7" font-family="Helvetica,sans-Serif" font-size="10.00">iostream</text>
</a>
</g>
</g>
<!-- Node6&#45;&gt;Node9 -->
<g id="edge8_Node000006_Node000009" class="edge">
<title>Node6&#45;&gt;Node9</title>
<g id="a_edge8_Node000006_Node000009"><a xlink:title=" ">
<path fill="none" stroke="#63b8ff" d="M651.15,-54.98C638.86,-46.84 620.09,-34.41 605.52,-24.76"/>
<polygon fill="#63b8ff" stroke="#63b8ff" points="607.36,-21.78 597.09,-19.17 603.49,-27.61 607.36,-21.78"/>
</a>
</g>
</g>
<!-- Node10&#45;&gt;Node4 -->
<g id="edge14_Node000010_Node000004" class="edge">
<title>Node10&#45;&gt;Node4</title>
<g id="a_edge14_Node000010_Node000004"><a xlink:title=" ">
<path fill="none" stroke="#63b8ff" d="M521.46,-56.49C453.66,-45.81 328.88,-26.08 289.65,-19"/>
<polygon fill="#63b8ff" stroke="#63b8ff" points="290.18,-15.53 279.7,-17.08 288.86,-22.41 290.18,-15.53"/>
</a>
</g>
</g>
<!-- Node10&#45;&gt;Node9 -->
<g id="edge10_Node000010_Node000009" class="edge">
<title>Node10&#45;&gt;Node9</title>
<g id="a_edge10_Node000010_Node000009"><a xlink:title=" ">
<path fill="none" stroke="#63b8ff" d="M568.97,-54.75C571.36,-47.72 574.79,-37.62 577.77,-28.84"/>
<polygon fill="#63b8ff" stroke="#63b8ff" points="581.18,-29.68 581.08,-19.09 574.55,-27.43 581.18,-29.68"/>
</a>
</g>
</g>
<!-- Node11 -->
<g id="Node000011" class="node">
<title>Node11</title>
<g id="a_Node000011"><a xlink:title=" ">
<polygon fill="#e0e0e0" stroke="#999999" points="536,-19 492,-19 492,0 536,0 536,-19"/>
<text text-anchor="middle" x="514" y="-7" font-family="Helvetica,sans-Serif" font-size="10.00">regex</text>
</a>
</g>
</g>
<!-- Node10&#45;&gt;Node11 -->
<g id="edge11_Node000010_Node000011" class="edge">
<title>Node10&#45;&gt;Node11</title>
<g id="a_edge11_Node000010_Node000011"><a xlink:title=" ">
<path fill="none" stroke="#63b8ff" d="M557.41,-54.75C549.84,-47.03 538.62,-35.6 529.49,-26.28"/>
<polygon fill="#63b8ff" stroke="#63b8ff" points="531.93,-23.78 522.43,-19.09 526.93,-28.68 531.93,-23.78"/>
</a>
</g>
</g>
<!-- Node12 -->
<g id="Node000012" class="node">
<title>Node12</title>
<g id="a_Node000012"><a xlink:title=" ">
<polygon fill="#e0e0e0" stroke="#999999" points="758,-19 714,-19 714,0 758,0 758,-19"/>
<text text-anchor="middle" x="736" y="-7" font-family="Helvetica,sans-Serif" font-size="10.00">string</text>
</a>
</g>
</g>
<!-- Node10&#45;&gt;Node12 -->
<g id="edge12_Node000010_Node000012" class="edge">
<title>Node10&#45;&gt;Node12</title>
<g id="a_edge12_Node000010_Node000012"><a xlink:title=" ">
<path fill="none" stroke="#63b8ff" d="M593.31,-54.98C623.55,-45.56 672.22,-30.38 704.16,-20.43"/>
<polygon fill="#63b8ff" stroke="#63b8ff" points="705.39,-23.71 713.9,-17.39 703.31,-17.03 705.39,-23.71"/>
</a>
</g>
</g>
<!-- Node13 -->
<g id="Node000013" class="node">
<title>Node13</title>
<g id="a_Node000013"><a xlink:title=" ">
<polygon fill="#e0e0e0" stroke="#999999" points="831.5,-19 776.5,-19 776.5,0 831.5,0 831.5,-19"/>
<text text-anchor="middle" x="804" y="-7" font-family="Helvetica,sans-Serif" font-size="10.00">fstream</text>
</a>
</g>
</g>
<!-- Node10&#45;&gt;Node13 -->
<g id="edge13_Node000010_Node000013" class="edge">
<title>Node10&#45;&gt;Node13</title>
<g id="a_edge13_Node000010_Node000013"><a xlink:title=" ">
<path fill="none" stroke="#63b8ff" d="M604.93,-54.98C643.38,-46.54 704.13,-33.15 766.16,-19.18"/>
<polygon fill="#63b8ff" stroke="#63b8ff" points="767.14,-22.54 776.13,-16.93 765.6,-15.71 767.14,-22.54"/>
</a>
</g>
</g>
<!-- Node14 -->
<g id="Node000014" class="node">
<title>Node14</title>
<g id="a_Node000014"><a xlink:title=" ">
<polygon fill="#e0e0e0" stroke="#999999" points="906,-19 850,-19 850,0 906,0 906,-19"/>
<text text-anchor="middle" x="878" y="-7" font-family="Helvetica,sans-Serif" font-size="10.00">sstream</text>
</a>
</g>
</g>
<!-- Node10&#45;&gt;Node14 -->
<g id="edge15_Node000010_Node000014" class="edge">
<title>Node10&#45;&gt;Node14</title>
<g id="a_edge15_Node000010_Node000014"><a xlink:title=" ">
<path fill="none" stroke="#63b8ff" d="M610.62,-56.44C676.62,-45.98 796.42,-26.9 839.84,-19.05"/>
<polygon fill="#63b8ff" stroke="#63b8ff" points="840.58,-22.47 849.76,-17.19 839.28,-15.59 840.58,-22.47"/>
</a>
</g>
</g>
<!-- Node15 -->
<g id="Node000015" class="node">
<title>Node15</title>
<g id="a_Node000015"><a xlink:title=" ">
<polygon fill="#e0e0e0" stroke="#999999" points="362.5,-19 297.5,-19 297.5,0 362.5,0 362.5,-19"/>
<text text-anchor="middle" x="330" y="-7" font-family="Helvetica,sans-Serif" font-size="10.00">stdexcept</text>
</a>
</g>
</g>
<!-- Node10&#45;&gt;Node15 -->
<g id="edge16_Node000010_Node000015" class="edge">
<title>Node10&#45;&gt;Node15</title>
<g id="a_edge16_Node000010_Node000015"><a xlink:title=" ">
<path fill="none" stroke="#63b8ff" d="M528.08,-54.98C485.53,-45.43 416.68,-29.97 372.38,-20.02"/>
<polygon fill="#63b8ff" stroke="#63b8ff" points="373.03,-16.58 362.51,-17.8 371.5,-23.41 373.03,-16.58"/>
</a>
</g>
</g>
<!-- Node16 -->
<g id="Node000016" class="node">
<title>Node16</title>
<g id="a_Node000016"><a xlink:title=" ">
<polygon fill="#e0e0e0" stroke="#999999" points="473.5,-19 380.5,-19 380.5,0 473.5,0 473.5,-19"/>
<text text-anchor="middle" x="427" y="-7" font-family="Helvetica,sans-Serif" font-size="10.00">unordered_map</text>
</a>
</g>
</g>
<!-- Node10&#45;&gt;Node16 -->
<g id="edge17_Node000010_Node000016" class="edge">
<title>Node10&#45;&gt;Node16</title>
<g id="a_edge17_Node000010_Node000016"><a xlink:title=" ">
<path fill="none" stroke="#63b8ff" d="M543.67,-54.98C520.8,-46.27 485.04,-32.63 459.14,-22.75"/>
<polygon fill="#63b8ff" stroke="#63b8ff" points="460.33,-19.46 449.74,-19.17 457.84,-26 460.33,-19.46"/>
</a>
</g>
</g>
<!-- Node17&#45;&gt;Node2 -->
<g id="edge22_Node000017_Node000002" class="edge">
<title>Node17&#45;&gt;Node2</title>
<g id="a_edge22_Node000017_Node000002"><a xlink:title=" ">
<path fill="none" stroke="#63b8ff" d="M305.66,-164.98C292.91,-156.84 273.45,-144.41 258.33,-134.76"/>
<polygon fill="#63b8ff" stroke="#63b8ff" points="259.89,-131.6 249.58,-129.17 256.12,-137.5 259.89,-131.6"/>
</a>
</g>
</g>
<!-- Node17&#45;&gt;Node3 -->
<g id="edge23_Node000017_Node000003" class="edge">
<title>Node17&#45;&gt;Node3</title>
<g id="a_edge23_Node000017_Node000003"><a xlink:title=" ">
<path fill="none" stroke="#63b8ff" d="M345.99,-164.98C375.96,-155.53 424.24,-140.3 455.8,-130.34"/>
<polygon fill="#63b8ff" stroke="#63b8ff" points="456.93,-133.66 465.42,-127.31 454.83,-126.98 456.93,-133.66"/>
</a>
</g>
</g>
<!-- Node17&#45;&gt;Node4 -->
<g id="edge20_Node000017_Node000004" class="edge">
<title>Node17&#45;&gt;Node4</title>
<g id="a_edge20_Node000017_Node000004"><a xlink:title=" ">
<path fill="none" stroke="#63b8ff" d="M315.61,-164.74C305.7,-139.09 276.59,-63.78 263.06,-28.78"/>
<polygon fill="#63b8ff" stroke="#63b8ff" points="266.27,-27.37 259.4,-19.31 259.74,-29.9 266.27,-27.37"/>
</a>
</g>
</g>
<!-- Node18 -->
<g id="Node000018" class="node">
<title>Node18</title>
<g id="a_Node000018"><a xlink:title=" ">
<polygon fill="#e0e0e0" stroke="#999999" points="409,-129 355,-129 355,-110 409,-110 409,-129"/>
<text text-anchor="middle" x="382" y="-117" font-family="Helvetica,sans-Serif" font-size="10.00">random</text>
</a>
</g>
</g>
<!-- Node17&#45;&gt;Node18 -->
<g id="edge21_Node000017_Node000018" class="edge">
<title>Node17&#45;&gt;Node18</title>
<g id="a_edge21_Node000017_Node000018"><a xlink:title=" ">
<path fill="none" stroke="#63b8ff" d="M329.12,-164.98C338.44,-157.15 352.47,-145.34 363.74,-135.86"/>
<polygon fill="#63b8ff" stroke="#63b8ff" points="366.29,-138.29 371.69,-129.17 361.79,-132.93 366.29,-138.29"/>
</a>
</g>
</g>
<!-- Node19&#45;&gt;Node2 -->
<g id="edge27_Node000019_Node000002" class="edge">
<title>Node19&#45;&gt;Node2</title>
<g id="a_edge27_Node000019_Node000002"><a xlink:title=" ">
<path fill="none" stroke="#63b8ff" d="M413.75,-166.68C377.34,-157.22 311.43,-140.1 270.91,-129.57"/>
<polygon fill="#63b8ff" stroke="#63b8ff" points="271.75,-126.17 261.19,-127.04 269.99,-132.95 271.75,-126.17"/>
</a>
</g>
</g>
<!-- Node19&#45;&gt;Node3 -->
<g id="edge28_Node000019_Node000003" class="edge">
<title>Node19&#45;&gt;Node3</title>
<g id="a_edge28_Node000019_Node000003"><a xlink:title=" ">
<path fill="none" stroke="#63b8ff" d="M447.76,-164.75C454.47,-157.18 464.34,-146.05 472.51,-136.84"/>
<polygon fill="#63b8ff" stroke="#63b8ff" points="475.37,-138.89 479.38,-129.09 470.13,-134.25 475.37,-138.89"/>
</a>
</g>
</g>
<!-- Node19&#45;&gt;Node4 -->
<g id="edge25_Node000019_Node000004" class="edge">
<title>Node19&#45;&gt;Node4</title>
<g id="a_edge25_Node000019_Node000004"><a xlink:title=" ">
<path fill="none" stroke="#63b8ff" d="M438.74,-164.91C436.47,-151.93 430.72,-127.01 418,-110 384.98,-65.84 326.06,-36.94 289.11,-22.19"/>
<polygon fill="#63b8ff" stroke="#63b8ff" points="290.36,-18.92 279.77,-18.58 287.83,-25.45 290.36,-18.92"/>
</a>
</g>
</g>
<!-- Node19&#45;&gt;Node18 -->
<g id="edge26_Node000019_Node000018" class="edge">
<title>Node19&#45;&gt;Node18</title>
<g id="a_edge26_Node000019_Node000018"><a xlink:title=" ">
<path fill="none" stroke="#63b8ff" d="M430.68,-164.98C422.19,-157.23 409.44,-145.58 399.12,-136.14"/>
<polygon fill="#63b8ff" stroke="#63b8ff" points="401.23,-133.33 391.49,-129.17 396.51,-138.5 401.23,-133.33"/>
</a>
</g>
</g>
<!-- Node20&#45;&gt;Node19 -->
<g id="edge30_Node000020_Node000019" class="edge">
<title>Node20&#45;&gt;Node19</title>
<g id="a_edge30_Node000020_Node000019"><a xlink:title=" ">
<path fill="none" stroke="#63b8ff" d="M490.36,-219.98C481.49,-212.15 468.13,-200.34 457.39,-190.86"/>
<polygon fill="#63b8ff" stroke="#63b8ff" points="459.63,-188.17 449.82,-184.17 454.99,-193.41 459.63,-188.17"/>
</a>
</g>
</g>
<!-- Node21&#45;&gt;Node2 -->
<g id="edge36_Node000021_Node000002" class="edge">
<title>Node21&#45;&gt;Node2</title>
<g id="a_edge36_Node000021_Node000002"><a xlink:title=" ">
<path fill="none" stroke="#63b8ff" d="M396.68,-274.87C367.71,-259.74 308.86,-226.02 271,-184 258.78,-170.44 249.17,-151.86 243.14,-138.3"/>
<polygon fill="#63b8ff" stroke="#63b8ff" points="246.36,-136.93 239.24,-129.08 239.91,-139.66 246.36,-136.93"/>
</a>
</g>
</g>
<!-- Node21&#45;&gt;Node4 -->
<g id="edge32_Node000021_Node000004" class="edge">
<title>Node21&#45;&gt;Node4</title>
<g id="a_edge32_Node000021_Node000004"><a xlink:title=" ">
<path fill="none" stroke="#63b8ff" d="M411.22,-274.89C404.64,-254.95 387.06,-204.33 366,-165 338.07,-112.84 325.98,-102.73 291,-55 284.1,-45.59 276.07,-35.33 269.44,-27.04"/>
<polygon fill="#63b8ff" stroke="#63b8ff" points="272.15,-24.82 263.15,-19.23 266.7,-29.21 272.15,-24.82"/>
</a>
</g>
</g>
<!-- Node21&#45;&gt;Node10 -->
<g id="edge35_Node000021_Node000010" class="edge">
<title>Node21&#45;&gt;Node10</title>
<g id="a_edge35_Node000021_Node000010"><a xlink:title=" ">
<path fill="none" stroke="#63b8ff" d="M419.96,-274.95C442.61,-242.47 523.61,-126.29 554.2,-82.43"/>
<polygon fill="#63b8ff" stroke="#63b8ff" points="557.07,-84.43 559.92,-74.22 551.33,-80.42 557.07,-84.43"/>
</a>
</g>
</g>
<!-- Node21&#45;&gt;Node19 -->
<g id="edge33_Node000021_Node000019" class="edge">
<title>Node21&#45;&gt;Node19</title>
<g id="a_edge33_Node000021_Node000019"><a xlink:title=" ">
<path fill="none" stroke="#63b8ff" d="M416.13,-274.66C420.36,-257.09 429.9,-217.45 435.56,-193.95"/>
<polygon fill="#63b8ff" stroke="#63b8ff" points="438.98,-194.7 437.92,-184.16 432.17,-193.06 438.98,-194.7"/>
</a>
</g>
</g>
<!-- Node21&#45;&gt;Node20 -->
<g id="edge34_Node000021_Node000020" class="edge">
<title>Node21&#45;&gt;Node20</title>
<g id="a_edge34_Node000021_Node000020"><a xlink:title=" ">
<path fill="none" stroke="#63b8ff" d="M427.82,-274.98C441.15,-266.77 461.58,-254.18 477.31,-244.49"/>
<polygon fill="#63b8ff" stroke="#63b8ff" points="479.25,-247.4 485.93,-239.17 475.58,-241.44 479.25,-247.4"/>
</a>
</g>
</g>
<!-- Node22&#45;&gt;Node2 -->
<g id="edge47_Node000022_Node000002" class="edge">
<title>Node22&#45;&gt;Node2</title>
<g id="a_edge47_Node000022_Node000002"><a xlink:title=" ">
<path fill="none" stroke="#63b8ff" d="M156.76,-219.84C166.33,-207.6 184.42,-184.52 200,-165 207.45,-155.66 215.85,-145.28 222.65,-136.89"/>
<polygon fill="#63b8ff" stroke="#63b8ff" points="225.47,-138.97 229.07,-129 220.04,-134.56 225.47,-138.97"/>
</a>
</g>
</g>
<!-- Node22&#45;&gt;Node4 -->
<g id="edge38_Node000022_Node000004" class="edge">
<title>Node22&#45;&gt;Node4</title>
<g id="a_edge38_Node000022_Node000004"><a xlink:title=" ">
<path fill="none" stroke="#63b8ff" d="M153.54,-219.76C161.62,-199.98 182.24,-150.35 202,-110 216.35,-80.71 234.79,-47.58 245.98,-27.9"/>
<polygon fill="#63b8ff" stroke="#63b8ff" points="249.05,-29.57 250.98,-19.16 242.98,-26.1 249.05,-29.57"/>
</a>
</g>
</g>
<!-- Node22&#45;&gt;Node17 -->
<g id="edge39_Node000022_Node000017" class="edge">
<title>Node22&#45;&gt;Node17</title>
<g id="a_edge39_Node000022_Node000017"><a xlink:title=" ">
<path fill="none" stroke="#63b8ff" d="M177.15,-219.98C205.53,-211.09 250.23,-197.07 281.86,-187.15"/>
<polygon fill="#63b8ff" stroke="#63b8ff" points="283.14,-190.41 291.63,-184.08 281.05,-183.73 283.14,-190.41"/>
</a>
</g>
</g>
<!-- Node23 -->
<g id="Node000023" class="node">
<title>Node23</title>
<g id="a_Node000023"><a xlink:href="tensor_8h.html" target="_top" xlink:title=" ">
<polygon fill="white" stroke="#666666" points="128,-74 72,-74 72,-55 128,-55 128,-74"/>
<text text-anchor="middle" x="100" y="-62" font-family="Helvetica,sans-Serif" font-size="10.00">tensor.h</text>
</a>
</g>
</g>
<!-- Node22&#45;&gt;Node23 -->
<g id="edge40_Node000022_Node000023" class="edge">
<title>Node22&#45;&gt;Node23</title>
<g id="a_edge40_Node000022_Node000023"><a xlink:title=" ">
<path fill="none" stroke="#63b8ff" d="M143.7,-219.74C137.76,-211.06 129.04,-197.21 124,-184 111.08,-150.12 104.67,-108.01 101.87,-84.2"/>
<polygon fill="#63b8ff" stroke="#63b8ff" points="105.33,-83.66 100.77,-74.1 98.37,-84.42 105.33,-83.66"/>
</a>
</g>
</g>
<!-- Node23&#45;&gt;Node4 -->
<g id="edge43_Node000023_Node000004" class="edge">
<title>Node23&#45;&gt;Node4</title>
<g id="a_edge43_Node000023_Node000004"><a xlink:title=" ">
<path fill="none" stroke="#63b8ff" d="M125.06,-54.98C151.49,-46.01 193.27,-31.81 222.5,-21.88"/>
<polygon fill="#63b8ff" stroke="#63b8ff" points="223.93,-25.09 232.28,-18.56 221.68,-18.46 223.93,-25.09"/>
</a>
</g>
</g>
<!-- Node23&#45;&gt;Node8 -->
<g id="edge45_Node000023_Node000008" class="edge">
<title>Node23&#45;&gt;Node8</title>
<g id="a_edge45_Node000023_Node000008"><a xlink:title=" ">
<path fill="none" stroke="#63b8ff" d="M128.2,-62.29C205.51,-58.71 427.45,-46.77 621.73,-19.01"/>
<polygon fill="#63b8ff" stroke="#63b8ff" points="622.44,-22.44 631.84,-17.55 621.44,-15.52 622.44,-22.44"/>
</a>
</g>
</g>
<!-- Node23&#45;&gt;Node9 -->
<g id="edge41_Node000023_Node000009" class="edge">
<title>Node23&#45;&gt;Node9</title>
<g id="a_edge41_Node000023_Node000009"><a xlink:title=" ">
<path fill="none" stroke="#63b8ff" d="M128.26,-61.81C197.42,-57.42 380.83,-44.34 543.63,-19.04"/>
<polygon fill="#63b8ff" stroke="#63b8ff" points="544.5,-22.45 553.83,-17.43 543.41,-15.53 544.5,-22.45"/>
</a>
</g>
</g>
<!-- Node24 -->
<g id="Node000024" class="node">
<title>Node24</title>
<g id="a_Node000024"><a xlink:title=" ">
<polygon fill="#e0e0e0" stroke="#999999" points="126,-19 74,-19 74,0 126,0 126,-19"/>
<text text-anchor="middle" x="100" y="-7" font-family="Helvetica,sans-Serif" font-size="10.00">cassert</text>
</a>
</g>
</g>
<!-- Node23&#45;&gt;Node24 -->
<g id="edge42_Node000023_Node000024" class="edge">
<title>Node23&#45;&gt;Node24</title>
<g id="a_edge42_Node000023_Node000024"><a xlink:title=" ">
<path fill="none" stroke="#63b8ff" d="M100,-54.75C100,-47.8 100,-37.85 100,-29.13"/>
<polygon fill="#63b8ff" stroke="#63b8ff" points="103.5,-29.09 100,-19.09 96.5,-29.09 103.5,-29.09"/>
</a>
</g>
</g>
<!-- Node25 -->
<g id="Node000025" class="node">
<title>Node25</title>
<g id="a_Node000025"><a xlink:title=" ">
<polygon fill="#e0e0e0" stroke="#999999" points="209.5,-19 144.5,-19 144.5,0 209.5,0 209.5,-19"/>
<text text-anchor="middle" x="177" y="-7" font-family="Helvetica,sans-Serif" font-size="10.00">functional</text>
</a>
</g>
</g>
<!-- Node23&#45;&gt;Node25 -->
<g id="edge44_Node000023_Node000025" class="edge">
<title>Node23&#45;&gt;Node25</title>
<g id="a_edge44_Node000023_Node000025"><a xlink:title=" ">
<path fill="none" stroke="#63b8ff" d="M112.37,-54.98C124.09,-46.92 141.92,-34.65 155.89,-25.03"/>
<polygon fill="#63b8ff" stroke="#63b8ff" points="158.15,-27.72 164.4,-19.17 154.18,-21.96 158.15,-27.72"/>
</a>
</g>
</g>
<!-- Node26 -->
<g id="Node000026" class="node">
<title>Node26</title>
<g id="a_Node000026"><a xlink:title=" ">
<polygon fill="#e0e0e0" stroke="#999999" points="56,-19 0,-19 0,0 56,0 56,-19"/>
<text text-anchor="middle" x="28" y="-7" font-family="Helvetica,sans-Serif" font-size="10.00">numeric</text>
</a>
</g>
</g>
<!-- Node23&#45;&gt;Node26 -->
<g id="edge46_Node000023_Node000026" class="edge">
<title>Node23&#45;&gt;Node26</title>
<g id="a_edge46_Node000023_Node000026"><a xlink:title=" ">
<path fill="none" stroke="#63b8ff" d="M88.43,-54.98C77.58,-47 61.12,-34.88 48.12,-25.31"/>
<polygon fill="#63b8ff" stroke="#63b8ff" points="49.91,-22.28 39.78,-19.17 45.76,-27.92 49.91,-22.28"/>
</a>
</g>
</g>
</g>
</svg>
