<?xml version="1.0" encoding="UTF-8" standalone="no"?>
<!DOCTYPE svg PUBLIC "-//W3C//DTD SVG 1.1//EN"
 "http://www.w3.org/Graphics/SVG/1.1/DTD/svg11.dtd">
<!-- Generated by graphviz version 2.43.0 (0)
 -->
<!-- Title: src/fish.cpp Pages: 1 -->
<svg width="749pt" height="196pt"
 viewBox="0.00 0.00 749.00 196.00" xmlns="http://www.w3.org/2000/svg" xmlns:xlink="http://www.w3.org/1999/xlink">
<g id="graph0" class="graph" transform="scale(1 1) rotate(0) translate(4 192)">
<title>src/fish.cpp</title>
<!-- Node1 -->
<g id="node1" class="node">
<title>Node1</title>
<g id="a_node1"><a xlink:title=" ">
<polygon fill="#bfbfbf" stroke="black" points="444.5,-168.5 444.5,-187.5 516.5,-187.5 516.5,-168.5 444.5,-168.5"/>
<text text-anchor="middle" x="480.5" y="-175.5" font-family="Helvetica,sans-Serif" font-size="10.00">src/fish.cpp</text>
</a>
</g>
</g>
<!-- Node2 -->
<g id="node2" class="node">
<title>Node2</title>
<g id="a_node2"><a xlink:href="fish_8h.html" target="_top" xlink:title=" ">
<polygon fill="none" stroke="black" points="490.5,-112.5 490.5,-131.5 534.5,-131.5 534.5,-112.5 490.5,-112.5"/>
<text text-anchor="middle" x="512.5" y="-119.5" font-family="Helvetica,sans-Serif" font-size="10.00">fish.h</text>
</a>
</g>
</g>
<!-- Node1&#45;&gt;Node2 -->
<g id="edge1" class="edge">
<title>Node1&#45;&gt;Node2</title>
<path fill="none" stroke="midnightblue" d="M485.78,-168.08C490.21,-160.61 496.66,-149.72 502.12,-140.52"/>
<polygon fill="midnightblue" stroke="midnightblue" points="505.23,-142.14 507.31,-131.75 499.21,-138.57 505.23,-142.14"/>
</g>
<!-- Node6 -->
<g id="node6" class="node">
<title>Node6</title>
<g id="a_node6"><a xlink:title=" ">
<polygon fill="none" stroke="#bfbfbf" points="694,-0.5 694,-19.5 741,-19.5 741,-0.5 694,-0.5"/>
<text text-anchor="middle" x="717.5" y="-7.5" font-family="Helvetica,sans-Serif" font-size="10.00">cmath</text>
</a>
</g>
</g>
<!-- Node1&#45;&gt;Node6 -->
<g id="edge18" class="edge">
<title>Node1&#45;&gt;Node6</title>
<path fill="none" stroke="midnightblue" d="M493.26,-168.49C519.01,-151.28 578.95,-110.99 628.5,-76 652.46,-59.08 679.63,-39.12 697.58,-25.83"/>
<polygon fill="midnightblue" stroke="midnightblue" points="700.12,-28.3 706.06,-19.53 695.95,-22.68 700.12,-28.3"/>
</g>
<!-- Node8 -->
<g id="node8" class="node">
<title>Node8</title>
<g id="a_node8"><a xlink:title=" ">
<polygon fill="none" stroke="#bfbfbf" points="467.5,-0.5 467.5,-19.5 527.5,-19.5 527.5,-0.5 467.5,-0.5"/>
<text text-anchor="middle" x="497.5" y="-7.5" font-family="Helvetica,sans-Serif" font-size="10.00">iostream</text>
</a>
</g>
</g>
<!-- Node1&#45;&gt;Node8 -->
<g id="edge17" class="edge">
<title>Node1&#45;&gt;Node8</title>
<path fill="none" stroke="midnightblue" d="M477.42,-168.28C470.75,-148.08 456.52,-96.7 468.5,-56 471.51,-45.76 477.65,-35.66 483.51,-27.63"/>
<polygon fill="midnightblue" stroke="midnightblue" points="486.43,-29.58 489.83,-19.54 480.91,-25.27 486.43,-29.58"/>
</g>
<!-- Node14 -->
<g id="node14" class="node">
<title>Node14</title>
<g id="a_node14"><a xlink:title=" ">
<polygon fill="none" stroke="#bfbfbf" points="0,-0.5 0,-19.5 65,-19.5 65,-0.5 0,-0.5"/>
<text text-anchor="middle" x="32.5" y="-7.5" font-family="Helvetica,sans-Serif" font-size="10.00">stdexcept</text>
</a>
</g>
</g>
<!-- Node1&#45;&gt;Node14 -->
<g id="edge19" class="edge">
<title>Node1&#45;&gt;Node14</title>
<path fill="none" stroke="midnightblue" d="M457.36,-168.42C383.16,-140.93 151.06,-54.93 65.02,-23.05"/>
<polygon fill="midnightblue" stroke="midnightblue" points="66.1,-19.72 55.5,-19.52 63.67,-26.28 66.1,-19.72"/>
</g>
<!-- Node3 -->
<g id="node3" class="node">
<title>Node3</title>
<g id="a_node3"><a xlink:title=" ">
<polygon fill="none" stroke="#bfbfbf" points="546,-0.5 546,-19.5 593,-19.5 593,-0.5 546,-0.5"/>
<text text-anchor="middle" x="569.5" y="-7.5" font-family="Helvetica,sans-Serif" font-size="10.00">vector</text>
</a>
</g>
</g>
<!-- Node2&#45;&gt;Node3 -->
<g id="edge2" class="edge">
<title>Node2&#45;&gt;Node3</title>
<path fill="none" stroke="midnightblue" d="M534.74,-118.14C558.83,-113.71 596.15,-102.73 613.5,-76 624.81,-58.58 607.05,-38.86 590.83,-25.75"/>
<polygon fill="midnightblue" stroke="midnightblue" points="592.74,-22.8 582.65,-19.55 588.51,-28.38 592.74,-22.8"/>
</g>
<!-- Node4 -->
<g id="node4" class="node">
<title>Node4</title>
<g id="a_node4"><a xlink:title=" ">
<polygon fill="none" stroke="#bfbfbf" points="566.5,-56.5 566.5,-75.5 604.5,-75.5 604.5,-56.5 566.5,-56.5"/>
<text text-anchor="middle" x="585.5" y="-63.5" font-family="Helvetica,sans-Serif" font-size="10.00">map</text>
</a>
</g>
</g>
<!-- Node2&#45;&gt;Node4 -->
<g id="edge3" class="edge">
<title>Node2&#45;&gt;Node4</title>
<path fill="none" stroke="midnightblue" d="M524.23,-112.32C535.34,-104.11 552.24,-91.6 565.48,-81.81"/>
<polygon fill="midnightblue" stroke="midnightblue" points="567.6,-84.59 573.56,-75.83 563.44,-78.97 567.6,-84.59"/>
</g>
<!-- Node5 -->
<g id="node5" class="node">
<title>Node5</title>
<g id="a_node5"><a xlink:href="functions_8h.html" target="_top" xlink:title=" ">
<polygon fill="none" stroke="black" points="477,-56.5 477,-75.5 548,-75.5 548,-56.5 477,-56.5"/>
<text text-anchor="middle" x="512.5" y="-63.5" font-family="Helvetica,sans-Serif" font-size="10.00">functions.h</text>
</a>
</g>
</g>
<!-- Node2&#45;&gt;Node5 -->
<g id="edge4" class="edge">
<title>Node2&#45;&gt;Node5</title>
<path fill="none" stroke="midnightblue" d="M512.5,-112.08C512.5,-105.01 512.5,-94.86 512.5,-85.99"/>
<polygon fill="midnightblue" stroke="midnightblue" points="516,-85.75 512.5,-75.75 509,-85.75 516,-85.75"/>
</g>
<!-- Node9 -->
<g id="node9" class="node">
<title>Node9</title>
<g id="a_node9"><a xlink:href="initializer__v2_8h.html" target="_top" xlink:title=" ">
<polygon fill="none" stroke="black" points="265,-56.5 265,-75.5 354,-75.5 354,-56.5 265,-56.5"/>
<text text-anchor="middle" x="309.5" y="-63.5" font-family="Helvetica,sans-Serif" font-size="10.00">initializer_v2.h</text>
</a>
</g>
</g>
<!-- Node2&#45;&gt;Node9 -->
<g id="edge8" class="edge">
<title>Node2&#45;&gt;Node9</title>
<path fill="none" stroke="midnightblue" d="M490.39,-115.12C457.09,-106.26 393.49,-89.34 351.28,-78.11"/>
<polygon fill="midnightblue" stroke="midnightblue" points="352.13,-74.72 341.57,-75.53 350.33,-81.48 352.13,-74.72"/>
</g>
<!-- Node5&#45;&gt;Node6 -->
<g id="edge5" class="edge">
<title>Node5&#45;&gt;Node6</title>
<path fill="none" stroke="midnightblue" d="M545.5,-56.47C578.18,-48.01 629.91,-34.54 683.96,-20.12"/>
<polygon fill="midnightblue" stroke="midnightblue" points="684.96,-23.48 693.71,-17.52 683.15,-16.72 684.96,-23.48"/>
</g>
<!-- Node7 -->
<g id="node7" class="node">
<title>Node7</title>
<g id="a_node7"><a xlink:title=" ">
<polygon fill="none" stroke="#bfbfbf" points="611.5,-0.5 611.5,-19.5 675.5,-19.5 675.5,-0.5 611.5,-0.5"/>
<text text-anchor="middle" x="643.5" y="-7.5" font-family="Helvetica,sans-Serif" font-size="10.00">algorithm</text>
</a>
</g>
</g>
<!-- Node5&#45;&gt;Node7 -->
<g id="edge6" class="edge">
<title>Node5&#45;&gt;Node7</title>
<path fill="none" stroke="midnightblue" d="M533.26,-56.44C554.82,-47.56 588.76,-33.56 613.29,-23.45"/>
<polygon fill="midnightblue" stroke="midnightblue" points="614.93,-26.56 622.84,-19.52 612.26,-20.09 614.93,-26.56"/>
</g>
<!-- Node5&#45;&gt;Node8 -->
<g id="edge7" class="edge">
<title>Node5&#45;&gt;Node8</title>
<path fill="none" stroke="midnightblue" d="M510.02,-56.08C508.01,-48.85 505.11,-38.41 502.61,-29.4"/>
<polygon fill="midnightblue" stroke="midnightblue" points="505.98,-28.45 499.93,-19.75 499.24,-30.32 505.98,-28.45"/>
</g>
<!-- Node9&#45;&gt;Node3 -->
<g id="edge13" class="edge">
<title>Node9&#45;&gt;Node3</title>
<path fill="none" stroke="midnightblue" d="M354.07,-57.13C397.92,-49.16 466.98,-36.05 536.02,-19.98"/>
<polygon fill="midnightblue" stroke="midnightblue" points="536.82,-23.38 545.76,-17.69 535.22,-16.57 536.82,-23.38"/>
</g>
<!-- Node9&#45;&gt;Node8 -->
<g id="edge9" class="edge">
<title>Node9&#45;&gt;Node8</title>
<path fill="none" stroke="midnightblue" d="M339.29,-56.44C371.33,-47.24 422.43,-32.56 457.85,-22.39"/>
<polygon fill="midnightblue" stroke="midnightblue" points="459.21,-25.64 467.85,-19.52 457.27,-18.91 459.21,-25.64"/>
</g>
<!-- Node10 -->
<g id="node10" class="node">
<title>Node10</title>
<g id="a_node10"><a xlink:title=" ">
<polygon fill="none" stroke="#bfbfbf" points="83.5,-0.5 83.5,-19.5 127.5,-19.5 127.5,-0.5 83.5,-0.5"/>
<text text-anchor="middle" x="105.5" y="-7.5" font-family="Helvetica,sans-Serif" font-size="10.00">regex</text>
</a>
</g>
</g>
<!-- Node9&#45;&gt;Node10 -->
<g id="edge10" class="edge">
<title>Node9&#45;&gt;Node10</title>
<path fill="none" stroke="midnightblue" d="M275.61,-56.48C242.66,-48.14 190.95,-34.87 137.48,-20.22"/>
<polygon fill="midnightblue" stroke="midnightblue" points="138.4,-16.84 127.83,-17.56 136.54,-23.59 138.4,-16.84"/>
</g>
<!-- Node11 -->
<g id="node11" class="node">
<title>Node11</title>
<g id="a_node11"><a xlink:title=" ">
<polygon fill="none" stroke="#bfbfbf" points="145.5,-0.5 145.5,-19.5 189.5,-19.5 189.5,-0.5 145.5,-0.5"/>
<text text-anchor="middle" x="167.5" y="-7.5" font-family="Helvetica,sans-Serif" font-size="10.00">string</text>
</a>
</g>
</g>
<!-- Node9&#45;&gt;Node11 -->
<g id="edge11" class="edge">
<title>Node9&#45;&gt;Node11</title>
<path fill="none" stroke="midnightblue" d="M287,-56.44C263.42,-47.48 226.18,-33.31 199.54,-23.18"/>
<polygon fill="midnightblue" stroke="midnightblue" points="200.49,-19.8 189.9,-19.52 198,-26.34 200.49,-19.8"/>
</g>
<!-- Node12 -->
<g id="node12" class="node">
<title>Node12</title>
<g id="a_node12"><a xlink:title=" ">
<polygon fill="none" stroke="#bfbfbf" points="208,-0.5 208,-19.5 263,-19.5 263,-0.5 208,-0.5"/>
<text text-anchor="middle" x="235.5" y="-7.5" font-family="Helvetica,sans-Serif" font-size="10.00">fstream</text>
</a>
</g>
</g>
<!-- Node9&#45;&gt;Node12 -->
<g id="edge12" class="edge">
<title>Node9&#45;&gt;Node12</title>
<path fill="none" stroke="midnightblue" d="M297.61,-56.32C286.35,-48.11 269.21,-35.6 255.79,-25.81"/>
<polygon fill="midnightblue" stroke="midnightblue" points="257.75,-22.9 247.61,-19.83 253.62,-28.56 257.75,-22.9"/>
</g>
<!-- Node13 -->
<g id="node13" class="node">
<title>Node13</title>
<g id="a_node13"><a xlink:title=" ">
<polygon fill="none" stroke="#bfbfbf" points="281.5,-0.5 281.5,-19.5 337.5,-19.5 337.5,-0.5 281.5,-0.5"/>
<text text-anchor="middle" x="309.5" y="-7.5" font-family="Helvetica,sans-Serif" font-size="10.00">sstream</text>
</a>
</g>
</g>
<!-- Node9&#45;&gt;Node13 -->
<g id="edge14" class="edge">
<title>Node9&#45;&gt;Node13</title>
<path fill="none" stroke="midnightblue" d="M309.5,-56.08C309.5,-49.01 309.5,-38.86 309.5,-29.99"/>
<polygon fill="midnightblue" stroke="midnightblue" points="313,-29.75 309.5,-19.75 306,-29.75 313,-29.75"/>
</g>
<!-- Node9&#45;&gt;Node14 -->
<g id="edge15" class="edge">
<title>Node9&#45;&gt;Node14</title>
<path fill="none" stroke="midnightblue" d="M264.83,-56.75C219.64,-48.33 147.5,-34.71 75.24,-20.11"/>
<polygon fill="midnightblue" stroke="midnightblue" points="75.54,-16.6 65.04,-18.05 74.15,-23.46 75.54,-16.6"/>
</g>
<!-- Node15 -->
<g id="node15" class="node">
<title>Node15</title>
<g id="a_node15"><a xlink:title=" ">
<polygon fill="none" stroke="#bfbfbf" points="356,-0.5 356,-19.5 449,-19.5 449,-0.5 356,-0.5"/>
<text text-anchor="middle" x="402.5" y="-7.5" font-family="Helvetica,sans-Serif" font-size="10.00">unordered_map</text>
</a>
</g>
</g>
<!-- Node9&#45;&gt;Node15 -->
<g id="edge16" class="edge">
<title>Node9&#45;&gt;Node15</title>
<path fill="none" stroke="midnightblue" d="M324.44,-56.32C339.09,-47.82 361.63,-34.73 378.74,-24.8"/>
<polygon fill="midnightblue" stroke="midnightblue" points="380.7,-27.7 387.6,-19.65 377.19,-21.65 380.7,-27.7"/>
</g>
</g>
</svg>
