<?xml version="1.0" encoding="UTF-8" standalone="no"?>
<!DOCTYPE svg PUBLIC "-//W3C//DTD SVG 1.1//EN"
 "http://www.w3.org/Graphics/SVG/1.1/DTD/svg11.dtd">
<!-- Generated by graphviz version 2.43.0 (0)
 -->
<!-- Title: src/fish_glue.cpp Pages: 1 -->
<svg width="976pt" height="308pt"
 viewBox="0.00 0.00 976.00 308.00" xmlns="http://www.w3.org/2000/svg" xmlns:xlink="http://www.w3.org/1999/xlink">
<g id="graph0" class="graph" transform="scale(1 1) rotate(0) translate(4 304)">
<title>src/fish_glue.cpp</title>
<!-- Node1 -->
<g id="node1" class="node">
<title>Node1</title>
<g id="a_node1"><a xlink:title=" ">
<polygon fill="#bfbfbf" stroke="black" points="566,-280.5 566,-299.5 664,-299.5 664,-280.5 566,-280.5"/>
<text text-anchor="middle" x="615" y="-287.5" font-family="Helvetica,sans-Serif" font-size="10.00">src/fish_glue.cpp</text>
</a>
</g>
</g>
<!-- Node2 -->
<g id="node2" class="node">
<title>Node2</title>
<g id="a_node2"><a xlink:title=" ">
<polygon fill="none" stroke="#bfbfbf" points="693,-112.5 693,-131.5 743,-131.5 743,-112.5 693,-112.5"/>
<text text-anchor="middle" x="718" y="-119.5" font-family="Helvetica,sans-Serif" font-size="10.00">Rcpp.h</text>
</a>
</g>
</g>
<!-- Node1&#45;&gt;Node2 -->
<g id="edge1" class="edge">
<title>Node1&#45;&gt;Node2</title>
<path fill="none" stroke="midnightblue" d="M620.54,-280.08C636.96,-253.61 685.61,-175.21 707.32,-140.21"/>
<polygon fill="midnightblue" stroke="midnightblue" points="710.39,-141.91 712.68,-131.57 704.44,-138.22 710.39,-141.91"/>
</g>
<!-- Node3 -->
<g id="node3" class="node">
<title>Node3</title>
<g id="a_node3"><a xlink:href="fish_8h.html" target="_top" xlink:title=" ">
<polygon fill="none" stroke="black" points="521,-112.5 521,-131.5 565,-131.5 565,-112.5 521,-112.5"/>
<text text-anchor="middle" x="543" y="-119.5" font-family="Helvetica,sans-Serif" font-size="10.00">fish.h</text>
</a>
</g>
</g>
<!-- Node1&#45;&gt;Node3 -->
<g id="edge2" class="edge">
<title>Node1&#45;&gt;Node3</title>
<path fill="none" stroke="midnightblue" d="M610.63,-280.47C601.85,-263.23 581.7,-222.89 567,-188 560.43,-172.41 553.84,-154.33 549.23,-141.21"/>
<polygon fill="midnightblue" stroke="midnightblue" points="552.45,-139.81 545.87,-131.51 545.84,-142.1 552.45,-139.81"/>
</g>
<!-- Node6 -->
<g id="node6" class="node">
<title>Node6</title>
<g id="a_node6"><a xlink:href="functions_8h.html" target="_top" xlink:title=" ">
<polygon fill="none" stroke="black" points="440.5,-56.5 440.5,-75.5 511.5,-75.5 511.5,-56.5 440.5,-56.5"/>
<text text-anchor="middle" x="476" y="-63.5" font-family="Helvetica,sans-Serif" font-size="10.00">functions.h</text>
</a>
</g>
</g>
<!-- Node1&#45;&gt;Node6 -->
<g id="edge18" class="edge">
<title>Node1&#45;&gt;Node6</title>
<path fill="none" stroke="midnightblue" d="M607.46,-280.31C599.91,-271.44 588.13,-257.15 579,-244 540.39,-188.4 502.24,-117.6 485.22,-84.96"/>
<polygon fill="midnightblue" stroke="midnightblue" points="488.17,-83.04 480.46,-75.77 481.95,-86.26 488.17,-83.04"/>
</g>
<!-- Node17 -->
<g id="node17" class="node">
<title>Node17</title>
<g id="a_node17"><a xlink:href="population_8h.html" target="_top" xlink:title=" ">
<polygon fill="none" stroke="black" points="576.5,-168.5 576.5,-187.5 653.5,-187.5 653.5,-168.5 576.5,-168.5"/>
<text text-anchor="middle" x="615" y="-175.5" font-family="Helvetica,sans-Serif" font-size="10.00">population.h</text>
</a>
</g>
</g>
<!-- Node1&#45;&gt;Node17 -->
<g id="edge19" class="edge">
<title>Node1&#45;&gt;Node17</title>
<path fill="none" stroke="midnightblue" d="M615,-280.37C615,-262.62 615,-221.67 615,-197.6"/>
<polygon fill="midnightblue" stroke="midnightblue" points="618.5,-197.59 615,-187.59 611.5,-197.59 618.5,-197.59"/>
</g>
<!-- Node19 -->
<g id="node19" class="node">
<title>Node19</title>
<g id="a_node19"><a xlink:href="simulator_8h.html" target="_top" xlink:title=" ">
<polygon fill="none" stroke="black" points="710,-224.5 710,-243.5 782,-243.5 782,-224.5 710,-224.5"/>
<text text-anchor="middle" x="746" y="-231.5" font-family="Helvetica,sans-Serif" font-size="10.00">simulator.h</text>
</a>
</g>
</g>
<!-- Node1&#45;&gt;Node19 -->
<g id="edge24" class="edge">
<title>Node1&#45;&gt;Node19</title>
<path fill="none" stroke="midnightblue" d="M635.76,-280.44C657.32,-271.56 691.26,-257.56 715.79,-247.45"/>
<polygon fill="midnightblue" stroke="midnightblue" points="717.43,-250.56 725.34,-243.52 714.76,-244.09 717.43,-250.56"/>
</g>
<!-- Node4 -->
<g id="node4" class="node">
<title>Node4</title>
<g id="a_node4"><a xlink:title=" ">
<polygon fill="none" stroke="#bfbfbf" points="610.5,-0.5 610.5,-19.5 657.5,-19.5 657.5,-0.5 610.5,-0.5"/>
<text text-anchor="middle" x="634" y="-7.5" font-family="Helvetica,sans-Serif" font-size="10.00">vector</text>
</a>
</g>
</g>
<!-- Node3&#45;&gt;Node4 -->
<g id="edge3" class="edge">
<title>Node3&#45;&gt;Node4</title>
<path fill="none" stroke="midnightblue" d="M550.14,-112.37C565.29,-94.05 600.87,-51.05 620.46,-27.36"/>
<polygon fill="midnightblue" stroke="midnightblue" points="623.22,-29.53 626.89,-19.59 617.82,-25.07 623.22,-29.53"/>
</g>
<!-- Node5 -->
<g id="node5" class="node">
<title>Node5</title>
<g id="a_node5"><a xlink:title=" ">
<polygon fill="none" stroke="#bfbfbf" points="530,-56.5 530,-75.5 568,-75.5 568,-56.5 530,-56.5"/>
<text text-anchor="middle" x="549" y="-63.5" font-family="Helvetica,sans-Serif" font-size="10.00">map</text>
</a>
</g>
</g>
<!-- Node3&#45;&gt;Node5 -->
<g id="edge4" class="edge">
<title>Node3&#45;&gt;Node5</title>
<path fill="none" stroke="midnightblue" d="M543.99,-112.08C544.79,-104.93 545.93,-94.64 546.92,-85.69"/>
<polygon fill="midnightblue" stroke="midnightblue" points="550.4,-86.08 548.03,-75.75 543.44,-85.3 550.4,-86.08"/>
</g>
<!-- Node3&#45;&gt;Node6 -->
<g id="edge5" class="edge">
<title>Node3&#45;&gt;Node6</title>
<path fill="none" stroke="midnightblue" d="M532.24,-112.32C522.23,-104.26 507.11,-92.08 495.07,-82.37"/>
<polygon fill="midnightblue" stroke="midnightblue" points="496.94,-79.38 486.96,-75.83 492.55,-84.83 496.94,-79.38"/>
</g>
<!-- Node10 -->
<g id="node10" class="node">
<title>Node10</title>
<g id="a_node10"><a xlink:href="initializer__v2_8h.html" target="_top" xlink:title=" ">
<polygon fill="none" stroke="black" points="308.5,-56.5 308.5,-75.5 397.5,-75.5 397.5,-56.5 308.5,-56.5"/>
<text text-anchor="middle" x="353" y="-63.5" font-family="Helvetica,sans-Serif" font-size="10.00">initializer_v2.h</text>
</a>
</g>
</g>
<!-- Node3&#45;&gt;Node10 -->
<g id="edge9" class="edge">
<title>Node3&#45;&gt;Node10</title>
<path fill="none" stroke="midnightblue" d="M520.83,-114.7C489.56,-105.81 431.98,-89.45 393.09,-78.39"/>
<polygon fill="midnightblue" stroke="midnightblue" points="393.72,-74.93 383.14,-75.57 391.8,-81.67 393.72,-74.93"/>
</g>
<!-- Node7 -->
<g id="node7" class="node">
<title>Node7</title>
<g id="a_node7"><a xlink:title=" ">
<polygon fill="none" stroke="#bfbfbf" points="466.5,-0.5 466.5,-19.5 513.5,-19.5 513.5,-0.5 466.5,-0.5"/>
<text text-anchor="middle" x="490" y="-7.5" font-family="Helvetica,sans-Serif" font-size="10.00">cmath</text>
</a>
</g>
</g>
<!-- Node6&#45;&gt;Node7 -->
<g id="edge6" class="edge">
<title>Node6&#45;&gt;Node7</title>
<path fill="none" stroke="midnightblue" d="M478.31,-56.08C480.17,-48.93 482.84,-38.64 485.15,-29.69"/>
<polygon fill="midnightblue" stroke="midnightblue" points="488.61,-30.31 487.73,-19.75 481.83,-28.55 488.61,-30.31"/>
</g>
<!-- Node8 -->
<g id="node8" class="node">
<title>Node8</title>
<g id="a_node8"><a xlink:title=" ">
<polygon fill="none" stroke="#bfbfbf" points="676,-0.5 676,-19.5 740,-19.5 740,-0.5 676,-0.5"/>
<text text-anchor="middle" x="708" y="-7.5" font-family="Helvetica,sans-Serif" font-size="10.00">algorithm</text>
</a>
</g>
</g>
<!-- Node6&#45;&gt;Node8 -->
<g id="edge7" class="edge">
<title>Node6&#45;&gt;Node8</title>
<path fill="none" stroke="midnightblue" d="M511.74,-56.68C553.37,-46.99 622.04,-31.01 666.12,-20.75"/>
<polygon fill="midnightblue" stroke="midnightblue" points="667.01,-24.13 675.96,-18.46 665.42,-17.32 667.01,-24.13"/>
</g>
<!-- Node9 -->
<g id="node9" class="node">
<title>Node9</title>
<g id="a_node9"><a xlink:title=" ">
<polygon fill="none" stroke="#bfbfbf" points="532,-0.5 532,-19.5 592,-19.5 592,-0.5 532,-0.5"/>
<text text-anchor="middle" x="562" y="-7.5" font-family="Helvetica,sans-Serif" font-size="10.00">iostream</text>
</a>
</g>
</g>
<!-- Node6&#45;&gt;Node9 -->
<g id="edge8" class="edge">
<title>Node6&#45;&gt;Node9</title>
<path fill="none" stroke="midnightblue" d="M489.82,-56.32C503.23,-47.9 523.82,-34.97 539.59,-25.07"/>
<polygon fill="midnightblue" stroke="midnightblue" points="541.61,-27.94 548.22,-19.65 537.89,-22.01 541.61,-27.94"/>
</g>
<!-- Node10&#45;&gt;Node4 -->
<g id="edge14" class="edge">
<title>Node10&#45;&gt;Node4</title>
<path fill="none" stroke="midnightblue" d="M397.59,-58.11C445.37,-50.45 523.62,-37.16 600.42,-19.96"/>
<polygon fill="midnightblue" stroke="midnightblue" points="601.29,-23.36 610.27,-17.74 599.74,-16.53 601.29,-23.36"/>
</g>
<!-- Node10&#45;&gt;Node9 -->
<g id="edge10" class="edge">
<title>Node10&#45;&gt;Node9</title>
<path fill="none" stroke="midnightblue" d="M386.12,-56.44C422.96,-46.92 482.5,-31.54 521.94,-21.35"/>
<polygon fill="midnightblue" stroke="midnightblue" points="522.95,-24.71 531.75,-18.82 521.2,-17.93 522.95,-24.71"/>
</g>
<!-- Node11 -->
<g id="node11" class="node">
<title>Node11</title>
<g id="a_node11"><a xlink:title=" ">
<polygon fill="none" stroke="#bfbfbf" points="269,-0.5 269,-19.5 313,-19.5 313,-0.5 269,-0.5"/>
<text text-anchor="middle" x="291" y="-7.5" font-family="Helvetica,sans-Serif" font-size="10.00">regex</text>
</a>
</g>
</g>
<!-- Node10&#45;&gt;Node11 -->
<g id="edge11" class="edge">
<title>Node10&#45;&gt;Node11</title>
<path fill="none" stroke="midnightblue" d="M343.04,-56.32C333.87,-48.34 320.06,-36.31 308.97,-26.65"/>
<polygon fill="midnightblue" stroke="midnightblue" points="310.98,-23.76 301.14,-19.83 306.38,-29.04 310.98,-23.76"/>
</g>
<!-- Node12 -->
<g id="node12" class="node">
<title>Node12</title>
<g id="a_node12"><a xlink:title=" ">
<polygon fill="none" stroke="#bfbfbf" points="331,-0.5 331,-19.5 375,-19.5 375,-0.5 331,-0.5"/>
<text text-anchor="middle" x="353" y="-7.5" font-family="Helvetica,sans-Serif" font-size="10.00">string</text>
</a>
</g>
</g>
<!-- Node10&#45;&gt;Node12 -->
<g id="edge12" class="edge">
<title>Node10&#45;&gt;Node12</title>
<path fill="none" stroke="midnightblue" d="M353,-56.08C353,-49.01 353,-38.86 353,-29.99"/>
<polygon fill="midnightblue" stroke="midnightblue" points="356.5,-29.75 353,-19.75 349.5,-29.75 356.5,-29.75"/>
</g>
<!-- Node13 -->
<g id="node13" class="node">
<title>Node13</title>
<g id="a_node13"><a xlink:title=" ">
<polygon fill="none" stroke="#bfbfbf" points="393.5,-0.5 393.5,-19.5 448.5,-19.5 448.5,-0.5 393.5,-0.5"/>
<text text-anchor="middle" x="421" y="-7.5" font-family="Helvetica,sans-Serif" font-size="10.00">fstream</text>
</a>
</g>
</g>
<!-- Node10&#45;&gt;Node13 -->
<g id="edge13" class="edge">
<title>Node10&#45;&gt;Node13</title>
<path fill="none" stroke="midnightblue" d="M363.93,-56.32C374.17,-48.18 389.72,-35.84 402,-26.09"/>
<polygon fill="midnightblue" stroke="midnightblue" points="404.22,-28.79 409.88,-19.83 399.87,-23.31 404.22,-28.79"/>
</g>
<!-- Node14 -->
<g id="node14" class="node">
<title>Node14</title>
<g id="a_node14"><a xlink:title=" ">
<polygon fill="none" stroke="#bfbfbf" points="0,-0.5 0,-19.5 56,-19.5 56,-0.5 0,-0.5"/>
<text text-anchor="middle" x="28" y="-7.5" font-family="Helvetica,sans-Serif" font-size="10.00">sstream</text>
</a>
</g>
</g>
<!-- Node10&#45;&gt;Node14 -->
<g id="edge15" class="edge">
<title>Node10&#45;&gt;Node14</title>
<path fill="none" stroke="midnightblue" d="M308.39,-59.21C253.61,-51.84 157.66,-38.08 66.2,-20.11"/>
<polygon fill="midnightblue" stroke="midnightblue" points="66.72,-16.64 56.23,-18.12 65.35,-23.5 66.72,-16.64"/>
</g>
<!-- Node15 -->
<g id="node15" class="node">
<title>Node15</title>
<g id="a_node15"><a xlink:title=" ">
<polygon fill="none" stroke="#bfbfbf" points="74.5,-0.5 74.5,-19.5 139.5,-19.5 139.5,-0.5 74.5,-0.5"/>
<text text-anchor="middle" x="107" y="-7.5" font-family="Helvetica,sans-Serif" font-size="10.00">stdexcept</text>
</a>
</g>
</g>
<!-- Node10&#45;&gt;Node15 -->
<g id="edge16" class="edge">
<title>Node10&#45;&gt;Node15</title>
<path fill="none" stroke="midnightblue" d="M314.02,-56.44C269.18,-46.6 195.81,-30.49 149.52,-20.33"/>
<polygon fill="midnightblue" stroke="midnightblue" points="150.03,-16.86 139.51,-18.14 148.53,-23.7 150.03,-16.86"/>
</g>
<!-- Node16 -->
<g id="node16" class="node">
<title>Node16</title>
<g id="a_node16"><a xlink:title=" ">
<polygon fill="none" stroke="#bfbfbf" points="157.5,-0.5 157.5,-19.5 250.5,-19.5 250.5,-0.5 157.5,-0.5"/>
<text text-anchor="middle" x="204" y="-7.5" font-family="Helvetica,sans-Serif" font-size="10.00">unordered_map</text>
</a>
</g>
</g>
<!-- Node10&#45;&gt;Node16 -->
<g id="edge17" class="edge">
<title>Node10&#45;&gt;Node16</title>
<path fill="none" stroke="midnightblue" d="M329.39,-56.44C304.54,-47.44 265.23,-33.19 237.25,-23.05"/>
<polygon fill="midnightblue" stroke="midnightblue" points="238.09,-19.63 227.5,-19.52 235.71,-26.21 238.09,-19.63"/>
</g>
<!-- Node17&#45;&gt;Node2 -->
<g id="edge22" class="edge">
<title>Node17&#45;&gt;Node2</title>
<path fill="none" stroke="midnightblue" d="M631.55,-168.32C647.99,-159.7 673.43,-146.36 692.47,-136.39"/>
<polygon fill="midnightblue" stroke="midnightblue" points="694.26,-139.4 701.49,-131.65 691.01,-133.2 694.26,-139.4"/>
</g>
<!-- Node17&#45;&gt;Node3 -->
<g id="edge23" class="edge">
<title>Node17&#45;&gt;Node3</title>
<path fill="none" stroke="midnightblue" d="M603.43,-168.32C592.58,-160.18 576.12,-147.84 563.12,-138.09"/>
<polygon fill="midnightblue" stroke="midnightblue" points="564.88,-135.03 554.78,-131.83 560.68,-140.63 564.88,-135.03"/>
</g>
<!-- Node17&#45;&gt;Node4 -->
<g id="edge20" class="edge">
<title>Node17&#45;&gt;Node4</title>
<path fill="none" stroke="midnightblue" d="M614.25,-168.38C613.51,-159.33 612.42,-144.68 612,-132 611.7,-123.12 611.05,-120.84 612,-112 615.16,-82.64 623.35,-49.3 628.79,-29.22"/>
<polygon fill="midnightblue" stroke="midnightblue" points="632.18,-30.12 631.49,-19.54 625.43,-28.24 632.18,-30.12"/>
</g>
<!-- Node18 -->
<g id="node18" class="node">
<title>Node18</title>
<g id="a_node18"><a xlink:title=" ">
<polygon fill="none" stroke="#bfbfbf" points="621,-112.5 621,-131.5 675,-131.5 675,-112.5 621,-112.5"/>
<text text-anchor="middle" x="648" y="-119.5" font-family="Helvetica,sans-Serif" font-size="10.00">random</text>
</a>
</g>
</g>
<!-- Node17&#45;&gt;Node18 -->
<g id="edge21" class="edge">
<title>Node17&#45;&gt;Node18</title>
<path fill="none" stroke="midnightblue" d="M620.45,-168.08C625.01,-160.61 631.67,-149.72 637.29,-140.52"/>
<polygon fill="midnightblue" stroke="midnightblue" points="640.42,-142.11 642.65,-131.75 634.45,-138.46 640.42,-142.11"/>
</g>
<!-- Node19&#45;&gt;Node2 -->
<g id="edge34" class="edge">
<title>Node19&#45;&gt;Node2</title>
<path fill="none" stroke="midnightblue" d="M743.8,-224.37C739.28,-206.62 728.86,-165.67 722.73,-141.6"/>
<polygon fill="midnightblue" stroke="midnightblue" points="726.05,-140.42 720.19,-131.59 719.26,-142.15 726.05,-140.42"/>
</g>
<!-- Node19&#45;&gt;Node4 -->
<g id="edge25" class="edge">
<title>Node19&#45;&gt;Node4</title>
<path fill="none" stroke="midnightblue" d="M749.06,-224.27C755.76,-203.62 769.77,-150.59 752,-112 733.26,-71.29 689.11,-40.87 660.45,-24.53"/>
<polygon fill="midnightblue" stroke="midnightblue" points="661.83,-21.3 651.38,-19.54 658.45,-27.43 661.83,-21.3"/>
</g>
<!-- Node19&#45;&gt;Node17 -->
<g id="edge26" class="edge">
<title>Node19&#45;&gt;Node17</title>
<path fill="none" stroke="midnightblue" d="M725.24,-224.44C703.68,-215.56 669.74,-201.56 645.21,-191.45"/>
<polygon fill="midnightblue" stroke="midnightblue" points="646.24,-188.09 635.66,-187.52 643.57,-194.56 646.24,-188.09"/>
</g>
<!-- Node20 -->
<g id="node20" class="node">
<title>Node20</title>
<g id="a_node20"><a xlink:href="tensor_8h.html" target="_top" xlink:title=" ">
<polygon fill="none" stroke="black" points="794,-56.5 794,-75.5 850,-75.5 850,-56.5 794,-56.5"/>
<text text-anchor="middle" x="822" y="-63.5" font-family="Helvetica,sans-Serif" font-size="10.00">tensor.h</text>
</a>
</g>
</g>
<!-- Node19&#45;&gt;Node20 -->
<g id="edge27" class="edge">
<title>Node19&#45;&gt;Node20</title>
<path fill="none" stroke="midnightblue" d="M755.63,-224.22C764.42,-215.73 777.19,-202.11 785,-188 803.55,-154.48 813.99,-110.48 818.77,-85.83"/>
<polygon fill="midnightblue" stroke="midnightblue" points="822.27,-86.16 820.62,-75.7 815.38,-84.91 822.27,-86.16"/>
</g>
<!-- Node20&#45;&gt;Node4 -->
<g id="edge30" class="edge">
<title>Node20&#45;&gt;Node4</title>
<path fill="none" stroke="midnightblue" d="M793.85,-56.92C760.11,-47.22 703.6,-30.99 667.59,-20.65"/>
<polygon fill="midnightblue" stroke="midnightblue" points="668.15,-17.17 657.57,-17.77 666.22,-23.9 668.15,-17.17"/>
</g>
<!-- Node20&#45;&gt;Node8 -->
<g id="edge32" class="edge">
<title>Node20&#45;&gt;Node8</title>
<path fill="none" stroke="midnightblue" d="M803.94,-56.44C785.43,-47.68 756.42,-33.94 735.14,-23.86"/>
<polygon fill="midnightblue" stroke="midnightblue" points="736.51,-20.63 725.98,-19.52 733.52,-26.96 736.51,-20.63"/>
</g>
<!-- Node20&#45;&gt;Node9 -->
<g id="edge28" class="edge">
<title>Node20&#45;&gt;Node9</title>
<path fill="none" stroke="midnightblue" d="M793.83,-59.42C751.95,-51.09 670.8,-34.77 602,-20 601.9,-19.98 601.8,-19.96 601.7,-19.94"/>
<polygon fill="midnightblue" stroke="midnightblue" points="602.64,-16.56 592.13,-17.84 601.15,-23.4 602.64,-16.56"/>
</g>
<!-- Node21 -->
<g id="node21" class="node">
<title>Node21</title>
<g id="a_node21"><a xlink:title=" ">
<polygon fill="none" stroke="#bfbfbf" points="916,-0.5 916,-19.5 968,-19.5 968,-0.5 916,-0.5"/>
<text text-anchor="middle" x="942" y="-7.5" font-family="Helvetica,sans-Serif" font-size="10.00">cassert</text>
</a>
</g>
</g>
<!-- Node20&#45;&gt;Node21 -->
<g id="edge29" class="edge">
<title>Node20&#45;&gt;Node21</title>
<path fill="none" stroke="midnightblue" d="M841.01,-56.44C860.59,-47.64 891.31,-33.81 913.73,-23.72"/>
<polygon fill="midnightblue" stroke="midnightblue" points="915.39,-26.81 923.07,-19.52 912.52,-20.43 915.39,-26.81"/>
</g>
<!-- Node22 -->
<g id="node22" class="node">
<title>Node22</title>
<g id="a_node22"><a xlink:title=" ">
<polygon fill="none" stroke="#bfbfbf" points="758.5,-0.5 758.5,-19.5 823.5,-19.5 823.5,-0.5 758.5,-0.5"/>
<text text-anchor="middle" x="791" y="-7.5" font-family="Helvetica,sans-Serif" font-size="10.00">functional</text>
</a>
</g>
</g>
<!-- Node20&#45;&gt;Node22 -->
<g id="edge31" class="edge">
<title>Node20&#45;&gt;Node22</title>
<path fill="none" stroke="midnightblue" d="M816.88,-56.08C812.59,-48.61 806.34,-37.72 801.06,-28.52"/>
<polygon fill="midnightblue" stroke="midnightblue" points="804.04,-26.68 796.02,-19.75 797.97,-30.17 804.04,-26.68"/>
</g>
<!-- Node23 -->
<g id="node23" class="node">
<title>Node23</title>
<g id="a_node23"><a xlink:title=" ">
<polygon fill="none" stroke="#bfbfbf" points="842,-0.5 842,-19.5 898,-19.5 898,-0.5 842,-0.5"/>
<text text-anchor="middle" x="870" y="-7.5" font-family="Helvetica,sans-Serif" font-size="10.00">numeric</text>
</a>
</g>
</g>
<!-- Node20&#45;&gt;Node23 -->
<g id="edge33" class="edge">
<title>Node20&#45;&gt;Node23</title>
<path fill="none" stroke="midnightblue" d="M829.93,-56.08C836.85,-48.3 847.07,-36.8 855.45,-27.37"/>
<polygon fill="midnightblue" stroke="midnightblue" points="858.19,-29.55 862.22,-19.75 852.96,-24.9 858.19,-29.55"/>
</g>
</g>
</svg>
