<?xml version="1.0" encoding="UTF-8" standalone="no"?>
<!DOCTYPE svg PUBLIC "-//W3C//DTD SVG 1.1//EN"
 "http://www.w3.org/Graphics/SVG/1.1/DTD/svg11.dtd">
<!-- Generated by graphviz version 2.43.0 (0)
 -->
<!-- Title: inst/include/fish.h Pages: 1 -->
<svg width="748pt" height="140pt"
 viewBox="0.00 0.00 748.00 140.00" xmlns="http://www.w3.org/2000/svg" xmlns:xlink="http://www.w3.org/1999/xlink">
<g id="graph0" class="graph" transform="scale(1 1) rotate(0) translate(4 136)">
<title>inst/include/fish.h</title>
<!-- Node1 -->
<g id="node1" class="node">
<title>Node1</title>
<g id="a_node1"><a xlink:title=" ">
<polygon fill="#bfbfbf" stroke="black" points="247,-112.5 247,-131.5 350,-131.5 350,-112.5 247,-112.5"/>
<text text-anchor="middle" x="298.5" y="-119.5" font-family="Helvetica,sans-Serif" font-size="10.00">inst/include/fish.h</text>
</a>
</g>
</g>
<!-- Node2 -->
<g id="node2" class="node">
<title>Node2</title>
<g id="a_node2"><a xlink:title=" ">
<polygon fill="none" stroke="#bfbfbf" points="226,-0.5 226,-19.5 273,-19.5 273,-0.5 226,-0.5"/>
<text text-anchor="middle" x="249.5" y="-7.5" font-family="Helvetica,sans-Serif" font-size="10.00">vector</text>
</a>
</g>
</g>
<!-- Node1&#45;&gt;Node2 -->
<g id="edge1" class="edge">
<title>Node1&#45;&gt;Node2</title>
<path fill="none" stroke="midnightblue" d="M294.66,-112.37C286.68,-94.46 268.17,-52.92 257.5,-28.95"/>
<polygon fill="midnightblue" stroke="midnightblue" points="260.59,-27.3 253.33,-19.59 254.2,-30.15 260.59,-27.3"/>
</g>
<!-- Node3 -->
<g id="node3" class="node">
<title>Node3</title>
<g id="a_node3"><a xlink:title=" ">
<polygon fill="none" stroke="#bfbfbf" points="424.5,-56.5 424.5,-75.5 462.5,-75.5 462.5,-56.5 424.5,-56.5"/>
<text text-anchor="middle" x="443.5" y="-63.5" font-family="Helvetica,sans-Serif" font-size="10.00">map</text>
</a>
</g>
</g>
<!-- Node1&#45;&gt;Node3 -->
<g id="edge2" class="edge">
<title>Node1&#45;&gt;Node3</title>
<path fill="none" stroke="midnightblue" d="M321.48,-112.44C346.79,-103.01 387.55,-87.84 414.91,-77.65"/>
<polygon fill="midnightblue" stroke="midnightblue" points="416.19,-80.91 424.34,-74.14 413.74,-74.35 416.19,-80.91"/>
</g>
<!-- Node4 -->
<g id="node4" class="node">
<title>Node4</title>
<g id="a_node4"><a xlink:href="functions_8h.html" target="_top" xlink:title=" ">
<polygon fill="none" stroke="black" points="102,-56.5 102,-75.5 173,-75.5 173,-56.5 102,-56.5"/>
<text text-anchor="middle" x="137.5" y="-63.5" font-family="Helvetica,sans-Serif" font-size="10.00">functions.h</text>
</a>
</g>
</g>
<!-- Node1&#45;&gt;Node4 -->
<g id="edge3" class="edge">
<title>Node1&#45;&gt;Node4</title>
<path fill="none" stroke="midnightblue" d="M272.99,-112.44C245.9,-103.36 202.91,-88.94 172.63,-78.78"/>
<polygon fill="midnightblue" stroke="midnightblue" points="173.49,-75.38 162.89,-75.52 171.26,-82.01 173.49,-75.38"/>
</g>
<!-- Node8 -->
<g id="node8" class="node">
<title>Node8</title>
<g id="a_node8"><a xlink:href="initializer__v2_8h.html" target="_top" xlink:title=" ">
<polygon fill="none" stroke="black" points="317,-56.5 317,-75.5 406,-75.5 406,-56.5 317,-56.5"/>
<text text-anchor="middle" x="361.5" y="-63.5" font-family="Helvetica,sans-Serif" font-size="10.00">initializer_v2.h</text>
</a>
</g>
</g>
<!-- Node1&#45;&gt;Node8 -->
<g id="edge7" class="edge">
<title>Node1&#45;&gt;Node8</title>
<path fill="none" stroke="midnightblue" d="M308.62,-112.32C318.03,-104.26 332.24,-92.08 343.57,-82.37"/>
<polygon fill="midnightblue" stroke="midnightblue" points="345.88,-85 351.19,-75.83 341.32,-79.68 345.88,-85"/>
</g>
<!-- Node5 -->
<g id="node5" class="node">
<title>Node5</title>
<g id="a_node5"><a xlink:title=" ">
<polygon fill="none" stroke="#bfbfbf" points="0,-0.5 0,-19.5 47,-19.5 47,-0.5 0,-0.5"/>
<text text-anchor="middle" x="23.5" y="-7.5" font-family="Helvetica,sans-Serif" font-size="10.00">cmath</text>
</a>
</g>
</g>
<!-- Node4&#45;&gt;Node5 -->
<g id="edge4" class="edge">
<title>Node4&#45;&gt;Node5</title>
<path fill="none" stroke="midnightblue" d="M119.44,-56.44C100.93,-47.68 71.92,-33.94 50.64,-23.86"/>
<polygon fill="midnightblue" stroke="midnightblue" points="52.01,-20.63 41.48,-19.52 49.02,-26.96 52.01,-20.63"/>
</g>
<!-- Node6 -->
<g id="node6" class="node">
<title>Node6</title>
<g id="a_node6"><a xlink:title=" ">
<polygon fill="none" stroke="#bfbfbf" points="65.5,-0.5 65.5,-19.5 129.5,-19.5 129.5,-0.5 65.5,-0.5"/>
<text text-anchor="middle" x="97.5" y="-7.5" font-family="Helvetica,sans-Serif" font-size="10.00">algorithm</text>
</a>
</g>
</g>
<!-- Node4&#45;&gt;Node6 -->
<g id="edge5" class="edge">
<title>Node4&#45;&gt;Node6</title>
<path fill="none" stroke="midnightblue" d="M130.89,-56.08C125.24,-48.46 116.96,-37.26 110.05,-27.94"/>
<polygon fill="midnightblue" stroke="midnightblue" points="112.75,-25.7 103.98,-19.75 107.12,-29.87 112.75,-25.7"/>
</g>
<!-- Node7 -->
<g id="node7" class="node">
<title>Node7</title>
<g id="a_node7"><a xlink:title=" ">
<polygon fill="none" stroke="#bfbfbf" points="147.5,-0.5 147.5,-19.5 207.5,-19.5 207.5,-0.5 147.5,-0.5"/>
<text text-anchor="middle" x="177.5" y="-7.5" font-family="Helvetica,sans-Serif" font-size="10.00">iostream</text>
</a>
</g>
</g>
<!-- Node4&#45;&gt;Node7 -->
<g id="edge6" class="edge">
<title>Node4&#45;&gt;Node7</title>
<path fill="none" stroke="midnightblue" d="M144.11,-56.08C149.76,-48.46 158.04,-37.26 164.95,-27.94"/>
<polygon fill="midnightblue" stroke="midnightblue" points="167.88,-29.87 171.02,-19.75 162.25,-25.7 167.88,-29.87"/>
</g>
<!-- Node8&#45;&gt;Node2 -->
<g id="edge12" class="edge">
<title>Node8&#45;&gt;Node2</title>
<path fill="none" stroke="midnightblue" d="M343.51,-56.32C325.46,-47.62 297.45,-34.12 276.7,-24.11"/>
<polygon fill="midnightblue" stroke="midnightblue" points="277.98,-20.84 267.45,-19.65 274.94,-27.15 277.98,-20.84"/>
</g>
<!-- Node8&#45;&gt;Node7 -->
<g id="edge8" class="edge">
<title>Node8&#45;&gt;Node7</title>
<path fill="none" stroke="midnightblue" d="M332.34,-56.44C300.99,-47.24 250.97,-32.56 216.3,-22.39"/>
<polygon fill="midnightblue" stroke="midnightblue" points="217.1,-18.97 206.52,-19.52 215.13,-25.69 217.1,-18.97"/>
</g>
<!-- Node9 -->
<g id="node9" class="node">
<title>Node9</title>
<g id="a_node9"><a xlink:title=" ">
<polygon fill="none" stroke="#bfbfbf" points="291.5,-0.5 291.5,-19.5 335.5,-19.5 335.5,-0.5 291.5,-0.5"/>
<text text-anchor="middle" x="313.5" y="-7.5" font-family="Helvetica,sans-Serif" font-size="10.00">regex</text>
</a>
</g>
</g>
<!-- Node8&#45;&gt;Node9 -->
<g id="edge9" class="edge">
<title>Node8&#45;&gt;Node9</title>
<path fill="none" stroke="midnightblue" d="M353.57,-56.08C346.65,-48.3 336.43,-36.8 328.05,-27.37"/>
<polygon fill="midnightblue" stroke="midnightblue" points="330.54,-24.9 321.28,-19.75 325.31,-29.55 330.54,-24.9"/>
</g>
<!-- Node10 -->
<g id="node10" class="node">
<title>Node10</title>
<g id="a_node10"><a xlink:title=" ">
<polygon fill="none" stroke="#bfbfbf" points="353.5,-0.5 353.5,-19.5 397.5,-19.5 397.5,-0.5 353.5,-0.5"/>
<text text-anchor="middle" x="375.5" y="-7.5" font-family="Helvetica,sans-Serif" font-size="10.00">string</text>
</a>
</g>
</g>
<!-- Node8&#45;&gt;Node10 -->
<g id="edge10" class="edge">
<title>Node8&#45;&gt;Node10</title>
<path fill="none" stroke="midnightblue" d="M363.81,-56.08C365.67,-48.93 368.34,-38.64 370.65,-29.69"/>
<polygon fill="midnightblue" stroke="midnightblue" points="374.11,-30.31 373.23,-19.75 367.33,-28.55 374.11,-30.31"/>
</g>
<!-- Node11 -->
<g id="node11" class="node">
<title>Node11</title>
<g id="a_node11"><a xlink:title=" ">
<polygon fill="none" stroke="#bfbfbf" points="416,-0.5 416,-19.5 471,-19.5 471,-0.5 416,-0.5"/>
<text text-anchor="middle" x="443.5" y="-7.5" font-family="Helvetica,sans-Serif" font-size="10.00">fstream</text>
</a>
</g>
</g>
<!-- Node8&#45;&gt;Node11 -->
<g id="edge11" class="edge">
<title>Node8&#45;&gt;Node11</title>
<path fill="none" stroke="midnightblue" d="M374.67,-56.32C387.35,-47.98 406.73,-35.21 421.71,-25.35"/>
<polygon fill="midnightblue" stroke="midnightblue" points="423.93,-28.08 430.36,-19.65 420.08,-22.23 423.93,-28.08"/>
</g>
<!-- Node12 -->
<g id="node12" class="node">
<title>Node12</title>
<g id="a_node12"><a xlink:title=" ">
<polygon fill="none" stroke="#bfbfbf" points="489.5,-0.5 489.5,-19.5 545.5,-19.5 545.5,-0.5 489.5,-0.5"/>
<text text-anchor="middle" x="517.5" y="-7.5" font-family="Helvetica,sans-Serif" font-size="10.00">sstream</text>
</a>
</g>
</g>
<!-- Node8&#45;&gt;Node12 -->
<g id="edge13" class="edge">
<title>Node8&#45;&gt;Node12</title>
<path fill="none" stroke="midnightblue" d="M386.22,-56.44C412.35,-47.4 453.76,-33.06 483.08,-22.92"/>
<polygon fill="midnightblue" stroke="midnightblue" points="484.59,-26.1 492.9,-19.52 482.3,-19.48 484.59,-26.1"/>
</g>
<!-- Node13 -->
<g id="node13" class="node">
<title>Node13</title>
<g id="a_node13"><a xlink:title=" ">
<polygon fill="none" stroke="#bfbfbf" points="564,-0.5 564,-19.5 629,-19.5 629,-0.5 564,-0.5"/>
<text text-anchor="middle" x="596.5" y="-7.5" font-family="Helvetica,sans-Serif" font-size="10.00">stdexcept</text>
</a>
</g>
</g>
<!-- Node8&#45;&gt;Node13 -->
<g id="edge14" class="edge">
<title>Node8&#45;&gt;Node13</title>
<path fill="none" stroke="midnightblue" d="M398.74,-56.44C441,-46.73 509.8,-30.92 554.1,-20.74"/>
<polygon fill="midnightblue" stroke="midnightblue" points="555.02,-24.12 563.98,-18.47 553.45,-17.3 555.02,-24.12"/>
</g>
<!-- Node14 -->
<g id="node14" class="node">
<title>Node14</title>
<g id="a_node14"><a xlink:title=" ">
<polygon fill="none" stroke="#bfbfbf" points="647,-0.5 647,-19.5 740,-19.5 740,-0.5 647,-0.5"/>
<text text-anchor="middle" x="693.5" y="-7.5" font-family="Helvetica,sans-Serif" font-size="10.00">unordered_map</text>
</a>
</g>
</g>
<!-- Node8&#45;&gt;Node14 -->
<g id="edge15" class="edge">
<title>Node8&#45;&gt;Node14</title>
<path fill="none" stroke="midnightblue" d="M406.29,-57.52C409.4,-57 412.5,-56.49 415.5,-56 511.38,-40.27 537.73,-36.35 636.84,-20.27"/>
<polygon fill="midnightblue" stroke="midnightblue" points="637.68,-23.68 646.99,-18.62 636.56,-16.77 637.68,-23.68"/>
</g>
</g>
</svg>
