<?xml version="1.0" encoding="UTF-8" standalone="no"?>
<!DOCTYPE svg PUBLIC "-//W3C//DTD SVG 1.1//EN"
 "http://www.w3.org/Graphics/SVG/1.1/DTD/svg11.dtd">
<!-- Generated by graphviz version 2.43.0 (0)
 -->
<!-- Title: RCPP_MODULE Pages: 1 -->
<svg width="758pt" height="955pt"
 viewBox="0.00 0.00 758.00 954.75" xmlns="http://www.w3.org/2000/svg" xmlns:xlink="http://www.w3.org/1999/xlink">
<g id="graph0" class="graph" transform="scale(1 1) rotate(0) translate(4 950.75)">
<title>RCPP_MODULE</title>
<!-- Node1 -->
<g id="node1" class="node">
<title>Node1</title>
<g id="a_node1"><a xlink:title=" ">
<polygon fill="#bfbfbf" stroke="black" points="0,-456.5 0,-475.5 90,-475.5 90,-456.5 0,-456.5"/>
<text text-anchor="middle" x="45" y="-463.5" font-family="Helvetica,sans-Serif" font-size="10.00">RCPP_MODULE</text>
</a>
</g>
</g>
<!-- Node2 -->
<g id="node2" class="node">
<title>Node2</title>
<g id="a_node2"><a xlink:href="namespacefish.html#a55881de836369d1af447b740b433e50e" target="_top" xlink:title="Calculate the number of eggs produced per year by a fish of given weight,.">
<polygon fill="none" stroke="black" points="344,-646.5 344,-665.5 430,-665.5 430,-646.5 344,-646.5"/>
<text text-anchor="middle" x="387" y="-653.5" font-family="Helvetica,sans-Serif" font-size="10.00">fish::fecundity</text>
</a>
</g>
</g>
<!-- Node1&#45;&gt;Node2 -->
<g id="edge1" class="edge">
<title>Node1&#45;&gt;Node2</title>
<path fill="none" stroke="midnightblue" d="M47.34,-475.6C51.99,-504.86 70.29,-593.32 126,-632 187.35,-674.59 277.41,-672.3 333.83,-665.26"/>
<polygon fill="midnightblue" stroke="midnightblue" points="334.51,-668.7 343.95,-663.9 333.58,-661.76 334.51,-668.7"/>
</g>
<!-- Node3 -->
<g id="node3" class="node">
<title>Node3</title>
<g id="a_node3"><a xlink:href="namespacefish.html#a7f532daff6b69774cc75d40ed18aad31" target="_top" xlink:title="Calculate effective GSI, given the initial and final body lengths.">
<polygon fill="none" stroke="black" points="529.5,-627.5 529.5,-646.5 584.5,-646.5 584.5,-627.5 529.5,-627.5"/>
<text text-anchor="middle" x="557" y="-634.5" font-family="Helvetica,sans-Serif" font-size="10.00">fish::gsi</text>
</a>
</g>
</g>
<!-- Node1&#45;&gt;Node3 -->
<g id="edge12" class="edge">
<title>Node1&#45;&gt;Node3</title>
<path fill="none" stroke="midnightblue" d="M49.09,-475.79C57.23,-499.81 81.77,-561.72 126,-589 191.5,-629.4 427.59,-635.88 519.25,-636.85"/>
<polygon fill="midnightblue" stroke="midnightblue" points="519.41,-640.36 529.44,-636.95 519.48,-633.36 519.41,-640.36"/>
</g>
<!-- Node4 -->
<g id="node4" class="node">
<title>Node4</title>
<g id="a_node4"><a xlink:href="namespacefish.html#a2bbec07a0ac11c50ef8d89ed5017b4cf" target="_top" xlink:title="Calculate fishing selectivity.">
<polygon fill="none" stroke="black" points="135.5,-836.5 135.5,-855.5 265.5,-855.5 265.5,-836.5 135.5,-836.5"/>
<text text-anchor="middle" x="200.5" y="-843.5" font-family="Helvetica,sans-Serif" font-size="10.00">fish::fishing_selectivity</text>
</a>
</g>
</g>
<!-- Node1&#45;&gt;Node4 -->
<g id="edge3" class="edge">
<title>Node1&#45;&gt;Node4</title>
<path fill="none" stroke="midnightblue" d="M46.81,-475.78C51.32,-528.06 75.05,-774.24 126,-827 127.26,-828.3 128.59,-829.52 130,-830.66"/>
<polygon fill="midnightblue" stroke="midnightblue" points="128.37,-833.78 138.64,-836.35 132.21,-827.93 128.37,-833.78"/>
</g>
<!-- Node5 -->
<g id="node5" class="node">
<title>Node5</title>
<g id="a_node5"><a xlink:href="classFish.html#aa5c5cb34e7f19c6a4ca93858adf3e16a" target="_top" xlink:title="Get the state of the fish.">
<polygon fill="none" stroke="black" points="157,-798.5 157,-817.5 244,-817.5 244,-798.5 157,-798.5"/>
<text text-anchor="middle" x="200.5" y="-805.5" font-family="Helvetica,sans-Serif" font-size="10.00">Fish::get_state</text>
</a>
</g>
</g>
<!-- Node1&#45;&gt;Node5 -->
<g id="edge4" class="edge">
<title>Node1&#45;&gt;Node5</title>
<path fill="none" stroke="midnightblue" d="M47.07,-475.7C52.65,-524.48 79.87,-742.4 126,-789 131.8,-794.86 139.16,-798.99 146.96,-801.89"/>
<polygon fill="midnightblue" stroke="midnightblue" points="146.04,-805.27 156.63,-804.84 148.09,-798.57 146.04,-805.27"/>
</g>
<!-- Node6 -->
<g id="node6" class="node">
<title>Node6</title>
<g id="a_node6"><a xlink:href="classFish.html#abe4b5c9e5d1f6d3c56cc6be997db71cd" target="_top" xlink:title="Implement growth, i.e., set new length and effective GSI after 1 year of growth.">
<polygon fill="none" stroke="black" points="168,-760.5 168,-779.5 233,-779.5 233,-760.5 168,-760.5"/>
<text text-anchor="middle" x="200.5" y="-767.5" font-family="Helvetica,sans-Serif" font-size="10.00">Fish::grow</text>
</a>
</g>
</g>
<!-- Node1&#45;&gt;Node6 -->
<g id="edge5" class="edge">
<title>Node1&#45;&gt;Node6</title>
<path fill="none" stroke="midnightblue" d="M45.73,-475.76C45.18,-515.33 48.48,-665.54 126,-746 134.51,-754.84 146.32,-760.42 157.98,-763.95"/>
<polygon fill="midnightblue" stroke="midnightblue" points="157.1,-767.34 167.66,-766.46 158.86,-760.57 157.1,-767.34"/>
</g>
<!-- Node8 -->
<g id="node8" class="node">
<title>Node8</title>
<g id="a_node8"><a xlink:href="namespacefish.html#adc414165e9acd76993cbaaf5140c5f22" target="_top" xlink:title="Compute the new length after growth for adults, assuming allocation to reproduction.">
<polygon fill="none" stroke="black" points="336.5,-722.5 336.5,-741.5 437.5,-741.5 437.5,-722.5 336.5,-722.5"/>
<text text-anchor="middle" x="387" y="-729.5" font-family="Helvetica,sans-Serif" font-size="10.00">fish::length_adult</text>
</a>
</g>
</g>
<!-- Node1&#45;&gt;Node8 -->
<g id="edge22" class="edge">
<title>Node1&#45;&gt;Node8</title>
<path fill="none" stroke="midnightblue" d="M45.67,-475.65C44.98,-513.37 47.98,-651.79 126,-713 156.02,-736.55 259.26,-737.32 326.27,-735.1"/>
<polygon fill="midnightblue" stroke="midnightblue" points="326.42,-738.6 336.29,-734.74 326.17,-731.61 326.42,-738.6"/>
</g>
<!-- Node9 -->
<g id="node9" class="node">
<title>Node9</title>
<g id="a_node9"><a xlink:href="namespacefish.html#a1d06e0358aca1be4446ed148b7ce3d84" target="_top" xlink:title="Compute the new length after growth assuming no allocation to reproduction.">
<polygon fill="none" stroke="black" points="499,-836.5 499,-855.5 615,-855.5 615,-836.5 499,-836.5"/>
<text text-anchor="middle" x="557" y="-843.5" font-family="Helvetica,sans-Serif" font-size="10.00">fish::length_juvenile</text>
</a>
</g>
</g>
<!-- Node1&#45;&gt;Node9 -->
<g id="edge23" class="edge">
<title>Node1&#45;&gt;Node9</title>
<path fill="none" stroke="midnightblue" d="M46.17,-475.67C47.45,-534.7 57.42,-845.84 126,-903 247.51,-1004.29 459.15,-900.97 531.18,-860.63"/>
<polygon fill="midnightblue" stroke="midnightblue" points="533.05,-863.59 540.01,-855.6 529.59,-857.5 533.05,-863.59"/>
</g>
<!-- Node10 -->
<g id="node10" class="node">
<title>Node10</title>
<g id="a_node10"><a xlink:href="classFish.html#adf85bf269f1651352506e371ffd2cecc" target="_top" xlink:title="Initializes the fish, i.e., initializes parameters and sets the initial state (age = 1,...">
<polygon fill="none" stroke="black" points="172,-874.5 172,-893.5 229,-893.5 229,-874.5 172,-874.5"/>
<text text-anchor="middle" x="200.5" y="-881.5" font-family="Helvetica,sans-Serif" font-size="10.00">Fish::init</text>
</a>
</g>
</g>
<!-- Node1&#45;&gt;Node10 -->
<g id="edge13" class="edge">
<title>Node1&#45;&gt;Node10</title>
<path fill="none" stroke="midnightblue" d="M46.58,-475.68C50.08,-530.94 70.15,-805.99 126,-865 135.22,-874.74 148.73,-879.74 161.66,-882.23"/>
<polygon fill="midnightblue" stroke="midnightblue" points="161.41,-885.73 171.81,-883.73 162.43,-878.81 161.41,-885.73"/>
</g>
<!-- Node11 -->
<g id="node11" class="node">
<title>Node11</title>
<g id="a_node11"><a xlink:href="classFishParams.html#a6a7122ea93777817165dfb09c1d840ac" target="_top" xlink:title=" ">
<polygon fill="none" stroke="black" points="133,-494.5 133,-513.5 268,-513.5 268,-494.5 133,-494.5"/>
<text text-anchor="middle" x="200.5" y="-501.5" font-family="Helvetica,sans-Serif" font-size="10.00">FishParams::initFromFile</text>
</a>
</g>
</g>
<!-- Node1&#45;&gt;Node11 -->
<g id="edge16" class="edge">
<title>Node1&#45;&gt;Node11</title>
<path fill="none" stroke="midnightblue" d="M84.73,-475.59C104.9,-480.58 129.75,-486.73 151.16,-492.03"/>
<polygon fill="midnightblue" stroke="midnightblue" points="150.5,-495.47 161.04,-494.48 152.18,-488.68 150.5,-495.47"/>
</g>
<!-- Node16 -->
<g id="node16" class="node">
<title>Node16</title>
<g id="a_node16"><a xlink:href="namespacefish.html#a214a54b82cb48878c083a73958c45847" target="_top" xlink:title="Calculate the maturation probability given age &#160;and body length ,.">
<polygon fill="none" stroke="black" points="311,-399.5 311,-418.5 463,-418.5 463,-399.5 311,-399.5"/>
<text text-anchor="middle" x="387" y="-406.5" font-family="Helvetica,sans-Serif" font-size="10.00">fish::maturation_probability</text>
</a>
</g>
</g>
<!-- Node1&#45;&gt;Node16 -->
<g id="edge24" class="edge">
<title>Node1&#45;&gt;Node16</title>
<path fill="none" stroke="midnightblue" d="M55.24,-456.38C69.09,-442.73 96.76,-418.35 126,-409 189.92,-388.56 267.28,-391.86 320.92,-398.22"/>
<polygon fill="midnightblue" stroke="midnightblue" points="320.63,-401.71 330.99,-399.48 321.5,-394.77 320.63,-401.71"/>
</g>
<!-- Node17 -->
<g id="node17" class="node">
<title>Node17</title>
<g id="a_node17"><a xlink:href="namespacefish.html#a79ee7b63f43f9e9bda95cc04deb3a082" target="_top" xlink:title="Calculate the steepness of the probabilistic maturation reaction norm (PMRN)">
<polygon fill="none" stroke="black" points="126,-532.5 126,-551.5 275,-551.5 275,-532.5 126,-532.5"/>
<text text-anchor="middle" x="200.5" y="-539.5" font-family="Helvetica,sans-Serif" font-size="10.00">fish::maturation_steepness</text>
</a>
</g>
</g>
<!-- Node1&#45;&gt;Node17 -->
<g id="edge25" class="edge">
<title>Node1&#45;&gt;Node17</title>
<path fill="none" stroke="midnightblue" d="M56.58,-475.51C71.18,-488.14 98.79,-510.32 126,-523 131.08,-525.37 136.49,-527.47 142,-529.33"/>
<polygon fill="midnightblue" stroke="midnightblue" points="141.36,-532.8 151.95,-532.43 143.44,-526.12 141.36,-532.8"/>
</g>
<!-- Node18 -->
<g id="node18" class="node">
<title>Node18</title>
<g id="a_node18"><a xlink:href="classFish.html#ac7121f25ba24b82a7faabd07702d7e73" target="_top" xlink:title="Calculate the probability of maturation.">
<polygon fill="none" stroke="black" points="142,-456.5 142,-475.5 259,-475.5 259,-456.5 142,-456.5"/>
<text text-anchor="middle" x="200.5" y="-463.5" font-family="Helvetica,sans-Serif" font-size="10.00">Fish::maturationProb</text>
</a>
</g>
</g>
<!-- Node1&#45;&gt;Node18 -->
<g id="edge26" class="edge">
<title>Node1&#45;&gt;Node18</title>
<path fill="none" stroke="midnightblue" d="M90.4,-466C103.29,-466 117.68,-466 131.67,-466"/>
<polygon fill="midnightblue" stroke="midnightblue" points="131.76,-469.5 141.76,-466 131.76,-462.5 131.76,-469.5"/>
</g>
<!-- Node19 -->
<g id="node19" class="node">
<title>Node19</title>
<g id="a_node19"><a xlink:href="namespacefish.html#a6473cb22340439ec0b60b709880e967f" target="_top" xlink:title="Calculate the instantaneous natural mortality.">
<polygon fill="none" stroke="black" points="324.5,-171.5 324.5,-190.5 449.5,-190.5 449.5,-171.5 324.5,-171.5"/>
<text text-anchor="middle" x="387" y="-178.5" font-family="Helvetica,sans-Serif" font-size="10.00">fish::natural_mortality</text>
</a>
</g>
</g>
<!-- Node1&#45;&gt;Node19 -->
<g id="edge28" class="edge">
<title>Node1&#45;&gt;Node19</title>
<path fill="none" stroke="midnightblue" d="M47.17,-456.32C52.92,-410.48 79.82,-216 126,-181 191.36,-131.46 294.91,-152.24 349.52,-168.48"/>
<polygon fill="midnightblue" stroke="midnightblue" points="348.54,-171.84 359.13,-171.44 350.6,-165.15 348.54,-171.84"/>
</g>
<!-- Node20 -->
<g id="node20" class="node">
<title>Node20</title>
<g id="a_node20"><a xlink:href="classFish.html#ad814087dbccdd9e4268a6c87db801536" target="_top" xlink:title="Calculate the instantaneous matural mortality rate.">
<polygon fill="none" stroke="black" points="129,-418.5 129,-437.5 272,-437.5 272,-418.5 129,-418.5"/>
<text text-anchor="middle" x="200.5" y="-425.5" font-family="Helvetica,sans-Serif" font-size="10.00">Fish::naturalMortalityRate</text>
</a>
</g>
</g>
<!-- Node1&#45;&gt;Node20 -->
<g id="edge29" class="edge">
<title>Node1&#45;&gt;Node20</title>
<path fill="none" stroke="midnightblue" d="M84.73,-456.41C104.9,-451.42 129.75,-445.27 151.16,-439.97"/>
<polygon fill="midnightblue" stroke="midnightblue" points="152.18,-443.32 161.04,-437.52 150.5,-436.53 152.18,-443.32"/>
</g>
<!-- Node21 -->
<g id="node21" class="node">
<title>Node21</title>
<g id="a_node21"><a xlink:href="classFishParams.html#aa0812994bb72e90dfa8c4fadc3039f57" target="_top" xlink:title=" ">
<polygon fill="none" stroke="black" points="336.5,-570.5 336.5,-589.5 437.5,-589.5 437.5,-570.5 336.5,-570.5"/>
<text text-anchor="middle" x="387" y="-577.5" font-family="Helvetica,sans-Serif" font-size="10.00">FishParams::print</text>
</a>
</g>
</g>
<!-- Node1&#45;&gt;Node21 -->
<g id="edge30" class="edge">
<title>Node1&#45;&gt;Node21</title>
<path fill="none" stroke="midnightblue" d="M50.76,-475.74C61.19,-495.84 88.17,-541.69 126,-561 188.62,-592.96 270.97,-593.13 326.05,-588.32"/>
<polygon fill="midnightblue" stroke="midnightblue" points="326.39,-591.81 336.01,-587.37 325.72,-584.84 326.39,-591.81"/>
</g>
<!-- Node22 -->
<g id="node22" class="node">
<title>Node22</title>
<g id="a_node22"><a xlink:href="classFish.html#a7734c4cfe4ae06e89474e86dae63235e" target="_top" xlink:title=" ">
<polygon fill="none" stroke="black" points="168.5,-342.5 168.5,-361.5 232.5,-361.5 232.5,-342.5 168.5,-342.5"/>
<text text-anchor="middle" x="200.5" y="-349.5" font-family="Helvetica,sans-Serif" font-size="10.00">Fish::print</text>
</a>
</g>
</g>
<!-- Node1&#45;&gt;Node22 -->
<g id="edge32" class="edge">
<title>Node1&#45;&gt;Node22</title>
<path fill="none" stroke="midnightblue" d="M52.02,-456.35C63.92,-438.03 92.25,-398.11 126,-376 135.71,-369.64 147.26,-364.83 158.28,-361.26"/>
<polygon fill="midnightblue" stroke="midnightblue" points="159.61,-364.52 168.2,-358.32 157.61,-357.81 159.61,-364.52"/>
</g>
<!-- Node23 -->
<g id="node23" class="node">
<title>Node23</title>
<g id="a_node23"><a xlink:href="classFish.html#aa60ee2a3e2c8e6dc37daac44262b586e" target="_top" xlink:title=" ">
<polygon fill="none" stroke="black" points="149,-304.5 149,-323.5 252,-323.5 252,-304.5 149,-304.5"/>
<text text-anchor="middle" x="200.5" y="-311.5" font-family="Helvetica,sans-Serif" font-size="10.00">Fish::print_header</text>
</a>
</g>
</g>
<!-- Node1&#45;&gt;Node23 -->
<g id="edge33" class="edge">
<title>Node1&#45;&gt;Node23</title>
<path fill="none" stroke="midnightblue" d="M48.99,-456.2C57.06,-431.45 81.73,-366.04 126,-333 130.12,-329.93 134.69,-327.35 139.48,-325.18"/>
<polygon fill="midnightblue" stroke="midnightblue" points="140.84,-328.41 148.89,-321.52 138.3,-321.89 140.84,-328.41"/>
</g>
<!-- Node24 -->
<g id="node24" class="node">
<title>Node24</title>
<g id="a_node24"><a xlink:href="classFish.html#a530deb5c81c40050e692af241fb5610b" target="_top" xlink:title=" ">
<polygon fill="none" stroke="black" points="157,-266.5 157,-285.5 244,-285.5 244,-266.5 157,-266.5"/>
<text text-anchor="middle" x="200.5" y="-273.5" font-family="Helvetica,sans-Serif" font-size="10.00">Fish::print_line</text>
</a>
</g>
</g>
<!-- Node1&#45;&gt;Node24 -->
<g id="edge34" class="edge">
<title>Node1&#45;&gt;Node24</title>
<path fill="none" stroke="midnightblue" d="M47.62,-456.1C52.95,-426.7 72.8,-339.19 126,-295 132.13,-289.91 139.47,-286.16 147.1,-283.41"/>
<polygon fill="midnightblue" stroke="midnightblue" points="148.31,-286.7 156.85,-280.43 146.26,-280 148.31,-286.7"/>
</g>
<!-- Node25 -->
<g id="node25" class="node">
<title>Node25</title>
<g id="a_node25"><a xlink:href="classFish.html#a9550ba7371eef86c50349864bcf05b4a" target="_top" xlink:title="Calculate the number of surviving recruits produced based on egg production and offspring survival un...">
<polygon fill="none" stroke="black" points="140.5,-684.5 140.5,-703.5 260.5,-703.5 260.5,-684.5 140.5,-684.5"/>
<text text-anchor="middle" x="200.5" y="-691.5" font-family="Helvetica,sans-Serif" font-size="10.00">Fish::produceRecruits</text>
</a>
</g>
</g>
<!-- Node1&#45;&gt;Node25 -->
<g id="edge35" class="edge">
<title>Node1&#45;&gt;Node25</title>
<path fill="none" stroke="midnightblue" d="M46.92,-475.7C50.52,-508.13 66.51,-613.87 126,-670 130.32,-674.07 135.33,-677.45 140.68,-680.26"/>
<polygon fill="midnightblue" stroke="midnightblue" points="139.37,-683.51 149.92,-684.47 142.27,-677.14 139.37,-683.51"/>
</g>
<!-- Node26 -->
<g id="node26" class="node">
<title>Node26</title>
<g id="a_node26"><a xlink:href="classFish.html#ab9b673887514b9d446232e0019c6034a" target="_top" xlink:title="Set fish age and other variables that scale directly with age.">
<polygon fill="none" stroke="black" points="160.5,-190.5 160.5,-209.5 240.5,-209.5 240.5,-190.5 160.5,-190.5"/>
<text text-anchor="middle" x="200.5" y="-197.5" font-family="Helvetica,sans-Serif" font-size="10.00">Fish::set_age</text>
</a>
</g>
</g>
<!-- Node1&#45;&gt;Node26 -->
<g id="edge37" class="edge">
<title>Node1&#45;&gt;Node26</title>
<path fill="none" stroke="midnightblue" d="M46.03,-456.25C46.68,-419.32 54.13,-286.67 126,-219 132.84,-212.56 141.56,-208.24 150.59,-205.35"/>
<polygon fill="midnightblue" stroke="midnightblue" points="151.66,-208.68 160.43,-202.74 149.87,-201.92 151.66,-208.68"/>
</g>
<!-- Node27 -->
<g id="node27" class="node">
<title>Node27</title>
<g id="a_node27"><a xlink:href="classFish.html#a0a1f9fe15dae9fc71e5abbc2a03de9aa" target="_top" xlink:title="Set fish length and other variables that scale directly with length.">
<polygon fill="none" stroke="black" points="154.5,-114.5 154.5,-133.5 246.5,-133.5 246.5,-114.5 154.5,-114.5"/>
<text text-anchor="middle" x="200.5" y="-121.5" font-family="Helvetica,sans-Serif" font-size="10.00">Fish::set_length</text>
</a>
</g>
</g>
<!-- Node1&#45;&gt;Node27 -->
<g id="edge38" class="edge">
<title>Node1&#45;&gt;Node27</title>
<path fill="none" stroke="midnightblue" d="M47.19,-456.18C53.24,-407.8 82.02,-195.14 126,-148 131.16,-142.47 137.62,-138.21 144.54,-134.93"/>
<polygon fill="midnightblue" stroke="midnightblue" points="146.23,-138.02 154.2,-131.04 143.62,-131.53 146.23,-138.02"/>
</g>
<!-- Node28 -->
<g id="node28" class="node">
<title>Node28</title>
<g id="a_node28"><a xlink:href="namespacefish.html#a8eda92863da99cec25dc0a2f09571998" target="_top" xlink:title="Compute weight of fish (grams) given length (cm),.">
<polygon fill="none" stroke="black" points="338.5,-95.5 338.5,-114.5 435.5,-114.5 435.5,-95.5 338.5,-95.5"/>
<text text-anchor="middle" x="387" y="-102.5" font-family="Helvetica,sans-Serif" font-size="10.00">fish::weight_fish</text>
</a>
</g>
</g>
<!-- Node1&#45;&gt;Node28 -->
<g id="edge44" class="edge">
<title>Node1&#45;&gt;Node28</title>
<path fill="none" stroke="midnightblue" d="M46.35,-456.45C48.6,-400.75 63.02,-118.61 126,-67 195.12,-10.37 310.68,-62.64 361.15,-90.32"/>
<polygon fill="midnightblue" stroke="midnightblue" points="359.63,-93.49 370.07,-95.33 363.06,-87.39 359.63,-93.49"/>
</g>
<!-- Node29 -->
<g id="node29" class="node">
<title>Node29</title>
<g id="a_node29"><a xlink:href="classFish.html#aaa3e67187a587efc7a99485b4a6ee248" target="_top" xlink:title=" ">
<polygon fill="none" stroke="black" points="157,-76.5 157,-95.5 244,-95.5 244,-76.5 157,-76.5"/>
<text text-anchor="middle" x="200.5" y="-83.5" font-family="Helvetica,sans-Serif" font-size="10.00">Fish::set_traits</text>
</a>
</g>
</g>
<!-- Node1&#45;&gt;Node29 -->
<g id="edge40" class="edge">
<title>Node1&#45;&gt;Node29</title>
<path fill="none" stroke="midnightblue" d="M46.81,-456.22C51.32,-403.94 75.05,-157.76 126,-105 131.79,-99 139.21,-94.81 147.1,-91.89"/>
<polygon fill="midnightblue" stroke="midnightblue" points="148.32,-95.18 156.88,-88.94 146.29,-88.48 148.32,-95.18"/>
</g>
<!-- Node30 -->
<g id="node30" class="node">
<title>Node30</title>
<g id="a_node30"><a xlink:href="namespacefish.html#a8145736f4c8af31563881d90bf61cbf0" target="_top" xlink:title="Calculate survival probability over a time interval dt (years)">
<polygon fill="none" stroke="black" points="132,-228.5 132,-247.5 269,-247.5 269,-228.5 132,-228.5"/>
<text text-anchor="middle" x="200.5" y="-235.5" font-family="Helvetica,sans-Serif" font-size="10.00">fish::survival_probability</text>
</a>
</g>
</g>
<!-- Node1&#45;&gt;Node30 -->
<g id="edge41" class="edge">
<title>Node1&#45;&gt;Node30</title>
<path fill="none" stroke="midnightblue" d="M46.67,-456.38C49.49,-423.26 63.41,-312.91 126,-257 127.76,-255.43 129.63,-253.99 131.59,-252.66"/>
<polygon fill="midnightblue" stroke="midnightblue" points="133.66,-255.51 140.67,-247.56 130.23,-249.41 133.66,-255.51"/>
</g>
<!-- Node31 -->
<g id="node31" class="node">
<title>Node31</title>
<g id="a_node31"><a xlink:href="classFish.html#ac6b4ad0b461d1e2bf97d13ed12a4984b" target="_top" xlink:title="Implement maturation is matureNow() returns true.">
<polygon fill="none" stroke="black" points="142.5,-0.5 142.5,-19.5 258.5,-19.5 258.5,-0.5 142.5,-0.5"/>
<text text-anchor="middle" x="200.5" y="-7.5" font-family="Helvetica,sans-Serif" font-size="10.00">Fish::updateMaturity</text>
</a>
</g>
</g>
<!-- Node1&#45;&gt;Node31 -->
<g id="edge43" class="edge">
<title>Node1&#45;&gt;Node31</title>
<path fill="none" stroke="midnightblue" d="M46.48,-456.34C49.53,-398.69 67.97,-100.28 126,-34 129.31,-30.22 133.22,-27.04 137.48,-24.35"/>
<polygon fill="midnightblue" stroke="midnightblue" points="139.45,-27.27 146.66,-19.51 136.18,-21.08 139.45,-27.27"/>
</g>
<!-- Node2&#45;&gt;Node3 -->
<g id="edge2" class="edge">
<title>Node2&#45;&gt;Node3</title>
<path fill="none" stroke="midnightblue" d="M430.39,-651.21C457.73,-648.11 492.94,-644.13 519.12,-641.17"/>
<polygon fill="midnightblue" stroke="midnightblue" points="519.84,-644.61 529.38,-640.01 519.05,-637.66 519.84,-644.61"/>
</g>
<!-- Node6&#45;&gt;Node3 -->
<g id="edge7" class="edge">
<title>Node6&#45;&gt;Node3</title>
<path fill="none" stroke="midnightblue" d="M233.03,-775.33C284.44,-782.43 388.09,-789.96 463,-751 503.79,-729.79 533.2,-682.04 547.06,-655.57"/>
<polygon fill="midnightblue" stroke="midnightblue" points="550.23,-657.06 551.61,-646.56 543.98,-653.91 550.23,-657.06"/>
</g>
<!-- Node7 -->
<g id="node7" class="node">
<title>Node7</title>
<g id="a_node7"><a xlink:href="namespacefish.html#a0ab1c4842d702a0a40bd04f26793ce12" target="_top" xlink:title="Compute the nonlinear growth increment , as follows.">
<polygon fill="none" stroke="black" points="344.5,-836.5 344.5,-855.5 429.5,-855.5 429.5,-836.5 344.5,-836.5"/>
<text text-anchor="middle" x="387" y="-843.5" font-family="Helvetica,sans-Serif" font-size="10.00">fish::dl_power</text>
</a>
</g>
</g>
<!-- Node6&#45;&gt;Node7 -->
<g id="edge6" class="edge">
<title>Node6&#45;&gt;Node7</title>
<path fill="none" stroke="midnightblue" d="M233.15,-774.66C246.62,-777.52 262.14,-782.02 275,-789 294.07,-799.36 292.23,-811.11 311,-822 318.65,-826.44 327.21,-830.16 335.75,-833.26"/>
<polygon fill="midnightblue" stroke="midnightblue" points="334.73,-836.61 345.33,-836.48 336.97,-829.97 334.73,-836.61"/>
</g>
<!-- Node6&#45;&gt;Node8 -->
<g id="edge8" class="edge">
<title>Node6&#45;&gt;Node8</title>
<path fill="none" stroke="midnightblue" d="M233.22,-763.47C259.71,-758.01 298.14,-750.1 329.82,-743.57"/>
<polygon fill="midnightblue" stroke="midnightblue" points="330.76,-746.95 339.85,-741.51 329.35,-740.09 330.76,-746.95"/>
</g>
<!-- Node6&#45;&gt;Node9 -->
<g id="edge11" class="edge">
<title>Node6&#45;&gt;Node9</title>
<path fill="none" stroke="midnightblue" d="M233.27,-776.81C293.81,-789.79 426.35,-818.2 501.38,-834.29"/>
<polygon fill="midnightblue" stroke="midnightblue" points="501.06,-837.8 511.57,-836.48 502.53,-830.96 501.06,-837.8"/>
</g>
<!-- Node8&#45;&gt;Node3 -->
<g id="edge9" class="edge">
<title>Node8&#45;&gt;Node3</title>
<path fill="none" stroke="midnightblue" d="M405.03,-722.37C434.47,-705.72 495.02,-671.48 529.83,-651.8"/>
<polygon fill="midnightblue" stroke="midnightblue" points="531.94,-654.63 538.92,-646.66 528.49,-648.53 531.94,-654.63"/>
</g>
<!-- Node8&#45;&gt;Node9 -->
<g id="edge10" class="edge">
<title>Node8&#45;&gt;Node9</title>
<path fill="none" stroke="midnightblue" d="M402.03,-741.52C430.99,-761.17 497.6,-806.37 532.97,-830.37"/>
<polygon fill="midnightblue" stroke="midnightblue" points="531.41,-833.54 541.65,-836.26 535.34,-827.75 531.41,-833.54"/>
</g>
<!-- Node10&#45;&gt;Node7 -->
<g id="edge14" class="edge">
<title>Node10&#45;&gt;Node7</title>
<path fill="none" stroke="midnightblue" d="M229.12,-878.31C256.94,-872.58 300.5,-863.61 334.67,-856.57"/>
<polygon fill="midnightblue" stroke="midnightblue" points="335.41,-859.99 344.49,-854.55 333.99,-853.14 335.41,-859.99"/>
</g>
<!-- Node10&#45;&gt;Node9 -->
<g id="edge15" class="edge">
<title>Node10&#45;&gt;Node9</title>
<path fill="none" stroke="midnightblue" d="M229.11,-883.16C276.94,-881.46 378.23,-876.69 463,-865 476.66,-863.12 491.32,-860.43 504.88,-857.68"/>
<polygon fill="midnightblue" stroke="midnightblue" points="505.92,-861.04 514.99,-855.57 504.49,-854.18 505.92,-861.04"/>
</g>
<!-- Node11&#45;&gt;Node3 -->
<g id="edge20" class="edge">
<title>Node11&#45;&gt;Node3</title>
<path fill="none" stroke="midnightblue" d="M251.1,-513.51C321.52,-527.22 444.09,-551.87 463,-561 493.61,-575.78 522.95,-602.56 540.22,-620.06"/>
<polygon fill="midnightblue" stroke="midnightblue" points="537.81,-622.6 547.27,-627.37 542.85,-617.74 537.81,-622.6"/>
</g>
<!-- Node12 -->
<g id="node12" class="node">
<title>Node12</title>
<g id="a_node12"><a xlink:href="classio_1_1Initializer.html#a098a8511a950a4449925c8315af36bdb" target="_top" xlink:title=" ">
<polygon fill="none" stroke="black" points="337.5,-456.5 337.5,-475.5 436.5,-475.5 436.5,-456.5 337.5,-456.5"/>
<text text-anchor="middle" x="387" y="-463.5" font-family="Helvetica,sans-Serif" font-size="10.00">io::Initializer::get</text>
</a>
</g>
</g>
<!-- Node11&#45;&gt;Node12 -->
<g id="edge17" class="edge">
<title>Node11&#45;&gt;Node12</title>
<path fill="none" stroke="midnightblue" d="M248.06,-494.41C272.84,-489.31 303.52,-482.99 329.64,-477.61"/>
<polygon fill="midnightblue" stroke="midnightblue" points="330.69,-480.97 339.78,-475.52 329.28,-474.11 330.69,-480.97"/>
</g>
<!-- Node15 -->
<g id="node15" class="node">
<title>Node15</title>
<g id="a_node15"><a xlink:href="classio_1_1Initializer.html#a6c174190ba99677aac35c5c7e92b69b8" target="_top" xlink:title=" ">
<polygon fill="none" stroke="black" points="332,-494.5 332,-513.5 442,-513.5 442,-494.5 332,-494.5"/>
<text text-anchor="middle" x="387" y="-501.5" font-family="Helvetica,sans-Serif" font-size="10.00">io::Initializer::parse</text>
</a>
</g>
</g>
<!-- Node11&#45;&gt;Node15 -->
<g id="edge21" class="edge">
<title>Node11&#45;&gt;Node15</title>
<path fill="none" stroke="midnightblue" d="M268.11,-504C285.62,-504 304.48,-504 321.86,-504"/>
<polygon fill="midnightblue" stroke="midnightblue" points="321.91,-507.5 331.91,-504 321.91,-500.5 321.91,-507.5"/>
</g>
<!-- Node13 -->
<g id="node13" class="node">
<title>Node13</title>
<g id="a_node13"><a xlink:href="classio_1_1Initializer.html#a06fe79d6d19f76180836e03e3ad6b7fb" target="_top" xlink:title=" ">
<polygon fill="none" stroke="black" points="507.5,-451 507.5,-481 606.5,-481 606.5,-451 507.5,-451"/>
<text text-anchor="start" x="515.5" y="-469" font-family="Helvetica,sans-Serif" font-size="10.00">io::Initializer::get</text>
<text text-anchor="middle" x="557" y="-458" font-family="Helvetica,sans-Serif" font-size="10.00">_value</text>
</a>
</g>
</g>
<!-- Node12&#45;&gt;Node13 -->
<g id="edge18" class="edge">
<title>Node12&#45;&gt;Node13</title>
<path fill="none" stroke="midnightblue" d="M436.59,-466C455.49,-466 477.31,-466 497.09,-466"/>
<polygon fill="midnightblue" stroke="midnightblue" points="497.23,-469.5 507.23,-466 497.23,-462.5 497.23,-469.5"/>
</g>
<!-- Node14 -->
<g id="node14" class="node">
<title>Node14</title>
<g id="a_node14"><a xlink:href="classio_1_1Initializer.html#a310526fc5b0c2c257bee66d6f48fa4ae" target="_top" xlink:title=" ">
<polygon fill="none" stroke="black" points="651,-451 651,-481 750,-481 750,-451 651,-451"/>
<text text-anchor="start" x="659" y="-469" font-family="Helvetica,sans-Serif" font-size="10.00">io::Initializer::get</text>
<text text-anchor="middle" x="700.5" y="-458" font-family="Helvetica,sans-Serif" font-size="10.00">_section</text>
</a>
</g>
</g>
<!-- Node13&#45;&gt;Node14 -->
<g id="edge19" class="edge">
<title>Node13&#45;&gt;Node14</title>
<path fill="none" stroke="midnightblue" d="M606.7,-466C617.59,-466 629.26,-466 640.52,-466"/>
<polygon fill="midnightblue" stroke="midnightblue" points="640.71,-469.5 650.71,-466 640.71,-462.5 640.71,-469.5"/>
</g>
<!-- Node18&#45;&gt;Node16 -->
<g id="edge27" class="edge">
<title>Node18&#45;&gt;Node16</title>
<path fill="none" stroke="midnightblue" d="M240.56,-456.5C251.73,-453.62 263.89,-450.33 275,-447 300.38,-439.39 328.62,-429.7 350.27,-422.01"/>
<polygon fill="midnightblue" stroke="midnightblue" points="351.48,-425.3 359.72,-418.64 349.13,-418.71 351.48,-425.3"/>
</g>
<!-- Node21&#45;&gt;Node3 -->
<g id="edge31" class="edge">
<title>Node21&#45;&gt;Node3</title>
<path fill="none" stroke="midnightblue" d="M418.72,-589.59C432.32,-593.9 448.49,-599.11 463,-604 481.86,-610.36 502.76,-617.75 519.96,-623.92"/>
<polygon fill="midnightblue" stroke="midnightblue" points="519.02,-627.3 529.62,-627.39 521.39,-620.71 519.02,-627.3"/>
</g>
<!-- Node25&#45;&gt;Node2 -->
<g id="edge36" class="edge">
<title>Node25&#45;&gt;Node2</title>
<path fill="none" stroke="midnightblue" d="M248.06,-684.41C274.18,-679.03 306.85,-672.3 333.84,-666.74"/>
<polygon fill="midnightblue" stroke="midnightblue" points="334.79,-670.12 343.87,-664.68 333.37,-663.27 334.79,-670.12"/>
</g>
<!-- Node27&#45;&gt;Node28 -->
<g id="edge39" class="edge">
<title>Node27&#45;&gt;Node28</title>
<path fill="none" stroke="midnightblue" d="M246.63,-119.35C271.21,-116.82 301.9,-113.66 328.21,-110.95"/>
<polygon fill="midnightblue" stroke="midnightblue" points="328.84,-114.4 338.43,-109.9 328.13,-107.44 328.84,-114.4"/>
</g>
<!-- Node30&#45;&gt;Node19 -->
<g id="edge42" class="edge">
<title>Node30&#45;&gt;Node19</title>
<path fill="none" stroke="midnightblue" d="M240.56,-228.5C251.73,-225.62 263.89,-222.33 275,-219 300.38,-211.39 328.62,-201.7 350.27,-194.01"/>
<polygon fill="midnightblue" stroke="midnightblue" points="351.48,-197.3 359.72,-190.64 349.13,-190.71 351.48,-197.3"/>
</g>
</g>
</svg>
