<?xml version="1.0" encoding="UTF-8" standalone="no"?>
<!DOCTYPE svg PUBLIC "-//W3C//DTD SVG 1.1//EN"
 "http://www.w3.org/Graphics/SVG/1.1/DTD/svg11.dtd">
<!-- Generated by graphviz version 2.43.0 (0)
 -->
<!-- Title: inst/include/functions.h Pages: 1 -->
<svg width="486pt" height="313pt"
 viewBox="0.00 0.00 485.50 313.00" xmlns="http://www.w3.org/2000/svg" xmlns:xlink="http://www.w3.org/1999/xlink">
<g id="graph0" class="graph" transform="scale(1 1) rotate(0) translate(4 309)">
<title>inst/include/functions.h</title>
<!-- Node1 -->
<g id="Node000001" class="node">
<title>Node1</title>
<g id="a_Node000001"><a xlink:title=" ">
<polygon fill="#999999" stroke="#666666" points="130,-305 0,-305 0,-286 130,-286 130,-305"/>
<text text-anchor="middle" x="65" y="-293" font-family="Helvetica,sans-Serif" font-size="10.00">inst/include/functions.h</text>
</a>
</g>
</g>
<!-- Node2 -->
<g id="Node000002" class="node">
<title>Node2</title>
<g id="a_Node000002"><a xlink:href="fish_8h.html" target="_top" xlink:title=" ">
<polygon fill="white" stroke="#666666" points="194,-250 92,-250 92,-231 194,-231 194,-250"/>
<text text-anchor="middle" x="143" y="-238" font-family="Helvetica,sans-Serif" font-size="10.00">inst/include/fish.h</text>
</a>
</g>
</g>
<!-- Node1&#45;&gt;Node2 -->
<g id="edge1_Node000001_Node000002" class="edge">
<title>Node1&#45;&gt;Node2</title>
<g id="a_edge1_Node000001_Node000002"><a xlink:title=" ">
<path fill="none" stroke="#63b8ff" d="M86.12,-280.15C100.21,-270.57 118.29,-258.29 130.24,-250.17"/>
<polygon fill="#63b8ff" stroke="#63b8ff" points="83.84,-277.47 77.53,-285.98 87.77,-283.26 83.84,-277.47"/>
</a>
</g>
</g>
<!-- Node7 -->
<g id="Node000007" class="node">
<title>Node7</title>
<g id="a_Node000007"><a xlink:href="fish__glue_8cpp.html" target="_top" xlink:title=" ">
<polygon fill="white" stroke="#666666" points="129,-19 31,-19 31,0 129,0 129,-19"/>
<text text-anchor="middle" x="80" y="-7" font-family="Helvetica,sans-Serif" font-size="10.00">src/fish_glue.cpp</text>
</a>
</g>
</g>
<!-- Node1&#45;&gt;Node7 -->
<g id="edge18_Node000001_Node000007" class="edge">
<title>Node1&#45;&gt;Node7</title>
<g id="a_edge18_Node000001_Node000007"><a xlink:title=" ">
<path fill="none" stroke="#63b8ff" d="M48.89,-278.43C30.82,-258.62 4,-223.05 4,-186.5 4,-186.5 4,-186.5 4,-129.5 4,-81.45 48.55,-37.22 69.43,-19.13"/>
<polygon fill="#63b8ff" stroke="#63b8ff" points="46.58,-281.07 56,-285.92 51.65,-276.25 46.58,-281.07"/>
</a>
</g>
</g>
<!-- Node3 -->
<g id="Node000003" class="node">
<title>Node3</title>
<g id="a_Node000003"><a xlink:href="fisheRy_8h.html" target="_top" xlink:title=" ">
<polygon fill="white" stroke="#666666" points="446.5,-195 327.5,-195 327.5,-176 446.5,-176 446.5,-195"/>
<text text-anchor="middle" x="387" y="-183" font-family="Helvetica,sans-Serif" font-size="10.00">inst/include/fisheRy.h</text>
</a>
</g>
</g>
<!-- Node2&#45;&gt;Node3 -->
<g id="edge2_Node000002_Node000003" class="edge">
<title>Node2&#45;&gt;Node3</title>
<g id="a_edge2_Node000002_Node000003"><a xlink:title=" ">
<path fill="none" stroke="#63b8ff" d="M192.19,-228.82C237.92,-218.88 305.16,-204.28 347.49,-195.08"/>
<polygon fill="#63b8ff" stroke="#63b8ff" points="191.23,-225.44 182.2,-230.98 192.72,-232.28 191.23,-225.44"/>
</a>
</g>
</g>
<!-- Node5 -->
<g id="Node000005" class="node">
<title>Node5</title>
<g id="a_Node000005"><a xlink:href="stock_8h.html" target="_top" xlink:title=" ">
<polygon fill="white" stroke="#666666" points="198.5,-195 87.5,-195 87.5,-176 198.5,-176 198.5,-195"/>
<text text-anchor="middle" x="143" y="-183" font-family="Helvetica,sans-Serif" font-size="10.00">inst/include/stock.h</text>
</a>
</g>
</g>
<!-- Node2&#45;&gt;Node5 -->
<g id="edge4_Node000002_Node000005" class="edge">
<title>Node2&#45;&gt;Node5</title>
<g id="a_edge4_Node000002_Node000005"><a xlink:title=" ">
<path fill="none" stroke="#63b8ff" d="M143,-220.66C143,-211.93 143,-201.99 143,-195.09"/>
<polygon fill="#63b8ff" stroke="#63b8ff" points="139.5,-220.75 143,-230.75 146.5,-220.75 139.5,-220.75"/>
</a>
</g>
</g>
<!-- Node2&#45;&gt;Node7 -->
<g id="edge17_Node000002_Node000007" class="edge">
<title>Node2&#45;&gt;Node7</title>
<g id="a_edge17_Node000002_Node000007"><a xlink:title=" ">
<path fill="none" stroke="#63b8ff" d="M112.19,-226.13C99.49,-218.9 86.11,-208.61 79,-195 47.4,-134.53 69.08,-46.96 77.25,-19.25"/>
<polygon fill="#63b8ff" stroke="#63b8ff" points="110.73,-229.32 121.21,-230.87 113.98,-223.12 110.73,-229.32"/>
</a>
</g>
</g>
<!-- Node12 -->
<g id="Node000012" class="node">
<title>Node12</title>
<g id="a_Node000012"><a xlink:href="fish_8cpp.html" target="_top" xlink:title=" ">
<polygon fill="white" stroke="#666666" points="287.5,-195 216.5,-195 216.5,-176 287.5,-176 287.5,-195"/>
<text text-anchor="middle" x="252" y="-183" font-family="Helvetica,sans-Serif" font-size="10.00">src/fish.cpp</text>
</a>
</g>
</g>
<!-- Node2&#45;&gt;Node12 -->
<g id="edge16_Node000002_Node000012" class="edge">
<title>Node2&#45;&gt;Node12</title>
<g id="a_edge16_Node000002_Node000012"><a xlink:title=" ">
<path fill="none" stroke="#63b8ff" d="M169.73,-226.5C189.79,-216.75 216.68,-203.68 234.17,-195.17"/>
<polygon fill="#63b8ff" stroke="#63b8ff" points="167.98,-223.46 160.51,-230.98 171.04,-229.76 167.98,-223.46"/>
</a>
</g>
</g>
<!-- Node4 -->
<g id="Node000004" class="node">
<title>Node4</title>
<g id="a_Node000004"><a xlink:href="RcppExports_8cpp.html" target="_top" xlink:title=" ">
<polygon fill="white" stroke="#666666" points="477.5,-140 362.5,-140 362.5,-121 477.5,-121 477.5,-140"/>
<text text-anchor="middle" x="420" y="-128" font-family="Helvetica,sans-Serif" font-size="10.00">src/RcppExports.cpp</text>
</a>
</g>
</g>
<!-- Node3&#45;&gt;Node4 -->
<g id="edge3_Node000003_Node000004" class="edge">
<title>Node3&#45;&gt;Node4</title>
<g id="a_edge3_Node000003_Node000004"><a xlink:title=" ">
<path fill="none" stroke="#63b8ff" d="M397.83,-167.1C403.47,-158.04 410.12,-147.37 414.65,-140.09"/>
<polygon fill="#63b8ff" stroke="#63b8ff" points="394.76,-165.41 392.45,-175.75 400.71,-169.11 394.76,-165.41"/>
</a>
</g>
</g>
<!-- Node6 -->
<g id="Node000006" class="node">
<title>Node6</title>
<g id="a_Node000006"><a xlink:href="fishery__system_8h.html" target="_top" xlink:title=" ">
<polygon fill="white" stroke="#666666" points="447.5,-85 338.5,-85 338.5,-55 447.5,-55 447.5,-85"/>
<text text-anchor="start" x="346.5" y="-73" font-family="Helvetica,sans-Serif" font-size="10.00">inst/include/fishery</text>
<text text-anchor="middle" x="393" y="-62" font-family="Helvetica,sans-Serif" font-size="10.00">_system.h</text>
</a>
</g>
</g>
<!-- Node5&#45;&gt;Node6 -->
<g id="edge5_Node000005_Node000006" class="edge">
<title>Node5&#45;&gt;Node6</title>
<g id="a_edge5_Node000005_Node000006"><a xlink:title=" ">
<path fill="none" stroke="#63b8ff" d="M208.94,-174.97C242.13,-168.34 282.17,-157.45 315,-140 341.66,-125.82 366.73,-100.78 380.94,-85.08"/>
<polygon fill="#63b8ff" stroke="#63b8ff" points="208.04,-171.58 198.88,-176.89 209.36,-178.45 208.04,-171.58"/>
</a>
</g>
</g>
<!-- Node5&#45;&gt;Node7 -->
<g id="edge13_Node000005_Node000007" class="edge">
<title>Node5&#45;&gt;Node7</title>
<g id="a_edge13_Node000005_Node000007"><a xlink:title=" ">
<path fill="none" stroke="#63b8ff" d="M134.04,-166.69C124.42,-147.05 109.15,-114.35 99,-85 90.97,-61.79 84.67,-33.46 81.76,-19.36"/>
<polygon fill="#63b8ff" stroke="#63b8ff" points="131.04,-168.51 138.62,-175.91 137.31,-165.4 131.04,-168.51"/>
</a>
</g>
</g>
<!-- Node9 -->
<g id="Node000009" class="node">
<title>Node9</title>
<g id="a_Node000009"><a xlink:href="fleet_8h.html" target="_top" xlink:title=" ">
<polygon fill="white" stroke="#666666" points="305.5,-140 198.5,-140 198.5,-121 305.5,-121 305.5,-140"/>
<text text-anchor="middle" x="252" y="-128" font-family="Helvetica,sans-Serif" font-size="10.00">inst/include/fleet.h</text>
</a>
</g>
</g>
<!-- Node5&#45;&gt;Node9 -->
<g id="edge8_Node000005_Node000009" class="edge">
<title>Node5&#45;&gt;Node9</title>
<g id="a_edge8_Node000005_Node000009"><a xlink:title=" ">
<path fill="none" stroke="#63b8ff" d="M169.73,-171.5C189.79,-161.75 216.68,-148.68 234.17,-140.17"/>
<polygon fill="#63b8ff" stroke="#63b8ff" points="167.98,-168.46 160.51,-175.98 171.04,-174.76 167.98,-168.46"/>
</a>
</g>
</g>
<!-- Node10 -->
<g id="Node000010" class="node">
<title>Node10</title>
<g id="a_Node000010"><a xlink:href="fleet_8cpp.html" target="_top" xlink:title=" ">
<polygon fill="white" stroke="#666666" points="184,-79.5 108,-79.5 108,-60.5 184,-60.5 184,-79.5"/>
<text text-anchor="middle" x="146" y="-67.5" font-family="Helvetica,sans-Serif" font-size="10.00">src/fleet.cpp</text>
</a>
</g>
</g>
<!-- Node5&#45;&gt;Node10 -->
<g id="edge14_Node000005_Node000010" class="edge">
<title>Node5&#45;&gt;Node10</title>
<g id="a_edge14_Node000005_Node000010"><a xlink:title=" ">
<path fill="none" stroke="#63b8ff" d="M143.5,-165.65C144.16,-140.74 145.29,-97.88 145.77,-79.63"/>
<polygon fill="#63b8ff" stroke="#63b8ff" points="139.99,-165.88 143.23,-175.97 146.99,-166.07 139.99,-165.88"/>
</a>
</g>
</g>
<!-- Node11 -->
<g id="Node000011" class="node">
<title>Node11</title>
<g id="a_Node000011"><a xlink:href="stock_8cpp.html" target="_top" xlink:title=" ">
<polygon fill="white" stroke="#666666" points="282,-79.5 202,-79.5 202,-60.5 282,-60.5 282,-79.5"/>
<text text-anchor="middle" x="242" y="-67.5" font-family="Helvetica,sans-Serif" font-size="10.00">src/stock.cpp</text>
</a>
</g>
</g>
<!-- Node5&#45;&gt;Node11 -->
<g id="edge15_Node000005_Node000011" class="edge">
<title>Node5&#45;&gt;Node11</title>
<g id="a_edge15_Node000005_Node000011"><a xlink:title=" ">
<path fill="none" stroke="#63b8ff" d="M154.47,-167.42C163.56,-154.29 176.88,-135.92 190,-121 203.56,-105.57 221.09,-89.39 231.93,-79.75"/>
<polygon fill="#63b8ff" stroke="#63b8ff" points="151.4,-165.7 148.66,-175.94 157.19,-169.65 151.4,-165.7"/>
</a>
</g>
</g>
<!-- Node6&#45;&gt;Node7 -->
<g id="edge6_Node000006_Node000007" class="edge">
<title>Node6&#45;&gt;Node7</title>
<g id="a_edge6_Node000006_Node000007"><a xlink:title=" ">
<path fill="none" stroke="#63b8ff" d="M328.43,-55.86C326.94,-55.57 325.46,-55.28 324,-55 256.14,-41.93 177.46,-27.76 128.2,-19"/>
<polygon fill="#63b8ff" stroke="#63b8ff" points="327.92,-59.32 338.41,-57.82 329.27,-52.46 327.92,-59.32"/>
</a>
</g>
</g>
<!-- Node8 -->
<g id="Node000008" class="node">
<title>Node8</title>
<g id="a_Node000008"><a xlink:href="fishery__system_8cpp.html" target="_top" xlink:title=" ">
<polygon fill="white" stroke="#666666" points="457,-19 329,-19 329,0 457,0 457,-19"/>
<text text-anchor="middle" x="393" y="-7" font-family="Helvetica,sans-Serif" font-size="10.00">src/fishery_system.cpp</text>
</a>
</g>
</g>
<!-- Node6&#45;&gt;Node8 -->
<g id="edge7_Node000006_Node000008" class="edge">
<title>Node6&#45;&gt;Node8</title>
<g id="a_edge7_Node000006_Node000008"><a xlink:title=" ">
<path fill="none" stroke="#63b8ff" d="M393,-44.75C393,-35.72 393,-26.03 393,-19.27"/>
<polygon fill="#63b8ff" stroke="#63b8ff" points="389.5,-44.84 393,-54.84 396.5,-44.84 389.5,-44.84"/>
</a>
</g>
</g>
<!-- Node9&#45;&gt;Node6 -->
<g id="edge9_Node000009_Node000006" class="edge">
<title>Node9&#45;&gt;Node6</title>
<g id="a_edge9_Node000009_Node000006"><a xlink:title=" ">
<path fill="none" stroke="#63b8ff" d="M281.93,-117.08C304.54,-107.7 335.58,-94.82 359.1,-85.06"/>
<polygon fill="#63b8ff" stroke="#63b8ff" points="280.4,-113.93 272.5,-120.99 283.08,-120.39 280.4,-113.93"/>
</a>
</g>
</g>
<!-- Node9&#45;&gt;Node7 -->
<g id="edge10_Node000009_Node000007" class="edge">
<title>Node9&#45;&gt;Node7</title>
<g id="a_edge10_Node000009_Node000007"><a xlink:title=" ">
<path fill="none" stroke="#63b8ff" d="M270.33,-113.79C286.63,-97.92 305.78,-73.22 291,-55 271.01,-30.36 184.99,-18.84 129.14,-13.87"/>
<polygon fill="#63b8ff" stroke="#63b8ff" points="267.7,-111.45 262.72,-120.8 272.45,-116.6 267.7,-111.45"/>
</a>
</g>
</g>
<!-- Node9&#45;&gt;Node10 -->
<g id="edge11_Node000009_Node000010" class="edge">
<title>Node9&#45;&gt;Node10</title>
<g id="a_edge11_Node000009_Node000010"><a xlink:title=" ">
<path fill="none" stroke="#63b8ff" d="M227.4,-115.92C207.14,-104.74 179.03,-89.23 161.7,-79.67"/>
<polygon fill="#63b8ff" stroke="#63b8ff" points="225.91,-119.1 236.36,-120.87 229.3,-112.97 225.91,-119.1"/>
</a>
</g>
</g>
<!-- Node9&#45;&gt;Node11 -->
<g id="edge12_Node000009_Node000011" class="edge">
<title>Node9&#45;&gt;Node11</title>
<g id="a_edge12_Node000009_Node000011"><a xlink:title=" ">
<path fill="none" stroke="#63b8ff" d="M248.84,-110.99C247.04,-100.51 244.89,-87.89 243.48,-79.67"/>
<polygon fill="#63b8ff" stroke="#63b8ff" points="245.39,-111.6 250.52,-120.87 252.29,-110.42 245.39,-111.6"/>
</a>
</g>
</g>
</g>
</svg>
