<?xml version="1.0" encoding="UTF-8" standalone="no"?>
<!DOCTYPE svg PUBLIC "-//W3C//DTD SVG 1.1//EN"
 "http://www.w3.org/Graphics/SVG/1.1/DTD/svg11.dtd">
<!-- Generated by graphviz version 2.43.0 (0)
 -->
<!-- Title: inst/include/functions.h Pages: 1 -->
<svg width="473pt" height="252pt"
 viewBox="0.00 0.00 473.30 252.00" xmlns="http://www.w3.org/2000/svg" xmlns:xlink="http://www.w3.org/1999/xlink">
<g id="graph0" class="graph" transform="scale(1 1) rotate(0) translate(4 248)">
<title>inst/include/functions.h</title>
<!-- Node1 -->
<g id="node1" class="node">
<title>Node1</title>
<g id="a_node1"><a xlink:title=" ">
<polygon fill="#bfbfbf" stroke="black" points="333,-224.5 333,-243.5 463,-243.5 463,-224.5 333,-224.5"/>
<text text-anchor="middle" x="398" y="-231.5" font-family="Helvetica,sans-Serif" font-size="10.00">inst/include/functions.h</text>
</a>
</g>
</g>
<!-- Node2 -->
<g id="node2" class="node">
<title>Node2</title>
<g id="a_node2"><a xlink:href="fish__glue_8cpp.html" target="_top" xlink:title=" ">
<polygon fill="none" stroke="black" points="342,-0.5 342,-19.5 440,-19.5 440,-0.5 342,-0.5"/>
<text text-anchor="middle" x="391" y="-7.5" font-family="Helvetica,sans-Serif" font-size="10.00">src/fish_glue.cpp</text>
</a>
</g>
</g>
<!-- Node1&#45;&gt;Node2 -->
<g id="edge1" class="edge">
<title>Node1&#45;&gt;Node2</title>
<path fill="none" stroke="midnightblue" d="M411.77,-216.55C436.9,-184.4 485.08,-111.51 456,-56 446.95,-38.74 427.94,-26.78 412.81,-19.55"/>
<polygon fill="midnightblue" stroke="midnightblue" points="408.92,-214.51 405.37,-224.49 414.37,-218.9 408.92,-214.51"/>
</g>
<!-- Node3 -->
<g id="node3" class="node">
<title>Node3</title>
<g id="a_node3"><a xlink:href="fish_8h.html" target="_top" xlink:title=" ">
<polygon fill="none" stroke="black" points="246.5,-168.5 246.5,-187.5 349.5,-187.5 349.5,-168.5 246.5,-168.5"/>
<text text-anchor="middle" x="298" y="-175.5" font-family="Helvetica,sans-Serif" font-size="10.00">inst/include/fish.h</text>
</a>
</g>
</g>
<!-- Node1&#45;&gt;Node3 -->
<g id="edge2" class="edge">
<title>Node1&#45;&gt;Node3</title>
<path fill="none" stroke="midnightblue" d="M372.91,-219.45C354.45,-209.48 329.9,-196.23 314.03,-187.65"/>
<polygon fill="midnightblue" stroke="midnightblue" points="371.47,-222.65 381.93,-224.32 374.8,-216.49 371.47,-222.65"/>
</g>
<!-- Node3&#45;&gt;Node2 -->
<g id="edge4" class="edge">
<title>Node3&#45;&gt;Node2</title>
<path fill="none" stroke="midnightblue" d="M332.63,-164.57C367.92,-149.72 420.33,-121.08 441,-76 451.38,-53.35 424.21,-31.29 405.97,-19.6"/>
<polygon fill="midnightblue" stroke="midnightblue" points="331.13,-161.4 323.17,-168.4 333.75,-167.89 331.13,-161.4"/>
</g>
<!-- Node4 -->
<g id="node4" class="node">
<title>Node4</title>
<g id="a_node4"><a xlink:href="fish_8cpp.html" target="_top" xlink:title=" ">
<polygon fill="none" stroke="black" points="139,-112.5 139,-131.5 211,-131.5 211,-112.5 139,-112.5"/>
<text text-anchor="middle" x="175" y="-119.5" font-family="Helvetica,sans-Serif" font-size="10.00">src/fish.cpp</text>
</a>
</g>
</g>
<!-- Node3&#45;&gt;Node4 -->
<g id="edge3" class="edge">
<title>Node3&#45;&gt;Node4</title>
<path fill="none" stroke="midnightblue" d="M269.23,-164.37C246.19,-154.26 214.52,-140.35 194.4,-131.52"/>
<polygon fill="midnightblue" stroke="midnightblue" points="267.95,-167.63 278.51,-168.44 270.76,-161.22 267.95,-167.63"/>
</g>
<!-- Node5 -->
<g id="node5" class="node">
<title>Node5</title>
<g id="a_node5"><a xlink:href="fisheRy_8h.html" target="_top" xlink:title=" ">
<polygon fill="none" stroke="black" points="0,-56.5 0,-75.5 120,-75.5 120,-56.5 0,-56.5"/>
<text text-anchor="middle" x="60" y="-63.5" font-family="Helvetica,sans-Serif" font-size="10.00">inst/include/fisheRy.h</text>
</a>
</g>
</g>
<!-- Node3&#45;&gt;Node5 -->
<g id="edge5" class="edge">
<title>Node3&#45;&gt;Node5</title>
<path fill="none" stroke="midnightblue" d="M236.32,-167.92C203.31,-161.27 162.81,-150.14 130,-132 103,-117.07 78.28,-89.52 66.78,-75.57"/>
<polygon fill="midnightblue" stroke="midnightblue" points="235.83,-171.39 246.31,-169.84 237.15,-164.52 235.83,-171.39"/>
</g>
<!-- Node7 -->
<g id="node7" class="node">
<title>Node7</title>
<g id="a_node7"><a xlink:href="population_8h.html" target="_top" xlink:title=" ">
<polygon fill="none" stroke="black" points="229.5,-112.5 229.5,-131.5 366.5,-131.5 366.5,-112.5 229.5,-112.5"/>
<text text-anchor="middle" x="298" y="-119.5" font-family="Helvetica,sans-Serif" font-size="10.00">inst/include/population.h</text>
</a>
</g>
</g>
<!-- Node3&#45;&gt;Node7 -->
<g id="edge7" class="edge">
<title>Node3&#45;&gt;Node7</title>
<path fill="none" stroke="midnightblue" d="M298,-157.8C298,-148.91 298,-138.78 298,-131.75"/>
<polygon fill="midnightblue" stroke="midnightblue" points="294.5,-158.08 298,-168.08 301.5,-158.08 294.5,-158.08"/>
</g>
<!-- Node6 -->
<g id="node6" class="node">
<title>Node6</title>
<g id="a_node6"><a xlink:href="RcppExports_8cpp.html" target="_top" xlink:title=" ">
<polygon fill="none" stroke="black" points="2.5,-0.5 2.5,-19.5 117.5,-19.5 117.5,-0.5 2.5,-0.5"/>
<text text-anchor="middle" x="60" y="-7.5" font-family="Helvetica,sans-Serif" font-size="10.00">src/RcppExports.cpp</text>
</a>
</g>
</g>
<!-- Node5&#45;&gt;Node6 -->
<g id="edge6" class="edge">
<title>Node5&#45;&gt;Node6</title>
<path fill="none" stroke="midnightblue" d="M60,-45.8C60,-36.91 60,-26.78 60,-19.75"/>
<polygon fill="midnightblue" stroke="midnightblue" points="56.5,-46.08 60,-56.08 63.5,-46.08 56.5,-46.08"/>
</g>
<!-- Node7&#45;&gt;Node2 -->
<g id="edge8" class="edge">
<title>Node7&#45;&gt;Node2</title>
<path fill="none" stroke="midnightblue" d="M299.83,-102.16C302,-88.22 306.72,-69.4 317,-56 330.09,-38.94 351.64,-26.9 368.12,-19.59"/>
<polygon fill="midnightblue" stroke="midnightblue" points="296.35,-101.74 298.58,-112.1 303.3,-102.62 296.35,-101.74"/>
</g>
<!-- Node7&#45;&gt;Node5 -->
<g id="edge10" class="edge">
<title>Node7&#45;&gt;Node5</title>
<path fill="none" stroke="midnightblue" d="M250.48,-110.22C205.5,-100.01 138.9,-84.9 97.54,-75.52"/>
<polygon fill="midnightblue" stroke="midnightblue" points="249.76,-113.64 260.29,-112.44 251.31,-106.82 249.76,-113.64"/>
</g>
<!-- Node8 -->
<g id="node8" class="node">
<title>Node8</title>
<g id="a_node8"><a xlink:href="population_8cpp.html" target="_top" xlink:title=" ">
<polygon fill="none" stroke="black" points="326,-56.5 326,-75.5 432,-75.5 432,-56.5 326,-56.5"/>
<text text-anchor="middle" x="379" y="-63.5" font-family="Helvetica,sans-Serif" font-size="10.00">src/population.cpp</text>
</a>
</g>
</g>
<!-- Node7&#45;&gt;Node8 -->
<g id="edge9" class="edge">
<title>Node7&#45;&gt;Node8</title>
<path fill="none" stroke="midnightblue" d="M319.57,-106.62C334.36,-96.76 353.51,-83.99 366.02,-75.65"/>
<polygon fill="midnightblue" stroke="midnightblue" points="317.39,-103.86 311.01,-112.32 321.28,-109.69 317.39,-103.86"/>
</g>
<!-- Node9 -->
<g id="node9" class="node">
<title>Node9</title>
<g id="a_node9"><a xlink:href="simulator_8h.html" target="_top" xlink:title=" ">
<polygon fill="none" stroke="black" points="138.5,-56.5 138.5,-75.5 269.5,-75.5 269.5,-56.5 138.5,-56.5"/>
<text text-anchor="middle" x="204" y="-63.5" font-family="Helvetica,sans-Serif" font-size="10.00">inst/include/simulator.h</text>
</a>
</g>
</g>
<!-- Node7&#45;&gt;Node9 -->
<g id="edge11" class="edge">
<title>Node7&#45;&gt;Node9</title>
<path fill="none" stroke="midnightblue" d="M273.94,-107.18C256.64,-97.24 233.85,-84.15 219.07,-75.65"/>
<polygon fill="midnightblue" stroke="midnightblue" points="272.48,-110.38 282.9,-112.32 275.97,-104.31 272.48,-110.38"/>
</g>
<!-- Node9&#45;&gt;Node2 -->
<g id="edge12" class="edge">
<title>Node9&#45;&gt;Node2</title>
<path fill="none" stroke="midnightblue" d="M243.59,-53.57C278.87,-43.38 329.69,-28.7 361.51,-19.52"/>
<polygon fill="midnightblue" stroke="midnightblue" points="242.27,-50.31 233.63,-56.44 244.21,-57.03 242.27,-50.31"/>
</g>
<!-- Node10 -->
<g id="node10" class="node">
<title>Node10</title>
<g id="a_node10"><a xlink:href="simulator_8cpp.html" target="_top" xlink:title=" ">
<polygon fill="none" stroke="black" points="153.5,-0.5 153.5,-19.5 254.5,-19.5 254.5,-0.5 153.5,-0.5"/>
<text text-anchor="middle" x="204" y="-7.5" font-family="Helvetica,sans-Serif" font-size="10.00">src/simulator.cpp</text>
</a>
</g>
</g>
<!-- Node9&#45;&gt;Node10 -->
<g id="edge13" class="edge">
<title>Node9&#45;&gt;Node10</title>
<path fill="none" stroke="midnightblue" d="M204,-45.8C204,-36.91 204,-26.78 204,-19.75"/>
<polygon fill="midnightblue" stroke="midnightblue" points="200.5,-46.08 204,-56.08 207.5,-46.08 200.5,-46.08"/>
</g>
</g>
</svg>
