<?xml version="1.0" encoding="UTF-8" standalone="no"?>
<!DOCTYPE svg PUBLIC "-//W3C//DTD SVG 1.1//EN"
 "http://www.w3.org/Graphics/SVG/1.1/DTD/svg11.dtd">
<!-- Generated by graphviz version 2.43.0 (0)
 -->
<!-- Title: inst/include/initializer_v2.h Pages: 1 -->
<svg width="859pt" height="313pt"
 viewBox="0.00 0.00 859.12 313.00" xmlns="http://www.w3.org/2000/svg" xmlns:xlink="http://www.w3.org/1999/xlink">
<g id="graph0" class="graph" transform="scale(1 1) rotate(0) translate(4 309)">
<title>inst/include/initializer_v2.h</title>
<!-- Node1 -->
<g id="Node000001" class="node">
<title>Node1</title>
<g id="a_Node000001"><a xlink:title=" ">
<polygon fill="#999999" stroke="#666666" points="602.12,-305 454.12,-305 454.12,-286 602.12,-286 602.12,-305"/>
<text text-anchor="middle" x="528.12" y="-293" font-family="Helvetica,sans-Serif" font-size="10.00">inst/include/initializer_v2.h</text>
</a>
</g>
</g>
<!-- Node2 -->
<g id="Node000002" class="node">
<title>Node2</title>
<g id="a_Node000002"><a xlink:href="fish_8h.html" target="_top" xlink:title=" ">
<polygon fill="white" stroke="#666666" points="344.12,-250 242.12,-250 242.12,-231 344.12,-231 344.12,-250"/>
<text text-anchor="middle" x="293.12" y="-238" font-family="Helvetica,sans-Serif" font-size="10.00">inst/include/fish.h</text>
</a>
</g>
</g>
<!-- Node1&#45;&gt;Node2 -->
<g id="edge1_Node000001_Node000002" class="edge">
<title>Node1&#45;&gt;Node2</title>
<g id="a_edge1_Node000001_Node000002"><a xlink:title=" ">
<path fill="none" stroke="#63b8ff" d="M480.47,-283.75C436.43,-273.82 371.85,-259.26 331.17,-250.08"/>
<polygon fill="#63b8ff" stroke="#63b8ff" points="479.84,-287.2 490.36,-285.98 481.38,-280.37 479.84,-287.2"/>
</a>
</g>
</g>
<!-- Node12 -->
<g id="Node000012" class="node">
<title>Node12</title>
<g id="a_Node000012"><a xlink:href="fishery__system_8h.html" target="_top" xlink:title=" ">
<polygon fill="white" stroke="#666666" points="841.62,-85 732.62,-85 732.62,-55 841.62,-55 841.62,-85"/>
<text text-anchor="start" x="740.62" y="-73" font-family="Helvetica,sans-Serif" font-size="10.00">inst/include/fishery</text>
<text text-anchor="middle" x="787.12" y="-62" font-family="Helvetica,sans-Serif" font-size="10.00">_system.h</text>
</a>
</g>
</g>
<!-- Node1&#45;&gt;Node12 -->
<g id="edge25_Node000001_Node000012" class="edge">
<title>Node1&#45;&gt;Node12</title>
<g id="a_edge25_Node000001_Node000012"><a xlink:title=" ">
<path fill="none" stroke="#63b8ff" d="M570.92,-283.11C631.3,-264.49 739.32,-221.2 786.12,-140 795.87,-123.08 793.61,-99.73 790.68,-85"/>
<polygon fill="#63b8ff" stroke="#63b8ff" points="569.87,-279.77 561.3,-285.99 571.88,-286.47 569.87,-279.77"/>
</a>
</g>
</g>
<!-- Node3 -->
<g id="Node000003" class="node">
<title>Node3</title>
<g id="a_Node000003"><a xlink:href="fisheRy_8h.html" target="_top" xlink:title=" ">
<polygon fill="white" stroke="#666666" points="145.62,-140 26.62,-140 26.62,-121 145.62,-121 145.62,-140"/>
<text text-anchor="middle" x="86.12" y="-128" font-family="Helvetica,sans-Serif" font-size="10.00">inst/include/fisheRy.h</text>
</a>
</g>
</g>
<!-- Node2&#45;&gt;Node3 -->
<g id="edge2_Node000002_Node000003" class="edge">
<title>Node2&#45;&gt;Node3</title>
<g id="a_edge2_Node000002_Node000003"><a xlink:title=" ">
<path fill="none" stroke="#63b8ff" d="M259.92,-227.18C238.7,-218.92 210.81,-207.32 187.12,-195 153.85,-177.71 117.14,-153.13 98.48,-140.21"/>
<polygon fill="#63b8ff" stroke="#63b8ff" points="258.87,-230.53 269.46,-230.85 261.38,-223.99 258.87,-230.53"/>
</a>
</g>
</g>
<!-- Node5 -->
<g id="Node000005" class="node">
<title>Node5</title>
<g id="a_Node000005"><a xlink:href="population_8h.html" target="_top" xlink:title=" ">
<polygon fill="white" stroke="#666666" points="422.62,-195 285.62,-195 285.62,-176 422.62,-176 422.62,-195"/>
<text text-anchor="middle" x="354.12" y="-183" font-family="Helvetica,sans-Serif" font-size="10.00">inst/include/population.h</text>
</a>
</g>
</g>
<!-- Node2&#45;&gt;Node5 -->
<g id="edge4_Node000002_Node000005" class="edge">
<title>Node2&#45;&gt;Node5</title>
<g id="a_edge4_Node000002_Node000005"><a xlink:title=" ">
<path fill="none" stroke="#63b8ff" d="M310.59,-224.32C321.46,-214.87 335.06,-203.06 344.14,-195.17"/>
<polygon fill="#63b8ff" stroke="#63b8ff" points="308.17,-221.78 302.92,-230.98 312.76,-227.07 308.17,-221.78"/>
</a>
</g>
</g>
<!-- Node7 -->
<g id="Node000007" class="node">
<title>Node7</title>
<g id="a_Node000007"><a xlink:href="fish__glue_8cpp.html" target="_top" xlink:title=" ">
<polygon fill="white" stroke="#666666" points="559.12,-19 461.12,-19 461.12,0 559.12,0 559.12,-19"/>
<text text-anchor="middle" x="510.12" y="-7" font-family="Helvetica,sans-Serif" font-size="10.00">src/fish_glue.cpp</text>
</a>
</g>
</g>
<!-- Node2&#45;&gt;Node7 -->
<g id="edge24_Node000002_Node000007" class="edge">
<title>Node2&#45;&gt;Node7</title>
<g id="a_edge24_Node000002_Node000007"><a xlink:title=" ">
<path fill="none" stroke="#63b8ff" d="M231.83,-237.23C165.9,-231.08 64.19,-210.01 17.12,-140 6.2,-123.77 -15.89,-92.18 19.12,-55 49.01,-23.26 342.34,-13.85 460.84,-11.34"/>
<polygon fill="#63b8ff" stroke="#63b8ff" points="231.83,-240.74 242.09,-238.09 232.42,-233.77 231.83,-240.74"/>
</a>
</g>
</g>
<!-- Node11 -->
<g id="Node000011" class="node">
<title>Node11</title>
<g id="a_Node000011"><a xlink:href="stock_8h.html" target="_top" xlink:title=" ">
<polygon fill="white" stroke="#666666" points="658.62,-195 547.62,-195 547.62,-176 658.62,-176 658.62,-195"/>
<text text-anchor="middle" x="603.12" y="-183" font-family="Helvetica,sans-Serif" font-size="10.00">inst/include/stock.h</text>
</a>
</g>
</g>
<!-- Node2&#45;&gt;Node11 -->
<g id="edge12_Node000002_Node000011" class="edge">
<title>Node2&#45;&gt;Node11</title>
<g id="a_edge12_Node000002_Node000011"><a xlink:title=" ">
<path fill="none" stroke="#63b8ff" d="M353.08,-229.25C411.29,-219.3 498.63,-204.36 553.18,-195.04"/>
<polygon fill="#63b8ff" stroke="#63b8ff" points="352.19,-225.85 342.92,-230.98 353.37,-232.75 352.19,-225.85"/>
</a>
</g>
</g>
<!-- Node16 -->
<g id="Node000016" class="node">
<title>Node16</title>
<g id="a_Node000016"><a xlink:href="fish_8cpp.html" target="_top" xlink:title=" ">
<polygon fill="white" stroke="#666666" points="267.62,-195 196.62,-195 196.62,-176 267.62,-176 267.62,-195"/>
<text text-anchor="middle" x="232.12" y="-183" font-family="Helvetica,sans-Serif" font-size="10.00">src/fish.cpp</text>
</a>
</g>
</g>
<!-- Node2&#45;&gt;Node16 -->
<g id="edge23_Node000002_Node000016" class="edge">
<title>Node2&#45;&gt;Node16</title>
<g id="a_edge23_Node000002_Node000016"><a xlink:title=" ">
<path fill="none" stroke="#63b8ff" d="M275.65,-224.32C264.77,-214.87 251.17,-203.06 242.1,-195.17"/>
<polygon fill="#63b8ff" stroke="#63b8ff" points="273.47,-227.07 283.32,-230.98 278.06,-221.78 273.47,-227.07"/>
</a>
</g>
</g>
<!-- Node4 -->
<g id="Node000004" class="node">
<title>Node4</title>
<g id="a_Node000004"><a xlink:href="RcppExports_8cpp.html" target="_top" xlink:title=" ">
<polygon fill="white" stroke="#666666" points="143.62,-79.5 28.62,-79.5 28.62,-60.5 143.62,-60.5 143.62,-79.5"/>
<text text-anchor="middle" x="86.12" y="-67.5" font-family="Helvetica,sans-Serif" font-size="10.00">src/RcppExports.cpp</text>
</a>
</g>
</g>
<!-- Node3&#45;&gt;Node4 -->
<g id="edge3_Node000003_Node000004" class="edge">
<title>Node3&#45;&gt;Node4</title>
<g id="a_edge3_Node000003_Node000004"><a xlink:title=" ">
<path fill="none" stroke="#63b8ff" d="M86.12,-110.66C86.12,-100.24 86.12,-87.8 86.12,-79.67"/>
<polygon fill="#63b8ff" stroke="#63b8ff" points="82.62,-110.87 86.12,-120.87 89.62,-110.87 82.62,-110.87"/>
</a>
</g>
</g>
<!-- Node5&#45;&gt;Node3 -->
<g id="edge5_Node000005_Node000003" class="edge">
<title>Node5&#45;&gt;Node3</title>
<g id="a_edge5_Node000005_Node000003"><a xlink:title=" ">
<path fill="none" stroke="#63b8ff" d="M301.04,-174C250.8,-164.07 176.3,-149.33 129.51,-140.08"/>
<polygon fill="#63b8ff" stroke="#63b8ff" points="300.57,-177.48 311.06,-175.98 301.93,-170.61 300.57,-177.48"/>
</a>
</g>
</g>
<!-- Node6 -->
<g id="Node000006" class="node">
<title>Node6</title>
<g id="a_Node000006"><a xlink:href="simulator_8h.html" target="_top" xlink:title=" ">
<polygon fill="white" stroke="#666666" points="419.62,-140 288.62,-140 288.62,-121 419.62,-121 419.62,-140"/>
<text text-anchor="middle" x="354.12" y="-128" font-family="Helvetica,sans-Serif" font-size="10.00">inst/include/simulator.h</text>
</a>
</g>
</g>
<!-- Node5&#45;&gt;Node6 -->
<g id="edge6_Node000005_Node000006" class="edge">
<title>Node5&#45;&gt;Node6</title>
<g id="a_edge6_Node000005_Node000006"><a xlink:title=" ">
<path fill="none" stroke="#63b8ff" d="M354.12,-165.66C354.12,-156.93 354.12,-146.99 354.12,-140.09"/>
<polygon fill="#63b8ff" stroke="#63b8ff" points="350.62,-165.75 354.12,-175.75 357.62,-165.75 350.62,-165.75"/>
</a>
</g>
</g>
<!-- Node5&#45;&gt;Node7 -->
<g id="edge9_Node000005_Node000007" class="edge">
<title>Node5&#45;&gt;Node7</title>
<g id="a_edge9_Node000005_Node000007"><a xlink:title=" ">
<path fill="none" stroke="#63b8ff" d="M383.31,-171.34C398.19,-163.66 415.88,-152.93 429.12,-140 468.2,-101.83 496.83,-41.23 506.53,-19.02"/>
<polygon fill="#63b8ff" stroke="#63b8ff" points="381.42,-168.37 374.01,-175.94 384.53,-174.64 381.42,-168.37"/>
</a>
</g>
</g>
<!-- Node9 -->
<g id="Node000009" class="node">
<title>Node9</title>
<g id="a_Node000009"><a xlink:href="population_8cpp.html" target="_top" xlink:title=" ">
<polygon fill="white" stroke="#666666" points="270.12,-140 164.12,-140 164.12,-121 270.12,-121 270.12,-140"/>
<text text-anchor="middle" x="217.12" y="-128" font-family="Helvetica,sans-Serif" font-size="10.00">src/population.cpp</text>
</a>
</g>
</g>
<!-- Node5&#45;&gt;Node9 -->
<g id="edge10_Node000005_Node000009" class="edge">
<title>Node5&#45;&gt;Node9</title>
<g id="a_edge10_Node000005_Node000009"><a xlink:title=" ">
<path fill="none" stroke="#63b8ff" d="M322.56,-172.29C297.17,-162.47 262.11,-148.91 239.53,-140.17"/>
<polygon fill="#63b8ff" stroke="#63b8ff" points="321.52,-175.64 332.11,-175.98 324.04,-169.11 321.52,-175.64"/>
</a>
</g>
</g>
<!-- Node10 -->
<g id="Node000010" class="node">
<title>Node10</title>
<g id="a_Node000010"><a xlink:href="stock_8cpp.html" target="_top" xlink:title=" ">
<polygon fill="white" stroke="#666666" points="556.12,-140 476.12,-140 476.12,-121 556.12,-121 556.12,-140"/>
<text text-anchor="middle" x="516.12" y="-128" font-family="Helvetica,sans-Serif" font-size="10.00">src/stock.cpp</text>
</a>
</g>
</g>
<!-- Node5&#45;&gt;Node10 -->
<g id="edge11_Node000005_Node000010" class="edge">
<title>Node5&#45;&gt;Node10</title>
<g id="a_edge11_Node000005_Node000010"><a xlink:title=" ">
<path fill="none" stroke="#63b8ff" d="M389.88,-172.8C420.12,-162.91 462.73,-148.97 489.89,-140.08"/>
<polygon fill="#63b8ff" stroke="#63b8ff" points="388.56,-169.55 380.15,-175.98 390.74,-176.2 388.56,-169.55"/>
</a>
</g>
</g>
<!-- Node6&#45;&gt;Node7 -->
<g id="edge7_Node000006_Node000007" class="edge">
<title>Node6&#45;&gt;Node7</title>
<g id="a_edge7_Node000006_Node000007"><a xlink:title=" ">
<path fill="none" stroke="#63b8ff" d="M369.62,-113.09C385.1,-97.2 410,-72.95 434.12,-55 453.25,-40.76 477.29,-27.35 493.15,-19.05"/>
<polygon fill="#63b8ff" stroke="#63b8ff" points="366.85,-110.93 362.44,-120.56 371.89,-115.78 366.85,-110.93"/>
</a>
</g>
</g>
<!-- Node8 -->
<g id="Node000008" class="node">
<title>Node8</title>
<g id="a_Node000008"><a xlink:href="simulator_8cpp.html" target="_top" xlink:title=" ">
<polygon fill="white" stroke="#666666" points="382.12,-79.5 282.12,-79.5 282.12,-60.5 382.12,-60.5 382.12,-79.5"/>
<text text-anchor="middle" x="332.12" y="-67.5" font-family="Helvetica,sans-Serif" font-size="10.00">src/simulator.cpp</text>
</a>
</g>
</g>
<!-- Node6&#45;&gt;Node8 -->
<g id="edge8_Node000006_Node000008" class="edge">
<title>Node6&#45;&gt;Node8</title>
<g id="a_edge8_Node000006_Node000008"><a xlink:title=" ">
<path fill="none" stroke="#63b8ff" d="M347.28,-111.32C343.32,-100.78 338.5,-87.98 335.38,-79.67"/>
<polygon fill="#63b8ff" stroke="#63b8ff" points="344.08,-112.74 350.87,-120.87 350.63,-110.28 344.08,-112.74"/>
</a>
</g>
</g>
<!-- Node11&#45;&gt;Node7 -->
<g id="edge20_Node000011_Node000007" class="edge">
<title>Node11&#45;&gt;Node7</title>
<g id="a_edge20_Node000011_Node000007"><a xlink:title=" ">
<path fill="none" stroke="#63b8ff" d="M593.51,-166.52C573.74,-129.54 529.19,-46.18 514.74,-19.14"/>
<polygon fill="#63b8ff" stroke="#63b8ff" points="590.58,-168.46 598.38,-175.63 596.75,-165.16 590.58,-168.46"/>
</a>
</g>
</g>
<!-- Node11&#45;&gt;Node10 -->
<g id="edge22_Node000011_Node000010" class="edge">
<title>Node11&#45;&gt;Node10</title>
<g id="a_edge22_Node000011_Node000010"><a xlink:title=" ">
<path fill="none" stroke="#63b8ff" d="M580.46,-170.7C564.61,-161.04 543.93,-148.44 530.35,-140.17"/>
<polygon fill="#63b8ff" stroke="#63b8ff" points="578.78,-173.77 589.14,-175.98 582.42,-167.79 578.78,-173.77"/>
</a>
</g>
</g>
<!-- Node11&#45;&gt;Node12 -->
<g id="edge13_Node000011_Node000012" class="edge">
<title>Node11&#45;&gt;Node12</title>
<g id="a_edge13_Node000011_Node000012"><a xlink:title=" ">
<path fill="none" stroke="#63b8ff" d="M669.13,-181.52C702.5,-176.67 741.28,-165.4 767.12,-140 781.88,-125.49 785.91,-100.78 786.91,-85.21"/>
<polygon fill="#63b8ff" stroke="#63b8ff" points="668.44,-178.08 658.97,-182.83 669.34,-185.02 668.44,-178.08"/>
</a>
</g>
</g>
<!-- Node14 -->
<g id="Node000014" class="node">
<title>Node14</title>
<g id="a_Node000014"><a xlink:href="fleet_8h.html" target="_top" xlink:title=" ">
<polygon fill="white" stroke="#666666" points="757.62,-140 650.62,-140 650.62,-121 757.62,-121 757.62,-140"/>
<text text-anchor="middle" x="704.12" y="-128" font-family="Helvetica,sans-Serif" font-size="10.00">inst/include/fleet.h</text>
</a>
</g>
</g>
<!-- Node11&#45;&gt;Node14 -->
<g id="edge16_Node000011_Node000014" class="edge">
<title>Node11&#45;&gt;Node14</title>
<g id="a_edge16_Node000011_Node000014"><a xlink:title=" ">
<path fill="none" stroke="#63b8ff" d="M628.4,-171.23C646.92,-161.51 671.53,-148.6 687.6,-140.17"/>
<polygon fill="#63b8ff" stroke="#63b8ff" points="626.57,-168.24 619.35,-175.98 629.83,-174.44 626.57,-168.24"/>
</a>
</g>
</g>
<!-- Node15 -->
<g id="Node000015" class="node">
<title>Node15</title>
<g id="a_Node000015"><a xlink:href="fleet_8cpp.html" target="_top" xlink:title=" ">
<polygon fill="white" stroke="#666666" points="676.12,-79.5 600.12,-79.5 600.12,-60.5 676.12,-60.5 676.12,-79.5"/>
<text text-anchor="middle" x="638.12" y="-67.5" font-family="Helvetica,sans-Serif" font-size="10.00">src/fleet.cpp</text>
</a>
</g>
</g>
<!-- Node11&#45;&gt;Node15 -->
<g id="edge21_Node000011_Node000015" class="edge">
<title>Node11&#45;&gt;Node15</title>
<g id="a_edge21_Node000011_Node000015"><a xlink:title=" ">
<path fill="none" stroke="#63b8ff" d="M608.72,-166.32C616.37,-141.52 629.78,-98.04 635.46,-79.63"/>
<polygon fill="#63b8ff" stroke="#63b8ff" points="605.35,-165.38 605.75,-175.97 612.04,-167.44 605.35,-165.38"/>
</a>
</g>
</g>
<!-- Node12&#45;&gt;Node7 -->
<g id="edge14_Node000012_Node000007" class="edge">
<title>Node12&#45;&gt;Node7</title>
<g id="a_edge14_Node000012_Node000007"><a xlink:title=" ">
<path fill="none" stroke="#63b8ff" d="M722.37,-55.33C669.16,-44.09 595.45,-28.52 550.37,-19"/>
<polygon fill="#63b8ff" stroke="#63b8ff" points="721.88,-58.8 732.39,-57.44 723.33,-51.95 721.88,-58.8"/>
</a>
</g>
</g>
<!-- Node13 -->
<g id="Node000013" class="node">
<title>Node13</title>
<g id="a_Node000013"><a xlink:href="fishery__system_8cpp.html" target="_top" xlink:title=" ">
<polygon fill="white" stroke="#666666" points="851.12,-19 723.12,-19 723.12,0 851.12,0 851.12,-19"/>
<text text-anchor="middle" x="787.12" y="-7" font-family="Helvetica,sans-Serif" font-size="10.00">src/fishery_system.cpp</text>
</a>
</g>
</g>
<!-- Node12&#45;&gt;Node13 -->
<g id="edge15_Node000012_Node000013" class="edge">
<title>Node12&#45;&gt;Node13</title>
<g id="a_edge15_Node000012_Node000013"><a xlink:title=" ">
<path fill="none" stroke="#63b8ff" d="M787.12,-44.75C787.12,-35.72 787.12,-26.03 787.12,-19.27"/>
<polygon fill="#63b8ff" stroke="#63b8ff" points="783.62,-44.84 787.12,-54.84 790.62,-44.84 783.62,-44.84"/>
</a>
</g>
</g>
<!-- Node14&#45;&gt;Node7 -->
<g id="edge18_Node000014_Node000007" class="edge">
<title>Node14&#45;&gt;Node7</title>
<g id="a_edge18_Node000014_Node000007"><a xlink:title=" ">
<path fill="none" stroke="#63b8ff" d="M704.4,-110.49C703.6,-93.66 699.69,-69.57 685.12,-55 667.54,-37.44 604.65,-24.56 559.29,-17.31"/>
<polygon fill="#63b8ff" stroke="#63b8ff" points="700.91,-110.83 704.56,-120.77 707.91,-110.72 700.91,-110.83"/>
</a>
</g>
</g>
<!-- Node14&#45;&gt;Node12 -->
<g id="edge17_Node000014_Node000012" class="edge">
<title>Node14&#45;&gt;Node12</title>
<g id="a_edge17_Node000014_Node000012"><a xlink:title=" ">
<path fill="none" stroke="#63b8ff" d="M724.65,-115.03C737.6,-105.9 754.24,-94.17 767.09,-85.11"/>
<polygon fill="#63b8ff" stroke="#63b8ff" points="722.52,-112.25 716.36,-120.87 726.56,-117.97 722.52,-112.25"/>
</a>
</g>
</g>
<!-- Node14&#45;&gt;Node15 -->
<g id="edge19_Node000014_Node000015" class="edge">
<title>Node14&#45;&gt;Node15</title>
<g id="a_edge19_Node000014_Node000015"><a xlink:title=" ">
<path fill="none" stroke="#63b8ff" d="M686.88,-114.22C674.46,-103.21 658.15,-88.75 647.9,-79.67"/>
<polygon fill="#63b8ff" stroke="#63b8ff" points="684.57,-116.85 694.38,-120.87 689.22,-111.62 684.57,-116.85"/>
</a>
</g>
</g>
</g>
</svg>
