<?xml version="1.0" encoding="UTF-8" standalone="no"?>
<!DOCTYPE svg PUBLIC "-//W3C//DTD SVG 1.1//EN"
 "http://www.w3.org/Graphics/SVG/1.1/DTD/svg11.dtd">
<!-- Generated by graphviz version 2.43.0 (0)
 -->
<!-- Title: inst/include/linreg.h Pages: 1 -->
<svg width="356pt" height="82pt"
 viewBox="0.00 0.00 355.50 82.00" xmlns="http://www.w3.org/2000/svg" xmlns:xlink="http://www.w3.org/1999/xlink">
<g id="graph0" class="graph" transform="scale(1 1) rotate(0) translate(4 78)">
<title>inst/include/linreg.h</title>
<!-- Node1 -->
<g id="Node000001" class="node">
<title>Node1</title>
<g id="a_Node000001"><a xlink:title=" ">
<polygon fill="#999999" stroke="#666666" points="224,-74 111,-74 111,-55 224,-55 224,-74"/>
<text text-anchor="middle" x="167.5" y="-62" font-family="Helvetica,sans-Serif" font-size="10.00">inst/include/linreg.h</text>
</a>
</g>
</g>
<!-- Node2 -->
<g id="Node000002" class="node">
<title>Node2</title>
<g id="a_Node000002"><a xlink:title=" ">
<polygon fill="#e0e0e0" stroke="#999999" points="47,-19 0,-19 0,0 47,0 47,-19"/>
<text text-anchor="middle" x="23.5" y="-7" font-family="Helvetica,sans-Serif" font-size="10.00">vector</text>
</a>
</g>
</g>
<!-- Node1&#45;&gt;Node2 -->
<g id="edge1_Node000001_Node000002" class="edge">
<title>Node1&#45;&gt;Node2</title>
<g id="a_edge1_Node000001_Node000002"><a xlink:title=" ">
<path fill="none" stroke="#63b8ff" d="M144.36,-54.98C120.68,-46.27 83.63,-32.63 56.79,-22.75"/>
<polygon fill="#63b8ff" stroke="#63b8ff" points="57.65,-19.34 47.06,-19.17 55.23,-25.91 57.65,-19.34"/>
</a>
</g>
</g>
<!-- Node3 -->
<g id="Node000003" class="node">
<title>Node3</title>
<g id="a_Node000003"><a xlink:title=" ">
<polygon fill="#e0e0e0" stroke="#999999" points="125.5,-19 65.5,-19 65.5,0 125.5,0 125.5,-19"/>
<text text-anchor="middle" x="95.5" y="-7" font-family="Helvetica,sans-Serif" font-size="10.00">iostream</text>
</a>
</g>
</g>
<!-- Node1&#45;&gt;Node3 -->
<g id="edge2_Node000001_Node000003" class="edge">
<title>Node1&#45;&gt;Node3</title>
<g id="a_edge2_Node000001_Node000003"><a xlink:title=" ">
<path fill="none" stroke="#63b8ff" d="M155.93,-54.98C145.08,-47 128.62,-34.88 115.62,-25.31"/>
<polygon fill="#63b8ff" stroke="#63b8ff" points="117.41,-22.28 107.28,-19.17 113.26,-27.92 117.41,-22.28"/>
</a>
</g>
</g>
<!-- Node4 -->
<g id="Node000004" class="node">
<title>Node4</title>
<g id="a_Node000004"><a xlink:title=" ">
<polygon fill="#e0e0e0" stroke="#999999" points="191,-19 144,-19 144,0 191,0 191,-19"/>
<text text-anchor="middle" x="167.5" y="-7" font-family="Helvetica,sans-Serif" font-size="10.00">cmath</text>
</a>
</g>
</g>
<!-- Node1&#45;&gt;Node4 -->
<g id="edge3_Node000001_Node000004" class="edge">
<title>Node1&#45;&gt;Node4</title>
<g id="a_edge3_Node000001_Node000004"><a xlink:title=" ">
<path fill="none" stroke="#63b8ff" d="M167.5,-54.75C167.5,-47.8 167.5,-37.85 167.5,-29.13"/>
<polygon fill="#63b8ff" stroke="#63b8ff" points="171,-29.09 167.5,-19.09 164,-29.09 171,-29.09"/>
</a>
</g>
</g>
<!-- Node5 -->
<g id="Node000005" class="node">
<title>Node5</title>
<g id="a_Node000005"><a xlink:title=" ">
<polygon fill="#e0e0e0" stroke="#999999" points="273.5,-19 209.5,-19 209.5,0 273.5,0 273.5,-19"/>
<text text-anchor="middle" x="241.5" y="-7" font-family="Helvetica,sans-Serif" font-size="10.00">algorithm</text>
</a>
</g>
</g>
<!-- Node1&#45;&gt;Node5 -->
<g id="edge4_Node000001_Node000005" class="edge">
<title>Node1&#45;&gt;Node5</title>
<g id="a_edge4_Node000001_Node000005"><a xlink:title=" ">
<path fill="none" stroke="#63b8ff" d="M179.39,-54.98C190.65,-46.92 207.79,-34.65 221.21,-25.03"/>
<polygon fill="#63b8ff" stroke="#63b8ff" points="223.3,-27.84 229.39,-19.17 219.23,-22.15 223.3,-27.84"/>
</a>
</g>
</g>
<!-- Node6 -->
<g id="Node000006" class="node">
<title>Node6</title>
<g id="a_Node000006"><a xlink:title=" ">
<polygon fill="#e0e0e0" stroke="#999999" points="347.5,-19 291.5,-19 291.5,0 347.5,0 347.5,-19"/>
<text text-anchor="middle" x="319.5" y="-7" font-family="Helvetica,sans-Serif" font-size="10.00">numeric</text>
</a>
</g>
</g>
<!-- Node1&#45;&gt;Node6 -->
<g id="edge5_Node000001_Node000006" class="edge">
<title>Node1&#45;&gt;Node6</title>
<g id="a_edge5_Node000001_Node000006"><a xlink:title=" ">
<path fill="none" stroke="#63b8ff" d="M191.92,-54.98C217.22,-46.16 256.95,-32.31 285.36,-22.41"/>
<polygon fill="#63b8ff" stroke="#63b8ff" points="286.6,-25.68 294.89,-19.08 284.29,-19.07 286.6,-25.68"/>
</a>
</g>
</g>
</g>
</svg>
