<?xml version="1.0" encoding="UTF-8" standalone="no"?>
<!DOCTYPE svg PUBLIC "-//W3C//DTD SVG 1.1//EN"
 "http://www.w3.org/Graphics/SVG/1.1/DTD/svg11.dtd">
<!-- Generated by graphviz version 2.43.0 (0)
 -->
<!-- Title: fish::natural_mortality Pages: 1 -->
<svg width="432pt" height="47pt"
 viewBox="0.00 0.00 432.00 47.00" xmlns="http://www.w3.org/2000/svg" xmlns:xlink="http://www.w3.org/1999/xlink">
<g id="graph0" class="graph" transform="scale(1 1) rotate(0) translate(4 43)">
<title>fish::natural_mortality</title>
<!-- Node1 -->
<g id="node1" class="node">
<title>Node1</title>
<g id="a_node1"><a xlink:title="Calculate the instantaneous natural mortality.">
<polygon fill="#bfbfbf" stroke="black" points="299,-19.5 299,-38.5 424,-38.5 424,-19.5 299,-19.5"/>
<text text-anchor="middle" x="361.5" y="-26.5" font-family="Helvetica,sans-Serif" font-size="10.00">fish::natural_mortality</text>
</a>
</g>
</g>
<!-- Node2 -->
<g id="node2" class="node">
<title>Node2</title>
<g id="a_node2"><a xlink:href="fish__glue_8cpp.html#a7b6a9b6d94c71377c935b2cfbffdfabc" target="_top" xlink:title=" ">
<polygon fill="none" stroke="black" points="0,-19.5 0,-38.5 90,-38.5 90,-19.5 0,-19.5"/>
<text text-anchor="middle" x="45" y="-26.5" font-family="Helvetica,sans-Serif" font-size="10.00">RCPP_MODULE</text>
</a>
</g>
</g>
<!-- Node1&#45;&gt;Node2 -->
<g id="edge1" class="edge">
<title>Node1&#45;&gt;Node2</title>
<path fill="none" stroke="midnightblue" d="M288.4,-29C227.37,-29 141.83,-29 90.38,-29"/>
<polygon fill="midnightblue" stroke="midnightblue" points="288.74,-32.5 298.74,-29 288.74,-25.5 288.74,-32.5"/>
</g>
<!-- Node3 -->
<g id="node3" class="node">
<title>Node3</title>
<g id="a_node3"><a xlink:href="namespacefish.html#a8145736f4c8af31563881d90bf61cbf0" target="_top" xlink:title="Calculate survival probability over a time interval dt (years)">
<polygon fill="none" stroke="black" points="126,-0.5 126,-19.5 263,-19.5 263,-0.5 126,-0.5"/>
<text text-anchor="middle" x="194.5" y="-7.5" font-family="Helvetica,sans-Serif" font-size="10.00">fish::survival_probability</text>
</a>
</g>
</g>
<!-- Node1&#45;&gt;Node3 -->
<g id="edge2" class="edge">
<title>Node1&#45;&gt;Node3</title>
<path fill="none" stroke="midnightblue" d="M288.4,-20.7C279.96,-19.73 271.38,-18.74 263.01,-17.77"/>
<polygon fill="midnightblue" stroke="midnightblue" points="288.26,-24.2 298.59,-21.87 289.06,-17.25 288.26,-24.2"/>
</g>
<!-- Node3&#45;&gt;Node2 -->
<g id="edge3" class="edge">
<title>Node3&#45;&gt;Node2</title>
<path fill="none" stroke="midnightblue" d="M115.83,-20C107.01,-21.14 98.27,-22.27 90.1,-23.32"/>
<polygon fill="midnightblue" stroke="midnightblue" points="116.32,-23.47 125.79,-18.72 115.43,-16.53 116.32,-23.47"/>
</g>
</g>
</svg>
