<?xml version="1.0" encoding="UTF-8" standalone="no"?>
<!DOCTYPE svg PUBLIC "-//W3C//DTD SVG 1.1//EN"
 "http://www.w3.org/Graphics/SVG/1.1/DTD/svg11.dtd">
<!-- Generated by graphviz version 2.43.0 (0)
 -->
<!-- Title: fish::dl_power Pages: 1 -->
<svg width="873pt" height="243pt"
 viewBox="0.00 0.00 873.00 243.41" xmlns="http://www.w3.org/2000/svg" xmlns:xlink="http://www.w3.org/1999/xlink">
<g id="graph0" class="graph" transform="scale(1 1) rotate(0) translate(4 239.41)">
<title>fish::dl_power</title>
<!-- Node1 -->
<g id="node1" class="node">
<title>Node1</title>
<g id="a_node1"><a xlink:title="Compute the nonlinear growth increment , as follows.">
<polygon fill="#bfbfbf" stroke="black" points="780,-149 780,-168 865,-168 865,-149 780,-149"/>
<text text-anchor="middle" x="822.5" y="-156" font-family="Helvetica,sans-Serif" font-size="10.00">fish::dl_power</text>
</a>
</g>
</g>
<!-- Node2 -->
<g id="node2" class="node">
<title>Node2</title>
<g id="a_node2"><a xlink:href="classFish.html#abe4b5c9e5d1f6d3c56cc6be997db71cd" target="_top" xlink:title="Implement growth, i.e., set new length and effective GSI after 1 year of growth.">
<polygon fill="none" stroke="black" points="679,-168 679,-187 744,-187 744,-168 679,-168"/>
<text text-anchor="middle" x="711.5" y="-175" font-family="Helvetica,sans-Serif" font-size="10.00">Fish::grow</text>
</a>
</g>
</g>
<!-- Node1&#45;&gt;Node2 -->
<g id="edge1" class="edge">
<title>Node1&#45;&gt;Node2</title>
<path fill="none" stroke="midnightblue" d="M770.06,-167.47C761.19,-169.01 752.21,-170.58 744.07,-172"/>
<polygon fill="midnightblue" stroke="midnightblue" points="770.73,-170.9 779.98,-165.74 769.53,-164.01 770.73,-170.9"/>
</g>
<!-- Node4 -->
<g id="node4" class="node">
<title>Node4</title>
<g id="a_node4"><a xlink:href="classFish.html#adf85bf269f1651352506e371ffd2cecc" target="_top" xlink:title="Initializes the fish, i.e., initializes parameters and sets the initial state (age = 1,...">
<polygon fill="none" stroke="black" points="683,-130 683,-149 740,-149 740,-130 683,-130"/>
<text text-anchor="middle" x="711.5" y="-137" font-family="Helvetica,sans-Serif" font-size="10.00">Fish::init</text>
</a>
</g>
</g>
<!-- Node1&#45;&gt;Node4 -->
<g id="edge3" class="edge">
<title>Node1&#45;&gt;Node4</title>
<path fill="none" stroke="midnightblue" d="M769.81,-149.49C759.54,-147.7 749.14,-145.89 740.07,-144.31"/>
<polygon fill="midnightblue" stroke="midnightblue" points="769.53,-152.99 779.98,-151.26 770.73,-146.1 769.53,-152.99"/>
</g>
<!-- Node3 -->
<g id="node3" class="node">
<title>Node3</title>
<g id="a_node3"><a xlink:href="fish__glue_8cpp.html#a7b6a9b6d94c71377c935b2cfbffdfabc" target="_top" xlink:title=" ">
<polygon fill="none" stroke="black" points="544,-168 544,-187 634,-187 634,-168 544,-168"/>
<text text-anchor="middle" x="589" y="-175" font-family="Helvetica,sans-Serif" font-size="10.00">RCPP_MODULE</text>
</a>
</g>
</g>
<!-- Node2&#45;&gt;Node3 -->
<g id="edge2" class="edge">
<title>Node2&#45;&gt;Node3</title>
<path fill="none" stroke="midnightblue" d="M668.52,-177.5C657.4,-177.5 645.36,-177.5 634.13,-177.5"/>
<polygon fill="midnightblue" stroke="midnightblue" points="668.84,-181 678.84,-177.5 668.84,-174 668.84,-181"/>
</g>
<!-- Node4&#45;&gt;Node3 -->
<g id="edge18" class="edge">
<title>Node4&#45;&gt;Node3</title>
<path fill="none" stroke="midnightblue" d="M673.26,-151.24C656.32,-156.59 636.52,-162.83 620.48,-167.89"/>
<polygon fill="midnightblue" stroke="midnightblue" points="674.37,-154.56 682.85,-148.22 672.27,-147.89 674.37,-154.56"/>
</g>
<!-- Node5 -->
<g id="node5" class="node">
<title>Node5</title>
<g id="a_node5"><a xlink:href="classPopulation.html#a012ef586a78b4e7c2082634b316072d0" target="_top" xlink:title=" ">
<polygon fill="none" stroke="black" points="544,-91 544,-110 634,-110 634,-91 544,-91"/>
<text text-anchor="middle" x="589" y="-98" font-family="Helvetica,sans-Serif" font-size="10.00">Population::init</text>
</a>
</g>
</g>
<!-- Node4&#45;&gt;Node5 -->
<g id="edge4" class="edge">
<title>Node4&#45;&gt;Node5</title>
<path fill="none" stroke="midnightblue" d="M673.11,-127.4C655.9,-121.83 635.76,-115.31 619.62,-110.09"/>
<polygon fill="midnightblue" stroke="midnightblue" points="672.26,-130.8 682.85,-130.55 674.42,-124.14 672.26,-130.8"/>
</g>
<!-- Node15 -->
<g id="node15" class="node">
<title>Node15</title>
<g id="a_node15"><a xlink:href="classPopulation.html#a81c19d1c80cfb1d54d3872ecdefd0872" target="_top" xlink:title=" ">
<polygon fill="none" stroke="black" points="535,-130 535,-149 643,-149 643,-130 535,-130"/>
<text text-anchor="middle" x="589" y="-137" font-family="Helvetica,sans-Serif" font-size="10.00">Population::update</text>
</a>
</g>
</g>
<!-- Node4&#45;&gt;Node15 -->
<g id="edge19" class="edge">
<title>Node4&#45;&gt;Node15</title>
<path fill="none" stroke="midnightblue" d="M672.69,-139.5C663.31,-139.5 653.09,-139.5 643.13,-139.5"/>
<polygon fill="midnightblue" stroke="midnightblue" points="672.85,-143 682.85,-139.5 672.85,-136 672.85,-143"/>
</g>
<!-- Node6 -->
<g id="node6" class="node">
<title>Node6</title>
<g id="a_node6"><a xlink:href="classPopulation.html#aa7eba257f23cbc12aa3673ce012fb2cb" target="_top" xlink:title=" ">
<polygon fill="none" stroke="black" points="323,-88 323,-107 499,-107 499,-88 323,-88"/>
<text text-anchor="middle" x="411" y="-95" font-family="Helvetica,sans-Serif" font-size="10.00">Population::noFishingEquilibriate</text>
</a>
</g>
</g>
<!-- Node5&#45;&gt;Node6 -->
<g id="edge5" class="edge">
<title>Node5&#45;&gt;Node6</title>
<path fill="none" stroke="midnightblue" d="M533.45,-99.57C522.59,-99.39 510.94,-99.19 499.3,-98.99"/>
<polygon fill="midnightblue" stroke="midnightblue" points="533.53,-103.07 543.59,-99.74 533.65,-96.07 533.53,-103.07"/>
</g>
<!-- Node9 -->
<g id="node9" class="node">
<title>Node9</title>
<g id="a_node9"><a xlink:href="fish__glue_8cpp.html#ab96ae82277aa9004dc603b77512c7265" target="_top" xlink:title=" ">
<polygon fill="none" stroke="black" points="161.5,-50 161.5,-69 251.5,-69 251.5,-50 161.5,-50"/>
<text text-anchor="middle" x="206.5" y="-57" font-family="Helvetica,sans-Serif" font-size="10.00">RCPP_MODULE</text>
</a>
</g>
</g>
<!-- Node5&#45;&gt;Node9 -->
<g id="edge9" class="edge">
<title>Node5&#45;&gt;Node9</title>
<path fill="none" stroke="midnightblue" d="M545.53,-88.38C530.9,-84.63 514.34,-80.88 499,-78.5 412.05,-65.03 309.06,-61.09 251.72,-59.95"/>
<polygon fill="midnightblue" stroke="midnightblue" points="544.75,-91.79 555.31,-90.95 546.53,-85.02 544.75,-91.79"/>
</g>
<!-- Node10 -->
<g id="node10" class="node">
<title>Node10</title>
<g id="a_node10"><a xlink:href="classSimulator.html#a7540919b97662be7deacba9194c0ed60" target="_top" xlink:title=" ">
<polygon fill="none" stroke="black" points="354.5,-126.5 354.5,-156.5 467.5,-156.5 467.5,-126.5 354.5,-126.5"/>
<text text-anchor="start" x="362.5" y="-144.5" font-family="Helvetica,sans-Serif" font-size="10.00">Simulator::simulate</text>
<text text-anchor="middle" x="411" y="-133.5" font-family="Helvetica,sans-Serif" font-size="10.00">_multi</text>
</a>
</g>
</g>
<!-- Node5&#45;&gt;Node10 -->
<g id="edge10" class="edge">
<title>Node5&#45;&gt;Node10</title>
<path fill="none" stroke="midnightblue" d="M537.44,-112.28C515.59,-117.37 489.97,-123.34 467.6,-128.55"/>
<polygon fill="midnightblue" stroke="midnightblue" points="538.23,-115.69 547.18,-110.01 536.65,-108.87 538.23,-115.69"/>
</g>
<!-- Node12 -->
<g id="node12" class="node">
<title>Node12</title>
<g id="a_node12"><a xlink:href="classSimulator.html#ab21d1c6b0af00931f9a8fa5e0b6d417f" target="_top" xlink:title=" ">
<polygon fill="none" stroke="black" points="354.5,-0.5 354.5,-30.5 467.5,-30.5 467.5,-0.5 354.5,-0.5"/>
<text text-anchor="start" x="362.5" y="-18.5" font-family="Helvetica,sans-Serif" font-size="10.00">Simulator::simulate</text>
<text text-anchor="middle" x="411" y="-7.5" font-family="Helvetica,sans-Serif" font-size="10.00">_multi_2d</text>
</a>
</g>
</g>
<!-- Node5&#45;&gt;Node12 -->
<g id="edge13" class="edge">
<title>Node5&#45;&gt;Node12</title>
<path fill="none" stroke="midnightblue" d="M566.27,-85.17C548.7,-73.26 523.04,-56.9 499,-45.5 487.31,-39.96 474.3,-34.92 461.99,-30.62"/>
<polygon fill="midnightblue" stroke="midnightblue" points="564.44,-88.16 574.66,-90.94 568.4,-82.39 564.44,-88.16"/>
</g>
<!-- Node14 -->
<g id="node14" class="node">
<title>Node14</title>
<g id="a_node14"><a xlink:href="classSimulator.html#aa6e6cfd73fd8d3200e7f515b473e88f2" target="_top" xlink:title=" ">
<polygon fill="none" stroke="black" points="350,-176 350,-195 472,-195 472,-176 350,-176"/>
<text text-anchor="middle" x="411" y="-183" font-family="Helvetica,sans-Serif" font-size="10.00">Simulator::simulate_r</text>
</a>
</g>
</g>
<!-- Node5&#45;&gt;Node14 -->
<g id="edge16" class="edge">
<title>Node5&#45;&gt;Node14</title>
<path fill="none" stroke="midnightblue" d="M545.25,-114.26C541.65,-116.12 538.18,-118.19 535,-120.5 514.28,-135.56 520.69,-151.87 499,-165.5 490.86,-170.61 481.57,-174.42 472.15,-177.26"/>
<polygon fill="midnightblue" stroke="midnightblue" points="546.74,-117.43 554.37,-110.08 543.83,-111.06 546.74,-117.43"/>
</g>
<!-- Node7 -->
<g id="node7" class="node">
<title>Node7</title>
<g id="a_node7"><a xlink:href="classSimulator.html#ad02f472064f23f03ae474cb4904d2c56" target="_top" xlink:title=" ">
<polygon fill="none" stroke="black" points="126,-88.5 126,-118.5 287,-118.5 287,-88.5 126,-88.5"/>
<text text-anchor="start" x="134" y="-106.5" font-family="Helvetica,sans-Serif" font-size="10.00">Simulator::equilibriateNatural</text>
<text text-anchor="middle" x="206.5" y="-95.5" font-family="Helvetica,sans-Serif" font-size="10.00">Population</text>
</a>
</g>
</g>
<!-- Node6&#45;&gt;Node7 -->
<g id="edge6" class="edge">
<title>Node6&#45;&gt;Node7</title>
<path fill="none" stroke="midnightblue" d="M312.86,-100.38C304.24,-100.63 295.58,-100.89 287.12,-101.14"/>
<polygon fill="midnightblue" stroke="midnightblue" points="313.05,-103.87 322.95,-100.08 312.85,-96.88 313.05,-103.87"/>
</g>
<!-- Node6&#45;&gt;Node9 -->
<g id="edge8" class="edge">
<title>Node6&#45;&gt;Node9</title>
<path fill="none" stroke="midnightblue" d="M349.23,-86.1C317.9,-80.22 280.38,-73.18 251.82,-67.82"/>
<polygon fill="midnightblue" stroke="midnightblue" points="348.69,-89.56 359.16,-87.96 349.98,-82.68 348.69,-89.56"/>
</g>
<!-- Node8 -->
<g id="node8" class="node">
<title>Node8</title>
<g id="a_node8"><a xlink:href="fish__glue_8cpp.html#addebb0997b0e49067d8784c9954b7b96" target="_top" xlink:title=" ">
<polygon fill="none" stroke="black" points="0,-118 0,-137 90,-137 90,-118 0,-118"/>
<text text-anchor="middle" x="45" y="-125" font-family="Helvetica,sans-Serif" font-size="10.00">RCPP_MODULE</text>
</a>
</g>
</g>
<!-- Node7&#45;&gt;Node8 -->
<g id="edge7" class="edge">
<title>Node7&#45;&gt;Node8</title>
<path fill="none" stroke="midnightblue" d="M115.68,-117.02C106.8,-118.35 98.1,-119.66 90.01,-120.88"/>
<polygon fill="midnightblue" stroke="midnightblue" points="116.38,-120.45 125.75,-115.5 115.34,-113.53 116.38,-120.45"/>
</g>
<!-- Node11 -->
<g id="node11" class="node">
<title>Node11</title>
<g id="a_node11"><a xlink:href="classSimulator.html#a1a5454ee4736819d709398b225d7876d" target="_top" xlink:title=" ">
<polygon fill="none" stroke="black" points="150,-137.5 150,-167.5 263,-167.5 263,-137.5 150,-137.5"/>
<text text-anchor="start" x="158" y="-155.5" font-family="Helvetica,sans-Serif" font-size="10.00">Simulator::simulate</text>
<text text-anchor="middle" x="206.5" y="-144.5" font-family="Helvetica,sans-Serif" font-size="10.00">_multi_r</text>
</a>
</g>
</g>
<!-- Node10&#45;&gt;Node11 -->
<g id="edge11" class="edge">
<title>Node10&#45;&gt;Node11</title>
<path fill="none" stroke="midnightblue" d="M344.21,-145.07C318.09,-146.49 288.37,-148.11 263.33,-149.47"/>
<polygon fill="midnightblue" stroke="midnightblue" points="344.6,-148.56 354.4,-144.52 344.22,-141.57 344.6,-148.56"/>
</g>
<!-- Node11&#45;&gt;Node8 -->
<g id="edge12" class="edge">
<title>Node11&#45;&gt;Node8</title>
<path fill="none" stroke="midnightblue" d="M139.5,-142.16C122.89,-139.55 105.45,-136.82 90.2,-134.43"/>
<polygon fill="midnightblue" stroke="midnightblue" points="139.29,-145.67 149.71,-143.76 140.38,-138.75 139.29,-145.67"/>
</g>
<!-- Node13 -->
<g id="node13" class="node">
<title>Node13</title>
<g id="a_node13"><a xlink:href="classSimulator.html#af1b0a9562ecf0ad8f98d61576efba28b" target="_top" xlink:title=" ">
<polygon fill="none" stroke="black" points="150,-0.5 150,-30.5 263,-30.5 263,-0.5 150,-0.5"/>
<text text-anchor="start" x="158" y="-18.5" font-family="Helvetica,sans-Serif" font-size="10.00">Simulator::simulate</text>
<text text-anchor="middle" x="206.5" y="-7.5" font-family="Helvetica,sans-Serif" font-size="10.00">_multi_2d_r</text>
</a>
</g>
</g>
<!-- Node12&#45;&gt;Node13 -->
<g id="edge14" class="edge">
<title>Node12&#45;&gt;Node13</title>
<path fill="none" stroke="midnightblue" d="M344.21,-15.5C318.09,-15.5 288.37,-15.5 263.33,-15.5"/>
<polygon fill="midnightblue" stroke="midnightblue" points="344.4,-19 354.4,-15.5 344.4,-12 344.4,-19"/>
</g>
<!-- Node13&#45;&gt;Node8 -->
<g id="edge15" class="edge">
<title>Node13&#45;&gt;Node8</title>
<path fill="none" stroke="midnightblue" d="M140.63,-32.69C135.52,-35 130.58,-37.59 126,-40.5 92.75,-61.63 64.37,-100 52.26,-117.87"/>
<polygon fill="midnightblue" stroke="midnightblue" points="142.04,-35.89 149.94,-28.84 139.36,-29.43 142.04,-35.89"/>
</g>
<!-- Node14&#45;&gt;Node8 -->
<g id="edge17" class="edge">
<title>Node14&#45;&gt;Node8</title>
<path fill="none" stroke="midnightblue" d="M339.6,-193.13C281.13,-197.15 196.44,-197.57 126,-176.5 99,-168.43 71.96,-148.89 57.26,-137.07"/>
<polygon fill="midnightblue" stroke="midnightblue" points="340.12,-196.6 349.84,-192.37 339.61,-189.62 340.12,-196.6"/>
</g>
<!-- Node15&#45;&gt;Node6 -->
<g id="edge20" class="edge">
<title>Node15&#45;&gt;Node6</title>
<path fill="none" stroke="midnightblue" d="M542.32,-127.34C528.43,-123.74 513.12,-119.86 499,-116.5 485.46,-113.27 470.69,-109.97 457.23,-107.04"/>
<polygon fill="midnightblue" stroke="midnightblue" points="541.57,-130.76 552.13,-129.9 543.34,-123.99 541.57,-130.76"/>
</g>
<!-- Node15&#45;&gt;Node9 -->
<g id="edge21" class="edge">
<title>Node15&#45;&gt;Node9</title>
<path fill="none" stroke="midnightblue" d="M543.5,-153.26C540.52,-154.84 537.65,-156.58 535,-158.5 513.95,-173.7 522.34,-193.13 499,-204.5 428.68,-238.76 385.45,-251.61 323,-204.5 276.5,-169.43 329.07,-118.77 287,-78.5 277.47,-69.37 264.37,-64.37 251.55,-61.7"/>
<polygon fill="midnightblue" stroke="midnightblue" points="545.08,-156.39 552.67,-149.01 542.13,-150.04 545.08,-156.39"/>
</g>
<!-- Node15&#45;&gt;Node10 -->
<g id="edge22" class="edge">
<title>Node15&#45;&gt;Node10</title>
<path fill="none" stroke="midnightblue" d="M524.55,-140.22C505.9,-140.43 485.65,-140.66 467.54,-140.87"/>
<polygon fill="midnightblue" stroke="midnightblue" points="524.76,-143.72 534.72,-140.11 524.68,-136.72 524.76,-143.72"/>
</g>
<!-- Node15&#45;&gt;Node12 -->
<g id="edge23" class="edge">
<title>Node15&#45;&gt;Node12</title>
<path fill="none" stroke="midnightblue" d="M545.66,-125.73C541.93,-123.87 538.32,-121.8 535,-119.5 515.06,-105.7 516.93,-94.82 499,-78.5 479.14,-60.42 454.1,-42.75 435.98,-30.74"/>
<polygon fill="midnightblue" stroke="midnightblue" points="544.52,-129.06 555.08,-129.94 547.37,-122.66 544.52,-129.06"/>
</g>
<!-- Node15&#45;&gt;Node14 -->
<g id="edge24" class="edge">
<title>Node15&#45;&gt;Node14</title>
<path fill="none" stroke="midnightblue" d="M546.82,-152.07C531.82,-156.51 514.69,-161.41 499,-165.5 485.05,-169.14 469.76,-172.77 455.93,-175.92"/>
<polygon fill="midnightblue" stroke="midnightblue" points="548.24,-155.3 556.82,-149.09 546.24,-148.59 548.24,-155.3"/>
</g>
</g>
</svg>
