<?xml version="1.0" encoding="UTF-8" standalone="no"?>
<!DOCTYPE svg PUBLIC "-//W3C//DTD SVG 1.1//EN"
 "http://www.w3.org/Graphics/SVG/1.1/DTD/svg11.dtd">
<!-- Generated by graphviz version 2.43.0 (0)
 -->
<!-- Title: fish::fecundity Pages: 1 -->
<svg width="376pt" height="47pt"
 viewBox="0.00 0.00 376.00 47.00" xmlns="http://www.w3.org/2000/svg" xmlns:xlink="http://www.w3.org/1999/xlink">
<g id="graph0" class="graph" transform="scale(1 1) rotate(0) translate(4 43)">
<title>fish::fecundity</title>
<!-- Node1 -->
<g id="node1" class="node">
<title>Node1</title>
<g id="a_node1"><a xlink:title="Calculate the number of eggs produced per year by a fish of given weight,.">
<polygon fill="#bfbfbf" stroke="black" points="282,-0.5 282,-19.5 368,-19.5 368,-0.5 282,-0.5"/>
<text text-anchor="middle" x="325" y="-7.5" font-family="Helvetica,sans-Serif" font-size="10.00">fish::fecundity</text>
</a>
</g>
</g>
<!-- Node2 -->
<g id="node2" class="node">
<title>Node2</title>
<g id="a_node2"><a xlink:href="classFish.html#a9550ba7371eef86c50349864bcf05b4a" target="_top" xlink:title="Calculate the number of surviving recruits produced based on egg production and offspring survival un...">
<polygon fill="none" stroke="black" points="126,-19.5 126,-38.5 246,-38.5 246,-19.5 126,-19.5"/>
<text text-anchor="middle" x="186" y="-26.5" font-family="Helvetica,sans-Serif" font-size="10.00">Fish::produceRecruits</text>
</a>
</g>
</g>
<!-- Node1&#45;&gt;Node2 -->
<g id="edge1" class="edge">
<title>Node1&#45;&gt;Node2</title>
<path fill="none" stroke="midnightblue" d="M271.79,-17.24C263.42,-18.4 254.72,-19.61 246.21,-20.79"/>
<polygon fill="midnightblue" stroke="midnightblue" points="272.35,-20.7 281.78,-15.86 271.39,-13.76 272.35,-20.7"/>
</g>
<!-- Node3 -->
<g id="node3" class="node">
<title>Node3</title>
<g id="a_node3"><a xlink:href="fish__glue_8cpp.html#a7b6a9b6d94c71377c935b2cfbffdfabc" target="_top" xlink:title=" ">
<polygon fill="none" stroke="black" points="0,-0.5 0,-19.5 90,-19.5 90,-0.5 0,-0.5"/>
<text text-anchor="middle" x="45" y="-7.5" font-family="Helvetica,sans-Serif" font-size="10.00">RCPP_MODULE</text>
</a>
</g>
</g>
<!-- Node1&#45;&gt;Node3 -->
<g id="edge3" class="edge">
<title>Node1&#45;&gt;Node3</title>
<path fill="none" stroke="midnightblue" d="M271.7,-10C219.39,-10 139.82,-10 90.46,-10"/>
<polygon fill="midnightblue" stroke="midnightblue" points="271.78,-13.5 281.78,-10 271.78,-6.5 271.78,-13.5"/>
</g>
<!-- Node2&#45;&gt;Node3 -->
<g id="edge2" class="edge">
<title>Node2&#45;&gt;Node3</title>
<path fill="none" stroke="midnightblue" d="M115.5,-19.5C106.82,-18.31 98.15,-17.13 90.01,-16.02"/>
<polygon fill="midnightblue" stroke="midnightblue" points="115.27,-23 125.65,-20.89 116.21,-16.07 115.27,-23"/>
</g>
</g>
</svg>
