<?xml version="1.0" encoding="UTF-8" standalone="no"?>
<!DOCTYPE svg PUBLIC "-//W3C//DTD SVG 1.1//EN"
 "http://www.w3.org/Graphics/SVG/1.1/DTD/svg11.dtd">
<!-- Generated by graphviz version 2.43.0 (0)
 -->
<!-- Title: fish::weight_fish Pages: 1 -->
<svg width="359pt" height="47pt"
 viewBox="0.00 0.00 359.00 47.00" xmlns="http://www.w3.org/2000/svg" xmlns:xlink="http://www.w3.org/1999/xlink">
<g id="graph0" class="graph" transform="scale(1 1) rotate(0) translate(4 43)">
<title>fish::weight_fish</title>
<!-- Node1 -->
<g id="node1" class="node">
<title>Node1</title>
<g id="a_node1"><a xlink:title="Compute weight of fish (grams) given length (cm),.">
<polygon fill="#bfbfbf" stroke="black" points="254,-19.5 254,-38.5 351,-38.5 351,-19.5 254,-19.5"/>
<text text-anchor="middle" x="302.5" y="-26.5" font-family="Helvetica,sans-Serif" font-size="10.00">fish::weight_fish</text>
</a>
</g>
</g>
<!-- Node2 -->
<g id="node2" class="node">
<title>Node2</title>
<g id="a_node2"><a xlink:href="fish__glue_8cpp.html#a7b6a9b6d94c71377c935b2cfbffdfabc" target="_top" xlink:title=" ">
<polygon fill="none" stroke="black" points="0,-19.5 0,-38.5 90,-38.5 90,-19.5 0,-19.5"/>
<text text-anchor="middle" x="45" y="-26.5" font-family="Helvetica,sans-Serif" font-size="10.00">RCPP_MODULE</text>
</a>
</g>
</g>
<!-- Node1&#45;&gt;Node2 -->
<g id="edge1" class="edge">
<title>Node1&#45;&gt;Node2</title>
<path fill="none" stroke="midnightblue" d="M243.5,-29C196.93,-29 132.54,-29 90.11,-29"/>
<polygon fill="midnightblue" stroke="midnightblue" points="243.74,-32.5 253.74,-29 243.74,-25.5 243.74,-32.5"/>
</g>
<!-- Node3 -->
<g id="node3" class="node">
<title>Node3</title>
<g id="a_node3"><a xlink:href="classFish.html#a0a1f9fe15dae9fc71e5abbc2a03de9aa" target="_top" xlink:title="Set fish length and other variables that scale directly with length.">
<polygon fill="none" stroke="black" points="126,-0.5 126,-19.5 218,-19.5 218,-0.5 126,-0.5"/>
<text text-anchor="middle" x="172" y="-7.5" font-family="Helvetica,sans-Serif" font-size="10.00">Fish::set_length</text>
</a>
</g>
</g>
<!-- Node1&#45;&gt;Node3 -->
<g id="edge2" class="edge">
<title>Node1&#45;&gt;Node3</title>
<path fill="none" stroke="midnightblue" d="M243.75,-20.46C235.23,-19.2 226.56,-17.92 218.33,-16.7"/>
<polygon fill="midnightblue" stroke="midnightblue" points="243.25,-23.92 253.65,-21.93 244.27,-17 243.25,-23.92"/>
</g>
<!-- Node3&#45;&gt;Node2 -->
<g id="edge3" class="edge">
<title>Node3&#45;&gt;Node2</title>
<path fill="none" stroke="midnightblue" d="M115.91,-18.37C107.32,-19.68 98.53,-21.01 90.22,-22.28"/>
<polygon fill="midnightblue" stroke="midnightblue" points="116.51,-21.82 125.87,-16.86 115.46,-14.9 116.51,-21.82"/>
</g>
</g>
</svg>
