<?xml version="1.0" encoding="UTF-8" standalone="no"?>
<!DOCTYPE svg PUBLIC "-//W3C//DTD SVG 1.1//EN"
 "http://www.w3.org/Graphics/SVG/1.1/DTD/svg11.dtd">
<!-- Generated by graphviz version 2.43.0 (0)
 -->
<!-- Title: fish::length_adult Pages: 1 -->
<svg width="336pt" height="47pt"
 viewBox="0.00 0.00 336.00 47.00" xmlns="http://www.w3.org/2000/svg" xmlns:xlink="http://www.w3.org/1999/xlink">
<g id="graph0" class="graph" transform="scale(1 1) rotate(0) translate(4 43)">
<title>fish::length_adult</title>
<!-- Node1 -->
<g id="node1" class="node">
<title>Node1</title>
<g id="a_node1"><a xlink:title="Compute the new length after growth for adults, assuming allocation to reproduction.">
<polygon fill="#bfbfbf" stroke="black" points="227,-0.5 227,-19.5 328,-19.5 328,-0.5 227,-0.5"/>
<text text-anchor="middle" x="277.5" y="-7.5" font-family="Helvetica,sans-Serif" font-size="10.00">fish::length_adult</text>
</a>
</g>
</g>
<!-- Node2 -->
<g id="node2" class="node">
<title>Node2</title>
<g id="a_node2"><a xlink:href="classFish.html#abe4b5c9e5d1f6d3c56cc6be997db71cd" target="_top" xlink:title="Implement growth, i.e., set new length and effective GSI after 1 year of growth.">
<polygon fill="none" stroke="black" points="126,-19.5 126,-38.5 191,-38.5 191,-19.5 126,-19.5"/>
<text text-anchor="middle" x="158.5" y="-26.5" font-family="Helvetica,sans-Serif" font-size="10.00">Fish::grow</text>
</a>
</g>
</g>
<!-- Node1&#45;&gt;Node2 -->
<g id="edge1" class="edge">
<title>Node1&#45;&gt;Node2</title>
<path fill="none" stroke="midnightblue" d="M216.9,-19.68C208.03,-21.12 199.19,-22.55 191.21,-23.85"/>
<polygon fill="midnightblue" stroke="midnightblue" points="217.57,-23.12 226.88,-18.06 216.45,-16.21 217.57,-23.12"/>
</g>
<!-- Node3 -->
<g id="node3" class="node">
<title>Node3</title>
<g id="a_node3"><a xlink:href="fish__glue_8cpp.html#a7b6a9b6d94c71377c935b2cfbffdfabc" target="_top" xlink:title=" ">
<polygon fill="none" stroke="black" points="0,-0.5 0,-19.5 90,-19.5 90,-0.5 0,-0.5"/>
<text text-anchor="middle" x="45" y="-7.5" font-family="Helvetica,sans-Serif" font-size="10.00">RCPP_MODULE</text>
</a>
</g>
</g>
<!-- Node1&#45;&gt;Node3 -->
<g id="edge3" class="edge">
<title>Node1&#45;&gt;Node3</title>
<path fill="none" stroke="midnightblue" d="M216.71,-10C177.14,-10 126.11,-10 90.19,-10"/>
<polygon fill="midnightblue" stroke="midnightblue" points="216.77,-13.5 226.77,-10 216.77,-6.5 216.77,-13.5"/>
</g>
<!-- Node2&#45;&gt;Node3 -->
<g id="edge2" class="edge">
<title>Node2&#45;&gt;Node3</title>
<path fill="none" stroke="midnightblue" d="M115.91,-21.91C107.52,-20.48 98.69,-18.98 90.22,-17.53"/>
<polygon fill="midnightblue" stroke="midnightblue" points="115.4,-25.38 125.85,-23.61 116.58,-18.48 115.4,-25.38"/>
</g>
</g>
</svg>
