<?xml version="1.0" encoding="UTF-8" standalone="no"?>
<!DOCTYPE svg PUBLIC "-//W3C//DTD SVG 1.1//EN"
 "http://www.w3.org/Graphics/SVG/1.1/DTD/svg11.dtd">
<!-- Generated by graphviz version 2.43.0 (0)
 -->
<!-- Title: fish::maturation_probability Pages: 1 -->
<svg width="439pt" height="47pt"
 viewBox="0.00 0.00 439.00 47.00" xmlns="http://www.w3.org/2000/svg" xmlns:xlink="http://www.w3.org/1999/xlink">
<g id="graph0" class="graph" transform="scale(1 1) rotate(0) translate(4 43)">
<title>fish::maturation_probability</title>
<!-- Node1 -->
<g id="node1" class="node">
<title>Node1</title>
<g id="a_node1"><a xlink:title="Calculate the maturation probability given age &#160;and body length ,.">
<polygon fill="#bfbfbf" stroke="black" points="279,-0.5 279,-19.5 431,-19.5 431,-0.5 279,-0.5"/>
<text text-anchor="middle" x="355" y="-7.5" font-family="Helvetica,sans-Serif" font-size="10.00">fish::maturation_probability</text>
</a>
</g>
</g>
<!-- Node2 -->
<g id="node2" class="node">
<title>Node2</title>
<g id="a_node2"><a xlink:href="classFish.html#ac7121f25ba24b82a7faabd07702d7e73" target="_top" xlink:title="Calculate the probability of maturation.">
<polygon fill="none" stroke="black" points="126,-19.5 126,-38.5 243,-38.5 243,-19.5 126,-19.5"/>
<text text-anchor="middle" x="184.5" y="-26.5" font-family="Helvetica,sans-Serif" font-size="10.00">Fish::maturationProb</text>
</a>
</g>
</g>
<!-- Node1&#45;&gt;Node2 -->
<g id="edge1" class="edge">
<title>Node1&#45;&gt;Node2</title>
<path fill="none" stroke="midnightblue" d="M268.53,-19.64C259.92,-20.61 251.33,-21.58 243.12,-22.5"/>
<polygon fill="midnightblue" stroke="midnightblue" points="269.08,-23.1 278.62,-18.5 268.29,-16.14 269.08,-23.1"/>
</g>
<!-- Node3 -->
<g id="node3" class="node">
<title>Node3</title>
<g id="a_node3"><a xlink:href="fish__glue_8cpp.html#a7b6a9b6d94c71377c935b2cfbffdfabc" target="_top" xlink:title=" ">
<polygon fill="none" stroke="black" points="0,-0.5 0,-19.5 90,-19.5 90,-0.5 0,-0.5"/>
<text text-anchor="middle" x="45" y="-7.5" font-family="Helvetica,sans-Serif" font-size="10.00">RCPP_MODULE</text>
</a>
</g>
</g>
<!-- Node1&#45;&gt;Node3 -->
<g id="edge3" class="edge">
<title>Node1&#45;&gt;Node3</title>
<path fill="none" stroke="midnightblue" d="M268.41,-10C210.53,-10 136.47,-10 90.12,-10"/>
<polygon fill="midnightblue" stroke="midnightblue" points="268.65,-13.5 278.65,-10 268.65,-6.5 268.65,-13.5"/>
</g>
<!-- Node2&#45;&gt;Node3 -->
<g id="edge2" class="edge">
<title>Node2&#45;&gt;Node3</title>
<path fill="none" stroke="midnightblue" d="M115.85,-19.65C107.18,-18.45 98.48,-17.25 90.32,-16.12"/>
<polygon fill="midnightblue" stroke="midnightblue" points="115.6,-23.15 125.98,-21.05 116.56,-16.22 115.6,-23.15"/>
</g>
</g>
</svg>
