<?xml version="1.0" encoding="UTF-8" standalone="no"?>
<!DOCTYPE svg PUBLIC "-//W3C//DTD SVG 1.1//EN"
 "http://www.w3.org/Graphics/SVG/1.1/DTD/svg11.dtd">
<!-- Generated by graphviz version 2.43.0 (0)
 -->
<!-- Title: fish::gsi Pages: 1 -->
<svg width="497pt" height="242pt"
 viewBox="0.00 0.00 497.00 242.11" xmlns="http://www.w3.org/2000/svg" xmlns:xlink="http://www.w3.org/1999/xlink">
<g id="graph0" class="graph" transform="scale(1 1) rotate(0) translate(4 238.11)">
<title>fish::gsi</title>
<!-- Node1 -->
<g id="node1" class="node">
<title>Node1</title>
<g id="a_node1"><a xlink:title="Calculate effective GSI, given the initial and final body lengths.">
<polygon fill="#bfbfbf" stroke="black" points="434,-95.5 434,-114.5 489,-114.5 489,-95.5 434,-95.5"/>
<text text-anchor="middle" x="461.5" y="-102.5" font-family="Helvetica,sans-Serif" font-size="10.00">fish::gsi</text>
</a>
</g>
</g>
<!-- Node2 -->
<g id="node2" class="node">
<title>Node2</title>
<g id="a_node2"><a xlink:href="namespacefish.html#a55881de836369d1af447b740b433e50e" target="_top" xlink:title="Calculate the number of eggs produced per year by a fish of given weight,.">
<polygon fill="none" stroke="black" points="304.5,-190.5 304.5,-209.5 390.5,-209.5 390.5,-190.5 304.5,-190.5"/>
<text text-anchor="middle" x="347.5" y="-197.5" font-family="Helvetica,sans-Serif" font-size="10.00">fish::fecundity</text>
</a>
</g>
</g>
<!-- Node1&#45;&gt;Node2 -->
<g id="edge1" class="edge">
<title>Node1&#45;&gt;Node2</title>
<path fill="none" stroke="midnightblue" d="M447.81,-123.11C436.21,-138.65 417.89,-160.88 398,-176 390.47,-181.72 381.37,-186.61 373.03,-190.45"/>
<polygon fill="midnightblue" stroke="midnightblue" points="450.77,-124.98 453.82,-114.83 445.11,-120.87 450.77,-124.98"/>
</g>
<!-- Node4 -->
<g id="node4" class="node">
<title>Node4</title>
<g id="a_node4"><a xlink:href="fish__glue_8cpp.html#a7b6a9b6d94c71377c935b2cfbffdfabc" target="_top" xlink:title=" ">
<polygon fill="none" stroke="black" points="0,-114.5 0,-133.5 90,-133.5 90,-114.5 0,-114.5"/>
<text text-anchor="middle" x="45" y="-121.5" font-family="Helvetica,sans-Serif" font-size="10.00">RCPP_MODULE</text>
</a>
</g>
</g>
<!-- Node1&#45;&gt;Node4 -->
<g id="edge14" class="edge">
<title>Node1&#45;&gt;Node4</title>
<path fill="none" stroke="midnightblue" d="M427.92,-118C418.41,-121.38 407.9,-124.71 398,-127 280.02,-154.3 246.28,-157.09 126,-143 110.12,-141.14 92.82,-137.27 78.39,-133.51"/>
<polygon fill="midnightblue" stroke="midnightblue" points="429.24,-121.25 437.42,-114.51 426.82,-114.68 429.24,-121.25"/>
</g>
<!-- Node5 -->
<g id="node5" class="node">
<title>Node5</title>
<g id="a_node5"><a xlink:href="classFish.html#abe4b5c9e5d1f6d3c56cc6be997db71cd" target="_top" xlink:title="Implement growth, i.e., set new length and effective GSI after 1 year of growth.">
<polygon fill="none" stroke="black" points="161,-76.5 161,-95.5 226,-95.5 226,-76.5 161,-76.5"/>
<text text-anchor="middle" x="193.5" y="-83.5" font-family="Helvetica,sans-Serif" font-size="10.00">Fish::grow</text>
</a>
</g>
</g>
<!-- Node1&#45;&gt;Node5 -->
<g id="edge5" class="edge">
<title>Node1&#45;&gt;Node5</title>
<path fill="none" stroke="midnightblue" d="M423.29,-102.34C370.66,-98.58 275.4,-91.78 226.04,-88.25"/>
<polygon fill="midnightblue" stroke="midnightblue" points="423.31,-105.85 433.53,-103.07 423.81,-98.87 423.31,-105.85"/>
</g>
<!-- Node6 -->
<g id="node6" class="node">
<title>Node6</title>
<g id="a_node6"><a xlink:href="classFishParams.html#a6a7122ea93777817165dfb09c1d840ac" target="_top" xlink:title=" ">
<polygon fill="none" stroke="black" points="126,-114.5 126,-133.5 261,-133.5 261,-114.5 126,-114.5"/>
<text text-anchor="middle" x="193.5" y="-121.5" font-family="Helvetica,sans-Serif" font-size="10.00">FishParams::initFromFile</text>
</a>
</g>
</g>
<!-- Node1&#45;&gt;Node6 -->
<g id="edge7" class="edge">
<title>Node1&#45;&gt;Node6</title>
<path fill="none" stroke="midnightblue" d="M423.75,-108.01C415.29,-108.68 406.33,-109.38 398,-110 352.44,-113.39 301.13,-116.92 261.42,-119.58"/>
<polygon fill="midnightblue" stroke="midnightblue" points="424.05,-111.5 433.74,-107.21 423.49,-104.52 424.05,-111.5"/>
</g>
<!-- Node7 -->
<g id="node7" class="node">
<title>Node7</title>
<g id="a_node7"><a xlink:href="namespacefish.html#adc414165e9acd76993cbaaf5140c5f22" target="_top" xlink:title="Compute the new length after growth for adults, assuming allocation to reproduction.">
<polygon fill="none" stroke="black" points="297,-38.5 297,-57.5 398,-57.5 398,-38.5 297,-38.5"/>
<text text-anchor="middle" x="347.5" y="-45.5" font-family="Helvetica,sans-Serif" font-size="10.00">fish::length_adult</text>
</a>
</g>
</g>
<!-- Node1&#45;&gt;Node7 -->
<g id="edge9" class="edge">
<title>Node1&#45;&gt;Node7</title>
<path fill="none" stroke="midnightblue" d="M433.69,-90.59C422.68,-84.73 409.77,-77.96 398,-72 388.46,-67.17 377.79,-61.97 368.81,-57.65"/>
<polygon fill="midnightblue" stroke="midnightblue" points="432.33,-93.83 442.8,-95.45 435.63,-87.65 432.33,-93.83"/>
</g>
<!-- Node8 -->
<g id="node8" class="node">
<title>Node8</title>
<g id="a_node8"><a xlink:href="classFishParams.html#aa0812994bb72e90dfa8c4fadc3039f57" target="_top" xlink:title=" ">
<polygon fill="none" stroke="black" points="297,-0.5 297,-19.5 398,-19.5 398,-0.5 297,-0.5"/>
<text text-anchor="middle" x="347.5" y="-7.5" font-family="Helvetica,sans-Serif" font-size="10.00">FishParams::print</text>
</a>
</g>
</g>
<!-- Node1&#45;&gt;Node8 -->
<g id="edge12" class="edge">
<title>Node1&#45;&gt;Node8</title>
<path fill="none" stroke="midnightblue" d="M449.62,-86.98C438.52,-69.96 419.87,-44.76 398,-29 392.77,-25.23 386.7,-22.1 380.64,-19.55"/>
<polygon fill="midnightblue" stroke="midnightblue" points="446.68,-88.89 454.97,-95.48 452.6,-85.16 446.68,-88.89"/>
</g>
<!-- Node3 -->
<g id="node3" class="node">
<title>Node3</title>
<g id="a_node3"><a xlink:href="classFish.html#a9550ba7371eef86c50349864bcf05b4a" target="_top" xlink:title="Calculate the number of surviving recruits produced based on egg production and offspring survival un...">
<polygon fill="none" stroke="black" points="133.5,-190.5 133.5,-209.5 253.5,-209.5 253.5,-190.5 133.5,-190.5"/>
<text text-anchor="middle" x="193.5" y="-197.5" font-family="Helvetica,sans-Serif" font-size="10.00">Fish::produceRecruits</text>
</a>
</g>
</g>
<!-- Node2&#45;&gt;Node3 -->
<g id="edge2" class="edge">
<title>Node2&#45;&gt;Node3</title>
<path fill="none" stroke="midnightblue" d="M293.98,-200C280.97,-200 266.95,-200 253.65,-200"/>
<polygon fill="midnightblue" stroke="midnightblue" points="294.16,-203.5 304.16,-200 294.16,-196.5 294.16,-203.5"/>
</g>
<!-- Node2&#45;&gt;Node4 -->
<g id="edge4" class="edge">
<title>Node2&#45;&gt;Node4</title>
<path fill="none" stroke="midnightblue" d="M313.1,-212.84C268.28,-227.91 187.21,-247.48 126,-219 87.29,-200.99 60.6,-154.01 50.5,-133.65"/>
<polygon fill="midnightblue" stroke="midnightblue" points="314.33,-216.11 322.63,-209.52 312.03,-209.5 314.33,-216.11"/>
</g>
<!-- Node3&#45;&gt;Node4 -->
<g id="edge3" class="edge">
<title>Node3&#45;&gt;Node4</title>
<path fill="none" stroke="midnightblue" d="M151.83,-187C143.15,-183.77 134.15,-180.05 126,-176 100.93,-163.54 74.1,-144.87 58.75,-133.62"/>
<polygon fill="midnightblue" stroke="midnightblue" points="150.83,-190.36 161.43,-190.44 153.2,-183.77 150.83,-190.36"/>
</g>
<!-- Node5&#45;&gt;Node4 -->
<g id="edge6" class="edge">
<title>Node5&#45;&gt;Node4</title>
<path fill="none" stroke="midnightblue" d="M150.87,-96.8C129.37,-102.38 103.37,-109.12 82.63,-114.5"/>
<polygon fill="midnightblue" stroke="midnightblue" points="151.91,-100.14 160.71,-94.25 150.15,-93.37 151.91,-100.14"/>
</g>
<!-- Node6&#45;&gt;Node4 -->
<g id="edge8" class="edge">
<title>Node6&#45;&gt;Node4</title>
<path fill="none" stroke="midnightblue" d="M115.47,-124C106.77,-124 98.14,-124 90.08,-124"/>
<polygon fill="midnightblue" stroke="midnightblue" points="115.68,-127.5 125.68,-124 115.68,-120.5 115.68,-127.5"/>
</g>
<!-- Node7&#45;&gt;Node4 -->
<g id="edge11" class="edge">
<title>Node7&#45;&gt;Node4</title>
<path fill="none" stroke="midnightblue" d="M286.44,-44.76C241.03,-44.28 177.85,-47.92 126,-67 97.51,-77.48 69.96,-100.94 55.82,-114.27"/>
<polygon fill="midnightblue" stroke="midnightblue" points="286.66,-48.26 296.72,-44.94 286.78,-41.26 286.66,-48.26"/>
</g>
<!-- Node7&#45;&gt;Node5 -->
<g id="edge10" class="edge">
<title>Node7&#45;&gt;Node5</title>
<path fill="none" stroke="midnightblue" d="M298.33,-60.04C274.76,-65.94 247.04,-72.86 226.18,-78.08"/>
<polygon fill="midnightblue" stroke="midnightblue" points="299.29,-63.41 308.14,-57.59 297.59,-56.62 299.29,-63.41"/>
</g>
<!-- Node8&#45;&gt;Node4 -->
<g id="edge13" class="edge">
<title>Node8&#45;&gt;Node4</title>
<path fill="none" stroke="midnightblue" d="M286.69,-7.64C240.44,-8.22 176.05,-14.42 126,-40 91.39,-57.69 63.5,-96.45 51.86,-114.46"/>
<polygon fill="midnightblue" stroke="midnightblue" points="286.88,-11.14 296.86,-7.6 286.85,-4.14 286.88,-11.14"/>
</g>
</g>
</svg>
