<?xml version="1.0" encoding="UTF-8" standalone="no"?>
<!DOCTYPE svg PUBLIC "-//W3C//DTD SVG 1.1//EN"
 "http://www.w3.org/Graphics/SVG/1.1/DTD/svg11.dtd">
<!-- Generated by graphviz version 2.43.0 (0)
 -->
<!-- Title: fish::length_adult Pages: 1 -->
<svg width="261pt" height="66pt"
 viewBox="0.00 0.00 261.00 66.00" xmlns="http://www.w3.org/2000/svg" xmlns:xlink="http://www.w3.org/1999/xlink">
<g id="graph0" class="graph" transform="scale(1 1) rotate(0) translate(4 62)">
<title>fish::length_adult</title>
<!-- Node1 -->
<g id="node1" class="node">
<title>Node1</title>
<g id="a_node1"><a xlink:title="Compute the new length after growth for adults, assuming allocation to reproduction.">
<polygon fill="#bfbfbf" stroke="black" points="0,-19.5 0,-38.5 101,-38.5 101,-19.5 0,-19.5"/>
<text text-anchor="middle" x="50.5" y="-26.5" font-family="Helvetica,sans-Serif" font-size="10.00">fish::length_adult</text>
</a>
</g>
</g>
<!-- Node2 -->
<g id="node2" class="node">
<title>Node2</title>
<g id="a_node2"><a xlink:href="namespacefish.html#a7f532daff6b69774cc75d40ed18aad31" target="_top" xlink:title="Calculate effective GSI, given the initial and final body lengths.">
<polygon fill="none" stroke="black" points="167.5,-38.5 167.5,-57.5 222.5,-57.5 222.5,-38.5 167.5,-38.5"/>
<text text-anchor="middle" x="195" y="-45.5" font-family="Helvetica,sans-Serif" font-size="10.00">fish::gsi</text>
</a>
</g>
</g>
<!-- Node1&#45;&gt;Node2 -->
<g id="edge1" class="edge">
<title>Node1&#45;&gt;Node2</title>
<path fill="none" stroke="midnightblue" d="M101.34,-35.65C119.68,-38.09 140.12,-40.82 157.12,-43.08"/>
<polygon fill="midnightblue" stroke="midnightblue" points="156.83,-46.58 167.21,-44.43 157.76,-39.64 156.83,-46.58"/>
</g>
<!-- Node3 -->
<g id="node3" class="node">
<title>Node3</title>
<g id="a_node3"><a xlink:href="namespacefish.html#a1d06e0358aca1be4446ed148b7ce3d84" target="_top" xlink:title="Compute the new length after growth assuming no allocation to reproduction.">
<polygon fill="none" stroke="black" points="137,-0.5 137,-19.5 253,-19.5 253,-0.5 137,-0.5"/>
<text text-anchor="middle" x="195" y="-7.5" font-family="Helvetica,sans-Serif" font-size="10.00">fish::length_juvenile</text>
</a>
</g>
</g>
<!-- Node1&#45;&gt;Node3 -->
<g id="edge2" class="edge">
<title>Node1&#45;&gt;Node3</title>
<path fill="none" stroke="midnightblue" d="M101.34,-22.35C109.53,-21.26 118.14,-20.11 126.67,-18.98"/>
<polygon fill="midnightblue" stroke="midnightblue" points="127.17,-22.44 136.62,-17.65 126.25,-15.5 127.17,-22.44"/>
</g>
</g>
</svg>
