<?xml version="1.0" encoding="UTF-8" standalone="no"?>
<!DOCTYPE svg PUBLIC "-//W3C//DTD SVG 1.1//EN"
 "http://www.w3.org/Graphics/SVG/1.1/DTD/svg11.dtd">
<!-- Generated by graphviz version 2.43.0 (0)
 -->
<!-- Title: fish::length_juvenile Pages: 1 -->
<svg width="940pt" height="291pt"
 viewBox="0.00 0.00 940.00 290.93" xmlns="http://www.w3.org/2000/svg" xmlns:xlink="http://www.w3.org/1999/xlink">
<g id="graph0" class="graph" transform="scale(1 1) rotate(0) translate(4 286.93)">
<title>fish::length_juvenile</title>
<!-- Node1 -->
<g id="node1" class="node">
<title>Node1</title>
<g id="a_node1"><a xlink:title="Compute the new length after growth assuming no allocation to reproduction.">
<polygon fill="#bfbfbf" stroke="black" points="816,-231.5 816,-250.5 932,-250.5 932,-231.5 816,-231.5"/>
<text text-anchor="middle" x="874" y="-238.5" font-family="Helvetica,sans-Serif" font-size="10.00">fish::length_juvenile</text>
</a>
</g>
</g>
<!-- Node2 -->
<g id="node2" class="node">
<title>Node2</title>
<g id="a_node2"><a xlink:href="classFish.html#abe4b5c9e5d1f6d3c56cc6be997db71cd" target="_top" xlink:title="Implement growth, i.e., set new length and effective GSI after 1 year of growth.">
<polygon fill="none" stroke="black" points="556.5,-250.5 556.5,-269.5 621.5,-269.5 621.5,-250.5 556.5,-250.5"/>
<text text-anchor="middle" x="589" y="-257.5" font-family="Helvetica,sans-Serif" font-size="10.00">Fish::grow</text>
</a>
</g>
</g>
<!-- Node1&#45;&gt;Node2 -->
<g id="edge1" class="edge">
<title>Node1&#45;&gt;Node2</title>
<path fill="none" stroke="midnightblue" d="M805.52,-245.53C747.36,-249.44 665.97,-254.9 621.72,-257.87"/>
<polygon fill="midnightblue" stroke="midnightblue" points="805.99,-249.01 815.73,-244.84 805.52,-242.02 805.99,-249.01"/>
</g>
<!-- Node3 -->
<g id="node3" class="node">
<title>Node3</title>
<g id="a_node3"><a xlink:href="fish__glue_8cpp.html#a7b6a9b6d94c71377c935b2cfbffdfabc" target="_top" xlink:title=" ">
<polygon fill="none" stroke="black" points="366,-252.5 366,-271.5 456,-271.5 456,-252.5 366,-252.5"/>
<text text-anchor="middle" x="411" y="-259.5" font-family="Helvetica,sans-Serif" font-size="10.00">RCPP_MODULE</text>
</a>
</g>
</g>
<!-- Node1&#45;&gt;Node3 -->
<g id="edge28" class="edge">
<title>Node1&#45;&gt;Node3</title>
<path fill="none" stroke="midnightblue" d="M829.38,-253.06C813.89,-257.01 796.25,-261.11 780,-264 672.59,-283.07 643.84,-286.49 535,-279 508.76,-277.2 479.6,-273.25 456.25,-269.61"/>
<polygon fill="midnightblue" stroke="midnightblue" points="830.42,-256.41 839.22,-250.51 828.66,-249.63 830.42,-256.41"/>
</g>
<!-- Node4 -->
<g id="node4" class="node">
<title>Node4</title>
<g id="a_node4"><a xlink:href="classFish.html#adf85bf269f1651352506e371ffd2cecc" target="_top" xlink:title="Initializes the fish, i.e., initializes parameters and sets the initial state (age = 1,...">
<polygon fill="none" stroke="black" points="701,-152.5 701,-171.5 758,-171.5 758,-152.5 701,-152.5"/>
<text text-anchor="middle" x="729.5" y="-159.5" font-family="Helvetica,sans-Serif" font-size="10.00">Fish::init</text>
</a>
</g>
</g>
<!-- Node1&#45;&gt;Node4 -->
<g id="edge3" class="edge">
<title>Node1&#45;&gt;Node4</title>
<path fill="none" stroke="midnightblue" d="M846.72,-226.43C817.87,-210.44 772.39,-185.22 747.75,-171.56"/>
<polygon fill="midnightblue" stroke="midnightblue" points="845.37,-229.68 855.81,-231.47 848.76,-223.56 845.37,-229.68"/>
</g>
<!-- Node16 -->
<g id="node16" class="node">
<title>Node16</title>
<g id="a_node16"><a xlink:href="namespacefish.html#adc414165e9acd76993cbaaf5140c5f22" target="_top" xlink:title="Compute the new length after growth for adults, assuming allocation to reproduction.">
<polygon fill="none" stroke="black" points="679,-212.5 679,-231.5 780,-231.5 780,-212.5 679,-212.5"/>
<text text-anchor="middle" x="729.5" y="-219.5" font-family="Helvetica,sans-Serif" font-size="10.00">fish::length_adult</text>
</a>
</g>
</g>
<!-- Node1&#45;&gt;Node16 -->
<g id="edge25" class="edge">
<title>Node1&#45;&gt;Node16</title>
<path fill="none" stroke="midnightblue" d="M805.83,-232.04C797.23,-230.9 788.56,-229.74 780.3,-228.64"/>
<polygon fill="midnightblue" stroke="midnightblue" points="805.49,-235.53 815.86,-233.38 806.41,-228.59 805.49,-235.53"/>
</g>
<!-- Node2&#45;&gt;Node3 -->
<g id="edge2" class="edge">
<title>Node2&#45;&gt;Node3</title>
<path fill="none" stroke="midnightblue" d="M545.81,-260.48C518.74,-260.79 483.66,-261.19 456.21,-261.5"/>
<polygon fill="midnightblue" stroke="midnightblue" points="546.17,-263.98 556.13,-260.36 546.09,-256.98 546.17,-263.98"/>
</g>
<!-- Node4&#45;&gt;Node3 -->
<g id="edge18" class="edge">
<title>Node4&#45;&gt;Node3</title>
<path fill="none" stroke="midnightblue" d="M691.39,-173.72C628.19,-193.69 500.82,-233.94 442.46,-252.37"/>
<polygon fill="midnightblue" stroke="midnightblue" points="692.49,-177.05 700.97,-170.7 690.38,-170.37 692.49,-177.05"/>
</g>
<!-- Node5 -->
<g id="node5" class="node">
<title>Node5</title>
<g id="a_node5"><a xlink:href="classPopulation.html#a012ef586a78b4e7c2082634b316072d0" target="_top" xlink:title=" ">
<polygon fill="none" stroke="black" points="544,-127.5 544,-146.5 634,-146.5 634,-127.5 544,-127.5"/>
<text text-anchor="middle" x="589" y="-134.5" font-family="Helvetica,sans-Serif" font-size="10.00">Population::init</text>
</a>
</g>
</g>
<!-- Node4&#45;&gt;Node5 -->
<g id="edge4" class="edge">
<title>Node4&#45;&gt;Node5</title>
<path fill="none" stroke="midnightblue" d="M690.91,-155.21C673.34,-152.04 652.31,-148.25 634.01,-144.94"/>
<polygon fill="midnightblue" stroke="midnightblue" points="690.34,-158.67 700.81,-157 691.59,-151.78 690.34,-158.67"/>
</g>
<!-- Node15 -->
<g id="node15" class="node">
<title>Node15</title>
<g id="a_node15"><a xlink:href="classPopulation.html#a81c19d1c80cfb1d54d3872ecdefd0872" target="_top" xlink:title=" ">
<polygon fill="none" stroke="black" points="535,-89.5 535,-108.5 643,-108.5 643,-89.5 535,-89.5"/>
<text text-anchor="middle" x="589" y="-96.5" font-family="Helvetica,sans-Serif" font-size="10.00">Population::update</text>
</a>
</g>
</g>
<!-- Node4&#45;&gt;Node15 -->
<g id="edge19" class="edge">
<title>Node4&#45;&gt;Node15</title>
<path fill="none" stroke="midnightblue" d="M702.33,-147.4C685.62,-138.36 663.35,-126.84 643,-118 635.29,-114.65 626.78,-111.41 618.87,-108.58"/>
<polygon fill="midnightblue" stroke="midnightblue" points="701.01,-150.67 711.46,-152.39 704.37,-144.52 701.01,-150.67"/>
</g>
<!-- Node6 -->
<g id="node6" class="node">
<title>Node6</title>
<g id="a_node6"><a xlink:href="classPopulation.html#aa7eba257f23cbc12aa3673ce012fb2cb" target="_top" xlink:title=" ">
<polygon fill="none" stroke="black" points="323,-126.5 323,-145.5 499,-145.5 499,-126.5 323,-126.5"/>
<text text-anchor="middle" x="411" y="-133.5" font-family="Helvetica,sans-Serif" font-size="10.00">Population::noFishingEquilibriate</text>
</a>
</g>
</g>
<!-- Node5&#45;&gt;Node6 -->
<g id="edge5" class="edge">
<title>Node5&#45;&gt;Node6</title>
<path fill="none" stroke="midnightblue" d="M533.45,-136.69C522.59,-136.63 510.94,-136.56 499.3,-136.5"/>
<polygon fill="midnightblue" stroke="midnightblue" points="533.57,-140.19 543.59,-136.75 533.61,-133.19 533.57,-140.19"/>
</g>
<!-- Node9 -->
<g id="node9" class="node">
<title>Node9</title>
<g id="a_node9"><a xlink:href="fish__glue_8cpp.html#ab96ae82277aa9004dc603b77512c7265" target="_top" xlink:title=" ">
<polygon fill="none" stroke="black" points="161.5,-88.5 161.5,-107.5 251.5,-107.5 251.5,-88.5 161.5,-88.5"/>
<text text-anchor="middle" x="206.5" y="-95.5" font-family="Helvetica,sans-Serif" font-size="10.00">RCPP_MODULE</text>
</a>
</g>
</g>
<!-- Node5&#45;&gt;Node9 -->
<g id="edge9" class="edge">
<title>Node5&#45;&gt;Node9</title>
<path fill="none" stroke="midnightblue" d="M559.18,-151.36C551.06,-155.92 542.42,-161.28 535,-167 516.83,-181.01 520.14,-195.07 499,-204 426.94,-234.43 388.03,-247.47 323,-204 288.21,-180.75 318.83,-144.17 287,-117 277.18,-108.62 264.29,-103.79 251.76,-101.06"/>
<polygon fill="midnightblue" stroke="midnightblue" points="560.9,-154.41 568.03,-146.58 557.57,-148.25 560.9,-154.41"/>
</g>
<!-- Node10 -->
<g id="node10" class="node">
<title>Node10</title>
<g id="a_node10"><a xlink:href="classSimulator.html#a7540919b97662be7deacba9194c0ed60" target="_top" xlink:title=" ">
<polygon fill="none" stroke="black" points="354.5,-165 354.5,-195 467.5,-195 467.5,-165 354.5,-165"/>
<text text-anchor="start" x="362.5" y="-183" font-family="Helvetica,sans-Serif" font-size="10.00">Simulator::simulate</text>
<text text-anchor="middle" x="411" y="-172" font-family="Helvetica,sans-Serif" font-size="10.00">_multi</text>
</a>
</g>
</g>
<!-- Node5&#45;&gt;Node10 -->
<g id="edge10" class="edge">
<title>Node5&#45;&gt;Node10</title>
<path fill="none" stroke="midnightblue" d="M539.07,-148.95C516.9,-154.37 490.57,-160.8 467.64,-166.41"/>
<polygon fill="midnightblue" stroke="midnightblue" points="540.06,-152.32 548.94,-146.54 538.39,-145.52 540.06,-152.32"/>
</g>
<!-- Node12 -->
<g id="node12" class="node">
<title>Node12</title>
<g id="a_node12"><a xlink:href="classSimulator.html#ab21d1c6b0af00931f9a8fa5e0b6d417f" target="_top" xlink:title=" ">
<polygon fill="none" stroke="black" points="354.5,-39 354.5,-69 467.5,-69 467.5,-39 354.5,-39"/>
<text text-anchor="start" x="362.5" y="-57" font-family="Helvetica,sans-Serif" font-size="10.00">Simulator::simulate</text>
<text text-anchor="middle" x="411" y="-46" font-family="Helvetica,sans-Serif" font-size="10.00">_multi_2d</text>
</a>
</g>
</g>
<!-- Node5&#45;&gt;Node12 -->
<g id="edge13" class="edge">
<title>Node5&#45;&gt;Node12</title>
<path fill="none" stroke="midnightblue" d="M549.66,-123.95C544.69,-122.06 539.69,-120.05 535,-118 500.81,-103.06 462.93,-82.75 438.36,-69.05"/>
<polygon fill="midnightblue" stroke="midnightblue" points="548.52,-127.27 559.12,-127.45 550.95,-120.7 548.52,-127.27"/>
</g>
<!-- Node14 -->
<g id="node14" class="node">
<title>Node14</title>
<g id="a_node14"><a xlink:href="classSimulator.html#aa6e6cfd73fd8d3200e7f515b473e88f2" target="_top" xlink:title=" ">
<polygon fill="none" stroke="black" points="350,-0.5 350,-19.5 472,-19.5 472,-0.5 350,-0.5"/>
<text text-anchor="middle" x="411" y="-7.5" font-family="Helvetica,sans-Serif" font-size="10.00">Simulator::simulate_r</text>
</a>
</g>
</g>
<!-- Node5&#45;&gt;Node14 -->
<g id="edge16" class="edge">
<title>Node5&#45;&gt;Node14</title>
<path fill="none" stroke="midnightblue" d="M540.27,-122.33C538.4,-121.01 536.63,-119.57 535,-118 504.23,-88.44 531.62,-56.51 499,-29 491.32,-22.52 481.93,-18.11 472.19,-15.13"/>
<polygon fill="midnightblue" stroke="midnightblue" points="538.59,-125.4 549,-127.4 542.11,-119.35 538.59,-125.4"/>
</g>
<!-- Node7 -->
<g id="node7" class="node">
<title>Node7</title>
<g id="a_node7"><a xlink:href="classSimulator.html#ad02f472064f23f03ae474cb4904d2c56" target="_top" xlink:title=" ">
<polygon fill="none" stroke="black" points="126,-127 126,-157 287,-157 287,-127 126,-127"/>
<text text-anchor="start" x="134" y="-145" font-family="Helvetica,sans-Serif" font-size="10.00">Simulator::equilibriateNatural</text>
<text text-anchor="middle" x="206.5" y="-134" font-family="Helvetica,sans-Serif" font-size="10.00">Population</text>
</a>
</g>
</g>
<!-- Node6&#45;&gt;Node7 -->
<g id="edge6" class="edge">
<title>Node6&#45;&gt;Node7</title>
<path fill="none" stroke="midnightblue" d="M312.86,-138.88C304.24,-139.13 295.58,-139.39 287.12,-139.64"/>
<polygon fill="midnightblue" stroke="midnightblue" points="313.05,-142.37 322.95,-138.58 312.85,-135.38 313.05,-142.37"/>
</g>
<!-- Node6&#45;&gt;Node9 -->
<g id="edge8" class="edge">
<title>Node6&#45;&gt;Node9</title>
<path fill="none" stroke="midnightblue" d="M349.23,-124.6C317.9,-118.72 280.38,-111.68 251.82,-106.32"/>
<polygon fill="midnightblue" stroke="midnightblue" points="348.69,-128.06 359.16,-126.46 349.98,-121.18 348.69,-128.06"/>
</g>
<!-- Node8 -->
<g id="node8" class="node">
<title>Node8</title>
<g id="a_node8"><a xlink:href="fish__glue_8cpp.html#addebb0997b0e49067d8784c9954b7b96" target="_top" xlink:title=" ">
<polygon fill="none" stroke="black" points="0,-88.5 0,-107.5 90,-107.5 90,-88.5 0,-88.5"/>
<text text-anchor="middle" x="45" y="-95.5" font-family="Helvetica,sans-Serif" font-size="10.00">RCPP_MODULE</text>
</a>
</g>
</g>
<!-- Node7&#45;&gt;Node8 -->
<g id="edge7" class="edge">
<title>Node7&#45;&gt;Node8</title>
<path fill="none" stroke="midnightblue" d="M141.35,-124.3C120.64,-118.59 98.47,-112.47 80.72,-107.58"/>
<polygon fill="midnightblue" stroke="midnightblue" points="140.48,-127.7 151.06,-126.98 142.35,-120.95 140.48,-127.7"/>
</g>
<!-- Node11 -->
<g id="node11" class="node">
<title>Node11</title>
<g id="a_node11"><a xlink:href="classSimulator.html#a1a5454ee4736819d709398b225d7876d" target="_top" xlink:title=" ">
<polygon fill="none" stroke="black" points="150,-176 150,-206 263,-206 263,-176 150,-176"/>
<text text-anchor="start" x="158" y="-194" font-family="Helvetica,sans-Serif" font-size="10.00">Simulator::simulate</text>
<text text-anchor="middle" x="206.5" y="-183" font-family="Helvetica,sans-Serif" font-size="10.00">_multi_r</text>
</a>
</g>
</g>
<!-- Node10&#45;&gt;Node11 -->
<g id="edge11" class="edge">
<title>Node10&#45;&gt;Node11</title>
<path fill="none" stroke="midnightblue" d="M344.21,-183.57C318.09,-184.99 288.37,-186.61 263.33,-187.97"/>
<polygon fill="midnightblue" stroke="midnightblue" points="344.6,-187.06 354.4,-183.02 344.22,-180.07 344.6,-187.06"/>
</g>
<!-- Node11&#45;&gt;Node8 -->
<g id="edge12" class="edge">
<title>Node11&#45;&gt;Node8</title>
<path fill="none" stroke="midnightblue" d="M140.36,-172.91C135.4,-170.82 130.55,-168.51 126,-166 96.96,-149.96 68.78,-122.36 54.91,-107.74"/>
<polygon fill="midnightblue" stroke="midnightblue" points="139.41,-176.3 150,-176.7 141.97,-169.79 139.41,-176.3"/>
</g>
<!-- Node13 -->
<g id="node13" class="node">
<title>Node13</title>
<g id="a_node13"><a xlink:href="classSimulator.html#af1b0a9562ecf0ad8f98d61576efba28b" target="_top" xlink:title=" ">
<polygon fill="none" stroke="black" points="150,-39 150,-69 263,-69 263,-39 150,-39"/>
<text text-anchor="start" x="158" y="-57" font-family="Helvetica,sans-Serif" font-size="10.00">Simulator::simulate</text>
<text text-anchor="middle" x="206.5" y="-46" font-family="Helvetica,sans-Serif" font-size="10.00">_multi_2d_r</text>
</a>
</g>
</g>
<!-- Node12&#45;&gt;Node13 -->
<g id="edge14" class="edge">
<title>Node12&#45;&gt;Node13</title>
<path fill="none" stroke="midnightblue" d="M344.21,-54C318.09,-54 288.37,-54 263.33,-54"/>
<polygon fill="midnightblue" stroke="midnightblue" points="344.4,-57.5 354.4,-54 344.4,-50.5 344.4,-57.5"/>
</g>
<!-- Node13&#45;&gt;Node8 -->
<g id="edge15" class="edge">
<title>Node13&#45;&gt;Node8</title>
<path fill="none" stroke="midnightblue" d="M141.35,-71.7C120.64,-77.41 98.47,-83.53 80.72,-88.42"/>
<polygon fill="midnightblue" stroke="midnightblue" points="142.35,-75.05 151.06,-69.02 140.48,-68.3 142.35,-75.05"/>
</g>
<!-- Node14&#45;&gt;Node8 -->
<g id="edge17" class="edge">
<title>Node14&#45;&gt;Node8</title>
<path fill="none" stroke="midnightblue" d="M339.88,-2.63C280.64,0.82 194.72,-0.81 126,-29 94.44,-41.95 66.51,-72.5 53.59,-88.25"/>
<polygon fill="midnightblue" stroke="midnightblue" points="339.68,-6.12 349.89,-3.27 340.13,0.86 339.68,-6.12"/>
</g>
<!-- Node15&#45;&gt;Node6 -->
<g id="edge20" class="edge">
<title>Node15&#45;&gt;Node6</title>
<path fill="none" stroke="midnightblue" d="M532.57,-110.65C508.4,-115.73 480.4,-121.62 457.48,-126.44"/>
<polygon fill="midnightblue" stroke="midnightblue" points="533.61,-114.01 542.68,-108.53 532.17,-107.16 533.61,-114.01"/>
</g>
<!-- Node15&#45;&gt;Node9 -->
<g id="edge21" class="edge">
<title>Node15&#45;&gt;Node9</title>
<path fill="none" stroke="midnightblue" d="M524.61,-98.83C447.35,-98.63 318.83,-98.29 251.58,-98.12"/>
<polygon fill="midnightblue" stroke="midnightblue" points="524.68,-102.33 534.69,-98.86 524.7,-95.33 524.68,-102.33"/>
</g>
<!-- Node15&#45;&gt;Node10 -->
<g id="edge22" class="edge">
<title>Node15&#45;&gt;Node10</title>
<path fill="none" stroke="midnightblue" d="M544.88,-112.53C541.44,-114.19 538.1,-116.01 535,-118 515.7,-130.41 518.69,-143.21 499,-155 489.43,-160.73 478.47,-165.21 467.64,-168.68"/>
<polygon fill="midnightblue" stroke="midnightblue" points="546.32,-115.72 554.11,-108.54 543.55,-109.3 546.32,-115.72"/>
</g>
<!-- Node15&#45;&gt;Node12 -->
<g id="edge23" class="edge">
<title>Node15&#45;&gt;Node12</title>
<path fill="none" stroke="midnightblue" d="M540.69,-86.9C518.19,-81.15 491.14,-74.24 467.66,-68.23"/>
<polygon fill="midnightblue" stroke="midnightblue" points="540.12,-90.37 550.67,-89.46 541.85,-83.59 540.12,-90.37"/>
</g>
<!-- Node15&#45;&gt;Node14 -->
<g id="edge24" class="edge">
<title>Node15&#45;&gt;Node14</title>
<path fill="none" stroke="midnightblue" d="M571.25,-81.94C554.45,-65.85 527.11,-42.26 499,-29 490.61,-25.04 481.37,-21.9 472.15,-19.4"/>
<polygon fill="midnightblue" stroke="midnightblue" points="569.02,-84.66 578.6,-89.17 573.92,-79.66 569.02,-84.66"/>
</g>
<!-- Node16&#45;&gt;Node2 -->
<g id="edge26" class="edge">
<title>Node16&#45;&gt;Node2</title>
<path fill="none" stroke="midnightblue" d="M683.89,-234.24C663.59,-239.81 640.05,-246.27 621.62,-251.32"/>
<polygon fill="midnightblue" stroke="midnightblue" points="684.83,-237.61 693.55,-231.59 682.98,-230.86 684.83,-237.61"/>
</g>
<!-- Node16&#45;&gt;Node3 -->
<g id="edge27" class="edge">
<title>Node16&#45;&gt;Node3</title>
<path fill="none" stroke="midnightblue" d="M668.23,-226.81C629.98,-230.13 579.49,-235.03 535,-241 508.7,-244.53 479.4,-249.49 456,-253.71"/>
<polygon fill="midnightblue" stroke="midnightblue" points="669.01,-230.25 678.68,-225.91 668.41,-223.28 669.01,-230.25"/>
</g>
</g>
</svg>
