<?xml version="1.0" encoding="UTF-8" standalone="no"?>
<!DOCTYPE svg PUBLIC "-//W3C//DTD SVG 1.1//EN"
 "http://www.w3.org/Graphics/SVG/1.1/DTD/svg11.dtd">
<!-- Generated by graphviz version 2.43.0 (0)
 -->
<!-- Title: src/population.cpp Pages: 1 -->
<svg width="850pt" height="252pt"
 viewBox="0.00 0.00 849.50 252.00" xmlns="http://www.w3.org/2000/svg" xmlns:xlink="http://www.w3.org/1999/xlink">
<g id="graph0" class="graph" transform="scale(1 1) rotate(0) translate(4 248)">
<title>src/population.cpp</title>
<!-- Node1 -->
<g id="node1" class="node">
<title>Node1</title>
<g id="a_node1"><a xlink:title=" ">
<polygon fill="#bfbfbf" stroke="black" points="524.5,-224.5 524.5,-243.5 630.5,-243.5 630.5,-224.5 524.5,-224.5"/>
<text text-anchor="middle" x="577.5" y="-231.5" font-family="Helvetica,sans-Serif" font-size="10.00">src/population.cpp</text>
</a>
</g>
</g>
<!-- Node2 -->
<g id="node2" class="node">
<title>Node2</title>
<g id="a_node2"><a xlink:href="population_8h.html" target="_top" xlink:title=" ">
<polygon fill="none" stroke="black" points="118,-168.5 118,-187.5 195,-187.5 195,-168.5 118,-168.5"/>
<text text-anchor="middle" x="156.5" y="-175.5" font-family="Helvetica,sans-Serif" font-size="10.00">population.h</text>
</a>
</g>
</g>
<!-- Node1&#45;&gt;Node2 -->
<g id="edge1" class="edge">
<title>Node1&#45;&gt;Node2</title>
<path fill="none" stroke="midnightblue" d="M524.18,-226.16C441.81,-215.6 284.83,-195.46 205.29,-185.26"/>
<polygon fill="midnightblue" stroke="midnightblue" points="205.43,-181.75 195.06,-183.95 204.54,-188.69 205.43,-181.75"/>
</g>
<!-- Node9 -->
<g id="node9" class="node">
<title>Node9</title>
<g id="a_node9"><a xlink:title=" ">
<polygon fill="none" stroke="#bfbfbf" points="692,-0.5 692,-19.5 739,-19.5 739,-0.5 692,-0.5"/>
<text text-anchor="middle" x="715.5" y="-7.5" font-family="Helvetica,sans-Serif" font-size="10.00">cmath</text>
</a>
</g>
</g>
<!-- Node1&#45;&gt;Node9 -->
<g id="edge24" class="edge">
<title>Node1&#45;&gt;Node9</title>
<path fill="none" stroke="midnightblue" d="M583.6,-224.48C589.96,-215.5 600.16,-200.91 608.5,-188 645.59,-130.57 686.7,-60.66 705.33,-28.6"/>
<polygon fill="midnightblue" stroke="midnightblue" points="708.57,-29.99 710.55,-19.59 702.51,-26.48 708.57,-29.99"/>
</g>
<!-- Node10 -->
<g id="node10" class="node">
<title>Node10</title>
<g id="a_node10"><a xlink:title=" ">
<polygon fill="none" stroke="#bfbfbf" points="609.5,-0.5 609.5,-19.5 673.5,-19.5 673.5,-0.5 609.5,-0.5"/>
<text text-anchor="middle" x="641.5" y="-7.5" font-family="Helvetica,sans-Serif" font-size="10.00">algorithm</text>
</a>
</g>
</g>
<!-- Node1&#45;&gt;Node10 -->
<g id="edge25" class="edge">
<title>Node1&#45;&gt;Node10</title>
<path fill="none" stroke="midnightblue" d="M580.01,-224.3C589.45,-191.56 622.94,-75.38 636.12,-29.67"/>
<polygon fill="midnightblue" stroke="midnightblue" points="639.53,-30.46 638.94,-19.88 632.81,-28.52 639.53,-30.46"/>
</g>
<!-- Node11 -->
<g id="node11" class="node">
<title>Node11</title>
<g id="a_node11"><a xlink:title=" ">
<polygon fill="none" stroke="#bfbfbf" points="531.5,-0.5 531.5,-19.5 591.5,-19.5 591.5,-0.5 531.5,-0.5"/>
<text text-anchor="middle" x="561.5" y="-7.5" font-family="Helvetica,sans-Serif" font-size="10.00">iostream</text>
</a>
</g>
</g>
<!-- Node1&#45;&gt;Node11 -->
<g id="edge26" class="edge">
<title>Node1&#45;&gt;Node11</title>
<path fill="none" stroke="midnightblue" d="M574.08,-224.33C565.05,-200.9 540.67,-134.12 532.5,-76 531.26,-67.2 529.99,-64.53 532.5,-56 535.51,-45.76 541.65,-35.66 547.51,-27.63"/>
<polygon fill="midnightblue" stroke="midnightblue" points="550.43,-29.58 553.83,-19.54 544.91,-25.27 550.43,-29.58"/>
</g>
<!-- Node14 -->
<g id="node14" class="node">
<title>Node14</title>
<g id="a_node14"><a xlink:title=" ">
<polygon fill="none" stroke="#bfbfbf" points="395.5,-0.5 395.5,-19.5 439.5,-19.5 439.5,-0.5 395.5,-0.5"/>
<text text-anchor="middle" x="417.5" y="-7.5" font-family="Helvetica,sans-Serif" font-size="10.00">string</text>
</a>
</g>
</g>
<!-- Node1&#45;&gt;Node14 -->
<g id="edge28" class="edge">
<title>Node1&#45;&gt;Node14</title>
<path fill="none" stroke="midnightblue" d="M569.67,-224.25C561.79,-215.33 549.43,-201 539.5,-188 496.18,-131.29 449.51,-60.54 428.66,-28.37"/>
<polygon fill="midnightblue" stroke="midnightblue" points="431.42,-26.19 423.05,-19.68 425.53,-29.98 431.42,-26.19"/>
</g>
<!-- Node15 -->
<g id="node15" class="node">
<title>Node15</title>
<g id="a_node15"><a xlink:title=" ">
<polygon fill="none" stroke="#bfbfbf" points="458,-0.5 458,-19.5 513,-19.5 513,-0.5 458,-0.5"/>
<text text-anchor="middle" x="485.5" y="-7.5" font-family="Helvetica,sans-Serif" font-size="10.00">fstream</text>
</a>
</g>
</g>
<!-- Node1&#45;&gt;Node15 -->
<g id="edge27" class="edge">
<title>Node1&#45;&gt;Node15</title>
<path fill="none" stroke="midnightblue" d="M571.87,-224.27C566.27,-215.37 557.65,-201.06 551.5,-188 525.11,-132.01 501.76,-62.36 491.31,-29.64"/>
<polygon fill="midnightblue" stroke="midnightblue" points="494.51,-28.16 488.17,-19.68 487.84,-30.27 494.51,-28.16"/>
</g>
<!-- Node19 -->
<g id="node19" class="node">
<title>Node19</title>
<g id="a_node19"><a xlink:href="pn__zero_8h.html" target="_top" xlink:title=" ">
<polygon fill="none" stroke="black" points="707.5,-168.5 707.5,-187.5 771.5,-187.5 771.5,-168.5 707.5,-168.5"/>
<text text-anchor="middle" x="739.5" y="-175.5" font-family="Helvetica,sans-Serif" font-size="10.00">pn_zero.h</text>
</a>
</g>
</g>
<!-- Node1&#45;&gt;Node19 -->
<g id="edge21" class="edge">
<title>Node1&#45;&gt;Node19</title>
<path fill="none" stroke="midnightblue" d="M603.17,-224.44C630.42,-215.36 673.68,-200.94 704.15,-190.78"/>
<polygon fill="midnightblue" stroke="midnightblue" points="705.57,-194 713.95,-187.52 703.36,-187.36 705.57,-194"/>
</g>
<!-- Node21 -->
<g id="node21" class="node">
<title>Node21</title>
<g id="a_node21"><a xlink:title=" ">
<polygon fill="none" stroke="#bfbfbf" points="789.5,-168.5 789.5,-187.5 841.5,-187.5 841.5,-168.5 789.5,-168.5"/>
<text text-anchor="middle" x="815.5" y="-175.5" font-family="Helvetica,sans-Serif" font-size="10.00">cassert</text>
</a>
</g>
</g>
<!-- Node1&#45;&gt;Node21 -->
<g id="edge29" class="edge">
<title>Node1&#45;&gt;Node21</title>
<path fill="none" stroke="midnightblue" d="M618.03,-224.43C656.99,-216.11 717.76,-202.87 779.27,-188.24"/>
<polygon fill="midnightblue" stroke="midnightblue" points="780.24,-191.61 789.15,-185.88 778.61,-184.8 780.24,-191.61"/>
</g>
<!-- Node3 -->
<g id="node3" class="node">
<title>Node3</title>
<g id="a_node3"><a xlink:title=" ">
<polygon fill="none" stroke="#bfbfbf" points="0,-0.5 0,-19.5 47,-19.5 47,-0.5 0,-0.5"/>
<text text-anchor="middle" x="23.5" y="-7.5" font-family="Helvetica,sans-Serif" font-size="10.00">vector</text>
</a>
</g>
</g>
<!-- Node2&#45;&gt;Node3 -->
<g id="edge2" class="edge">
<title>Node2&#45;&gt;Node3</title>
<path fill="none" stroke="midnightblue" d="M155.53,-168.38C153.73,-155.3 148.96,-130.07 137.5,-112 113.69,-74.44 71.96,-42.65 46.14,-25.25"/>
<polygon fill="midnightblue" stroke="midnightblue" points="48,-22.28 37.72,-19.71 44.15,-28.13 48,-22.28"/>
</g>
<!-- Node4 -->
<g id="node4" class="node">
<title>Node4</title>
<g id="a_node4"><a xlink:title=" ">
<polygon fill="none" stroke="#bfbfbf" points="6.5,-112.5 6.5,-131.5 60.5,-131.5 60.5,-112.5 6.5,-112.5"/>
<text text-anchor="middle" x="33.5" y="-119.5" font-family="Helvetica,sans-Serif" font-size="10.00">random</text>
</a>
</g>
</g>
<!-- Node2&#45;&gt;Node4 -->
<g id="edge3" class="edge">
<title>Node2&#45;&gt;Node4</title>
<path fill="none" stroke="midnightblue" d="M137.01,-168.44C116.86,-159.6 85.18,-145.69 62.17,-135.59"/>
<polygon fill="midnightblue" stroke="midnightblue" points="63.46,-132.33 52.9,-131.52 60.65,-138.74 63.46,-132.33"/>
</g>
<!-- Node5 -->
<g id="node5" class="node">
<title>Node5</title>
<g id="a_node5"><a xlink:title=" ">
<polygon fill="none" stroke="#bfbfbf" points="78.5,-112.5 78.5,-131.5 128.5,-131.5 128.5,-112.5 78.5,-112.5"/>
<text text-anchor="middle" x="103.5" y="-119.5" font-family="Helvetica,sans-Serif" font-size="10.00">Rcpp.h</text>
</a>
</g>
</g>
<!-- Node2&#45;&gt;Node5 -->
<g id="edge4" class="edge">
<title>Node2&#45;&gt;Node5</title>
<path fill="none" stroke="midnightblue" d="M147.75,-168.08C140.03,-160.22 128.6,-148.57 119.28,-139.08"/>
<polygon fill="midnightblue" stroke="midnightblue" points="121.59,-136.44 112.09,-131.75 116.6,-141.34 121.59,-136.44"/>
</g>
<!-- Node6 -->
<g id="node6" class="node">
<title>Node6</title>
<g id="a_node6"><a xlink:href="fish_8h.html" target="_top" xlink:title=" ">
<polygon fill="none" stroke="black" points="219.5,-112.5 219.5,-131.5 263.5,-131.5 263.5,-112.5 219.5,-112.5"/>
<text text-anchor="middle" x="241.5" y="-119.5" font-family="Helvetica,sans-Serif" font-size="10.00">fish.h</text>
</a>
</g>
</g>
<!-- Node2&#45;&gt;Node6 -->
<g id="edge5" class="edge">
<title>Node2&#45;&gt;Node6</title>
<path fill="none" stroke="midnightblue" d="M170.16,-168.32C183.42,-159.9 203.77,-146.97 219.35,-137.07"/>
<polygon fill="midnightblue" stroke="midnightblue" points="221.31,-139.97 227.88,-131.65 217.56,-134.06 221.31,-139.97"/>
</g>
<!-- Node6&#45;&gt;Node3 -->
<g id="edge6" class="edge">
<title>Node6&#45;&gt;Node3</title>
<path fill="none" stroke="midnightblue" d="M234.15,-112.09C222.2,-98.16 197.2,-71.26 170.5,-56 165.44,-53.11 98.9,-33.23 57.1,-20.88"/>
<polygon fill="midnightblue" stroke="midnightblue" points="57.89,-17.46 47.31,-17.99 55.91,-24.18 57.89,-17.46"/>
</g>
<!-- Node7 -->
<g id="node7" class="node">
<title>Node7</title>
<g id="a_node7"><a xlink:title=" ">
<polygon fill="none" stroke="#bfbfbf" points="222.5,-56.5 222.5,-75.5 260.5,-75.5 260.5,-56.5 222.5,-56.5"/>
<text text-anchor="middle" x="241.5" y="-63.5" font-family="Helvetica,sans-Serif" font-size="10.00">map</text>
</a>
</g>
</g>
<!-- Node6&#45;&gt;Node7 -->
<g id="edge7" class="edge">
<title>Node6&#45;&gt;Node7</title>
<path fill="none" stroke="midnightblue" d="M241.5,-112.08C241.5,-105.01 241.5,-94.86 241.5,-85.99"/>
<polygon fill="midnightblue" stroke="midnightblue" points="245,-85.75 241.5,-75.75 238,-85.75 245,-85.75"/>
</g>
<!-- Node8 -->
<g id="node8" class="node">
<title>Node8</title>
<g id="a_node8"><a xlink:href="functions_8h.html" target="_top" xlink:title=" ">
<polygon fill="none" stroke="black" points="542,-56.5 542,-75.5 613,-75.5 613,-56.5 542,-56.5"/>
<text text-anchor="middle" x="577.5" y="-63.5" font-family="Helvetica,sans-Serif" font-size="10.00">functions.h</text>
</a>
</g>
</g>
<!-- Node6&#45;&gt;Node8 -->
<g id="edge8" class="edge">
<title>Node6&#45;&gt;Node8</title>
<path fill="none" stroke="midnightblue" d="M263.55,-117.46C317.75,-108.75 458.41,-86.14 531.65,-74.37"/>
<polygon fill="midnightblue" stroke="midnightblue" points="532.63,-77.76 541.95,-72.71 531.52,-70.84 532.63,-77.76"/>
</g>
<!-- Node12 -->
<g id="node12" class="node">
<title>Node12</title>
<g id="a_node12"><a xlink:href="initializer__v2_8h.html" target="_top" xlink:title=" ">
<polygon fill="none" stroke="black" points="279,-56.5 279,-75.5 368,-75.5 368,-56.5 279,-56.5"/>
<text text-anchor="middle" x="323.5" y="-63.5" font-family="Helvetica,sans-Serif" font-size="10.00">initializer_v2.h</text>
</a>
</g>
</g>
<!-- Node6&#45;&gt;Node12 -->
<g id="edge12" class="edge">
<title>Node6&#45;&gt;Node12</title>
<path fill="none" stroke="midnightblue" d="M254.67,-112.32C267.35,-103.98 286.73,-91.21 301.71,-81.35"/>
<polygon fill="midnightblue" stroke="midnightblue" points="303.93,-84.08 310.36,-75.65 300.08,-78.23 303.93,-84.08"/>
</g>
<!-- Node8&#45;&gt;Node9 -->
<g id="edge9" class="edge">
<title>Node8&#45;&gt;Node9</title>
<path fill="none" stroke="midnightblue" d="M599.37,-56.44C622.28,-47.48 658.48,-33.31 684.37,-23.18"/>
<polygon fill="midnightblue" stroke="midnightblue" points="685.7,-26.42 693.74,-19.52 683.15,-19.9 685.7,-26.42"/>
</g>
<!-- Node8&#45;&gt;Node10 -->
<g id="edge10" class="edge">
<title>Node8&#45;&gt;Node10</title>
<path fill="none" stroke="midnightblue" d="M587.78,-56.32C597.34,-48.26 611.78,-36.08 623.28,-26.37"/>
<polygon fill="midnightblue" stroke="midnightblue" points="625.64,-28.96 631.03,-19.83 621.13,-23.61 625.64,-28.96"/>
</g>
<!-- Node8&#45;&gt;Node11 -->
<g id="edge11" class="edge">
<title>Node8&#45;&gt;Node11</title>
<path fill="none" stroke="midnightblue" d="M574.86,-56.08C572.71,-48.85 569.62,-38.41 566.95,-29.4"/>
<polygon fill="midnightblue" stroke="midnightblue" points="570.29,-28.34 564.09,-19.75 563.58,-30.33 570.29,-28.34"/>
</g>
<!-- Node12&#45;&gt;Node3 -->
<g id="edge17" class="edge">
<title>Node12&#45;&gt;Node3</title>
<path fill="none" stroke="midnightblue" d="M278.9,-57.54C212.82,-46.49 93.42,-26.5 57.22,-19.91"/>
<polygon fill="midnightblue" stroke="midnightblue" points="57.68,-16.43 47.19,-17.97 56.35,-23.31 57.68,-16.43"/>
</g>
<!-- Node12&#45;&gt;Node11 -->
<g id="edge13" class="edge">
<title>Node12&#45;&gt;Node11</title>
<path fill="none" stroke="midnightblue" d="M361.21,-56.44C404.87,-46.54 476.48,-30.29 521.2,-20.14"/>
<polygon fill="midnightblue" stroke="midnightblue" points="522.16,-23.51 531.14,-17.89 520.61,-16.69 522.16,-23.51"/>
</g>
<!-- Node13 -->
<g id="node13" class="node">
<title>Node13</title>
<g id="a_node13"><a xlink:title=" ">
<polygon fill="none" stroke="#bfbfbf" points="259.5,-0.5 259.5,-19.5 303.5,-19.5 303.5,-0.5 259.5,-0.5"/>
<text text-anchor="middle" x="281.5" y="-7.5" font-family="Helvetica,sans-Serif" font-size="10.00">regex</text>
</a>
</g>
</g>
<!-- Node12&#45;&gt;Node13 -->
<g id="edge14" class="edge">
<title>Node12&#45;&gt;Node13</title>
<path fill="none" stroke="midnightblue" d="M316.56,-56.08C310.57,-48.38 301.75,-37.03 294.45,-27.65"/>
<polygon fill="midnightblue" stroke="midnightblue" points="297.21,-25.5 288.31,-19.75 291.68,-29.79 297.21,-25.5"/>
</g>
<!-- Node12&#45;&gt;Node14 -->
<g id="edge15" class="edge">
<title>Node12&#45;&gt;Node14</title>
<path fill="none" stroke="midnightblue" d="M338.6,-56.32C353.4,-47.82 376.19,-34.73 393.48,-24.8"/>
<polygon fill="midnightblue" stroke="midnightblue" points="395.51,-27.67 402.43,-19.65 392.02,-21.6 395.51,-27.67"/>
</g>
<!-- Node12&#45;&gt;Node15 -->
<g id="edge16" class="edge">
<title>Node12&#45;&gt;Node15</title>
<path fill="none" stroke="midnightblue" d="M349.17,-56.44C376.42,-47.36 419.68,-32.94 450.15,-22.78"/>
<polygon fill="midnightblue" stroke="midnightblue" points="451.57,-26 459.95,-19.52 449.36,-19.36 451.57,-26"/>
</g>
<!-- Node16 -->
<g id="node16" class="node">
<title>Node16</title>
<g id="a_node16"><a xlink:title=" ">
<polygon fill="none" stroke="#bfbfbf" points="321.5,-0.5 321.5,-19.5 377.5,-19.5 377.5,-0.5 321.5,-0.5"/>
<text text-anchor="middle" x="349.5" y="-7.5" font-family="Helvetica,sans-Serif" font-size="10.00">sstream</text>
</a>
</g>
</g>
<!-- Node12&#45;&gt;Node16 -->
<g id="edge18" class="edge">
<title>Node12&#45;&gt;Node16</title>
<path fill="none" stroke="midnightblue" d="M327.79,-56.08C331.35,-48.69 336.52,-37.95 340.92,-28.81"/>
<polygon fill="midnightblue" stroke="midnightblue" points="344.1,-30.28 345.29,-19.75 337.79,-27.24 344.1,-30.28"/>
</g>
<!-- Node17 -->
<g id="node17" class="node">
<title>Node17</title>
<g id="a_node17"><a xlink:title=" ">
<polygon fill="none" stroke="#bfbfbf" points="65,-0.5 65,-19.5 130,-19.5 130,-0.5 65,-0.5"/>
<text text-anchor="middle" x="97.5" y="-7.5" font-family="Helvetica,sans-Serif" font-size="10.00">stdexcept</text>
</a>
</g>
</g>
<!-- Node12&#45;&gt;Node17 -->
<g id="edge19" class="edge">
<title>Node12&#45;&gt;Node17</title>
<path fill="none" stroke="midnightblue" d="M287.69,-56.44C247.59,-46.86 182.65,-31.35 140.01,-21.16"/>
<polygon fill="midnightblue" stroke="midnightblue" points="140.75,-17.73 130.21,-18.82 139.12,-24.54 140.75,-17.73"/>
</g>
<!-- Node18 -->
<g id="node18" class="node">
<title>Node18</title>
<g id="a_node18"><a xlink:title=" ">
<polygon fill="none" stroke="#bfbfbf" points="148,-0.5 148,-19.5 241,-19.5 241,-0.5 148,-0.5"/>
<text text-anchor="middle" x="194.5" y="-7.5" font-family="Helvetica,sans-Serif" font-size="10.00">unordered_map</text>
</a>
</g>
</g>
<!-- Node12&#45;&gt;Node18 -->
<g id="edge20" class="edge">
<title>Node12&#45;&gt;Node18</title>
<path fill="none" stroke="midnightblue" d="M303.06,-56.44C281.83,-47.56 248.4,-33.56 224.25,-23.45"/>
<polygon fill="midnightblue" stroke="midnightblue" points="225.42,-20.15 214.84,-19.52 222.72,-26.61 225.42,-20.15"/>
</g>
<!-- Node19&#45;&gt;Node9 -->
<g id="edge22" class="edge">
<title>Node19&#45;&gt;Node9</title>
<path fill="none" stroke="midnightblue" d="M744.88,-168.44C750.06,-159.68 757.51,-145.47 760.5,-132 762.43,-123.32 762.35,-120.69 760.5,-112 753.91,-81 737.1,-47.97 726,-28.43"/>
<polygon fill="midnightblue" stroke="midnightblue" points="729,-26.63 720.93,-19.76 722.95,-30.16 729,-26.63"/>
</g>
<!-- Node20 -->
<g id="node20" class="node">
<title>Node20</title>
<g id="a_node20"><a xlink:title=" ">
<polygon fill="none" stroke="#bfbfbf" points="707.5,-112.5 707.5,-131.5 751.5,-131.5 751.5,-112.5 707.5,-112.5"/>
<text text-anchor="middle" x="729.5" y="-119.5" font-family="Helvetica,sans-Serif" font-size="10.00">limits</text>
</a>
</g>
</g>
<!-- Node19&#45;&gt;Node20 -->
<g id="edge23" class="edge">
<title>Node19&#45;&gt;Node20</title>
<path fill="none" stroke="midnightblue" d="M737.85,-168.08C736.52,-160.93 734.62,-150.64 732.96,-141.69"/>
<polygon fill="midnightblue" stroke="midnightblue" points="736.38,-140.95 731.12,-131.75 729.5,-142.22 736.38,-140.95"/>
</g>
</g>
</svg>
