<?xml version="1.0" encoding="UTF-8" standalone="no"?>
<!DOCTYPE svg PUBLIC "-//W3C//DTD SVG 1.1//EN"
 "http://www.w3.org/Graphics/SVG/1.1/DTD/svg11.dtd">
<!-- Generated by graphviz version 2.43.0 (0)
 -->
<!-- Title: inst/include/population.h Pages: 1 -->
<svg width="749pt" height="196pt"
 viewBox="0.00 0.00 748.50 196.00" xmlns="http://www.w3.org/2000/svg" xmlns:xlink="http://www.w3.org/1999/xlink">
<g id="graph0" class="graph" transform="scale(1 1) rotate(0) translate(4 192)">
<title>inst/include/population.h</title>
<!-- Node1 -->
<g id="node1" class="node">
<title>Node1</title>
<g id="a_node1"><a xlink:title=" ">
<polygon fill="#bfbfbf" stroke="black" points="548.5,-168.5 548.5,-187.5 685.5,-187.5 685.5,-168.5 548.5,-168.5"/>
<text text-anchor="middle" x="617" y="-175.5" font-family="Helvetica,sans-Serif" font-size="10.00">inst/include/population.h</text>
</a>
</g>
</g>
<!-- Node2 -->
<g id="node2" class="node">
<title>Node2</title>
<g id="a_node2"><a xlink:title=" ">
<polygon fill="none" stroke="#bfbfbf" points="693.5,-0.5 693.5,-19.5 740.5,-19.5 740.5,-0.5 693.5,-0.5"/>
<text text-anchor="middle" x="717" y="-7.5" font-family="Helvetica,sans-Serif" font-size="10.00">vector</text>
</a>
</g>
</g>
<!-- Node1&#45;&gt;Node2 -->
<g id="edge1" class="edge">
<title>Node1&#45;&gt;Node2</title>
<path fill="none" stroke="midnightblue" d="M637.85,-168.46C653.39,-161.05 673.92,-148.86 686,-132 708.24,-100.97 714.55,-55.4 716.32,-29.96"/>
<polygon fill="midnightblue" stroke="midnightblue" points="719.83,-29.98 716.86,-19.81 712.84,-29.61 719.83,-29.98"/>
</g>
<!-- Node3 -->
<g id="node3" class="node">
<title>Node3</title>
<g id="a_node3"><a xlink:title=" ">
<polygon fill="none" stroke="#bfbfbf" points="555,-112.5 555,-131.5 609,-131.5 609,-112.5 555,-112.5"/>
<text text-anchor="middle" x="582" y="-119.5" font-family="Helvetica,sans-Serif" font-size="10.00">random</text>
</a>
</g>
</g>
<!-- Node1&#45;&gt;Node3 -->
<g id="edge2" class="edge">
<title>Node1&#45;&gt;Node3</title>
<path fill="none" stroke="midnightblue" d="M611.22,-168.08C606.33,-160.53 599.17,-149.49 593.17,-140.23"/>
<polygon fill="midnightblue" stroke="midnightblue" points="596.05,-138.24 587.67,-131.75 590.17,-142.05 596.05,-138.24"/>
</g>
<!-- Node4 -->
<g id="node4" class="node">
<title>Node4</title>
<g id="a_node4"><a xlink:title=" ">
<polygon fill="none" stroke="#bfbfbf" points="627,-112.5 627,-131.5 677,-131.5 677,-112.5 627,-112.5"/>
<text text-anchor="middle" x="652" y="-119.5" font-family="Helvetica,sans-Serif" font-size="10.00">Rcpp.h</text>
</a>
</g>
</g>
<!-- Node1&#45;&gt;Node4 -->
<g id="edge3" class="edge">
<title>Node1&#45;&gt;Node4</title>
<path fill="none" stroke="midnightblue" d="M622.78,-168.08C627.67,-160.53 634.83,-149.49 640.83,-140.23"/>
<polygon fill="midnightblue" stroke="midnightblue" points="643.83,-142.05 646.33,-131.75 637.95,-138.24 643.83,-142.05"/>
</g>
<!-- Node5 -->
<g id="node5" class="node">
<title>Node5</title>
<g id="a_node5"><a xlink:href="fish_8h.html" target="_top" xlink:title=" ">
<polygon fill="none" stroke="black" points="482,-112.5 482,-131.5 526,-131.5 526,-112.5 482,-112.5"/>
<text text-anchor="middle" x="504" y="-119.5" font-family="Helvetica,sans-Serif" font-size="10.00">fish.h</text>
</a>
</g>
</g>
<!-- Node1&#45;&gt;Node5 -->
<g id="edge4" class="edge">
<title>Node1&#45;&gt;Node5</title>
<path fill="none" stroke="midnightblue" d="M599.09,-168.44C580.75,-159.68 551.99,-145.94 530.91,-135.86"/>
<polygon fill="midnightblue" stroke="midnightblue" points="532.35,-132.67 521.82,-131.52 529.33,-138.99 532.35,-132.67"/>
</g>
<!-- Node5&#45;&gt;Node2 -->
<g id="edge5" class="edge">
<title>Node5&#45;&gt;Node2</title>
<path fill="none" stroke="midnightblue" d="M520.71,-112.37C557.81,-93.21 647.22,-47.04 691.41,-24.22"/>
<polygon fill="midnightblue" stroke="midnightblue" points="693.08,-27.29 700.36,-19.59 689.87,-21.07 693.08,-27.29"/>
</g>
<!-- Node6 -->
<g id="node6" class="node">
<title>Node6</title>
<g id="a_node6"><a xlink:title=" ">
<polygon fill="none" stroke="#bfbfbf" points="403,-56.5 403,-75.5 441,-75.5 441,-56.5 403,-56.5"/>
<text text-anchor="middle" x="422" y="-63.5" font-family="Helvetica,sans-Serif" font-size="10.00">map</text>
</a>
</g>
</g>
<!-- Node5&#45;&gt;Node6 -->
<g id="edge6" class="edge">
<title>Node5&#45;&gt;Node6</title>
<path fill="none" stroke="midnightblue" d="M490.83,-112.32C478.15,-103.98 458.77,-91.21 443.79,-81.35"/>
<polygon fill="midnightblue" stroke="midnightblue" points="445.42,-78.23 435.14,-75.65 441.57,-84.08 445.42,-78.23"/>
</g>
<!-- Node7 -->
<g id="node7" class="node">
<title>Node7</title>
<g id="a_node7"><a xlink:href="functions_8h.html" target="_top" xlink:title=" ">
<polygon fill="none" stroke="black" points="106.5,-56.5 106.5,-75.5 177.5,-75.5 177.5,-56.5 106.5,-56.5"/>
<text text-anchor="middle" x="142" y="-63.5" font-family="Helvetica,sans-Serif" font-size="10.00">functions.h</text>
</a>
</g>
</g>
<!-- Node5&#45;&gt;Node7 -->
<g id="edge7" class="edge">
<title>Node5&#45;&gt;Node7</title>
<path fill="none" stroke="midnightblue" d="M481.9,-117.7C423.87,-109.05 266.24,-85.53 187.72,-73.82"/>
<polygon fill="midnightblue" stroke="midnightblue" points="188.04,-70.33 177.64,-72.32 187.01,-77.25 188.04,-70.33"/>
</g>
<!-- Node11 -->
<g id="node11" class="node">
<title>Node11</title>
<g id="a_node11"><a xlink:href="initializer__v2_8h.html" target="_top" xlink:title=" ">
<polygon fill="none" stroke="black" points="459.5,-56.5 459.5,-75.5 548.5,-75.5 548.5,-56.5 459.5,-56.5"/>
<text text-anchor="middle" x="504" y="-63.5" font-family="Helvetica,sans-Serif" font-size="10.00">initializer_v2.h</text>
</a>
</g>
</g>
<!-- Node5&#45;&gt;Node11 -->
<g id="edge11" class="edge">
<title>Node5&#45;&gt;Node11</title>
<path fill="none" stroke="midnightblue" d="M504,-112.08C504,-105.01 504,-94.86 504,-85.99"/>
<polygon fill="midnightblue" stroke="midnightblue" points="507.5,-85.75 504,-75.75 500.5,-85.75 507.5,-85.75"/>
</g>
<!-- Node8 -->
<g id="node8" class="node">
<title>Node8</title>
<g id="a_node8"><a xlink:title=" ">
<polygon fill="none" stroke="#bfbfbf" points="82.5,-0.5 82.5,-19.5 129.5,-19.5 129.5,-0.5 82.5,-0.5"/>
<text text-anchor="middle" x="106" y="-7.5" font-family="Helvetica,sans-Serif" font-size="10.00">cmath</text>
</a>
</g>
</g>
<!-- Node7&#45;&gt;Node8 -->
<g id="edge8" class="edge">
<title>Node7&#45;&gt;Node8</title>
<path fill="none" stroke="midnightblue" d="M136.06,-56.08C131.02,-48.53 123.66,-37.49 117.49,-28.23"/>
<polygon fill="midnightblue" stroke="midnightblue" points="120.29,-26.13 111.83,-19.75 114.47,-30.01 120.29,-26.13"/>
</g>
<!-- Node9 -->
<g id="node9" class="node">
<title>Node9</title>
<g id="a_node9"><a xlink:title=" ">
<polygon fill="none" stroke="#bfbfbf" points="0,-0.5 0,-19.5 64,-19.5 64,-0.5 0,-0.5"/>
<text text-anchor="middle" x="32" y="-7.5" font-family="Helvetica,sans-Serif" font-size="10.00">algorithm</text>
</a>
</g>
</g>
<!-- Node7&#45;&gt;Node9 -->
<g id="edge9" class="edge">
<title>Node7&#45;&gt;Node9</title>
<path fill="none" stroke="midnightblue" d="M124.33,-56.32C106.61,-47.62 79.1,-34.12 58.71,-24.11"/>
<polygon fill="midnightblue" stroke="midnightblue" points="60.15,-20.92 49.63,-19.65 57.06,-27.2 60.15,-20.92"/>
</g>
<!-- Node10 -->
<g id="node10" class="node">
<title>Node10</title>
<g id="a_node10"><a xlink:title=" ">
<polygon fill="none" stroke="#bfbfbf" points="148,-0.5 148,-19.5 208,-19.5 208,-0.5 148,-0.5"/>
<text text-anchor="middle" x="178" y="-7.5" font-family="Helvetica,sans-Serif" font-size="10.00">iostream</text>
</a>
</g>
</g>
<!-- Node7&#45;&gt;Node10 -->
<g id="edge10" class="edge">
<title>Node7&#45;&gt;Node10</title>
<path fill="none" stroke="midnightblue" d="M147.94,-56.08C152.98,-48.53 160.34,-37.49 166.51,-28.23"/>
<polygon fill="midnightblue" stroke="midnightblue" points="169.53,-30.01 172.17,-19.75 163.71,-26.13 169.53,-30.01"/>
</g>
<!-- Node11&#45;&gt;Node2 -->
<g id="edge16" class="edge">
<title>Node11&#45;&gt;Node2</title>
<path fill="none" stroke="midnightblue" d="M539.24,-56.43C573.58,-48.02 627.52,-34.67 683.49,-20.09"/>
<polygon fill="midnightblue" stroke="midnightblue" points="684.43,-23.46 693.22,-17.55 682.66,-16.69 684.43,-23.46"/>
</g>
<!-- Node11&#45;&gt;Node10 -->
<g id="edge12" class="edge">
<title>Node11&#45;&gt;Node10</title>
<path fill="none" stroke="midnightblue" d="M459.22,-57.49C456.1,-56.98 453,-56.48 450,-56 349.67,-39.89 321.58,-39.79 218.1,-20.1"/>
<polygon fill="midnightblue" stroke="midnightblue" points="218.67,-16.64 208.19,-18.2 217.35,-23.52 218.67,-16.64"/>
</g>
<!-- Node12 -->
<g id="node12" class="node">
<title>Node12</title>
<g id="a_node12"><a xlink:title=" ">
<polygon fill="none" stroke="#bfbfbf" points="569,-0.5 569,-19.5 613,-19.5 613,-0.5 569,-0.5"/>
<text text-anchor="middle" x="591" y="-7.5" font-family="Helvetica,sans-Serif" font-size="10.00">regex</text>
</a>
</g>
</g>
<!-- Node11&#45;&gt;Node12 -->
<g id="edge13" class="edge">
<title>Node11&#45;&gt;Node12</title>
<path fill="none" stroke="midnightblue" d="M517.98,-56.32C531.55,-47.9 552.38,-34.97 568.32,-25.07"/>
<polygon fill="midnightblue" stroke="midnightblue" points="570.41,-27.9 577.06,-19.65 566.71,-21.95 570.41,-27.9"/>
</g>
<!-- Node13 -->
<g id="node13" class="node">
<title>Node13</title>
<g id="a_node13"><a xlink:title=" ">
<polygon fill="none" stroke="#bfbfbf" points="631,-0.5 631,-19.5 675,-19.5 675,-0.5 631,-0.5"/>
<text text-anchor="middle" x="653" y="-7.5" font-family="Helvetica,sans-Serif" font-size="10.00">string</text>
</a>
</g>
</g>
<!-- Node11&#45;&gt;Node13 -->
<g id="edge14" class="edge">
<title>Node11&#45;&gt;Node13</title>
<path fill="none" stroke="midnightblue" d="M527.61,-56.44C552.9,-47.28 593.17,-32.68 621.22,-22.52"/>
<polygon fill="midnightblue" stroke="midnightblue" points="622.75,-25.69 630.96,-18.99 620.36,-19.11 622.75,-25.69"/>
</g>
<!-- Node14 -->
<g id="node14" class="node">
<title>Node14</title>
<g id="a_node14"><a xlink:title=" ">
<polygon fill="none" stroke="#bfbfbf" points="226.5,-0.5 226.5,-19.5 281.5,-19.5 281.5,-0.5 226.5,-0.5"/>
<text text-anchor="middle" x="254" y="-7.5" font-family="Helvetica,sans-Serif" font-size="10.00">fstream</text>
</a>
</g>
</g>
<!-- Node11&#45;&gt;Node14 -->
<g id="edge15" class="edge">
<title>Node11&#45;&gt;Node14</title>
<path fill="none" stroke="midnightblue" d="M461.89,-56.5C420.96,-48.14 356.8,-34.82 291.86,-20.14"/>
<polygon fill="midnightblue" stroke="midnightblue" points="292.39,-16.67 281.86,-17.87 290.84,-23.5 292.39,-16.67"/>
</g>
<!-- Node15 -->
<g id="node15" class="node">
<title>Node15</title>
<g id="a_node15"><a xlink:title=" ">
<polygon fill="none" stroke="#bfbfbf" points="300,-0.5 300,-19.5 356,-19.5 356,-0.5 300,-0.5"/>
<text text-anchor="middle" x="328" y="-7.5" font-family="Helvetica,sans-Serif" font-size="10.00">sstream</text>
</a>
</g>
</g>
<!-- Node11&#45;&gt;Node15 -->
<g id="edge17" class="edge">
<title>Node11&#45;&gt;Node15</title>
<path fill="none" stroke="midnightblue" d="M476.11,-56.44C446.25,-47.28 398.69,-32.69 365.54,-22.52"/>
<polygon fill="midnightblue" stroke="midnightblue" points="366.34,-19.1 355.76,-19.52 364.29,-25.8 366.34,-19.1"/>
</g>
<!-- Node16 -->
<g id="node16" class="node">
<title>Node16</title>
<g id="a_node16"><a xlink:title=" ">
<polygon fill="none" stroke="#bfbfbf" points="374.5,-0.5 374.5,-19.5 439.5,-19.5 439.5,-0.5 374.5,-0.5"/>
<text text-anchor="middle" x="407" y="-7.5" font-family="Helvetica,sans-Serif" font-size="10.00">stdexcept</text>
</a>
</g>
</g>
<!-- Node11&#45;&gt;Node16 -->
<g id="edge18" class="edge">
<title>Node11&#45;&gt;Node16</title>
<path fill="none" stroke="midnightblue" d="M488.42,-56.32C473,-47.74 449.19,-34.49 431.29,-24.52"/>
<polygon fill="midnightblue" stroke="midnightblue" points="432.99,-21.46 422.55,-19.65 429.58,-27.58 432.99,-21.46"/>
</g>
<!-- Node17 -->
<g id="node17" class="node">
<title>Node17</title>
<g id="a_node17"><a xlink:title=" ">
<polygon fill="none" stroke="#bfbfbf" points="457.5,-0.5 457.5,-19.5 550.5,-19.5 550.5,-0.5 457.5,-0.5"/>
<text text-anchor="middle" x="504" y="-7.5" font-family="Helvetica,sans-Serif" font-size="10.00">unordered_map</text>
</a>
</g>
</g>
<!-- Node11&#45;&gt;Node17 -->
<g id="edge19" class="edge">
<title>Node11&#45;&gt;Node17</title>
<path fill="none" stroke="midnightblue" d="M504,-56.08C504,-49.01 504,-38.86 504,-29.99"/>
<polygon fill="midnightblue" stroke="midnightblue" points="507.5,-29.75 504,-19.75 500.5,-29.75 507.5,-29.75"/>
</g>
</g>
</svg>
