<?xml version="1.0" encoding="UTF-8" standalone="no"?>
<!DOCTYPE svg PUBLIC "-//W3C//DTD SVG 1.1//EN"
 "http://www.w3.org/Graphics/SVG/1.1/DTD/svg11.dtd">
<!-- Generated by graphviz version 2.43.0 (0)
 -->
<!-- Title: inst/include/population.h Pages: 1 -->
<svg width="429pt" height="140pt"
 viewBox="0.00 0.00 429.00 140.00" xmlns="http://www.w3.org/2000/svg" xmlns:xlink="http://www.w3.org/1999/xlink">
<g id="graph0" class="graph" transform="scale(1 1) rotate(0) translate(4 136)">
<title>inst/include/population.h</title>
<!-- Node1 -->
<g id="node1" class="node">
<title>Node1</title>
<g id="a_node1"><a xlink:title=" ">
<polygon fill="#bfbfbf" stroke="black" points="79.5,-112.5 79.5,-131.5 216.5,-131.5 216.5,-112.5 79.5,-112.5"/>
<text text-anchor="middle" x="148" y="-119.5" font-family="Helvetica,sans-Serif" font-size="10.00">inst/include/population.h</text>
</a>
</g>
</g>
<!-- Node2 -->
<g id="node2" class="node">
<title>Node2</title>
<g id="a_node2"><a xlink:href="fish__glue_8cpp.html" target="_top" xlink:title=" ">
<polygon fill="none" stroke="black" points="0,-0.5 0,-19.5 98,-19.5 98,-0.5 0,-0.5"/>
<text text-anchor="middle" x="49" y="-7.5" font-family="Helvetica,sans-Serif" font-size="10.00">src/fish_glue.cpp</text>
</a>
</g>
</g>
<!-- Node1&#45;&gt;Node2 -->
<g id="edge1" class="edge">
<title>Node1&#45;&gt;Node2</title>
<path fill="none" stroke="midnightblue" d="M69.9,-110.62C49.76,-104.01 30.32,-93.3 18,-76 4.8,-57.46 26.04,-32.43 39.42,-19.51"/>
<polygon fill="midnightblue" stroke="midnightblue" points="68.91,-113.98 79.49,-113.47 70.9,-107.27 68.91,-113.98"/>
</g>
<!-- Node3 -->
<g id="node3" class="node">
<title>Node3</title>
<g id="a_node3"><a xlink:href="population_8cpp.html" target="_top" xlink:title=" ">
<polygon fill="none" stroke="black" points="27,-56.5 27,-75.5 133,-75.5 133,-56.5 27,-56.5"/>
<text text-anchor="middle" x="80" y="-63.5" font-family="Helvetica,sans-Serif" font-size="10.00">src/population.cpp</text>
</a>
</g>
</g>
<!-- Node1&#45;&gt;Node3 -->
<g id="edge2" class="edge">
<title>Node1&#45;&gt;Node3</title>
<path fill="none" stroke="midnightblue" d="M129.24,-106.1C117,-96.38 101.44,-84.03 91.12,-75.83"/>
<polygon fill="midnightblue" stroke="midnightblue" points="127.07,-108.85 137.07,-112.32 131.42,-103.36 127.07,-108.85"/>
</g>
<!-- Node4 -->
<g id="node4" class="node">
<title>Node4</title>
<g id="a_node4"><a xlink:href="fisheRy_8h.html" target="_top" xlink:title=" ">
<polygon fill="none" stroke="black" points="301,-56.5 301,-75.5 421,-75.5 421,-56.5 301,-56.5"/>
<text text-anchor="middle" x="361" y="-63.5" font-family="Helvetica,sans-Serif" font-size="10.00">inst/include/fisheRy.h</text>
</a>
</g>
</g>
<!-- Node1&#45;&gt;Node4 -->
<g id="edge3" class="edge">
<title>Node1&#45;&gt;Node4</title>
<path fill="none" stroke="midnightblue" d="M191.55,-109.96C231.78,-99.76 290.7,-84.82 327.41,-75.52"/>
<polygon fill="midnightblue" stroke="midnightblue" points="190.58,-106.59 181.75,-112.44 192.3,-113.38 190.58,-106.59"/>
</g>
<!-- Node6 -->
<g id="node6" class="node">
<title>Node6</title>
<g id="a_node6"><a xlink:href="simulator_8h.html" target="_top" xlink:title=" ">
<polygon fill="none" stroke="black" points="151.5,-56.5 151.5,-75.5 282.5,-75.5 282.5,-56.5 151.5,-56.5"/>
<text text-anchor="middle" x="217" y="-63.5" font-family="Helvetica,sans-Serif" font-size="10.00">inst/include/simulator.h</text>
</a>
</g>
</g>
<!-- Node1&#45;&gt;Node6 -->
<g id="edge5" class="edge">
<title>Node1&#45;&gt;Node6</title>
<path fill="none" stroke="midnightblue" d="M167.04,-106.1C179.46,-96.38 195.24,-84.03 205.71,-75.83"/>
<polygon fill="midnightblue" stroke="midnightblue" points="164.8,-103.4 159.09,-112.32 169.12,-108.92 164.8,-103.4"/>
</g>
<!-- Node5 -->
<g id="node5" class="node">
<title>Node5</title>
<g id="a_node5"><a xlink:href="RcppExports_8cpp.html" target="_top" xlink:title=" ">
<polygon fill="none" stroke="black" points="303.5,-0.5 303.5,-19.5 418.5,-19.5 418.5,-0.5 303.5,-0.5"/>
<text text-anchor="middle" x="361" y="-7.5" font-family="Helvetica,sans-Serif" font-size="10.00">src/RcppExports.cpp</text>
</a>
</g>
</g>
<!-- Node4&#45;&gt;Node5 -->
<g id="edge4" class="edge">
<title>Node4&#45;&gt;Node5</title>
<path fill="none" stroke="midnightblue" d="M361,-45.8C361,-36.91 361,-26.78 361,-19.75"/>
<polygon fill="midnightblue" stroke="midnightblue" points="357.5,-46.08 361,-56.08 364.5,-46.08 357.5,-46.08"/>
</g>
<!-- Node6&#45;&gt;Node2 -->
<g id="edge6" class="edge">
<title>Node6&#45;&gt;Node2</title>
<path fill="none" stroke="midnightblue" d="M180.61,-53.3C148.96,-43.13 103.83,-28.62 75.5,-19.52"/>
<polygon fill="midnightblue" stroke="midnightblue" points="179.79,-56.72 190.38,-56.44 181.93,-50.05 179.79,-56.72"/>
</g>
<!-- Node7 -->
<g id="node7" class="node">
<title>Node7</title>
<g id="a_node7"><a xlink:href="simulator_8cpp.html" target="_top" xlink:title=" ">
<polygon fill="none" stroke="black" points="166.5,-0.5 166.5,-19.5 267.5,-19.5 267.5,-0.5 166.5,-0.5"/>
<text text-anchor="middle" x="217" y="-7.5" font-family="Helvetica,sans-Serif" font-size="10.00">src/simulator.cpp</text>
</a>
</g>
</g>
<!-- Node6&#45;&gt;Node7 -->
<g id="edge7" class="edge">
<title>Node6&#45;&gt;Node7</title>
<path fill="none" stroke="midnightblue" d="M217,-45.8C217,-36.91 217,-26.78 217,-19.75"/>
<polygon fill="midnightblue" stroke="midnightblue" points="213.5,-46.08 217,-56.08 220.5,-46.08 213.5,-46.08"/>
</g>
</g>
</svg>
