<?xml version="1.0" encoding="UTF-8" standalone="no"?>
<!DOCTYPE svg PUBLIC "-//W3C//DTD SVG 1.1//EN"
 "http://www.w3.org/Graphics/SVG/1.1/DTD/svg11.dtd">
<!-- Generated by graphviz version 2.43.0 (0)
 -->
<!-- Title: src/RcppExports.cpp Pages: 1 -->
<svg width="748pt" height="308pt"
 viewBox="0.00 0.00 748.00 308.00" xmlns="http://www.w3.org/2000/svg" xmlns:xlink="http://www.w3.org/1999/xlink">
<g id="graph0" class="graph" transform="scale(1 1) rotate(0) translate(4 304)">
<title>src/RcppExports.cpp</title>
<!-- Node1 -->
<g id="node1" class="node">
<title>Node1</title>
<g id="a_node1"><a xlink:title=" ">
<polygon fill="#bfbfbf" stroke="black" points="568,-280.5 568,-299.5 683,-299.5 683,-280.5 568,-280.5"/>
<text text-anchor="middle" x="625.5" y="-287.5" font-family="Helvetica,sans-Serif" font-size="10.00">src/RcppExports.cpp</text>
</a>
</g>
</g>
<!-- Node2 -->
<g id="node2" class="node">
<title>Node2</title>
<g id="a_node2"><a xlink:href="fisheRy_8h.html" target="_top" xlink:title=" ">
<polygon fill="none" stroke="black" points="515,-224.5 515,-243.5 644,-243.5 644,-224.5 515,-224.5"/>
<text text-anchor="middle" x="579.5" y="-231.5" font-family="Helvetica,sans-Serif" font-size="10.00">../inst/include/fisheRy.h</text>
</a>
</g>
</g>
<!-- Node1&#45;&gt;Node2 -->
<g id="edge1" class="edge">
<title>Node1&#45;&gt;Node2</title>
<path fill="none" stroke="midnightblue" d="M617.9,-280.08C611.27,-272.3 601.48,-260.8 593.44,-251.37"/>
<polygon fill="midnightblue" stroke="midnightblue" points="596.1,-249.09 586.95,-243.75 590.77,-253.63 596.1,-249.09"/>
</g>
<!-- Node19 -->
<g id="node19" class="node">
<title>Node19</title>
<g id="a_node19"><a xlink:title=" ">
<polygon fill="none" stroke="#bfbfbf" points="653.5,-112.5 653.5,-131.5 703.5,-131.5 703.5,-112.5 653.5,-112.5"/>
<text text-anchor="middle" x="678.5" y="-119.5" font-family="Helvetica,sans-Serif" font-size="10.00">Rcpp.h</text>
</a>
</g>
</g>
<!-- Node1&#45;&gt;Node19 -->
<g id="edge23" class="edge">
<title>Node1&#45;&gt;Node19</title>
<path fill="none" stroke="midnightblue" d="M631.78,-280.48C637.94,-271.75 647.15,-257.56 652.5,-244 666.19,-209.32 673.27,-166.06 676.41,-141.79"/>
<polygon fill="midnightblue" stroke="midnightblue" points="679.89,-142.14 677.61,-131.79 672.94,-141.3 679.89,-142.14"/>
</g>
<!-- Node3 -->
<g id="node3" class="node">
<title>Node3</title>
<g id="a_node3"><a xlink:href="fish_8h.html" target="_top" xlink:title=" ">
<polygon fill="none" stroke="black" points="481.5,-112.5 481.5,-131.5 525.5,-131.5 525.5,-112.5 481.5,-112.5"/>
<text text-anchor="middle" x="503.5" y="-119.5" font-family="Helvetica,sans-Serif" font-size="10.00">fish.h</text>
</a>
</g>
</g>
<!-- Node2&#45;&gt;Node3 -->
<g id="edge2" class="edge">
<title>Node2&#45;&gt;Node3</title>
<path fill="none" stroke="midnightblue" d="M567.94,-224.44C557.32,-216.1 541.74,-202.58 531.5,-188 521.36,-173.56 513.78,-154.87 509.09,-141.23"/>
<polygon fill="midnightblue" stroke="midnightblue" points="512.37,-139.99 505.94,-131.57 505.71,-142.16 512.37,-139.99"/>
</g>
<!-- Node17 -->
<g id="node17" class="node">
<title>Node17</title>
<g id="a_node17"><a xlink:href="population_8h.html" target="_top" xlink:title=" ">
<polygon fill="none" stroke="black" points="541,-168.5 541,-187.5 618,-187.5 618,-168.5 541,-168.5"/>
<text text-anchor="middle" x="579.5" y="-175.5" font-family="Helvetica,sans-Serif" font-size="10.00">population.h</text>
</a>
</g>
</g>
<!-- Node2&#45;&gt;Node17 -->
<g id="edge18" class="edge">
<title>Node2&#45;&gt;Node17</title>
<path fill="none" stroke="midnightblue" d="M579.5,-224.08C579.5,-217.01 579.5,-206.86 579.5,-197.99"/>
<polygon fill="midnightblue" stroke="midnightblue" points="583,-197.75 579.5,-187.75 576,-197.75 583,-197.75"/>
</g>
<!-- Node4 -->
<g id="node4" class="node">
<title>Node4</title>
<g id="a_node4"><a xlink:title=" ">
<polygon fill="none" stroke="#bfbfbf" points="693,-0.5 693,-19.5 740,-19.5 740,-0.5 693,-0.5"/>
<text text-anchor="middle" x="716.5" y="-7.5" font-family="Helvetica,sans-Serif" font-size="10.00">vector</text>
</a>
</g>
</g>
<!-- Node3&#45;&gt;Node4 -->
<g id="edge3" class="edge">
<title>Node3&#45;&gt;Node4</title>
<path fill="none" stroke="midnightblue" d="M516.47,-112.4C536.42,-99.35 576.05,-74.16 611.5,-56 635.42,-43.75 663.45,-31.85 684.52,-23.38"/>
<polygon fill="midnightblue" stroke="midnightblue" points="685.97,-26.57 693.97,-19.62 683.39,-20.06 685.97,-26.57"/>
</g>
<!-- Node5 -->
<g id="node5" class="node">
<title>Node5</title>
<g id="a_node5"><a xlink:title=" ">
<polygon fill="none" stroke="#bfbfbf" points="402.5,-56.5 402.5,-75.5 440.5,-75.5 440.5,-56.5 402.5,-56.5"/>
<text text-anchor="middle" x="421.5" y="-63.5" font-family="Helvetica,sans-Serif" font-size="10.00">map</text>
</a>
</g>
</g>
<!-- Node3&#45;&gt;Node5 -->
<g id="edge4" class="edge">
<title>Node3&#45;&gt;Node5</title>
<path fill="none" stroke="midnightblue" d="M490.33,-112.32C477.65,-103.98 458.27,-91.21 443.29,-81.35"/>
<polygon fill="midnightblue" stroke="midnightblue" points="444.92,-78.23 434.64,-75.65 441.07,-84.08 444.92,-78.23"/>
</g>
<!-- Node6 -->
<g id="node6" class="node">
<title>Node6</title>
<g id="a_node6"><a xlink:href="functions_8h.html" target="_top" xlink:title=" ">
<polygon fill="none" stroke="black" points="102,-56.5 102,-75.5 173,-75.5 173,-56.5 102,-56.5"/>
<text text-anchor="middle" x="137.5" y="-63.5" font-family="Helvetica,sans-Serif" font-size="10.00">functions.h</text>
</a>
</g>
</g>
<!-- Node3&#45;&gt;Node6 -->
<g id="edge5" class="edge">
<title>Node3&#45;&gt;Node6</title>
<path fill="none" stroke="midnightblue" d="M481.43,-117.74C422.86,-109.1 262.56,-85.45 183.22,-73.75"/>
<polygon fill="midnightblue" stroke="midnightblue" points="183.44,-70.24 173.04,-72.24 182.42,-77.17 183.44,-70.24"/>
</g>
<!-- Node10 -->
<g id="node10" class="node">
<title>Node10</title>
<g id="a_node10"><a xlink:href="initializer__v2_8h.html" target="_top" xlink:title=" ">
<polygon fill="none" stroke="black" points="459,-56.5 459,-75.5 548,-75.5 548,-56.5 459,-56.5"/>
<text text-anchor="middle" x="503.5" y="-63.5" font-family="Helvetica,sans-Serif" font-size="10.00">initializer_v2.h</text>
</a>
</g>
</g>
<!-- Node3&#45;&gt;Node10 -->
<g id="edge9" class="edge">
<title>Node3&#45;&gt;Node10</title>
<path fill="none" stroke="midnightblue" d="M503.5,-112.08C503.5,-105.01 503.5,-94.86 503.5,-85.99"/>
<polygon fill="midnightblue" stroke="midnightblue" points="507,-85.75 503.5,-75.75 500,-85.75 507,-85.75"/>
</g>
<!-- Node7 -->
<g id="node7" class="node">
<title>Node7</title>
<g id="a_node7"><a xlink:title=" ">
<polygon fill="none" stroke="#bfbfbf" points="0,-0.5 0,-19.5 47,-19.5 47,-0.5 0,-0.5"/>
<text text-anchor="middle" x="23.5" y="-7.5" font-family="Helvetica,sans-Serif" font-size="10.00">cmath</text>
</a>
</g>
</g>
<!-- Node6&#45;&gt;Node7 -->
<g id="edge6" class="edge">
<title>Node6&#45;&gt;Node7</title>
<path fill="none" stroke="midnightblue" d="M119.44,-56.44C100.93,-47.68 71.92,-33.94 50.64,-23.86"/>
<polygon fill="midnightblue" stroke="midnightblue" points="52.01,-20.63 41.48,-19.52 49.02,-26.96 52.01,-20.63"/>
</g>
<!-- Node8 -->
<g id="node8" class="node">
<title>Node8</title>
<g id="a_node8"><a xlink:title=" ">
<polygon fill="none" stroke="#bfbfbf" points="65.5,-0.5 65.5,-19.5 129.5,-19.5 129.5,-0.5 65.5,-0.5"/>
<text text-anchor="middle" x="97.5" y="-7.5" font-family="Helvetica,sans-Serif" font-size="10.00">algorithm</text>
</a>
</g>
</g>
<!-- Node6&#45;&gt;Node8 -->
<g id="edge7" class="edge">
<title>Node6&#45;&gt;Node8</title>
<path fill="none" stroke="midnightblue" d="M130.89,-56.08C125.24,-48.46 116.96,-37.26 110.05,-27.94"/>
<polygon fill="midnightblue" stroke="midnightblue" points="112.75,-25.7 103.98,-19.75 107.12,-29.87 112.75,-25.7"/>
</g>
<!-- Node9 -->
<g id="node9" class="node">
<title>Node9</title>
<g id="a_node9"><a xlink:title=" ">
<polygon fill="none" stroke="#bfbfbf" points="147.5,-0.5 147.5,-19.5 207.5,-19.5 207.5,-0.5 147.5,-0.5"/>
<text text-anchor="middle" x="177.5" y="-7.5" font-family="Helvetica,sans-Serif" font-size="10.00">iostream</text>
</a>
</g>
</g>
<!-- Node6&#45;&gt;Node9 -->
<g id="edge8" class="edge">
<title>Node6&#45;&gt;Node9</title>
<path fill="none" stroke="midnightblue" d="M144.11,-56.08C149.76,-48.46 158.04,-37.26 164.95,-27.94"/>
<polygon fill="midnightblue" stroke="midnightblue" points="167.88,-29.87 171.02,-19.75 162.25,-25.7 167.88,-29.87"/>
</g>
<!-- Node10&#45;&gt;Node4 -->
<g id="edge14" class="edge">
<title>Node10&#45;&gt;Node4</title>
<path fill="none" stroke="midnightblue" d="M538.74,-56.43C573.08,-48.02 627.02,-34.67 682.99,-20.09"/>
<polygon fill="midnightblue" stroke="midnightblue" points="683.93,-23.46 692.72,-17.55 682.16,-16.69 683.93,-23.46"/>
</g>
<!-- Node10&#45;&gt;Node9 -->
<g id="edge10" class="edge">
<title>Node10&#45;&gt;Node9</title>
<path fill="none" stroke="midnightblue" d="M458.72,-57.49C455.6,-56.98 452.5,-56.48 449.5,-56 349.17,-39.89 321.08,-39.79 217.6,-20.1"/>
<polygon fill="midnightblue" stroke="midnightblue" points="218.17,-16.64 207.69,-18.2 216.85,-23.52 218.17,-16.64"/>
</g>
<!-- Node11 -->
<g id="node11" class="node">
<title>Node11</title>
<g id="a_node11"><a xlink:title=" ">
<polygon fill="none" stroke="#bfbfbf" points="568.5,-0.5 568.5,-19.5 612.5,-19.5 612.5,-0.5 568.5,-0.5"/>
<text text-anchor="middle" x="590.5" y="-7.5" font-family="Helvetica,sans-Serif" font-size="10.00">regex</text>
</a>
</g>
</g>
<!-- Node10&#45;&gt;Node11 -->
<g id="edge11" class="edge">
<title>Node10&#45;&gt;Node11</title>
<path fill="none" stroke="midnightblue" d="M517.48,-56.32C531.05,-47.9 551.88,-34.97 567.82,-25.07"/>
<polygon fill="midnightblue" stroke="midnightblue" points="569.91,-27.9 576.56,-19.65 566.21,-21.95 569.91,-27.9"/>
</g>
<!-- Node12 -->
<g id="node12" class="node">
<title>Node12</title>
<g id="a_node12"><a xlink:title=" ">
<polygon fill="none" stroke="#bfbfbf" points="630.5,-0.5 630.5,-19.5 674.5,-19.5 674.5,-0.5 630.5,-0.5"/>
<text text-anchor="middle" x="652.5" y="-7.5" font-family="Helvetica,sans-Serif" font-size="10.00">string</text>
</a>
</g>
</g>
<!-- Node10&#45;&gt;Node12 -->
<g id="edge12" class="edge">
<title>Node10&#45;&gt;Node12</title>
<path fill="none" stroke="midnightblue" d="M527.11,-56.44C552.4,-47.28 592.67,-32.68 620.72,-22.52"/>
<polygon fill="midnightblue" stroke="midnightblue" points="622.25,-25.69 630.46,-18.99 619.86,-19.11 622.25,-25.69"/>
</g>
<!-- Node13 -->
<g id="node13" class="node">
<title>Node13</title>
<g id="a_node13"><a xlink:title=" ">
<polygon fill="none" stroke="#bfbfbf" points="226,-0.5 226,-19.5 281,-19.5 281,-0.5 226,-0.5"/>
<text text-anchor="middle" x="253.5" y="-7.5" font-family="Helvetica,sans-Serif" font-size="10.00">fstream</text>
</a>
</g>
</g>
<!-- Node10&#45;&gt;Node13 -->
<g id="edge13" class="edge">
<title>Node10&#45;&gt;Node13</title>
<path fill="none" stroke="midnightblue" d="M461.39,-56.5C420.46,-48.14 356.3,-34.82 291.36,-20.14"/>
<polygon fill="midnightblue" stroke="midnightblue" points="291.89,-16.67 281.36,-17.87 290.34,-23.5 291.89,-16.67"/>
</g>
<!-- Node14 -->
<g id="node14" class="node">
<title>Node14</title>
<g id="a_node14"><a xlink:title=" ">
<polygon fill="none" stroke="#bfbfbf" points="299.5,-0.5 299.5,-19.5 355.5,-19.5 355.5,-0.5 299.5,-0.5"/>
<text text-anchor="middle" x="327.5" y="-7.5" font-family="Helvetica,sans-Serif" font-size="10.00">sstream</text>
</a>
</g>
</g>
<!-- Node10&#45;&gt;Node14 -->
<g id="edge15" class="edge">
<title>Node10&#45;&gt;Node14</title>
<path fill="none" stroke="midnightblue" d="M475.61,-56.44C445.75,-47.28 398.19,-32.69 365.04,-22.52"/>
<polygon fill="midnightblue" stroke="midnightblue" points="365.84,-19.1 355.26,-19.52 363.79,-25.8 365.84,-19.1"/>
</g>
<!-- Node15 -->
<g id="node15" class="node">
<title>Node15</title>
<g id="a_node15"><a xlink:title=" ">
<polygon fill="none" stroke="#bfbfbf" points="374,-0.5 374,-19.5 439,-19.5 439,-0.5 374,-0.5"/>
<text text-anchor="middle" x="406.5" y="-7.5" font-family="Helvetica,sans-Serif" font-size="10.00">stdexcept</text>
</a>
</g>
</g>
<!-- Node10&#45;&gt;Node15 -->
<g id="edge16" class="edge">
<title>Node10&#45;&gt;Node15</title>
<path fill="none" stroke="midnightblue" d="M487.92,-56.32C472.5,-47.74 448.69,-34.49 430.79,-24.52"/>
<polygon fill="midnightblue" stroke="midnightblue" points="432.49,-21.46 422.05,-19.65 429.08,-27.58 432.49,-21.46"/>
</g>
<!-- Node16 -->
<g id="node16" class="node">
<title>Node16</title>
<g id="a_node16"><a xlink:title=" ">
<polygon fill="none" stroke="#bfbfbf" points="457,-0.5 457,-19.5 550,-19.5 550,-0.5 457,-0.5"/>
<text text-anchor="middle" x="503.5" y="-7.5" font-family="Helvetica,sans-Serif" font-size="10.00">unordered_map</text>
</a>
</g>
</g>
<!-- Node10&#45;&gt;Node16 -->
<g id="edge17" class="edge">
<title>Node10&#45;&gt;Node16</title>
<path fill="none" stroke="midnightblue" d="M503.5,-56.08C503.5,-49.01 503.5,-38.86 503.5,-29.99"/>
<polygon fill="midnightblue" stroke="midnightblue" points="507,-29.75 503.5,-19.75 500,-29.75 507,-29.75"/>
</g>
<!-- Node17&#45;&gt;Node3 -->
<g id="edge22" class="edge">
<title>Node17&#45;&gt;Node3</title>
<path fill="none" stroke="midnightblue" d="M567.29,-168.32C555.72,-160.11 538.12,-147.6 524.34,-137.81"/>
<polygon fill="midnightblue" stroke="midnightblue" points="526.11,-134.77 515.93,-131.83 522.06,-140.48 526.11,-134.77"/>
</g>
<!-- Node17&#45;&gt;Node4 -->
<g id="edge19" class="edge">
<title>Node17&#45;&gt;Node4</title>
<path fill="none" stroke="midnightblue" d="M586.87,-168.08C608.9,-141.38 674.52,-61.87 703.03,-27.32"/>
<polygon fill="midnightblue" stroke="midnightblue" points="705.76,-29.51 709.43,-19.57 700.36,-25.05 705.76,-29.51"/>
</g>
<!-- Node18 -->
<g id="node18" class="node">
<title>Node18</title>
<g id="a_node18"><a xlink:title=" ">
<polygon fill="none" stroke="#bfbfbf" points="543.5,-112.5 543.5,-131.5 597.5,-131.5 597.5,-112.5 543.5,-112.5"/>
<text text-anchor="middle" x="570.5" y="-119.5" font-family="Helvetica,sans-Serif" font-size="10.00">random</text>
</a>
</g>
</g>
<!-- Node17&#45;&gt;Node18 -->
<g id="edge20" class="edge">
<title>Node17&#45;&gt;Node18</title>
<path fill="none" stroke="midnightblue" d="M578.01,-168.08C576.82,-160.93 575.11,-150.64 573.62,-141.69"/>
<polygon fill="midnightblue" stroke="midnightblue" points="577.05,-141.04 571.96,-131.75 570.15,-142.19 577.05,-141.04"/>
</g>
<!-- Node17&#45;&gt;Node19 -->
<g id="edge21" class="edge">
<title>Node17&#45;&gt;Node19</title>
<path fill="none" stroke="midnightblue" d="M595.41,-168.32C611.14,-159.74 635.44,-146.49 653.71,-136.52"/>
<polygon fill="midnightblue" stroke="midnightblue" points="655.53,-139.52 662.63,-131.65 652.18,-133.37 655.53,-139.52"/>
</g>
</g>
</svg>
