<?xml version="1.0" encoding="UTF-8" standalone="no"?>
<!DOCTYPE svg PUBLIC "-//W3C//DTD SVG 1.1//EN"
 "http://www.w3.org/Graphics/SVG/1.1/DTD/svg11.dtd">
<!-- Generated by graphviz version 2.43.0 (0)
 -->
<!-- Title: src/simulator.cpp Pages: 1 -->
<svg width="1014pt" height="308pt"
 viewBox="0.00 0.00 1013.50 308.00" xmlns="http://www.w3.org/2000/svg" xmlns:xlink="http://www.w3.org/1999/xlink">
<g id="graph0" class="graph" transform="scale(1 1) rotate(0) translate(4 304)">
<title>src/simulator.cpp</title>
<!-- Node1 -->
<g id="node1" class="node">
<title>Node1</title>
<g id="a_node1"><a xlink:title=" ">
<polygon fill="#bfbfbf" stroke="black" points="837,-280.5 837,-299.5 938,-299.5 938,-280.5 837,-280.5"/>
<text text-anchor="middle" x="887.5" y="-287.5" font-family="Helvetica,sans-Serif" font-size="10.00">src/simulator.cpp</text>
</a>
</g>
</g>
<!-- Node2 -->
<g id="node2" class="node">
<title>Node2</title>
<g id="a_node2"><a xlink:href="simulator_8h.html" target="_top" xlink:title=" ">
<polygon fill="none" stroke="black" points="591.5,-224.5 591.5,-243.5 663.5,-243.5 663.5,-224.5 591.5,-224.5"/>
<text text-anchor="middle" x="627.5" y="-231.5" font-family="Helvetica,sans-Serif" font-size="10.00">simulator.h</text>
</a>
</g>
</g>
<!-- Node1&#45;&gt;Node2 -->
<g id="edge1" class="edge">
<title>Node1&#45;&gt;Node2</title>
<path fill="none" stroke="midnightblue" d="M846.3,-280.44C799.38,-270.7 722.89,-254.81 673.91,-244.64"/>
<polygon fill="midnightblue" stroke="midnightblue" points="674.39,-241.16 663.89,-242.56 672.97,-248.02 674.39,-241.16"/>
</g>
<!-- Node11 -->
<g id="node11" class="node">
<title>Node11</title>
<g id="a_node11"><a xlink:title=" ">
<polygon fill="none" stroke="#bfbfbf" points="904.5,-0.5 904.5,-19.5 968.5,-19.5 968.5,-0.5 904.5,-0.5"/>
<text text-anchor="middle" x="936.5" y="-7.5" font-family="Helvetica,sans-Serif" font-size="10.00">algorithm</text>
</a>
</g>
</g>
<!-- Node1&#45;&gt;Node11 -->
<g id="edge31" class="edge">
<title>Node1&#45;&gt;Node11</title>
<path fill="none" stroke="midnightblue" d="M883.99,-280.32C876.9,-261.96 861.5,-217.66 861.5,-179 861.5,-179 861.5,-179 861.5,-121 861.5,-81.44 895.02,-45.62 917.24,-26.21"/>
<polygon fill="midnightblue" stroke="midnightblue" points="919.7,-28.71 925.11,-19.6 915.2,-23.35 919.7,-28.71"/>
</g>
<!-- Node24 -->
<g id="node24" class="node">
<title>Node24</title>
<g id="a_node24"><a xlink:title=" ">
<polygon fill="none" stroke="#bfbfbf" points="889.5,-224.5 889.5,-243.5 939.5,-243.5 939.5,-224.5 889.5,-224.5"/>
<text text-anchor="middle" x="914.5" y="-231.5" font-family="Helvetica,sans-Serif" font-size="10.00">chrono</text>
</a>
</g>
</g>
<!-- Node1&#45;&gt;Node24 -->
<g id="edge32" class="edge">
<title>Node1&#45;&gt;Node24</title>
<path fill="none" stroke="midnightblue" d="M891.96,-280.08C895.65,-272.69 901.02,-261.95 905.59,-252.81"/>
<polygon fill="midnightblue" stroke="midnightblue" points="908.78,-254.26 910.12,-243.75 902.52,-251.13 908.78,-254.26"/>
</g>
<!-- Node25 -->
<g id="node25" class="node">
<title>Node25</title>
<g id="a_node25"><a xlink:title=" ">
<polygon fill="none" stroke="#bfbfbf" points="957.5,-224.5 957.5,-243.5 1005.5,-243.5 1005.5,-224.5 957.5,-224.5"/>
<text text-anchor="middle" x="981.5" y="-231.5" font-family="Helvetica,sans-Serif" font-size="10.00">thread</text>
</a>
</g>
</g>
<!-- Node1&#45;&gt;Node25 -->
<g id="edge33" class="edge">
<title>Node1&#45;&gt;Node25</title>
<path fill="none" stroke="midnightblue" d="M902.6,-280.32C917.4,-271.82 940.19,-258.73 957.48,-248.8"/>
<polygon fill="midnightblue" stroke="midnightblue" points="959.51,-251.67 966.43,-243.65 956.02,-245.6 959.51,-251.67"/>
</g>
<!-- Node3 -->
<g id="node3" class="node">
<title>Node3</title>
<g id="a_node3"><a xlink:title=" ">
<polygon fill="none" stroke="#bfbfbf" points="467,-0.5 467,-19.5 514,-19.5 514,-0.5 467,-0.5"/>
<text text-anchor="middle" x="490.5" y="-7.5" font-family="Helvetica,sans-Serif" font-size="10.00">vector</text>
</a>
</g>
</g>
<!-- Node2&#45;&gt;Node3 -->
<g id="edge2" class="edge">
<title>Node2&#45;&gt;Node3</title>
<path fill="none" stroke="midnightblue" d="M591.13,-227.91C541.48,-218.74 454.66,-194.21 419.5,-132 397.78,-93.57 442.41,-48.9 470.32,-26.09"/>
<polygon fill="midnightblue" stroke="midnightblue" points="472.68,-28.69 478.35,-19.75 468.34,-23.2 472.68,-28.69"/>
</g>
<!-- Node4 -->
<g id="node4" class="node">
<title>Node4</title>
<g id="a_node4"><a xlink:href="population_8h.html" target="_top" xlink:title=" ">
<polygon fill="none" stroke="black" points="522,-168.5 522,-187.5 599,-187.5 599,-168.5 522,-168.5"/>
<text text-anchor="middle" x="560.5" y="-175.5" font-family="Helvetica,sans-Serif" font-size="10.00">population.h</text>
</a>
</g>
</g>
<!-- Node2&#45;&gt;Node4 -->
<g id="edge3" class="edge">
<title>Node2&#45;&gt;Node4</title>
<path fill="none" stroke="midnightblue" d="M616.74,-224.32C606.73,-216.26 591.61,-204.08 579.57,-194.37"/>
<polygon fill="midnightblue" stroke="midnightblue" points="581.44,-191.38 571.46,-187.83 577.05,-196.83 581.44,-191.38"/>
</g>
<!-- Node6 -->
<g id="node6" class="node">
<title>Node6</title>
<g id="a_node6"><a xlink:title=" ">
<polygon fill="none" stroke="#bfbfbf" points="601.5,-112.5 601.5,-131.5 651.5,-131.5 651.5,-112.5 601.5,-112.5"/>
<text text-anchor="middle" x="626.5" y="-119.5" font-family="Helvetica,sans-Serif" font-size="10.00">Rcpp.h</text>
</a>
</g>
</g>
<!-- Node2&#45;&gt;Node6 -->
<g id="edge30" class="edge">
<title>Node2&#45;&gt;Node6</title>
<path fill="none" stroke="midnightblue" d="M627.42,-224.37C627.26,-206.62 626.89,-165.67 626.67,-141.6"/>
<polygon fill="midnightblue" stroke="midnightblue" points="630.17,-141.56 626.58,-131.59 623.17,-141.62 630.17,-141.56"/>
</g>
<!-- Node20 -->
<g id="node20" class="node">
<title>Node20</title>
<g id="a_node20"><a xlink:href="tensor_8h.html" target="_top" xlink:title=" ">
<polygon fill="none" stroke="black" points="702.5,-56.5 702.5,-75.5 758.5,-75.5 758.5,-56.5 702.5,-56.5"/>
<text text-anchor="middle" x="730.5" y="-63.5" font-family="Helvetica,sans-Serif" font-size="10.00">tensor.h</text>
</a>
</g>
</g>
<!-- Node2&#45;&gt;Node20 -->
<g id="edge23" class="edge">
<title>Node2&#45;&gt;Node20</title>
<path fill="none" stroke="midnightblue" d="M633.04,-224.08C649.46,-197.61 698.11,-119.21 719.82,-84.21"/>
<polygon fill="midnightblue" stroke="midnightblue" points="722.89,-85.91 725.18,-75.57 716.94,-82.22 722.89,-85.91"/>
</g>
<!-- Node4&#45;&gt;Node3 -->
<g id="edge4" class="edge">
<title>Node4&#45;&gt;Node3</title>
<path fill="none" stroke="midnightblue" d="M553.61,-168.46C546.8,-159.71 536.42,-145.51 529.5,-132 511.96,-97.74 500.22,-54.01 494.52,-29.61"/>
<polygon fill="midnightblue" stroke="midnightblue" points="497.87,-28.57 492.26,-19.58 491.04,-30.11 497.87,-28.57"/>
</g>
<!-- Node5 -->
<g id="node5" class="node">
<title>Node5</title>
<g id="a_node5"><a xlink:title=" ">
<polygon fill="none" stroke="#bfbfbf" points="428.5,-112.5 428.5,-131.5 482.5,-131.5 482.5,-112.5 428.5,-112.5"/>
<text text-anchor="middle" x="455.5" y="-119.5" font-family="Helvetica,sans-Serif" font-size="10.00">random</text>
</a>
</g>
</g>
<!-- Node4&#45;&gt;Node5 -->
<g id="edge5" class="edge">
<title>Node4&#45;&gt;Node5</title>
<path fill="none" stroke="midnightblue" d="M543.63,-168.32C526.79,-159.66 500.69,-146.24 481.26,-136.25"/>
<polygon fill="midnightblue" stroke="midnightblue" points="482.82,-133.12 472.33,-131.65 479.62,-139.34 482.82,-133.12"/>
</g>
<!-- Node4&#45;&gt;Node6 -->
<g id="edge6" class="edge">
<title>Node4&#45;&gt;Node6</title>
<path fill="none" stroke="midnightblue" d="M571.1,-168.32C580.96,-160.26 595.85,-148.08 607.72,-138.37"/>
<polygon fill="midnightblue" stroke="midnightblue" points="610.18,-140.88 615.7,-131.83 605.75,-135.46 610.18,-140.88"/>
</g>
<!-- Node7 -->
<g id="node7" class="node">
<title>Node7</title>
<g id="a_node7"><a xlink:href="fish_8h.html" target="_top" xlink:title=" ">
<polygon fill="none" stroke="black" points="538.5,-112.5 538.5,-131.5 582.5,-131.5 582.5,-112.5 538.5,-112.5"/>
<text text-anchor="middle" x="560.5" y="-119.5" font-family="Helvetica,sans-Serif" font-size="10.00">fish.h</text>
</a>
</g>
</g>
<!-- Node4&#45;&gt;Node7 -->
<g id="edge7" class="edge">
<title>Node4&#45;&gt;Node7</title>
<path fill="none" stroke="midnightblue" d="M560.5,-168.08C560.5,-161.01 560.5,-150.86 560.5,-141.99"/>
<polygon fill="midnightblue" stroke="midnightblue" points="564,-141.75 560.5,-131.75 557,-141.75 564,-141.75"/>
</g>
<!-- Node7&#45;&gt;Node3 -->
<g id="edge8" class="edge">
<title>Node7&#45;&gt;Node3</title>
<path fill="none" stroke="midnightblue" d="M564.06,-112.34C568.84,-99.22 575.65,-73.93 565.5,-56 556.45,-40.02 539.22,-29.1 523.56,-22.02"/>
<polygon fill="midnightblue" stroke="midnightblue" points="524.67,-18.69 514.09,-18.1 521.99,-25.16 524.67,-18.69"/>
</g>
<!-- Node8 -->
<g id="node8" class="node">
<title>Node8</title>
<g id="a_node8"><a xlink:title=" ">
<polygon fill="none" stroke="#bfbfbf" points="518.5,-56.5 518.5,-75.5 556.5,-75.5 556.5,-56.5 518.5,-56.5"/>
<text text-anchor="middle" x="537.5" y="-63.5" font-family="Helvetica,sans-Serif" font-size="10.00">map</text>
</a>
</g>
</g>
<!-- Node7&#45;&gt;Node8 -->
<g id="edge9" class="edge">
<title>Node7&#45;&gt;Node8</title>
<path fill="none" stroke="midnightblue" d="M556.7,-112.08C553.59,-104.77 549.08,-94.18 545.21,-85.1"/>
<polygon fill="midnightblue" stroke="midnightblue" points="548.37,-83.58 541.23,-75.75 541.93,-86.32 548.37,-83.58"/>
</g>
<!-- Node9 -->
<g id="node9" class="node">
<title>Node9</title>
<g id="a_node9"><a xlink:href="functions_8h.html" target="_top" xlink:title=" ">
<polygon fill="none" stroke="black" points="613,-56.5 613,-75.5 684,-75.5 684,-56.5 613,-56.5"/>
<text text-anchor="middle" x="648.5" y="-63.5" font-family="Helvetica,sans-Serif" font-size="10.00">functions.h</text>
</a>
</g>
</g>
<!-- Node7&#45;&gt;Node9 -->
<g id="edge10" class="edge">
<title>Node7&#45;&gt;Node9</title>
<path fill="none" stroke="midnightblue" d="M574.64,-112.32C588.37,-103.9 609.44,-90.97 625.56,-81.07"/>
<polygon fill="midnightblue" stroke="midnightblue" points="627.7,-83.87 634.4,-75.65 624.04,-77.9 627.7,-83.87"/>
</g>
<!-- Node13 -->
<g id="node13" class="node">
<title>Node13</title>
<g id="a_node13"><a xlink:href="initializer__v2_8h.html" target="_top" xlink:title=" ">
<polygon fill="none" stroke="black" points="283,-56.5 283,-75.5 372,-75.5 372,-56.5 283,-56.5"/>
<text text-anchor="middle" x="327.5" y="-63.5" font-family="Helvetica,sans-Serif" font-size="10.00">initializer_v2.h</text>
</a>
</g>
</g>
<!-- Node7&#45;&gt;Node13 -->
<g id="edge14" class="edge">
<title>Node7&#45;&gt;Node13</title>
<path fill="none" stroke="midnightblue" d="M538.16,-115.82C500.54,-107.1 423.81,-89.32 374.07,-77.79"/>
<polygon fill="midnightblue" stroke="midnightblue" points="374.73,-74.35 364.2,-75.5 373.15,-81.17 374.73,-74.35"/>
</g>
<!-- Node10 -->
<g id="node10" class="node">
<title>Node10</title>
<g id="a_node10"><a xlink:title=" ">
<polygon fill="none" stroke="#bfbfbf" points="611,-0.5 611,-19.5 658,-19.5 658,-0.5 611,-0.5"/>
<text text-anchor="middle" x="634.5" y="-7.5" font-family="Helvetica,sans-Serif" font-size="10.00">cmath</text>
</a>
</g>
</g>
<!-- Node9&#45;&gt;Node10 -->
<g id="edge11" class="edge">
<title>Node9&#45;&gt;Node10</title>
<path fill="none" stroke="midnightblue" d="M646.19,-56.08C644.33,-48.93 641.66,-38.64 639.35,-29.69"/>
<polygon fill="midnightblue" stroke="midnightblue" points="642.67,-28.55 636.77,-19.75 635.89,-30.31 642.67,-28.55"/>
</g>
<!-- Node9&#45;&gt;Node11 -->
<g id="edge12" class="edge">
<title>Node9&#45;&gt;Node11</title>
<path fill="none" stroke="midnightblue" d="M684.35,-57.76C687.44,-57.16 690.53,-56.56 693.5,-56 780.04,-39.64 804.41,-37.89 894.48,-20.14"/>
<polygon fill="midnightblue" stroke="midnightblue" points="895.17,-23.57 904.3,-18.2 893.81,-16.71 895.17,-23.57"/>
</g>
<!-- Node12 -->
<g id="node12" class="node">
<title>Node12</title>
<g id="a_node12"><a xlink:title=" ">
<polygon fill="none" stroke="#bfbfbf" points="532.5,-0.5 532.5,-19.5 592.5,-19.5 592.5,-0.5 532.5,-0.5"/>
<text text-anchor="middle" x="562.5" y="-7.5" font-family="Helvetica,sans-Serif" font-size="10.00">iostream</text>
</a>
</g>
</g>
<!-- Node9&#45;&gt;Node12 -->
<g id="edge13" class="edge">
<title>Node9&#45;&gt;Node12</title>
<path fill="none" stroke="midnightblue" d="M634.68,-56.32C621.27,-47.9 600.68,-34.97 584.91,-25.07"/>
<polygon fill="midnightblue" stroke="midnightblue" points="586.61,-22.01 576.28,-19.65 582.89,-27.94 586.61,-22.01"/>
</g>
<!-- Node13&#45;&gt;Node3 -->
<g id="edge19" class="edge">
<title>Node13&#45;&gt;Node3</title>
<path fill="none" stroke="midnightblue" d="M353.33,-56.44C381.39,-47.15 426.33,-32.26 457.07,-22.07"/>
<polygon fill="midnightblue" stroke="midnightblue" points="458.52,-25.28 466.91,-18.82 456.32,-18.64 458.52,-25.28"/>
</g>
<!-- Node13&#45;&gt;Node12 -->
<g id="edge15" class="edge">
<title>Node13&#45;&gt;Node12</title>
<path fill="none" stroke="midnightblue" d="M364.74,-56.44C407.72,-46.57 478.16,-30.38 522.34,-20.23"/>
<polygon fill="midnightblue" stroke="midnightblue" points="523.2,-23.62 532.16,-17.97 521.63,-16.8 523.2,-23.62"/>
</g>
<!-- Node14 -->
<g id="node14" class="node">
<title>Node14</title>
<g id="a_node14"><a xlink:title=" ">
<polygon fill="none" stroke="#bfbfbf" points="194.5,-0.5 194.5,-19.5 238.5,-19.5 238.5,-0.5 194.5,-0.5"/>
<text text-anchor="middle" x="216.5" y="-7.5" font-family="Helvetica,sans-Serif" font-size="10.00">regex</text>
</a>
</g>
</g>
<!-- Node13&#45;&gt;Node14 -->
<g id="edge16" class="edge">
<title>Node13&#45;&gt;Node14</title>
<path fill="none" stroke="midnightblue" d="M309.67,-56.32C291.78,-47.62 264.02,-34.12 243.45,-24.11"/>
<polygon fill="midnightblue" stroke="midnightblue" points="244.81,-20.88 234.29,-19.65 241.75,-27.18 244.81,-20.88"/>
</g>
<!-- Node15 -->
<g id="node15" class="node">
<title>Node15</title>
<g id="a_node15"><a xlink:title=" ">
<polygon fill="none" stroke="#bfbfbf" points="256.5,-0.5 256.5,-19.5 300.5,-19.5 300.5,-0.5 256.5,-0.5"/>
<text text-anchor="middle" x="278.5" y="-7.5" font-family="Helvetica,sans-Serif" font-size="10.00">string</text>
</a>
</g>
</g>
<!-- Node13&#45;&gt;Node15 -->
<g id="edge17" class="edge">
<title>Node13&#45;&gt;Node15</title>
<path fill="none" stroke="midnightblue" d="M319.41,-56.08C312.34,-48.3 301.91,-36.8 293.35,-27.37"/>
<polygon fill="midnightblue" stroke="midnightblue" points="295.75,-24.8 286.44,-19.75 290.57,-29.51 295.75,-24.8"/>
</g>
<!-- Node16 -->
<g id="node16" class="node">
<title>Node16</title>
<g id="a_node16"><a xlink:title=" ">
<polygon fill="none" stroke="#bfbfbf" points="319,-0.5 319,-19.5 374,-19.5 374,-0.5 319,-0.5"/>
<text text-anchor="middle" x="346.5" y="-7.5" font-family="Helvetica,sans-Serif" font-size="10.00">fstream</text>
</a>
</g>
</g>
<!-- Node13&#45;&gt;Node16 -->
<g id="edge18" class="edge">
<title>Node13&#45;&gt;Node16</title>
<path fill="none" stroke="midnightblue" d="M330.64,-56.08C333.18,-48.85 336.86,-38.41 340.03,-29.4"/>
<polygon fill="midnightblue" stroke="midnightblue" points="343.4,-30.35 343.42,-19.75 336.8,-28.02 343.4,-30.35"/>
</g>
<!-- Node17 -->
<g id="node17" class="node">
<title>Node17</title>
<g id="a_node17"><a xlink:title=" ">
<polygon fill="none" stroke="#bfbfbf" points="392.5,-0.5 392.5,-19.5 448.5,-19.5 448.5,-0.5 392.5,-0.5"/>
<text text-anchor="middle" x="420.5" y="-7.5" font-family="Helvetica,sans-Serif" font-size="10.00">sstream</text>
</a>
</g>
</g>
<!-- Node13&#45;&gt;Node17 -->
<g id="edge20" class="edge">
<title>Node13&#45;&gt;Node17</title>
<path fill="none" stroke="midnightblue" d="M342.44,-56.32C357.09,-47.82 379.63,-34.73 396.74,-24.8"/>
<polygon fill="midnightblue" stroke="midnightblue" points="398.7,-27.7 405.6,-19.65 395.19,-21.65 398.7,-27.7"/>
</g>
<!-- Node18 -->
<g id="node18" class="node">
<title>Node18</title>
<g id="a_node18"><a xlink:title=" ">
<polygon fill="none" stroke="#bfbfbf" points="0,-0.5 0,-19.5 65,-19.5 65,-0.5 0,-0.5"/>
<text text-anchor="middle" x="32.5" y="-7.5" font-family="Helvetica,sans-Serif" font-size="10.00">stdexcept</text>
</a>
</g>
</g>
<!-- Node13&#45;&gt;Node18 -->
<g id="edge21" class="edge">
<title>Node13&#45;&gt;Node18</title>
<path fill="none" stroke="midnightblue" d="M282.89,-57.66C234.17,-49.52 153.59,-35.69 75.19,-20.28"/>
<polygon fill="midnightblue" stroke="midnightblue" points="75.64,-16.8 65.15,-18.29 74.28,-23.67 75.64,-16.8"/>
</g>
<!-- Node19 -->
<g id="node19" class="node">
<title>Node19</title>
<g id="a_node19"><a xlink:title=" ">
<polygon fill="none" stroke="#bfbfbf" points="83,-0.5 83,-19.5 176,-19.5 176,-0.5 83,-0.5"/>
<text text-anchor="middle" x="129.5" y="-7.5" font-family="Helvetica,sans-Serif" font-size="10.00">unordered_map</text>
</a>
</g>
</g>
<!-- Node13&#45;&gt;Node19 -->
<g id="edge22" class="edge">
<title>Node13&#45;&gt;Node19</title>
<path fill="none" stroke="midnightblue" d="M296.13,-56.44C262.24,-47.2 208.1,-32.44 170.78,-22.26"/>
<polygon fill="midnightblue" stroke="midnightblue" points="171.3,-18.77 160.73,-19.52 169.45,-25.52 171.3,-18.77"/>
</g>
<!-- Node20&#45;&gt;Node3 -->
<g id="edge26" class="edge">
<title>Node20&#45;&gt;Node3</title>
<path fill="none" stroke="midnightblue" d="M702.29,-58.24C699,-57.48 695.67,-56.71 692.5,-56 620.65,-39.84 599.82,-38.22 524.26,-20.07"/>
<polygon fill="midnightblue" stroke="midnightblue" points="524.79,-16.6 514.25,-17.65 523.15,-23.4 524.79,-16.6"/>
</g>
<!-- Node20&#45;&gt;Node11 -->
<g id="edge28" class="edge">
<title>Node20&#45;&gt;Node11</title>
<path fill="none" stroke="midnightblue" d="M758.71,-57.6C793.76,-48.42 853.87,-32.66 894.38,-22.04"/>
<polygon fill="midnightblue" stroke="midnightblue" points="895.44,-25.38 904.23,-19.46 893.67,-18.61 895.44,-25.38"/>
</g>
<!-- Node20&#45;&gt;Node12 -->
<g id="edge24" class="edge">
<title>Node20&#45;&gt;Node12</title>
<path fill="none" stroke="midnightblue" d="M703.88,-56.44C675.49,-47.32 630.36,-32.81 598.75,-22.65"/>
<polygon fill="midnightblue" stroke="midnightblue" points="599.59,-19.24 589,-19.52 597.44,-25.91 599.59,-19.24"/>
</g>
<!-- Node21 -->
<g id="node21" class="node">
<title>Node21</title>
<g id="a_node21"><a xlink:title=" ">
<polygon fill="none" stroke="#bfbfbf" points="676.5,-0.5 676.5,-19.5 728.5,-19.5 728.5,-0.5 676.5,-0.5"/>
<text text-anchor="middle" x="702.5" y="-7.5" font-family="Helvetica,sans-Serif" font-size="10.00">cassert</text>
</a>
</g>
</g>
<!-- Node20&#45;&gt;Node21 -->
<g id="edge25" class="edge">
<title>Node20&#45;&gt;Node21</title>
<path fill="none" stroke="midnightblue" d="M725.88,-56.08C722.04,-48.69 716.48,-37.95 711.74,-28.81"/>
<polygon fill="midnightblue" stroke="midnightblue" points="714.75,-27.02 707.04,-19.75 708.53,-30.24 714.75,-27.02"/>
</g>
<!-- Node22 -->
<g id="node22" class="node">
<title>Node22</title>
<g id="a_node22"><a xlink:title=" ">
<polygon fill="none" stroke="#bfbfbf" points="747,-0.5 747,-19.5 812,-19.5 812,-0.5 747,-0.5"/>
<text text-anchor="middle" x="779.5" y="-7.5" font-family="Helvetica,sans-Serif" font-size="10.00">functional</text>
</a>
</g>
</g>
<!-- Node20&#45;&gt;Node22 -->
<g id="edge27" class="edge">
<title>Node20&#45;&gt;Node22</title>
<path fill="none" stroke="midnightblue" d="M738.59,-56.08C745.66,-48.3 756.09,-36.8 764.65,-27.37"/>
<polygon fill="midnightblue" stroke="midnightblue" points="767.43,-29.51 771.56,-19.75 762.25,-24.8 767.43,-29.51"/>
</g>
<!-- Node23 -->
<g id="node23" class="node">
<title>Node23</title>
<g id="a_node23"><a xlink:title=" ">
<polygon fill="none" stroke="#bfbfbf" points="830.5,-0.5 830.5,-19.5 886.5,-19.5 886.5,-0.5 830.5,-0.5"/>
<text text-anchor="middle" x="858.5" y="-7.5" font-family="Helvetica,sans-Serif" font-size="10.00">numeric</text>
</a>
</g>
</g>
<!-- Node20&#45;&gt;Node23 -->
<g id="edge29" class="edge">
<title>Node20&#45;&gt;Node23</title>
<path fill="none" stroke="midnightblue" d="M750.78,-56.44C771.85,-47.56 805.02,-33.56 828.99,-23.45"/>
<polygon fill="midnightblue" stroke="midnightblue" points="830.46,-26.63 838.31,-19.52 827.74,-20.18 830.46,-26.63"/>
</g>
</g>
</svg>
