<?xml version="1.0" encoding="UTF-8" standalone="no"?>
<!DOCTYPE svg PUBLIC "-//W3C//DTD SVG 1.1//EN"
 "http://www.w3.org/Graphics/SVG/1.1/DTD/svg11.dtd">
<!-- Generated by graphviz version 2.43.0 (0)
 -->
<!-- Title: inst/include/simulator.h Pages: 1 -->
<svg width="976pt" height="252pt"
 viewBox="0.00 0.00 975.50 252.00" xmlns="http://www.w3.org/2000/svg" xmlns:xlink="http://www.w3.org/1999/xlink">
<g id="graph0" class="graph" transform="scale(1 1) rotate(0) translate(4 248)">
<title>inst/include/simulator.h</title>
<!-- Node1 -->
<g id="node1" class="node">
<title>Node1</title>
<g id="a_node1"><a xlink:title=" ">
<polygon fill="#bfbfbf" stroke="black" points="560,-224.5 560,-243.5 691,-243.5 691,-224.5 560,-224.5"/>
<text text-anchor="middle" x="625.5" y="-231.5" font-family="Helvetica,sans-Serif" font-size="10.00">inst/include/simulator.h</text>
</a>
</g>
</g>
<!-- Node2 -->
<g id="node2" class="node">
<title>Node2</title>
<g id="a_node2"><a xlink:title=" ">
<polygon fill="none" stroke="#bfbfbf" points="467,-0.5 467,-19.5 514,-19.5 514,-0.5 467,-0.5"/>
<text text-anchor="middle" x="490.5" y="-7.5" font-family="Helvetica,sans-Serif" font-size="10.00">vector</text>
</a>
</g>
</g>
<!-- Node1&#45;&gt;Node2 -->
<g id="edge1" class="edge">
<title>Node1&#45;&gt;Node2</title>
<path fill="none" stroke="midnightblue" d="M600.66,-224.4C566.04,-210.9 504.7,-181.08 479.5,-132 464.04,-101.89 468.75,-89.36 474.5,-56 476.07,-46.91 479.29,-37.22 482.44,-29.17"/>
<polygon fill="midnightblue" stroke="midnightblue" points="485.76,-30.3 486.39,-19.72 479.31,-27.6 485.76,-30.3"/>
</g>
<!-- Node3 -->
<g id="node3" class="node">
<title>Node3</title>
<g id="a_node3"><a xlink:href="population_8h.html" target="_top" xlink:title=" ">
<polygon fill="none" stroke="black" points="554,-168.5 554,-187.5 631,-187.5 631,-168.5 554,-168.5"/>
<text text-anchor="middle" x="592.5" y="-175.5" font-family="Helvetica,sans-Serif" font-size="10.00">population.h</text>
</a>
</g>
</g>
<!-- Node1&#45;&gt;Node3 -->
<g id="edge2" class="edge">
<title>Node1&#45;&gt;Node3</title>
<path fill="none" stroke="midnightblue" d="M620.05,-224.08C615.49,-216.61 608.83,-205.72 603.21,-196.52"/>
<polygon fill="midnightblue" stroke="midnightblue" points="606.05,-194.46 597.85,-187.75 600.08,-198.11 606.05,-194.46"/>
</g>
<!-- Node5 -->
<g id="node5" class="node">
<title>Node5</title>
<g id="a_node5"><a xlink:title=" ">
<polygon fill="none" stroke="#bfbfbf" points="634.5,-112.5 634.5,-131.5 684.5,-131.5 684.5,-112.5 634.5,-112.5"/>
<text text-anchor="middle" x="659.5" y="-119.5" font-family="Helvetica,sans-Serif" font-size="10.00">Rcpp.h</text>
</a>
</g>
</g>
<!-- Node1&#45;&gt;Node5 -->
<g id="edge29" class="edge">
<title>Node1&#45;&gt;Node5</title>
<path fill="none" stroke="midnightblue" d="M628.19,-224.38C631.02,-215.32 635.58,-200.66 639.5,-188 644.35,-172.31 649.84,-154.49 653.83,-141.48"/>
<polygon fill="midnightblue" stroke="midnightblue" points="657.2,-142.42 656.79,-131.83 650.51,-140.37 657.2,-142.42"/>
</g>
<!-- Node19 -->
<g id="node19" class="node">
<title>Node19</title>
<g id="a_node19"><a xlink:href="tensor_8h.html" target="_top" xlink:title=" ">
<polygon fill="none" stroke="black" points="684.5,-56.5 684.5,-75.5 740.5,-75.5 740.5,-56.5 684.5,-56.5"/>
<text text-anchor="middle" x="712.5" y="-63.5" font-family="Helvetica,sans-Serif" font-size="10.00">tensor.h</text>
</a>
</g>
</g>
<!-- Node1&#45;&gt;Node19 -->
<g id="edge22" class="edge">
<title>Node1&#45;&gt;Node19</title>
<path fill="none" stroke="midnightblue" d="M631.76,-224.46C638.3,-215.47 648.8,-200.86 657.5,-188 674.08,-163.49 681.22,-158.92 693.5,-132 700.36,-116.96 705.42,-98.83 708.58,-85.54"/>
<polygon fill="midnightblue" stroke="midnightblue" points="712.02,-86.22 710.79,-75.69 705.19,-84.68 712.02,-86.22"/>
</g>
<!-- Node3&#45;&gt;Node2 -->
<g id="edge3" class="edge">
<title>Node3&#45;&gt;Node2</title>
<path fill="none" stroke="midnightblue" d="M553.89,-170.41C531.6,-164.41 505.33,-153.12 491.5,-132 471.04,-100.77 478.5,-54.59 484.98,-29.27"/>
<polygon fill="midnightblue" stroke="midnightblue" points="488.39,-30.08 487.7,-19.51 481.65,-28.21 488.39,-30.08"/>
</g>
<!-- Node4 -->
<g id="node4" class="node">
<title>Node4</title>
<g id="a_node4"><a xlink:title=" ">
<polygon fill="none" stroke="#bfbfbf" points="500.5,-112.5 500.5,-131.5 554.5,-131.5 554.5,-112.5 500.5,-112.5"/>
<text text-anchor="middle" x="527.5" y="-119.5" font-family="Helvetica,sans-Serif" font-size="10.00">random</text>
</a>
</g>
</g>
<!-- Node3&#45;&gt;Node4 -->
<g id="edge4" class="edge">
<title>Node3&#45;&gt;Node4</title>
<path fill="none" stroke="midnightblue" d="M582.06,-168.32C572.35,-160.26 557.68,-148.08 546,-138.37"/>
<polygon fill="midnightblue" stroke="midnightblue" points="548.06,-135.53 538.13,-131.83 543.59,-140.92 548.06,-135.53"/>
</g>
<!-- Node3&#45;&gt;Node5 -->
<g id="edge5" class="edge">
<title>Node3&#45;&gt;Node5</title>
<path fill="none" stroke="midnightblue" d="M603.26,-168.32C613.27,-160.26 628.39,-148.08 640.43,-138.37"/>
<polygon fill="midnightblue" stroke="midnightblue" points="642.95,-140.83 648.54,-131.83 638.56,-135.38 642.95,-140.83"/>
</g>
<!-- Node6 -->
<g id="node6" class="node">
<title>Node6</title>
<g id="a_node6"><a xlink:href="fish_8h.html" target="_top" xlink:title=" ">
<polygon fill="none" stroke="black" points="572.5,-112.5 572.5,-131.5 616.5,-131.5 616.5,-112.5 572.5,-112.5"/>
<text text-anchor="middle" x="594.5" y="-119.5" font-family="Helvetica,sans-Serif" font-size="10.00">fish.h</text>
</a>
</g>
</g>
<!-- Node3&#45;&gt;Node6 -->
<g id="edge6" class="edge">
<title>Node3&#45;&gt;Node6</title>
<path fill="none" stroke="midnightblue" d="M592.83,-168.08C593.09,-161.01 593.47,-150.86 593.8,-141.99"/>
<polygon fill="midnightblue" stroke="midnightblue" points="597.3,-141.87 594.18,-131.75 590.31,-141.61 597.3,-141.87"/>
</g>
<!-- Node6&#45;&gt;Node2 -->
<g id="edge7" class="edge">
<title>Node6&#45;&gt;Node2</title>
<path fill="none" stroke="midnightblue" d="M578.37,-112.45C564.27,-104.41 543.86,-91.32 529.5,-76 516.45,-62.07 505.67,-43.06 498.78,-29.2"/>
<polygon fill="midnightblue" stroke="midnightblue" points="501.75,-27.3 494.29,-19.77 495.43,-30.31 501.75,-27.3"/>
</g>
<!-- Node7 -->
<g id="node7" class="node">
<title>Node7</title>
<g id="a_node7"><a xlink:title=" ">
<polygon fill="none" stroke="#bfbfbf" points="538.5,-56.5 538.5,-75.5 576.5,-75.5 576.5,-56.5 538.5,-56.5"/>
<text text-anchor="middle" x="557.5" y="-63.5" font-family="Helvetica,sans-Serif" font-size="10.00">map</text>
</a>
</g>
</g>
<!-- Node6&#45;&gt;Node7 -->
<g id="edge8" class="edge">
<title>Node6&#45;&gt;Node7</title>
<path fill="none" stroke="midnightblue" d="M588.39,-112.08C583.22,-104.53 575.65,-93.49 569.31,-84.23"/>
<polygon fill="midnightblue" stroke="midnightblue" points="572.04,-82.02 563.5,-75.75 566.26,-85.98 572.04,-82.02"/>
</g>
<!-- Node8 -->
<g id="node8" class="node">
<title>Node8</title>
<g id="a_node8"><a xlink:href="functions_8h.html" target="_top" xlink:title=" ">
<polygon fill="none" stroke="black" points="595,-56.5 595,-75.5 666,-75.5 666,-56.5 595,-56.5"/>
<text text-anchor="middle" x="630.5" y="-63.5" font-family="Helvetica,sans-Serif" font-size="10.00">functions.h</text>
</a>
</g>
</g>
<!-- Node6&#45;&gt;Node8 -->
<g id="edge9" class="edge">
<title>Node6&#45;&gt;Node8</title>
<path fill="none" stroke="midnightblue" d="M600.44,-112.08C605.48,-104.53 612.84,-93.49 619.01,-84.23"/>
<polygon fill="midnightblue" stroke="midnightblue" points="622.03,-86.01 624.67,-75.75 616.21,-82.13 622.03,-86.01"/>
</g>
<!-- Node12 -->
<g id="node12" class="node">
<title>Node12</title>
<g id="a_node12"><a xlink:href="initializer__v2_8h.html" target="_top" xlink:title=" ">
<polygon fill="none" stroke="black" points="317,-56.5 317,-75.5 406,-75.5 406,-56.5 317,-56.5"/>
<text text-anchor="middle" x="361.5" y="-63.5" font-family="Helvetica,sans-Serif" font-size="10.00">initializer_v2.h</text>
</a>
</g>
</g>
<!-- Node6&#45;&gt;Node12 -->
<g id="edge13" class="edge">
<title>Node6&#45;&gt;Node12</title>
<path fill="none" stroke="midnightblue" d="M572.2,-114.34C569.28,-113.52 566.32,-112.72 563.5,-112 512.81,-99.01 454.41,-86.23 413.48,-77.63"/>
<polygon fill="midnightblue" stroke="midnightblue" points="413.97,-74.16 403.47,-75.54 412.54,-81.01 413.97,-74.16"/>
</g>
<!-- Node9 -->
<g id="node9" class="node">
<title>Node9</title>
<g id="a_node9"><a xlink:title=" ">
<polygon fill="none" stroke="#bfbfbf" points="532,-0.5 532,-19.5 579,-19.5 579,-0.5 532,-0.5"/>
<text text-anchor="middle" x="555.5" y="-7.5" font-family="Helvetica,sans-Serif" font-size="10.00">cmath</text>
</a>
</g>
</g>
<!-- Node8&#45;&gt;Node9 -->
<g id="edge10" class="edge">
<title>Node8&#45;&gt;Node9</title>
<path fill="none" stroke="midnightblue" d="M618.45,-56.32C607.04,-48.11 589.67,-35.6 576.07,-25.81"/>
<polygon fill="midnightblue" stroke="midnightblue" points="577.93,-22.84 567.77,-19.83 573.84,-28.52 577.93,-22.84"/>
</g>
<!-- Node10 -->
<g id="node10" class="node">
<title>Node10</title>
<g id="a_node10"><a xlink:title=" ">
<polygon fill="none" stroke="#bfbfbf" points="675.5,-0.5 675.5,-19.5 739.5,-19.5 739.5,-0.5 675.5,-0.5"/>
<text text-anchor="middle" x="707.5" y="-7.5" font-family="Helvetica,sans-Serif" font-size="10.00">algorithm</text>
</a>
</g>
</g>
<!-- Node8&#45;&gt;Node10 -->
<g id="edge11" class="edge">
<title>Node8&#45;&gt;Node10</title>
<path fill="none" stroke="midnightblue" d="M642.87,-56.32C654.66,-48.06 672.63,-35.45 686.64,-25.63"/>
<polygon fill="midnightblue" stroke="midnightblue" points="688.98,-28.26 695.16,-19.65 684.96,-22.53 688.98,-28.26"/>
</g>
<!-- Node11 -->
<g id="node11" class="node">
<title>Node11</title>
<g id="a_node11"><a xlink:title=" ">
<polygon fill="none" stroke="#bfbfbf" points="597.5,-0.5 597.5,-19.5 657.5,-19.5 657.5,-0.5 597.5,-0.5"/>
<text text-anchor="middle" x="627.5" y="-7.5" font-family="Helvetica,sans-Serif" font-size="10.00">iostream</text>
</a>
</g>
</g>
<!-- Node8&#45;&gt;Node11 -->
<g id="edge12" class="edge">
<title>Node8&#45;&gt;Node11</title>
<path fill="none" stroke="midnightblue" d="M630,-56.08C629.61,-49.01 629.05,-38.86 628.55,-29.99"/>
<polygon fill="midnightblue" stroke="midnightblue" points="632.04,-29.54 627.99,-19.75 625.05,-29.93 632.04,-29.54"/>
</g>
<!-- Node12&#45;&gt;Node2 -->
<g id="edge18" class="edge">
<title>Node12&#45;&gt;Node2</title>
<path fill="none" stroke="midnightblue" d="M381.94,-56.44C403.17,-47.56 436.6,-33.56 460.75,-23.45"/>
<polygon fill="midnightblue" stroke="midnightblue" points="462.28,-26.61 470.16,-19.52 459.58,-20.15 462.28,-26.61"/>
</g>
<!-- Node12&#45;&gt;Node11 -->
<g id="edge14" class="edge">
<title>Node12&#45;&gt;Node11</title>
<path fill="none" stroke="midnightblue" d="M406.16,-56.45C451.8,-47.62 524.69,-33.32 587.5,-20 587.6,-19.98 587.7,-19.96 587.8,-19.94"/>
<polygon fill="midnightblue" stroke="midnightblue" points="588.34,-23.4 597.38,-17.86 586.86,-16.56 588.34,-23.4"/>
</g>
<!-- Node13 -->
<g id="node13" class="node">
<title>Node13</title>
<g id="a_node13"><a xlink:title=" ">
<polygon fill="none" stroke="#bfbfbf" points="342.5,-0.5 342.5,-19.5 386.5,-19.5 386.5,-0.5 342.5,-0.5"/>
<text text-anchor="middle" x="364.5" y="-7.5" font-family="Helvetica,sans-Serif" font-size="10.00">regex</text>
</a>
</g>
</g>
<!-- Node12&#45;&gt;Node13 -->
<g id="edge15" class="edge">
<title>Node12&#45;&gt;Node13</title>
<path fill="none" stroke="midnightblue" d="M362,-56.08C362.39,-49.01 362.95,-38.86 363.45,-29.99"/>
<polygon fill="midnightblue" stroke="midnightblue" points="366.95,-29.93 364.01,-19.75 359.96,-29.54 366.95,-29.93"/>
</g>
<!-- Node14 -->
<g id="node14" class="node">
<title>Node14</title>
<g id="a_node14"><a xlink:title=" ">
<polygon fill="none" stroke="#bfbfbf" points="404.5,-0.5 404.5,-19.5 448.5,-19.5 448.5,-0.5 404.5,-0.5"/>
<text text-anchor="middle" x="426.5" y="-7.5" font-family="Helvetica,sans-Serif" font-size="10.00">string</text>
</a>
</g>
</g>
<!-- Node12&#45;&gt;Node14 -->
<g id="edge16" class="edge">
<title>Node12&#45;&gt;Node14</title>
<path fill="none" stroke="midnightblue" d="M371.94,-56.32C381.65,-48.26 396.32,-36.08 408,-26.37"/>
<polygon fill="midnightblue" stroke="midnightblue" points="410.41,-28.92 415.87,-19.83 405.94,-23.53 410.41,-28.92"/>
</g>
<!-- Node15 -->
<g id="node15" class="node">
<title>Node15</title>
<g id="a_node15"><a xlink:title=" ">
<polygon fill="none" stroke="#bfbfbf" points="0,-0.5 0,-19.5 55,-19.5 55,-0.5 0,-0.5"/>
<text text-anchor="middle" x="27.5" y="-7.5" font-family="Helvetica,sans-Serif" font-size="10.00">fstream</text>
</a>
</g>
</g>
<!-- Node12&#45;&gt;Node15 -->
<g id="edge17" class="edge">
<title>Node12&#45;&gt;Node15</title>
<path fill="none" stroke="midnightblue" d="M316.76,-59.47C260.43,-52.24 160.53,-38.49 65.4,-20.02"/>
<polygon fill="midnightblue" stroke="midnightblue" points="65.81,-16.54 55.32,-18.05 64.46,-23.41 65.81,-16.54"/>
</g>
<!-- Node16 -->
<g id="node16" class="node">
<title>Node16</title>
<g id="a_node16"><a xlink:title=" ">
<polygon fill="none" stroke="#bfbfbf" points="73.5,-0.5 73.5,-19.5 129.5,-19.5 129.5,-0.5 73.5,-0.5"/>
<text text-anchor="middle" x="101.5" y="-7.5" font-family="Helvetica,sans-Serif" font-size="10.00">sstream</text>
</a>
</g>
</g>
<!-- Node12&#45;&gt;Node16 -->
<g id="edge19" class="edge">
<title>Node12&#45;&gt;Node16</title>
<path fill="none" stroke="midnightblue" d="M316.97,-56.55C273.99,-48.28 206.85,-35.03 139.66,-20.2"/>
<polygon fill="midnightblue" stroke="midnightblue" points="140.28,-16.75 129.75,-17.99 138.76,-23.58 140.28,-16.75"/>
</g>
<!-- Node17 -->
<g id="node17" class="node">
<title>Node17</title>
<g id="a_node17"><a xlink:title=" ">
<polygon fill="none" stroke="#bfbfbf" points="148,-0.5 148,-19.5 213,-19.5 213,-0.5 148,-0.5"/>
<text text-anchor="middle" x="180.5" y="-7.5" font-family="Helvetica,sans-Serif" font-size="10.00">stdexcept</text>
</a>
</g>
</g>
<!-- Node12&#45;&gt;Node17 -->
<g id="edge20" class="edge">
<title>Node12&#45;&gt;Node17</title>
<path fill="none" stroke="midnightblue" d="M332.82,-56.44C301.97,-47.24 252.77,-32.56 218.67,-22.39"/>
<polygon fill="midnightblue" stroke="midnightblue" points="219.63,-19.02 209.05,-19.52 217.63,-25.73 219.63,-19.02"/>
</g>
<!-- Node18 -->
<g id="node18" class="node">
<title>Node18</title>
<g id="a_node18"><a xlink:title=" ">
<polygon fill="none" stroke="#bfbfbf" points="231,-0.5 231,-19.5 324,-19.5 324,-0.5 231,-0.5"/>
<text text-anchor="middle" x="277.5" y="-7.5" font-family="Helvetica,sans-Serif" font-size="10.00">unordered_map</text>
</a>
</g>
</g>
<!-- Node12&#45;&gt;Node18 -->
<g id="edge21" class="edge">
<title>Node12&#45;&gt;Node18</title>
<path fill="none" stroke="midnightblue" d="M348,-56.32C334.9,-47.9 314.79,-34.97 299.39,-25.07"/>
<polygon fill="midnightblue" stroke="midnightblue" points="301.27,-22.12 290.96,-19.65 297.48,-28.01 301.27,-22.12"/>
</g>
<!-- Node19&#45;&gt;Node2 -->
<g id="edge25" class="edge">
<title>Node19&#45;&gt;Node2</title>
<path fill="none" stroke="midnightblue" d="M684.23,-58.31C639.15,-47.64 553.57,-27.38 523.97,-20.2"/>
<polygon fill="midnightblue" stroke="midnightblue" points="524.78,-16.8 514.24,-17.79 523.1,-23.59 524.78,-16.8"/>
</g>
<!-- Node19&#45;&gt;Node10 -->
<g id="edge27" class="edge">
<title>Node19&#45;&gt;Node10</title>
<path fill="none" stroke="midnightblue" d="M711.67,-56.08C711.02,-49.01 710.08,-38.86 709.26,-29.99"/>
<polygon fill="midnightblue" stroke="midnightblue" points="712.72,-29.39 708.31,-19.75 705.75,-30.03 712.72,-29.39"/>
</g>
<!-- Node19&#45;&gt;Node11 -->
<g id="edge23" class="edge">
<title>Node19&#45;&gt;Node11</title>
<path fill="none" stroke="midnightblue" d="M698.84,-56.32C685.58,-47.9 665.23,-34.97 649.65,-25.07"/>
<polygon fill="midnightblue" stroke="midnightblue" points="651.44,-22.06 641.12,-19.65 647.69,-27.97 651.44,-22.06"/>
</g>
<!-- Node20 -->
<g id="node20" class="node">
<title>Node20</title>
<g id="a_node20"><a xlink:title=" ">
<polygon fill="none" stroke="#bfbfbf" points="915.5,-0.5 915.5,-19.5 967.5,-19.5 967.5,-0.5 915.5,-0.5"/>
<text text-anchor="middle" x="941.5" y="-7.5" font-family="Helvetica,sans-Serif" font-size="10.00">cassert</text>
</a>
</g>
</g>
<!-- Node19&#45;&gt;Node20 -->
<g id="edge24" class="edge">
<title>Node19&#45;&gt;Node20</title>
<path fill="none" stroke="midnightblue" d="M740.82,-58.65C776.8,-50.54 841.05,-35.89 905.26,-20.26"/>
<polygon fill="midnightblue" stroke="midnightblue" points="906.26,-23.62 915.14,-17.85 904.6,-16.82 906.26,-23.62"/>
</g>
<!-- Node21 -->
<g id="node21" class="node">
<title>Node21</title>
<g id="a_node21"><a xlink:title=" ">
<polygon fill="none" stroke="#bfbfbf" points="758,-0.5 758,-19.5 823,-19.5 823,-0.5 758,-0.5"/>
<text text-anchor="middle" x="790.5" y="-7.5" font-family="Helvetica,sans-Serif" font-size="10.00">functional</text>
</a>
</g>
</g>
<!-- Node19&#45;&gt;Node21 -->
<g id="edge26" class="edge">
<title>Node19&#45;&gt;Node21</title>
<path fill="none" stroke="midnightblue" d="M725.03,-56.32C737.09,-47.98 755.53,-35.21 769.77,-25.35"/>
<polygon fill="midnightblue" stroke="midnightblue" points="771.77,-28.22 778,-19.65 767.78,-22.47 771.77,-28.22"/>
</g>
<!-- Node22 -->
<g id="node22" class="node">
<title>Node22</title>
<g id="a_node22"><a xlink:title=" ">
<polygon fill="none" stroke="#bfbfbf" points="841.5,-0.5 841.5,-19.5 897.5,-19.5 897.5,-0.5 841.5,-0.5"/>
<text text-anchor="middle" x="869.5" y="-7.5" font-family="Helvetica,sans-Serif" font-size="10.00">numeric</text>
</a>
</g>
</g>
<!-- Node19&#45;&gt;Node22 -->
<g id="edge28" class="edge">
<title>Node19&#45;&gt;Node22</title>
<path fill="none" stroke="midnightblue" d="M737.38,-56.44C763.79,-47.36 805.72,-32.94 835.24,-22.78"/>
<polygon fill="midnightblue" stroke="midnightblue" points="836.42,-26.08 844.74,-19.52 834.14,-19.46 836.42,-26.08"/>
</g>
</g>
</svg>
