<?xml version="1.0" encoding="UTF-8" standalone="no"?>
<!DOCTYPE svg PUBLIC "-//W3C//DTD SVG 1.1//EN"
 "http://www.w3.org/Graphics/SVG/1.1/DTD/svg11.dtd">
<!-- Generated by graphviz version 2.43.0 (0)
 -->
<!-- Title: src/stock.cpp Pages: 1 -->
<svg width="824pt" height="247pt"
 viewBox="0.00 0.00 823.50 247.00" xmlns="http://www.w3.org/2000/svg" xmlns:xlink="http://www.w3.org/1999/xlink">
<g id="graph0" class="graph" transform="scale(1 1) rotate(0) translate(4 243)">
<title>src/stock.cpp</title>
<!-- Node1 -->
<g id="Node000001" class="node">
<title>Node1</title>
<g id="a_Node000001"><a xlink:title=" ">
<polygon fill="#999999" stroke="#666666" points="545.5,-239 465.5,-239 465.5,-220 545.5,-220 545.5,-239"/>
<text text-anchor="middle" x="505.5" y="-227" font-family="Helvetica,sans-Serif" font-size="10.00">src/stock.cpp</text>
</a>
</g>
</g>
<!-- Node2 -->
<g id="Node000002" class="node">
<title>Node2</title>
<g id="a_Node000002"><a xlink:href="population_8h.html" target="_top" xlink:title=" ">
<polygon fill="white" stroke="#666666" points="254,-184 177,-184 177,-165 254,-165 254,-184"/>
<text text-anchor="middle" x="215.5" y="-172" font-family="Helvetica,sans-Serif" font-size="10.00">population.h</text>
</a>
</g>
</g>
<!-- Node1&#45;&gt;Node2 -->
<g id="edge1_Node000001_Node000002" class="edge">
<title>Node1&#45;&gt;Node2</title>
<g id="a_edge1_Node000001_Node000002"><a xlink:title=" ">
<path fill="none" stroke="#63b8ff" d="M465.48,-221.19C412.97,-211.59 320.86,-194.76 264.31,-184.42"/>
<polygon fill="#63b8ff" stroke="#63b8ff" points="264.65,-180.92 254.18,-182.57 263.39,-187.81 264.65,-180.92"/>
</a>
</g>
</g>
<!-- Node9 -->
<g id="Node000009" class="node">
<title>Node9</title>
<g id="a_Node000009"><a xlink:title=" ">
<polygon fill="#e0e0e0" stroke="#999999" points="740,-19 693,-19 693,0 740,0 740,-19"/>
<text text-anchor="middle" x="716.5" y="-7" font-family="Helvetica,sans-Serif" font-size="10.00">cmath</text>
</a>
</g>
</g>
<!-- Node1&#45;&gt;Node9 -->
<g id="edge24_Node000001_Node000009" class="edge">
<title>Node1&#45;&gt;Node9</title>
<g id="a_edge24_Node000001_Node000009"><a xlink:title=" ">
<path fill="none" stroke="#63b8ff" d="M545.55,-224.55C595.88,-218.73 678.17,-206.07 698.5,-184 738.12,-140.99 728.21,-64.15 720.95,-28.98"/>
<polygon fill="#63b8ff" stroke="#63b8ff" points="724.34,-28.13 718.75,-19.13 717.51,-29.65 724.34,-28.13"/>
</a>
</g>
</g>
<!-- Node10 -->
<g id="Node000010" class="node">
<title>Node10</title>
<g id="a_Node000010"><a xlink:title=" ">
<polygon fill="#e0e0e0" stroke="#999999" points="674.5,-19 610.5,-19 610.5,0 674.5,0 674.5,-19"/>
<text text-anchor="middle" x="642.5" y="-7" font-family="Helvetica,sans-Serif" font-size="10.00">algorithm</text>
</a>
</g>
</g>
<!-- Node1&#45;&gt;Node10 -->
<g id="edge25_Node000001_Node000010" class="edge">
<title>Node1&#45;&gt;Node10</title>
<g id="a_edge25_Node000001_Node000010"><a xlink:title=" ">
<path fill="none" stroke="#63b8ff" d="M512.54,-219.86C530.91,-197.03 581.2,-132.86 614.5,-74 622.75,-59.42 630.3,-41.94 635.47,-29.02"/>
<polygon fill="#63b8ff" stroke="#63b8ff" points="638.85,-29.98 639.23,-19.39 632.33,-27.44 638.85,-29.98"/>
</a>
</g>
</g>
<!-- Node11 -->
<g id="Node000011" class="node">
<title>Node11</title>
<g id="a_Node000011"><a xlink:title=" ">
<polygon fill="#e0e0e0" stroke="#999999" points="592.5,-19 532.5,-19 532.5,0 592.5,0 592.5,-19"/>
<text text-anchor="middle" x="562.5" y="-7" font-family="Helvetica,sans-Serif" font-size="10.00">iostream</text>
</a>
</g>
</g>
<!-- Node1&#45;&gt;Node11 -->
<g id="edge26_Node000001_Node000011" class="edge">
<title>Node1&#45;&gt;Node11</title>
<g id="a_edge26_Node000001_Node000011"><a xlink:title=" ">
<path fill="none" stroke="#63b8ff" d="M504.8,-219.75C503.07,-193.54 500.34,-113.82 525.5,-55 530.02,-44.44 537.88,-34.44 545.19,-26.6"/>
<polygon fill="#63b8ff" stroke="#63b8ff" points="547.89,-28.85 552.46,-19.29 542.93,-23.92 547.89,-28.85"/>
</a>
</g>
</g>
<!-- Node14 -->
<g id="Node000014" class="node">
<title>Node14</title>
<g id="a_Node000014"><a xlink:title=" ">
<polygon fill="#e0e0e0" stroke="#999999" points="440.5,-19 396.5,-19 396.5,0 440.5,0 440.5,-19"/>
<text text-anchor="middle" x="418.5" y="-7" font-family="Helvetica,sans-Serif" font-size="10.00">string</text>
</a>
</g>
</g>
<!-- Node1&#45;&gt;Node14 -->
<g id="edge28_Node000001_Node000014" class="edge">
<title>Node1&#45;&gt;Node14</title>
<g id="a_edge28_Node000001_Node000014"><a xlink:title=" ">
<path fill="none" stroke="#63b8ff" d="M501.11,-219.73C496.72,-210.82 489.85,-196.58 484.5,-184 460.8,-128.29 436.34,-60.92 425,-29"/>
<polygon fill="#63b8ff" stroke="#63b8ff" points="428.19,-27.52 421.56,-19.26 421.59,-29.86 428.19,-27.52"/>
</a>
</g>
</g>
<!-- Node15 -->
<g id="Node000015" class="node">
<title>Node15</title>
<g id="a_Node000015"><a xlink:title=" ">
<polygon fill="#e0e0e0" stroke="#999999" points="514,-19 459,-19 459,0 514,0 514,-19"/>
<text text-anchor="middle" x="486.5" y="-7" font-family="Helvetica,sans-Serif" font-size="10.00">fstream</text>
</a>
</g>
</g>
<!-- Node1&#45;&gt;Node15 -->
<g id="edge27_Node000001_Node000015" class="edge">
<title>Node1&#45;&gt;Node15</title>
<g id="a_edge27_Node000001_Node000015"><a xlink:title=" ">
<path fill="none" stroke="#63b8ff" d="M501.98,-219.81C498.58,-210.97 493.65,-196.78 491.5,-184 482.14,-128.42 483.79,-61.45 485.36,-29.39"/>
<polygon fill="#63b8ff" stroke="#63b8ff" points="488.86,-29.42 485.91,-19.25 481.87,-29.04 488.86,-29.42"/>
</a>
</g>
</g>
<!-- Node19 -->
<g id="Node000019" class="node">
<title>Node19</title>
<g id="a_Node000019"><a xlink:href="pn__zero_8h.html" target="_top" xlink:title=" ">
<polygon fill="white" stroke="#666666" points="689.5,-184 625.5,-184 625.5,-165 689.5,-165 689.5,-184"/>
<text text-anchor="middle" x="657.5" y="-172" font-family="Helvetica,sans-Serif" font-size="10.00">pn_zero.h</text>
</a>
</g>
</g>
<!-- Node1&#45;&gt;Node19 -->
<g id="edge21_Node000001_Node000019" class="edge">
<title>Node1&#45;&gt;Node19</title>
<g id="a_edge21_Node000001_Node000019"><a xlink:title=" ">
<path fill="none" stroke="#63b8ff" d="M529.92,-219.98C555.22,-211.16 594.95,-197.31 623.36,-187.41"/>
<polygon fill="#63b8ff" stroke="#63b8ff" points="624.6,-190.68 632.89,-184.08 622.29,-184.07 624.6,-190.68"/>
</a>
</g>
</g>
<!-- Node21 -->
<g id="Node000021" class="node">
<title>Node21</title>
<g id="a_Node000021"><a xlink:title=" ">
<polygon fill="#e0e0e0" stroke="#999999" points="815.5,-184 763.5,-184 763.5,-165 815.5,-165 815.5,-184"/>
<text text-anchor="middle" x="789.5" y="-172" font-family="Helvetica,sans-Serif" font-size="10.00">cassert</text>
</a>
</g>
</g>
<!-- Node1&#45;&gt;Node21 -->
<g id="edge29_Node000001_Node000021" class="edge">
<title>Node1&#45;&gt;Node21</title>
<g id="a_edge29_Node000001_Node000021"><a xlink:title=" ">
<path fill="none" stroke="#63b8ff" d="M545.72,-221.53C594.14,-213.06 677.9,-198.13 749.5,-184 750.75,-183.75 752.03,-183.5 753.32,-183.24"/>
<polygon fill="#63b8ff" stroke="#63b8ff" points="754.18,-186.63 763.27,-181.19 752.77,-179.78 754.18,-186.63"/>
</a>
</g>
</g>
<!-- Node22 -->
<g id="Node000022" class="node">
<title>Node22</title>
<g id="a_Node000022"><a xlink:href="stock_8h.html" target="_top" xlink:title=" ">
<polygon fill="white" stroke="#666666" points="158.5,-184 106.5,-184 106.5,-165 158.5,-165 158.5,-184"/>
<text text-anchor="middle" x="132.5" y="-172" font-family="Helvetica,sans-Serif" font-size="10.00">stock.h</text>
</a>
</g>
</g>
<!-- Node1&#45;&gt;Node22 -->
<g id="edge30_Node000001_Node000022" class="edge">
<title>Node1&#45;&gt;Node22</title>
<g id="a_edge30_Node000001_Node000022"><a xlink:title=" ">
<path fill="none" stroke="#63b8ff" d="M465.48,-224.64C403.78,-218.38 281.58,-204.76 168.66,-184.04"/>
<polygon fill="#63b8ff" stroke="#63b8ff" points="169.28,-180.6 158.81,-182.21 168,-187.48 169.28,-180.6"/>
</a>
</g>
</g>
<!-- Node3 -->
<g id="Node000003" class="node">
<title>Node3</title>
<g id="a_Node000003"><a xlink:title=" ">
<polygon fill="#e0e0e0" stroke="#999999" points="47,-19 0,-19 0,0 47,0 47,-19"/>
<text text-anchor="middle" x="23.5" y="-7" font-family="Helvetica,sans-Serif" font-size="10.00">vector</text>
</a>
</g>
</g>
<!-- Node2&#45;&gt;Node3 -->
<g id="edge2_Node000002_Node000003" class="edge">
<title>Node2&#45;&gt;Node3</title>
<g id="a_edge2_Node000002_Node000003"><a xlink:title=" ">
<path fill="none" stroke="#63b8ff" d="M224.21,-164.89C235.84,-152.31 253.77,-128.38 242.5,-110 221.95,-76.48 113.17,-38.45 57.05,-20.67"/>
<polygon fill="#63b8ff" stroke="#63b8ff" points="57.81,-17.24 47.22,-17.59 55.72,-23.92 57.81,-17.24"/>
</a>
</g>
</g>
<!-- Node4 -->
<g id="Node000004" class="node">
<title>Node4</title>
<g id="a_Node000004"><a xlink:title=" ">
<polygon fill="#e0e0e0" stroke="#999999" points="165.5,-129 111.5,-129 111.5,-110 165.5,-110 165.5,-129"/>
<text text-anchor="middle" x="138.5" y="-117" font-family="Helvetica,sans-Serif" font-size="10.00">random</text>
</a>
</g>
</g>
<!-- Node2&#45;&gt;Node4 -->
<g id="edge3_Node000002_Node000004" class="edge">
<title>Node2&#45;&gt;Node4</title>
<g id="a_edge3_Node000002_Node000004"><a xlink:title=" ">
<path fill="none" stroke="#63b8ff" d="M203.13,-164.98C191.41,-156.92 173.58,-144.65 159.61,-135.03"/>
<polygon fill="#63b8ff" stroke="#63b8ff" points="161.32,-131.96 151.1,-129.17 157.35,-137.72 161.32,-131.96"/>
</a>
</g>
</g>
<!-- Node5 -->
<g id="Node000005" class="node">
<title>Node5</title>
<g id="a_Node000005"><a xlink:title=" ">
<polygon fill="#e0e0e0" stroke="#999999" points="233.5,-129 183.5,-129 183.5,-110 233.5,-110 233.5,-129"/>
<text text-anchor="middle" x="208.5" y="-117" font-family="Helvetica,sans-Serif" font-size="10.00">Rcpp.h</text>
</a>
</g>
</g>
<!-- Node2&#45;&gt;Node5 -->
<g id="edge4_Node000002_Node000005" class="edge">
<title>Node2&#45;&gt;Node5</title>
<g id="a_edge4_Node000002_Node000005"><a xlink:title=" ">
<path fill="none" stroke="#63b8ff" d="M214.34,-164.75C213.43,-157.8 212.11,-147.85 210.96,-139.13"/>
<polygon fill="#63b8ff" stroke="#63b8ff" points="214.41,-138.54 209.63,-129.09 207.47,-139.46 214.41,-138.54"/>
</a>
</g>
</g>
<!-- Node6 -->
<g id="Node000006" class="node">
<title>Node6</title>
<g id="a_Node000006"><a xlink:href="fish_8h.html" target="_top" xlink:title=" ">
<polygon fill="white" stroke="#666666" points="93,-129 50,-129 50,-110 93,-110 93,-129"/>
<text text-anchor="middle" x="71.5" y="-117" font-family="Helvetica,sans-Serif" font-size="10.00">fish.h</text>
</a>
</g>
</g>
<!-- Node2&#45;&gt;Node6 -->
<g id="edge5_Node000002_Node000006" class="edge">
<title>Node2&#45;&gt;Node6</title>
<g id="a_edge5_Node000002_Node000006"><a xlink:title=" ">
<path fill="none" stroke="#63b8ff" d="M192.36,-164.98C168.11,-156.06 129.86,-141.98 102.89,-132.05"/>
<polygon fill="#63b8ff" stroke="#63b8ff" points="103.76,-128.64 93.17,-128.47 101.34,-135.21 103.76,-128.64"/>
</a>
</g>
</g>
<!-- Node6&#45;&gt;Node3 -->
<g id="edge6_Node000006_Node000003" class="edge">
<title>Node6&#45;&gt;Node3</title>
<g id="a_edge6_Node000006_Node000003"><a xlink:title=" ">
<path fill="none" stroke="#63b8ff" d="M67.57,-109.66C59.69,-91.93 41.82,-51.73 31.42,-28.32"/>
<polygon fill="#63b8ff" stroke="#63b8ff" points="34.61,-26.87 27.35,-19.16 28.21,-29.72 34.61,-26.87"/>
</a>
</g>
</g>
<!-- Node7 -->
<g id="Node000007" class="node">
<title>Node7</title>
<g id="a_Node000007"><a xlink:title=" ">
<polygon fill="#e0e0e0" stroke="#999999" points="125.5,-74 87.5,-74 87.5,-55 125.5,-55 125.5,-74"/>
<text text-anchor="middle" x="106.5" y="-62" font-family="Helvetica,sans-Serif" font-size="10.00">map</text>
</a>
</g>
</g>
<!-- Node6&#45;&gt;Node7 -->
<g id="edge7_Node000006_Node000007" class="edge">
<title>Node6&#45;&gt;Node7</title>
<g id="a_edge7_Node000006_Node000007"><a xlink:title=" ">
<path fill="none" stroke="#63b8ff" d="M77.28,-109.75C82.12,-102.42 89.18,-91.73 95.14,-82.7"/>
<polygon fill="#63b8ff" stroke="#63b8ff" points="98.24,-84.36 100.83,-74.09 92.4,-80.5 98.24,-84.36"/>
</a>
</g>
</g>
<!-- Node8 -->
<g id="Node000008" class="node">
<title>Node8</title>
<g id="a_Node000008"><a xlink:href="functions_8h.html" target="_top" xlink:title=" ">
<polygon fill="white" stroke="#666666" points="605,-74 534,-74 534,-55 605,-55 605,-74"/>
<text text-anchor="middle" x="569.5" y="-62" font-family="Helvetica,sans-Serif" font-size="10.00">functions.h</text>
</a>
</g>
</g>
<!-- Node6&#45;&gt;Node8 -->
<g id="edge8_Node000006_Node000008" class="edge">
<title>Node6&#45;&gt;Node8</title>
<g id="a_edge8_Node000006_Node000008"><a xlink:title=" ">
<path fill="none" stroke="#63b8ff" d="M93.07,-112.07C96.21,-111.29 99.43,-110.56 102.5,-110 255.19,-82.01 439.38,-71.03 523.53,-67.25"/>
<polygon fill="#63b8ff" stroke="#63b8ff" points="523.93,-70.73 533.77,-66.8 523.62,-63.74 523.93,-70.73"/>
</a>
</g>
</g>
<!-- Node12 -->
<g id="Node000012" class="node">
<title>Node12</title>
<g id="a_Node000012"><a xlink:href="initializer__v2_8h.html" target="_top" xlink:title=" ">
<polygon fill="white" stroke="#666666" points="377,-74 288,-74 288,-55 377,-55 377,-74"/>
<text text-anchor="middle" x="332.5" y="-62" font-family="Helvetica,sans-Serif" font-size="10.00">initializer_v2.h</text>
</a>
</g>
</g>
<!-- Node6&#45;&gt;Node12 -->
<g id="edge12_Node000006_Node000012" class="edge">
<title>Node6&#45;&gt;Node12</title>
<g id="a_edge12_Node000006_Node000012"><a xlink:title=" ">
<path fill="none" stroke="#63b8ff" d="M93.13,-112.34C96.26,-111.52 99.46,-110.71 102.5,-110 162.09,-96.09 231.08,-83.16 277.84,-74.86"/>
<polygon fill="#63b8ff" stroke="#63b8ff" points="278.52,-78.29 287.76,-73.11 277.31,-71.4 278.52,-78.29"/>
</a>
</g>
</g>
<!-- Node8&#45;&gt;Node9 -->
<g id="edge9_Node000008_Node000009" class="edge">
<title>Node8&#45;&gt;Node9</title>
<g id="a_edge9_Node000008_Node000009"><a xlink:title=" ">
<path fill="none" stroke="#63b8ff" d="M593.12,-54.98C617.55,-46.18 655.9,-32.35 683.36,-22.45"/>
<polygon fill="#63b8ff" stroke="#63b8ff" points="684.72,-25.68 692.94,-18.99 682.35,-19.09 684.72,-25.68"/>
</a>
</g>
</g>
<!-- Node8&#45;&gt;Node10 -->
<g id="edge10_Node000008_Node000010" class="edge">
<title>Node8&#45;&gt;Node10</title>
<g id="a_edge10_Node000008_Node000010"><a xlink:title=" ">
<path fill="none" stroke="#63b8ff" d="M581.23,-54.98C592.23,-47 608.92,-34.88 622.1,-25.31"/>
<polygon fill="#63b8ff" stroke="#63b8ff" points="624.52,-27.88 630.56,-19.17 620.41,-22.21 624.52,-27.88"/>
</a>
</g>
</g>
<!-- Node8&#45;&gt;Node11 -->
<g id="edge11_Node000008_Node000011" class="edge">
<title>Node8&#45;&gt;Node11</title>
<g id="a_edge11_Node000008_Node000011"><a xlink:title=" ">
<path fill="none" stroke="#63b8ff" d="M568.34,-54.75C567.43,-47.8 566.11,-37.85 564.96,-29.13"/>
<polygon fill="#63b8ff" stroke="#63b8ff" points="568.41,-28.54 563.63,-19.09 561.47,-29.46 568.41,-28.54"/>
</a>
</g>
</g>
<!-- Node12&#45;&gt;Node3 -->
<g id="edge17_Node000012_Node000003" class="edge">
<title>Node12&#45;&gt;Node3</title>
<g id="a_edge17_Node000012_Node000003"><a xlink:title=" ">
<path fill="none" stroke="#63b8ff" d="M287.76,-56.8C225.22,-47.35 113.85,-30.21 57.16,-18.93"/>
<polygon fill="#63b8ff" stroke="#63b8ff" points="57.73,-15.47 47.23,-16.89 56.32,-22.33 57.73,-15.47"/>
</a>
</g>
</g>
<!-- Node12&#45;&gt;Node11 -->
<g id="edge13_Node000012_Node000011" class="edge">
<title>Node12&#45;&gt;Node11</title>
<g id="a_edge13_Node000012_Node000011"><a xlink:title=" ">
<path fill="none" stroke="#63b8ff" d="M369.45,-54.98C411.3,-45.34 479.27,-29.68 522.38,-19.74"/>
<polygon fill="#63b8ff" stroke="#63b8ff" points="523.29,-23.13 532.25,-17.47 521.72,-16.31 523.29,-23.13"/>
</a>
</g>
</g>
<!-- Node13 -->
<g id="Node000013" class="node">
<title>Node13</title>
<g id="a_Node000013"><a xlink:title=" ">
<polygon fill="#e0e0e0" stroke="#999999" points="109.5,-19 65.5,-19 65.5,0 109.5,0 109.5,-19"/>
<text text-anchor="middle" x="87.5" y="-7" font-family="Helvetica,sans-Serif" font-size="10.00">regex</text>
</a>
</g>
</g>
<!-- Node12&#45;&gt;Node13 -->
<g id="edge14_Node000012_Node000013" class="edge">
<title>Node12&#45;&gt;Node13</title>
<g id="a_edge14_Node000012_Node000013"><a xlink:title=" ">
<path fill="none" stroke="#63b8ff" d="M287.64,-55.02C246.34,-47.02 183.15,-34.31 119.6,-19.15"/>
<polygon fill="#63b8ff" stroke="#63b8ff" points="120.35,-15.73 109.81,-16.8 118.71,-22.54 120.35,-15.73"/>
</a>
</g>
</g>
<!-- Node12&#45;&gt;Node14 -->
<g id="edge15_Node000012_Node000014" class="edge">
<title>Node12&#45;&gt;Node14</title>
<g id="a_edge15_Node000012_Node000014"><a xlink:title=" ">
<path fill="none" stroke="#63b8ff" d="M346.32,-54.98C359.65,-46.77 380.08,-34.18 395.81,-24.49"/>
<polygon fill="#63b8ff" stroke="#63b8ff" points="397.75,-27.4 404.43,-19.17 394.08,-21.44 397.75,-27.4"/>
</a>
</g>
</g>
<!-- Node12&#45;&gt;Node15 -->
<g id="edge16_Node000012_Node000015" class="edge">
<title>Node12&#45;&gt;Node15</title>
<g id="a_edge16_Node000012_Node000015"><a xlink:title=" ">
<path fill="none" stroke="#63b8ff" d="M357.24,-54.98C382.87,-46.16 423.13,-32.31 451.91,-22.41"/>
<polygon fill="#63b8ff" stroke="#63b8ff" points="453.25,-25.65 461.56,-19.08 450.97,-19.03 453.25,-25.65"/>
</a>
</g>
</g>
<!-- Node16 -->
<g id="Node000016" class="node">
<title>Node16</title>
<g id="a_Node000016"><a xlink:title=" ">
<polygon fill="#e0e0e0" stroke="#999999" points="183.5,-19 127.5,-19 127.5,0 183.5,0 183.5,-19"/>
<text text-anchor="middle" x="155.5" y="-7" font-family="Helvetica,sans-Serif" font-size="10.00">sstream</text>
</a>
</g>
</g>
<!-- Node12&#45;&gt;Node16 -->
<g id="edge18_Node000012_Node000016" class="edge">
<title>Node12&#45;&gt;Node16</title>
<g id="a_edge18_Node000012_Node000016"><a xlink:title=" ">
<path fill="none" stroke="#63b8ff" d="M304.06,-54.98C274.04,-45.99 226.56,-31.78 193.38,-21.84"/>
<polygon fill="#63b8ff" stroke="#63b8ff" points="194.16,-18.42 183.58,-18.91 192.15,-25.13 194.16,-18.42"/>
</a>
</g>
</g>
<!-- Node17 -->
<g id="Node000017" class="node">
<title>Node17</title>
<g id="a_Node000017"><a xlink:title=" ">
<polygon fill="#e0e0e0" stroke="#999999" points="267,-19 202,-19 202,0 267,0 267,-19"/>
<text text-anchor="middle" x="234.5" y="-7" font-family="Helvetica,sans-Serif" font-size="10.00">stdexcept</text>
</a>
</g>
</g>
<!-- Node12&#45;&gt;Node17 -->
<g id="edge19_Node000012_Node000017" class="edge">
<title>Node12&#45;&gt;Node17</title>
<g id="a_edge19_Node000012_Node000017"><a xlink:title=" ">
<path fill="none" stroke="#63b8ff" d="M316.75,-54.98C301.27,-46.61 277.41,-33.7 259.36,-23.95"/>
<polygon fill="#63b8ff" stroke="#63b8ff" points="260.99,-20.85 250.53,-19.17 257.66,-27.01 260.99,-20.85"/>
</a>
</g>
</g>
<!-- Node18 -->
<g id="Node000018" class="node">
<title>Node18</title>
<g id="a_Node000018"><a xlink:title=" ">
<polygon fill="#e0e0e0" stroke="#999999" points="378,-19 285,-19 285,0 378,0 378,-19"/>
<text text-anchor="middle" x="331.5" y="-7" font-family="Helvetica,sans-Serif" font-size="10.00">unordered_map</text>
</a>
</g>
</g>
<!-- Node12&#45;&gt;Node18 -->
<g id="edge20_Node000012_Node000018" class="edge">
<title>Node12&#45;&gt;Node18</title>
<g id="a_edge20_Node000012_Node000018"><a xlink:title=" ">
<path fill="none" stroke="#63b8ff" d="M332.33,-54.75C332.2,-47.8 332.02,-37.85 331.85,-29.13"/>
<polygon fill="#63b8ff" stroke="#63b8ff" points="335.35,-29.02 331.66,-19.09 328.35,-29.15 335.35,-29.02"/>
</a>
</g>
</g>
<!-- Node19&#45;&gt;Node9 -->
<g id="edge22_Node000019_Node000009" class="edge">
<title>Node19&#45;&gt;Node9</title>
<g id="a_edge22_Node000019_Node000009"><a xlink:title=" ">
<path fill="none" stroke="#63b8ff" d="M662.03,-164.78C666.54,-155.92 673.49,-141.72 678.5,-129 692.18,-94.3 704.7,-52.5 711.39,-28.97"/>
<polygon fill="#63b8ff" stroke="#63b8ff" points="714.78,-29.83 714.12,-19.26 708.04,-27.94 714.78,-29.83"/>
</a>
</g>
</g>
<!-- Node20 -->
<g id="Node000020" class="node">
<title>Node20</title>
<g id="a_Node000020"><a xlink:title=" ">
<polygon fill="#e0e0e0" stroke="#999999" points="669.5,-129 625.5,-129 625.5,-110 669.5,-110 669.5,-129"/>
<text text-anchor="middle" x="647.5" y="-117" font-family="Helvetica,sans-Serif" font-size="10.00">limits</text>
</a>
</g>
</g>
<!-- Node19&#45;&gt;Node20 -->
<g id="edge23_Node000019_Node000020" class="edge">
<title>Node19&#45;&gt;Node20</title>
<g id="a_edge23_Node000019_Node000020"><a xlink:title=" ">
<path fill="none" stroke="#63b8ff" d="M655.85,-164.75C654.54,-157.8 652.66,-147.85 651.02,-139.13"/>
<polygon fill="#63b8ff" stroke="#63b8ff" points="654.41,-138.27 649.12,-129.09 647.54,-139.56 654.41,-138.27"/>
</a>
</g>
</g>
<!-- Node22&#45;&gt;Node3 -->
<g id="edge31_Node000022_Node000003" class="edge">
<title>Node22&#45;&gt;Node3</title>
<g id="a_edge31_Node000022_Node000003"><a xlink:title=" ">
<path fill="none" stroke="#63b8ff" d="M106.32,-167.98C85.09,-162.07 56.21,-150.48 40.5,-129 18.9,-99.47 18.97,-54.52 21.12,-29.32"/>
<polygon fill="#63b8ff" stroke="#63b8ff" points="24.61,-29.57 22.18,-19.26 17.65,-28.83 24.61,-29.57"/>
</a>
</g>
</g>
<!-- Node22&#45;&gt;Node4 -->
<g id="edge32_Node000022_Node000004" class="edge">
<title>Node22&#45;&gt;Node4</title>
<g id="a_edge32_Node000022_Node000004"><a xlink:title=" ">
<path fill="none" stroke="#63b8ff" d="M133.49,-164.75C134.28,-157.8 135.4,-147.85 136.39,-139.13"/>
<polygon fill="#63b8ff" stroke="#63b8ff" points="139.88,-139.42 137.53,-129.09 132.92,-138.63 139.88,-139.42"/>
</a>
</g>
</g>
<!-- Node22&#45;&gt;Node5 -->
<g id="edge33_Node000022_Node000005" class="edge">
<title>Node22&#45;&gt;Node5</title>
<g id="a_edge33_Node000022_Node000005"><a xlink:title=" ">
<path fill="none" stroke="#63b8ff" d="M144.71,-164.98C156.28,-156.92 173.88,-144.65 187.66,-135.03"/>
<polygon fill="#63b8ff" stroke="#63b8ff" points="189.87,-137.76 196.07,-129.17 185.86,-132.02 189.87,-137.76"/>
</a>
</g>
</g>
<!-- Node22&#45;&gt;Node6 -->
<g id="edge34_Node000022_Node000006" class="edge">
<title>Node22&#45;&gt;Node6</title>
<g id="a_edge34_Node000022_Node000006"><a xlink:title=" ">
<path fill="none" stroke="#63b8ff" d="M122.7,-164.98C113.68,-157.15 100.09,-145.34 89.18,-135.86"/>
<polygon fill="#63b8ff" stroke="#63b8ff" points="91.32,-133.09 81.48,-129.17 86.73,-138.37 91.32,-133.09"/>
</a>
</g>
</g>
</g>
</svg>
