<?xml version="1.0" encoding="UTF-8" standalone="no"?>
<!DOCTYPE svg PUBLIC "-//W3C//DTD SVG 1.1//EN"
 "http://www.w3.org/Graphics/SVG/1.1/DTD/svg11.dtd">
<!-- Generated by graphviz version 2.43.0 (0)
 -->
<!-- Title: inst/include/tensor.h Pages: 1 -->
<svg width="443pt" height="84pt"
 viewBox="0.00 0.00 443.00 84.00" xmlns="http://www.w3.org/2000/svg" xmlns:xlink="http://www.w3.org/1999/xlink">
<g id="graph0" class="graph" transform="scale(1 1) rotate(0) translate(4 80)">
<title>inst/include/tensor.h</title>
<!-- Node1 -->
<g id="node1" class="node">
<title>Node1</title>
<g id="a_node1"><a xlink:title=" ">
<polygon fill="#bfbfbf" stroke="black" points="151,-56.5 151,-75.5 267,-75.5 267,-56.5 151,-56.5"/>
<text text-anchor="middle" x="209" y="-63.5" font-family="Helvetica,sans-Serif" font-size="10.00">inst/include/tensor.h</text>
</a>
</g>
</g>
<!-- Node2 -->
<g id="node2" class="node">
<title>Node2</title>
<g id="a_node2"><a xlink:title=" ">
<polygon fill="none" stroke="#bfbfbf" points="0,-0.5 0,-19.5 60,-19.5 60,-0.5 0,-0.5"/>
<text text-anchor="middle" x="30" y="-7.5" font-family="Helvetica,sans-Serif" font-size="10.00">iostream</text>
</a>
</g>
</g>
<!-- Node1&#45;&gt;Node2 -->
<g id="edge1" class="edge">
<title>Node1&#45;&gt;Node2</title>
<path fill="none" stroke="midnightblue" d="M180.64,-56.44C150.26,-47.28 101.89,-32.69 68.18,-22.52"/>
<polygon fill="midnightblue" stroke="midnightblue" points="68.82,-19.05 58.23,-19.52 66.79,-25.76 68.82,-19.05"/>
</g>
<!-- Node3 -->
<g id="node3" class="node">
<title>Node3</title>
<g id="a_node3"><a xlink:title=" ">
<polygon fill="none" stroke="#bfbfbf" points="78,-0.5 78,-19.5 130,-19.5 130,-0.5 78,-0.5"/>
<text text-anchor="middle" x="104" y="-7.5" font-family="Helvetica,sans-Serif" font-size="10.00">cassert</text>
</a>
</g>
</g>
<!-- Node1&#45;&gt;Node3 -->
<g id="edge2" class="edge">
<title>Node1&#45;&gt;Node3</title>
<path fill="none" stroke="midnightblue" d="M192.13,-56.32C175.29,-47.66 149.19,-34.24 129.76,-24.25"/>
<polygon fill="midnightblue" stroke="midnightblue" points="131.32,-21.12 120.83,-19.65 128.12,-27.34 131.32,-21.12"/>
</g>
<!-- Node4 -->
<g id="node4" class="node">
<title>Node4</title>
<g id="a_node4"><a xlink:title=" ">
<polygon fill="none" stroke="#bfbfbf" points="148.5,-0.5 148.5,-19.5 195.5,-19.5 195.5,-0.5 148.5,-0.5"/>
<text text-anchor="middle" x="172" y="-7.5" font-family="Helvetica,sans-Serif" font-size="10.00">vector</text>
</a>
</g>
</g>
<!-- Node1&#45;&gt;Node4 -->
<g id="edge3" class="edge">
<title>Node1&#45;&gt;Node4</title>
<path fill="none" stroke="midnightblue" d="M202.89,-56.08C197.72,-48.53 190.15,-37.49 183.81,-28.23"/>
<polygon fill="midnightblue" stroke="midnightblue" points="186.54,-26.02 178,-19.75 180.76,-29.98 186.54,-26.02"/>
</g>
<!-- Node5 -->
<g id="node5" class="node">
<title>Node5</title>
<g id="a_node5"><a xlink:title=" ">
<polygon fill="none" stroke="#bfbfbf" points="213.5,-0.5 213.5,-19.5 278.5,-19.5 278.5,-0.5 213.5,-0.5"/>
<text text-anchor="middle" x="246" y="-7.5" font-family="Helvetica,sans-Serif" font-size="10.00">functional</text>
</a>
</g>
</g>
<!-- Node1&#45;&gt;Node5 -->
<g id="edge4" class="edge">
<title>Node1&#45;&gt;Node5</title>
<path fill="none" stroke="midnightblue" d="M215.11,-56.08C220.28,-48.53 227.85,-37.49 234.19,-28.23"/>
<polygon fill="midnightblue" stroke="midnightblue" points="237.24,-29.98 240,-19.75 231.46,-26.02 237.24,-29.98"/>
</g>
<!-- Node6 -->
<g id="node6" class="node">
<title>Node6</title>
<g id="a_node6"><a xlink:title=" ">
<polygon fill="none" stroke="#bfbfbf" points="297,-0.5 297,-19.5 361,-19.5 361,-0.5 297,-0.5"/>
<text text-anchor="middle" x="329" y="-7.5" font-family="Helvetica,sans-Serif" font-size="10.00">algorithm</text>
</a>
</g>
</g>
<!-- Node1&#45;&gt;Node6 -->
<g id="edge5" class="edge">
<title>Node1&#45;&gt;Node6</title>
<path fill="none" stroke="midnightblue" d="M228.01,-56.44C247.59,-47.64 278.31,-33.81 300.73,-23.72"/>
<polygon fill="midnightblue" stroke="midnightblue" points="302.39,-26.81 310.07,-19.52 299.52,-20.43 302.39,-26.81"/>
</g>
<!-- Node7 -->
<g id="node7" class="node">
<title>Node7</title>
<g id="a_node7"><a xlink:title=" ">
<polygon fill="none" stroke="#bfbfbf" points="379,-0.5 379,-19.5 435,-19.5 435,-0.5 379,-0.5"/>
<text text-anchor="middle" x="407" y="-7.5" font-family="Helvetica,sans-Serif" font-size="10.00">numeric</text>
</a>
</g>
</g>
<!-- Node1&#45;&gt;Node7 -->
<g id="edge6" class="edge">
<title>Node1&#45;&gt;Node7</title>
<path fill="none" stroke="midnightblue" d="M240.37,-56.44C275.26,-46.93 331.61,-31.56 368.97,-21.37"/>
<polygon fill="midnightblue" stroke="midnightblue" points="370.25,-24.65 378.97,-18.64 368.41,-17.9 370.25,-24.65"/>
</g>
</g>
</svg>
